<svg width="28" height="28" viewBox="0 0 28 28" fill="none" xmlns="http://www.w3.org/2000/svg">
<path d="M0 4C0 1.79086 1.79086 0 4 0H24C26.2091 0 28 1.79086 28 4V24C28 26.2091 26.2091 28 24 28H4C1.79086 28 0 26.2091 0 24V4Z" fill="#E9494E"/>
<path d="M19.6 20.1998C19.445 20.1998 19.2951 20.1398 19.1751 20.0248L7.97506 8.82483C7.74006 8.58983 7.74006 8.20983 7.97506 7.97483C8.21006 7.73983 8.59005 7.73983 8.82505 7.97483L20.0251 19.1748C20.2601 19.4098 20.2601 19.7898 20.0251 20.0248C19.9101 20.1398 19.755 20.1998 19.6 20.1998Z" fill="white"/>
<path d="M14 22.5999C9.26001 22.5999 5.4 18.7399 5.4 13.9999C5.4 9.2599 9.26001 5.3999 14 5.3999C18.74 5.3999 22.6 9.2599 22.6 13.9999C22.6 18.7399 18.74 22.5999 14 22.5999ZM14 6.5999C9.92001 6.5999 6.60001 9.9199 6.60001 13.9999C6.60001 18.0799 9.92001 21.3999 14 21.3999C18.08 21.3999 21.4 18.0799 21.4 13.9999C21.4 9.9199 18.08 6.5999 14 6.5999Z" fill="white"/>
</svg>
