<svg width="28" height="28" viewBox="0 0 28 28" fill="none" xmlns="http://www.w3.org/2000/svg">
<path d="M0 4C0 1.79086 1.79086 0 4 0H24C26.2091 0 28 1.79086 28 4V24C28 26.2091 26.2091 28 24 28H4C1.79086 28 0 26.2091 0 24V4Z" fill="#2E0608"/>
<path d="M19.8325 20.4593C19.6725 20.4593 19.5125 20.3993 19.3925 20.2743L7.7275 8.60928C7.4825 8.36428 7.4825 7.96928 7.7275 7.72428C7.9725 7.47928 8.36751 7.47928 8.61251 7.72428L20.2775 19.3893C20.5225 19.6343 20.5225 20.0293 20.2775 20.2743C20.1575 20.3943 19.9975 20.4593 19.8375 20.4593H19.8325Z" fill="white"/>
<path d="M8.16248 20.4593C8.00248 20.4593 7.8425 20.3993 7.7225 20.2743C7.4775 20.0293 7.4775 19.6343 7.7225 19.3893L19.3875 7.72428C19.6325 7.47928 20.0275 7.47928 20.2725 7.72428C20.5175 7.96928 20.5175 8.36428 20.2725 8.60928L8.60749 20.2743C8.48749 20.3943 8.32749 20.4593 8.16749 20.4593H8.16248Z" fill="white"/>
</svg>
