<svg width="28" height="28" viewBox="0 0 28 28" fill="none" xmlns="http://www.w3.org/2000/svg">
<path d="M0 4C0 1.79086 1.79086 0 4 0H24C26.2091 0 28 1.79086 28 4V24C28 26.2091 26.2091 28 24 28H4C1.79086 28 0 26.2091 0 24V4Z" fill="#FDEE80"/>
<path fill-rule="evenodd" clip-rule="evenodd" d="M13.6157 5.35774C14.592 5.01257 15.6633 5.52418 16.0085 6.5005C16.3536 7.47682 15.842 8.5481 14.8657 8.89327C13.8894 9.23845 12.8181 8.72684 12.4729 7.75052C12.1277 6.7742 12.6394 5.70292 13.6157 5.35774ZM13.0503 10.6336C13.1692 10.9576 13.0029 11.3167 12.6788 11.4356C11.383 11.911 10.5887 12.4418 10.0906 13.0176C9.6003 13.5843 9.3529 14.2457 9.2448 15.073C9.20008 15.4153 8.88636 15.6565 8.54409 15.6117C8.20182 15.567 7.96062 15.2533 8.00534 14.911C8.13575 13.913 8.45314 12.9998 9.14524 12.1997C9.82952 11.4087 10.8351 10.7806 12.2482 10.2621C12.5723 10.1432 12.9314 10.3095 13.0503 10.6336ZM14.9108 10.4213C15.2012 10.2348 15.5878 10.319 15.7744 10.6094C15.8003 10.6496 15.8318 10.7032 15.8697 10.7675C16.2252 11.371 17.1374 12.9195 19.1012 13.2468C19.4417 13.3035 19.6717 13.6256 19.615 13.966C19.5582 14.3065 19.2362 14.5365 18.8957 14.4798C16.2964 14.0465 15.0942 11.9347 14.784 11.3898C14.7569 11.3422 14.7365 11.3065 14.7227 11.285C14.5362 10.9946 14.6203 10.6079 14.9108 10.4213ZM13.4282 15.7663C13.6522 15.5037 14.0467 15.4725 14.3093 15.6965L15.6761 16.8627C16.3029 17.3975 16.7471 18.1145 16.947 18.9138L17.5215 21.2117C17.6052 21.5466 17.4016 21.8859 17.0668 21.9696C16.7319 22.0533 16.3926 21.8498 16.3088 21.5149L15.7343 19.217C15.5976 18.6701 15.2936 18.1795 14.8647 17.8136L13.4979 16.6474C13.2354 16.4234 13.2041 16.0289 13.4282 15.7663ZM12.1128 17.0207C12.4403 17.1299 12.6173 17.4838 12.5081 17.8113L12.3032 18.4261C12.1451 18.9004 11.9244 19.3515 11.6471 19.7675L10.3519 21.7104C10.1604 21.9976 9.77236 22.0752 9.48516 21.8837C9.19795 21.6922 9.12034 21.3042 9.31181 21.017L10.6071 19.0741C10.8228 18.7506 10.9944 18.3997 11.1173 18.0308L11.3222 17.416C11.4314 17.0886 11.7854 16.9116 12.1128 17.0207Z" fill="black"/>
<path fill-rule="evenodd" clip-rule="evenodd" d="M15.0199 9.92441C15.3299 10.0702 15.5788 10.3049 15.7744 10.6094C15.8684 10.7557 15.8972 10.9346 15.8538 11.103L14.5089 16.3278C14.4655 16.4962 14.3539 16.639 14.2009 16.7217C14.0479 16.8045 13.8673 16.8197 13.7026 16.7638L13.6741 16.7541C13.1922 16.5904 12.7884 16.4533 12.4699 16.3095C12.1354 16.1584 11.8385 15.9762 11.6033 15.6926C11.4191 15.4705 11.2785 15.2156 11.1889 14.9414C11.0745 14.5911 11.0788 14.2428 11.1294 13.8793C11.1776 13.5333 11.2769 13.1187 11.3955 12.624L11.8557 10.7032C11.9045 10.4999 12.052 10.3342 12.2482 10.2621L12.2504 10.2613C12.8674 10.0345 13.5148 9.7965 14.0892 9.76274C14.3943 9.7448 14.714 9.78051 15.0199 9.92441Z" fill="black"/>
</svg>
