<svg width="76" height="48" viewBox="0 0 76 48" fill="none" xmlns="http://www.w3.org/2000/svg">
<g filter="url(#filter0_d_8318_7289)">
<path d="M8 10C8 7.79086 9.79086 6 12 6H64C66.2091 6 68 7.79086 68 10V34C68 36.2091 66.2091 38 64 38H12C9.79086 38 8 36.2091 8 34V10Z" fill="white"/>
<path d="M12 7H64C65.6569 7 67 8.34315 67 10V34C67 35.6569 65.6569 37 64 37H12C10.3431 37 9 35.6569 9 34V10C9 8.34315 10.3431 7 12 7Z" stroke="white" stroke-width="2"/>
<rect x="10" y="8" width="28" height="28" rx="2" fill="#5B0C0E"/>
<path d="M30.251 30.54H17.751C16.486 30.54 15.4609 29.51 15.4609 28.25V15.75C15.4609 14.485 16.486 13.46 17.751 13.46H30.251C31.516 13.46 32.541 14.49 32.541 15.75V28.25C32.541 29.515 31.516 30.54 30.251 30.54ZM17.751 14.71C17.176 14.71 16.7109 15.175 16.7109 15.75V28.25C16.7109 28.825 17.176 29.29 17.751 29.29H30.251C30.826 29.29 31.291 28.825 31.291 28.25V15.75C31.291 15.175 30.826 14.71 30.251 14.71H17.751Z" fill="white"/>
<path d="M21.0859 27.21C20.7409 27.21 20.4609 26.93 20.4609 26.585V17.42C20.4609 17.075 20.7409 16.795 21.0859 16.795H24.416C26.141 16.795 27.541 18.195 27.541 19.92C27.541 21.645 26.141 23.045 24.416 23.045H21.7109V26.585C21.7109 26.93 21.4309 27.21 21.0859 27.21ZM21.7109 21.79H24.416C25.451 21.79 26.291 20.95 26.291 19.915C26.291 18.88 25.451 18.04 24.416 18.04H21.7109V21.79Z" fill="white"/>
</g>
<defs>
<filter id="filter0_d_8318_7289" x="0" y="0" width="76" height="48" filterUnits="userSpaceOnUse" color-interpolation-filters="sRGB">
<feFlood flood-opacity="0" result="BackgroundImageFix"/>
<feColorMatrix in="SourceAlpha" type="matrix" values="0 0 0 0 0 0 0 0 0 0 0 0 0 0 0 0 0 0 127 0" result="hardAlpha"/>
<feOffset dy="2"/>
<feGaussianBlur stdDeviation="4"/>
<feColorMatrix type="matrix" values="0 0 0 0 0 0 0 0 0 0 0 0 0 0 0 0 0 0 0.16 0"/>
<feBlend mode="normal" in2="BackgroundImageFix" result="effect1_dropShadow_8318_7289"/>
<feBlend mode="normal" in="SourceGraphic" in2="effect1_dropShadow_8318_7289" result="shape"/>
</filter>
</defs>
</svg>
