<svg width="102" height="65" viewBox="0 0 102 65" fill="none" xmlns="http://www.w3.org/2000/svg">
<g filter="url(#filter0_d_8318_7312)">
<mask id="path-1-inside-1_8318_7312" fill="white">
<path fill-rule="evenodd" clip-rule="evenodd" d="M16 6C11.5817 6 8 9.58172 8 14V42C8 46.4183 11.5817 50 16 50H40.0486C43.0393 50 45.9778 51.0638 48.0226 53.2462C48.2503 53.4893 48.4744 53.7343 48.6944 53.9815C49.879 55.312 52.1727 55.3473 53.384 54.0382C53.6458 53.7553 53.9126 53.4746 54.184 53.1957C56.2608 51.0621 59.1772 50 62.1547 50H86C90.4183 50 94 46.4183 94 42V14C94 9.58172 90.4183 6 86 6H16Z"/>
</mask>
<path fill-rule="evenodd" clip-rule="evenodd" d="M16 6C11.5817 6 8 9.58172 8 14V42C8 46.4183 11.5817 50 16 50H40.0486C43.0393 50 45.9778 51.0638 48.0226 53.2462C48.2503 53.4893 48.4744 53.7343 48.6944 53.9815C49.879 55.312 52.1727 55.3473 53.384 54.0382C53.6458 53.7553 53.9126 53.4746 54.184 53.1957C56.2608 51.0621 59.1772 50 62.1547 50H86C90.4183 50 94 46.4183 94 42V14C94 9.58172 90.4183 6 86 6H16Z" fill="white"/>
<path d="M48.6944 53.9815L47.2005 55.3112L47.2006 55.3114L48.6944 53.9815ZM53.384 54.0382L54.852 55.3965L54.8521 55.3964L53.384 54.0382ZM54.184 53.1957L52.7509 51.8008L54.184 53.1957ZM48.0226 53.2462L49.4821 51.8788L48.0226 53.2462ZM8 14H10C10 10.6863 12.6863 8 16 8V6V4C10.4772 4 6 8.47715 6 14H8ZM8 42H10V14H8H6V42H8ZM16 50V48C12.6863 48 10 45.3137 10 42H8H6C6 47.5228 10.4772 52 16 52V50ZM40.0486 50V48H16V50V52H40.0486V50ZM48.0226 53.2462L46.5631 54.6137C46.7799 54.8451 46.9925 55.0776 47.2005 55.3112L48.6944 53.9815L50.1883 52.6517C49.9563 52.3911 49.7207 52.1335 49.4821 51.8788L48.0226 53.2462ZM48.6944 53.9815L47.2006 55.3114C49.1611 57.5134 52.8291 57.5827 54.852 55.3965L53.384 54.0382L51.916 52.6799C51.5164 53.1118 50.597 53.1107 50.1882 52.6515L48.6944 53.9815ZM53.384 54.0382L54.8521 55.3964C55.1015 55.1269 55.3567 54.8584 55.6172 54.5907L54.184 53.1957L52.7509 51.8008C52.4686 52.0907 52.19 52.3837 51.916 52.68L53.384 54.0382ZM86 50V48H62.1547V50V52H86V50ZM94 42H92C92 45.3137 89.3137 48 86 48V50V52C91.5229 52 96 47.5228 96 42H94ZM94 14H92V42H94H96V14H94ZM86 6V8C89.3137 8 92 10.6863 92 14H94H96C96 8.47715 91.5229 4 86 4V6ZM16 6V8H86V6V4H16V6ZM54.184 53.1957L55.6172 54.5907C57.2654 52.8974 59.6375 52 62.1547 52V50V48C58.717 48 55.2562 49.2268 52.7509 51.8008L54.184 53.1957ZM40.0486 50V52C42.5852 52 44.9591 52.9017 46.5631 54.6137L48.0226 53.2462L49.4821 51.8788C46.9964 49.2258 43.4933 48 40.0486 48V50Z" fill="white" mask="url(#path-1-inside-1_8318_7312)"/>
<rect x="10" y="8" width="40" height="40" rx="6" fill="#AA8892"/>
<path d="M24.1689 36.897C25.7789 36.897 27.0811 35.588 27.0811 33.978C27.0811 32.368 25.7789 31.059 24.1689 31.059C22.5589 31.059 21.25 32.368 21.25 33.978C21.25 35.588 22.5589 36.897 24.1689 36.897Z" fill="black"/>
<path d="M35.8311 36.897C37.4411 36.897 38.75 35.588 38.75 33.978C38.75 32.368 37.4411 31.059 35.8311 31.059C34.2211 31.059 32.9189 32.368 32.9189 33.978C32.9189 35.588 34.2211 36.897 35.8311 36.897Z" fill="black"/>
<path fill-rule="evenodd" clip-rule="evenodd" d="M17.4561 25.809C17.4561 25.326 17.8481 24.934 18.3311 24.934H37C37.483 24.934 37.875 25.326 37.875 25.809C37.875 26.292 37.483 26.684 37 26.684H18.3311C17.8481 26.684 17.4561 26.292 17.4561 25.809Z" fill="black"/>
<path fill-rule="evenodd" clip-rule="evenodd" d="M26.5 19.103C26.983 19.103 27.375 19.495 27.375 19.978V25.809C27.375 26.292 26.983 26.684 26.5 26.684C26.017 26.684 25.625 26.292 25.625 25.809V19.978C25.625 19.495 26.017 19.103 26.5 19.103Z" fill="black"/>
<path fill-rule="evenodd" clip-rule="evenodd" d="M17.4561 19.978C17.4561 19.495 17.8481 19.103 18.3311 19.103H31.7011C32.7511 19.103 33.731 19.614 34.333 20.475L37.5879 25.13L40.7659 26.719C41.8579 27.265 42.5439 28.371 42.5439 29.589V32.816C42.5439 33.943 41.627 34.86 40.5 34.86H40.178C40.234 34.58 40.2689 34.286 40.2689 33.985C40.2689 31.535 38.2811 29.554 35.8311 29.554C33.3811 29.554 31.4 31.542 31.4 33.985C31.4 34.286 31.4281 34.58 31.4841 34.86H28.5159C28.5719 34.58 28.6 34.286 28.6 33.985C28.6 31.535 26.6119 29.554 24.1689 29.554C21.7259 29.554 19.7311 31.542 19.7311 33.985C19.7311 34.16 19.7449 34.342 19.7659 34.51L18.5901 33.922C17.8971 33.579 17.4561 32.872 17.4561 32.095V25.235C17.4561 25.116 17.484 24.99 17.533 24.878L19.3182 20.86H18.3311C17.8481 20.86 17.4561 20.468 17.4561 19.985V19.978ZM21.236 20.853L19.4231 24.934H25.625V20.853H21.236ZM27.375 20.853V24.934H35.3201L32.8981 21.476C32.6251 21.084 32.1771 20.853 31.7011 20.853H27.375Z" fill="black"/>
</g>
<defs>
<filter id="filter0_d_8318_7312" x="0" y="0" width="102" height="65" filterUnits="userSpaceOnUse" color-interpolation-filters="sRGB">
<feFlood flood-opacity="0" result="BackgroundImageFix"/>
<feColorMatrix in="SourceAlpha" type="matrix" values="0 0 0 0 0 0 0 0 0 0 0 0 0 0 0 0 0 0 127 0" result="hardAlpha"/>
<feOffset dy="2"/>
<feGaussianBlur stdDeviation="4"/>
<feColorMatrix type="matrix" values="0 0 0 0 0 0 0 0 0 0 0 0 0 0 0 0 0 0 0.16 0"/>
<feBlend mode="normal" in2="BackgroundImageFix" result="effect1_dropShadow_8318_7312"/>
<feBlend mode="normal" in="SourceGraphic" in2="effect1_dropShadow_8318_7312" result="shape"/>
</filter>
</defs>
</svg>
