<svg width="44" height="44" viewBox="0 0 44 44" fill="none" xmlns="http://www.w3.org/2000/svg">
<g filter="url(#filter0_d_8318_7362)">
<g clip-path="url(#clip0_8318_7362)">
<rect x="8" y="8" width="28" height="28" rx="4" fill="#007AB5"/>
<path d="M29.9892 24.5883C29.7075 24.3322 29.4003 24.0505 28.8113 24.0505C28.2224 24.0505 27.9151 24.3322 27.6334 24.5883C27.3774 24.8187 27.1469 25.0236 26.686 25.0236C26.2251 25.0236 25.9946 24.8187 25.7385 24.5883C25.4569 24.3322 25.1496 24.0505 24.5606 24.0505C23.9717 24.0505 23.6644 24.3322 23.3827 24.5883C23.1267 24.8187 22.8962 25.0236 22.4353 25.0236C21.9744 25.0236 21.7439 24.8187 21.4879 24.5883C21.3598 24.4602 21.2062 24.3322 21.0269 24.2298C21.0269 24.2298 20.9757 24.2298 20.9501 24.2298C20.7709 24.153 20.5916 24.1018 20.3356 24.1018C19.7466 24.1018 19.4393 24.3834 19.1833 24.6395C18.9272 24.8699 18.7224 25.0748 18.2615 25.0748C17.8005 25.0748 17.5701 24.8699 17.3396 24.6395C17.0579 24.3834 16.7763 24.1018 16.1873 24.1018C15.5984 24.1018 15.2911 24.3834 15.035 24.6395C14.779 24.8699 14.5741 25.0748 14.0876 25.0748C13.6011 25.0748 13.3962 24.8699 13.1658 24.6395C13.0121 24.5115 12.8585 24.3578 12.628 24.2298L12.5 25.0748C12.6792 25.1516 12.8073 25.2797 12.9353 25.4077C13.217 25.6637 13.5243 25.9454 14.0876 25.9454C14.6509 25.9454 14.9838 25.6637 15.2399 25.4077C15.496 25.1772 15.7008 24.9724 16.1617 24.9724C16.6226 24.9724 16.8531 25.1772 17.1092 25.4077C17.3908 25.6637 17.6725 25.9454 18.2615 25.9454C18.8504 25.9454 19.1577 25.6637 19.4137 25.4077C19.6698 25.1772 19.8747 24.9724 20.3612 24.9724C20.8477 24.9724 20.7453 25.0236 20.8989 25.1004C21.0269 25.1772 21.155 25.2797 21.2574 25.3821C21.5135 25.6125 21.8208 25.8942 22.4097 25.8942C22.9986 25.8942 23.3059 25.6125 23.5876 25.3565C23.8437 25.126 24.0485 24.9212 24.535 24.9212C25.0216 24.9212 25.2264 25.126 25.4825 25.3565C25.7641 25.6125 26.0714 25.8942 26.6604 25.8942C27.2493 25.8942 27.5566 25.6125 27.8383 25.3565C28.0943 25.126 28.3248 24.9212 28.7857 24.9212C29.2466 24.9212 29.4771 25.126 29.7331 25.3565L30.0148 24.6395C30.0148 24.6395 29.9636 24.5883 29.9124 24.5627V24.6139L29.9892 24.5883Z" fill="white"/>
<path d="M20.9245 24.2042C20.7709 24.1274 20.6172 24.0762 20.3868 24.0762C20.1563 24.0762 19.9771 24.1274 19.8234 24.2298L20.9501 24.2298L20.9245 24.2298V24.2042Z" fill="white"/>
<path d="M15.5728 24.2554H16.7763C16.6226 24.153 16.4434 24.0762 16.1873 24.0762C15.9313 24.0762 15.7264 24.153 15.5728 24.2554Z" fill="white"/>
<path d="M31.4232 20.6961H29.0418L25.38 17.9818H15.7776C15.624 17.9818 15.496 18.1098 15.4703 18.2635L14.907 20.6961H14.0108C13.8571 20.6961 13.7291 20.7985 13.7035 20.9266L13.0121 23.4104L12.9353 23.4872C13.0377 23.564 13.1146 23.6408 13.217 23.7177C13.473 23.9481 13.6779 24.153 14.1388 24.153C14.5997 24.153 14.8302 23.9481 15.0863 23.7177C15.3679 23.4616 15.6496 23.1799 16.2385 23.1799C16.8275 23.1799 17.1348 23.4616 17.3908 23.7177C17.6469 23.9481 17.8517 24.153 18.3127 24.153C18.7736 24.153 19.004 23.9481 19.2345 23.7177C19.5162 23.4616 19.7978 23.1799 20.3868 23.1799C20.9757 23.1799 20.8477 23.2311 21.0013 23.308C21.2318 23.4104 21.3854 23.564 21.5647 23.6921C21.8207 23.9225 22.0512 24.1274 22.5121 24.1274C22.973 24.1274 23.2035 23.9225 23.4596 23.6921C23.7412 23.436 24.0485 23.1543 24.6375 23.1543C25.2264 23.1543 25.5337 23.436 25.8154 23.6921C26.0714 23.9225 26.3019 24.1274 26.7628 24.1274C27.2237 24.1274 27.4542 23.9225 27.7102 23.6921C27.9919 23.436 28.2992 23.1543 28.8881 23.1543C29.4771 23.1543 29.5283 23.2567 29.7331 23.4104L31.5 20.9522C31.5 20.9522 31.5 20.9009 31.5 20.8497C31.5 20.7473 31.4232 20.6705 31.3207 20.6705H31.3976L31.4232 20.6961ZM18.8504 20.6961H15.624L15.9313 19.3646H18.7992V19.4158H18.8504V20.7217V20.6961ZM22.0512 20.6961H19.2089V19.3646H22.0512V20.6961ZM22.5121 20.6961V19.3646H25.841L27.659 20.6961H22.5121Z" fill="white"/>
<path d="M24.1253 24.2042H25.1752C25.0472 24.1274 24.8679 24.0762 24.6631 24.0762C24.4582 24.0762 24.279 24.1274 24.1253 24.2042Z" fill="white"/>
<path d="M28.9393 24.0762C28.7345 24.0762 28.6065 24.0761 28.4528 24.1786H29.1698L29.221 24.1274C29.1442 24.1274 29.0418 24.1274 28.9393 24.1274V24.0762Z" fill="white"/>
</g>
<rect x="9" y="9" width="26" height="26" rx="3" stroke="white" stroke-width="2"/>
</g>
<defs>
<filter id="filter0_d_8318_7362" x="0" y="0" width="44" height="44" filterUnits="userSpaceOnUse" color-interpolation-filters="sRGB">
<feFlood flood-opacity="0" result="BackgroundImageFix"/>
<feColorMatrix in="SourceAlpha" type="matrix" values="0 0 0 0 0 0 0 0 0 0 0 0 0 0 0 0 0 0 127 0" result="hardAlpha"/>
<feOffset/>
<feGaussianBlur stdDeviation="4"/>
<feColorMatrix type="matrix" values="0 0 0 0 0 0 0 0 0 0 0 0 0 0 0 0 0 0 0.23 0"/>
<feBlend mode="normal" in2="BackgroundImageFix" result="effect1_dropShadow_8318_7362"/>
<feBlend mode="normal" in="SourceGraphic" in2="effect1_dropShadow_8318_7362" result="shape"/>
</filter>
<clipPath id="clip0_8318_7362">
<rect x="8" y="8" width="28" height="28" rx="4" fill="white"/>
</clipPath>
</defs>
</svg>
