<svg width="60" height="65" viewBox="0 0 60 65" fill="none" xmlns="http://www.w3.org/2000/svg">
<g filter="url(#filter0_d_8318_7395)">
<mask id="path-1-inside-1_8318_7395" fill="white">
<path fill-rule="evenodd" clip-rule="evenodd" d="M16 6C11.5817 6 8 9.58172 8 14V27.7577V42C8 46.4183 11.5817 50 16 50H19.0486C22.0393 50 24.9778 51.0638 27.0226 53.2462C27.2503 53.4893 27.4744 53.7343 27.6944 53.9815C28.879 55.312 31.1727 55.3473 32.384 54.0382C32.6457 53.7553 32.9126 53.4746 33.184 53.1957C35.2608 51.0621 38.1772 50 41.1547 50H44C48.4183 50 52 46.4183 52 42V27.7577V14C52 9.58172 48.4183 6 44 6H16Z"/>
</mask>
<path fill-rule="evenodd" clip-rule="evenodd" d="M16 6C11.5817 6 8 9.58172 8 14V27.7577V42C8 46.4183 11.5817 50 16 50H19.0486C22.0393 50 24.9778 51.0638 27.0226 53.2462C27.2503 53.4893 27.4744 53.7343 27.6944 53.9815C28.879 55.312 31.1727 55.3473 32.384 54.0382C32.6457 53.7553 32.9126 53.4746 33.184 53.1957C35.2608 51.0621 38.1772 50 41.1547 50H44C48.4183 50 52 46.4183 52 42V27.7577V14C52 9.58172 48.4183 6 44 6H16Z" fill="#007AB5"/>
<path d="M27.6944 53.9815L26.2005 55.3112L26.2006 55.3114L27.6944 53.9815ZM32.384 54.0382L33.852 55.3965L33.8521 55.3964L32.384 54.0382ZM27.0226 53.2462L25.5631 54.6137L27.0226 53.2462ZM8 14H10C10 10.6863 12.6863 8 16 8V6V4C10.4772 4 6 8.47715 6 14H8ZM8 27.7577H10V14H8H6V27.7577H8ZM8 42H10V27.7577H8H6V42H8ZM16 50V48C12.6863 48 10 45.3137 10 42H8H6C6 47.5228 10.4772 52 16 52V50ZM19.0486 50V48H16V50V52H19.0486V50ZM27.0226 53.2462L25.5631 54.6137C25.7799 54.8451 25.9925 55.0776 26.2005 55.3112L27.6944 53.9815L29.1883 52.6517C28.9563 52.3911 28.7207 52.1335 28.4821 51.8788L27.0226 53.2462ZM27.6944 53.9815L26.2006 55.3114C28.1611 57.5134 31.8291 57.5827 33.852 55.3965L32.384 54.0382L30.916 52.6799C30.5164 53.1118 29.597 53.1107 29.1882 52.6515L27.6944 53.9815ZM32.384 54.0382L33.8521 55.3964C34.1015 55.1269 34.3567 54.8584 34.6172 54.5907L33.184 53.1957L31.7509 51.8008C31.4686 52.0907 31.19 52.3837 30.9159 52.68L32.384 54.0382ZM44 50V48H41.1547V50V52H44V50ZM52 42H50C50 45.3137 47.3137 48 44 48V50V52C49.5228 52 54 47.5228 54 42H52ZM52 27.7577H50V42H52H54V27.7577H52ZM52 14H50V27.7577H52H54V14H52ZM44 6V8C47.3137 8 50 10.6863 50 14H52H54C54 8.47715 49.5228 4 44 4V6ZM16 6V8H44V6V4H16V6ZM33.184 53.1957L34.6172 54.5907C36.2654 52.8974 38.6375 52 41.1547 52V50V48C37.717 48 34.2562 49.2268 31.7509 51.8008L33.184 53.1957ZM19.0486 50V52C21.5852 52 23.9591 52.9017 25.5631 54.6137L27.0226 53.2462L28.4821 51.8788C25.9964 49.2258 22.4933 48 19.0486 48V50Z" fill="white" mask="url(#path-1-inside-1_8318_7395)"/>
<path d="M39.3227 35.4964C39.3999 35.4964 39.4772 35.5736 39.5544 35.6122L38.8208 36.616H38.7436C38.1259 36.3072 37.5854 35.9983 36.4272 35.9983C35.269 35.9983 34.7285 36.2685 34.0722 36.616C33.4159 36.9635 32.6438 37.3495 31.1767 37.3495C29.7097 37.3495 28.9375 36.9635 28.2812 36.616C27.6635 36.3072 27.123 35.9983 25.9262 35.9983C24.7294 35.9983 24.2275 36.2685 23.6098 36.616C22.9149 36.9635 22.1814 37.3495 20.7143 37.3495C19.2473 37.3495 18.5137 36.9635 17.8188 36.616C17.4714 36.423 17.1239 36.2685 16.6992 36.1527L17.0467 34.9559C17.5872 35.1103 18.0118 35.3034 18.3979 35.4964C19.0156 35.8053 19.5561 36.1141 20.7143 36.1141C21.8725 36.1141 22.413 35.8439 23.0693 35.4964C23.7256 35.149 24.4978 34.7629 25.9648 34.7629C27.4319 34.7629 28.204 35.149 28.8603 35.4964C29.478 35.8053 30.0185 36.1141 31.1767 36.1141C32.3349 36.1141 32.8754 35.8439 33.5317 35.4964C34.188 35.149 34.9602 34.7629 36.4272 34.7629C37.8943 34.7629 38.6664 35.149 39.3227 35.4964Z" fill="white"/>
<path d="M43.029 30.0915H39.0525C39.0525 30.0915 37.3152 22.5632 37.238 22.1385C37.1608 21.7138 36.8133 21.791 36.8133 21.791H34.8057C34.8057 21.791 34.5355 20.7101 34.4197 20.131C34.2653 19.5132 33.995 19.6677 33.995 19.6677C33.995 19.6677 31.3698 20.6714 31.0223 20.8259C30.6748 20.9803 30.7907 21.3664 30.7907 21.3664V23.7214H21.8725C21.2548 23.7214 21.2548 24.0688 21.2548 24.0688L19.7878 30.0915H18.8226C18.5909 30.0915 18.4365 30.2459 18.3979 30.4389L17.3941 33.9135C18.0891 34.1066 18.5909 34.3768 19.0156 34.5699C19.5947 34.8787 19.9036 35.0331 20.7529 35.0331C21.6023 35.0331 21.9111 34.8787 22.4902 34.5699C23.2237 34.1838 24.2275 33.6819 25.9648 33.6819C27.7021 33.6819 28.7445 34.1838 29.478 34.5699C30.0571 34.8787 30.366 35.0331 31.2153 35.0331C32.0647 35.0331 32.3735 34.8787 32.9526 34.5699C33.6862 34.1838 34.6899 33.6819 36.4658 33.6819C38.2417 33.6819 39.2455 34.1838 39.979 34.5699C40.0563 34.5699 40.2493 34.6857 40.2493 34.6857L43.2992 30.4775C43.2992 30.4775 43.2992 30.4003 43.2992 30.3231C43.2992 30.1687 43.1834 30.0529 43.029 30.0529V30.0915ZM21.7567 27.1574L22.1814 25.3429H26.1192V27.1574H21.7567ZM31.0609 27.1574H26.6983V25.3429H31.0609V27.1574ZM31.7558 27.1574V25.3429H36.1184L36.5817 27.1574H31.7558Z" fill="white"/>
</g>
<defs>
<filter id="filter0_d_8318_7395" x="0" y="0" width="60" height="65" filterUnits="userSpaceOnUse" color-interpolation-filters="sRGB">
<feFlood flood-opacity="0" result="BackgroundImageFix"/>
<feColorMatrix in="SourceAlpha" type="matrix" values="0 0 0 0 0 0 0 0 0 0 0 0 0 0 0 0 0 0 127 0" result="hardAlpha"/>
<feOffset dy="2"/>
<feGaussianBlur stdDeviation="4"/>
<feColorMatrix type="matrix" values="0 0 0 0 0 0 0 0 0 0 0 0 0 0 0 0 0 0 0.16 0"/>
<feBlend mode="normal" in2="BackgroundImageFix" result="effect1_dropShadow_8318_7395"/>
<feBlend mode="normal" in="SourceGraphic" in2="effect1_dropShadow_8318_7395" result="shape"/>
</filter>
</defs>
</svg>
