<svg width="44" height="44" viewBox="0 0 44 44" fill="none" xmlns="http://www.w3.org/2000/svg">
<g filter="url(#filter0_d_8318_7364)">
<g clip-path="url(#clip0_8318_7364)">
<rect x="8" y="6" width="28" height="28" rx="4" fill="#007AB5"/>
<path d="M27.5308 23.9006C27.5767 23.9006 27.6225 23.9464 27.6683 23.9693L27.2331 24.5648H27.1873C26.8208 24.3816 26.5002 24.1984 25.8131 24.1984C25.126 24.1984 24.8053 24.3587 24.416 24.5648C24.0266 24.771 23.5685 25 22.6982 25C21.8279 25 21.3698 24.771 20.9804 24.5648C20.614 24.3816 20.2933 24.1984 19.5833 24.1984C18.8733 24.1984 18.5756 24.3587 18.2091 24.5648C17.7968 24.771 17.3617 25 16.4913 25C15.621 25 15.1858 24.771 14.7736 24.5648C14.5674 24.4503 14.3613 24.3587 14.1094 24.29L14.3155 23.58C14.6362 23.6716 14.8881 23.7861 15.1171 23.9006C15.4836 24.0839 15.8042 24.2671 16.4913 24.2671C17.1784 24.2671 17.4991 24.1068 17.8885 23.9006C18.2778 23.6945 18.7359 23.4655 19.6062 23.4655C20.4766 23.4655 20.9346 23.6945 21.324 23.9006C21.6904 24.0839 22.0111 24.2671 22.6982 24.2671C23.3853 24.2671 23.706 24.1068 24.0953 23.9006C24.4847 23.6945 24.9427 23.4655 25.8131 23.4655C26.6834 23.4655 27.1415 23.6945 27.5308 23.9006Z" fill="white"/>
<path d="M29.7296 20.6941H27.3705C27.3705 20.6941 26.3399 16.2279 26.2941 15.976C26.2483 15.7241 26.0421 15.7699 26.0421 15.7699H24.8511C24.8511 15.7699 24.6908 15.1286 24.6221 14.785C24.5305 14.4186 24.3702 14.5102 24.3702 14.5102C24.3702 14.5102 22.8127 15.1057 22.6066 15.1973C22.4005 15.2889 22.4692 15.5179 22.4692 15.5179V16.9151H17.1784C16.812 16.9151 16.812 17.1212 16.812 17.1212L15.9417 20.6941H15.3691C15.2316 20.6941 15.14 20.7857 15.1171 20.9003L14.5216 22.9616C14.9339 23.0761 15.2316 23.2364 15.4836 23.3509C15.8271 23.5342 16.0104 23.6258 16.5142 23.6258C17.0181 23.6258 17.2014 23.5342 17.5449 23.3509C17.9801 23.1219 18.5756 22.8242 19.6062 22.8242C20.6369 22.8242 21.2553 23.1219 21.6904 23.3509C22.034 23.5342 22.2172 23.6258 22.7211 23.6258C23.225 23.6258 23.4082 23.5342 23.7518 23.3509C24.1869 23.1219 24.7824 22.8242 25.836 22.8242C26.8895 22.8242 27.485 23.1219 27.9202 23.3509C27.966 23.3509 28.0805 23.4197 28.0805 23.4197L29.8899 20.9232C29.8899 20.9232 29.8899 20.8774 29.8899 20.8316C29.8899 20.7399 29.8212 20.6712 29.7296 20.6712V20.6941ZM17.1097 18.9535L17.3617 17.877H19.6978V18.9535H17.1097ZM22.6295 18.9535H20.0414V17.877H22.6295V18.9535ZM23.0418 18.9535V17.877H25.6299L25.9047 18.9535H23.0418Z" fill="white"/>
</g>
<rect x="9" y="7" width="26" height="26" rx="3" stroke="white" stroke-width="2"/>
</g>
<defs>
<filter id="filter0_d_8318_7364" x="0" y="0" width="44" height="44" filterUnits="userSpaceOnUse" color-interpolation-filters="sRGB">
<feFlood flood-opacity="0" result="BackgroundImageFix"/>
<feColorMatrix in="SourceAlpha" type="matrix" values="0 0 0 0 0 0 0 0 0 0 0 0 0 0 0 0 0 0 127 0" result="hardAlpha"/>
<feOffset dy="2"/>
<feGaussianBlur stdDeviation="4"/>
<feColorMatrix type="matrix" values="0 0 0 0 0 0 0 0 0 0 0 0 0 0 0 0 0 0 0.16 0"/>
<feBlend mode="normal" in2="BackgroundImageFix" result="effect1_dropShadow_8318_7364"/>
<feBlend mode="normal" in="SourceGraphic" in2="effect1_dropShadow_8318_7364" result="shape"/>
</filter>
<clipPath id="clip0_8318_7364">
<rect x="8" y="6" width="28" height="28" rx="4" fill="white"/>
</clipPath>
</defs>
</svg>
