<svg width="60" height="65" viewBox="0 0 60 65" fill="none" xmlns="http://www.w3.org/2000/svg">
<g filter="url(#filter0_d_8318_7390)">
<mask id="path-1-inside-1_8318_7390" fill="white">
<path fill-rule="evenodd" clip-rule="evenodd" d="M16 6C11.5817 6 8 9.58172 8 14V27.7577V42C8 46.4183 11.5817 50 16 50H19.0486C22.0393 50 24.9778 51.0638 27.0226 53.2462C27.2503 53.4893 27.4744 53.7343 27.6944 53.9815C28.879 55.312 31.1727 55.3473 32.384 54.0382C32.6457 53.7553 32.9126 53.4746 33.184 53.1957C35.2608 51.0621 38.1772 50 41.1547 50H44C48.4183 50 52 46.4183 52 42V27.7577V14C52 9.58172 48.4183 6 44 6H16Z"/>
</mask>
<path fill-rule="evenodd" clip-rule="evenodd" d="M16 6C11.5817 6 8 9.58172 8 14V27.7577V42C8 46.4183 11.5817 50 16 50H19.0486C22.0393 50 24.9778 51.0638 27.0226 53.2462C27.2503 53.4893 27.4744 53.7343 27.6944 53.9815C28.879 55.312 31.1727 55.3473 32.384 54.0382C32.6457 53.7553 32.9126 53.4746 33.184 53.1957C35.2608 51.0621 38.1772 50 41.1547 50H44C48.4183 50 52 46.4183 52 42V27.7577V14C52 9.58172 48.4183 6 44 6H16Z" fill="#007AB5"/>
<path d="M27.6944 53.9815L26.2005 55.3112L26.2006 55.3114L27.6944 53.9815ZM32.384 54.0382L33.852 55.3965L33.8521 55.3964L32.384 54.0382ZM27.0226 53.2462L25.5631 54.6137L27.0226 53.2462ZM8 14H10C10 10.6863 12.6863 8 16 8V6V4C10.4772 4 6 8.47715 6 14H8ZM8 27.7577H10V14H8H6V27.7577H8ZM8 42H10V27.7577H8H6V42H8ZM16 50V48C12.6863 48 10 45.3137 10 42H8H6C6 47.5228 10.4772 52 16 52V50ZM19.0486 50V48H16V50V52H19.0486V50ZM27.0226 53.2462L25.5631 54.6137C25.7799 54.8451 25.9925 55.0776 26.2005 55.3112L27.6944 53.9815L29.1883 52.6517C28.9563 52.3911 28.7207 52.1335 28.4821 51.8788L27.0226 53.2462ZM27.6944 53.9815L26.2006 55.3114C28.1611 57.5134 31.8291 57.5827 33.852 55.3965L32.384 54.0382L30.916 52.6799C30.5164 53.1118 29.597 53.1107 29.1882 52.6515L27.6944 53.9815ZM32.384 54.0382L33.8521 55.3964C34.1015 55.1269 34.3567 54.8584 34.6172 54.5907L33.184 53.1957L31.7509 51.8008C31.4686 52.0907 31.19 52.3837 30.9159 52.68L32.384 54.0382ZM44 50V48H41.1547V50V52H44V50ZM52 42H50C50 45.3137 47.3137 48 44 48V50V52C49.5228 52 54 47.5228 54 42H52ZM52 27.7577H50V42H52H54V27.7577H52ZM52 14H50V27.7577H52H54V14H52ZM44 6V8C47.3137 8 50 10.6863 50 14H52H54C54 8.47715 49.5228 4 44 4V6ZM16 6V8H44V6V4H16V6ZM33.184 53.1957L34.6172 54.5907C36.2654 52.8974 38.6375 52 41.1547 52V50V48C37.717 48 34.2562 49.2268 31.7509 51.8008L33.184 53.1957ZM19.0486 50V52C21.5852 52 23.9591 52.9017 25.5631 54.6137L27.0226 53.2462L28.4821 51.8788C25.9964 49.2258 22.4933 48 19.0486 48V50Z" fill="white" mask="url(#path-1-inside-1_8318_7390)"/>
<path d="M40.8308 31.2299C40.4842 30.9148 40.106 30.5681 39.3813 30.5681C38.6565 30.5681 38.2784 30.9148 37.9317 31.2299C37.6166 31.5135 37.333 31.7656 36.7658 31.7656C36.1986 31.7656 35.915 31.5135 35.5999 31.2299C35.2533 30.9148 34.8752 30.5681 34.1504 30.5681C33.4256 30.5681 33.0475 30.9148 32.7009 31.2299C32.3858 31.5135 32.1022 31.7656 31.535 31.7656C30.9678 31.7656 30.6842 31.5135 30.369 31.2299C30.2115 31.0723 30.0224 30.9148 29.8018 30.7887C29.8018 30.7887 29.7388 30.7887 29.7073 30.7887C29.4867 30.6942 29.2661 30.6312 28.951 30.6312C28.2263 30.6312 27.8481 30.9778 27.533 31.2929C27.2179 31.5765 26.9658 31.8286 26.3986 31.8286C25.8314 31.8286 25.5478 31.5765 25.2642 31.2929C24.9176 30.9778 24.571 30.6312 23.8462 30.6312C23.1215 30.6312 22.7433 30.9778 22.4282 31.2929C22.1131 31.5765 21.861 31.8286 21.2623 31.8286C20.6636 31.8286 20.4115 31.5765 20.1279 31.2929C19.9388 31.1353 19.7498 30.9463 19.4662 30.7887L19.3086 31.8286C19.5292 31.9231 19.6867 32.0807 19.8443 32.2382C20.1909 32.5534 20.569 32.9 21.2623 32.9C21.9555 32.9 22.3652 32.5534 22.6803 32.2382C22.9954 31.9546 23.2475 31.7025 23.8147 31.7025C24.3819 31.7025 24.6655 31.9546 24.9806 32.2382C25.3272 32.5534 25.6739 32.9 26.3986 32.9C27.1234 32.9 27.5015 32.5534 27.8166 32.2382C28.1317 31.9546 28.3838 31.7025 28.9825 31.7025C29.5813 31.7025 29.4552 31.7656 29.6443 31.8601C29.8018 31.9546 29.9594 32.0807 30.0854 32.2067C30.4006 32.4903 30.7787 32.837 31.5034 32.837C32.2282 32.837 32.6063 32.4903 32.953 32.1752C33.2681 31.8916 33.5202 31.6395 34.1189 31.6395C34.7176 31.6395 34.9697 31.8916 35.2848 32.1752C35.6314 32.4903 36.0096 32.837 36.7343 32.837C37.4591 32.837 37.8372 32.4903 38.1838 32.1752C38.4989 31.8916 38.7825 31.6395 39.3498 31.6395C39.917 31.6395 40.2006 31.8916 40.5157 32.1752L40.8623 31.2929C40.8623 31.2929 40.7993 31.2299 40.7362 31.1984V31.2614L40.8308 31.2299Z" fill="white"/>
<path d="M29.6758 30.7572C29.4867 30.6627 29.2977 30.5997 29.0141 30.5997C28.7305 30.5997 28.5099 30.6627 28.3208 30.7887L29.7073 30.7887L29.6758 30.7887V30.7572Z" fill="white"/>
<path d="M23.0899 30.8202H24.571C24.3819 30.6942 24.1613 30.5997 23.8462 30.5997C23.5311 30.5997 23.279 30.6942 23.0899 30.8202Z" fill="white"/>
<path d="M42.5954 26.4402H39.6649L35.1588 23.1H23.342C23.153 23.1 22.9954 23.2575 22.9639 23.4466L22.2707 26.4402H21.1678C20.9787 26.4402 20.8211 26.5662 20.7896 26.7238L19.9388 29.7804L19.8443 29.8749C19.9703 29.9694 20.0649 30.064 20.1909 30.1585C20.506 30.4421 20.7581 30.6942 21.3253 30.6942C21.8925 30.6942 22.1761 30.4421 22.4912 30.1585C22.8379 29.8434 23.1845 29.4968 23.9092 29.4968C24.634 29.4968 25.0121 29.8434 25.3272 30.1585C25.6424 30.4421 25.8944 30.6942 26.4616 30.6942C27.0289 30.6942 27.3125 30.4421 27.5961 30.1585C27.9427 29.8434 28.2893 29.4968 29.0141 29.4968C29.7388 29.4968 29.5813 29.5598 29.7703 29.6543C30.0539 29.7804 30.243 29.9694 30.4636 30.127C30.7787 30.4106 31.0623 30.6627 31.6295 30.6627C32.1967 30.6627 32.4803 30.4106 32.7954 30.127C33.142 29.8119 33.5202 29.4652 34.2449 29.4652C34.9697 29.4652 35.3478 29.8119 35.6944 30.127C36.0096 30.4106 36.2932 30.6627 36.8604 30.6627C37.4276 30.6627 37.7112 30.4106 38.0263 30.127C38.3729 29.8119 38.751 29.4652 39.4758 29.4652C40.2006 29.4652 40.2636 29.5913 40.5157 29.7804L42.6899 26.7553C42.6899 26.7553 42.6899 26.6923 42.6899 26.6292C42.6899 26.5032 42.5954 26.4087 42.4694 26.4087H42.5639L42.5954 26.4402ZM27.1234 26.4402H23.153L23.5311 24.8016H27.0604V24.8646H27.1234V26.4717V26.4402ZM31.0623 26.4402H27.5645V24.8016H31.0623V26.4402ZM31.6295 26.4402V24.8016H35.726L37.9633 26.4402H31.6295Z" fill="white"/>
<path d="M33.6147 30.7572H34.9067C34.7491 30.6627 34.5285 30.5997 34.2764 30.5997C34.0243 30.5997 33.8038 30.6627 33.6147 30.7572Z" fill="white"/>
<path d="M39.5388 30.5997C39.2867 30.5997 39.1292 30.5997 38.9401 30.7257H39.8224L39.8854 30.6627C39.7909 30.6627 39.6649 30.6627 39.5388 30.6627V30.5997Z" fill="white"/>
</g>
<defs>
<filter id="filter0_d_8318_7390" x="0" y="0" width="60" height="65" filterUnits="userSpaceOnUse" color-interpolation-filters="sRGB">
<feFlood flood-opacity="0" result="BackgroundImageFix"/>
<feColorMatrix in="SourceAlpha" type="matrix" values="0 0 0 0 0 0 0 0 0 0 0 0 0 0 0 0 0 0 127 0" result="hardAlpha"/>
<feOffset dy="2"/>
<feGaussianBlur stdDeviation="4"/>
<feColorMatrix type="matrix" values="0 0 0 0 0 0 0 0 0 0 0 0 0 0 0 0 0 0 0.16 0"/>
<feBlend mode="normal" in2="BackgroundImageFix" result="effect1_dropShadow_8318_7390"/>
<feBlend mode="normal" in="SourceGraphic" in2="effect1_dropShadow_8318_7390" result="shape"/>
</filter>
</defs>
</svg>
