<svg width="60" height="65" viewBox="0 0 60 65" fill="none" xmlns="http://www.w3.org/2000/svg">
<g filter="url(#filter0_d_8318_7380)">
<mask id="path-1-inside-1_8318_7380" fill="white">
<path fill-rule="evenodd" clip-rule="evenodd" d="M16 6C11.5817 6 8 9.58172 8 14V27.7577V42C8 46.4183 11.5817 50 16 50H19.0486C22.0393 50 24.9778 51.0638 27.0226 53.2462C27.2503 53.4893 27.4744 53.7343 27.6944 53.9815C28.879 55.312 31.1727 55.3473 32.384 54.0382C32.6457 53.7553 32.9126 53.4746 33.184 53.1957C35.2608 51.0621 38.1772 50 41.1547 50H44C48.4183 50 52 46.4183 52 42V27.7577V14C52 9.58172 48.4183 6 44 6H16Z"/>
</mask>
<path fill-rule="evenodd" clip-rule="evenodd" d="M16 6C11.5817 6 8 9.58172 8 14V27.7577V42C8 46.4183 11.5817 50 16 50H19.0486C22.0393 50 24.9778 51.0638 27.0226 53.2462C27.2503 53.4893 27.4744 53.7343 27.6944 53.9815C28.879 55.312 31.1727 55.3473 32.384 54.0382C32.6457 53.7553 32.9126 53.4746 33.184 53.1957C35.2608 51.0621 38.1772 50 41.1547 50H44C48.4183 50 52 46.4183 52 42V27.7577V14C52 9.58172 48.4183 6 44 6H16Z" fill="#551125"/>
<path d="M27.6944 53.9815L26.2005 55.3112L26.2006 55.3114L27.6944 53.9815ZM32.384 54.0382L33.852 55.3965L33.8521 55.3964L32.384 54.0382ZM27.0226 53.2462L25.5631 54.6137L27.0226 53.2462ZM8 14H10C10 10.6863 12.6863 8 16 8V6V4C10.4772 4 6 8.47715 6 14H8ZM8 27.7577H10V14H8H6V27.7577H8ZM8 42H10V27.7577H8H6V42H8ZM16 50V48C12.6863 48 10 45.3137 10 42H8H6C6 47.5228 10.4772 52 16 52V50ZM19.0486 50V48H16V50V52H19.0486V50ZM27.0226 53.2462L25.5631 54.6137C25.7799 54.8451 25.9925 55.0776 26.2005 55.3112L27.6944 53.9815L29.1883 52.6517C28.9563 52.3911 28.7207 52.1335 28.4821 51.8788L27.0226 53.2462ZM27.6944 53.9815L26.2006 55.3114C28.1611 57.5134 31.8291 57.5827 33.852 55.3965L32.384 54.0382L30.916 52.6799C30.5164 53.1118 29.597 53.1107 29.1882 52.6516L27.6944 53.9815ZM32.384 54.0382L33.8521 55.3964C34.1015 55.1269 34.3567 54.8584 34.6172 54.5907L33.184 53.1957L31.7509 51.8008C31.4686 52.0907 31.19 52.3837 30.9159 52.68L32.384 54.0382ZM44 50V48H41.1547V50V52H44V50ZM52 42H50C50 45.3137 47.3137 48 44 48V50V52C49.5228 52 54 47.5228 54 42H52ZM52 27.7577H50V42H52H54V27.7577H52ZM52 14H50V27.7577H52H54V14H52ZM44 6V8C47.3137 8 50 10.6863 50 14H52H54C54 8.47715 49.5228 4 44 4V6ZM16 6V8H44V6V4H16V6ZM33.184 53.1957L34.6172 54.5907C36.2654 52.8974 38.6375 52 41.1547 52V50V48C37.717 48 34.2562 49.2268 31.7509 51.8008L33.184 53.1957ZM19.0486 50V52C21.5852 52 23.9591 52.9017 25.5631 54.6137L27.0226 53.2462L28.4821 51.8788C25.9964 49.2258 22.4933 48 19.0486 48V50Z" fill="white" mask="url(#path-1-inside-1_8318_7380)"/>
<path fill-rule="evenodd" clip-rule="evenodd" d="M24.4049 34.5172C24.8599 34.9722 24.8599 35.7142 24.4049 36.1692L21.4928 39.0882C21.0308 39.5432 20.2962 39.5432 19.8412 39.0882C19.3863 38.6332 19.3863 37.8912 19.8412 37.4362L22.7534 34.5172C23.2154 34.0622 23.9499 34.0622 24.4049 34.5172ZM35.5912 34.5172C36.0462 34.0622 36.7808 34.0622 37.2428 34.5172L40.1549 37.4362C40.6099 37.8912 40.6099 38.6332 40.1549 39.0882C39.6999 39.5432 38.9654 39.5432 38.5034 39.0882L35.5912 36.1692C35.1362 35.7142 35.1362 34.9722 35.5912 34.5172Z" fill="white"/>
<path fill-rule="evenodd" clip-rule="evenodd" d="M21.1986 20.972C21.6676 18.158 24.1041 16.1 26.9531 16.1H33.0426C35.8986 16.1 38.3281 18.158 38.7971 20.972L40.3365 30.212C40.8475 33.25 38.881 36.246 35.71 36.673C33.995 36.904 31.9579 37.1 29.9979 37.1C28.0379 37.1 26.0077 36.904 24.2857 36.673C21.1217 36.246 19.1552 33.25 19.6592 30.212L21.1986 20.972ZM26.9531 18.431C25.2451 18.431 23.7817 19.67 23.5017 21.357L23.0751 23.919C24.0201 24.927 25.2587 25.585 26.5047 26.005C27.8977 26.467 29.2279 26.6 29.9979 26.6C30.7679 26.6 32.098 26.467 33.491 26.005C34.737 25.592 35.9761 24.927 36.9281 23.919L36.5009 21.357C36.2139 19.67 34.7576 18.431 33.0426 18.431H26.9531ZM26.4979 30.093C25.8539 30.093 25.3289 30.618 25.3289 31.262C25.3289 31.906 25.8539 32.431 26.4979 32.431C27.1489 32.431 27.6668 31.906 27.6668 31.262C27.6668 30.618 27.1489 30.093 26.4979 30.093ZM33.4842 30.093C32.8402 30.093 32.3221 30.618 32.3221 31.262C32.3221 31.906 32.8402 32.431 33.4842 32.431H33.4979C34.1419 32.431 34.6668 31.906 34.6668 31.262C34.6668 30.618 34.1419 30.093 33.4979 30.093H33.4842Z" fill="white"/>
</g>
<defs>
<filter id="filter0_d_8318_7380" x="0" y="0" width="60" height="65" filterUnits="userSpaceOnUse" color-interpolation-filters="sRGB">
<feFlood flood-opacity="0" result="BackgroundImageFix"/>
<feColorMatrix in="SourceAlpha" type="matrix" values="0 0 0 0 0 0 0 0 0 0 0 0 0 0 0 0 0 0 127 0" result="hardAlpha"/>
<feOffset dy="2"/>
<feGaussianBlur stdDeviation="4"/>
<feColorMatrix type="matrix" values="0 0 0 0 0 0 0 0 0 0 0 0 0 0 0 0 0 0 0.16 0"/>
<feBlend mode="normal" in2="BackgroundImageFix" result="effect1_dropShadow_8318_7380"/>
<feBlend mode="normal" in="SourceGraphic" in2="effect1_dropShadow_8318_7380" result="shape"/>
</filter>
</defs>
</svg>
