<svg width="60" height="65" viewBox="0 0 60 65" fill="none" xmlns="http://www.w3.org/2000/svg">
<g filter="url(#filter0_d_8318_7370)">
<mask id="path-1-inside-1_8318_7370" fill="white">
<path fill-rule="evenodd" clip-rule="evenodd" d="M16 6C11.5817 6 8 9.58172 8 14V27.7577V42C8 46.4183 11.5817 50 16 50H19.0486C22.0393 50 24.9778 51.0638 27.0226 53.2462C27.2503 53.4893 27.4744 53.7343 27.6944 53.9815C28.879 55.312 31.1727 55.3473 32.384 54.0382C32.6457 53.7553 32.9126 53.4746 33.184 53.1957C35.2608 51.0621 38.1772 50 41.1547 50H44C48.4183 50 52 46.4183 52 42V27.7577V14C52 9.58172 48.4183 6 44 6H16Z"/>
</mask>
<path fill-rule="evenodd" clip-rule="evenodd" d="M16 6C11.5817 6 8 9.58172 8 14V27.7577V42C8 46.4183 11.5817 50 16 50H19.0486C22.0393 50 24.9778 51.0638 27.0226 53.2462C27.2503 53.4893 27.4744 53.7343 27.6944 53.9815C28.879 55.312 31.1727 55.3473 32.384 54.0382C32.6457 53.7553 32.9126 53.4746 33.184 53.1957C35.2608 51.0621 38.1772 50 41.1547 50H44C48.4183 50 52 46.4183 52 42V27.7577V14C52 9.58172 48.4183 6 44 6H16Z" fill="#82B962"/>
<path d="M27.6944 53.9815L26.2005 55.3112L26.2006 55.3114L27.6944 53.9815ZM32.384 54.0382L33.852 55.3965L33.8521 55.3964L32.384 54.0382ZM27.0226 53.2462L25.5631 54.6137L27.0226 53.2462ZM8 14H10C10 10.6863 12.6863 8 16 8V6V4C10.4772 4 6 8.47715 6 14H8ZM8 27.7577H10V14H8H6V27.7577H8ZM8 42H10V27.7577H8H6V42H8ZM16 50V48C12.6863 48 10 45.3137 10 42H8H6C6 47.5228 10.4772 52 16 52V50ZM19.0486 50V48H16V50V52H19.0486V50ZM27.0226 53.2462L25.5631 54.6137C25.7799 54.8451 25.9925 55.0776 26.2005 55.3112L27.6944 53.9815L29.1883 52.6517C28.9563 52.3911 28.7207 52.1335 28.4821 51.8788L27.0226 53.2462ZM27.6944 53.9815L26.2006 55.3114C28.1611 57.5134 31.8291 57.5827 33.852 55.3965L32.384 54.0382L30.916 52.6799C30.5164 53.1118 29.597 53.1107 29.1882 52.6515L27.6944 53.9815ZM32.384 54.0382L33.8521 55.3964C34.1015 55.1269 34.3567 54.8584 34.6172 54.5907L33.184 53.1957L31.7509 51.8008C31.4686 52.0907 31.19 52.3837 30.9159 52.68L32.384 54.0382ZM44 50V48H41.1547V50V52H44V50ZM52 42H50C50 45.3137 47.3137 48 44 48V50V52C49.5228 52 54 47.5228 54 42H52ZM52 27.7577H50V42H52H54V27.7577H52ZM52 14H50V27.7577H52H54V14H52ZM44 6V8C47.3137 8 50 10.6863 50 14H52H54C54 8.47715 49.5228 4 44 4V6ZM16 6V8H44V6V4H16V6ZM33.184 53.1957L34.6172 54.5907C36.2654 52.8974 38.6375 52 41.1547 52V50V48C37.717 48 34.2562 49.2268 31.7509 51.8008L33.184 53.1957ZM19.0486 50V52C21.5852 52 23.9591 52.9017 25.5631 54.6137L27.0226 53.2462L28.4821 51.8788C25.9964 49.2258 22.4933 48 19.0486 48V50Z" fill="white" mask="url(#path-1-inside-1_8318_7370)"/>
<path d="M41.2008 31.5696C41.2008 31.8644 41.0382 32.0281 40.7456 32.0281H37.3645V31.7334C37.3645 31.0784 37.1369 30.4889 36.6493 30.0304C36.1941 29.572 35.6089 29.31 34.9587 29.31C34.3085 29.31 33.6908 29.5392 33.2356 30.0304C32.7805 30.4889 32.5204 31.0784 32.5204 31.7334C32.5204 32.3883 32.5204 31.8316 32.5204 31.8644V31.9953H27.4162V31.7006C27.4162 31.0456 27.1886 30.4562 26.7334 29.9977C26.2783 29.5392 25.6931 29.2772 25.0104 29.2772C24.3276 29.2772 23.7424 29.5065 23.2873 29.9977C22.8321 30.4562 22.6046 31.0456 22.6046 31.7006V31.9953H19.2559C19.1259 31.9953 19.0284 31.9953 18.9308 31.8644C18.8333 31.7661 18.8008 31.6679 18.8008 31.5369V22.8585C18.8008 22.7275 18.8333 22.6293 18.9308 22.531C19.0284 22.4328 19.1259 22.4 19.2559 22.4H40.6806C40.8107 22.4 40.9082 22.4 41.0057 22.531C41.1033 22.6293 41.1358 22.7275 41.1358 22.8585H41.2008V31.5696ZM19.8736 28.0655H24.3276V24.3649H19.8736V28.0655ZM26.9285 31.7334C26.9285 32.2573 26.7334 32.6831 26.3758 33.0433C26.0182 33.4035 25.563 33.6 25.0754 33.6C24.5877 33.6 24.1326 33.4035 23.7749 33.0433C23.4173 32.6831 23.2223 32.2246 23.2223 31.7334C23.2223 31.2421 23.4173 30.7836 23.7749 30.4234C24.1326 30.0632 24.5877 29.8994 25.0754 29.8994C25.563 29.8994 26.0182 30.0632 26.3758 30.4234C26.7334 30.7836 26.9285 31.2094 26.9285 31.7334ZM25.1404 28.0655H29.5944V24.3649H25.1404V28.0655ZM30.4397 28.0655H34.9262V24.3649H30.4397V28.0655ZM36.8443 31.7334C36.8443 32.2573 36.6493 32.6831 36.2916 33.0433C35.934 33.4035 35.4789 33.6 34.9912 33.6C34.5035 33.6 34.0484 33.4035 33.6908 33.0433C33.3331 32.6831 33.1381 32.2246 33.1381 31.7334C33.1381 31.2421 33.3331 30.7836 33.6908 30.4234C34.0484 30.0632 34.5035 29.8994 34.9912 29.8994C35.4789 29.8994 35.934 30.0632 36.2916 30.4234C36.6493 30.7836 36.8443 31.2094 36.8443 31.7334ZM35.739 28.0655H40.1929V24.3649H35.739V28.0655Z" fill="black"/>
</g>
<defs>
<filter id="filter0_d_8318_7370" x="0" y="0" width="60" height="65" filterUnits="userSpaceOnUse" color-interpolation-filters="sRGB">
<feFlood flood-opacity="0" result="BackgroundImageFix"/>
<feColorMatrix in="SourceAlpha" type="matrix" values="0 0 0 0 0 0 0 0 0 0 0 0 0 0 0 0 0 0 127 0" result="hardAlpha"/>
<feOffset dy="2"/>
<feGaussianBlur stdDeviation="4"/>
<feColorMatrix type="matrix" values="0 0 0 0 0 0 0 0 0 0 0 0 0 0 0 0 0 0 0.16 0"/>
<feBlend mode="normal" in2="BackgroundImageFix" result="effect1_dropShadow_8318_7370"/>
<feBlend mode="normal" in="SourceGraphic" in2="effect1_dropShadow_8318_7370" result="shape"/>
</filter>
</defs>
</svg>
