<svg width="44" height="44" viewBox="0 0 44 44" fill="none" xmlns="http://www.w3.org/2000/svg">
<g filter="url(#filter0_d_8318_7362)">
<g clip-path="url(#clip0_8318_7362)">
<rect x="8" y="6" width="28" height="28" rx="4" fill="#007AB5"/>
<path d="M30.0234 22.3071C29.7758 22.082 29.5057 21.8344 28.988 21.8344C28.4703 21.8344 28.2002 22.082 27.9526 22.3071C27.7276 22.5096 27.525 22.6897 27.1198 22.6897C26.7147 22.6897 26.5121 22.5096 26.287 22.3071C26.0395 22.082 25.7694 21.8344 25.2517 21.8344C24.734 21.8344 24.4639 22.082 24.2163 22.3071C23.9912 22.5096 23.7887 22.6897 23.3835 22.6897C22.9784 22.6897 22.7758 22.5096 22.5507 22.3071C22.4382 22.1945 22.3031 22.082 22.1456 21.992C22.1456 21.992 22.1006 21.992 22.078 21.992C21.9205 21.9244 21.7629 21.8794 21.5378 21.8794C21.0202 21.8794 20.7501 22.127 20.525 22.3521C20.2999 22.5547 20.1198 22.7347 19.7147 22.7347C19.3096 22.7347 19.107 22.5547 18.9044 22.3521C18.6568 22.127 18.4092 21.8794 17.8915 21.8794C17.3739 21.8794 17.1038 22.127 16.8787 22.3521C16.6536 22.5547 16.4735 22.7347 16.0459 22.7347C15.6182 22.7347 15.4382 22.5547 15.2356 22.3521C15.1006 22.2395 14.9655 22.1045 14.7629 21.992L14.6504 22.7347C14.8079 22.8023 14.9205 22.9148 15.033 23.0273C15.2806 23.2524 15.5507 23.5 16.0459 23.5C16.5411 23.5 16.8337 23.2524 17.0588 23.0273C17.2838 22.8248 17.4639 22.6447 17.869 22.6447C18.2742 22.6447 18.4768 22.8248 18.7018 23.0273C18.9494 23.2524 19.197 23.5 19.7147 23.5C20.2324 23.5 20.5025 23.2524 20.7276 23.0273C20.9526 22.8248 21.1327 22.6447 21.5604 22.6447C21.988 22.6447 21.898 22.6897 22.033 22.7572C22.1456 22.8248 22.2581 22.9148 22.3481 23.0048C22.5732 23.2074 22.8433 23.455 23.361 23.455C23.8787 23.455 24.1488 23.2074 24.3964 22.9823C24.6215 22.7797 24.8015 22.5997 25.2292 22.5997C25.6568 22.5997 25.8369 22.7797 26.062 22.9823C26.3096 23.2074 26.5797 23.455 27.0973 23.455C27.615 23.455 27.8851 23.2074 28.1327 22.9823C28.3578 22.7797 28.5604 22.5997 28.9655 22.5997C29.3706 22.5997 29.5732 22.7797 29.7983 22.9823L30.0459 22.3521C30.0459 22.3521 30.0009 22.3071 29.9559 22.2846V22.3296L30.0234 22.3071Z" fill="white"/>
<path d="M22.0555 21.9695C21.9205 21.9019 21.7854 21.8569 21.5829 21.8569C21.3803 21.8569 21.2227 21.9019 21.0877 21.992L22.078 21.992L22.0555 21.992V21.9695Z" fill="white"/>
<path d="M17.3514 22.0145H18.4092C18.2742 21.9244 18.1166 21.8569 17.8915 21.8569C17.6665 21.8569 17.4864 21.9244 17.3514 22.0145Z" fill="white"/>
<path d="M31.2838 18.8859H29.1906L25.9719 16.5H17.5314C17.3964 16.5 17.2838 16.6125 17.2613 16.7476L16.7661 18.8859H15.9784C15.8433 18.8859 15.7308 18.9759 15.7083 19.0884L15.1006 21.2717L15.033 21.3392C15.1231 21.4068 15.1906 21.4743 15.2806 21.5418C15.5057 21.7444 15.6858 21.9244 16.0909 21.9244C16.496 21.9244 16.6986 21.7444 16.9237 21.5418C17.1713 21.3167 17.4189 21.0691 17.9366 21.0691C18.4542 21.0691 18.7243 21.3167 18.9494 21.5418C19.1745 21.7444 19.3546 21.9244 19.7597 21.9244C20.1649 21.9244 20.3674 21.7444 20.57 21.5418C20.8176 21.3167 21.0652 21.0691 21.5829 21.0691C22.1006 21.0691 21.988 21.1141 22.1231 21.1817C22.3256 21.2717 22.4607 21.4068 22.6182 21.5193C22.8433 21.7219 23.0459 21.9019 23.451 21.9019C23.8562 21.9019 24.0588 21.7219 24.2838 21.5193C24.5314 21.2942 24.8015 21.0466 25.3192 21.0466C25.8369 21.0466 26.107 21.2942 26.3546 21.5193C26.5796 21.7219 26.7822 21.9019 27.1874 21.9019C27.5925 21.9019 27.7951 21.7219 28.0202 21.5193C28.2678 21.2942 28.5378 21.0466 29.0555 21.0466C29.5732 21.0466 29.6182 21.1367 29.7983 21.2717L31.3514 19.1109C31.3514 19.1109 31.3514 19.0659 31.3514 19.0209C31.3514 18.9309 31.2838 18.8633 31.1938 18.8633H31.2613L31.2838 18.8859ZM20.2324 18.8859H17.3964L17.6665 17.7154H20.1874V17.7605H20.2324V18.9084V18.8859ZM23.0459 18.8859H20.5475V17.7154H23.0459V18.8859ZM23.451 18.8859V17.7154H26.3771L27.9751 18.8859H23.451Z" fill="white"/>
<path d="M24.869 21.9695H25.7919C25.6793 21.9019 25.5218 21.8569 25.3417 21.8569C25.1616 21.8569 25.0041 21.9019 24.869 21.9695Z" fill="white"/>
<path d="M29.1006 21.8569C28.9205 21.8569 28.8079 21.8569 28.6729 21.9469H29.3031L29.3481 21.9019C29.2806 21.9019 29.1906 21.9019 29.1006 21.9019V21.8569Z" fill="white"/>
</g>
<rect x="9" y="7" width="26" height="26" rx="3" stroke="white" stroke-width="2"/>
</g>
<defs>
<filter id="filter0_d_8318_7362" x="0" y="0" width="44" height="44" filterUnits="userSpaceOnUse" color-interpolation-filters="sRGB">
<feFlood flood-opacity="0" result="BackgroundImageFix"/>
<feColorMatrix in="SourceAlpha" type="matrix" values="0 0 0 0 0 0 0 0 0 0 0 0 0 0 0 0 0 0 127 0" result="hardAlpha"/>
<feOffset dy="2"/>
<feGaussianBlur stdDeviation="4"/>
<feColorMatrix type="matrix" values="0 0 0 0 0 0 0 0 0 0 0 0 0 0 0 0 0 0 0.16 0"/>
<feBlend mode="normal" in2="BackgroundImageFix" result="effect1_dropShadow_8318_7362"/>
<feBlend mode="normal" in="SourceGraphic" in2="effect1_dropShadow_8318_7362" result="shape"/>
</filter>
<clipPath id="clip0_8318_7362">
<rect x="8" y="6" width="28" height="28" rx="4" fill="white"/>
</clipPath>
</defs>
</svg>
