<svg width="44" height="44" viewBox="0 0 44 44" fill="none" xmlns="http://www.w3.org/2000/svg">
<g filter="url(#filter0_d_8318_7354)">
<g clip-path="url(#clip0_8318_7354)">
<rect x="8" y="8" width="28" height="28" rx="4" fill="#82B962"/>
<path d="M31.5 25.5278C31.5 25.7778 31.3621 25.9167 31.1139 25.9167H28.246V25.6667C28.246 25.1111 28.053 24.6111 27.6393 24.2222C27.2533 23.8333 26.7569 23.6111 26.2054 23.6111C25.6538 23.6111 25.1299 23.8056 24.7438 24.2222C24.3578 24.6111 24.1372 25.1111 24.1372 25.6667C24.1372 26.2222 24.1372 25.75 24.1372 25.7778V25.8889H19.8077V25.6389C19.8077 25.0833 19.6147 24.5833 19.2286 24.1944C18.8425 23.8056 18.3462 23.5833 17.7671 23.5833C17.188 23.5833 16.6916 23.7778 16.3055 24.1944C15.9194 24.5833 15.7264 25.0833 15.7264 25.6389V25.8889H12.8861C12.7758 25.8889 12.693 25.8889 12.6103 25.7778C12.5276 25.6944 12.5 25.6111 12.5 25.5V18.1389C12.5 18.0278 12.5276 17.9444 12.6103 17.8611C12.693 17.7778 12.7758 17.75 12.8861 17.75H31.0588C31.1691 17.75 31.2518 17.75 31.3345 17.8611C31.4173 17.9444 31.4448 18.0278 31.4448 18.1389H31.5V25.5278ZM13.41 22.5556H17.188V19.4167H13.41V22.5556ZM19.394 25.6667C19.394 26.1111 19.2286 26.4722 18.9253 26.7778C18.6219 27.0833 18.2358 27.25 17.8222 27.25C17.4086 27.25 17.0225 27.0833 16.7192 26.7778C16.4158 26.4722 16.2504 26.0833 16.2504 25.6667C16.2504 25.25 16.4158 24.8611 16.7192 24.5556C17.0225 24.25 17.4086 24.1111 17.8222 24.1111C18.2358 24.1111 18.6219 24.25 18.9253 24.5556C19.2286 24.8611 19.394 25.2222 19.394 25.6667ZM17.8774 22.5556H21.6553V19.4167H17.8774V22.5556ZM22.3723 22.5556H26.1778V19.4167H22.3723V22.5556ZM27.8048 25.6667C27.8048 26.1111 27.6393 26.4722 27.336 26.7778C27.0327 27.0833 26.6466 27.25 26.2329 27.25C25.8193 27.25 25.4332 27.0833 25.1299 26.7778C24.8266 26.4722 24.6611 26.0833 24.6611 25.6667C24.6611 25.25 24.8266 24.8611 25.1299 24.5556C25.4332 24.25 25.8193 24.1111 26.2329 24.1111C26.6466 24.1111 27.0327 24.25 27.336 24.5556C27.6393 24.8611 27.8048 25.2222 27.8048 25.6667ZM26.8672 22.5556H30.6451V19.4167H26.8672V22.5556Z" fill="black"/>
</g>
<rect x="9" y="9" width="26" height="26" rx="3" stroke="white" stroke-width="2"/>
</g>
<defs>
<filter id="filter0_d_8318_7354" x="0" y="0" width="44" height="44" filterUnits="userSpaceOnUse" color-interpolation-filters="sRGB">
<feFlood flood-opacity="0" result="BackgroundImageFix"/>
<feColorMatrix in="SourceAlpha" type="matrix" values="0 0 0 0 0 0 0 0 0 0 0 0 0 0 0 0 0 0 127 0" result="hardAlpha"/>
<feOffset/>
<feGaussianBlur stdDeviation="4"/>
<feColorMatrix type="matrix" values="0 0 0 0 0 0 0 0 0 0 0 0 0 0 0 0 0 0 0.23 0"/>
<feBlend mode="normal" in2="BackgroundImageFix" result="effect1_dropShadow_8318_7354"/>
<feBlend mode="normal" in="SourceGraphic" in2="effect1_dropShadow_8318_7354" result="shape"/>
</filter>
<clipPath id="clip0_8318_7354">
<rect x="8" y="8" width="28" height="28" rx="4" fill="white"/>
</clipPath>
</defs>
</svg>
