<svg width="44" height="44" viewBox="0 0 44 44" fill="none" xmlns="http://www.w3.org/2000/svg">
<g filter="url(#filter0_d_8318_7368)">
<g clip-path="url(#clip0_8318_7368)">
<rect x="8" y="8" width="28" height="28" rx="4" fill="#676767"/>
<path fill-rule="evenodd" clip-rule="evenodd" d="M21.627 13.7546C21.8616 13.6373 22.1378 13.6373 22.3723 13.7546L30.7057 17.9213C30.988 18.0624 31.1663 18.351 31.1663 18.6666V29.5C31.1663 29.9602 30.7933 30.3333 30.333 30.3333C29.8728 30.3333 29.4997 29.9602 29.4997 29.5V19.1817L21.9997 15.4317L14.4997 19.1817V29.5C14.4997 29.9602 14.1266 30.3333 13.6663 30.3333C13.2061 30.3333 12.833 29.9602 12.833 29.5V18.6666C12.833 18.351 13.0113 18.0624 13.2937 17.9213L21.627 13.7546Z" fill="white"/>
<path fill-rule="evenodd" clip-rule="evenodd" d="M18.6663 27C19.1266 27 19.4997 27.373 19.4997 27.8333V29.5C19.4997 29.9602 19.1266 30.3333 18.6663 30.3333C18.2061 30.3333 17.833 29.9602 17.833 29.5V27.8333C17.833 27.373 18.2061 27 18.6663 27ZM25.333 27C25.7933 27 26.1663 27.373 26.1663 27.8333V29.5C26.1663 29.9602 25.7933 30.3333 25.333 30.3333C24.8728 30.3333 24.4997 29.9602 24.4997 29.5V27.8333C24.4997 27.373 24.8728 27 25.333 27Z" fill="white"/>
<path fill-rule="evenodd" clip-rule="evenodd" d="M20.3845 21.1666C20.0021 21.1666 19.6688 21.4269 19.576 21.7979L19.0583 23.8687C18.9467 24.3152 18.4943 24.5867 18.0478 24.475C17.6013 24.3635 17.3298 23.911 17.4414 23.4645L17.9591 21.3936C18.2374 20.2807 19.2373 19.5 20.3845 19.5H23.6153C24.7624 19.5 25.7623 20.2807 26.0406 21.3936L26.5583 23.4645C26.6699 23.911 26.3985 24.3635 25.952 24.475C25.5055 24.5867 25.053 24.3152 24.9414 23.8687L24.4237 21.7979C24.3309 21.4269 23.9977 21.1666 23.6153 21.1666H20.3845Z" fill="white"/>
<path fill-rule="evenodd" clip-rule="evenodd" d="M18.6663 22.8333C17.2856 22.8333 16.1663 23.9525 16.1663 25.3333V26.1666C16.1663 27.5474 17.2856 28.6666 18.6663 28.6666H25.333C26.7138 28.6666 27.833 27.5474 27.833 26.1666V25.3333C27.833 23.9525 26.7138 22.8333 25.333 22.8333H18.6663ZM20.333 25.75C20.333 25.2897 19.9599 24.9166 19.4997 24.9166C19.0394 24.9166 18.6663 25.2897 18.6663 25.75V25.7583C18.6663 26.2185 19.0394 26.5916 19.4997 26.5916C19.9599 26.5916 20.333 26.2185 20.333 25.7583V25.75ZM25.333 25.75C25.333 25.2897 24.9599 24.9166 24.4997 24.9166C24.0394 24.9166 23.6663 25.2897 23.6663 25.75V25.7583C23.6663 26.2185 24.0394 26.5916 24.4997 26.5916C24.9599 26.5916 25.333 26.2185 25.333 25.7583V25.75Z" fill="white"/>
</g>
<rect x="9" y="9" width="26" height="26" rx="3" stroke="white" stroke-width="2"/>
</g>
<defs>
<filter id="filter0_d_8318_7368" x="0" y="0" width="44" height="44" filterUnits="userSpaceOnUse" color-interpolation-filters="sRGB">
<feFlood flood-opacity="0" result="BackgroundImageFix"/>
<feColorMatrix in="SourceAlpha" type="matrix" values="0 0 0 0 0 0 0 0 0 0 0 0 0 0 0 0 0 0 127 0" result="hardAlpha"/>
<feOffset/>
<feGaussianBlur stdDeviation="4"/>
<feColorMatrix type="matrix" values="0 0 0 0 0 0 0 0 0 0 0 0 0 0 0 0 0 0 0.23 0"/>
<feBlend mode="normal" in2="BackgroundImageFix" result="effect1_dropShadow_8318_7368"/>
<feBlend mode="normal" in="SourceGraphic" in2="effect1_dropShadow_8318_7368" result="shape"/>
</filter>
<clipPath id="clip0_8318_7368">
<rect x="8" y="8" width="28" height="28" rx="4" fill="white"/>
</clipPath>
</defs>
</svg>
