<svg width="76" height="44" viewBox="0 0 76 44" fill="none" xmlns="http://www.w3.org/2000/svg">
<g filter="url(#filter0_d_8318_7410)">
<g clip-path="url(#clip0_8318_7410)">
<rect x="8" y="8" width="28" height="28" rx="4" fill="#82B962"/>
<path d="M31.5 25.5278C31.5 25.7778 31.3621 25.9167 31.1139 25.9167H28.246V25.6667C28.246 25.1111 28.053 24.6111 27.6393 24.2222C27.2533 23.8333 26.7569 23.6111 26.2054 23.6111C25.6538 23.6111 25.1299 23.8056 24.7438 24.2222C24.3578 24.6111 24.1372 25.1111 24.1372 25.6667C24.1372 26.2222 24.1372 25.75 24.1372 25.7778V25.8889H19.8077V25.6389C19.8077 25.0833 19.6147 24.5833 19.2286 24.1944C18.8425 23.8056 18.3462 23.5833 17.7671 23.5833C17.188 23.5833 16.6916 23.7778 16.3055 24.1944C15.9194 24.5833 15.7264 25.0833 15.7264 25.6389V25.8889H12.8861C12.7758 25.8889 12.693 25.8889 12.6103 25.7778C12.5276 25.6944 12.5 25.6111 12.5 25.5V18.1389C12.5 18.0278 12.5276 17.9444 12.6103 17.8611C12.693 17.7778 12.7758 17.75 12.8861 17.75H31.0588C31.1691 17.75 31.2518 17.75 31.3345 17.8611C31.4173 17.9444 31.4448 18.0278 31.4448 18.1389H31.5V25.5278ZM13.41 22.5556H17.188V19.4167H13.41V22.5556ZM19.394 25.6667C19.394 26.1111 19.2286 26.4722 18.9253 26.7778C18.6219 27.0833 18.2358 27.25 17.8222 27.25C17.4086 27.25 17.0225 27.0833 16.7192 26.7778C16.4158 26.4722 16.2504 26.0833 16.2504 25.6667C16.2504 25.25 16.4158 24.8611 16.7192 24.5556C17.0225 24.25 17.4086 24.1111 17.8222 24.1111C18.2358 24.1111 18.6219 24.25 18.9253 24.5556C19.2286 24.8611 19.394 25.2222 19.394 25.6667ZM17.8774 22.5556H21.6553V19.4167H17.8774V22.5556ZM22.3723 22.5556H26.1778V19.4167H22.3723V22.5556ZM27.8048 25.6667C27.8048 26.1111 27.6393 26.4722 27.336 26.7778C27.0327 27.0833 26.6466 27.25 26.2329 27.25C25.8193 27.25 25.4332 27.0833 25.1299 26.7778C24.8266 26.4722 24.6611 26.0833 24.6611 25.6667C24.6611 25.25 24.8266 24.8611 25.1299 24.5556C25.4332 24.25 25.8193 24.1111 26.2329 24.1111C26.6466 24.1111 27.0327 24.25 27.336 24.5556C27.6393 24.8611 27.8048 25.2222 27.8048 25.6667ZM26.8672 22.5556H30.6451V19.4167H26.8672V22.5556Z" fill="black"/>
</g>
<rect x="9" y="9" width="26" height="26" rx="3" stroke="white" stroke-width="2"/>
<g clip-path="url(#clip1_8318_7410)">
<rect x="40" y="8" width="28" height="28" rx="4" fill="#82B962"/>
<path fill-rule="evenodd" clip-rule="evenodd" d="M45 19.375C45 18.5466 45.6716 17.875 46.5 17.875H59C61.4853 17.875 63.5 19.8897 63.5 22.375V25.375C63.5 26.2034 62.8318 26.875 62.0034 26.875C57.1152 26.875 47.845 26.875 46.5 26.875C45.6716 26.875 45 26.2034 45 25.375V19.375ZM46.5 19.875C46.5 19.5989 46.7239 19.375 47 19.375H48.4979C48.774 19.375 48.9979 19.5989 48.9979 19.875V22.375C48.9979 22.6511 48.774 22.875 48.4979 22.875H47C46.75 22.875 46.5 22.625 46.5 22.375V19.875ZM50.5054 19.375C50.2293 19.375 50.0054 19.5989 50.0054 19.875L50 22.375C50 22.625 50.25 22.875 50.5 22.875H52.5054C52.7816 22.875 53.0054 22.6511 53.0054 22.375V19.875C53.0054 19.5989 52.7816 19.375 52.5054 19.375H50.5054ZM54.0129 19.875C54.0129 19.5989 54.2368 19.375 54.5129 19.375H56.5129C56.7891 19.375 57.0129 19.5989 57.0129 19.875V22.375C57.0129 22.6511 56.7891 22.875 56.5129 22.875H55.0129C54.4607 22.875 54 22.9273 54 22.375L54.0129 19.875ZM58.5204 19.375C58.2443 19.375 58.0204 19.5989 58.0204 19.875V22.375C58.0204 22.6511 58.2443 22.875 58.5204 22.875H61.5204C61.7966 22.875 62.0204 22.6511 62.0204 22.375C62.0204 20.7181 60.6773 19.375 59.0204 19.375H58.5204Z" fill="black"/>
<path fill-rule="evenodd" clip-rule="evenodd" d="M45.375 28.375C45.375 28.0298 45.6548 27.75 46 27.75L62.5 27.75C62.8452 27.75 63.125 28.0298 63.125 28.375C63.125 28.7202 62.8452 29 62.5 29L46 29C45.6548 29 45.375 28.7202 45.375 28.375Z" fill="black"/>
<path fill-rule="evenodd" clip-rule="evenodd" d="M51.375 15.875C51.375 15.5298 51.6548 15.25 52 15.25H56C56.2468 15.25 56.4705 15.3953 56.5709 15.6207C56.6714 15.8462 56.6297 16.1096 56.4646 16.2931L54.2146 18.7931C53.9836 19.0497 53.5885 19.0705 53.3319 18.8396C53.0753 18.6086 53.0545 18.2135 53.2854 17.9569L54.5966 16.5H52C51.6548 16.5 51.375 16.2202 51.375 15.875Z" fill="black"/>
</g>
<rect x="41" y="9" width="26" height="26" rx="3" stroke="white" stroke-width="2"/>
</g>
<defs>
<filter id="filter0_d_8318_7410" x="0" y="0" width="76" height="44" filterUnits="userSpaceOnUse" color-interpolation-filters="sRGB">
<feFlood flood-opacity="0" result="BackgroundImageFix"/>
<feColorMatrix in="SourceAlpha" type="matrix" values="0 0 0 0 0 0 0 0 0 0 0 0 0 0 0 0 0 0 127 0" result="hardAlpha"/>
<feOffset/>
<feGaussianBlur stdDeviation="4"/>
<feColorMatrix type="matrix" values="0 0 0 0 0 0 0 0 0 0 0 0 0 0 0 0 0 0 0.23 0"/>
<feBlend mode="normal" in2="BackgroundImageFix" result="effect1_dropShadow_8318_7410"/>
<feBlend mode="normal" in="SourceGraphic" in2="effect1_dropShadow_8318_7410" result="shape"/>
</filter>
<clipPath id="clip0_8318_7410">
<rect x="8" y="8" width="28" height="28" rx="4" fill="white"/>
</clipPath>
<clipPath id="clip1_8318_7410">
<rect x="40" y="8" width="28" height="28" rx="4" fill="white"/>
</clipPath>
</defs>
</svg>
