<svg width="102" height="65" viewBox="0 0 102 65" fill="none" xmlns="http://www.w3.org/2000/svg">
<g filter="url(#filter0_d_8318_7432)">
<mask id="path-1-inside-1_8318_7432" fill="white">
<path fill-rule="evenodd" clip-rule="evenodd" d="M16 6C11.5817 6 8 9.58172 8 14V42C8 46.4183 11.5817 50 16 50H40.0486C43.0393 50 45.9778 51.0638 48.0226 53.2462C48.2503 53.4893 48.4744 53.7343 48.6944 53.9815C49.879 55.312 52.1727 55.3473 53.384 54.0382C53.6458 53.7553 53.9126 53.4746 54.184 53.1957C56.2608 51.0621 59.1772 50 62.1547 50H86C90.4183 50 94 46.4183 94 42V14C94 9.58172 90.4183 6 86 6H16Z"/>
</mask>
<path fill-rule="evenodd" clip-rule="evenodd" d="M16 6C11.5817 6 8 9.58172 8 14V42C8 46.4183 11.5817 50 16 50H40.0486C43.0393 50 45.9778 51.0638 48.0226 53.2462C48.2503 53.4893 48.4744 53.7343 48.6944 53.9815C49.879 55.312 52.1727 55.3473 53.384 54.0382C53.6458 53.7553 53.9126 53.4746 54.184 53.1957C56.2608 51.0621 59.1772 50 62.1547 50H86C90.4183 50 94 46.4183 94 42V14C94 9.58172 90.4183 6 86 6H16Z" fill="white"/>
<path d="M48.6944 53.9815L47.2005 55.3112L47.2006 55.3114L48.6944 53.9815ZM53.384 54.0382L54.852 55.3965L54.8521 55.3964L53.384 54.0382ZM54.184 53.1957L52.7509 51.8008L54.184 53.1957ZM48.0226 53.2462L49.4821 51.8788L48.0226 53.2462ZM8 14H10C10 10.6863 12.6863 8 16 8V6V4C10.4772 4 6 8.47715 6 14H8ZM8 42H10V14H8H6V42H8ZM16 50V48C12.6863 48 10 45.3137 10 42H8H6C6 47.5228 10.4772 52 16 52V50ZM40.0486 50V48H16V50V52H40.0486V50ZM48.0226 53.2462L46.5631 54.6137C46.7799 54.8451 46.9925 55.0776 47.2005 55.3112L48.6944 53.9815L50.1883 52.6517C49.9563 52.3911 49.7207 52.1335 49.4821 51.8788L48.0226 53.2462ZM48.6944 53.9815L47.2006 55.3114C49.1611 57.5134 52.8291 57.5827 54.852 55.3965L53.384 54.0382L51.9161 52.6799C51.5164 53.1118 50.597 53.1107 50.1882 52.6515L48.6944 53.9815ZM53.384 54.0382L54.8521 55.3964C55.1015 55.1269 55.3567 54.8584 55.6172 54.5907L54.184 53.1957L52.7509 51.8008C52.4686 52.0907 52.19 52.3837 51.916 52.68L53.384 54.0382ZM86 50V48H62.1547V50V52H86V50ZM94 42H92C92 45.3137 89.3137 48 86 48V50V52C91.5229 52 96 47.5228 96 42H94ZM94 14H92V42H94H96V14H94ZM86 6V8C89.3137 8 92 10.6863 92 14H94H96C96 8.47715 91.5229 4 86 4V6ZM16 6V8H86V6V4H16V6ZM54.184 53.1957L55.6172 54.5907C57.2654 52.8974 59.6375 52 62.1547 52V50V48C58.717 48 55.2562 49.2268 52.7509 51.8008L54.184 53.1957ZM40.0486 50V52C42.5852 52 44.9591 52.9017 46.5631 54.6137L48.0226 53.2462L49.4821 51.8788C46.9964 49.2258 43.4933 48 40.0486 48V50Z" fill="white" mask="url(#path-1-inside-1_8318_7432)"/>
<rect x="10" y="8" width="40" height="40" rx="6" fill="#82B962"/>
<path d="M41.2008 31.5696C41.2008 31.8644 41.0382 32.0281 40.7456 32.0281H37.3645V31.7334C37.3645 31.0784 37.1369 30.4889 36.6493 30.0304C36.1941 29.572 35.6089 29.31 34.9587 29.31C34.3085 29.31 33.6908 29.5392 33.2356 30.0304C32.7805 30.4889 32.5204 31.0784 32.5204 31.7334C32.5204 32.3883 32.5204 31.8316 32.5204 31.8644V31.9953H27.4162V31.7006C27.4162 31.0456 27.1886 30.4562 26.7334 29.9977C26.2783 29.5392 25.6931 29.2772 25.0104 29.2772C24.3276 29.2772 23.7424 29.5065 23.2873 29.9977C22.8321 30.4562 22.6046 31.0456 22.6046 31.7006V31.9953H19.2559C19.1259 31.9953 19.0284 31.9953 18.9308 31.8644C18.8333 31.7661 18.8008 31.6679 18.8008 31.5369V22.8585C18.8008 22.7275 18.8333 22.6293 18.9308 22.531C19.0284 22.4328 19.1259 22.4 19.2559 22.4H40.6806C40.8107 22.4 40.9082 22.4 41.0057 22.531C41.1033 22.6293 41.1358 22.7275 41.1358 22.8585H41.2008V31.5696ZM19.8736 28.0655H24.3276V24.3649H19.8736V28.0655ZM26.9285 31.7334C26.9285 32.2573 26.7334 32.6831 26.3758 33.0433C26.0182 33.4035 25.563 33.6 25.0754 33.6C24.5877 33.6 24.1326 33.4035 23.7749 33.0433C23.4173 32.6831 23.2223 32.2246 23.2223 31.7334C23.2223 31.2421 23.4173 30.7836 23.7749 30.4234C24.1326 30.0632 24.5877 29.8994 25.0754 29.8994C25.563 29.8994 26.0182 30.0632 26.3758 30.4234C26.7334 30.7836 26.9285 31.2094 26.9285 31.7334ZM25.1404 28.0655H29.5944V24.3649H25.1404V28.0655ZM30.4397 28.0655H34.9262V24.3649H30.4397V28.0655ZM36.8443 31.7334C36.8443 32.2573 36.6493 32.6831 36.2916 33.0433C35.934 33.4035 35.4789 33.6 34.9912 33.6C34.5035 33.6 34.0484 33.4035 33.6908 33.0433C33.3331 32.6831 33.1381 32.2246 33.1381 31.7334C33.1381 31.2421 33.3331 30.7836 33.6908 30.4234C34.0484 30.0632 34.5035 29.8994 34.9912 29.8994C35.4789 29.8994 35.934 30.0632 36.2916 30.4234C36.6493 30.7836 36.8443 31.2094 36.8443 31.7334ZM35.739 28.0655H40.1929V24.3649H35.739V28.0655Z" fill="black"/>
<rect x="52" y="8" width="40" height="40" rx="6" fill="#82B962"/>
<path fill-rule="evenodd" clip-rule="evenodd" d="M59.4004 24.325C59.4004 23.1652 60.3406 22.225 61.5004 22.225H79.0004C82.4798 22.225 85.3004 25.0456 85.3004 28.525V32.725C85.3004 33.8848 84.3649 34.825 83.2051 34.825C76.3616 34.825 63.3834 34.825 61.5004 34.825C60.3406 34.825 59.4004 33.8848 59.4004 32.725V24.325ZM61.5004 25.025C61.5004 24.6385 61.8138 24.325 62.2004 24.325H64.2974C64.684 24.325 64.9974 24.6385 64.9974 25.025V28.525C64.9974 28.9116 64.684 29.225 64.2974 29.225H62.2004C61.8504 29.225 61.5004 28.875 61.5004 28.525V25.025ZM67.108 24.325C66.7214 24.325 66.408 24.6385 66.408 25.025L66.4004 28.525C66.4004 28.875 66.7504 29.225 67.1004 29.225H69.908C70.2946 29.225 70.608 28.9116 70.608 28.525V25.025C70.608 24.6385 70.2946 24.325 69.908 24.325H67.108ZM72.0185 25.025C72.0185 24.6385 72.3319 24.325 72.7185 24.325H75.5185C75.9051 24.325 76.2185 24.6385 76.2185 25.025V28.525C76.2185 28.9116 75.9051 29.225 75.5185 29.225H73.4185C72.6453 29.225 72.0004 29.2983 72.0004 28.525L72.0185 25.025ZM78.329 24.325C77.9424 24.325 77.629 24.6385 77.629 25.025V28.525C77.629 28.9116 77.9424 29.225 78.329 29.225H82.529C82.9156 29.225 83.229 28.9116 83.229 28.525C83.229 26.2054 81.3486 24.325 79.029 24.325H78.329Z" fill="black"/>
<path fill-rule="evenodd" clip-rule="evenodd" d="M59.9254 36.925C59.9254 36.4418 60.3171 36.05 60.8004 36.05L83.9004 36.05C84.3836 36.05 84.7754 36.4418 84.7754 36.925C84.7754 37.4083 84.3836 37.8 83.9004 37.8L60.8004 37.8C60.3171 37.8 59.9254 37.4083 59.9254 36.925Z" fill="black"/>
<path fill-rule="evenodd" clip-rule="evenodd" d="M68.3254 19.425C68.3254 18.9418 68.7171 18.55 69.2004 18.55H74.8004C75.1459 18.55 75.4591 18.7534 75.5997 19.0691C75.7403 19.3847 75.6819 19.7535 75.4508 20.0104L72.3008 23.5104C71.9775 23.8696 71.4242 23.8987 71.065 23.5754C70.7058 23.2522 70.6767 22.6989 71 22.3397L72.8357 20.3H69.2004C68.7171 20.3 68.3254 19.9083 68.3254 19.425Z" fill="black"/>
</g>
<defs>
<filter id="filter0_d_8318_7432" x="0" y="0" width="102" height="65" filterUnits="userSpaceOnUse" color-interpolation-filters="sRGB">
<feFlood flood-opacity="0" result="BackgroundImageFix"/>
<feColorMatrix in="SourceAlpha" type="matrix" values="0 0 0 0 0 0 0 0 0 0 0 0 0 0 0 0 0 0 127 0" result="hardAlpha"/>
<feOffset dy="2"/>
<feGaussianBlur stdDeviation="4"/>
<feColorMatrix type="matrix" values="0 0 0 0 0 0 0 0 0 0 0 0 0 0 0 0 0 0 0.16 0"/>
<feBlend mode="normal" in2="BackgroundImageFix" result="effect1_dropShadow_8318_7432"/>
<feBlend mode="normal" in="SourceGraphic" in2="effect1_dropShadow_8318_7432" result="shape"/>
</filter>
</defs>
</svg>
