<svg width="60" height="65" viewBox="0 0 60 65" fill="none" xmlns="http://www.w3.org/2000/svg">
<g filter="url(#filter0_d_8318_7370)">
<mask id="path-1-inside-1_8318_7370" fill="white">
<path fill-rule="evenodd" clip-rule="evenodd" d="M16 6C11.5817 6 8 9.58172 8 14V27.7577V42C8 46.4183 11.5817 50 16 50H19.0486C22.0393 50 24.9778 51.0638 27.0226 53.2462C27.2503 53.4893 27.4744 53.7343 27.6944 53.9815C28.879 55.312 31.1727 55.3473 32.384 54.0382C32.6457 53.7553 32.9126 53.4746 33.184 53.1957C35.2608 51.0621 38.1772 50 41.1547 50H44C48.4183 50 52 46.4183 52 42V27.7577V14C52 9.58172 48.4183 6 44 6H16Z"/>
</mask>
<path fill-rule="evenodd" clip-rule="evenodd" d="M16 6C11.5817 6 8 9.58172 8 14V27.7577V42C8 46.4183 11.5817 50 16 50H19.0486C22.0393 50 24.9778 51.0638 27.0226 53.2462C27.2503 53.4893 27.4744 53.7343 27.6944 53.9815C28.879 55.312 31.1727 55.3473 32.384 54.0382C32.6457 53.7553 32.9126 53.4746 33.184 53.1957C35.2608 51.0621 38.1772 50 41.1547 50H44C48.4183 50 52 46.4183 52 42V27.7577V14C52 9.58172 48.4183 6 44 6H16Z" fill="#82B962"/>
<path d="M27.6944 53.9815L26.2005 55.3112L26.2006 55.3114L27.6944 53.9815ZM32.384 54.0382L33.852 55.3965L33.8521 55.3964L32.384 54.0382ZM27.0226 53.2462L25.5631 54.6137L27.0226 53.2462ZM8 14H10C10 10.6863 12.6863 8 16 8V6V4C10.4772 4 6 8.47715 6 14H8ZM8 27.7577H10V14H8H6V27.7577H8ZM8 42H10V27.7577H8H6V42H8ZM16 50V48C12.6863 48 10 45.3137 10 42H8H6C6 47.5228 10.4772 52 16 52V50ZM19.0486 50V48H16V50V52H19.0486V50ZM27.0226 53.2462L25.5631 54.6137C25.7799 54.8451 25.9925 55.0776 26.2005 55.3112L27.6944 53.9815L29.1883 52.6517C28.9563 52.3911 28.7207 52.1335 28.4821 51.8788L27.0226 53.2462ZM27.6944 53.9815L26.2006 55.3114C28.1611 57.5134 31.8291 57.5827 33.852 55.3965L32.384 54.0382L30.916 52.6799C30.5164 53.1118 29.597 53.1107 29.1882 52.6516L27.6944 53.9815ZM32.384 54.0382L33.8521 55.3964C34.1015 55.1269 34.3567 54.8584 34.6172 54.5907L33.184 53.1957L31.7509 51.8008C31.4686 52.0907 31.19 52.3837 30.9159 52.68L32.384 54.0382ZM44 50V48H41.1547V50V52H44V50ZM52 42H50C50 45.3137 47.3137 48 44 48V50V52C49.5228 52 54 47.5228 54 42H52ZM52 27.7577H50V42H52H54V27.7577H52ZM52 14H50V27.7577H52H54V14H52ZM44 6V8C47.3137 8 50 10.6863 50 14H52H54C54 8.47715 49.5228 4 44 4V6ZM16 6V8H44V6V4H16V6ZM33.184 53.1957L34.6172 54.5907C36.2654 52.8974 38.6375 52 41.1547 52V50V48C37.717 48 34.2562 49.2268 31.7509 51.8008L33.184 53.1957ZM19.0486 50V52C21.5852 52 23.9591 52.9017 25.5631 54.6137L27.0226 53.2462L28.4821 51.8788C25.9964 49.2258 22.4933 48 19.0486 48V50Z" fill="white" mask="url(#path-1-inside-1_8318_7370)"/>
<path d="M43.3002 32.7389C43.3002 33.0889 43.1072 33.2833 42.7597 33.2833H38.7446V32.9333C38.7446 32.1555 38.4744 31.4555 37.8953 30.9111C37.3548 30.3666 36.6598 30.0555 35.8877 30.0555C35.1156 30.0555 34.3821 30.3278 33.8416 30.9111C33.3011 31.4555 32.9922 32.1555 32.9922 32.9333C32.9922 33.7111 32.9922 33.05 32.9922 33.0889V33.2444H26.931V32.8944C26.931 32.1166 26.6607 31.4166 26.1202 30.8722C25.5797 30.3278 24.8848 30.0166 24.0741 30.0166C23.2633 30.0166 22.5684 30.2889 22.0279 30.8722C21.4874 31.4166 21.2172 32.1166 21.2172 32.8944V33.2444H17.2407C17.0863 33.2444 16.9704 33.2444 16.8546 33.0889C16.7388 32.9722 16.7002 32.8555 16.7002 32.7V22.3944C16.7002 22.2389 16.7388 22.1222 16.8546 22.0055C16.9704 21.8889 17.0863 21.85 17.2407 21.85H42.6825C42.8369 21.85 42.9527 21.85 43.0686 22.0055C43.1844 22.1222 43.223 22.2389 43.223 22.3944H43.3002V32.7389ZM17.9742 28.5778H23.2633V24.1833H17.9742V28.5778ZM26.3519 32.9333C26.3519 33.5555 26.1202 34.0611 25.6955 34.4889C25.2709 34.9166 24.7304 35.15 24.1513 35.15C23.5722 35.15 23.0317 34.9166 22.607 34.4889C22.1823 34.0611 21.9507 33.5166 21.9507 32.9333C21.9507 32.35 22.1823 31.8055 22.607 31.3778C23.0317 30.95 23.5722 30.7555 24.1513 30.7555C24.7304 30.7555 25.2709 30.95 25.6955 31.3778C26.1202 31.8055 26.3519 32.3111 26.3519 32.9333ZM24.2285 28.5778H29.5176V24.1833H24.2285V28.5778ZM30.5214 28.5778H35.8491V24.1833H30.5214V28.5778ZM38.1269 32.9333C38.1269 33.5555 37.8953 34.0611 37.4706 34.4889C37.0459 34.9166 36.5054 35.15 35.9263 35.15C35.3472 35.15 34.8067 34.9166 34.3821 34.4889C33.9574 34.0611 33.7257 33.5166 33.7257 32.9333C33.7257 32.35 33.9574 31.8055 34.3821 31.3778C34.8067 30.95 35.3472 30.7555 35.9263 30.7555C36.5054 30.7555 37.0459 30.95 37.4706 31.3778C37.8953 31.8055 38.1269 32.3111 38.1269 32.9333ZM36.8143 28.5778H42.1034V24.1833H36.8143V28.5778Z" fill="black"/>
</g>
<defs>
<filter id="filter0_d_8318_7370" x="0" y="0" width="60" height="65" filterUnits="userSpaceOnUse" color-interpolation-filters="sRGB">
<feFlood flood-opacity="0" result="BackgroundImageFix"/>
<feColorMatrix in="SourceAlpha" type="matrix" values="0 0 0 0 0 0 0 0 0 0 0 0 0 0 0 0 0 0 127 0" result="hardAlpha"/>
<feOffset dy="2"/>
<feGaussianBlur stdDeviation="4"/>
<feColorMatrix type="matrix" values="0 0 0 0 0 0 0 0 0 0 0 0 0 0 0 0 0 0 0.16 0"/>
<feBlend mode="normal" in2="BackgroundImageFix" result="effect1_dropShadow_8318_7370"/>
<feBlend mode="normal" in="SourceGraphic" in2="effect1_dropShadow_8318_7370" result="shape"/>
</filter>
</defs>
</svg>
