<svg width="60" height="65" viewBox="0 0 60 65" fill="none" xmlns="http://www.w3.org/2000/svg">
<g filter="url(#filter0_d_896_7213)">
<mask id="path-1-inside-1_896_7213" fill="white">
<path fill-rule="evenodd" clip-rule="evenodd" d="M16 6C11.5817 6 8 9.58172 8 14V27.7577V42C8 46.4183 11.5817 50 16 50H19.0486C22.0393 50 24.9778 51.0638 27.0226 53.2462C27.2503 53.4893 27.4744 53.7343 27.6944 53.9815C28.879 55.312 31.1727 55.3473 32.384 54.0382C32.6457 53.7553 32.9126 53.4746 33.184 53.1957C35.2608 51.0621 38.1772 50 41.1547 50H44C48.4183 50 52 46.4183 52 42V27.7577V14C52 9.58172 48.4183 6 44 6H16Z"/>
</mask>
<path fill-rule="evenodd" clip-rule="evenodd" d="M16 6C11.5817 6 8 9.58172 8 14V27.7577V42C8 46.4183 11.5817 50 16 50H19.0486C22.0393 50 24.9778 51.0638 27.0226 53.2462C27.2503 53.4893 27.4744 53.7343 27.6944 53.9815C28.879 55.312 31.1727 55.3473 32.384 54.0382C32.6457 53.7553 32.9126 53.4746 33.184 53.1957C35.2608 51.0621 38.1772 50 41.1547 50H44C48.4183 50 52 46.4183 52 42V27.7577V14C52 9.58172 48.4183 6 44 6H16Z" fill="#007AB5"/>
<path d="M27.6944 53.9815L26.2005 55.3112L26.2006 55.3114L27.6944 53.9815ZM32.384 54.0382L33.852 55.3965L33.8521 55.3964L32.384 54.0382ZM27.0226 53.2462L25.5631 54.6137L27.0226 53.2462ZM10 14C10 10.6863 12.6863 8 16 8V4C10.4772 4 6 8.47715 6 14H10ZM10 27.7577V14H6V27.7577H10ZM10 42V27.7577H6V42H10ZM16 48C12.6863 48 10 45.3137 10 42H6C6 47.5228 10.4772 52 16 52V48ZM19.0486 48H16V52H19.0486V48ZM25.5631 54.6137C25.7799 54.8451 25.9925 55.0776 26.2005 55.3112L29.1883 52.6517C28.9563 52.3911 28.7207 52.1335 28.4821 51.8788L25.5631 54.6137ZM26.2006 55.3114C28.1611 57.5134 31.8291 57.5827 33.852 55.3965L30.916 52.6799C30.5164 53.1118 29.597 53.1107 29.1882 52.6515L26.2006 55.3114ZM33.8521 55.3964C34.1015 55.1269 34.3567 54.8584 34.6172 54.5907L31.7509 51.8008C31.4686 52.0907 31.19 52.3837 30.9159 52.68L33.8521 55.3964ZM44 48H41.1547V52H44V48ZM50 42C50 45.3137 47.3137 48 44 48V52C49.5228 52 54 47.5228 54 42H50ZM50 27.7577V42H54V27.7577H50ZM50 14V27.7577H54V14H50ZM44 8C47.3137 8 50 10.6863 50 14H54C54 8.47715 49.5228 4 44 4V8ZM16 8H44V4H16V8ZM34.6172 54.5907C36.2654 52.8974 38.6375 52 41.1547 52V48C37.717 48 34.2562 49.2268 31.7509 51.8008L34.6172 54.5907ZM19.0486 52C21.5852 52 23.9591 52.9017 25.5631 54.6137L28.4821 51.8788C25.9964 49.2258 22.4933 48 19.0486 48V52Z" fill="white" mask="url(#path-1-inside-1_896_7213)"/>
<path d="M37.7437 33.4617C37.8078 33.4617 37.8719 33.5258 37.9361 33.5579L37.3268 34.3915H37.2627C36.7497 34.135 36.3008 33.8785 35.3388 33.8785C34.3769 33.8785 33.9279 34.103 33.3828 34.3915C32.8377 34.6801 32.1964 35.0008 30.978 35.0008C29.7595 35.0008 29.1182 34.6801 28.5731 34.3915C28.0601 34.135 27.6112 33.8785 26.6171 33.8785C25.6231 33.8785 25.2063 34.103 24.6932 34.3915C24.1161 34.6801 23.5068 35.0008 22.2884 35.0008C21.0699 35.0008 20.4607 34.6801 19.8835 34.3915C19.5949 34.2312 19.3063 34.103 18.9536 34.0068L19.2422 33.0128C19.6911 33.141 20.0438 33.3013 20.3645 33.4617C20.8775 33.7182 21.3264 33.9747 22.2884 33.9747C23.2503 33.9747 23.6992 33.7502 24.2443 33.4617C24.7894 33.1731 25.4307 32.8524 26.6492 32.8524C27.8677 32.8524 28.509 33.1731 29.0541 33.4617C29.5671 33.7182 30.016 33.9747 30.978 33.9747C31.9399 33.9747 32.3888 33.7502 32.9339 33.4617C33.479 33.1731 34.1203 32.8524 35.3388 32.8524C36.5573 32.8524 37.1986 33.1731 37.7437 33.4617Z" fill="white"/>
<path d="M40.8219 28.9726H37.5192C37.5192 28.9726 36.0763 22.7199 36.0122 22.3672C35.948 22.0145 35.6595 22.0786 35.6595 22.0786H33.9921C33.9921 22.0786 33.7676 21.1808 33.6714 20.6998C33.5432 20.1868 33.3187 20.315 33.3187 20.315C33.3187 20.315 31.1383 21.1487 30.8497 21.277C30.5611 21.4052 30.6573 21.7259 30.6573 21.7259V23.6819H23.2503C22.7373 23.6819 22.7373 23.9704 22.7373 23.9704L21.5188 28.9726H20.7172C20.5248 28.9726 20.3965 29.1008 20.3645 29.2612L19.5308 32.147C20.108 32.3073 20.5248 32.5318 20.8775 32.6921C21.3585 32.9486 21.615 33.0769 22.3204 33.0769C23.0259 33.0769 23.2824 32.9486 23.7634 32.6921C24.3726 32.3715 25.2063 31.9546 26.6492 31.9546C28.0921 31.9546 28.9579 32.3715 29.5671 32.6921C30.0481 32.9486 30.3046 33.0769 31.01 33.0769C31.7155 33.0769 31.972 32.9486 32.453 32.6921C33.0622 32.3715 33.8959 31.9546 35.3709 31.9546C36.8459 31.9546 37.6795 32.3715 38.2888 32.6921C38.3529 32.6921 38.5132 32.7883 38.5132 32.7883L41.0464 29.2932C41.0464 29.2932 41.0464 29.2291 41.0464 29.165C41.0464 29.0367 40.9502 28.9405 40.8219 28.9405V28.9726ZM23.1541 26.5356L23.5068 25.0286H26.7775V26.5356H23.1541ZM30.8818 26.5356H27.2584V25.0286H30.8818V26.5356ZM31.4589 26.5356V25.0286H35.0823L35.4671 26.5356H31.4589Z" fill="white"/>
</g>
<defs>
<filter id="filter0_d_896_7213" x="0" y="0" width="60" height="65" filterUnits="userSpaceOnUse" color-interpolation-filters="sRGB">
<feFlood flood-opacity="0" result="BackgroundImageFix"/>
<feColorMatrix in="SourceAlpha" type="matrix" values="0 0 0 0 0 0 0 0 0 0 0 0 0 0 0 0 0 0 127 0" result="hardAlpha"/>
<feOffset dy="2"/>
<feGaussianBlur stdDeviation="4"/>
<feColorMatrix type="matrix" values="0 0 0 0 0 0 0 0 0 0 0 0 0 0 0 0 0 0 0.16 0"/>
<feBlend mode="normal" in2="BackgroundImageFix" result="effect1_dropShadow_896_7213"/>
<feBlend mode="normal" in="SourceGraphic" in2="effect1_dropShadow_896_7213" result="shape"/>
</filter>
</defs>
</svg>
