<svg width="44" height="44" viewBox="0 0 44 44" fill="none" xmlns="http://www.w3.org/2000/svg">
<g filter="url(#filter0_d_787_6126)">
<g clip-path="url(#clip0_787_6126)">
<rect x="8" y="6" width="28" height="28" rx="4" fill="#551125"/>
<path fill-rule="evenodd" clip-rule="evenodd" d="M12.835 12.5C12.835 12.04 13.205 11.665 13.665 11.665H19.78C21.4 11.665 22.98 12.19 24.28 13.165L29.165 16.83C30.425 17.775 31.165 19.255 31.165 20.83C31.165 22.21 30.05 23.33 28.665 23.33H13.665C13.205 23.33 12.835 22.955 12.835 22.495V20.62H18.6699C19.0149 20.62 19.2949 20.34 19.2949 19.995C19.2949 17.81 17.52 16.035 15.335 16.035H12.835V12.495V12.5ZM12.835 17.29V19.375H17.97C17.69 18.18 16.615 17.29 15.335 17.29H12.835ZM28.165 18.165C28.32 18.28 28.46 18.405 28.585 18.54H26.165C24.21 18.54 22.625 16.955 22.625 15V14.075C22.85 14.2 23.07 14.345 23.28 14.5L28.165 18.165Z" fill="white"/>
<path fill-rule="evenodd" clip-rule="evenodd" d="M12.835 25.835C12.835 25.375 13.205 25 13.665 25H30.335C30.795 25 31.165 25.375 31.165 25.835C31.165 26.295 30.795 26.67 30.335 26.67H13.665C13.205 26.67 12.835 26.295 12.835 25.835Z" fill="white"/>
<path fill-rule="evenodd" clip-rule="evenodd" d="M17 25C17.46 25 17.835 25.375 17.835 25.835V27.5C17.835 27.96 17.46 28.335 17 28.335C16.54 28.335 16.165 27.96 16.165 27.5V25.835C16.165 25.375 16.54 25 17 25ZM22 25C22.46 25 22.835 25.375 22.835 25.835V27.5C22.835 27.96 22.46 28.335 22 28.335C21.54 28.335 21.165 27.96 21.165 27.5V25.835C21.165 25.375 21.54 25 22 25ZM27 25C27.46 25 27.835 25.375 27.835 25.835V27.5C27.835 27.96 27.46 28.335 27 28.335C26.54 28.335 26.165 27.96 26.165 27.5V25.835C26.165 25.375 26.54 25 27 25Z" fill="white"/>
</g>
<rect x="9" y="7" width="26" height="26" rx="3" stroke="white" stroke-width="2"/>
</g>
<defs>
<filter id="filter0_d_787_6126" x="0" y="0" width="44" height="44" filterUnits="userSpaceOnUse" color-interpolation-filters="sRGB">
<feFlood flood-opacity="0" result="BackgroundImageFix"/>
<feColorMatrix in="SourceAlpha" type="matrix" values="0 0 0 0 0 0 0 0 0 0 0 0 0 0 0 0 0 0 127 0" result="hardAlpha"/>
<feOffset dy="2"/>
<feGaussianBlur stdDeviation="4"/>
<feColorMatrix type="matrix" values="0 0 0 0 0 0 0 0 0 0 0 0 0 0 0 0 0 0 0.16 0"/>
<feBlend mode="normal" in2="BackgroundImageFix" result="effect1_dropShadow_787_6126"/>
<feBlend mode="normal" in="SourceGraphic" in2="effect1_dropShadow_787_6126" result="shape"/>
</filter>
<clipPath id="clip0_787_6126">
<rect x="8" y="6" width="28" height="28" rx="4" fill="white"/>
</clipPath>
</defs>
</svg>
