<svg width="60" height="65" viewBox="0 0 60 65" fill="none" xmlns="http://www.w3.org/2000/svg">
<g filter="url(#filter0_d_8318_7370)">
<mask id="path-1-inside-1_8318_7370" fill="white">
<path fill-rule="evenodd" clip-rule="evenodd" d="M16 6C11.5817 6 8 9.58172 8 14V27.7577V42C8 46.4183 11.5817 50 16 50H19.0486C22.0393 50 24.9778 51.0638 27.0226 53.2462C27.2503 53.4893 27.4744 53.7343 27.6944 53.9815C28.879 55.312 31.1727 55.3473 32.384 54.0382C32.6457 53.7553 32.9126 53.4746 33.184 53.1957C35.2608 51.0621 38.1772 50 41.1547 50H44C48.4183 50 52 46.4183 52 42V27.7577V14C52 9.58172 48.4183 6 44 6H16Z"/>
</mask>
<path fill-rule="evenodd" clip-rule="evenodd" d="M16 6C11.5817 6 8 9.58172 8 14V27.7577V42C8 46.4183 11.5817 50 16 50H19.0486C22.0393 50 24.9778 51.0638 27.0226 53.2462C27.2503 53.4893 27.4744 53.7343 27.6944 53.9815C28.879 55.312 31.1727 55.3473 32.384 54.0382C32.6457 53.7553 32.9126 53.4746 33.184 53.1957C35.2608 51.0621 38.1772 50 41.1547 50H44C48.4183 50 52 46.4183 52 42V27.7577V14C52 9.58172 48.4183 6 44 6H16Z" fill="#82B962"/>
<path d="M27.6944 53.9815L26.2005 55.3112L26.2006 55.3114L27.6944 53.9815ZM32.384 54.0382L33.852 55.3965L33.8521 55.3964L32.384 54.0382ZM27.0226 53.2462L25.5631 54.6137L27.0226 53.2462ZM8 14H10C10 10.6863 12.6863 8 16 8V6V4C10.4772 4 6 8.47715 6 14H8ZM8 27.7577H10V14H8H6V27.7577H8ZM8 42H10V27.7577H8H6V42H8ZM16 50V48C12.6863 48 10 45.3137 10 42H8H6C6 47.5228 10.4772 52 16 52V50ZM19.0486 50V48H16V50V52H19.0486V50ZM27.0226 53.2462L25.5631 54.6137C25.7799 54.8451 25.9925 55.0776 26.2005 55.3112L27.6944 53.9815L29.1883 52.6517C28.9563 52.3911 28.7207 52.1335 28.4821 51.8788L27.0226 53.2462ZM27.6944 53.9815L26.2006 55.3114C28.1611 57.5134 31.8291 57.5827 33.852 55.3965L32.384 54.0382L30.916 52.6799C30.5164 53.1118 29.597 53.1107 29.1882 52.6515L27.6944 53.9815ZM32.384 54.0382L33.8521 55.3964C34.1015 55.1269 34.3567 54.8584 34.6172 54.5907L33.184 53.1957L31.7509 51.8008C31.4686 52.0907 31.19 52.3837 30.9159 52.68L32.384 54.0382ZM44 50V48H41.1547V50V52H44V50ZM52 42H50C50 45.3137 47.3137 48 44 48V50V52C49.5228 52 54 47.5228 54 42H52ZM52 27.7577H50V42H52H54V27.7577H52ZM52 14H50V27.7577H52H54V14H52ZM44 6V8C47.3137 8 50 10.6863 50 14H52H54C54 8.47715 49.5228 4 44 4V6ZM16 6V8H44V6V4H16V6ZM33.184 53.1957L34.6172 54.5907C36.2654 52.8974 38.6375 52 41.1547 52V50V48C37.717 48 34.2562 49.2268 31.7509 51.8008L33.184 53.1957ZM19.0486 50V52C21.5852 52 23.9591 52.9017 25.5631 54.6137L27.0226 53.2462L28.4821 51.8788C25.9964 49.2258 22.4933 48 19.0486 48V50Z" fill="white" mask="url(#path-1-inside-1_8318_7370)"/>
<path d="M43.2992 32.7389C43.2992 33.0889 43.1062 33.2833 42.7587 33.2833H38.7436V32.9333C38.7436 32.1555 38.4734 31.4555 37.8943 30.9111C37.3538 30.3666 36.6589 30.0555 35.8867 30.0555C35.1146 30.0555 34.3811 30.3278 33.8406 30.9111C33.3001 31.4555 32.9912 32.1555 32.9912 32.9333C32.9912 33.7111 32.9912 33.05 32.9912 33.0889V33.2444H26.93V32.8944C26.93 32.1166 26.6597 31.4166 26.1192 30.8722C25.5788 30.3278 24.8838 30.0166 24.0731 30.0166C23.2624 30.0166 22.5674 30.2889 22.0269 30.8722C21.4864 31.4166 21.2162 32.1166 21.2162 32.8944V33.2444H17.2397C17.0853 33.2444 16.9695 33.2444 16.8536 33.0889C16.7378 32.9722 16.6992 32.8555 16.6992 32.7V22.3944C16.6992 22.2389 16.7378 22.1222 16.8536 22.0055C16.9695 21.8889 17.0853 21.85 17.2397 21.85H42.6815C42.8359 21.85 42.9518 21.85 43.0676 22.0055C43.1834 22.1222 43.222 22.2389 43.222 22.3944H43.2992V32.7389ZM17.9732 28.5778H23.2624V24.1833H17.9732V28.5778ZM26.3509 32.9333C26.3509 33.5555 26.1192 34.0611 25.6946 34.4889C25.2699 34.9166 24.7294 35.15 24.1503 35.15C23.5712 35.15 23.0307 34.9166 22.606 34.4889C22.1814 34.0611 21.9497 33.5166 21.9497 32.9333C21.9497 32.35 22.1814 31.8055 22.606 31.3778C23.0307 30.95 23.5712 30.7555 24.1503 30.7555C24.7294 30.7555 25.2699 30.95 25.6946 31.3778C26.1192 31.8055 26.3509 32.3111 26.3509 32.9333ZM24.2275 28.5778H29.5166V24.1833H24.2275V28.5778ZM30.5204 28.5778H35.8481V24.1833H30.5204V28.5778ZM38.1259 32.9333C38.1259 33.5555 37.8943 34.0611 37.4696 34.4889C37.0449 34.9166 36.5044 35.15 35.9253 35.15C35.3462 35.15 34.8057 34.9166 34.3811 34.4889C33.9564 34.0611 33.7248 33.5166 33.7248 32.9333C33.7248 32.35 33.9564 31.8055 34.3811 31.3778C34.8057 30.95 35.3462 30.7555 35.9253 30.7555C36.5044 30.7555 37.0449 30.95 37.4696 31.3778C37.8943 31.8055 38.1259 32.3111 38.1259 32.9333ZM36.8133 28.5778H42.1024V24.1833H36.8133V28.5778Z" fill="black"/>
</g>
<defs>
<filter id="filter0_d_8318_7370" x="0" y="0" width="60" height="65" filterUnits="userSpaceOnUse" color-interpolation-filters="sRGB">
<feFlood flood-opacity="0" result="BackgroundImageFix"/>
<feColorMatrix in="SourceAlpha" type="matrix" values="0 0 0 0 0 0 0 0 0 0 0 0 0 0 0 0 0 0 127 0" result="hardAlpha"/>
<feOffset dy="2"/>
<feGaussianBlur stdDeviation="4"/>
<feColorMatrix type="matrix" values="0 0 0 0 0 0 0 0 0 0 0 0 0 0 0 0 0 0 0.16 0"/>
<feBlend mode="normal" in2="BackgroundImageFix" result="effect1_dropShadow_8318_7370"/>
<feBlend mode="normal" in="SourceGraphic" in2="effect1_dropShadow_8318_7370" result="shape"/>
</filter>
</defs>
</svg>
