<svg width="60" height="65" viewBox="0 0 60 65" fill="none" xmlns="http://www.w3.org/2000/svg">
<g filter="url(#filter0_d_8318_7385)">
<mask id="path-1-inside-1_8318_7385" fill="white">
<path fill-rule="evenodd" clip-rule="evenodd" d="M16 8C11.5817 8 8 11.5817 8 16V29.7577V44C8 48.4183 11.5817 52 16 52H19.0486C22.0393 52 24.9778 53.0638 27.0226 55.2462C27.2503 55.4893 27.4744 55.7343 27.6944 55.9815C28.879 57.312 31.1727 57.3473 32.384 56.0382C32.6457 55.7553 32.9126 55.4746 33.184 55.1957C35.2608 53.0621 38.1772 52 41.1547 52H44C48.4183 52 52 48.4183 52 44V29.7577V16C52 11.5817 48.4183 8 44 8H16Z"/>
</mask>
<path fill-rule="evenodd" clip-rule="evenodd" d="M16 8C11.5817 8 8 11.5817 8 16V29.7577V44C8 48.4183 11.5817 52 16 52H19.0486C22.0393 52 24.9778 53.0638 27.0226 55.2462C27.2503 55.4893 27.4744 55.7343 27.6944 55.9815C28.879 57.312 31.1727 57.3473 32.384 56.0382C32.6457 55.7553 32.9126 55.4746 33.184 55.1957C35.2608 53.0621 38.1772 52 41.1547 52H44C48.4183 52 52 48.4183 52 44V29.7577V16C52 11.5817 48.4183 8 44 8H16Z" fill="#551125"/>
<path d="M27.6944 55.9815L26.2005 57.3112L26.2006 57.3114L27.6944 55.9815ZM32.384 56.0382L33.852 57.3965L33.8521 57.3964L32.384 56.0382ZM27.0226 55.2462L25.5631 56.6137L27.0226 55.2462ZM8 16H10C10 12.6863 12.6863 10 16 10V8V6C10.4772 6 6 10.4772 6 16H8ZM8 29.7577H10V16H8H6V29.7577H8ZM8 44H10V29.7577H8H6V44H8ZM16 52V50C12.6863 50 10 47.3137 10 44H8H6C6 49.5228 10.4772 54 16 54V52ZM19.0486 52V50H16V52V54H19.0486V52ZM27.0226 55.2462L25.5631 56.6137C25.7799 56.8451 25.9925 57.0776 26.2005 57.3112L27.6944 55.9815L29.1883 54.6517C28.9563 54.3911 28.7207 54.1335 28.4821 53.8788L27.0226 55.2462ZM27.6944 55.9815L26.2006 57.3114C28.1611 59.5134 31.8291 59.5827 33.852 57.3965L32.384 56.0382L30.916 54.6799C30.5164 55.1118 29.597 55.1107 29.1882 54.6516L27.6944 55.9815ZM32.384 56.0382L33.8521 57.3964C34.1015 57.1269 34.3567 56.8584 34.6172 56.5907L33.184 55.1957L31.7509 53.8008C31.4686 54.0907 31.19 54.3837 30.9159 54.68L32.384 56.0382ZM44 52V50H41.1547V52V54H44V52ZM52 44H50C50 47.3137 47.3137 50 44 50V52V54C49.5228 54 54 49.5228 54 44H52ZM52 29.7577H50V44H52H54V29.7577H52ZM52 16H50V29.7577H52H54V16H52ZM44 8V10C47.3137 10 50 12.6863 50 16H52H54C54 10.4772 49.5228 6 44 6V8ZM16 8V10H44V8V6H16V8ZM33.184 55.1957L34.6172 56.5907C36.2654 54.8974 38.6375 54 41.1547 54V52V50C37.717 50 34.2562 51.2268 31.7509 53.8008L33.184 55.1957ZM19.0486 52V54C21.5852 54 23.9591 54.9017 25.5631 56.6137L27.0226 55.2462L28.4821 53.8788C25.9964 51.2258 22.4933 50 19.0486 50V52Z" fill="white" mask="url(#path-1-inside-1_8318_7385)"/>
<path fill-rule="evenodd" clip-rule="evenodd" d="M17.1689 19.5001C17.1689 18.8561 17.6871 18.3311 18.3311 18.3311H26.892C29.16 18.3311 31.372 19.0661 33.192 20.4311L40.0311 25.5621C41.7951 26.8851 42.8311 28.9571 42.8311 31.1621C42.8311 33.0941 41.2701 34.6621 39.3311 34.6621H18.3311C17.6871 34.6621 17.1689 34.1371 17.1689 33.4931V30.8681H25.3379C25.8209 30.8681 26.2129 30.4761 26.2129 29.9931C26.2129 26.9341 23.7279 24.4491 20.6689 24.4491H17.1689V19.4931V19.5001ZM17.1689 26.2061V29.1251H24.358C23.966 27.4521 22.4609 26.2061 20.6689 26.2061H17.1689ZM38.6311 27.4311C38.8481 27.5921 39.0439 27.7671 39.2189 27.9561H35.8311C33.0941 27.9561 30.875 25.7371 30.875 23.0001V21.7051C31.19 21.8801 31.498 22.0831 31.792 22.3001L38.6311 27.4311Z" fill="white"/>
<path fill-rule="evenodd" clip-rule="evenodd" d="M17.1689 38.169C17.1689 37.525 17.6871 37 18.3311 37H41.6689C42.3129 37 42.8311 37.525 42.8311 38.169C42.8311 38.813 42.3129 39.338 41.6689 39.338H18.3311C17.6871 39.338 17.1689 38.813 17.1689 38.169Z" fill="white"/>
<path fill-rule="evenodd" clip-rule="evenodd" d="M23 37C23.644 37 24.1689 37.525 24.1689 38.169V40.5C24.1689 41.144 23.644 41.669 23 41.669C22.356 41.669 21.8311 41.144 21.8311 40.5V38.169C21.8311 37.525 22.356 37 23 37ZM30 37C30.644 37 31.1689 37.525 31.1689 38.169V40.5C31.1689 41.144 30.644 41.669 30 41.669C29.356 41.669 28.8311 41.144 28.8311 40.5V38.169C28.8311 37.525 29.356 37 30 37ZM37 37C37.644 37 38.1689 37.525 38.1689 38.169V40.5C38.1689 41.144 37.644 41.669 37 41.669C36.356 41.669 35.8311 41.144 35.8311 40.5V38.169C35.8311 37.525 36.356 37 37 37Z" fill="white"/>
</g>
<defs>
<filter id="filter0_d_8318_7385" x="0" y="0" width="60" height="65" filterUnits="userSpaceOnUse" color-interpolation-filters="sRGB">
<feFlood flood-opacity="0" result="BackgroundImageFix"/>
<feColorMatrix in="SourceAlpha" type="matrix" values="0 0 0 0 0 0 0 0 0 0 0 0 0 0 0 0 0 0 127 0" result="hardAlpha"/>
<feOffset/>
<feGaussianBlur stdDeviation="4"/>
<feColorMatrix type="matrix" values="0 0 0 0 0 0 0 0 0 0 0 0 0 0 0 0 0 0 0.23 0"/>
<feBlend mode="normal" in2="BackgroundImageFix" result="effect1_dropShadow_8318_7385"/>
<feBlend mode="normal" in="SourceGraphic" in2="effect1_dropShadow_8318_7385" result="shape"/>
</filter>
</defs>
</svg>
