<svg width="44" height="44" viewBox="0 0 44 44" fill="none" xmlns="http://www.w3.org/2000/svg">
<g filter="url(#filter0_d_8318_7364)">
<g clip-path="url(#clip0_8318_7364)">
<rect x="8" y="8" width="28" height="28" rx="4" fill="#007AB5"/>
<path d="M28.6597 27.4975C28.7148 27.4975 28.77 27.5526 28.8251 27.5802L28.3012 28.2972H28.246C27.8048 28.0766 27.4187 27.8559 26.5914 27.8559C25.7642 27.8559 25.3781 28.049 24.9093 28.2972C24.4405 28.5453 23.889 28.8211 22.8411 28.8211C21.7932 28.8211 21.2417 28.5453 20.7729 28.2972C20.3316 28.0766 19.9456 27.8559 19.0907 27.8559C18.2358 27.8559 17.8774 28.049 17.4361 28.2972C16.9398 28.5453 16.4158 28.8211 15.3679 28.8211C14.32 28.8211 13.7961 28.5453 13.2997 28.2972C13.0515 28.1593 12.8033 28.049 12.5 27.9662L12.7482 27.1114C13.1343 27.2217 13.4376 27.3596 13.7134 27.4975C14.1546 27.7181 14.5406 27.9387 15.3679 27.9387C16.1952 27.9387 16.5813 27.7456 17.0501 27.4975C17.5189 27.2493 18.0704 26.9735 19.1183 26.9735C20.1662 26.9735 20.7177 27.2493 21.1865 27.4975C21.6277 27.7181 22.0138 27.9387 22.8411 27.9387C23.6684 27.9387 24.0544 27.7456 24.5232 27.4975C24.992 27.2493 25.5435 26.9735 26.5914 26.9735C27.6393 26.9735 28.1909 27.2493 28.6597 27.4975Z" fill="white"/>
<path d="M31.307 23.6368H28.4666C28.4666 23.6368 27.2257 18.2594 27.1705 17.9561C27.1154 17.6527 26.8672 17.7079 26.8672 17.7079H25.4332C25.4332 17.7079 25.2402 16.9358 25.1575 16.5221C25.0472 16.0809 24.8541 16.1912 24.8541 16.1912C24.8541 16.1912 22.979 16.9082 22.7308 17.0185C22.4826 17.1288 22.5653 17.4046 22.5653 17.4046V19.0867H16.1952C15.754 19.0867 15.754 19.3349 15.754 19.3349L14.7061 23.6368H14.0167C13.8512 23.6368 13.7409 23.7471 13.7134 23.885L12.9964 26.3668C13.4927 26.5047 13.8512 26.6977 14.1546 26.8356C14.5682 27.0562 14.7888 27.1665 15.3955 27.1665C16.0022 27.1665 16.2228 27.0562 16.6364 26.8356C17.1604 26.5599 17.8774 26.2014 19.1183 26.2014C20.3592 26.2014 21.1038 26.5599 21.6277 26.8356C22.0414 27.0562 22.262 27.1665 22.8687 27.1665C23.4753 27.1665 23.6959 27.0562 24.1096 26.8356C24.6335 26.5599 25.3505 26.2014 26.619 26.2014C27.8875 26.2014 28.6045 26.5599 29.1285 26.8356C29.1836 26.8356 29.3215 26.9184 29.3215 26.9184L31.5 23.9125C31.5 23.9125 31.5 23.8574 31.5 23.8022C31.5 23.6919 31.4173 23.6092 31.307 23.6092V23.6368ZM16.1125 21.541L16.4158 20.2449H19.2286V21.541H16.1125ZM22.7583 21.541H19.6422V20.2449H22.7583V21.541ZM23.2547 21.541V20.2449H26.3708L26.7017 21.541H23.2547Z" fill="white"/>
</g>
<rect x="9" y="9" width="26" height="26" rx="3" stroke="white" stroke-width="2"/>
</g>
<defs>
<filter id="filter0_d_8318_7364" x="0" y="0" width="44" height="44" filterUnits="userSpaceOnUse" color-interpolation-filters="sRGB">
<feFlood flood-opacity="0" result="BackgroundImageFix"/>
<feColorMatrix in="SourceAlpha" type="matrix" values="0 0 0 0 0 0 0 0 0 0 0 0 0 0 0 0 0 0 127 0" result="hardAlpha"/>
<feOffset/>
<feGaussianBlur stdDeviation="4"/>
<feColorMatrix type="matrix" values="0 0 0 0 0 0 0 0 0 0 0 0 0 0 0 0 0 0 0.23 0"/>
<feBlend mode="normal" in2="BackgroundImageFix" result="effect1_dropShadow_8318_7364"/>
<feBlend mode="normal" in="SourceGraphic" in2="effect1_dropShadow_8318_7364" result="shape"/>
</filter>
<clipPath id="clip0_8318_7364">
<rect x="8" y="8" width="28" height="28" rx="4" fill="white"/>
</clipPath>
</defs>
</svg>
