<svg width="44" height="44" viewBox="0 0 44 44" fill="none" xmlns="http://www.w3.org/2000/svg">
<g filter="url(#filter0_d_787_6134)">
<g clip-path="url(#clip0_787_6134)">
<rect x="8" y="6" width="28" height="28" rx="4" fill="#676767"/>
<path fill-rule="evenodd" clip-rule="evenodd" d="M21.6273 11.7545C21.8619 11.6372 22.1381 11.6372 22.3727 11.7545L30.706 15.9211C30.9883 16.0623 31.1667 16.3509 31.1667 16.6665V27.4998C31.1667 27.9601 30.7936 28.3332 30.3333 28.3332C29.8731 28.3332 29.5 27.9601 29.5 27.4998V17.1815L22 13.4315L14.5 17.1815V27.4998C14.5 27.9601 14.1269 28.3332 13.6667 28.3332C13.2064 28.3332 12.8333 27.9601 12.8333 27.4998V16.6665C12.8333 16.3509 13.0117 16.0623 13.294 15.9211L21.6273 11.7545Z" fill="white"/>
<path fill-rule="evenodd" clip-rule="evenodd" d="M18.6667 24.9998C19.1269 24.9998 19.5 25.3729 19.5 25.8332V27.4998C19.5 27.9601 19.1269 28.3332 18.6667 28.3332C18.2064 28.3332 17.8333 27.9601 17.8333 27.4998V25.8332C17.8333 25.3729 18.2064 24.9998 18.6667 24.9998ZM25.3333 24.9998C25.7936 24.9998 26.1667 25.3729 26.1667 25.8332V27.4998C26.1667 27.9601 25.7936 28.3332 25.3333 28.3332C24.8731 28.3332 24.5 27.9601 24.5 27.4998V25.8332C24.5 25.3729 24.8731 24.9998 25.3333 24.9998Z" fill="white"/>
<path fill-rule="evenodd" clip-rule="evenodd" d="M20.3848 19.1665C20.0024 19.1665 19.6691 19.4268 19.5764 19.7978L19.0587 21.8686C18.947 22.3151 18.4946 22.5866 18.0481 22.4749C17.6016 22.3633 17.3301 21.9109 17.4418 21.4644L17.9595 19.3935C18.2377 18.2806 19.2377 17.4998 20.3848 17.4998H23.6156C24.7628 17.4998 25.7627 18.2806 26.0409 19.3935L26.5587 21.4644C26.6703 21.9109 26.3988 22.3633 25.9523 22.4749C25.5058 22.5866 25.0533 22.3151 24.9418 21.8686L24.424 19.7978C24.3313 19.4268 23.998 19.1665 23.6156 19.1665H20.3848Z" fill="white"/>
<path fill-rule="evenodd" clip-rule="evenodd" d="M18.6667 20.8332C17.286 20.8332 16.1667 21.9524 16.1667 23.3332V24.1665C16.1667 25.5473 17.286 26.6665 18.6667 26.6665H25.3333C26.7141 26.6665 27.8333 25.5473 27.8333 24.1665V23.3332C27.8333 21.9524 26.7141 20.8332 25.3333 20.8332H18.6667ZM20.3333 23.7498C20.3333 23.2896 19.9602 22.9165 19.5 22.9165C19.0398 22.9165 18.6667 23.2896 18.6667 23.7498V23.7582C18.6667 24.2184 19.0398 24.5915 19.5 24.5915C19.9602 24.5915 20.3333 24.2184 20.3333 23.7582V23.7498ZM25.3333 23.7498C25.3333 23.2896 24.9603 22.9165 24.5 22.9165C24.0398 22.9165 23.6667 23.2896 23.6667 23.7498V23.7582C23.6667 24.2184 24.0398 24.5915 24.5 24.5915C24.9603 24.5915 25.3333 24.2184 25.3333 23.7582V23.7498Z" fill="white"/>
</g>
<rect x="9" y="7" width="26" height="26" rx="3" stroke="white" stroke-width="2"/>
</g>
<defs>
<filter id="filter0_d_787_6134" x="0" y="0" width="44" height="44" filterUnits="userSpaceOnUse" color-interpolation-filters="sRGB">
<feFlood flood-opacity="0" result="BackgroundImageFix"/>
<feColorMatrix in="SourceAlpha" type="matrix" values="0 0 0 0 0 0 0 0 0 0 0 0 0 0 0 0 0 0 127 0" result="hardAlpha"/>
<feOffset dy="2"/>
<feGaussianBlur stdDeviation="4"/>
<feColorMatrix type="matrix" values="0 0 0 0 0 0 0 0 0 0 0 0 0 0 0 0 0 0 0.16 0"/>
<feBlend mode="normal" in2="BackgroundImageFix" result="effect1_dropShadow_787_6134"/>
<feBlend mode="normal" in="SourceGraphic" in2="effect1_dropShadow_787_6134" result="shape"/>
</filter>
<clipPath id="clip0_787_6134">
<rect x="8" y="6" width="28" height="28" rx="4" fill="white"/>
</clipPath>
</defs>
</svg>
