<svg width="102" height="65" viewBox="0 0 102 65" fill="none" xmlns="http://www.w3.org/2000/svg">
<g filter="url(#filter0_d_896_7250)">
<mask id="path-1-inside-1_896_7250" fill="white">
<path fill-rule="evenodd" clip-rule="evenodd" d="M16 6C11.5817 6 8 9.58172 8 14V42C8 46.4183 11.5817 50 16 50H40.0486C43.0393 50 45.9778 51.0638 48.0226 53.2462C48.2503 53.4893 48.4744 53.7343 48.6944 53.9815C49.879 55.312 52.1727 55.3473 53.384 54.0382C53.6458 53.7553 53.9126 53.4746 54.184 53.1957C56.2608 51.0621 59.1772 50 62.1547 50H86C90.4183 50 94 46.4183 94 42V14C94 9.58172 90.4183 6 86 6H16Z"/>
</mask>
<path fill-rule="evenodd" clip-rule="evenodd" d="M16 6C11.5817 6 8 9.58172 8 14V42C8 46.4183 11.5817 50 16 50H40.0486C43.0393 50 45.9778 51.0638 48.0226 53.2462C48.2503 53.4893 48.4744 53.7343 48.6944 53.9815C49.879 55.312 52.1727 55.3473 53.384 54.0382C53.6458 53.7553 53.9126 53.4746 54.184 53.1957C56.2608 51.0621 59.1772 50 62.1547 50H86C90.4183 50 94 46.4183 94 42V14C94 9.58172 90.4183 6 86 6H16Z" fill="white"/>
<path d="M48.6944 53.9815L47.2005 55.3112L47.2006 55.3114L48.6944 53.9815ZM53.384 54.0382L54.852 55.3965L54.8521 55.3964L53.384 54.0382ZM54.184 53.1957L52.7509 51.8008L54.184 53.1957ZM48.0226 53.2462L49.4821 51.8788L48.0226 53.2462ZM10 14C10 10.6863 12.6863 8 16 8V4C10.4772 4 6 8.47715 6 14H10ZM10 42V14H6V42H10ZM16 48C12.6863 48 10 45.3137 10 42H6C6 47.5228 10.4772 52 16 52V48ZM40.0486 48H16V52H40.0486V48ZM46.5631 54.6137C46.7799 54.8451 46.9925 55.0776 47.2005 55.3112L50.1883 52.6517C49.9563 52.3911 49.7207 52.1335 49.4821 51.8788L46.5631 54.6137ZM47.2006 55.3114C49.1611 57.5134 52.8291 57.5827 54.852 55.3965L51.9161 52.6799C51.5164 53.1118 50.597 53.1107 50.1882 52.6515L47.2006 55.3114ZM54.8521 55.3964C55.1015 55.1269 55.3567 54.8584 55.6172 54.5907L52.7509 51.8008C52.4686 52.0907 52.19 52.3837 51.916 52.68L54.8521 55.3964ZM86 48H62.1547V52H86V48ZM92 42C92 45.3137 89.3137 48 86 48V52C91.5229 52 96 47.5228 96 42H92ZM92 14V42H96V14H92ZM86 8C89.3137 8 92 10.6863 92 14H96C96 8.47715 91.5229 4 86 4V8ZM16 8H86V4H16V8ZM55.6172 54.5907C57.2654 52.8974 59.6375 52 62.1547 52V48C58.717 48 55.2562 49.2268 52.7509 51.8008L55.6172 54.5907ZM40.0486 52C42.5852 52 44.9591 52.9017 46.5631 54.6137L49.4821 51.8788C46.9964 49.2258 43.4933 48 40.0486 48V52Z" fill="white" mask="url(#path-1-inside-1_896_7250)"/>
<rect x="10" y="8" width="40" height="40" rx="6" fill="#82B962"/>
<path d="M41.2 31.57C41.2 31.8647 41.0374 32.0285 40.7448 32.0285H37.3637V31.7337C37.3637 31.0788 37.1361 30.4893 36.6485 30.0308C36.1933 29.5723 35.6081 29.3103 34.9579 29.3103C34.3077 29.3103 33.69 29.5396 33.2348 30.0308C32.7797 30.4893 32.5196 31.0788 32.5196 31.7337C32.5196 32.3887 32.5196 31.832 32.5196 31.8647V31.9957H27.4154V31.701C27.4154 31.046 27.1878 30.4565 26.7326 29.9981C26.2775 29.5396 25.6923 29.2776 25.0096 29.2776C24.3268 29.2776 23.7416 29.5068 23.2865 29.9981C22.8313 30.4565 22.6038 31.046 22.6038 31.701V31.9957H19.2551C19.1251 31.9957 19.0276 31.9957 18.93 31.8647C18.8325 31.7665 18.8 31.6682 18.8 31.5372V22.8589C18.8 22.7279 18.8325 22.6296 18.93 22.5314C19.0276 22.4331 19.1251 22.4004 19.2551 22.4004H40.6798C40.8099 22.4004 40.9074 22.4004 41.0049 22.5314C41.1025 22.6296 41.135 22.7279 41.135 22.8589H41.2V31.57ZM19.8728 28.0659H24.3268V24.3653H19.8728V28.0659ZM26.9277 31.7337C26.9277 32.2577 26.7326 32.6834 26.375 33.0437C26.0174 33.4039 25.5623 33.6004 25.0746 33.6004C24.5869 33.6004 24.1318 33.4039 23.7742 33.0437C23.4165 32.6834 23.2215 32.225 23.2215 31.7337C23.2215 31.2425 23.4165 30.784 23.7742 30.4238C24.1318 30.0635 24.5869 29.8998 25.0746 29.8998C25.5623 29.8998 26.0174 30.0635 26.375 30.4238C26.7326 30.784 26.9277 31.2097 26.9277 31.7337ZM25.1396 28.0659H29.5936V24.3653H25.1396V28.0659ZM30.4389 28.0659H34.9254V24.3653H30.4389V28.0659ZM36.8435 31.7337C36.8435 32.2577 36.6485 32.6834 36.2908 33.0437C35.9332 33.4039 35.4781 33.6004 34.9904 33.6004C34.5027 33.6004 34.0476 33.4039 33.69 33.0437C33.3324 32.6834 33.1373 32.225 33.1373 31.7337C33.1373 31.2425 33.3324 30.784 33.69 30.4238C34.0476 30.0635 34.5027 29.8998 34.9904 29.8998C35.4781 29.8998 35.9332 30.0635 36.2908 30.4238C36.6485 30.784 36.8435 31.2097 36.8435 31.7337ZM35.7382 28.0659H40.1922V24.3653H35.7382V28.0659Z" fill="black"/>
<rect x="52" y="8" width="40" height="40" rx="6" fill="#82B962"/>
<path fill-rule="evenodd" clip-rule="evenodd" d="M59.4 24.3258C59.4 23.166 60.3402 22.2258 61.5 22.2258H79C82.4794 22.2258 85.3 25.0464 85.3 28.5258V32.7258C85.3 33.8856 84.3645 34.8258 83.2047 34.8258C76.3612 34.8258 63.383 34.8258 61.5 34.8258C60.3402 34.8258 59.4 33.8856 59.4 32.7258V24.3258ZM61.5 25.0258C61.5 24.6392 61.8134 24.3258 62.2 24.3258H64.297C64.6836 24.3258 64.997 24.6392 64.997 25.0258V28.5258C64.997 28.9124 64.6836 29.2258 64.297 29.2258H62.2C61.85 29.2258 61.5 28.8758 61.5 28.5258V25.0258ZM67.1076 24.3258C66.721 24.3258 66.4076 24.6392 66.4076 25.0258L66.4 28.5258C66.4 28.8758 66.75 29.2258 67.1 29.2258H69.9076C70.2942 29.2258 70.6076 28.9124 70.6076 28.5258V25.0258C70.6076 24.6392 70.2942 24.3258 69.9076 24.3258H67.1076ZM72.0181 25.0258C72.0181 24.6392 72.3315 24.3258 72.7181 24.3258H75.5181C75.9047 24.3258 76.2181 24.6392 76.2181 25.0258V28.5258C76.2181 28.9124 75.9047 29.2258 75.5181 29.2258H73.4181C72.6449 29.2258 72 29.299 72 28.5258L72.0181 25.0258ZM78.3286 24.3258C77.942 24.3258 77.6286 24.6392 77.6286 25.0258V28.5258C77.6286 28.9124 77.942 29.2258 78.3286 29.2258H82.5286C82.9152 29.2258 83.2286 28.9124 83.2286 28.5258C83.2286 26.2062 81.3482 24.3258 79.0286 24.3258H78.3286Z" fill="black"/>
<path fill-rule="evenodd" clip-rule="evenodd" d="M59.925 36.9258C59.925 36.4425 60.3167 36.0508 60.8 36.0508L83.9 36.0508C84.3832 36.0508 84.775 36.4425 84.775 36.9258C84.775 37.409 84.3832 37.8008 83.9 37.8008L60.8 37.8008C60.3167 37.8008 59.925 37.409 59.925 36.9258Z" fill="black"/>
<path fill-rule="evenodd" clip-rule="evenodd" d="M68.325 19.4258C68.325 18.9425 68.7167 18.5508 69.2 18.5508H74.8C75.1455 18.5508 75.4587 18.7541 75.5993 19.0698C75.7399 19.3855 75.6815 19.7543 75.4504 20.0111L72.3004 23.5111C71.9771 23.8703 71.4238 23.8994 71.0646 23.5762C70.7055 23.2529 70.6763 22.6996 70.9996 22.3404L72.8353 20.3008H69.2C68.7167 20.3008 68.325 19.909 68.325 19.4258Z" fill="black"/>
</g>
<defs>
<filter id="filter0_d_896_7250" x="0" y="0" width="102" height="65" filterUnits="userSpaceOnUse" color-interpolation-filters="sRGB">
<feFlood flood-opacity="0" result="BackgroundImageFix"/>
<feColorMatrix in="SourceAlpha" type="matrix" values="0 0 0 0 0 0 0 0 0 0 0 0 0 0 0 0 0 0 127 0" result="hardAlpha"/>
<feOffset dy="2"/>
<feGaussianBlur stdDeviation="4"/>
<feColorMatrix type="matrix" values="0 0 0 0 0 0 0 0 0 0 0 0 0 0 0 0 0 0 0.16 0"/>
<feBlend mode="normal" in2="BackgroundImageFix" result="effect1_dropShadow_896_7250"/>
<feBlend mode="normal" in="SourceGraphic" in2="effect1_dropShadow_896_7250" result="shape"/>
</filter>
</defs>
</svg>
