<svg width="102" height="65" viewBox="0 0 102 65" fill="none" xmlns="http://www.w3.org/2000/svg">
<g filter="url(#filter0_d_8318_7432)">
<mask id="path-1-inside-1_8318_7432" fill="white">
<path fill-rule="evenodd" clip-rule="evenodd" d="M16 8C11.5817 8 8 11.5817 8 16V44C8 48.4183 11.5817 52 16 52H40.0486C43.0393 52 45.9778 53.0638 48.0226 55.2462C48.2503 55.4893 48.4744 55.7343 48.6944 55.9815C49.879 57.312 52.1727 57.3473 53.384 56.0382C53.6458 55.7553 53.9126 55.4746 54.184 55.1957C56.2608 53.0621 59.1772 52 62.1547 52H86C90.4183 52 94 48.4183 94 44V16C94 11.5817 90.4183 8 86 8H16Z"/>
</mask>
<path fill-rule="evenodd" clip-rule="evenodd" d="M16 8C11.5817 8 8 11.5817 8 16V44C8 48.4183 11.5817 52 16 52H40.0486C43.0393 52 45.9778 53.0638 48.0226 55.2462C48.2503 55.4893 48.4744 55.7343 48.6944 55.9815C49.879 57.312 52.1727 57.3473 53.384 56.0382C53.6458 55.7553 53.9126 55.4746 54.184 55.1957C56.2608 53.0621 59.1772 52 62.1547 52H86C90.4183 52 94 48.4183 94 44V16C94 11.5817 90.4183 8 86 8H16Z" fill="white"/>
<path d="M48.6944 55.9815L47.2005 57.3112L47.2006 57.3114L48.6944 55.9815ZM53.384 56.0382L54.852 57.3965L54.8521 57.3964L53.384 56.0382ZM54.184 55.1957L52.7509 53.8008L54.184 55.1957ZM48.0226 55.2462L49.4821 53.8788L48.0226 55.2462ZM8 16H10C10 12.6863 12.6863 10 16 10V8V6C10.4772 6 6 10.4772 6 16H8ZM8 44H10V16H8H6V44H8ZM16 52V50C12.6863 50 10 47.3137 10 44H8H6C6 49.5228 10.4772 54 16 54V52ZM40.0486 52V50H16V52V54H40.0486V52ZM48.0226 55.2462L46.5631 56.6137C46.7799 56.8451 46.9925 57.0776 47.2005 57.3112L48.6944 55.9815L50.1883 54.6517C49.9563 54.3911 49.7207 54.1335 49.4821 53.8788L48.0226 55.2462ZM48.6944 55.9815L47.2006 57.3114C49.1611 59.5134 52.8291 59.5827 54.852 57.3965L53.384 56.0382L51.916 54.6799C51.5164 55.1118 50.597 55.1107 50.1882 54.6515L48.6944 55.9815ZM53.384 56.0382L54.8521 57.3964C55.1015 57.1269 55.3567 56.8584 55.6172 56.5907L54.184 55.1957L52.7509 53.8008C52.4686 54.0907 52.19 54.3837 51.916 54.68L53.384 56.0382ZM86 52V50H62.1547V52V54H86V52ZM94 44H92C92 47.3137 89.3137 50 86 50V52V54C91.5229 54 96 49.5228 96 44H94ZM94 16H92V44H94H96V16H94ZM86 8V10C89.3137 10 92 12.6863 92 16H94H96C96 10.4772 91.5229 6 86 6V8ZM16 8V10H86V8V6H16V8ZM54.184 55.1957L55.6172 56.5907C57.2654 54.8974 59.6375 54 62.1547 54V52V50C58.717 50 55.2562 51.2268 52.7509 53.8008L54.184 55.1957ZM40.0486 52V54C42.5852 54 44.9591 54.9017 46.5631 56.6137L48.0226 55.2462L49.4821 53.8788C46.9964 51.2258 43.4933 50 40.0486 50V52Z" fill="white" mask="url(#path-1-inside-1_8318_7432)"/>
<rect x="10" y="10" width="40" height="40" rx="6" fill="#82B962"/>
<path d="M43.3002 34.7389C43.3002 35.0889 43.1072 35.2833 42.7597 35.2833H38.7446V34.9333C38.7446 34.1555 38.4744 33.4555 37.8953 32.9111C37.3548 32.3666 36.6598 32.0555 35.8877 32.0555C35.1156 32.0555 34.3821 32.3278 33.8416 32.9111C33.3011 33.4555 32.9922 34.1555 32.9922 34.9333C32.9922 35.7111 32.9922 35.05 32.9922 35.0889V35.2444H26.931V34.8944C26.931 34.1166 26.6607 33.4166 26.1202 32.8722C25.5797 32.3278 24.8848 32.0166 24.0741 32.0166C23.2633 32.0166 22.5684 32.2889 22.0279 32.8722C21.4874 33.4166 21.2172 34.1166 21.2172 34.8944V35.2444H17.2407C17.0863 35.2444 16.9704 35.2444 16.8546 35.0889C16.7388 34.9722 16.7002 34.8555 16.7002 34.7V24.3944C16.7002 24.2389 16.7388 24.1222 16.8546 24.0055C16.9704 23.8889 17.0863 23.85 17.2407 23.85H42.6825C42.8369 23.85 42.9527 23.85 43.0686 24.0055C43.1844 24.1222 43.223 24.2389 43.223 24.3944H43.3002V34.7389ZM17.9742 30.5778H23.2633V26.1833H17.9742V30.5778ZM26.3519 34.9333C26.3519 35.5555 26.1202 36.0611 25.6955 36.4889C25.2709 36.9166 24.7304 37.15 24.1513 37.15C23.5722 37.15 23.0317 36.9166 22.607 36.4889C22.1823 36.0611 21.9507 35.5166 21.9507 34.9333C21.9507 34.35 22.1823 33.8055 22.607 33.3778C23.0317 32.95 23.5722 32.7555 24.1513 32.7555C24.7304 32.7555 25.2709 32.95 25.6955 33.3778C26.1202 33.8055 26.3519 34.3111 26.3519 34.9333ZM24.2285 30.5778H29.5176V26.1833H24.2285V30.5778ZM30.5214 30.5778H35.8491V26.1833H30.5214V30.5778ZM38.1269 34.9333C38.1269 35.5555 37.8953 36.0611 37.4706 36.4889C37.0459 36.9166 36.5054 37.15 35.9263 37.15C35.3472 37.15 34.8067 36.9166 34.3821 36.4889C33.9574 36.0611 33.7257 35.5166 33.7257 34.9333C33.7257 34.35 33.9574 33.8055 34.3821 33.3778C34.8067 32.95 35.3472 32.7555 35.9263 32.7555C36.5054 32.7555 37.0459 32.95 37.4706 33.3778C37.8953 33.8055 38.1269 34.3111 38.1269 34.9333ZM36.8143 30.5778H42.1034V26.1833H36.8143V30.5778Z" fill="black"/>
<rect x="52" y="10" width="40" height="40" rx="6" fill="#82B962"/>
<path fill-rule="evenodd" clip-rule="evenodd" d="M59.4004 26.325C59.4004 25.1652 60.3406 24.225 61.5004 24.225H79.0004C82.4798 24.225 85.3004 27.0456 85.3004 30.525V34.725C85.3004 35.8848 84.3649 36.825 83.2051 36.825C76.3616 36.825 63.3834 36.825 61.5004 36.825C60.3406 36.825 59.4004 35.8848 59.4004 34.725V26.325ZM61.5004 27.025C61.5004 26.6385 61.8138 26.325 62.2004 26.325H64.2974C64.684 26.325 64.9974 26.6385 64.9974 27.025V30.525C64.9974 30.9116 64.684 31.225 64.2974 31.225H62.2004C61.8504 31.225 61.5004 30.875 61.5004 30.525V27.025ZM67.108 26.325C66.7214 26.325 66.408 26.6385 66.408 27.025L66.4004 30.525C66.4004 30.875 66.7504 31.225 67.1004 31.225H69.908C70.2946 31.225 70.608 30.9116 70.608 30.525V27.025C70.608 26.6385 70.2946 26.325 69.908 26.325H67.108ZM72.0185 27.025C72.0185 26.6385 72.3319 26.325 72.7185 26.325H75.5185C75.9051 26.325 76.2185 26.6385 76.2185 27.025V30.525C76.2185 30.9116 75.9051 31.225 75.5185 31.225H73.4185C72.6453 31.225 72.0004 31.2983 72.0004 30.525L72.0185 27.025ZM78.329 26.325C77.9424 26.325 77.629 26.6385 77.629 27.025V30.525C77.629 30.9116 77.9424 31.225 78.329 31.225H82.529C82.9156 31.225 83.229 30.9116 83.229 30.525C83.229 28.2054 81.3486 26.325 79.029 26.325H78.329Z" fill="black"/>
<path fill-rule="evenodd" clip-rule="evenodd" d="M59.9254 38.925C59.9254 38.4418 60.3171 38.05 60.8004 38.05L83.9004 38.05C84.3836 38.05 84.7754 38.4418 84.7754 38.925C84.7754 39.4083 84.3836 39.8 83.9004 39.8L60.8004 39.8C60.3171 39.8 59.9254 39.4083 59.9254 38.925Z" fill="black"/>
<path fill-rule="evenodd" clip-rule="evenodd" d="M68.3254 21.425C68.3254 20.9418 68.7171 20.55 69.2004 20.55H74.8004C75.1459 20.55 75.4591 20.7534 75.5997 21.0691C75.7403 21.3847 75.6819 21.7535 75.4508 22.0104L72.3008 25.5104C71.9775 25.8696 71.4242 25.8987 71.065 25.5754C70.7058 25.2522 70.6767 24.6989 71 24.3397L72.8357 22.3H69.2004C68.7171 22.3 68.3254 21.9083 68.3254 21.425Z" fill="black"/>
</g>
<defs>
<filter id="filter0_d_8318_7432" x="0" y="0" width="102" height="65" filterUnits="userSpaceOnUse" color-interpolation-filters="sRGB">
<feFlood flood-opacity="0" result="BackgroundImageFix"/>
<feColorMatrix in="SourceAlpha" type="matrix" values="0 0 0 0 0 0 0 0 0 0 0 0 0 0 0 0 0 0 127 0" result="hardAlpha"/>
<feOffset/>
<feGaussianBlur stdDeviation="4"/>
<feColorMatrix type="matrix" values="0 0 0 0 0 0 0 0 0 0 0 0 0 0 0 0 0 0 0.23 0"/>
<feBlend mode="normal" in2="BackgroundImageFix" result="effect1_dropShadow_8318_7432"/>
<feBlend mode="normal" in="SourceGraphic" in2="effect1_dropShadow_8318_7432" result="shape"/>
</filter>
</defs>
</svg>
