<svg width="48" height="48" viewBox="0 0 48 48" fill="none" xmlns="http://www.w3.org/2000/svg">
<g filter="url(#filter0_d_10646_5065)">
<g clip-path="url(#clip0_10646_5065)">
<path d="M8 24C8 15.1634 15.1634 8 24 8C32.8366 8 40 15.1634 40 24C40 32.8366 32.8366 40 24 40C15.1634 40 8 32.8366 8 24Z" fill="white"/>
<path d="M24 9C32.2843 9 39 15.7157 39 24C39 32.2843 32.2843 39 24 39C15.7157 39 9 32.2843 9 24C9 15.7157 15.7157 9 24 9Z" fill="#AA8892"/>
<path d="M24 9C32.2843 9 39 15.7157 39 24C39 32.2843 32.2843 39 24 39C15.7157 39 9 32.2843 9 24C9 15.7157 15.7157 9 24 9Z" stroke="white" stroke-width="2"/>
<path d="M19.835 30.3551C20.985 30.3551 21.915 29.4201 21.915 28.2701C21.915 27.1201 20.985 26.1851 19.835 26.1851C18.685 26.1851 17.75 27.1201 17.75 28.2701C17.75 29.4201 18.685 30.3551 19.835 30.3551Z" fill="black"/>
<path d="M28.165 30.3551C29.315 30.3551 30.25 29.4201 30.25 28.2701C30.25 27.1201 29.315 26.1851 28.165 26.1851C27.015 26.1851 26.085 27.1201 26.085 28.2701C26.085 29.4201 27.015 30.3551 28.165 30.3551Z" fill="black"/>
<path fill-rule="evenodd" clip-rule="evenodd" d="M15.04 22.4351C15.04 22.0901 15.32 21.8101 15.665 21.8101H29C29.345 21.8101 29.625 22.0901 29.625 22.4351C29.625 22.7801 29.345 23.0601 29 23.0601H15.665C15.32 23.0601 15.04 22.7801 15.04 22.4351Z" fill="black"/>
<path fill-rule="evenodd" clip-rule="evenodd" d="M21.5 17.645C21.845 17.645 22.125 17.925 22.125 18.27V22.435C22.125 22.78 21.845 23.06 21.5 23.06C21.155 23.06 20.875 22.78 20.875 22.435V18.27C20.875 17.925 21.155 17.645 21.5 17.645Z" fill="black"/>
<path fill-rule="evenodd" clip-rule="evenodd" d="M15.04 18.27C15.04 17.925 15.32 17.645 15.665 17.645H25.2151C25.9651 17.645 26.665 18.01 27.095 18.625L29.4199 21.95L31.6899 23.085C32.4699 23.475 32.96 24.265 32.96 25.135V27.44C32.96 28.245 32.305 28.9 31.5 28.9H31.27C31.31 28.7 31.335 28.49 31.335 28.275C31.335 26.525 29.915 25.11 28.165 25.11C26.415 25.11 25 26.53 25 28.275C25 28.49 25.0201 28.7 25.0601 28.9H22.9399C22.9799 28.7 23 28.49 23 28.275C23 26.525 21.58 25.11 19.835 25.11C18.09 25.11 16.665 26.53 16.665 28.275C16.665 28.4 16.6749 28.53 16.6899 28.65L15.8501 28.23C15.3551 27.985 15.04 27.48 15.04 26.925V22.025C15.04 21.94 15.06 21.85 15.095 21.77L16.3701 18.9H15.665C15.32 18.9 15.04 18.62 15.04 18.275V18.27ZM17.74 18.895L16.4451 21.81H20.875V18.895H17.74ZM22.125 18.895V21.81H27.8L26.0701 19.34C25.8751 19.06 25.5551 18.895 25.2151 18.895H22.125Z" fill="black"/>
</g>
<path d="M24 9C32.2843 9 39 15.7157 39 24C39 32.2843 32.2843 39 24 39C15.7157 39 9 32.2843 9 24C9 15.7157 15.7157 9 24 9Z" stroke="white" stroke-width="2"/>
</g>
<defs>
<filter id="filter0_d_10646_5065" x="0" y="0" width="48" height="48" filterUnits="userSpaceOnUse" color-interpolation-filters="sRGB">
<feFlood flood-opacity="0" result="BackgroundImageFix"/>
<feColorMatrix in="SourceAlpha" type="matrix" values="0 0 0 0 0 0 0 0 0 0 0 0 0 0 0 0 0 0 127 0" result="hardAlpha"/>
<feOffset/>
<feGaussianBlur stdDeviation="4"/>
<feColorMatrix type="matrix" values="0 0 0 0 0 0 0 0 0 0 0 0 0 0 0 0 0 0 0.23 0"/>
<feBlend mode="normal" in2="BackgroundImageFix" result="effect1_dropShadow_10646_5065"/>
<feBlend mode="normal" in="SourceGraphic" in2="effect1_dropShadow_10646_5065" result="shape"/>
</filter>
<clipPath id="clip0_10646_5065">
<path d="M8 24C8 15.1634 15.1634 8 24 8C32.8366 8 40 15.1634 40 24C40 32.8366 32.8366 40 24 40C15.1634 40 8 32.8366 8 24Z" fill="white"/>
</clipPath>
</defs>
</svg>
