<svg width="56" height="56" viewBox="0 0 56 56" fill="none" xmlns="http://www.w3.org/2000/svg">
<g filter="url(#filter0_d_8318_7158)">
<g clip-path="url(#clip0_8318_7158)">
<rect x="10" y="8" width="36" height="36" rx="18" fill="#5B0C0E"/>
<path fill-rule="evenodd" clip-rule="evenodd" d="M20.7061 27.1662C18.7741 27.1662 17.2061 28.7342 17.2061 30.6662C17.2061 32.5982 18.7741 34.1662 20.7061 34.1662C22.6381 34.1662 24.2061 32.5982 24.2061 30.6662C24.2061 28.7342 22.6381 27.1662 20.7061 27.1662ZM14.875 30.6662C14.875 27.4462 17.4861 24.8352 20.7061 24.8352C23.9261 24.8352 26.5371 27.4462 26.5371 30.6662C26.5371 33.8862 23.9261 36.4972 20.7061 36.4972C17.4861 36.4972 14.875 33.8862 14.875 30.6662Z" fill="white"/>
<path fill-rule="evenodd" clip-rule="evenodd" d="M35.2871 27.1662C33.3551 27.1662 31.7871 28.7342 31.7871 30.6662C31.7871 32.5982 33.3551 34.1662 35.2871 34.1662C37.2191 34.1662 38.7871 32.5982 38.7871 30.6662C38.7871 28.7342 37.2261 27.1662 35.2871 27.1662ZM29.4561 30.6662C29.4561 27.4462 32.0671 24.8352 35.2871 24.8352C38.5071 24.8352 41.125 27.4462 41.125 30.6662C41.125 33.8862 38.5071 36.4972 35.2871 36.4972C32.0671 36.4972 29.4561 33.8862 29.4561 30.6662Z" fill="white"/>
<path fill-rule="evenodd" clip-rule="evenodd" d="M32.9909 20.3481C33.5369 20.6911 33.7051 21.4121 33.3621 21.9581L27.5311 31.2891C27.3141 31.6321 26.9431 31.8351 26.5371 31.8351H20.7061C20.0621 31.8351 19.5371 31.3101 19.5371 30.6661C19.5371 30.0221 20.0621 29.4971 20.7061 29.4971H25.8932L31.3811 20.7191C31.7241 20.1731 32.4449 20.0051 32.9909 20.3481Z" fill="white"/>
<path fill-rule="evenodd" clip-rule="evenodd" d="M18.375 20.1663C18.375 19.5223 18.8931 18.9973 19.5371 18.9973H25.375C26.019 18.9973 26.5371 19.5223 26.5371 20.1663C26.5371 20.8103 26.019 21.3353 25.375 21.3353H24.3879L29.1833 26.9913C29.5963 27.4813 29.5332 28.2163 29.0432 28.6363C28.5532 29.0493 27.8178 28.9933 27.3978 28.4963L21.3288 21.3283H19.5371C18.8931 21.3283 18.375 20.8033 18.375 20.1593V20.1663Z" fill="white"/>
<path fill-rule="evenodd" clip-rule="evenodd" d="M32.7879 17.9054C33.3059 17.9334 33.8028 17.9894 34.2788 18.1154C35.1258 18.3394 35.6649 18.7384 35.9099 19.5784C36.0849 20.1944 36.7362 20.5584 37.3522 20.3764C37.9752 20.2014 38.332 19.5504 38.15 18.9344C37.618 17.0724 36.2461 16.2254 34.8811 15.8614C33.8661 15.5884 32.7178 15.5534 31.8568 15.5254C31.6468 15.5254 31.4581 15.5114 31.2901 15.5044C30.4431 15.4624 29.8762 16.2674 30.0932 17.0094L34.1674 30.9954C34.3494 31.6114 34.9999 31.9684 35.6159 31.7864C36.2319 31.6044 36.5888 30.9604 36.4068 30.3374L32.7879 17.8984V17.9054Z" fill="white"/>
</g>
<rect x="9" y="7" width="38" height="38" rx="19" stroke="white" stroke-width="2"/>
</g>
<defs>
<filter id="filter0_d_8318_7158" x="0" y="0" width="56" height="56" filterUnits="userSpaceOnUse" color-interpolation-filters="sRGB">
<feFlood flood-opacity="0" result="BackgroundImageFix"/>
<feColorMatrix in="SourceAlpha" type="matrix" values="0 0 0 0 0 0 0 0 0 0 0 0 0 0 0 0 0 0 127 0" result="hardAlpha"/>
<feOffset dy="2"/>
<feGaussianBlur stdDeviation="4"/>
<feColorMatrix type="matrix" values="0 0 0 0 0 0 0 0 0 0 0 0 0 0 0 0 0 0 0.16 0"/>
<feBlend mode="normal" in2="BackgroundImageFix" result="effect1_dropShadow_8318_7158"/>
<feBlend mode="normal" in="SourceGraphic" in2="effect1_dropShadow_8318_7158" result="shape"/>
</filter>
<clipPath id="clip0_8318_7158">
<rect x="10" y="8" width="36" height="36" rx="18" fill="white"/>
</clipPath>
</defs>
</svg>
