<svg width="64" height="64" viewBox="0 0 64 64" fill="none" xmlns="http://www.w3.org/2000/svg">
<g filter="url(#filter0_d_10364_4612)">
<path d="M10 30C10 17.8497 19.8497 8 32 8C44.1503 8 54 17.8497 54 30C54 42.1503 44.1503 52 32 52C19.8497 52 10 42.1503 10 30Z" fill="#676767"/>
<path d="M32 7C44.7025 7 55 17.2975 55 30C55 42.7025 44.7025 53 32 53C19.2975 53 9 42.7025 9 30C9 17.2975 19.2975 7 32 7Z" stroke="white" stroke-width="2"/>
<path fill-rule="evenodd" clip-rule="evenodd" d="M19.1689 19.5001C19.1689 18.8561 19.6871 18.3311 20.3311 18.3311H28.892C31.16 18.3311 33.372 19.0661 35.192 20.4311L42.0311 25.5621C43.7951 26.8851 44.8311 28.9571 44.8311 31.1621C44.8311 33.0941 43.2701 34.6621 41.3311 34.6621H20.3311C19.6871 34.6621 19.1689 34.1371 19.1689 33.4931V30.8681H27.3379C27.8209 30.8681 28.2129 30.4761 28.2129 29.9931C28.2129 26.9341 25.7279 24.4491 22.6689 24.4491H19.1689V19.4931V19.5001ZM19.1689 26.2061V29.1251H26.358C25.966 27.4521 24.4609 26.2061 22.6689 26.2061H19.1689ZM40.6311 27.4311C40.8481 27.5921 41.0439 27.7671 41.2189 27.9561H37.8311C35.0941 27.9561 32.875 25.7371 32.875 23.0001V21.7051C33.19 21.8801 33.498 22.0831 33.792 22.3001L40.6311 27.4311Z" fill="white"/>
<path fill-rule="evenodd" clip-rule="evenodd" d="M19.1689 38.169C19.1689 37.525 19.6871 37 20.3311 37H43.6689C44.3129 37 44.8311 37.525 44.8311 38.169C44.8311 38.813 44.3129 39.338 43.6689 39.338H20.3311C19.6871 39.338 19.1689 38.813 19.1689 38.169Z" fill="white"/>
<path fill-rule="evenodd" clip-rule="evenodd" d="M25 37C25.644 37 26.1689 37.525 26.1689 38.169V40.5C26.1689 41.144 25.644 41.669 25 41.669C24.356 41.669 23.8311 41.144 23.8311 40.5V38.169C23.8311 37.525 24.356 37 25 37ZM32 37C32.644 37 33.1689 37.525 33.1689 38.169V40.5C33.1689 41.144 32.644 41.669 32 41.669C31.356 41.669 30.8311 41.144 30.8311 40.5V38.169C30.8311 37.525 31.356 37 32 37ZM39 37C39.644 37 40.1689 37.525 40.1689 38.169V40.5C40.1689 41.144 39.644 41.669 39 41.669C38.356 41.669 37.8311 41.144 37.8311 40.5V38.169C37.8311 37.525 38.356 37 39 37Z" fill="white"/>
</g>
<defs>
<filter id="filter0_d_10364_4612" x="0" y="0" width="64" height="64" filterUnits="userSpaceOnUse" color-interpolation-filters="sRGB">
<feFlood flood-opacity="0" result="BackgroundImageFix"/>
<feColorMatrix in="SourceAlpha" type="matrix" values="0 0 0 0 0 0 0 0 0 0 0 0 0 0 0 0 0 0 127 0" result="hardAlpha"/>
<feOffset dy="2"/>
<feGaussianBlur stdDeviation="4"/>
<feColorMatrix type="matrix" values="0 0 0 0 0 0 0 0 0 0 0 0 0 0 0 0 0 0 0.16 0"/>
<feBlend mode="normal" in2="BackgroundImageFix" result="effect1_dropShadow_10364_4612"/>
<feBlend mode="normal" in="SourceGraphic" in2="effect1_dropShadow_10364_4612" result="shape"/>
</filter>
</defs>
</svg>
