<svg width="56" height="56" viewBox="0 0 56 56" fill="none" xmlns="http://www.w3.org/2000/svg">
<g filter="url(#filter0_d_8318_7244)">
<g clip-path="url(#clip0_8318_7244)">
<rect x="10" y="8" width="36" height="36" rx="18" fill="#B3B3B3"/>
<path d="M35.7432 31.4609C35.8073 31.4609 35.8714 31.5251 35.9356 31.5571L35.3263 32.3908H35.2622C34.7492 32.1343 34.3003 31.8778 33.3383 31.8778C32.3764 31.8778 31.9275 32.1022 31.3824 32.3908C30.8373 32.6794 30.196 33 28.9775 33C27.759 33 27.1177 32.6794 26.5726 32.3908C26.0596 32.1343 25.6107 31.8778 24.6166 31.8778C23.6226 31.8778 23.2058 32.1022 22.6928 32.3908C22.1156 32.6794 21.5063 33 20.2879 33C19.0694 33 18.4602 32.6794 17.883 32.3908C17.5944 32.2305 17.3058 32.1022 16.9531 32.006L17.2417 31.012C17.6906 31.1403 18.0433 31.3006 18.364 31.4609C18.877 31.7175 19.3259 31.974 20.2879 31.974C21.2498 31.974 21.6987 31.7495 22.2438 31.4609C22.7889 31.1723 23.4302 30.8517 24.6487 30.8517C25.8672 30.8517 26.5085 31.1723 27.0536 31.4609C27.5666 31.7175 28.0155 31.974 28.9775 31.974C29.9394 31.974 30.3883 31.7495 30.9334 31.4609C31.4785 31.1723 32.1199 30.8517 33.3383 30.8517C34.5568 30.8517 35.1981 31.1723 35.7432 31.4609Z" fill="white"/>
<path d="M38.8214 26.9718H35.5187C35.5187 26.9718 34.0758 20.7192 34.0117 20.3665C33.9476 20.0137 33.659 20.0779 33.659 20.0779H31.9916C31.9916 20.0779 31.7671 19.1801 31.6709 18.6991C31.5427 18.186 31.3182 18.3143 31.3182 18.3143C31.3182 18.3143 29.1378 19.148 28.8492 19.2762C28.5606 19.4045 28.6568 19.7252 28.6568 19.7252V21.6811H21.2498C20.7368 21.6811 20.7368 21.9697 20.7368 21.9697L19.5183 26.9718H18.7167C18.5243 26.9718 18.396 27.1001 18.364 27.2604L17.5303 30.1463C18.1075 30.3066 18.5243 30.531 18.877 30.6914C19.358 30.9479 19.6145 31.0762 20.3199 31.0762C21.0254 31.0762 21.2819 30.9479 21.7629 30.6914C22.3721 30.3707 23.2058 29.9539 24.6487 29.9539C26.0916 29.9539 26.9574 30.3707 27.5666 30.6914C28.0476 30.9479 28.3041 31.0762 29.0095 31.0762C29.715 31.0762 29.9715 30.9479 30.4525 30.6914C31.0617 30.3707 31.8954 29.9539 33.3704 29.9539C34.8454 29.9539 35.6791 30.3707 36.2883 30.6914C36.3524 30.6914 36.5127 30.7876 36.5127 30.7876L39.0459 27.2925C39.0459 27.2925 39.0459 27.2284 39.0459 27.1642C39.0459 27.036 38.9497 26.9398 38.8214 26.9398V26.9718ZM21.1536 24.5349L21.5063 23.0278H24.777V24.5349H21.1536ZM28.8813 24.5349H25.2579V23.0278H28.8813V24.5349ZM29.4585 24.5349V23.0278H33.0818L33.4666 24.5349H29.4585Z" fill="white"/>
</g>
<rect x="9" y="7" width="38" height="38" rx="19" stroke="white" stroke-width="2"/>
</g>
<defs>
<filter id="filter0_d_8318_7244" x="0" y="0" width="56" height="56" filterUnits="userSpaceOnUse" color-interpolation-filters="sRGB">
<feFlood flood-opacity="0" result="BackgroundImageFix"/>
<feColorMatrix in="SourceAlpha" type="matrix" values="0 0 0 0 0 0 0 0 0 0 0 0 0 0 0 0 0 0 127 0" result="hardAlpha"/>
<feOffset dy="2"/>
<feGaussianBlur stdDeviation="4"/>
<feColorMatrix type="matrix" values="0 0 0 0 0 0 0 0 0 0 0 0 0 0 0 0 0 0 0.16 0"/>
<feBlend mode="normal" in2="BackgroundImageFix" result="effect1_dropShadow_8318_7244"/>
<feBlend mode="normal" in="SourceGraphic" in2="effect1_dropShadow_8318_7244" result="shape"/>
</filter>
<clipPath id="clip0_8318_7244">
<rect x="10" y="8" width="36" height="36" rx="18" fill="white"/>
</clipPath>
</defs>
</svg>
