<svg width="64" height="69" viewBox="0 0 64 69" fill="none" xmlns="http://www.w3.org/2000/svg">
<g filter="url(#filter0_d_787_6021)">
<path d="M28.9339 56.5875L28.934 56.5875C30.5073 58.4299 33.5121 58.4862 35.1319 56.6611L35.132 56.661C36.9983 54.5579 39.1407 52.5639 41.3403 50.5389C41.4722 50.4174 41.6043 50.2959 41.7367 50.1741C43.7972 48.2784 45.8947 46.3487 47.7818 44.3154C51.8041 39.9816 55 35.0433 55 28.5984C55 16.609 44.6395 7 32 7C19.3605 7 9 16.609 9 28.5984C9 35.1686 12.2558 40.0504 16.3178 44.3186C18.0651 46.1546 19.9891 47.9049 21.8856 49.63C22.1871 49.9043 22.4879 50.1779 22.7872 50.4512C24.9836 52.4565 27.1082 54.4492 28.9339 56.5875Z" fill="#F36960" stroke="white" stroke-width="2" stroke-linejoin="round"/>
<path fill-rule="evenodd" clip-rule="evenodd" d="M22.6689 35.831C22.0249 35.831 21.5 36.356 21.5 37C21.5 37.644 22.0249 38.169 22.6689 38.169C23.3129 38.169 23.8311 37.644 23.8311 37C23.8311 36.356 23.3129 35.831 22.6689 35.831ZM19.1689 37C19.1689 35.068 20.7369 33.5 22.6689 33.5C24.6009 33.5 26.1689 35.068 26.1689 37C26.1689 38.932 24.6009 40.5 22.6689 40.5C20.7369 40.5 19.1689 38.932 19.1689 37Z" fill="black"/>
<path fill-rule="evenodd" clip-rule="evenodd" d="M41.3311 35.831C40.6871 35.831 40.1689 36.356 40.1689 37C40.1689 37.644 40.6871 38.169 41.3311 38.169C41.9751 38.169 42.5 37.644 42.5 37C42.5 36.356 41.9751 35.831 41.3311 35.831ZM37.8311 37C37.8311 35.068 39.3991 33.5 41.3311 33.5C43.2631 33.5 44.8311 35.068 44.8311 37C44.8311 38.932 43.2631 40.5 41.3311 40.5C39.3991 40.5 37.8311 38.932 37.8311 37Z" fill="black"/>
<path fill-rule="evenodd" clip-rule="evenodd" d="M34.3309 20.669C34.3309 20.025 34.8558 19.5 35.4998 19.5H36.6407C38.2157 19.5 39.5949 20.55 40.0149 22.062L42.4581 30.854C42.5561 31.204 42.4859 31.582 42.2619 31.869C42.0449 32.156 41.6949 32.331 41.3309 32.331C39.8049 32.331 38.4538 33.059 37.5998 34.2C37.0118 34.977 36.6688 35.95 36.6688 37C36.6688 37.644 36.1438 38.169 35.4998 38.169H24.9998C24.6918 38.169 24.391 38.05 24.174 37.826C23.957 37.609 23.8311 37.308 23.8311 37C23.8311 36.356 23.3129 35.831 22.6689 35.831C22.0249 35.831 21.5278 35.341 21.4998 34.711C21.4718 34.088 21.948 33.549 22.571 33.5L36.074 32.373C37.047 31.274 38.3559 30.476 39.8399 30.154L37.768 22.685C37.628 22.181 37.1657 21.831 36.6407 21.831H35.4998C34.8558 21.831 34.3309 21.306 34.3309 20.662V20.669Z" fill="black"/>
</g>
<defs>
<filter id="filter0_d_787_6021" x="0" y="0" width="64" height="69" filterUnits="userSpaceOnUse" color-interpolation-filters="sRGB">
<feFlood flood-opacity="0" result="BackgroundImageFix"/>
<feColorMatrix in="SourceAlpha" type="matrix" values="0 0 0 0 0 0 0 0 0 0 0 0 0 0 0 0 0 0 127 0" result="hardAlpha"/>
<feOffset dy="2"/>
<feGaussianBlur stdDeviation="4"/>
<feColorMatrix type="matrix" values="0 0 0 0 0 0 0 0 0 0 0 0 0 0 0 0 0 0 0.16 0"/>
<feBlend mode="normal" in2="BackgroundImageFix" result="effect1_dropShadow_787_6021"/>
<feBlend mode="normal" in="SourceGraphic" in2="effect1_dropShadow_787_6021" result="shape"/>
</filter>
</defs>
</svg>
