<svg width="64" height="69" viewBox="0 0 64 69" fill="none" xmlns="http://www.w3.org/2000/svg">
<g filter="url(#filter0_d_787_5961)">
<path d="M28.9339 56.5875L28.934 56.5875C30.5073 58.4299 33.5121 58.4862 35.1319 56.6611L35.132 56.661C36.9983 54.5579 39.1407 52.5639 41.3403 50.5389C41.4722 50.4174 41.6043 50.2959 41.7367 50.1741C43.7972 48.2784 45.8947 46.3487 47.7818 44.3154C51.8041 39.9816 55 35.0433 55 28.5984C55 16.609 44.6395 7 32 7C19.3605 7 9 16.609 9 28.5984C9 35.1686 12.2558 40.0504 16.3178 44.3186C18.0651 46.1546 19.9891 47.9049 21.8856 49.63C22.1871 49.9043 22.4879 50.1779 22.7872 50.4512C24.9836 52.4565 27.1082 54.4492 28.9339 56.5875Z" fill="#AA8892" stroke="white" stroke-width="2" stroke-linejoin="round"/>
<path d="M26.1689 38.8971C27.7789 38.8971 29.0811 37.5881 29.0811 35.9781C29.0811 34.3681 27.7789 33.0591 26.1689 33.0591C24.5589 33.0591 23.25 34.3681 23.25 35.9781C23.25 37.5881 24.5589 38.8971 26.1689 38.8971Z" fill="black"/>
<path d="M37.8311 38.8971C39.4411 38.8971 40.75 37.5881 40.75 35.9781C40.75 34.3681 39.4411 33.0591 37.8311 33.0591C36.2211 33.0591 34.9189 34.3681 34.9189 35.9781C34.9189 37.5881 36.2211 38.8971 37.8311 38.8971Z" fill="black"/>
<path fill-rule="evenodd" clip-rule="evenodd" d="M19.4561 27.8091C19.4561 27.3261 19.8481 26.9341 20.3311 26.9341H39C39.483 26.9341 39.875 27.3261 39.875 27.8091C39.875 28.2921 39.483 28.6841 39 28.6841H20.3311C19.8481 28.6841 19.4561 28.2921 19.4561 27.8091Z" fill="black"/>
<path fill-rule="evenodd" clip-rule="evenodd" d="M28.5 21.103C28.983 21.103 29.375 21.495 29.375 21.978V27.809C29.375 28.292 28.983 28.684 28.5 28.684C28.017 28.684 27.625 28.292 27.625 27.809V21.978C27.625 21.495 28.017 21.103 28.5 21.103Z" fill="black"/>
<path fill-rule="evenodd" clip-rule="evenodd" d="M19.4561 21.978C19.4561 21.495 19.8481 21.103 20.3311 21.103H33.7011C34.7511 21.103 35.731 21.614 36.333 22.475L39.5879 27.13L42.7659 28.719C43.8579 29.265 44.5439 30.371 44.5439 31.589V34.816C44.5439 35.943 43.627 36.86 42.5 36.86H42.178C42.234 36.58 42.2689 36.286 42.2689 35.985C42.2689 33.535 40.2811 31.554 37.8311 31.554C35.3811 31.554 33.4 33.542 33.4 35.985C33.4 36.286 33.4281 36.58 33.4841 36.86H30.5159C30.5719 36.58 30.6 36.286 30.6 35.985C30.6 33.535 28.6119 31.554 26.1689 31.554C23.7259 31.554 21.7311 33.542 21.7311 35.985C21.7311 36.16 21.7449 36.342 21.7659 36.51L20.5901 35.922C19.8971 35.579 19.4561 34.872 19.4561 34.095V27.235C19.4561 27.116 19.484 26.99 19.533 26.878L21.3182 22.86H20.3311C19.8481 22.86 19.4561 22.468 19.4561 21.985V21.978ZM23.236 22.853L21.4231 26.934H27.625V22.853H23.236ZM29.375 22.853V26.934H37.3201L34.8981 23.476C34.6251 23.084 34.1771 22.853 33.7011 22.853H29.375Z" fill="black"/>
</g>
<defs>
<filter id="filter0_d_787_5961" x="0" y="0" width="64" height="69" filterUnits="userSpaceOnUse" color-interpolation-filters="sRGB">
<feFlood flood-opacity="0" result="BackgroundImageFix"/>
<feColorMatrix in="SourceAlpha" type="matrix" values="0 0 0 0 0 0 0 0 0 0 0 0 0 0 0 0 0 0 127 0" result="hardAlpha"/>
<feOffset dy="2"/>
<feGaussianBlur stdDeviation="4"/>
<feColorMatrix type="matrix" values="0 0 0 0 0 0 0 0 0 0 0 0 0 0 0 0 0 0 0.16 0"/>
<feBlend mode="normal" in2="BackgroundImageFix" result="effect1_dropShadow_787_5961"/>
<feBlend mode="normal" in="SourceGraphic" in2="effect1_dropShadow_787_5961" result="shape"/>
</filter>
</defs>
</svg>
