<svg width="64" height="64" viewBox="0 0 64 64" fill="none" xmlns="http://www.w3.org/2000/svg">
<g filter="url(#filter0_d_10364_4622)">
<path d="M10 30C10 17.8497 19.8497 8 32 8C44.1503 8 54 17.8497 54 30C54 42.1503 44.1503 52 32 52C19.8497 52 10 42.1503 10 30Z" fill="#F9D2D3"/>
<path d="M32 7C44.7025 7 55 17.2975 55 30C55 42.7025 44.7025 53 32 53C19.2975 53 9 42.7025 9 30C9 17.2975 19.2975 7 32 7Z" stroke="white" stroke-width="2"/>
<path d="M43.1851 33.6382C42.7908 33.2797 42.3606 32.8854 41.536 32.8854C40.7115 32.8854 40.2813 33.2797 39.887 33.6382C39.5285 33.9609 39.2058 34.2476 38.5606 34.2476C37.9153 34.2476 37.5926 33.9609 37.2341 33.6382C36.8398 33.2797 36.4096 32.8854 35.5851 32.8854C34.7606 32.8854 34.3304 33.2797 33.936 33.6382C33.5775 33.9609 33.2549 34.2476 32.6096 34.2476C31.9643 34.2476 31.6417 33.9609 31.2832 33.6382C31.104 33.459 30.8889 33.2797 30.6379 33.1363C30.6379 33.1363 30.5662 33.1363 30.5304 33.1363C30.2794 33.0288 30.0285 32.9571 29.67 32.9571C28.8455 32.9571 28.4153 33.3514 28.0568 33.7099C27.6983 34.0326 27.4115 34.3193 26.7662 34.3193C26.1209 34.3193 25.7983 34.0326 25.4757 33.7099C25.0813 33.3514 24.687 32.9571 23.8625 32.9571C23.0379 32.9571 22.6077 33.3514 22.2493 33.7099C21.8908 34.0326 21.604 34.3193 20.9228 34.3193C20.2417 34.3193 19.9549 34.0326 19.6323 33.7099C19.4172 33.5307 19.2021 33.3156 18.8794 33.1363L18.7002 34.3193C18.9511 34.4269 19.1304 34.6061 19.3096 34.7854C19.704 35.1439 20.1342 35.5382 20.9228 35.5382C21.7115 35.5382 22.1776 35.1439 22.536 34.7854C22.8945 34.4627 23.1813 34.1759 23.8266 34.1759C24.4719 34.1759 24.7945 34.4627 25.153 34.7854C25.5474 35.1439 25.9417 35.5382 26.7662 35.5382C27.5908 35.5382 28.0209 35.1439 28.3794 34.7854C28.7379 34.4627 29.0247 34.1759 29.7059 34.1759C30.387 34.1759 30.2436 34.2476 30.4587 34.3552C30.6379 34.4627 30.8172 34.6061 30.9606 34.7495C31.3191 35.0722 31.7492 35.4665 32.5738 35.4665C33.3983 35.4665 33.8285 35.0722 34.2228 34.7137C34.5813 34.391 34.8681 34.1043 35.5492 34.1043C36.2304 34.1043 36.5172 34.391 36.8757 34.7137C37.27 35.0722 37.7002 35.4665 38.5247 35.4665C39.3492 35.4665 39.7794 35.0722 40.1738 34.7137C40.5323 34.391 40.8549 34.1043 41.5002 34.1043C42.1455 34.1043 42.4681 34.391 42.8266 34.7137L43.2209 33.7099C43.2209 33.7099 43.1492 33.6382 43.0775 33.6024V33.6741L43.1851 33.6382Z" fill="#E31B22"/>
<path d="M30.4945 33.1005C30.2794 32.9929 30.0643 32.9212 29.7417 32.9212C29.4191 32.9212 29.1681 32.9929 28.953 33.1363L30.5304 33.1363L30.4945 33.1363V33.1005Z" fill="#E31B22"/>
<path d="M23.0021 33.1722H24.687C24.4719 33.0288 24.2209 32.9212 23.8625 32.9212C23.504 32.9212 23.2172 33.0288 23.0021 33.1722Z" fill="#E31B22"/>
<path d="M45.1926 28.1892H41.8587L36.7323 24.3892H23.2889C23.0738 24.3892 22.8945 24.5684 22.8587 24.7835L22.07 28.1892H20.8153C20.6002 28.1892 20.4209 28.3326 20.3851 28.5118L19.4172 31.9892L19.3096 32.0967C19.453 32.2043 19.5606 32.3118 19.704 32.4193C20.0625 32.742 20.3493 33.0288 20.9945 33.0288C21.6398 33.0288 21.9625 32.742 22.3209 32.4193C22.7153 32.0609 23.1096 31.6665 23.9342 31.6665C24.7587 31.6665 25.1889 32.0609 25.5474 32.4193C25.9059 32.742 26.1926 33.0288 26.8379 33.0288C27.4832 33.0288 27.8059 32.742 28.1285 32.4193C28.5228 32.0609 28.9172 31.6665 29.7417 31.6665C30.5662 31.6665 30.387 31.7382 30.6021 31.8458C30.9247 31.9892 31.1398 32.2043 31.3908 32.3835C31.7492 32.7061 32.0719 32.9929 32.7172 32.9929C33.3625 32.9929 33.6851 32.7061 34.0436 32.3835C34.4379 32.025 34.8681 31.6307 35.6926 31.6307C36.5172 31.6307 36.9474 32.025 37.3417 32.3835C37.7002 32.7061 38.0228 32.9929 38.6681 32.9929C39.3134 32.9929 39.636 32.7061 39.9945 32.3835C40.3889 32.025 40.819 31.6307 41.6436 31.6307C42.4681 31.6307 42.5398 31.7741 42.8266 31.9892L45.3002 28.5476C45.3002 28.5476 45.3002 28.476 45.3002 28.4043C45.3002 28.2609 45.1926 28.1533 45.0492 28.1533H45.1568L45.1926 28.1892ZM27.5908 28.1892H23.0738L23.504 26.325H27.5191V26.3967H27.5908V28.225V28.1892ZM32.0719 28.1892H28.0926V26.325H32.0719V28.1892ZM32.7172 28.1892V26.325H37.3775L39.9228 28.1892H32.7172Z" fill="#E31B22"/>
<path d="M34.9757 33.1005H36.4455C36.2662 32.9929 36.0153 32.9212 35.7285 32.9212C35.4417 32.9212 35.1908 32.9929 34.9757 33.1005Z" fill="#E31B22"/>
<path d="M41.7153 32.9212C41.4285 32.9212 41.2492 32.9212 41.0341 33.0646H42.0379L42.1096 32.9929C42.0021 32.9929 41.8587 32.9929 41.7153 32.9929V32.9212Z" fill="#E31B22"/>
</g>
<defs>
<filter id="filter0_d_10364_4622" x="0" y="0" width="64" height="64" filterUnits="userSpaceOnUse" color-interpolation-filters="sRGB">
<feFlood flood-opacity="0" result="BackgroundImageFix"/>
<feColorMatrix in="SourceAlpha" type="matrix" values="0 0 0 0 0 0 0 0 0 0 0 0 0 0 0 0 0 0 127 0" result="hardAlpha"/>
<feOffset dy="2"/>
<feGaussianBlur stdDeviation="4"/>
<feColorMatrix type="matrix" values="0 0 0 0 0 0 0 0 0 0 0 0 0 0 0 0 0 0 0.16 0"/>
<feBlend mode="normal" in2="BackgroundImageFix" result="effect1_dropShadow_10364_4622"/>
<feBlend mode="normal" in="SourceGraphic" in2="effect1_dropShadow_10364_4622" result="shape"/>
</filter>
</defs>
</svg>
