<svg width="56" height="56" viewBox="0 0 56 56" fill="none" xmlns="http://www.w3.org/2000/svg">
<g filter="url(#filter0_d_896_7129)">
<g clip-path="url(#clip0_896_7129)">
<rect x="10" y="8" width="36" height="36" rx="18" fill="#007AB5"/>
<path d="M35.7437 31.4617C35.8078 31.4617 35.8719 31.5258 35.9361 31.5579L35.3268 32.3915H35.2627C34.7497 32.135 34.3008 31.8785 33.3388 31.8785C32.3769 31.8785 31.9279 32.103 31.3828 32.3915C30.8377 32.6801 30.1964 33.0008 28.978 33.0008C27.7595 33.0008 27.1182 32.6801 26.5731 32.3915C26.0601 32.135 25.6112 31.8785 24.6171 31.8785C23.6231 31.8785 23.2063 32.103 22.6932 32.3915C22.1161 32.6801 21.5068 33.0008 20.2884 33.0008C19.0699 33.0008 18.4607 32.6801 17.8835 32.3915C17.5949 32.2312 17.3063 32.103 16.9536 32.0068L17.2422 31.0128C17.6911 31.141 18.0438 31.3013 18.3645 31.4617C18.8775 31.7182 19.3264 31.9747 20.2884 31.9747C21.2503 31.9747 21.6992 31.7502 22.2443 31.4617C22.7894 31.1731 23.4307 30.8524 24.6492 30.8524C25.8677 30.8524 26.509 31.1731 27.0541 31.4617C27.5671 31.7182 28.016 31.9747 28.978 31.9747C29.9399 31.9747 30.3888 31.7502 30.9339 31.4617C31.479 31.1731 32.1203 30.8524 33.3388 30.8524C34.5573 30.8524 35.1986 31.1731 35.7437 31.4617Z" fill="white"/>
<path d="M38.8219 26.9726H35.5192C35.5192 26.9726 34.0763 20.7199 34.0122 20.3672C33.948 20.0145 33.6595 20.0786 33.6595 20.0786H31.9921C31.9921 20.0786 31.7676 19.1808 31.6714 18.6998C31.5432 18.1868 31.3187 18.315 31.3187 18.315C31.3187 18.315 29.1383 19.1487 28.8497 19.277C28.5611 19.4052 28.6573 19.7259 28.6573 19.7259V21.6819H21.2503C20.7373 21.6819 20.7373 21.9704 20.7373 21.9704L19.5188 26.9726H18.7172C18.5248 26.9726 18.3965 27.1008 18.3645 27.2612L17.5308 30.147C18.108 30.3073 18.5248 30.5318 18.8775 30.6921C19.3585 30.9486 19.615 31.0769 20.3204 31.0769C21.0259 31.0769 21.2824 30.9486 21.7634 30.6921C22.3726 30.3715 23.2063 29.9546 24.6492 29.9546C26.0921 29.9546 26.9579 30.3715 27.5671 30.6921C28.0481 30.9486 28.3046 31.0769 29.01 31.0769C29.7155 31.0769 29.972 30.9486 30.453 30.6921C31.0622 30.3715 31.8959 29.9546 33.3709 29.9546C34.8459 29.9546 35.6795 30.3715 36.2888 30.6921C36.3529 30.6921 36.5132 30.7883 36.5132 30.7883L39.0464 27.2932C39.0464 27.2932 39.0464 27.2291 39.0464 27.165C39.0464 27.0367 38.9502 26.9405 38.8219 26.9405V26.9726ZM21.1541 24.5356L21.5068 23.0286H24.7775V24.5356H21.1541ZM28.8818 24.5356H25.2584V23.0286H28.8818V24.5356ZM29.4589 24.5356V23.0286H33.0823L33.4671 24.5356H29.4589Z" fill="white"/>
</g>
<rect x="9" y="7" width="38" height="38" rx="19" stroke="white" stroke-width="2"/>
</g>
<defs>
<filter id="filter0_d_896_7129" x="0" y="0" width="56" height="56" filterUnits="userSpaceOnUse" color-interpolation-filters="sRGB">
<feFlood flood-opacity="0" result="BackgroundImageFix"/>
<feColorMatrix in="SourceAlpha" type="matrix" values="0 0 0 0 0 0 0 0 0 0 0 0 0 0 0 0 0 0 127 0" result="hardAlpha"/>
<feOffset dy="2"/>
<feGaussianBlur stdDeviation="4"/>
<feColorMatrix type="matrix" values="0 0 0 0 0 0 0 0 0 0 0 0 0 0 0 0 0 0 0.16 0"/>
<feBlend mode="normal" in2="BackgroundImageFix" result="effect1_dropShadow_896_7129"/>
<feBlend mode="normal" in="SourceGraphic" in2="effect1_dropShadow_896_7129" result="shape"/>
</filter>
<clipPath id="clip0_896_7129">
<rect x="10" y="8" width="36" height="36" rx="18" fill="white"/>
</clipPath>
</defs>
</svg>
