<svg width="56" height="56" viewBox="0 0 56 56" fill="none" xmlns="http://www.w3.org/2000/svg">
<g filter="url(#filter0_d_8318_7241)">
<g clip-path="url(#clip0_8318_7241)">
<rect x="10" y="8" width="36" height="36" rx="18" fill="#F9D2D3"/>
<path d="M39.1851 29.6382C38.7907 29.2797 38.3606 28.8854 37.536 28.8854C36.7115 28.8854 36.2813 29.2797 35.887 29.6382C35.5285 29.9609 35.2058 30.2476 34.5606 30.2476C33.9153 30.2476 33.5926 29.9609 33.2341 29.6382C32.8398 29.2797 32.4096 28.8854 31.5851 28.8854C30.7606 28.8854 30.3304 29.2797 29.936 29.6382C29.5775 29.9609 29.2549 30.2476 28.6096 30.2476C27.9643 30.2476 27.6417 29.9609 27.2832 29.6382C27.104 29.459 26.8889 29.2797 26.6379 29.1363C26.6379 29.1363 26.5662 29.1363 26.5304 29.1363C26.2794 29.0288 26.0285 28.9571 25.67 28.9571C24.8455 28.9571 24.4153 29.3514 24.0568 29.7099C23.6983 30.0326 23.4115 30.3193 22.7662 30.3193C22.1209 30.3193 21.7983 30.0326 21.4757 29.7099C21.0813 29.3514 20.687 28.9571 19.8625 28.9571C19.0379 28.9571 18.6077 29.3514 18.2493 29.7099C17.8908 30.0326 17.604 30.3193 16.9228 30.3193C16.2417 30.3193 15.9549 30.0326 15.6323 29.7099C15.4172 29.5307 15.2021 29.3156 14.8794 29.1363L14.7002 30.3193C14.9511 30.4269 15.1304 30.6061 15.3096 30.7854C15.704 31.1439 16.1342 31.5382 16.9228 31.5382C17.7115 31.5382 18.1776 31.1439 18.536 30.7854C18.8945 30.4627 19.1813 30.1759 19.8266 30.1759C20.4719 30.1759 20.7945 30.4627 21.153 30.7854C21.5474 31.1439 21.9417 31.5382 22.7662 31.5382C23.5908 31.5382 24.0209 31.1439 24.3794 30.7854C24.7379 30.4627 25.0247 30.1759 25.7058 30.1759C26.387 30.1759 26.2436 30.2476 26.4587 30.3552C26.6379 30.4627 26.8172 30.6061 26.9606 30.7495C27.3191 31.0722 27.7492 31.4665 28.5738 31.4665C29.3983 31.4665 29.8285 31.0722 30.2228 30.7137C30.5813 30.391 30.8681 30.1042 31.5492 30.1042C32.2304 30.1042 32.5172 30.391 32.8757 30.7137C33.27 31.0722 33.7002 31.4665 34.5247 31.4665C35.3492 31.4665 35.7794 31.0722 36.1738 30.7137C36.5323 30.391 36.8549 30.1042 37.5002 30.1042C38.1455 30.1042 38.4681 30.391 38.8266 30.7137L39.2209 29.7099C39.2209 29.7099 39.1492 29.6382 39.0775 29.6024V29.6741L39.1851 29.6382Z" fill="#E31B22"/>
<path d="M26.4945 29.1005C26.2794 28.9929 26.0643 28.9212 25.7417 28.9212C25.4191 28.9212 25.1681 28.9929 24.953 29.1363L26.5304 29.1363L26.4945 29.1363V29.1005Z" fill="#E31B22"/>
<path d="M19.0021 29.1722H20.687C20.4719 29.0288 20.2209 28.9212 19.8625 28.9212C19.504 28.9212 19.2172 29.0288 19.0021 29.1722Z" fill="#E31B22"/>
<path d="M41.1926 24.1892H37.8587L32.7323 20.3892H19.2889C19.0738 20.3892 18.8945 20.5684 18.8587 20.7835L18.07 24.1892H16.8153C16.6002 24.1892 16.4209 24.3326 16.3851 24.5118L15.4172 27.9892L15.3096 28.0967C15.453 28.2043 15.5606 28.3118 15.704 28.4193C16.0625 28.742 16.3493 29.0288 16.9945 29.0288C17.6398 29.0288 17.9625 28.742 18.3209 28.4193C18.7153 28.0609 19.1096 27.6665 19.9342 27.6665C20.7587 27.6665 21.1889 28.0609 21.5474 28.4193C21.9059 28.742 22.1926 29.0288 22.8379 29.0288C23.4832 29.0288 23.8059 28.742 24.1285 28.4193C24.5228 28.0609 24.9172 27.6665 25.7417 27.6665C26.5662 27.6665 26.387 27.7382 26.6021 27.8458C26.9247 27.9892 27.1398 28.2043 27.3908 28.3835C27.7492 28.7061 28.0719 28.9929 28.7172 28.9929C29.3625 28.9929 29.6851 28.7061 30.0436 28.3835C30.4379 28.025 30.8681 27.6307 31.6926 27.6307C32.5172 27.6307 32.9474 28.025 33.3417 28.3835C33.7002 28.7061 34.0228 28.9929 34.6681 28.9929C35.3134 28.9929 35.636 28.7061 35.9945 28.3835C36.3889 28.025 36.819 27.6307 37.6436 27.6307C38.4681 27.6307 38.5398 27.7741 38.8266 27.9892L41.3002 24.5476C41.3002 24.5476 41.3002 24.476 41.3002 24.4043C41.3002 24.2609 41.1926 24.1533 41.0492 24.1533H41.1568L41.1926 24.1892ZM23.5908 24.1892H19.0738L19.504 22.325H23.5191V22.3967H23.5908V24.225V24.1892ZM28.0719 24.1892H24.0926V22.325H28.0719V24.1892ZM28.7172 24.1892V22.325H33.3775L35.9228 24.1892H28.7172Z" fill="#E31B22"/>
<path d="M30.9757 29.1005H32.4455C32.2662 28.9929 32.0153 28.9212 31.7285 28.9212C31.4417 28.9212 31.1908 28.9929 30.9757 29.1005Z" fill="#E31B22"/>
<path d="M37.7153 28.9212C37.4285 28.9212 37.2492 28.9212 37.0341 29.0646H38.0379L38.1096 28.9929C38.0021 28.9929 37.8587 28.9929 37.7153 28.9929V28.9212Z" fill="#E31B22"/>
</g>
<rect x="9" y="7" width="38" height="38" rx="19" stroke="white" stroke-width="2"/>
</g>
<defs>
<filter id="filter0_d_8318_7241" x="0" y="0" width="56" height="56" filterUnits="userSpaceOnUse" color-interpolation-filters="sRGB">
<feFlood flood-opacity="0" result="BackgroundImageFix"/>
<feColorMatrix in="SourceAlpha" type="matrix" values="0 0 0 0 0 0 0 0 0 0 0 0 0 0 0 0 0 0 127 0" result="hardAlpha"/>
<feOffset dy="2"/>
<feGaussianBlur stdDeviation="4"/>
<feColorMatrix type="matrix" values="0 0 0 0 0 0 0 0 0 0 0 0 0 0 0 0 0 0 0.16 0"/>
<feBlend mode="normal" in2="BackgroundImageFix" result="effect1_dropShadow_8318_7241"/>
<feBlend mode="normal" in="SourceGraphic" in2="effect1_dropShadow_8318_7241" result="shape"/>
</filter>
<clipPath id="clip0_8318_7241">
<rect x="10" y="8" width="36" height="36" rx="18" fill="white"/>
</clipPath>
</defs>
</svg>
