<svg width="56" height="56" viewBox="0 0 56 56" fill="none" xmlns="http://www.w3.org/2000/svg">
<g filter="url(#filter0_d_787_6084)">
<g clip-path="url(#clip0_787_6084)">
<rect x="10" y="8" width="36" height="36" rx="18" fill="#82B962"/>
<path fill-rule="evenodd" clip-rule="evenodd" d="M15.4 22.3248C15.4 21.165 16.3402 20.2248 17.5 20.2248H35C38.4794 20.2248 41.3 23.0454 41.3 26.5248V30.7248C41.3 31.8846 40.3645 32.8248 39.2047 32.8248C32.3613 32.8248 19.383 32.8248 17.5 32.8248C16.3402 32.8248 15.4 31.8846 15.4 30.7248V22.3248ZM17.5 23.0248C17.5 22.6382 17.8134 22.3248 18.2 22.3248H20.2971C20.6837 22.3248 20.9971 22.6382 20.9971 23.0248V26.5248C20.9971 26.9114 20.6837 27.2248 20.2971 27.2248H18.2C17.85 27.2248 17.5 26.8748 17.5 26.5248V23.0248ZM23.1076 22.3248C22.721 22.3248 22.4076 22.6382 22.4076 23.0248L22.4 26.5248C22.4 26.8748 22.75 27.2248 23.1 27.2248H25.9076C26.2942 27.2248 26.6076 26.9114 26.6076 26.5248V23.0248C26.6076 22.6382 26.2942 22.3248 25.9076 22.3248H23.1076ZM28.0181 23.0248C28.0181 22.6382 28.3315 22.3248 28.7181 22.3248H31.5181C31.9047 22.3248 32.2181 22.6382 32.2181 23.0248V26.5248C32.2181 26.9114 31.9047 27.2248 31.5181 27.2248H29.4181C28.6449 27.2248 28 27.298 28 26.5248L28.0181 23.0248ZM34.3286 22.3248C33.9421 22.3248 33.6286 22.6382 33.6286 23.0248V26.5248C33.6286 26.9114 33.9421 27.2248 34.3286 27.2248H38.5287C38.9152 27.2248 39.2286 26.9114 39.2286 26.5248C39.2286 24.2052 37.3482 22.3248 35.0287 22.3248H34.3286Z" fill="black"/>
<path fill-rule="evenodd" clip-rule="evenodd" d="M15.925 34.9248C15.925 34.4416 16.3168 34.0498 16.8 34.0498L39.9 34.0498C40.3833 34.0498 40.775 34.4416 40.775 34.9248C40.775 35.4081 40.3833 35.7998 39.9 35.7998L16.8 35.7998C16.3168 35.7998 15.925 35.4081 15.925 34.9248Z" fill="black"/>
<path fill-rule="evenodd" clip-rule="evenodd" d="M24.325 17.4248C24.325 16.9416 24.7168 16.5498 25.2 16.5498H30.8C31.1456 16.5498 31.4588 16.7532 31.5993 17.0688C31.7399 17.3845 31.6816 17.7533 31.4504 18.0101L28.3004 21.5101C27.9771 21.8693 27.4239 21.8985 27.0647 21.5752C26.7055 21.2519 26.6764 20.6987 26.9996 20.3395L28.8353 18.2998H25.2C24.7168 18.2998 24.325 17.9081 24.325 17.4248Z" fill="black"/>
</g>
<rect x="9" y="7" width="38" height="38" rx="19" stroke="white" stroke-width="2"/>
</g>
<defs>
<filter id="filter0_d_787_6084" x="0" y="0" width="56" height="56" filterUnits="userSpaceOnUse" color-interpolation-filters="sRGB">
<feFlood flood-opacity="0" result="BackgroundImageFix"/>
<feColorMatrix in="SourceAlpha" type="matrix" values="0 0 0 0 0 0 0 0 0 0 0 0 0 0 0 0 0 0 127 0" result="hardAlpha"/>
<feOffset dy="2"/>
<feGaussianBlur stdDeviation="4"/>
<feColorMatrix type="matrix" values="0 0 0 0 0 0 0 0 0 0 0 0 0 0 0 0 0 0 0.16 0"/>
<feBlend mode="normal" in2="BackgroundImageFix" result="effect1_dropShadow_787_6084"/>
<feBlend mode="normal" in="SourceGraphic" in2="effect1_dropShadow_787_6084" result="shape"/>
</filter>
<clipPath id="clip0_787_6084">
<rect x="10" y="8" width="36" height="36" rx="18" fill="white"/>
</clipPath>
</defs>
</svg>
