<svg width="64" height="64" viewBox="0 0 64 64" fill="none" xmlns="http://www.w3.org/2000/svg">
<g filter="url(#filter0_d_10410_4953)">
<path d="M10 32C10 19.8497 19.8497 10 32 10V10C44.1503 10 54 19.8497 54 32V32C54 44.1503 44.1503 54 32 54V54C19.8497 54 10 44.1503 10 32V32Z" fill="#007AB5"/>
<path d="M32 9C44.7025 9 55 19.2975 55 32C55 44.7025 44.7025 55 32 55C19.2975 55 9 44.7025 9 32C9 19.2975 19.2975 9 32 9Z" stroke="white" stroke-width="2"/>
<path d="M41.3237 39.4964C41.4009 39.4964 41.4781 39.5736 41.5553 39.6122L40.8218 40.616H40.7446C40.1269 40.3072 39.5864 39.9983 38.4282 39.9983C37.27 39.9983 36.7295 40.2685 36.0732 40.616C35.4169 40.9635 34.6448 41.3495 33.1777 41.3495C31.7106 41.3495 30.9385 40.9635 30.2822 40.616C29.6645 40.3072 29.124 39.9983 27.9272 39.9983C26.7304 39.9983 26.2285 40.2685 25.6108 40.616C24.9159 40.9635 24.1823 41.3495 22.7153 41.3495C21.2482 41.3495 20.5147 40.9635 19.8198 40.616C19.4723 40.423 19.1249 40.2685 18.7002 40.1527L19.0477 38.9559C19.5881 39.1103 20.0128 39.3034 20.3989 39.4964C21.0166 39.8053 21.5571 40.1141 22.7153 40.1141C23.8735 40.1141 24.414 39.8439 25.0703 39.4964C25.7266 39.149 26.4987 38.7629 27.9658 38.7629C29.4329 38.7629 30.205 39.149 30.8613 39.4964C31.479 39.8053 32.0195 40.1141 33.1777 40.1141C34.3359 40.1141 34.8764 39.8439 35.5327 39.4964C36.189 39.149 36.9612 38.7629 38.4282 38.7629C39.8953 38.7629 40.6674 39.149 41.3237 39.4964Z" fill="white"/>
<path d="M45.0299 34.0915H41.0535C41.0535 34.0915 39.3162 26.5632 39.2389 26.1385C39.1617 25.7138 38.8143 25.791 38.8143 25.791H36.8067C36.8067 25.791 36.5365 24.7101 36.4207 24.131C36.2662 23.5132 35.996 23.6677 35.996 23.6677C35.996 23.6677 33.3707 24.6714 33.0233 24.8259C32.6758 24.9803 32.7916 25.3664 32.7916 25.3664V27.7214H23.8735C23.2558 27.7214 23.2558 28.0688 23.2558 28.0688L21.7887 34.0915H20.8236C20.5919 34.0915 20.4375 34.2459 20.3989 34.4389L19.3951 37.9135C20.09 38.1066 20.5919 38.3768 21.0166 38.5699C21.5957 38.8787 21.9045 39.0331 22.7539 39.0331C23.6032 39.0331 23.9121 38.8787 24.4912 38.5699C25.2247 38.1838 26.2285 37.6819 27.9658 37.6819C29.7031 37.6819 30.7455 38.1838 31.479 38.5699C32.0581 38.8787 32.367 39.0331 33.2163 39.0331C34.0657 39.0331 34.3745 38.8787 34.9536 38.5699C35.6871 38.1838 36.6909 37.6819 38.4668 37.6819C40.2427 37.6819 41.2465 38.1838 41.98 38.5699C42.0572 38.5699 42.2503 38.6857 42.2503 38.6857L45.3002 34.4775C45.3002 34.4775 45.3002 34.4003 45.3002 34.3231C45.3002 34.1687 45.1844 34.0529 45.0299 34.0529V34.0915ZM23.7577 31.1574L24.1823 29.3429H28.1202V31.1574H23.7577ZM33.0619 31.1574H28.6993V29.3429H33.0619V31.1574ZM33.7568 31.1574V29.3429H38.1194L38.5826 31.1574H33.7568Z" fill="white"/>
</g>
<defs>
<filter id="filter0_d_10410_4953" x="0" y="0" width="64" height="64" filterUnits="userSpaceOnUse" color-interpolation-filters="sRGB">
<feFlood flood-opacity="0" result="BackgroundImageFix"/>
<feColorMatrix in="SourceAlpha" type="matrix" values="0 0 0 0 0 0 0 0 0 0 0 0 0 0 0 0 0 0 127 0" result="hardAlpha"/>
<feOffset/>
<feGaussianBlur stdDeviation="4"/>
<feColorMatrix type="matrix" values="0 0 0 0 0 0 0 0 0 0 0 0 0 0 0 0 0 0 0.23 0"/>
<feBlend mode="normal" in2="BackgroundImageFix" result="effect1_dropShadow_10410_4953"/>
<feBlend mode="normal" in="SourceGraphic" in2="effect1_dropShadow_10410_4953" result="shape"/>
</filter>
</defs>
</svg>
