<svg width="56" height="56" viewBox="0 0 56 56" fill="none" xmlns="http://www.w3.org/2000/svg">
<g filter="url(#filter0_d_8318_7202)">
<g clip-path="url(#clip0_8318_7202)">
<rect x="10" y="8" width="36" height="36" rx="18" fill="#F9D2D3"/>
<path fill-rule="evenodd" clip-rule="evenodd" d="M18.668 31.831C18.024 31.831 17.499 32.356 17.499 33C17.499 33.644 18.024 34.169 18.668 34.169C19.312 34.169 19.8301 33.644 19.8301 33C19.8301 32.356 19.312 31.831 18.668 31.831ZM15.168 33C15.168 31.068 16.736 29.5 18.668 29.5C20.6 29.5 22.168 31.068 22.168 33C22.168 34.932 20.6 36.5 18.668 36.5C16.736 36.5 15.168 34.932 15.168 33Z" fill="#E31B22"/>
<path fill-rule="evenodd" clip-rule="evenodd" d="M37.3301 31.831C36.6861 31.831 36.168 32.356 36.168 33C36.168 33.644 36.6861 34.169 37.3301 34.169C37.9741 34.169 38.499 33.644 38.499 33C38.499 32.356 37.9741 31.831 37.3301 31.831ZM33.8301 33C33.8301 31.068 35.3981 29.5 37.3301 29.5C39.2621 29.5 40.8301 31.068 40.8301 33C40.8301 34.932 39.2621 36.5 37.3301 36.5C35.3981 36.5 33.8301 34.932 33.8301 33Z" fill="#E31B22"/>
<path fill-rule="evenodd" clip-rule="evenodd" d="M30.3299 16.669C30.3299 16.025 30.8548 15.5 31.4988 15.5H32.6397C34.2147 15.5 35.594 16.55 36.014 18.062L38.4571 26.854C38.5551 27.204 38.4849 27.582 38.2609 27.869C38.0439 28.156 37.6939 28.331 37.3299 28.331C35.8039 28.331 34.4528 29.059 33.5988 30.2C33.0108 30.977 32.6678 31.95 32.6678 33C32.6678 33.644 32.1428 34.169 31.4988 34.169H20.9988C20.6908 34.169 20.39 34.05 20.173 33.826C19.956 33.609 19.8301 33.308 19.8301 33C19.8301 32.356 19.312 31.831 18.668 31.831C18.024 31.831 17.5268 31.341 17.4988 30.711C17.4708 30.088 17.947 29.549 18.57 29.5L32.073 28.373C33.046 27.274 34.355 26.476 35.839 26.154L33.767 18.685C33.627 18.181 33.1647 17.831 32.6397 17.831H31.4988C30.8548 17.831 30.3299 17.306 30.3299 16.662V16.669Z" fill="#E31B22"/>
</g>
<rect x="9" y="7" width="38" height="38" rx="19" stroke="white" stroke-width="2"/>
</g>
<defs>
<filter id="filter0_d_8318_7202" x="0" y="0" width="56" height="56" filterUnits="userSpaceOnUse" color-interpolation-filters="sRGB">
<feFlood flood-opacity="0" result="BackgroundImageFix"/>
<feColorMatrix in="SourceAlpha" type="matrix" values="0 0 0 0 0 0 0 0 0 0 0 0 0 0 0 0 0 0 127 0" result="hardAlpha"/>
<feOffset dy="2"/>
<feGaussianBlur stdDeviation="4"/>
<feColorMatrix type="matrix" values="0 0 0 0 0 0 0 0 0 0 0 0 0 0 0 0 0 0 0.16 0"/>
<feBlend mode="normal" in2="BackgroundImageFix" result="effect1_dropShadow_8318_7202"/>
<feBlend mode="normal" in="SourceGraphic" in2="effect1_dropShadow_8318_7202" result="shape"/>
</filter>
<clipPath id="clip0_8318_7202">
<rect x="10" y="8" width="36" height="36" rx="18" fill="white"/>
</clipPath>
</defs>
</svg>
