<svg width="64" height="64" viewBox="0 0 64 64" fill="none" xmlns="http://www.w3.org/2000/svg">
<g filter="url(#filter0_d_10410_4941)">
<path d="M10 32C10 19.8497 19.8497 10 32 10C44.1503 10 54 19.8497 54 32C54 44.1503 44.1503 54 32 54C19.8497 54 10 44.1503 10 32Z" fill="#007AB5"/>
<path d="M32 9C44.7025 9 55 19.2975 55 32C55 44.7025 44.7025 55 32 55C19.2975 55 9 44.7025 9 32C9 19.2975 19.2975 9 32 9Z" stroke="white" stroke-width="2"/>
<path d="M43.1851 35.6382C42.7908 35.2797 42.3606 34.8854 41.536 34.8854C40.7115 34.8854 40.2813 35.2797 39.887 35.6382C39.5285 35.9609 39.2058 36.2476 38.5606 36.2476C37.9153 36.2476 37.5926 35.9609 37.2341 35.6382C36.8398 35.2797 36.4096 34.8854 35.5851 34.8854C34.7606 34.8854 34.3304 35.2797 33.936 35.6382C33.5775 35.9609 33.2549 36.2476 32.6096 36.2476C31.9643 36.2476 31.6417 35.9609 31.2832 35.6382C31.104 35.459 30.8889 35.2797 30.6379 35.1363C30.6379 35.1363 30.5662 35.1363 30.5304 35.1363C30.2794 35.0288 30.0285 34.9571 29.67 34.9571C28.8455 34.9571 28.4153 35.3514 28.0568 35.7099C27.6983 36.0326 27.4115 36.3193 26.7662 36.3193C26.1209 36.3193 25.7983 36.0326 25.4757 35.7099C25.0813 35.3514 24.687 34.9571 23.8625 34.9571C23.0379 34.9571 22.6077 35.3514 22.2493 35.7099C21.8908 36.0326 21.604 36.3193 20.9228 36.3193C20.2417 36.3193 19.9549 36.0326 19.6323 35.7099C19.4172 35.5307 19.2021 35.3156 18.8794 35.1363L18.7002 36.3193C18.9511 36.4269 19.1304 36.6061 19.3096 36.7854C19.704 37.1439 20.1342 37.5382 20.9228 37.5382C21.7115 37.5382 22.1776 37.1439 22.536 36.7854C22.8945 36.4627 23.1813 36.1759 23.8266 36.1759C24.4719 36.1759 24.7945 36.4627 25.153 36.7854C25.5474 37.1439 25.9417 37.5382 26.7662 37.5382C27.5908 37.5382 28.0209 37.1439 28.3794 36.7854C28.7379 36.4627 29.0247 36.1759 29.7059 36.1759C30.387 36.1759 30.2436 36.2476 30.4587 36.3552C30.6379 36.4627 30.8172 36.6061 30.9606 36.7495C31.3191 37.0722 31.7492 37.4665 32.5738 37.4665C33.3983 37.4665 33.8285 37.0722 34.2228 36.7137C34.5813 36.391 34.8681 36.1043 35.5492 36.1043C36.2304 36.1043 36.5172 36.391 36.8757 36.7137C37.27 37.0722 37.7002 37.4665 38.5247 37.4665C39.3492 37.4665 39.7794 37.0722 40.1738 36.7137C40.5323 36.391 40.8549 36.1043 41.5002 36.1043C42.1455 36.1043 42.4681 36.391 42.8266 36.7137L43.2209 35.7099C43.2209 35.7099 43.1492 35.6382 43.0775 35.6024V35.6741L43.1851 35.6382Z" fill="white"/>
<path d="M30.4945 35.1005C30.2794 34.9929 30.0643 34.9212 29.7417 34.9212C29.4191 34.9212 29.1681 34.9929 28.953 35.1363L30.5304 35.1363L30.4945 35.1363V35.1005Z" fill="white"/>
<path d="M23.0021 35.1722H24.687C24.4719 35.0288 24.2209 34.9212 23.8625 34.9212C23.504 34.9212 23.2172 35.0288 23.0021 35.1722Z" fill="white"/>
<path d="M45.1926 30.1892H41.8587L36.7323 26.3892H23.2889C23.0738 26.3892 22.8945 26.5684 22.8587 26.7835L22.07 30.1892H20.8153C20.6002 30.1892 20.4209 30.3326 20.3851 30.5118L19.4172 33.9892L19.3096 34.0967C19.453 34.2043 19.5606 34.3118 19.704 34.4193C20.0625 34.742 20.3493 35.0288 20.9945 35.0288C21.6398 35.0288 21.9625 34.742 22.3209 34.4193C22.7153 34.0609 23.1096 33.6665 23.9342 33.6665C24.7587 33.6665 25.1889 34.0609 25.5474 34.4193C25.9059 34.742 26.1926 35.0288 26.8379 35.0288C27.4832 35.0288 27.8059 34.742 28.1285 34.4193C28.5228 34.0609 28.9172 33.6665 29.7417 33.6665C30.5662 33.6665 30.387 33.7382 30.6021 33.8458C30.9247 33.9892 31.1398 34.2043 31.3908 34.3835C31.7492 34.7061 32.0719 34.9929 32.7172 34.9929C33.3625 34.9929 33.6851 34.7061 34.0436 34.3835C34.4379 34.025 34.8681 33.6307 35.6926 33.6307C36.5172 33.6307 36.9474 34.025 37.3417 34.3835C37.7002 34.7061 38.0228 34.9929 38.6681 34.9929C39.3134 34.9929 39.636 34.7061 39.9945 34.3835C40.3889 34.025 40.819 33.6307 41.6436 33.6307C42.4681 33.6307 42.5398 33.7741 42.8266 33.9892L45.3002 30.5476C45.3002 30.5476 45.3002 30.476 45.3002 30.4043C45.3002 30.2609 45.1926 30.1533 45.0492 30.1533H45.1568L45.1926 30.1892ZM27.5908 30.1892H23.0738L23.504 28.325H27.5191V28.3967H27.5908V30.225V30.1892ZM32.0719 30.1892H28.0926V28.325H32.0719V30.1892ZM32.7172 30.1892V28.325H37.3775L39.9228 30.1892H32.7172Z" fill="white"/>
<path d="M34.9757 35.1005H36.4455C36.2662 34.9929 36.0153 34.9212 35.7285 34.9212C35.4417 34.9212 35.1908 34.9929 34.9757 35.1005Z" fill="white"/>
<path d="M41.7153 34.9212C41.4285 34.9212 41.2492 34.9212 41.0341 35.0646H42.0379L42.1096 34.9929C42.0021 34.9929 41.8587 34.9929 41.7153 34.9929V34.9212Z" fill="white"/>
</g>
<defs>
<filter id="filter0_d_10410_4941" x="0" y="0" width="64" height="64" filterUnits="userSpaceOnUse" color-interpolation-filters="sRGB">
<feFlood flood-opacity="0" result="BackgroundImageFix"/>
<feColorMatrix in="SourceAlpha" type="matrix" values="0 0 0 0 0 0 0 0 0 0 0 0 0 0 0 0 0 0 127 0" result="hardAlpha"/>
<feOffset/>
<feGaussianBlur stdDeviation="4"/>
<feColorMatrix type="matrix" values="0 0 0 0 0 0 0 0 0 0 0 0 0 0 0 0 0 0 0.23 0"/>
<feBlend mode="normal" in2="BackgroundImageFix" result="effect1_dropShadow_10410_4941"/>
<feBlend mode="normal" in="SourceGraphic" in2="effect1_dropShadow_10410_4941" result="shape"/>
</filter>
</defs>
</svg>
