<svg width="56" height="56" viewBox="0 0 56 56" fill="none" xmlns="http://www.w3.org/2000/svg">
<g filter="url(#filter0_d_8318_7209)">
<g clip-path="url(#clip0_8318_7209)">
<rect x="10" y="8" width="36" height="36" rx="18" fill="#B3B3B3"/>
<path d="M41.3002 30.7389C41.3002 31.0889 41.1072 31.2833 40.7597 31.2833H36.7446V30.9333C36.7446 30.1555 36.4744 29.4555 35.8953 28.9111C35.3548 28.3666 34.6598 28.0555 33.8877 28.0555C33.1156 28.0555 32.3821 28.3278 31.8416 28.9111C31.3011 29.4555 30.9922 30.1555 30.9922 30.9333C30.9922 31.7111 30.9922 31.05 30.9922 31.0889V31.2444H24.931V30.8944C24.931 30.1166 24.6607 29.4166 24.1202 28.8722C23.5797 28.3278 22.8848 28.0166 22.0741 28.0166C21.2633 28.0166 20.5684 28.2889 20.0279 28.8722C19.4874 29.4166 19.2172 30.1166 19.2172 30.8944V31.2444H15.2407C15.0863 31.2444 14.9704 31.2444 14.8546 31.0889C14.7388 30.9722 14.7002 30.8555 14.7002 30.7V20.3944C14.7002 20.2389 14.7388 20.1222 14.8546 20.0055C14.9704 19.8889 15.0863 19.85 15.2407 19.85H40.6825C40.8369 19.85 40.9527 19.85 41.0686 20.0055C41.1844 20.1222 41.223 20.2389 41.223 20.3944H41.3002V30.7389ZM15.9742 26.5778H21.2633V22.1833H15.9742V26.5778ZM24.3519 30.9333C24.3519 31.5555 24.1202 32.0611 23.6955 32.4889C23.2709 32.9166 22.7304 33.15 22.1513 33.15C21.5722 33.15 21.0317 32.9166 20.607 32.4889C20.1823 32.0611 19.9507 31.5166 19.9507 30.9333C19.9507 30.35 20.1823 29.8055 20.607 29.3778C21.0317 28.95 21.5722 28.7555 22.1513 28.7555C22.7304 28.7555 23.2709 28.95 23.6955 29.3778C24.1202 29.8055 24.3519 30.3111 24.3519 30.9333ZM22.2285 26.5778H27.5176V22.1833H22.2285V26.5778ZM28.5214 26.5778H33.8491V22.1833H28.5214V26.5778ZM36.1269 30.9333C36.1269 31.5555 35.8953 32.0611 35.4706 32.4889C35.0459 32.9166 34.5054 33.15 33.9263 33.15C33.3472 33.15 32.8067 32.9166 32.3821 32.4889C31.9574 32.0611 31.7257 31.5166 31.7257 30.9333C31.7257 30.35 31.9574 29.8055 32.3821 29.3778C32.8067 28.95 33.3472 28.7555 33.9263 28.7555C34.5054 28.7555 35.0459 28.95 35.4706 29.3778C35.8953 29.8055 36.1269 30.3111 36.1269 30.9333ZM34.8143 26.5778H40.1034V22.1833H34.8143V26.5778Z" fill="white"/>
</g>
<rect x="9" y="7" width="38" height="38" rx="19" stroke="white" stroke-width="2"/>
</g>
<defs>
<filter id="filter0_d_8318_7209" x="0" y="0" width="56" height="56" filterUnits="userSpaceOnUse" color-interpolation-filters="sRGB">
<feFlood flood-opacity="0" result="BackgroundImageFix"/>
<feColorMatrix in="SourceAlpha" type="matrix" values="0 0 0 0 0 0 0 0 0 0 0 0 0 0 0 0 0 0 127 0" result="hardAlpha"/>
<feOffset dy="2"/>
<feGaussianBlur stdDeviation="4"/>
<feColorMatrix type="matrix" values="0 0 0 0 0 0 0 0 0 0 0 0 0 0 0 0 0 0 0.16 0"/>
<feBlend mode="normal" in2="BackgroundImageFix" result="effect1_dropShadow_8318_7209"/>
<feBlend mode="normal" in="SourceGraphic" in2="effect1_dropShadow_8318_7209" result="shape"/>
</filter>
<clipPath id="clip0_8318_7209">
<rect x="10" y="8" width="36" height="36" rx="18" fill="white"/>
</clipPath>
</defs>
</svg>
