<svg width="56" height="56" viewBox="0 0 56 56" fill="none" xmlns="http://www.w3.org/2000/svg">
<g filter="url(#filter0_d_8318_7239)">
<g clip-path="url(#clip0_8318_7239)">
<rect x="10" y="8" width="36" height="36" rx="18" fill="#007AB5"/>
<path d="M39.1841 29.6382C38.7898 29.2797 38.3596 28.8854 37.5351 28.8854C36.7105 28.8854 36.2803 29.2797 35.886 29.6382C35.5275 29.9609 35.2049 30.2476 34.5596 30.2476C33.9143 30.2476 33.5917 29.9609 33.2332 29.6382C32.8388 29.2797 32.4086 28.8854 31.5841 28.8854C30.7596 28.8854 30.3294 29.2797 29.9351 29.6382C29.5766 29.9609 29.2539 30.2476 28.6086 30.2476C27.9634 30.2476 27.6407 29.9609 27.2822 29.6382C27.103 29.459 26.8879 29.2797 26.6369 29.1363C26.6369 29.1363 26.5652 29.1363 26.5294 29.1363C26.2785 29.0288 26.0275 28.9571 25.669 28.9571C24.8445 28.9571 24.4143 29.3514 24.0558 29.7099C23.6973 30.0326 23.4105 30.3193 22.7653 30.3193C22.12 30.3193 21.7973 30.0326 21.4747 29.7099C21.0803 29.3514 20.686 28.9571 19.8615 28.9571C19.037 28.9571 18.6068 29.3514 18.2483 29.7099C17.8898 30.0326 17.603 30.3193 16.9219 30.3193C16.2407 30.3193 15.9539 30.0326 15.6313 29.7099C15.4162 29.5307 15.2011 29.3156 14.8785 29.1363L14.6992 30.3193C14.9502 30.4269 15.1294 30.6061 15.3087 30.7854C15.703 31.1439 16.1332 31.5382 16.9219 31.5382C17.7105 31.5382 18.1766 31.1439 18.5351 30.7854C18.8936 30.4627 19.1803 30.1759 19.8256 30.1759C20.4709 30.1759 20.7936 30.4627 21.152 30.7854C21.5464 31.1439 21.9407 31.5382 22.7653 31.5382C23.5898 31.5382 24.02 31.1439 24.3785 30.7854C24.7369 30.4627 25.0237 30.1759 25.7049 30.1759C26.386 30.1759 26.2426 30.2476 26.4577 30.3552C26.6369 30.4627 26.8162 30.6061 26.9596 30.7495C27.3181 31.0722 27.7483 31.4665 28.5728 31.4665C29.3973 31.4665 29.8275 31.0722 30.2219 30.7137C30.5803 30.391 30.8671 30.1042 31.5483 30.1042C32.2294 30.1042 32.5162 30.391 32.8747 30.7137C33.269 31.0722 33.6992 31.4665 34.5237 31.4665C35.3483 31.4665 35.7785 31.0722 36.1728 30.7137C36.5313 30.391 36.8539 30.1042 37.4992 30.1042C38.1445 30.1042 38.4671 30.391 38.8256 30.7137L39.22 29.7099C39.22 29.7099 39.1483 29.6382 39.0766 29.6024V29.6741L39.1841 29.6382Z" fill="white"/>
<path d="M26.4936 29.1005C26.2785 28.9929 26.0634 28.9212 25.7407 28.9212C25.4181 28.9212 25.1671 28.9929 24.952 29.1363L26.5294 29.1363L26.4936 29.1363V29.1005Z" fill="white"/>
<path d="M19.0011 29.1722H20.686C20.4709 29.0288 20.22 28.9212 19.8615 28.9212C19.503 28.9212 19.2162 29.0288 19.0011 29.1722Z" fill="white"/>
<path d="M41.1917 24.1892H37.8577L32.7313 20.3892H19.2879C19.0728 20.3892 18.8936 20.5684 18.8577 20.7835L18.069 24.1892H16.8143C16.5992 24.1892 16.42 24.3326 16.3841 24.5118L15.4162 27.9892L15.3087 28.0967C15.452 28.2043 15.5596 28.3118 15.703 28.4193C16.0615 28.742 16.3483 29.0288 16.9936 29.0288C17.6388 29.0288 17.9615 28.742 18.32 28.4193C18.7143 28.0609 19.1087 27.6665 19.9332 27.6665C20.7577 27.6665 21.1879 28.0609 21.5464 28.4193C21.9049 28.742 22.1917 29.0288 22.837 29.0288C23.4822 29.0288 23.8049 28.742 24.1275 28.4193C24.5219 28.0609 24.9162 27.6665 25.7407 27.6665C26.5653 27.6665 26.386 27.7382 26.6011 27.8458C26.9237 27.9892 27.1388 28.2043 27.3898 28.3835C27.7483 28.7061 28.0709 28.9929 28.7162 28.9929C29.3615 28.9929 29.6841 28.7061 30.0426 28.3835C30.4369 28.025 30.8671 27.6307 31.6917 27.6307C32.5162 27.6307 32.9464 28.025 33.3407 28.3835C33.6992 28.7061 34.0218 28.9929 34.6671 28.9929C35.3124 28.9929 35.6351 28.7061 35.9935 28.3835C36.3879 28.025 36.8181 27.6307 37.6426 27.6307C38.4671 27.6307 38.5388 27.7741 38.8256 27.9892L41.2992 24.5476C41.2992 24.5476 41.2992 24.476 41.2992 24.4043C41.2992 24.2609 41.1917 24.1533 41.0483 24.1533H41.1558L41.1917 24.1892ZM23.5898 24.1892H19.0728L19.503 22.325H23.5181V22.3967H23.5898V24.225V24.1892ZM28.0709 24.1892H24.0917V22.325H28.0709V24.1892ZM28.7162 24.1892V22.325H33.3766L35.9218 24.1892H28.7162Z" fill="white"/>
<path d="M30.9747 29.1005H32.4445C32.2652 28.9929 32.0143 28.9212 31.7275 28.9212C31.4407 28.9212 31.1898 28.9929 30.9747 29.1005Z" fill="white"/>
<path d="M37.7143 28.9212C37.4275 28.9212 37.2483 28.9212 37.0332 29.0646H38.0369L38.1086 28.9929C38.0011 28.9929 37.8577 28.9929 37.7143 28.9929V28.9212Z" fill="white"/>
</g>
<rect x="9" y="7" width="38" height="38" rx="19" stroke="white" stroke-width="2"/>
</g>
<defs>
<filter id="filter0_d_8318_7239" x="0" y="0" width="56" height="56" filterUnits="userSpaceOnUse" color-interpolation-filters="sRGB">
<feFlood flood-opacity="0" result="BackgroundImageFix"/>
<feColorMatrix in="SourceAlpha" type="matrix" values="0 0 0 0 0 0 0 0 0 0 0 0 0 0 0 0 0 0 127 0" result="hardAlpha"/>
<feOffset dy="2"/>
<feGaussianBlur stdDeviation="4"/>
<feColorMatrix type="matrix" values="0 0 0 0 0 0 0 0 0 0 0 0 0 0 0 0 0 0 0.16 0"/>
<feBlend mode="normal" in2="BackgroundImageFix" result="effect1_dropShadow_8318_7239"/>
<feBlend mode="normal" in="SourceGraphic" in2="effect1_dropShadow_8318_7239" result="shape"/>
</filter>
<clipPath id="clip0_8318_7239">
<rect x="10" y="8" width="36" height="36" rx="18" fill="white"/>
</clipPath>
</defs>
</svg>
