<svg width="64" height="64" viewBox="0 0 64 64" fill="none" xmlns="http://www.w3.org/2000/svg">
<g filter="url(#filter0_d_10364_4598)">
<path d="M10 32C10 19.8497 19.8497 10 32 10C44.1503 10 54 19.8497 54 32C54 44.1503 44.1503 54 32 54C19.8497 54 10 44.1503 10 32Z" fill="#676767"/>
<path d="M32 9C44.7025 9 55 19.2975 55 32C55 44.7025 44.7025 55 32 55C19.2975 55 9 44.7025 9 32C9 19.2975 19.2975 9 32 9Z" stroke="white" stroke-width="2"/>
<path d="M45.3002 36.7389C45.3002 37.0889 45.1072 37.2833 44.7597 37.2833H40.7446V36.9333C40.7446 36.1555 40.4744 35.4555 39.8953 34.9111C39.3548 34.3666 38.6598 34.0555 37.8877 34.0555C37.1156 34.0555 36.3821 34.3278 35.8416 34.9111C35.3011 35.4555 34.9922 36.1555 34.9922 36.9333C34.9922 37.7111 34.9922 37.05 34.9922 37.0889V37.2444H28.931V36.8944C28.931 36.1166 28.6607 35.4166 28.1202 34.8722C27.5797 34.3278 26.8848 34.0166 26.0741 34.0166C25.2633 34.0166 24.5684 34.2889 24.0279 34.8722C23.4874 35.4166 23.2172 36.1166 23.2172 36.8944V37.2444H19.2407C19.0863 37.2444 18.9704 37.2444 18.8546 37.0889C18.7388 36.9722 18.7002 36.8555 18.7002 36.7V26.3944C18.7002 26.2389 18.7388 26.1222 18.8546 26.0055C18.9704 25.8889 19.0863 25.85 19.2407 25.85H44.6825C44.8369 25.85 44.9527 25.85 45.0686 26.0055C45.1844 26.1222 45.223 26.2389 45.223 26.3944H45.3002V36.7389ZM19.9742 32.5778H25.2633V28.1833H19.9742V32.5778ZM28.3519 36.9333C28.3519 37.5555 28.1202 38.0611 27.6956 38.4889C27.2709 38.9166 26.7304 39.15 26.1513 39.15C25.5722 39.15 25.0317 38.9166 24.607 38.4889C24.1823 38.0611 23.9507 37.5166 23.9507 36.9333C23.9507 36.35 24.1823 35.8055 24.607 35.3778C25.0317 34.95 25.5722 34.7555 26.1513 34.7555C26.7304 34.7555 27.2709 34.95 27.6956 35.3778C28.1202 35.8055 28.3519 36.3111 28.3519 36.9333ZM26.2285 32.5778H31.5176V28.1833H26.2285V32.5778ZM32.5214 32.5778H37.8491V28.1833H32.5214V32.5778ZM40.1269 36.9333C40.1269 37.5555 39.8953 38.0611 39.4706 38.4889C39.0459 38.9166 38.5054 39.15 37.9263 39.15C37.3472 39.15 36.8067 38.9166 36.3821 38.4889C35.9574 38.0611 35.7257 37.5166 35.7257 36.9333C35.7257 36.35 35.9574 35.8055 36.3821 35.3778C36.8067 34.95 37.3472 34.7555 37.9263 34.7555C38.5054 34.7555 39.0459 34.95 39.4706 35.3778C39.8953 35.8055 40.1269 36.3111 40.1269 36.9333ZM38.8143 32.5778H44.1034V28.1833H38.8143V32.5778Z" fill="white"/>
</g>
<defs>
<filter id="filter0_d_10364_4598" x="0" y="0" width="64" height="64" filterUnits="userSpaceOnUse" color-interpolation-filters="sRGB">
<feFlood flood-opacity="0" result="BackgroundImageFix"/>
<feColorMatrix in="SourceAlpha" type="matrix" values="0 0 0 0 0 0 0 0 0 0 0 0 0 0 0 0 0 0 127 0" result="hardAlpha"/>
<feOffset/>
<feGaussianBlur stdDeviation="4"/>
<feColorMatrix type="matrix" values="0 0 0 0 0 0 0 0 0 0 0 0 0 0 0 0 0 0 0.23 0"/>
<feBlend mode="normal" in2="BackgroundImageFix" result="effect1_dropShadow_10364_4598"/>
<feBlend mode="normal" in="SourceGraphic" in2="effect1_dropShadow_10364_4598" result="shape"/>
</filter>
</defs>
</svg>
