<svg width="56" height="56" viewBox="0 0 56 56" fill="none" xmlns="http://www.w3.org/2000/svg">
<g filter="url(#filter0_d_787_5968)">
<g clip-path="url(#clip0_787_5968)">
<rect x="10" y="8" width="36" height="36" rx="18" fill="#AA8892"/>
<path d="M22.1689 34.8966C23.7789 34.8966 25.0811 33.5876 25.0811 31.9776C25.0811 30.3676 23.7789 29.0586 22.1689 29.0586C20.5589 29.0586 19.25 30.3676 19.25 31.9776C19.25 33.5876 20.5589 34.8966 22.1689 34.8966Z" fill="black"/>
<path d="M33.8311 34.8966C35.4411 34.8966 36.75 33.5876 36.75 31.9776C36.75 30.3676 35.4411 29.0586 33.8311 29.0586C32.2211 29.0586 30.9189 30.3676 30.9189 31.9776C30.9189 33.5876 32.2211 34.8966 33.8311 34.8966Z" fill="black"/>
<path fill-rule="evenodd" clip-rule="evenodd" d="M15.4561 23.8086C15.4561 23.3256 15.8481 22.9336 16.3311 22.9336H35C35.483 22.9336 35.875 23.3256 35.875 23.8086C35.875 24.2916 35.483 24.6836 35 24.6836H16.3311C15.8481 24.6836 15.4561 24.2916 15.4561 23.8086Z" fill="black"/>
<path fill-rule="evenodd" clip-rule="evenodd" d="M24.5 17.1025C24.983 17.1025 25.375 17.4945 25.375 17.9775V23.8085C25.375 24.2915 24.983 24.6835 24.5 24.6835C24.017 24.6835 23.625 24.2915 23.625 23.8085V17.9775C23.625 17.4945 24.017 17.1025 24.5 17.1025Z" fill="black"/>
<path fill-rule="evenodd" clip-rule="evenodd" d="M15.4561 17.9775C15.4561 17.4945 15.8481 17.1025 16.3311 17.1025H29.7011C30.7511 17.1025 31.731 17.6135 32.333 18.4745L35.5879 23.1295L38.7659 24.7185C39.8579 25.2645 40.5439 26.3705 40.5439 27.5885V30.8155C40.5439 31.9425 39.627 32.8595 38.5 32.8595H38.178C38.234 32.5795 38.2689 32.2855 38.2689 31.9845C38.2689 29.5345 36.2811 27.5535 33.8311 27.5535C31.3811 27.5535 29.4 29.5415 29.4 31.9845C29.4 32.2855 29.4281 32.5795 29.4841 32.8595H26.5159C26.5719 32.5795 26.6 32.2855 26.6 31.9845C26.6 29.5345 24.6119 27.5535 22.1689 27.5535C19.7259 27.5535 17.7311 29.5415 17.7311 31.9845C17.7311 32.1595 17.7449 32.3415 17.7659 32.5095L16.5901 31.9215C15.8971 31.5785 15.4561 30.8715 15.4561 30.0945V23.2345C15.4561 23.1155 15.484 22.9895 15.533 22.8775L17.3182 18.8595H16.3311C15.8481 18.8595 15.4561 18.4675 15.4561 17.9845V17.9775ZM19.236 18.8525L17.4231 22.9335H23.625V18.8525H19.236ZM25.375 18.8525V22.9335H33.3201L30.8981 19.4755C30.6251 19.0835 30.1771 18.8525 29.7011 18.8525H25.375Z" fill="black"/>
</g>
<rect x="9" y="7" width="38" height="38" rx="19" stroke="white" stroke-width="2"/>
</g>
<defs>
<filter id="filter0_d_787_5968" x="0" y="0" width="56" height="56" filterUnits="userSpaceOnUse" color-interpolation-filters="sRGB">
<feFlood flood-opacity="0" result="BackgroundImageFix"/>
<feColorMatrix in="SourceAlpha" type="matrix" values="0 0 0 0 0 0 0 0 0 0 0 0 0 0 0 0 0 0 127 0" result="hardAlpha"/>
<feOffset dy="2"/>
<feGaussianBlur stdDeviation="4"/>
<feColorMatrix type="matrix" values="0 0 0 0 0 0 0 0 0 0 0 0 0 0 0 0 0 0 0.16 0"/>
<feBlend mode="normal" in2="BackgroundImageFix" result="effect1_dropShadow_787_5968"/>
<feBlend mode="normal" in="SourceGraphic" in2="effect1_dropShadow_787_5968" result="shape"/>
</filter>
<clipPath id="clip0_787_5968">
<rect x="10" y="8" width="36" height="36" rx="18" fill="white"/>
</clipPath>
</defs>
</svg>
