<svg width="56" height="56" viewBox="0 0 56 56" fill="none" xmlns="http://www.w3.org/2000/svg">
<g filter="url(#filter0_d_8318_7225)">
<g clip-path="url(#clip0_8318_7225)">
<rect x="10" y="8" width="36" height="36" rx="18" fill="#005686"/>
<path d="M39.2008 29.5696C39.2008 29.8644 39.0382 30.0281 38.7456 30.0281H35.3645V29.7334C35.3645 29.0784 35.1369 28.4889 34.6493 28.0304C34.1941 27.572 33.6089 27.31 32.9587 27.31C32.3085 27.31 31.6908 27.5392 31.2356 28.0304C30.7805 28.4889 30.5204 29.0784 30.5204 29.7334C30.5204 30.3883 30.5204 29.8316 30.5204 29.8644V29.9953H25.4162V29.7006C25.4162 29.0456 25.1886 28.4562 24.7334 27.9977C24.2783 27.5392 23.6931 27.2772 23.0104 27.2772C22.3276 27.2772 21.7424 27.5065 21.2873 27.9977C20.8321 28.4562 20.6046 29.0456 20.6046 29.7006V29.9953H17.2559C17.1259 29.9953 17.0284 29.9953 16.9308 29.8644C16.8333 29.7661 16.8008 29.6679 16.8008 29.5369V20.8585C16.8008 20.7275 16.8333 20.6293 16.9308 20.531C17.0284 20.4328 17.1259 20.4 17.2559 20.4H38.6806C38.8107 20.4 38.9082 20.4 39.0057 20.531C39.1033 20.6293 39.1358 20.7275 39.1358 20.8585H39.2008V29.5696ZM17.8736 26.0655H22.3276V22.3649H17.8736V26.0655ZM24.9285 29.7334C24.9285 30.2573 24.7334 30.6831 24.3758 31.0433C24.0182 31.4035 23.563 31.6 23.0754 31.6C22.5877 31.6 22.1326 31.4035 21.7749 31.0433C21.4173 30.6831 21.2223 30.2246 21.2223 29.7334C21.2223 29.2421 21.4173 28.7836 21.7749 28.4234C22.1326 28.0632 22.5877 27.8994 23.0754 27.8994C23.563 27.8994 24.0182 28.0632 24.3758 28.4234C24.7334 28.7836 24.9285 29.2094 24.9285 29.7334ZM23.1404 26.0655H27.5944V22.3649H23.1404V26.0655ZM28.4397 26.0655H32.9262V22.3649H28.4397V26.0655ZM34.8443 29.7334C34.8443 30.2573 34.6493 30.6831 34.2916 31.0433C33.934 31.4035 33.4789 31.6 32.9912 31.6C32.5035 31.6 32.0484 31.4035 31.6908 31.0433C31.3331 30.6831 31.1381 30.2246 31.1381 29.7334C31.1381 29.2421 31.3331 28.7836 31.6908 28.4234C32.0484 28.0632 32.5035 27.8994 32.9912 27.8994C33.4789 27.8994 33.934 28.0632 34.2916 28.4234C34.6493 28.7836 34.8443 29.2094 34.8443 29.7334ZM33.739 26.0655H38.1929V22.3649H33.739V26.0655Z" fill="white"/>
</g>
<rect x="9" y="7" width="38" height="38" rx="19" stroke="white" stroke-width="2"/>
</g>
<defs>
<filter id="filter0_d_8318_7225" x="0" y="0" width="56" height="56" filterUnits="userSpaceOnUse" color-interpolation-filters="sRGB">
<feFlood flood-opacity="0" result="BackgroundImageFix"/>
<feColorMatrix in="SourceAlpha" type="matrix" values="0 0 0 0 0 0 0 0 0 0 0 0 0 0 0 0 0 0 127 0" result="hardAlpha"/>
<feOffset dy="2"/>
<feGaussianBlur stdDeviation="4"/>
<feColorMatrix type="matrix" values="0 0 0 0 0 0 0 0 0 0 0 0 0 0 0 0 0 0 0.16 0"/>
<feBlend mode="normal" in2="BackgroundImageFix" result="effect1_dropShadow_8318_7225"/>
<feBlend mode="normal" in="SourceGraphic" in2="effect1_dropShadow_8318_7225" result="shape"/>
</filter>
<clipPath id="clip0_8318_7225">
<rect x="10" y="8" width="36" height="36" rx="18" fill="white"/>
</clipPath>
</defs>
</svg>
