<svg width="64" height="64" viewBox="0 0 64 64" fill="none" xmlns="http://www.w3.org/2000/svg">
<g filter="url(#filter0_d_10364_4604)">
<path d="M10 30C10 17.8497 19.8497 8 32 8C44.1503 8 54 17.8497 54 30C54 42.1503 44.1503 52 32 52C19.8497 52 10 42.1503 10 30Z" fill="#007AB5"/>
<path d="M32 7C44.7025 7 55 17.2975 55 30C55 42.7025 44.7025 53 32 53C19.2975 53 9 42.7025 9 30C9 17.2975 19.2975 7 32 7Z" stroke="white" stroke-width="2"/>
<path d="M41.3237 37.4964C41.4009 37.4964 41.4781 37.5736 41.5553 37.6122L40.8218 38.616H40.7446C40.1269 38.3072 39.5864 37.9983 38.4282 37.9983C37.27 37.9983 36.7295 38.2685 36.0732 38.616C35.4169 38.9635 34.6448 39.3495 33.1777 39.3495C31.7106 39.3495 30.9385 38.9635 30.2822 38.616C29.6645 38.3072 29.124 37.9983 27.9272 37.9983C26.7304 37.9983 26.2285 38.2685 25.6108 38.616C24.9159 38.9635 24.1823 39.3495 22.7153 39.3495C21.2482 39.3495 20.5147 38.9635 19.8198 38.616C19.4723 38.423 19.1249 38.2685 18.7002 38.1527L19.0477 36.9559C19.5881 37.1103 20.0128 37.3034 20.3989 37.4964C21.0166 37.8053 21.5571 38.1141 22.7153 38.1141C23.8735 38.1141 24.414 37.8439 25.0703 37.4964C25.7266 37.149 26.4987 36.7629 27.9658 36.7629C29.4329 36.7629 30.205 37.149 30.8613 37.4964C31.479 37.8053 32.0195 38.1141 33.1777 38.1141C34.3359 38.1141 34.8764 37.8439 35.5327 37.4964C36.189 37.149 36.9612 36.7629 38.4282 36.7629C39.8953 36.7629 40.6674 37.149 41.3237 37.4964Z" fill="white"/>
<path d="M45.0299 32.0915H41.0535C41.0535 32.0915 39.3162 24.5632 39.2389 24.1385C39.1617 23.7138 38.8143 23.791 38.8143 23.791H36.8067C36.8067 23.791 36.5365 22.7101 36.4207 22.131C36.2662 21.5132 35.996 21.6677 35.996 21.6677C35.996 21.6677 33.3707 22.6714 33.0233 22.8259C32.6758 22.9803 32.7916 23.3664 32.7916 23.3664V25.7214H23.8735C23.2558 25.7214 23.2558 26.0688 23.2558 26.0688L21.7887 32.0915H20.8236C20.5919 32.0915 20.4375 32.2459 20.3989 32.4389L19.3951 35.9135C20.09 36.1066 20.5919 36.3768 21.0166 36.5699C21.5957 36.8787 21.9045 37.0331 22.7539 37.0331C23.6032 37.0331 23.9121 36.8787 24.4912 36.5699C25.2247 36.1838 26.2285 35.6819 27.9658 35.6819C29.7031 35.6819 30.7455 36.1838 31.479 36.5699C32.0581 36.8787 32.367 37.0331 33.2163 37.0331C34.0657 37.0331 34.3745 36.8787 34.9536 36.5699C35.6871 36.1838 36.6909 35.6819 38.4668 35.6819C40.2427 35.6819 41.2465 36.1838 41.98 36.5699C42.0572 36.5699 42.2503 36.6857 42.2503 36.6857L45.3002 32.4775C45.3002 32.4775 45.3002 32.4003 45.3002 32.3231C45.3002 32.1687 45.1844 32.0529 45.0299 32.0529V32.0915ZM23.7577 29.1574L24.1823 27.3429H28.1202V29.1574H23.7577ZM33.0619 29.1574H28.6993V27.3429H33.0619V29.1574ZM33.7568 29.1574V27.3429H38.1194L38.5826 29.1574H33.7568Z" fill="white"/>
</g>
<defs>
<filter id="filter0_d_10364_4604" x="0" y="0" width="64" height="64" filterUnits="userSpaceOnUse" color-interpolation-filters="sRGB">
<feFlood flood-opacity="0" result="BackgroundImageFix"/>
<feColorMatrix in="SourceAlpha" type="matrix" values="0 0 0 0 0 0 0 0 0 0 0 0 0 0 0 0 0 0 127 0" result="hardAlpha"/>
<feOffset dy="2"/>
<feGaussianBlur stdDeviation="4"/>
<feColorMatrix type="matrix" values="0 0 0 0 0 0 0 0 0 0 0 0 0 0 0 0 0 0 0.16 0"/>
<feBlend mode="normal" in2="BackgroundImageFix" result="effect1_dropShadow_10364_4604"/>
<feBlend mode="normal" in="SourceGraphic" in2="effect1_dropShadow_10364_4604" result="shape"/>
</filter>
</defs>
</svg>
