<svg width="28" height="28" viewBox="0 0 28 28" fill="none" xmlns="http://www.w3.org/2000/svg">
<path d="M0 4C0 1.79086 1.79086 0 4 0H24C26.2091 0 28 1.79086 28 4V24C28 26.2091 26.2091 28 24 28H4C1.79086 28 0 26.2091 0 24V4Z" fill="#E9494E"/>
<path d="M19.6 20.2003C19.445 20.2003 19.2951 20.1403 19.1751 20.0253L7.97506 8.82532C7.74006 8.59032 7.74006 8.21032 7.97506 7.97532C8.21006 7.74032 8.59005 7.74032 8.82505 7.97532L20.0251 19.1753C20.2601 19.4103 20.2601 19.7903 20.0251 20.0253C19.9101 20.1403 19.755 20.2003 19.6 20.2003Z" fill="white"/>
<path d="M14 22.6004C9.26001 22.6004 5.4 18.7404 5.4 14.0004C5.4 9.26039 9.26001 5.40039 14 5.40039C18.74 5.40039 22.6 9.26039 22.6 14.0004C22.6 18.7404 18.74 22.6004 14 22.6004ZM14 6.60039C9.92001 6.60039 6.60001 9.92039 6.60001 14.0004C6.60001 18.0804 9.92001 21.4004 14 21.4004C18.08 21.4004 21.4 18.0804 21.4 14.0004C21.4 9.92039 18.08 6.60039 14 6.60039Z" fill="white"/>
</svg>
