<svg width="28" height="28" viewBox="0 0 28 28" fill="none" xmlns="http://www.w3.org/2000/svg">
<path d="M0 4C0 1.79086 1.79086 0 4 0H24C26.2091 0 28 1.79086 28 4V24C28 26.2091 26.2091 28 24 28H4C1.79086 28 0 26.2091 0 24V4Z" fill="#007AB5"/>
<path d="M20.25 22.5409H7.75C6.485 22.5409 5.45996 21.5109 5.45996 20.2509V7.75094C5.45996 6.48594 6.485 5.46094 7.75 5.46094H20.25C21.515 5.46094 22.54 6.49094 22.54 7.75094V20.2509C22.54 21.5159 21.515 22.5409 20.25 22.5409ZM7.75 6.71094C7.175 6.71094 6.70996 7.17594 6.70996 7.75094V20.2509C6.70996 20.8259 7.175 21.2909 7.75 21.2909H20.25C20.825 21.2909 21.29 20.8259 21.29 20.2509V7.75094C21.29 7.17594 20.825 6.71094 20.25 6.71094H7.75Z" fill="white"/>
<path d="M11.085 19.2109C10.74 19.2109 10.46 18.9309 10.46 18.5859V9.4209C10.46 9.0759 10.74 8.7959 11.085 8.7959H14.415C16.14 8.7959 17.54 10.1959 17.54 11.9209C17.54 13.6459 16.14 15.0459 14.415 15.0459H11.71V18.5859C11.71 18.9309 11.43 19.2109 11.085 19.2109ZM11.71 13.7909H14.415C15.45 13.7909 16.29 12.9509 16.29 11.9159C16.29 10.8809 15.45 10.0409 14.415 10.0409H11.71V13.7909Z" fill="white"/>
</svg>
