<svg width="40" height="40" viewBox="0 0 40 40" fill="none" xmlns="http://www.w3.org/2000/svg">
<path fill-rule="evenodd" clip-rule="evenodd" d="M19.9953 2.08496C13.6253 2.08496 7.53528 5.85496 4.99528 11.805C2.62528 17.345 3.90524 22.055 6.57524 26.095C8.76524 29.405 11.9553 32.355 14.8453 35.025C15.3953 35.535 15.9252 36.035 16.4452 36.515C17.4052 37.415 18.6853 37.915 19.9953 37.915C21.3053 37.915 22.5853 37.415 23.5453 36.525C24.0353 36.065 24.5453 35.595 25.0553 35.125C27.9753 32.445 31.2153 29.455 33.4253 26.105C36.0953 22.065 37.3753 17.345 35.0053 11.815C32.4553 5.86496 26.3753 2.09496 19.9953 2.09496V2.08496ZM19.9953 11.675C16.3153 11.675 13.3252 14.655 13.3252 18.345C13.3252 22.035 16.3153 25.015 19.9953 25.015C23.6753 25.015 26.6653 22.035 26.6653 18.345C26.6653 14.655 23.6753 11.675 19.9953 11.675Z" fill="#007AB5" stroke="black"/>
</svg>
