<svg width="40" height="40" viewBox="0 0 40 40" fill="none" xmlns="http://www.w3.org/2000/svg">
<path fill-rule="evenodd" clip-rule="evenodd" d="M19.9994 36.6701C21.0094 36.6701 21.9694 36.2901 22.6994 35.6101C23.1994 35.1401 23.7194 34.6601 24.2394 34.1801C30.5994 28.3201 37.8494 21.6301 33.8594 12.3001C31.5194 6.83008 25.9094 3.33008 19.9994 3.33008C14.0894 3.33008 8.47944 6.83008 6.13944 12.3001C2.16944 21.5901 9.33946 28.2301 15.6595 34.0801C16.2195 34.6001 16.7695 35.1101 17.3095 35.6101C18.0295 36.2901 18.9994 36.6701 19.9994 36.6701ZM25.0094 15.0901C25.4994 14.6001 25.4994 13.8101 25.0094 13.3201C24.5194 12.8301 23.7294 12.8301 23.2394 13.3201L19.9994 16.5601L16.7594 13.3201C16.2694 12.8301 15.4794 12.8301 14.9894 13.3201C14.4994 13.8101 14.4994 14.6001 14.9894 15.0901L18.2294 18.3301L14.9894 21.5701C14.4994 22.0601 14.4994 22.8501 14.9894 23.3401C15.4794 23.8301 16.2694 23.8301 16.7594 23.3401L19.9994 20.1001L23.2394 23.3401C23.7294 23.8301 24.5194 23.8301 25.0094 23.3401C25.4994 22.8501 25.4994 22.0601 25.0094 21.5701L21.7694 18.3301L25.0094 15.0901Z" fill="#E31B22" stroke="#012C44"/>
</svg>
