<svg width="40" height="40" viewBox="0 0 40 40" fill="none" xmlns="http://www.w3.org/2000/svg">
<path fill-rule="evenodd" clip-rule="evenodd" d="M19.995 2.08594C13.625 2.08594 7.53498 5.85594 4.99498 11.8059C2.62498 17.3459 3.90493 22.0559 6.57493 26.0959C8.76493 29.4059 11.955 32.3559 14.845 35.0259C15.395 35.5359 15.9249 36.0359 16.4449 36.5159C17.4049 37.4159 18.685 37.9159 19.995 37.9159C21.305 37.9159 22.585 37.4159 23.545 36.5259C24.035 36.0659 24.545 35.5959 25.055 35.1259C27.975 32.4459 31.215 29.4559 33.425 26.1059C36.095 22.0659 37.375 17.3459 35.005 11.8159C32.455 5.86594 26.375 2.09594 19.995 2.09594V2.08594ZM19.995 11.6759C16.315 11.6759 13.3249 14.6559 13.3249 18.3459C13.3249 22.0359 16.315 25.0159 19.995 25.0159C23.675 25.0159 26.665 22.0359 26.665 18.3459C26.665 14.6559 23.675 11.6759 19.995 11.6759Z" fill="#007AB5" stroke="#012C44"/>
</svg>
