<svg width="60" height="65" viewBox="0 0 60 65" fill="none" xmlns="http://www.w3.org/2000/svg">
<g filter="url(#filter0_d_787_6472)">
<mask id="path-1-inside-1_787_6472" fill="white">
<path fill-rule="evenodd" clip-rule="evenodd" d="M16 6C11.5817 6 8 9.58172 8 14V27.7577V42C8 46.4183 11.5817 50 16 50H19.0486C22.0393 50 24.9778 51.0638 27.0226 53.2462C27.2503 53.4893 27.4744 53.7343 27.6944 53.9815C28.879 55.312 31.1727 55.3473 32.384 54.0382C32.6457 53.7553 32.9126 53.4746 33.184 53.1957C35.2608 51.0621 38.1772 50 41.1547 50H44C48.4183 50 52 46.4183 52 42V27.7577V14C52 9.58172 48.4183 6 44 6H16Z"/>
</mask>
<path fill-rule="evenodd" clip-rule="evenodd" d="M16 6C11.5817 6 8 9.58172 8 14V27.7577V42C8 46.4183 11.5817 50 16 50H19.0486C22.0393 50 24.9778 51.0638 27.0226 53.2462C27.2503 53.4893 27.4744 53.7343 27.6944 53.9815C28.879 55.312 31.1727 55.3473 32.384 54.0382C32.6457 53.7553 32.9126 53.4746 33.184 53.1957C35.2608 51.0621 38.1772 50 41.1547 50H44C48.4183 50 52 46.4183 52 42V27.7577V14C52 9.58172 48.4183 6 44 6H16Z" fill="#007AB5"/>
<path d="M27.6944 53.9815L26.2005 55.3112L26.2006 55.3114L27.6944 53.9815ZM32.384 54.0382L33.852 55.3965L33.8521 55.3964L32.384 54.0382ZM27.0226 53.2462L25.5631 54.6137L27.0226 53.2462ZM10 14C10 10.6863 12.6863 8 16 8V4C10.4772 4 6 8.47715 6 14H10ZM10 27.7577V14H6V27.7577H10ZM10 42V27.7577H6V42H10ZM16 48C12.6863 48 10 45.3137 10 42H6C6 47.5228 10.4772 52 16 52V48ZM19.0486 48H16V52H19.0486V48ZM25.5631 54.6137C25.7799 54.8451 25.9925 55.0776 26.2005 55.3112L29.1883 52.6517C28.9563 52.3911 28.7207 52.1335 28.4821 51.8788L25.5631 54.6137ZM26.2006 55.3114C28.1611 57.5134 31.8291 57.5827 33.852 55.3965L30.916 52.6799C30.5164 53.1118 29.597 53.1107 29.1882 52.6516L26.2006 55.3114ZM33.8521 55.3964C34.1015 55.1269 34.3567 54.8584 34.6172 54.5907L31.7509 51.8008C31.4686 52.0907 31.19 52.3837 30.9159 52.68L33.8521 55.3964ZM44 48H41.1547V52H44V48ZM50 42C50 45.3137 47.3137 48 44 48V52C49.5228 52 54 47.5228 54 42H50ZM50 27.7577V42H54V27.7577H50ZM50 14V27.7577H54V14H50ZM44 8C47.3137 8 50 10.6863 50 14H54C54 8.47715 49.5228 4 44 4V8ZM16 8H44V4H16V8ZM34.6172 54.5907C36.2654 52.8974 38.6375 52 41.1547 52V48C37.717 48 34.2562 49.2268 31.7509 51.8008L34.6172 54.5907ZM19.0486 52C21.5852 52 23.9591 52.9017 25.5631 54.6137L28.4821 51.8788C25.9964 49.2258 22.4933 48 19.0486 48V52Z" fill="#012C44" mask="url(#path-1-inside-1_787_6472)"/>
<path d="M40.8315 31.2295C40.4849 30.9144 40.1068 30.5678 39.382 30.5678C38.6572 30.5678 38.2791 30.9144 37.9325 31.2295C37.6174 31.5131 37.3338 31.7652 36.7666 31.7652C36.1994 31.7652 35.9158 31.5131 35.6006 31.2295C35.254 30.9144 34.8759 30.5678 34.1511 30.5678C33.4264 30.5678 33.0482 30.9144 32.7016 31.2295C32.3865 31.5131 32.1029 31.7652 31.5357 31.7652C30.9685 31.7652 30.6849 31.5131 30.3698 31.2295C30.2122 31.072 30.0232 30.9144 29.8026 30.7884C29.8026 30.7884 29.7396 30.7884 29.708 30.7884C29.4875 30.6938 29.2669 30.6308 28.9518 30.6308C28.227 30.6308 27.8489 30.9774 27.5338 31.2925C27.2186 31.5761 26.9666 31.8282 26.3994 31.8282C25.8322 31.8282 25.5486 31.5761 25.265 31.2925C24.9183 30.9774 24.5717 30.6308 23.8469 30.6308C23.1222 30.6308 22.7441 30.9774 22.4289 31.2925C22.1138 31.5761 21.8617 31.8282 21.263 31.8282C20.6643 31.8282 20.4122 31.5761 20.1286 31.2925C19.9396 31.135 19.7505 30.9459 19.4669 30.7884L19.3093 31.8282C19.5299 31.9228 19.6875 32.0803 19.845 32.2379C20.1916 32.553 20.5698 32.8996 21.263 32.8996C21.9563 32.8996 22.3659 32.553 22.681 32.2379C22.9961 31.9543 23.2482 31.7022 23.8154 31.7022C24.3826 31.7022 24.6662 31.9543 24.9814 32.2379C25.328 32.553 25.6746 32.8996 26.3994 32.8996C27.1241 32.8996 27.5023 32.553 27.8174 32.2379C28.1325 31.9543 28.3846 31.7022 28.9833 31.7022C29.582 31.7022 29.4559 31.7652 29.645 31.8597C29.8026 31.9543 29.9601 32.0803 30.0862 32.2064C30.4013 32.49 30.7794 32.8366 31.5042 32.8366C32.2289 32.8366 32.6071 32.49 32.9537 32.1749C33.2688 31.8912 33.5209 31.6392 34.1196 31.6392C34.7183 31.6392 34.9704 31.8912 35.2855 32.1749C35.6322 32.49 36.0103 32.8366 36.735 32.8366C37.4598 32.8366 37.8379 32.49 38.1846 32.1749C38.4997 31.8912 38.7833 31.6392 39.3505 31.6392C39.9177 31.6392 40.2013 31.8912 40.5164 32.1749L40.863 31.2925C40.863 31.2925 40.8 31.2295 40.737 31.198V31.261L40.8315 31.2295Z" fill="white"/>
<path d="M29.6765 30.7568C29.4875 30.6623 29.2984 30.5993 29.0148 30.5993C28.7312 30.5993 28.5106 30.6623 28.3215 30.7884L29.708 30.7884L29.6765 30.7884V30.7568Z" fill="white"/>
<path d="M23.0907 30.8199H24.5717C24.3826 30.6938 24.1621 30.5993 23.8469 30.5993C23.5318 30.5993 23.2797 30.6938 23.0907 30.8199Z" fill="white"/>
<path d="M42.5961 26.4398H39.6656L35.1595 23.0996H23.3428C23.1537 23.0996 22.9961 23.2572 22.9646 23.4462L22.2714 26.4398H21.1685C20.9794 26.4398 20.8219 26.5658 20.7904 26.7234L19.9396 29.78L19.845 29.8745C19.9711 29.9691 20.0656 30.0636 20.1916 30.1581C20.5068 30.4417 20.7588 30.6938 21.326 30.6938C21.8932 30.6938 22.1768 30.4417 22.492 30.1581C22.8386 29.843 23.1852 29.4964 23.91 29.4964C24.6347 29.4964 25.0129 29.843 25.328 30.1581C25.6431 30.4417 25.8952 30.6938 26.4624 30.6938C27.0296 30.6938 27.3132 30.4417 27.5968 30.1581C27.9434 29.843 28.29 29.4964 29.0148 29.4964C29.7396 29.4964 29.582 29.5594 29.7711 29.654C30.0547 29.78 30.2437 29.9691 30.4643 30.1266C30.7794 30.4102 31.063 30.6623 31.6302 30.6623C32.1974 30.6623 32.481 30.4102 32.7961 30.1266C33.1428 29.8115 33.5209 29.4649 34.2457 29.4649C34.9704 29.4649 35.3486 29.8115 35.6952 30.1266C36.0103 30.4102 36.2939 30.6623 36.8611 30.6623C37.4283 30.6623 37.7119 30.4102 38.027 30.1266C38.3736 29.8115 38.7518 29.4649 39.4765 29.4649C40.2013 29.4649 40.2643 29.5909 40.5164 29.78L42.6907 26.7549C42.6907 26.7549 42.6907 26.6919 42.6907 26.6289C42.6907 26.5028 42.5961 26.4083 42.4701 26.4083H42.5646L42.5961 26.4398ZM27.1241 26.4398H23.1537L23.5318 24.8012H27.0611V24.8642H27.1241V26.4713V26.4398ZM31.063 26.4398H27.5653V24.8012H31.063V26.4398ZM31.6302 26.4398V24.8012H35.7267L37.964 26.4398H31.6302Z" fill="white"/>
<path d="M33.6154 30.7568H34.9074C34.7498 30.6623 34.5293 30.5993 34.2772 30.5993C34.0251 30.5993 33.8045 30.6623 33.6154 30.7568Z" fill="white"/>
<path d="M39.5396 30.5993C39.2875 30.5993 39.1299 30.5993 38.9408 30.7253H39.8232L39.8862 30.6623C39.7916 30.6623 39.6656 30.6623 39.5396 30.6623V30.5993Z" fill="white"/>
</g>
<defs>
<filter id="filter0_d_787_6472" x="0" y="0" width="60" height="65" filterUnits="userSpaceOnUse" color-interpolation-filters="sRGB">
<feFlood flood-opacity="0" result="BackgroundImageFix"/>
<feColorMatrix in="SourceAlpha" type="matrix" values="0 0 0 0 0 0 0 0 0 0 0 0 0 0 0 0 0 0 127 0" result="hardAlpha"/>
<feOffset dy="2"/>
<feGaussianBlur stdDeviation="4"/>
<feColorMatrix type="matrix" values="0 0 0 0 0 0 0 0 0 0 0 0 0 0 0 0 0 0 0.16 0"/>
<feBlend mode="normal" in2="BackgroundImageFix" result="effect1_dropShadow_787_6472"/>
<feBlend mode="normal" in="SourceGraphic" in2="effect1_dropShadow_787_6472" result="shape"/>
</filter>
</defs>
</svg>
