<svg width="60" height="65" viewBox="0 0 60 65" fill="none" xmlns="http://www.w3.org/2000/svg">
<g filter="url(#filter0_d_8318_8677)">
<mask id="path-1-inside-1_8318_8677" fill="white">
<path fill-rule="evenodd" clip-rule="evenodd" d="M16 6C11.5817 6 8 9.58172 8 14V27.7577V42C8 46.4183 11.5817 50 16 50H19.0486C22.0393 50 24.9778 51.0638 27.0226 53.2462C27.2503 53.4893 27.4744 53.7343 27.6944 53.9815C28.879 55.312 31.1727 55.3473 32.384 54.0382C32.6457 53.7553 32.9126 53.4746 33.184 53.1957C35.2608 51.0621 38.1772 50 41.1547 50H44C48.4183 50 52 46.4183 52 42V27.7577V14C52 9.58172 48.4183 6 44 6H16Z"/>
</mask>
<path fill-rule="evenodd" clip-rule="evenodd" d="M16 6C11.5817 6 8 9.58172 8 14V27.7577V42C8 46.4183 11.5817 50 16 50H19.0486C22.0393 50 24.9778 51.0638 27.0226 53.2462C27.2503 53.4893 27.4744 53.7343 27.6944 53.9815C28.879 55.312 31.1727 55.3473 32.384 54.0382C32.6457 53.7553 32.9126 53.4746 33.184 53.1957C35.2608 51.0621 38.1772 50 41.1547 50H44C48.4183 50 52 46.4183 52 42V27.7577V14C52 9.58172 48.4183 6 44 6H16Z" fill="#007AB5"/>
<path d="M27.6944 53.9815L26.2005 55.3112L26.2006 55.3114L27.6944 53.9815ZM32.384 54.0382L33.852 55.3965L33.8521 55.3964L32.384 54.0382ZM27.0226 53.2462L25.5631 54.6137L27.0226 53.2462ZM8 14H10C10 10.6863 12.6863 8 16 8V6V4C10.4772 4 6 8.47715 6 14H8ZM8 27.7577H10V14H8H6V27.7577H8ZM8 42H10V27.7577H8H6V42H8ZM16 50V48C12.6863 48 10 45.3137 10 42H8H6C6 47.5228 10.4772 52 16 52V50ZM19.0486 50V48H16V50V52H19.0486V50ZM27.0226 53.2462L25.5631 54.6137C25.7799 54.8451 25.9925 55.0776 26.2005 55.3112L27.6944 53.9815L29.1883 52.6517C28.9563 52.3911 28.7207 52.1335 28.4821 51.8788L27.0226 53.2462ZM27.6944 53.9815L26.2006 55.3114C28.1611 57.5134 31.8291 57.5827 33.852 55.3965L32.384 54.0382L30.916 52.6799C30.5164 53.1118 29.597 53.1107 29.1882 52.6515L27.6944 53.9815ZM32.384 54.0382L33.8521 55.3964C34.1015 55.1269 34.3567 54.8584 34.6172 54.5907L33.184 53.1957L31.7509 51.8008C31.4686 52.0907 31.19 52.3837 30.9159 52.68L32.384 54.0382ZM44 50V48H41.1547V50V52H44V50ZM52 42H50C50 45.3137 47.3137 48 44 48V50V52C49.5228 52 54 47.5228 54 42H52ZM52 27.7577H50V42H52H54V27.7577H52ZM52 14H50V27.7577H52H54V14H52ZM44 6V8C47.3137 8 50 10.6863 50 14H52H54C54 8.47715 49.5228 4 44 4V6ZM16 6V8H44V6V4H16V6ZM33.184 53.1957L34.6172 54.5907C36.2654 52.8974 38.6375 52 41.1547 52V50V48C37.717 48 34.2562 49.2268 31.7509 51.8008L33.184 53.1957ZM19.0486 50V52C21.5852 52 23.9591 52.9017 25.5631 54.6137L27.0226 53.2462L28.4821 51.8788C25.9964 49.2258 22.4933 48 19.0486 48V50Z" fill="#012C44" mask="url(#path-1-inside-1_8318_8677)"/>
<path d="M41.1841 31.6382C40.7898 31.2797 40.3596 30.8853 39.5351 30.8853C38.7105 30.8853 38.2803 31.2797 37.886 31.6382C37.5275 31.9608 37.2049 32.2476 36.5596 32.2476C35.9143 32.2476 35.5917 31.9608 35.2332 31.6382C34.8388 31.2797 34.4086 30.8853 33.5841 30.8853C32.7596 30.8853 32.3294 31.2797 31.9351 31.6382C31.5766 31.9608 31.2539 32.2476 30.6086 32.2476C29.9634 32.2476 29.6407 31.9608 29.2822 31.6382C29.103 31.4589 28.8879 31.2797 28.6369 31.1363C28.6369 31.1363 28.5652 31.1363 28.5294 31.1363C28.2785 31.0287 28.0275 30.957 27.669 30.957C26.8445 30.957 26.4143 31.3514 26.0558 31.7098C25.6973 32.0325 25.4105 32.3193 24.7653 32.3193C24.12 32.3193 23.7973 32.0325 23.4747 31.7098C23.0803 31.3514 22.686 30.957 21.8615 30.957C21.037 30.957 20.6068 31.3514 20.2483 31.7098C19.8898 32.0325 19.603 32.3193 18.9219 32.3193C18.2407 32.3193 17.9539 32.0325 17.6313 31.7098C17.4162 31.5306 17.2011 31.3155 16.8785 31.1363L16.6992 32.3193C16.9502 32.4268 17.1294 32.6061 17.3087 32.7853C17.703 33.1438 18.1332 33.5382 18.9219 33.5382C19.7105 33.5382 20.1766 33.1438 20.5351 32.7853C20.8936 32.4627 21.1803 32.1759 21.8256 32.1759C22.4709 32.1759 22.7936 32.4627 23.152 32.7853C23.5464 33.1438 23.9407 33.5382 24.7653 33.5382C25.5898 33.5382 26.02 33.1438 26.3785 32.7853C26.7369 32.4627 27.0237 32.1759 27.7049 32.1759C28.386 32.1759 28.2426 32.2476 28.4577 32.3551C28.6369 32.4627 28.8162 32.6061 28.9596 32.7495C29.3181 33.0721 29.7483 33.4665 30.5728 33.4665C31.3973 33.4665 31.8275 33.0721 32.2219 32.7136C32.5803 32.391 32.8671 32.1042 33.5483 32.1042C34.2294 32.1042 34.5162 32.391 34.8747 32.7136C35.269 33.0721 35.6992 33.4665 36.5237 33.4665C37.3483 33.4665 37.7785 33.0721 38.1728 32.7136C38.5313 32.391 38.8539 32.1042 39.4992 32.1042C40.1445 32.1042 40.4671 32.391 40.8256 32.7136L41.22 31.7098C41.22 31.7098 41.1483 31.6382 41.0766 31.6023V31.674L41.1841 31.6382Z" fill="white"/>
<path d="M28.4936 31.1004C28.2785 30.9929 28.0634 30.9212 27.7407 30.9212C27.4181 30.9212 27.1671 30.9929 26.952 31.1363L28.5294 31.1363L28.4936 31.1363V31.1004Z" fill="white"/>
<path d="M21.0011 31.1721H22.686C22.4709 31.0287 22.22 30.9212 21.8615 30.9212C21.503 30.9212 21.2162 31.0287 21.0011 31.1721Z" fill="white"/>
<path d="M43.1917 26.1891H39.8577L34.7313 22.3891H21.2879C21.0728 22.3891 20.8936 22.5683 20.8577 22.7834L20.069 26.1891H18.8143C18.5992 26.1891 18.42 26.3325 18.3841 26.5117L17.4162 29.9891L17.3087 30.0966C17.452 30.2042 17.5596 30.3117 17.703 30.4193C18.0615 30.7419 18.3483 31.0287 18.9936 31.0287C19.6388 31.0287 19.9615 30.7419 20.32 30.4193C20.7143 30.0608 21.1087 29.6665 21.9332 29.6665C22.7577 29.6665 23.1879 30.0608 23.5464 30.4193C23.9049 30.7419 24.1917 31.0287 24.837 31.0287C25.4822 31.0287 25.8049 30.7419 26.1275 30.4193C26.5219 30.0608 26.9162 29.6665 27.7407 29.6665C28.5653 29.6665 28.386 29.7382 28.6011 29.8457C28.9237 29.9891 29.1388 30.2042 29.3898 30.3834C29.7483 30.7061 30.0709 30.9929 30.7162 30.9929C31.3615 30.9929 31.6841 30.7061 32.0426 30.3834C32.4369 30.0249 32.8671 29.6306 33.6917 29.6306C34.5162 29.6306 34.9464 30.0249 35.3407 30.3834C35.6992 30.7061 36.0218 30.9929 36.6671 30.9929C37.3124 30.9929 37.6351 30.7061 37.9935 30.3834C38.3879 30.0249 38.8181 29.6306 39.6426 29.6306C40.4671 29.6306 40.5388 29.774 40.8256 29.9891L43.2992 26.5476C43.2992 26.5476 43.2992 26.4759 43.2992 26.4042C43.2992 26.2608 43.1917 26.1532 43.0483 26.1532H43.1558L43.1917 26.1891ZM25.5898 26.1891H21.0728L21.503 24.3249H25.5181V24.3966H25.5898V26.2249V26.1891ZM30.0709 26.1891H26.0917V24.3249H30.0709V26.1891ZM30.7162 26.1891V24.3249H35.3766L37.9218 26.1891H30.7162Z" fill="white"/>
<path d="M32.9747 31.1004H34.4445C34.2652 30.9929 34.0143 30.9212 33.7275 30.9212C33.4407 30.9212 33.1898 30.9929 32.9747 31.1004Z" fill="white"/>
<path d="M39.7143 30.9212C39.4275 30.9212 39.2483 30.9212 39.0332 31.0646H40.0369L40.1086 30.9929C40.0011 30.9929 39.8577 30.9929 39.7143 30.9929V30.9212Z" fill="white"/>
</g>
<defs>
<filter id="filter0_d_8318_8677" x="0" y="0" width="60" height="65" filterUnits="userSpaceOnUse" color-interpolation-filters="sRGB">
<feFlood flood-opacity="0" result="BackgroundImageFix"/>
<feColorMatrix in="SourceAlpha" type="matrix" values="0 0 0 0 0 0 0 0 0 0 0 0 0 0 0 0 0 0 127 0" result="hardAlpha"/>
<feOffset dy="2"/>
<feGaussianBlur stdDeviation="4"/>
<feColorMatrix type="matrix" values="0 0 0 0 0 0 0 0 0 0 0 0 0 0 0 0 0 0 0.16 0"/>
<feBlend mode="normal" in2="BackgroundImageFix" result="effect1_dropShadow_8318_8677"/>
<feBlend mode="normal" in="SourceGraphic" in2="effect1_dropShadow_8318_8677" result="shape"/>
</filter>
</defs>
</svg>
