<svg width="44" height="44" viewBox="0 0 44 44" fill="none" xmlns="http://www.w3.org/2000/svg">
<g filter="url(#filter0_d_8318_8649)">
<g clip-path="url(#clip0_8318_8649)">
<rect x="8" y="6" width="28" height="28" rx="4" fill="#007AB5"/>
<path d="M29.9892 22.5883C29.7075 22.3322 29.4003 22.0505 28.8113 22.0505C28.2224 22.0505 27.9151 22.3322 27.6334 22.5883C27.3774 22.8187 27.1469 23.0236 26.686 23.0236C26.2251 23.0236 25.9946 22.8187 25.7385 22.5883C25.4569 22.3322 25.1496 22.0505 24.5606 22.0505C23.9717 22.0505 23.6644 22.3322 23.3827 22.5883C23.1267 22.8187 22.8962 23.0236 22.4353 23.0236C21.9744 23.0236 21.7439 22.8187 21.4879 22.5883C21.3598 22.4602 21.2062 22.3322 21.0269 22.2298C21.0269 22.2298 20.9757 22.2298 20.9501 22.2298C20.7709 22.153 20.5916 22.1018 20.3356 22.1018C19.7466 22.1018 19.4393 22.3834 19.1833 22.6395C18.9272 22.8699 18.7224 23.0748 18.2615 23.0748C17.8005 23.0748 17.5701 22.8699 17.3396 22.6395C17.0579 22.3834 16.7763 22.1018 16.1873 22.1018C15.5984 22.1018 15.2911 22.3834 15.035 22.6395C14.779 22.8699 14.5741 23.0748 14.0876 23.0748C13.6011 23.0748 13.3962 22.8699 13.1658 22.6395C13.0121 22.5115 12.8585 22.3578 12.628 22.2298L12.5 23.0748C12.6792 23.1516 12.8073 23.2797 12.9353 23.4077C13.217 23.6637 13.5243 23.9454 14.0876 23.9454C14.6509 23.9454 14.9838 23.6637 15.2399 23.4077C15.496 23.1772 15.7008 22.9724 16.1617 22.9724C16.6226 22.9724 16.8531 23.1772 17.1092 23.4077C17.3908 23.6637 17.6725 23.9454 18.2615 23.9454C18.8504 23.9454 19.1577 23.6637 19.4137 23.4077C19.6698 23.1772 19.8747 22.9724 20.3612 22.9724C20.8477 22.9724 20.7453 23.0236 20.8989 23.1004C21.0269 23.1772 21.155 23.2797 21.2574 23.3821C21.5135 23.6125 21.8208 23.8942 22.4097 23.8942C22.9986 23.8942 23.3059 23.6125 23.5876 23.3565C23.8437 23.126 24.0485 22.9212 24.535 22.9212C25.0216 22.9212 25.2264 23.126 25.4825 23.3565C25.7641 23.6125 26.0714 23.8942 26.6604 23.8942C27.2493 23.8942 27.5566 23.6125 27.8383 23.3565C28.0943 23.126 28.3248 22.9212 28.7857 22.9212C29.2466 22.9212 29.4771 23.126 29.7331 23.3565L30.0148 22.6395C30.0148 22.6395 29.9636 22.5883 29.9124 22.5627V22.6139L29.9892 22.5883Z" fill="white"/>
<path d="M20.9245 22.2042C20.7709 22.1274 20.6172 22.0762 20.3868 22.0762C20.1563 22.0762 19.9771 22.1274 19.8234 22.2298L20.9501 22.2298L20.9245 22.2298V22.2042Z" fill="white"/>
<path d="M15.5728 22.2554H16.7763C16.6226 22.153 16.4434 22.0762 16.1873 22.0762C15.9313 22.0762 15.7264 22.153 15.5728 22.2554Z" fill="white"/>
<path d="M31.4232 18.6961H29.0418L25.38 15.9818H15.7776C15.624 15.9818 15.496 16.1098 15.4703 16.2635L14.907 18.6961H14.0108C13.8571 18.6961 13.7291 18.7985 13.7035 18.9266L13.0121 21.4104L12.9353 21.4872C13.0377 21.564 13.1146 21.6408 13.217 21.7177C13.473 21.9481 13.6779 22.153 14.1388 22.153C14.5997 22.153 14.8302 21.9481 15.0863 21.7177C15.3679 21.4616 15.6496 21.1799 16.2385 21.1799C16.8275 21.1799 17.1348 21.4616 17.3908 21.7177C17.6469 21.9481 17.8518 22.153 18.3127 22.153C18.7736 22.153 19.004 21.9481 19.2345 21.7177C19.5162 21.4616 19.7978 21.1799 20.3868 21.1799C20.9757 21.1799 20.8477 21.2311 21.0013 21.308C21.2318 21.4104 21.3854 21.564 21.5647 21.6921C21.8207 21.9225 22.0512 22.1274 22.5121 22.1274C22.973 22.1274 23.2035 21.9225 23.4596 21.6921C23.7412 21.436 24.0485 21.1543 24.6375 21.1543C25.2264 21.1543 25.5337 21.436 25.8154 21.6921C26.0714 21.9225 26.3019 22.1274 26.7628 22.1274C27.2237 22.1274 27.4542 21.9225 27.7102 21.6921C27.9919 21.436 28.2992 21.1543 28.8881 21.1543C29.4771 21.1543 29.5283 21.2567 29.7331 21.4104L31.5 18.9522C31.5 18.9522 31.5 18.9009 31.5 18.8497C31.5 18.7473 31.4232 18.6705 31.3207 18.6705H31.3976L31.4232 18.6961ZM18.8504 18.6961H15.624L15.9313 17.3646H18.7992V17.4158H18.8504V18.7217V18.6961ZM22.0512 18.6961H19.2089V17.3646H22.0512V18.6961ZM22.5121 18.6961V17.3646H25.841L27.659 18.6961H22.5121Z" fill="white"/>
<path d="M24.1253 22.2042H25.1752C25.0472 22.1274 24.8679 22.0762 24.6631 22.0762C24.4582 22.0762 24.279 22.1274 24.1253 22.2042Z" fill="white"/>
<path d="M28.9393 22.0762C28.7345 22.0762 28.6065 22.0761 28.4528 22.1786H29.1698L29.221 22.1274C29.1442 22.1274 29.0418 22.1274 28.9393 22.1274V22.0762Z" fill="white"/>
</g>
<rect x="9" y="7" width="26" height="26" rx="3" stroke="#012C44" stroke-width="2"/>
</g>
<defs>
<filter id="filter0_d_8318_8649" x="0" y="0" width="44" height="44" filterUnits="userSpaceOnUse" color-interpolation-filters="sRGB">
<feFlood flood-opacity="0" result="BackgroundImageFix"/>
<feColorMatrix in="SourceAlpha" type="matrix" values="0 0 0 0 0 0 0 0 0 0 0 0 0 0 0 0 0 0 127 0" result="hardAlpha"/>
<feOffset dy="2"/>
<feGaussianBlur stdDeviation="4"/>
<feColorMatrix type="matrix" values="0 0 0 0 0 0 0 0 0 0 0 0 0 0 0 0 0 0 0.16 0"/>
<feBlend mode="normal" in2="BackgroundImageFix" result="effect1_dropShadow_8318_8649"/>
<feBlend mode="normal" in="SourceGraphic" in2="effect1_dropShadow_8318_8649" result="shape"/>
</filter>
<clipPath id="clip0_8318_8649">
<rect x="8" y="6" width="28" height="28" rx="4" fill="white"/>
</clipPath>
</defs>
</svg>
