<svg width="102" height="65" viewBox="0 0 102 65" fill="none" xmlns="http://www.w3.org/2000/svg">
<g filter="url(#filter0_d_896_7570)">
<mask id="path-1-inside-1_896_7570" fill="white">
<path fill-rule="evenodd" clip-rule="evenodd" d="M16 6C11.5817 6 8 9.58172 8 14V42C8 46.4183 11.5817 50 16 50H40.0486C43.0393 50 45.9778 51.0638 48.0226 53.2462C48.2503 53.4893 48.4744 53.7343 48.6944 53.9815C49.879 55.312 52.1727 55.3473 53.384 54.0382C53.6458 53.7553 53.9126 53.4746 54.184 53.1957C56.2608 51.0621 59.1772 50 62.1547 50H86C90.4183 50 94 46.4183 94 42V14C94 9.58172 90.4183 6 86 6H16Z"/>
</mask>
<path fill-rule="evenodd" clip-rule="evenodd" d="M16 6C11.5817 6 8 9.58172 8 14V42C8 46.4183 11.5817 50 16 50H40.0486C43.0393 50 45.9778 51.0638 48.0226 53.2462C48.2503 53.4893 48.4744 53.7343 48.6944 53.9815C49.879 55.312 52.1727 55.3473 53.384 54.0382C53.6458 53.7553 53.9126 53.4746 54.184 53.1957C56.2608 51.0621 59.1772 50 62.1547 50H86C90.4183 50 94 46.4183 94 42V14C94 9.58172 90.4183 6 86 6H16Z" fill="#012C44"/>
<path d="M48.6944 53.9815L47.2005 55.3112L47.2006 55.3114L48.6944 53.9815ZM53.384 54.0382L54.852 55.3965L54.8521 55.3964L53.384 54.0382ZM54.184 53.1957L52.7509 51.8008L54.184 53.1957ZM48.0226 53.2462L49.4821 51.8788L48.0226 53.2462ZM10 14C10 10.6863 12.6863 8 16 8V4C10.4772 4 6 8.47715 6 14H10ZM10 42V14H6V42H10ZM16 48C12.6863 48 10 45.3137 10 42H6C6 47.5228 10.4772 52 16 52V48ZM40.0486 48H16V52H40.0486V48ZM46.5631 54.6137C46.7799 54.8451 46.9925 55.0776 47.2005 55.3112L50.1883 52.6517C49.9563 52.3911 49.7207 52.1335 49.4821 51.8788L46.5631 54.6137ZM47.2006 55.3114C49.1611 57.5134 52.8291 57.5827 54.852 55.3965L51.9161 52.6799C51.5164 53.1118 50.597 53.1107 50.1882 52.6515L47.2006 55.3114ZM54.8521 55.3964C55.1015 55.1269 55.3567 54.8584 55.6172 54.5907L52.7509 51.8008C52.4686 52.0907 52.19 52.3837 51.916 52.68L54.8521 55.3964ZM86 48H62.1547V52H86V48ZM92 42C92 45.3137 89.3137 48 86 48V52C91.5229 52 96 47.5228 96 42H92ZM92 14V42H96V14H92ZM86 8C89.3137 8 92 10.6863 92 14H96C96 8.47715 91.5229 4 86 4V8ZM16 8H86V4H16V8ZM55.6172 54.5907C57.2654 52.8974 59.6375 52 62.1547 52V48C58.717 48 55.2562 49.2268 52.7509 51.8008L55.6172 54.5907ZM40.0486 52C42.5852 52 44.9591 52.9017 46.5631 54.6137L49.4821 51.8788C46.9964 49.2258 43.4933 48 40.0486 48V52Z" fill="#012C44" mask="url(#path-1-inside-1_896_7570)"/>
<rect x="10" y="8" width="40" height="40" rx="6" fill="#82B962"/>
<path fill-rule="evenodd" clip-rule="evenodd" d="M17.4 22.7504C17.4 21.5906 18.3402 20.6504 19.5 20.6504H37C40.4794 20.6504 43.3 23.471 43.3 26.9504V32.5504C43.3 33.7102 42.3598 34.6504 41.2 34.6504C41.2 32.3308 39.3196 30.4504 37 30.4504C34.6804 30.4504 32.8 32.3308 32.8 34.6504H27.9C27.9 32.3308 26.0196 30.4504 23.7 30.4504C21.3804 30.4504 19.5 32.3308 19.5 34.6504C18.3402 34.6504 17.4 33.7102 17.4 32.5504V22.7504ZM19.5 23.4504C19.5 23.0638 19.8134 22.7504 20.2 22.7504H22.297C22.6836 22.7504 22.997 23.0638 22.997 23.4504V26.9504C22.997 27.337 22.6836 27.6504 22.297 27.6504H20.2C19.85 27.6504 19.5 27.3004 19.5 26.9504V23.4504ZM25.1076 22.7504C24.721 22.7504 24.4076 23.0638 24.4076 23.4504L24.4 26.9504C24.4 27.3004 24.75 27.6504 25.1 27.6504H27.9076C28.2942 27.6504 28.6076 27.337 28.6076 26.9504V23.4504C28.6076 23.0638 28.2942 22.7504 27.9076 22.7504H25.1076ZM30.0181 23.4504C30.0181 23.0638 30.3315 22.7504 30.7181 22.7504H33.5181C33.9047 22.7504 34.2181 23.0638 34.2181 23.4504V26.9504C34.2181 27.337 33.9047 27.6504 33.5181 27.6504H31.4181C30.6449 27.6504 30 27.7236 30 26.9504L30.0181 23.4504ZM36.3286 22.7504C35.942 22.7504 35.6286 23.0638 35.6286 23.4504V26.9504C35.6286 27.337 35.942 27.6504 36.3286 27.6504H40.5286C40.9152 27.6504 41.2286 27.337 41.2286 26.9504C41.2286 24.6308 39.3482 22.7504 37.0286 22.7504H36.3286Z" fill="black"/>
<path d="M26.5 34.6504C26.5 36.1968 25.2464 37.4504 23.7 37.4504C22.1536 37.4504 20.9 36.1968 20.9 34.6504C20.9 33.104 22.1536 31.8504 23.7 31.8504C25.2464 31.8504 26.5 33.104 26.5 34.6504Z" fill="black"/>
<path d="M39.8 34.6504C39.8 36.1968 38.5464 37.4504 37 37.4504C35.4536 37.4504 34.2 36.1968 34.2 34.6504C34.2 33.104 35.4536 31.8504 37 31.8504C38.5464 31.8504 39.8 33.104 39.8 34.6504Z" fill="black"/>
<rect x="52" y="8" width="40" height="40" rx="6" fill="#82B962"/>
<path fill-rule="evenodd" clip-rule="evenodd" d="M59.4 24.3258C59.4 23.166 60.3402 22.2258 61.5 22.2258H79C82.4794 22.2258 85.3 25.0464 85.3 28.5258V32.7258C85.3 33.8856 84.3645 34.8258 83.2047 34.8258C76.3612 34.8258 63.383 34.8258 61.5 34.8258C60.3402 34.8258 59.4 33.8856 59.4 32.7258V24.3258ZM61.5 25.0258C61.5 24.6392 61.8134 24.3258 62.2 24.3258H64.297C64.6836 24.3258 64.997 24.6392 64.997 25.0258V28.5258C64.997 28.9124 64.6836 29.2258 64.297 29.2258H62.2C61.85 29.2258 61.5 28.8758 61.5 28.5258V25.0258ZM67.1076 24.3258C66.721 24.3258 66.4076 24.6392 66.4076 25.0258L66.4 28.5258C66.4 28.8758 66.75 29.2258 67.1 29.2258H69.9076C70.2942 29.2258 70.6076 28.9124 70.6076 28.5258V25.0258C70.6076 24.6392 70.2942 24.3258 69.9076 24.3258H67.1076ZM72.0181 25.0258C72.0181 24.6392 72.3315 24.3258 72.7181 24.3258H75.5181C75.9047 24.3258 76.2181 24.6392 76.2181 25.0258V28.5258C76.2181 28.9124 75.9047 29.2258 75.5181 29.2258H73.4181C72.6449 29.2258 72 29.299 72 28.5258L72.0181 25.0258ZM78.3286 24.3258C77.942 24.3258 77.6286 24.6392 77.6286 25.0258V28.5258C77.6286 28.9124 77.942 29.2258 78.3286 29.2258H82.5286C82.9152 29.2258 83.2286 28.9124 83.2286 28.5258C83.2286 26.2062 81.3482 24.3258 79.0286 24.3258H78.3286Z" fill="black"/>
<path fill-rule="evenodd" clip-rule="evenodd" d="M59.925 36.9258C59.925 36.4425 60.3167 36.0508 60.8 36.0508L83.9 36.0508C84.3832 36.0508 84.775 36.4425 84.775 36.9258C84.775 37.409 84.3832 37.8008 83.9 37.8008L60.8 37.8008C60.3167 37.8008 59.925 37.409 59.925 36.9258Z" fill="black"/>
<path fill-rule="evenodd" clip-rule="evenodd" d="M68.325 19.4258C68.325 18.9425 68.7167 18.5508 69.2 18.5508H74.8C75.1455 18.5508 75.4587 18.7541 75.5993 19.0698C75.7399 19.3855 75.6815 19.7543 75.4504 20.0111L72.3004 23.5111C71.9771 23.8703 71.4238 23.8994 71.0646 23.5762C70.7055 23.2529 70.6763 22.6996 70.9996 22.3404L72.8353 20.3008H69.2C68.7167 20.3008 68.325 19.909 68.325 19.4258Z" fill="black"/>
</g>
<defs>
<filter id="filter0_d_896_7570" x="0" y="0" width="102" height="65" filterUnits="userSpaceOnUse" color-interpolation-filters="sRGB">
<feFlood flood-opacity="0" result="BackgroundImageFix"/>
<feColorMatrix in="SourceAlpha" type="matrix" values="0 0 0 0 0 0 0 0 0 0 0 0 0 0 0 0 0 0 127 0" result="hardAlpha"/>
<feOffset dy="2"/>
<feGaussianBlur stdDeviation="4"/>
<feColorMatrix type="matrix" values="0 0 0 0 0 0 0 0 0 0 0 0 0 0 0 0 0 0 0.16 0"/>
<feBlend mode="normal" in2="BackgroundImageFix" result="effect1_dropShadow_896_7570"/>
<feBlend mode="normal" in="SourceGraphic" in2="effect1_dropShadow_896_7570" result="shape"/>
</filter>
</defs>
</svg>
