<svg width="44" height="44" viewBox="0 0 44 44" fill="none" xmlns="http://www.w3.org/2000/svg">
<g filter="url(#filter0_d_8318_8647)">
<g clip-path="url(#clip0_8318_8647)">
<rect x="8" y="8" width="28" height="28" rx="4" fill="#551125"/>
<path fill-rule="evenodd" clip-rule="evenodd" d="M12.835 14.5C12.835 14.04 13.205 13.665 13.665 13.665H19.78C21.4 13.665 22.98 14.19 24.28 15.165L29.165 18.83C30.425 19.775 31.165 21.255 31.165 22.83C31.165 24.21 30.05 25.33 28.665 25.33H13.665C13.205 25.33 12.835 24.955 12.835 24.495V22.62H18.6699C19.0149 22.62 19.2949 22.34 19.2949 21.995C19.2949 19.81 17.52 18.035 15.335 18.035H12.835V14.495V14.5ZM12.835 19.29V21.375H17.97C17.69 20.18 16.615 19.29 15.335 19.29H12.835ZM28.165 20.165C28.32 20.28 28.46 20.405 28.585 20.54H26.165C24.21 20.54 22.625 18.955 22.625 17V16.075C22.85 16.2 23.07 16.345 23.28 16.5L28.165 20.165Z" fill="white"/>
<path fill-rule="evenodd" clip-rule="evenodd" d="M12.835 27.835C12.835 27.375 13.205 27 13.665 27H30.335C30.795 27 31.165 27.375 31.165 27.835C31.165 28.295 30.795 28.67 30.335 28.67H13.665C13.205 28.67 12.835 28.295 12.835 27.835Z" fill="white"/>
<path fill-rule="evenodd" clip-rule="evenodd" d="M17 27C17.46 27 17.835 27.375 17.835 27.835V29.5C17.835 29.96 17.46 30.335 17 30.335C16.54 30.335 16.165 29.96 16.165 29.5V27.835C16.165 27.375 16.54 27 17 27ZM22 27C22.46 27 22.835 27.375 22.835 27.835V29.5C22.835 29.96 22.46 30.335 22 30.335C21.54 30.335 21.165 29.96 21.165 29.5V27.835C21.165 27.375 21.54 27 22 27ZM27 27C27.46 27 27.835 27.375 27.835 27.835V29.5C27.835 29.96 27.46 30.335 27 30.335C26.54 30.335 26.165 29.96 26.165 29.5V27.835C26.165 27.375 26.54 27 27 27Z" fill="white"/>
</g>
<rect x="9" y="9" width="26" height="26" rx="3" stroke="black" stroke-width="2"/>
</g>
<defs>
<filter id="filter0_d_8318_8647" x="0" y="0" width="44" height="44" filterUnits="userSpaceOnUse" color-interpolation-filters="sRGB">
<feFlood flood-opacity="0" result="BackgroundImageFix"/>
<feColorMatrix in="SourceAlpha" type="matrix" values="0 0 0 0 0 0 0 0 0 0 0 0 0 0 0 0 0 0 127 0" result="hardAlpha"/>
<feOffset/>
<feGaussianBlur stdDeviation="4"/>
<feColorMatrix type="matrix" values="0 0 0 0 0 0 0 0 0 0 0 0 0 0 0 0 0 0 0.23 0"/>
<feBlend mode="normal" in2="BackgroundImageFix" result="effect1_dropShadow_8318_8647"/>
<feBlend mode="normal" in="SourceGraphic" in2="effect1_dropShadow_8318_8647" result="shape"/>
</filter>
<clipPath id="clip0_8318_8647">
<rect x="8" y="8" width="28" height="28" rx="4" fill="white"/>
</clipPath>
</defs>
</svg>
