<svg width="60" height="65" viewBox="0 0 60 65" fill="none" xmlns="http://www.w3.org/2000/svg">
<g filter="url(#filter0_d_8318_8657)">
<mask id="path-1-inside-1_8318_8657" fill="white">
<path fill-rule="evenodd" clip-rule="evenodd" d="M16 8C11.5817 8 8 11.5817 8 16V29.7577V44C8 48.4183 11.5817 52 16 52H19.0486C22.0393 52 24.9778 53.0638 27.0226 55.2462C27.2503 55.4893 27.4744 55.7343 27.6944 55.9815C28.879 57.312 31.1727 57.3473 32.384 56.0382C32.6457 55.7553 32.9126 55.4746 33.184 55.1957C35.2608 53.0621 38.1772 52 41.1547 52H44C48.4183 52 52 48.4183 52 44V29.7577V16C52 11.5817 48.4183 8 44 8H16Z"/>
</mask>
<path fill-rule="evenodd" clip-rule="evenodd" d="M16 8C11.5817 8 8 11.5817 8 16V29.7577V44C8 48.4183 11.5817 52 16 52H19.0486C22.0393 52 24.9778 53.0638 27.0226 55.2462C27.2503 55.4893 27.4744 55.7343 27.6944 55.9815C28.879 57.312 31.1727 57.3473 32.384 56.0382C32.6457 55.7553 32.9126 55.4746 33.184 55.1957C35.2608 53.0621 38.1772 52 41.1547 52H44C48.4183 52 52 48.4183 52 44V29.7577V16C52 11.5817 48.4183 8 44 8H16Z" fill="#82B962"/>
<path d="M27.6944 55.9815L26.2005 57.3112L26.2006 57.3114L27.6944 55.9815ZM32.384 56.0382L33.852 57.3965L33.8521 57.3964L32.384 56.0382ZM27.0226 55.2462L25.5631 56.6137L27.0226 55.2462ZM8 16H10C10 12.6863 12.6863 10 16 10V8V6C10.4772 6 6 10.4772 6 16H8ZM8 29.7577H10V16H8H6V29.7577H8ZM8 44H10V29.7577H8H6V44H8ZM16 52V50C12.6863 50 10 47.3137 10 44H8H6C6 49.5228 10.4772 54 16 54V52ZM19.0486 52V50H16V52V54H19.0486V52ZM27.0226 55.2462L25.5631 56.6137C25.7799 56.8451 25.9925 57.0776 26.2005 57.3112L27.6944 55.9815L29.1883 54.6517C28.9563 54.3911 28.7207 54.1335 28.4821 53.8788L27.0226 55.2462ZM27.6944 55.9815L26.2006 57.3114C28.1611 59.5134 31.8291 59.5827 33.852 57.3965L32.384 56.0382L30.916 54.6799C30.5164 55.1118 29.597 55.1107 29.1882 54.6516L27.6944 55.9815ZM32.384 56.0382L33.8521 57.3964C34.1015 57.1269 34.3567 56.8584 34.6172 56.5907L33.184 55.1957L31.7509 53.8008C31.4686 54.0907 31.19 54.3837 30.9159 54.68L32.384 56.0382ZM44 52V50H41.1547V52V54H44V52ZM52 44H50C50 47.3137 47.3137 50 44 50V52V54C49.5228 54 54 49.5228 54 44H52ZM52 29.7577H50V44H52H54V29.7577H52ZM52 16H50V29.7577H52H54V16H52ZM44 8V10C47.3137 10 50 12.6863 50 16H52H54C54 10.4772 49.5228 6 44 6V8ZM16 8V10H44V8V6H16V8ZM33.184 55.1957L34.6172 56.5907C36.2654 54.8974 38.6375 54 41.1547 54V52V50C37.717 50 34.2562 51.2268 31.7509 53.8008L33.184 55.1957ZM19.0486 52V54C21.5852 54 23.9591 54.9017 25.5631 56.6137L27.0226 55.2462L28.4821 53.8788C25.9964 51.2258 22.4933 50 19.0486 50V52Z" fill="black" mask="url(#path-1-inside-1_8318_8657)"/>
<path d="M43.3002 34.7389C43.3002 35.0889 43.1072 35.2833 42.7597 35.2833H38.7446V34.9333C38.7446 34.1555 38.4744 33.4555 37.8953 32.9111C37.3548 32.3666 36.6598 32.0555 35.8877 32.0555C35.1156 32.0555 34.3821 32.3278 33.8416 32.9111C33.3011 33.4555 32.9922 34.1555 32.9922 34.9333C32.9922 35.7111 32.9922 35.05 32.9922 35.0889V35.2444H26.931V34.8944C26.931 34.1166 26.6607 33.4166 26.1202 32.8722C25.5797 32.3278 24.8848 32.0166 24.0741 32.0166C23.2633 32.0166 22.5684 32.2889 22.0279 32.8722C21.4874 33.4166 21.2172 34.1166 21.2172 34.8944V35.2444H17.2407C17.0863 35.2444 16.9704 35.2444 16.8546 35.0889C16.7388 34.9722 16.7002 34.8555 16.7002 34.7V24.3944C16.7002 24.2389 16.7388 24.1222 16.8546 24.0055C16.9704 23.8889 17.0863 23.85 17.2407 23.85H42.6825C42.8369 23.85 42.9527 23.85 43.0686 24.0055C43.1844 24.1222 43.223 24.2389 43.223 24.3944H43.3002V34.7389ZM17.9742 30.5778H23.2633V26.1833H17.9742V30.5778ZM26.3519 34.9333C26.3519 35.5555 26.1202 36.0611 25.6955 36.4889C25.2709 36.9166 24.7304 37.15 24.1513 37.15C23.5722 37.15 23.0317 36.9166 22.607 36.4889C22.1823 36.0611 21.9507 35.5166 21.9507 34.9333C21.9507 34.35 22.1823 33.8055 22.607 33.3778C23.0317 32.95 23.5722 32.7555 24.1513 32.7555C24.7304 32.7555 25.2709 32.95 25.6955 33.3778C26.1202 33.8055 26.3519 34.3111 26.3519 34.9333ZM24.2285 30.5778H29.5176V26.1833H24.2285V30.5778ZM30.5214 30.5778H35.8491V26.1833H30.5214V30.5778ZM38.1269 34.9333C38.1269 35.5555 37.8953 36.0611 37.4706 36.4889C37.0459 36.9166 36.5054 37.15 35.9263 37.15C35.3472 37.15 34.8067 36.9166 34.3821 36.4889C33.9574 36.0611 33.7257 35.5166 33.7257 34.9333C33.7257 34.35 33.9574 33.8055 34.3821 33.3778C34.8067 32.95 35.3472 32.7555 35.9263 32.7555C36.5054 32.7555 37.0459 32.95 37.4706 33.3778C37.8953 33.8055 38.1269 34.3111 38.1269 34.9333ZM36.8143 30.5778H42.1034V26.1833H36.8143V30.5778Z" fill="black"/>
</g>
<defs>
<filter id="filter0_d_8318_8657" x="0" y="0" width="60" height="65" filterUnits="userSpaceOnUse" color-interpolation-filters="sRGB">
<feFlood flood-opacity="0" result="BackgroundImageFix"/>
<feColorMatrix in="SourceAlpha" type="matrix" values="0 0 0 0 0 0 0 0 0 0 0 0 0 0 0 0 0 0 127 0" result="hardAlpha"/>
<feOffset/>
<feGaussianBlur stdDeviation="4"/>
<feColorMatrix type="matrix" values="0 0 0 0 0 0 0 0 0 0 0 0 0 0 0 0 0 0 0.23 0"/>
<feBlend mode="normal" in2="BackgroundImageFix" result="effect1_dropShadow_8318_8657"/>
<feBlend mode="normal" in="SourceGraphic" in2="effect1_dropShadow_8318_8657" result="shape"/>
</filter>
</defs>
</svg>
