<svg width="60" height="65" viewBox="0 0 60 65" fill="none" xmlns="http://www.w3.org/2000/svg">
<g filter="url(#filter0_d_8318_8682)">
<mask id="path-1-inside-1_8318_8682" fill="white">
<path fill-rule="evenodd" clip-rule="evenodd" d="M16 6C11.5817 6 8 9.58172 8 14V27.7577V42C8 46.4183 11.5817 50 16 50H19.0486C22.0393 50 24.9778 51.0638 27.0226 53.2462C27.2503 53.4893 27.4744 53.7343 27.6944 53.9815C28.879 55.312 31.1727 55.3473 32.384 54.0382C32.6457 53.7553 32.9126 53.4746 33.184 53.1957C35.2608 51.0621 38.1772 50 41.1547 50H44C48.4183 50 52 46.4183 52 42V27.7577V14C52 9.58172 48.4183 6 44 6H16Z"/>
</mask>
<path fill-rule="evenodd" clip-rule="evenodd" d="M16 6C11.5817 6 8 9.58172 8 14V27.7577V42C8 46.4183 11.5817 50 16 50H19.0486C22.0393 50 24.9778 51.0638 27.0226 53.2462C27.2503 53.4893 27.4744 53.7343 27.6944 53.9815C28.879 55.312 31.1727 55.3473 32.384 54.0382C32.6457 53.7553 32.9126 53.4746 33.184 53.1957C35.2608 51.0621 38.1772 50 41.1547 50H44C48.4183 50 52 46.4183 52 42V27.7577V14C52 9.58172 48.4183 6 44 6H16Z" fill="#007AB5"/>
<path d="M27.6944 53.9815L26.2005 55.3112L26.2006 55.3114L27.6944 53.9815ZM32.384 54.0382L33.852 55.3965L33.8521 55.3964L32.384 54.0382ZM27.0226 53.2462L25.5631 54.6137L27.0226 53.2462ZM8 14H10C10 10.6863 12.6863 8 16 8V6V4C10.4772 4 6 8.47715 6 14H8ZM8 27.7577H10V14H8H6V27.7577H8ZM8 42H10V27.7577H8H6V42H8ZM16 50V48C12.6863 48 10 45.3137 10 42H8H6C6 47.5228 10.4772 52 16 52V50ZM19.0486 50V48H16V50V52H19.0486V50ZM27.0226 53.2462L25.5631 54.6137C25.7799 54.8451 25.9925 55.0776 26.2005 55.3112L27.6944 53.9815L29.1883 52.6517C28.9563 52.3911 28.7207 52.1335 28.4821 51.8788L27.0226 53.2462ZM27.6944 53.9815L26.2006 55.3114C28.1611 57.5134 31.8291 57.5827 33.852 55.3965L32.384 54.0382L30.916 52.6799C30.5164 53.1118 29.597 53.1107 29.1882 52.6516L27.6944 53.9815ZM32.384 54.0382L33.8521 55.3964C34.1015 55.1269 34.3567 54.8584 34.6172 54.5907L33.184 53.1957L31.7509 51.8008C31.4686 52.0907 31.19 52.3837 30.9159 52.68L32.384 54.0382ZM44 50V48H41.1547V50V52H44V50ZM52 42H50C50 45.3137 47.3137 48 44 48V50V52C49.5228 52 54 47.5228 54 42H52ZM52 27.7577H50V42H52H54V27.7577H52ZM52 14H50V27.7577H52H54V14H52ZM44 6V8C47.3137 8 50 10.6863 50 14H52H54C54 8.47715 49.5228 4 44 4V6ZM16 6V8H44V6V4H16V6ZM33.184 53.1957L34.6172 54.5907C36.2654 52.8974 38.6375 52 41.1547 52V50V48C37.717 48 34.2562 49.2268 31.7509 51.8008L33.184 53.1957ZM19.0486 50V52C21.5852 52 23.9591 52.9017 25.5631 54.6137L27.0226 53.2462L28.4821 51.8788C25.9964 49.2258 22.4933 48 19.0486 48V50Z" fill="black" mask="url(#path-1-inside-1_8318_8682)"/>
<path d="M39.3237 35.4964C39.4009 35.4964 39.4781 35.5736 39.5553 35.6122L38.8218 36.616H38.7446C38.1269 36.3072 37.5864 35.9983 36.4282 35.9983C35.27 35.9983 34.7295 36.2685 34.0732 36.616C33.4169 36.9635 32.6448 37.3495 31.1777 37.3495C29.7106 37.3495 28.9385 36.9635 28.2822 36.616C27.6645 36.3072 27.124 35.9983 25.9272 35.9983C24.7304 35.9983 24.2285 36.2685 23.6108 36.616C22.9159 36.9635 22.1823 37.3495 20.7153 37.3495C19.2482 37.3495 18.5147 36.9635 17.8198 36.616C17.4723 36.423 17.1249 36.2685 16.7002 36.1527L17.0477 34.9559C17.5881 35.1103 18.0128 35.3034 18.3989 35.4964C19.0166 35.8053 19.5571 36.1141 20.7153 36.1141C21.8735 36.1141 22.414 35.8439 23.0703 35.4964C23.7266 35.149 24.4987 34.7629 25.9658 34.7629C27.4329 34.7629 28.205 35.149 28.8613 35.4964C29.479 35.8053 30.0195 36.1141 31.1777 36.1141C32.3359 36.1141 32.8764 35.8439 33.5327 35.4964C34.189 35.149 34.9612 34.7629 36.4282 34.7629C37.8953 34.7629 38.6674 35.149 39.3237 35.4964Z" fill="white"/>
<path d="M43.0299 30.0915H39.0535C39.0535 30.0915 37.3162 22.5632 37.2389 22.1385C37.1617 21.7138 36.8143 21.791 36.8143 21.791H34.8067C34.8067 21.791 34.5365 20.7101 34.4207 20.131C34.2662 19.5132 33.996 19.6677 33.996 19.6677C33.996 19.6677 31.3707 20.6714 31.0233 20.8259C30.6758 20.9803 30.7916 21.3664 30.7916 21.3664V23.7214H21.8735C21.2558 23.7214 21.2558 24.0688 21.2558 24.0688L19.7887 30.0915H18.8236C18.5919 30.0915 18.4375 30.2459 18.3989 30.4389L17.3951 33.9135C18.09 34.1066 18.5919 34.3768 19.0166 34.5698C19.5957 34.8787 19.9045 35.0331 20.7539 35.0331C21.6032 35.0331 21.9121 34.8787 22.4912 34.5698C23.2247 34.1838 24.2285 33.6819 25.9658 33.6819C27.7031 33.6819 28.7455 34.1838 29.479 34.5698C30.0581 34.8787 30.367 35.0331 31.2163 35.0331C32.0657 35.0331 32.3745 34.8787 32.9536 34.5698C33.6871 34.1838 34.6909 33.6819 36.4668 33.6819C38.2427 33.6819 39.2465 34.1838 39.98 34.5698C40.0572 34.5698 40.2503 34.6857 40.2503 34.6857L43.3002 30.4775C43.3002 30.4775 43.3002 30.4003 43.3002 30.3231C43.3002 30.1687 43.1844 30.0529 43.0299 30.0529V30.0915ZM21.7577 27.1574L22.1823 25.3429H26.1202V27.1574H21.7577ZM31.0619 27.1574H26.6993V25.3429H31.0619V27.1574ZM31.7568 27.1574V25.3429H36.1194L36.5826 27.1574H31.7568Z" fill="white"/>
</g>
<defs>
<filter id="filter0_d_8318_8682" x="0" y="0" width="60" height="65" filterUnits="userSpaceOnUse" color-interpolation-filters="sRGB">
<feFlood flood-opacity="0" result="BackgroundImageFix"/>
<feColorMatrix in="SourceAlpha" type="matrix" values="0 0 0 0 0 0 0 0 0 0 0 0 0 0 0 0 0 0 127 0" result="hardAlpha"/>
<feOffset dy="2"/>
<feGaussianBlur stdDeviation="4"/>
<feColorMatrix type="matrix" values="0 0 0 0 0 0 0 0 0 0 0 0 0 0 0 0 0 0 0.16 0"/>
<feBlend mode="normal" in2="BackgroundImageFix" result="effect1_dropShadow_8318_8682"/>
<feBlend mode="normal" in="SourceGraphic" in2="effect1_dropShadow_8318_8682" result="shape"/>
</filter>
</defs>
</svg>
