<svg width="60" height="65" viewBox="0 0 60 65" fill="none" xmlns="http://www.w3.org/2000/svg">
<g filter="url(#filter0_d_787_6487)">
<mask id="path-1-inside-1_787_6487" fill="white">
<path fill-rule="evenodd" clip-rule="evenodd" d="M16 6C11.5817 6 8 9.58172 8 14V27.7577V42C8 46.4183 11.5817 50 16 50H19.0486C22.0393 50 24.9778 51.0638 27.0226 53.2462C27.2503 53.4893 27.4744 53.7343 27.6944 53.9815C28.879 55.312 31.1727 55.3473 32.384 54.0382C32.6457 53.7553 32.9126 53.4746 33.184 53.1957C35.2608 51.0621 38.1772 50 41.1547 50H44C48.4183 50 52 46.4183 52 42V27.7577V14C52 9.58172 48.4183 6 44 6H16Z"/>
</mask>
<path fill-rule="evenodd" clip-rule="evenodd" d="M16 6C11.5817 6 8 9.58172 8 14V27.7577V42C8 46.4183 11.5817 50 16 50H19.0486C22.0393 50 24.9778 51.0638 27.0226 53.2462C27.2503 53.4893 27.4744 53.7343 27.6944 53.9815C28.879 55.312 31.1727 55.3473 32.384 54.0382C32.6457 53.7553 32.9126 53.4746 33.184 53.1957C35.2608 51.0621 38.1772 50 41.1547 50H44C48.4183 50 52 46.4183 52 42V27.7577V14C52 9.58172 48.4183 6 44 6H16Z" fill="#676767"/>
<path d="M27.6944 53.9815L26.2005 55.3112L26.2006 55.3114L27.6944 53.9815ZM32.384 54.0382L33.852 55.3965L33.8521 55.3964L32.384 54.0382ZM27.0226 53.2462L25.5631 54.6137L27.0226 53.2462ZM10 14C10 10.6863 12.6863 8 16 8V4C10.4772 4 6 8.47715 6 14H10ZM10 27.7577V14H6V27.7577H10ZM10 42V27.7577H6V42H10ZM16 48C12.6863 48 10 45.3137 10 42H6C6 47.5228 10.4772 52 16 52V48ZM19.0486 48H16V52H19.0486V48ZM25.5631 54.6137C25.7799 54.8451 25.9925 55.0776 26.2005 55.3112L29.1883 52.6517C28.9563 52.3911 28.7207 52.1335 28.4821 51.8788L25.5631 54.6137ZM26.2006 55.3114C28.1611 57.5134 31.8291 57.5827 33.852 55.3965L30.916 52.6799C30.5164 53.1118 29.597 53.1107 29.1882 52.6516L26.2006 55.3114ZM33.8521 55.3964C34.1015 55.1269 34.3567 54.8584 34.6172 54.5907L31.7509 51.8008C31.4686 52.0907 31.19 52.3837 30.9159 52.68L33.8521 55.3964ZM44 48H41.1547V52H44V48ZM50 42C50 45.3137 47.3137 48 44 48V52C49.5228 52 54 47.5228 54 42H50ZM50 27.7577V42H54V27.7577H50ZM50 14V27.7577H54V14H50ZM44 8C47.3137 8 50 10.6863 50 14H54C54 8.47715 49.5228 4 44 4V8ZM16 8H44V4H16V8ZM34.6172 54.5907C36.2654 52.8974 38.6375 52 41.1547 52V48C37.717 48 34.2562 49.2268 31.7509 51.8008L34.6172 54.5907ZM19.0486 52C21.5852 52 23.9591 52.9017 25.5631 54.6137L28.4821 51.8788C25.9964 49.2258 22.4933 48 19.0486 48V52Z" fill="#012C44" mask="url(#path-1-inside-1_787_6487)"/>
<path fill-rule="evenodd" clip-rule="evenodd" d="M29.4783 16.4562C29.8067 16.292 30.1933 16.292 30.5217 16.4562L42.1884 22.2895C42.5837 22.4871 42.8333 22.8911 42.8333 23.333V38.4997C42.8333 39.144 42.311 39.6663 41.6667 39.6663C41.0223 39.6663 40.5 39.144 40.5 38.4997V24.054L30 18.804L19.5 24.054V38.4997C19.5 39.144 18.9776 39.6663 18.3333 39.6663C17.689 39.6663 17.1667 39.144 17.1667 38.4997V23.333C17.1667 22.8911 17.4163 22.4871 17.8116 22.2895L29.4783 16.4562Z" fill="white"/>
<path fill-rule="evenodd" clip-rule="evenodd" d="M25.3333 34.9997C25.9776 34.9997 26.5 35.522 26.5 36.1663V38.4997C26.5 39.144 25.9776 39.6663 25.3333 39.6663C24.689 39.6663 24.1667 39.144 24.1667 38.4997V36.1663C24.1667 35.522 24.689 34.9997 25.3333 34.9997ZM34.6667 34.9997C35.311 34.9997 35.8333 35.522 35.8333 36.1663V38.4997C35.8333 39.144 35.311 39.6663 34.6667 39.6663C34.0223 39.6663 33.5 39.144 33.5 38.4997V36.1663C33.5 35.522 34.0223 34.9997 34.6667 34.9997Z" fill="white"/>
<path fill-rule="evenodd" clip-rule="evenodd" d="M27.7388 26.833C27.2034 26.833 26.7368 27.1974 26.6069 27.7168L25.8821 30.6159C25.7258 31.241 25.0924 31.6211 24.4673 31.4648C23.8422 31.3086 23.4622 30.6752 23.6184 30.0501L24.3432 27.1508C24.7328 25.5927 26.1327 24.4997 27.7388 24.4997H32.2618C33.8678 24.4997 35.2677 25.5927 35.6573 27.1508L36.3821 30.0501C36.5383 30.6752 36.1584 31.3086 35.5333 31.4648C34.9082 31.6211 34.2747 31.241 34.1184 30.6159L33.3936 27.7168C33.2637 27.1974 32.7972 26.833 32.2618 26.833H27.7388Z" fill="white"/>
<path fill-rule="evenodd" clip-rule="evenodd" d="M25.3333 29.1663C23.4003 29.1663 21.8333 30.7333 21.8333 32.6663V33.833C21.8333 35.7661 23.4003 37.333 25.3333 37.333H34.6667C36.5997 37.333 38.1667 35.7661 38.1667 33.833V32.6663C38.1667 30.7333 36.5997 29.1663 34.6667 29.1663H25.3333ZM27.6667 33.2497C27.6667 32.6053 27.1443 32.083 26.5 32.083C25.8557 32.083 25.3333 32.6053 25.3333 33.2497V33.2613C25.3333 33.9057 25.8557 34.428 26.5 34.428C27.1443 34.428 27.6667 33.9057 27.6667 33.2613V33.2497ZM34.6667 33.2497C34.6667 32.6053 34.1443 32.083 33.5 32.083C32.8556 32.083 32.3333 32.6053 32.3333 33.2497V33.2613C32.3333 33.9057 32.8556 34.428 33.5 34.428C34.1443 34.428 34.6667 33.9057 34.6667 33.2613V33.2497Z" fill="white"/>
</g>
<defs>
<filter id="filter0_d_787_6487" x="0" y="0" width="60" height="65" filterUnits="userSpaceOnUse" color-interpolation-filters="sRGB">
<feFlood flood-opacity="0" result="BackgroundImageFix"/>
<feColorMatrix in="SourceAlpha" type="matrix" values="0 0 0 0 0 0 0 0 0 0 0 0 0 0 0 0 0 0 127 0" result="hardAlpha"/>
<feOffset dy="2"/>
<feGaussianBlur stdDeviation="4"/>
<feColorMatrix type="matrix" values="0 0 0 0 0 0 0 0 0 0 0 0 0 0 0 0 0 0 0.16 0"/>
<feBlend mode="normal" in2="BackgroundImageFix" result="effect1_dropShadow_787_6487"/>
<feBlend mode="normal" in="SourceGraphic" in2="effect1_dropShadow_787_6487" result="shape"/>
</filter>
</defs>
</svg>
