<svg width="44" height="44" viewBox="0 0 44 44" fill="none" xmlns="http://www.w3.org/2000/svg">
<g filter="url(#filter0_d_787_6444)">
<g clip-path="url(#clip0_787_6444)">
<rect x="8" y="6" width="28" height="28" rx="4" fill="#007AB5"/>
<path d="M30.0225 22.3071C29.7749 22.082 29.5048 21.8344 28.9872 21.8344C28.4695 21.8344 28.1994 22.082 27.9518 22.3071C27.7267 22.5096 27.5241 22.6897 27.119 22.6897C26.7138 22.6897 26.5113 22.5096 26.2862 22.3071C26.0386 22.082 25.7685 21.8344 25.2508 21.8344C24.7331 21.8344 24.463 22.082 24.2155 22.3071C23.9904 22.5096 23.7878 22.6897 23.3827 22.6897C22.9775 22.6897 22.7749 22.5096 22.5499 22.3071C22.4373 22.1945 22.3023 22.082 22.1447 21.992C22.1447 21.992 22.0997 21.992 22.0772 21.992C21.9196 21.9244 21.7621 21.8794 21.537 21.8794C21.0193 21.8794 20.7492 22.127 20.5241 22.3521C20.2991 22.5547 20.119 22.7347 19.7138 22.7347C19.3087 22.7347 19.1061 22.5547 18.9036 22.3521C18.656 22.127 18.4084 21.8794 17.8907 21.8794C17.373 21.8794 17.1029 22.127 16.8778 22.3521C16.6528 22.5547 16.4727 22.7347 16.045 22.7347C15.6174 22.7347 15.4373 22.5547 15.2347 22.3521C15.0997 22.2395 14.9646 22.1045 14.7621 21.992L14.6495 22.7347C14.8071 22.8023 14.9196 22.9148 15.0322 23.0273C15.2798 23.2524 15.5499 23.5 16.045 23.5C16.5402 23.5 16.8328 23.2524 17.0579 23.0273C17.283 22.8248 17.463 22.6447 17.8682 22.6447C18.2733 22.6447 18.4759 22.8248 18.701 23.0273C18.9486 23.2524 19.1962 23.5 19.7138 23.5C20.2315 23.5 20.5016 23.2524 20.7267 23.0273C20.9518 22.8248 21.1319 22.6447 21.5595 22.6447C21.9872 22.6447 21.8971 22.6897 22.0322 22.7572C22.1447 22.8248 22.2573 22.9148 22.3473 23.0048C22.5724 23.2074 22.8425 23.455 23.3601 23.455C23.8778 23.455 24.1479 23.2074 24.3955 22.9823C24.6206 22.7797 24.8007 22.5997 25.2283 22.5997C25.656 22.5997 25.836 22.7797 26.0611 22.9823C26.3087 23.2074 26.5788 23.455 27.0965 23.455C27.6142 23.455 27.8843 23.2074 28.1319 22.9823C28.3569 22.7797 28.5595 22.5997 28.9646 22.5997C29.3698 22.5997 29.5724 22.7797 29.7974 22.9823L30.045 22.3521C30.045 22.3521 30 22.3071 29.955 22.2846V22.3296L30.0225 22.3071Z" fill="white"/>
<path d="M22.0547 21.9695C21.9196 21.9019 21.7846 21.8569 21.582 21.8569C21.3794 21.8569 21.2219 21.9019 21.0868 21.992L22.0772 21.992L22.0547 21.992V21.9695Z" fill="white"/>
<path d="M17.3505 22.0145H18.4084C18.2733 21.9244 18.1158 21.8569 17.8907 21.8569C17.6656 21.8569 17.4855 21.9244 17.3505 22.0145Z" fill="white"/>
<path d="M31.283 18.8859H29.1897L25.9711 16.5H17.5306C17.3955 16.5 17.283 16.6125 17.2605 16.7476L16.7653 18.8859H15.9775C15.8425 18.8859 15.7299 18.9759 15.7074 19.0884L15.0997 21.2717L15.0322 21.3392C15.1222 21.4068 15.1897 21.4743 15.2798 21.5418C15.5048 21.7444 15.6849 21.9244 16.0901 21.9244C16.4952 21.9244 16.6978 21.7444 16.9228 21.5418C17.1704 21.3167 17.418 21.0691 17.9357 21.0691C18.4534 21.0691 18.7235 21.3167 18.9486 21.5418C19.1737 21.7444 19.3537 21.9244 19.7589 21.9244C20.164 21.9244 20.3666 21.7444 20.5692 21.5418C20.8167 21.3167 21.0643 21.0691 21.582 21.0691C22.0997 21.0691 21.9872 21.1141 22.1222 21.1817C22.3248 21.2717 22.4598 21.4068 22.6174 21.5193C22.8425 21.7219 23.045 21.9019 23.4502 21.9019C23.8553 21.9019 24.0579 21.7219 24.283 21.5193C24.5306 21.2942 24.8007 21.0466 25.3183 21.0466C25.836 21.0466 26.1061 21.2942 26.3537 21.5193C26.5788 21.7219 26.7814 21.9019 27.1865 21.9019C27.5917 21.9019 27.7942 21.7219 28.0193 21.5193C28.2669 21.2942 28.537 21.0466 29.0547 21.0466C29.5724 21.0466 29.6174 21.1367 29.7974 21.2717L31.3505 19.1109C31.3505 19.1109 31.3505 19.0659 31.3505 19.0209C31.3505 18.9309 31.283 18.8633 31.1929 18.8633H31.2605L31.283 18.8859ZM20.2315 18.8859H17.3955L17.6656 17.7154H20.1865V17.7605H20.2315V18.9084V18.8859ZM23.045 18.8859H20.5466V17.7154H23.045V18.8859ZM23.4502 18.8859V17.7154H26.3762L27.9743 18.8859H23.4502Z" fill="white"/>
<path d="M24.8682 21.9695H25.791C25.6785 21.9019 25.5209 21.8569 25.3409 21.8569C25.1608 21.8569 25.0032 21.9019 24.8682 21.9695Z" fill="white"/>
<path d="M29.0997 21.8569C28.9196 21.8569 28.8071 21.8569 28.672 21.9469H29.3023L29.3473 21.9019C29.2798 21.9019 29.1897 21.9019 29.0997 21.9019V21.8569Z" fill="white"/>
</g>
<rect x="9" y="7" width="26" height="26" rx="3" stroke="#012C44" stroke-width="2"/>
</g>
<defs>
<filter id="filter0_d_787_6444" x="0" y="0" width="44" height="44" filterUnits="userSpaceOnUse" color-interpolation-filters="sRGB">
<feFlood flood-opacity="0" result="BackgroundImageFix"/>
<feColorMatrix in="SourceAlpha" type="matrix" values="0 0 0 0 0 0 0 0 0 0 0 0 0 0 0 0 0 0 127 0" result="hardAlpha"/>
<feOffset dy="2"/>
<feGaussianBlur stdDeviation="4"/>
<feColorMatrix type="matrix" values="0 0 0 0 0 0 0 0 0 0 0 0 0 0 0 0 0 0 0.16 0"/>
<feBlend mode="normal" in2="BackgroundImageFix" result="effect1_dropShadow_787_6444"/>
<feBlend mode="normal" in="SourceGraphic" in2="effect1_dropShadow_787_6444" result="shape"/>
</filter>
<clipPath id="clip0_787_6444">
<rect x="8" y="6" width="28" height="28" rx="4" fill="white"/>
</clipPath>
</defs>
</svg>
