<svg width="44" height="44" viewBox="0 0 44 44" fill="none" xmlns="http://www.w3.org/2000/svg">
<g filter="url(#filter0_d_787_6446)">
<g clip-path="url(#clip0_787_6446)">
<rect x="8" y="6" width="28" height="28" rx="4" fill="#007AB5"/>
<path d="M27.5312 23.9006C27.577 23.9006 27.6228 23.9464 27.6686 23.9693L27.2335 24.5648H27.1877C26.8212 24.3816 26.5006 24.1984 25.8134 24.1984C25.1263 24.1984 24.8057 24.3587 24.4163 24.5648C24.027 24.771 23.5689 25 22.6986 25C21.8282 25 21.3702 24.771 20.9808 24.5648C20.6143 24.3816 20.2937 24.1984 19.5837 24.1984C18.8737 24.1984 18.5759 24.3587 18.2095 24.5648C17.7972 24.771 17.362 25 16.4917 25C15.6214 25 15.1862 24.771 14.7739 24.5648C14.5678 24.4503 14.3617 24.3587 14.1097 24.29L14.3159 23.58C14.6365 23.6716 14.8885 23.7861 15.1175 23.9006C15.484 24.0839 15.8046 24.2671 16.4917 24.2671C17.1788 24.2671 17.4995 24.1068 17.8888 23.9006C18.2782 23.6945 18.7363 23.4655 19.6066 23.4655C20.4769 23.4655 20.935 23.6945 21.3244 23.9006C21.6908 24.0839 22.0115 24.2671 22.6986 24.2671C23.3857 24.2671 23.7063 24.1068 24.0957 23.9006C24.485 23.6945 24.9431 23.4655 25.8134 23.4655C26.6838 23.4655 27.1419 23.6945 27.5312 23.9006Z" fill="white"/>
<path d="M29.73 20.6941H27.3709C27.3709 20.6941 26.3402 16.2279 26.2944 15.976C26.2486 15.7241 26.0425 15.7699 26.0425 15.7699H24.8515C24.8515 15.7699 24.6912 15.1286 24.6225 14.785C24.5309 14.4186 24.3705 14.5102 24.3705 14.5102C24.3705 14.5102 22.8131 15.1057 22.607 15.1973C22.4008 15.2889 22.4695 15.5179 22.4695 15.5179V16.9151H17.1788C16.8124 16.9151 16.8124 17.1212 16.8124 17.1212L15.942 20.6941H15.3694C15.232 20.6941 15.1404 20.7857 15.1175 20.9003L14.522 22.9616C14.9343 23.0761 15.232 23.2364 15.484 23.3509C15.8275 23.5342 16.0107 23.6258 16.5146 23.6258C17.0185 23.6258 17.2017 23.5342 17.5453 23.3509C17.9804 23.1219 18.5759 22.8242 19.6066 22.8242C20.6372 22.8242 21.2556 23.1219 21.6908 23.3509C22.0344 23.5342 22.2176 23.6258 22.7215 23.6258C23.2253 23.6258 23.4086 23.5342 23.7521 23.3509C24.1873 23.1219 24.7828 22.8242 25.8364 22.8242C26.8899 22.8242 27.4854 23.1219 27.9206 23.3509C27.9664 23.3509 28.0809 23.4197 28.0809 23.4197L29.8903 20.9232C29.8903 20.9232 29.8903 20.8774 29.8903 20.8316C29.8903 20.7399 29.8216 20.6712 29.73 20.6712V20.6941ZM17.1101 18.9535L17.362 17.877H19.6982V18.9535H17.1101ZM22.6299 18.9535H20.0418V17.877H22.6299V18.9535ZM23.0421 18.9535V17.877H25.6302L25.9051 18.9535H23.0421Z" fill="white"/>
</g>
<rect x="9" y="7" width="26" height="26" rx="3" stroke="#012C44" stroke-width="2"/>
</g>
<defs>
<filter id="filter0_d_787_6446" x="0" y="0" width="44" height="44" filterUnits="userSpaceOnUse" color-interpolation-filters="sRGB">
<feFlood flood-opacity="0" result="BackgroundImageFix"/>
<feColorMatrix in="SourceAlpha" type="matrix" values="0 0 0 0 0 0 0 0 0 0 0 0 0 0 0 0 0 0 127 0" result="hardAlpha"/>
<feOffset dy="2"/>
<feGaussianBlur stdDeviation="4"/>
<feColorMatrix type="matrix" values="0 0 0 0 0 0 0 0 0 0 0 0 0 0 0 0 0 0 0.16 0"/>
<feBlend mode="normal" in2="BackgroundImageFix" result="effect1_dropShadow_787_6446"/>
<feBlend mode="normal" in="SourceGraphic" in2="effect1_dropShadow_787_6446" result="shape"/>
</filter>
<clipPath id="clip0_787_6446">
<rect x="8" y="6" width="28" height="28" rx="4" fill="white"/>
</clipPath>
</defs>
</svg>
