<svg width="60" height="65" viewBox="0 0 60 65" fill="none" xmlns="http://www.w3.org/2000/svg">
<g filter="url(#filter0_d_787_6462)">
<mask id="path-1-inside-1_787_6462" fill="white">
<path fill-rule="evenodd" clip-rule="evenodd" d="M16 6C11.5817 6 8 9.58172 8 14V27.7577V42C8 46.4183 11.5817 50 16 50H19.0486C22.0393 50 24.9778 51.0638 27.0226 53.2462C27.2503 53.4893 27.4744 53.7343 27.6944 53.9815C28.879 55.312 31.1727 55.3473 32.384 54.0382C32.6457 53.7553 32.9126 53.4746 33.184 53.1957C35.2608 51.0621 38.1772 50 41.1547 50H44C48.4183 50 52 46.4183 52 42V27.7577V14C52 9.58172 48.4183 6 44 6H16Z"/>
</mask>
<path fill-rule="evenodd" clip-rule="evenodd" d="M16 6C11.5817 6 8 9.58172 8 14V27.7577V42C8 46.4183 11.5817 50 16 50H19.0486C22.0393 50 24.9778 51.0638 27.0226 53.2462C27.2503 53.4893 27.4744 53.7343 27.6944 53.9815C28.879 55.312 31.1727 55.3473 32.384 54.0382C32.6457 53.7553 32.9126 53.4746 33.184 53.1957C35.2608 51.0621 38.1772 50 41.1547 50H44C48.4183 50 52 46.4183 52 42V27.7577V14C52 9.58172 48.4183 6 44 6H16Z" fill="#551125"/>
<path d="M27.6944 53.9815L26.2005 55.3112L26.2006 55.3114L27.6944 53.9815ZM32.384 54.0382L33.852 55.3965L33.8521 55.3964L32.384 54.0382ZM27.0226 53.2462L25.5631 54.6137L27.0226 53.2462ZM10 14C10 10.6863 12.6863 8 16 8V4C10.4772 4 6 8.47715 6 14H10ZM10 27.7577V14H6V27.7577H10ZM10 42V27.7577H6V42H10ZM16 48C12.6863 48 10 45.3137 10 42H6C6 47.5228 10.4772 52 16 52V48ZM19.0486 48H16V52H19.0486V48ZM25.5631 54.6137C25.7799 54.8451 25.9925 55.0776 26.2005 55.3112L29.1883 52.6517C28.9563 52.3911 28.7207 52.1335 28.4821 51.8788L25.5631 54.6137ZM26.2006 55.3114C28.1611 57.5134 31.8291 57.5827 33.852 55.3965L30.916 52.6799C30.5164 53.1118 29.597 53.1107 29.1882 52.6516L26.2006 55.3114ZM33.8521 55.3964C34.1015 55.1269 34.3567 54.8584 34.6172 54.5907L31.7509 51.8008C31.4686 52.0907 31.19 52.3837 30.9159 52.68L33.8521 55.3964ZM44 48H41.1547V52H44V48ZM50 42C50 45.3137 47.3137 48 44 48V52C49.5228 52 54 47.5228 54 42H50ZM50 27.7577V42H54V27.7577H50ZM50 14V27.7577H54V14H50ZM44 8C47.3137 8 50 10.6863 50 14H54C54 8.47715 49.5228 4 44 4V8ZM16 8H44V4H16V8ZM34.6172 54.5907C36.2654 52.8974 38.6375 52 41.1547 52V48C37.717 48 34.2562 49.2268 31.7509 51.8008L34.6172 54.5907ZM19.0486 52C21.5852 52 23.9591 52.9017 25.5631 54.6137L28.4821 51.8788C25.9964 49.2258 22.4933 48 19.0486 48V52Z" fill="#012C44" mask="url(#path-1-inside-1_787_6462)"/>
<path fill-rule="evenodd" clip-rule="evenodd" d="M24.4049 34.5168C24.8599 34.9718 24.8599 35.7138 24.4049 36.1688L21.4928 39.0878C21.0308 39.5428 20.2962 39.5428 19.8412 39.0878C19.3863 38.6328 19.3863 37.8908 19.8412 37.4358L22.7534 34.5168C23.2154 34.0618 23.9499 34.0618 24.4049 34.5168ZM35.5912 34.5168C36.0462 34.0618 36.7808 34.0618 37.2428 34.5168L40.1549 37.4358C40.6099 37.8908 40.6099 38.6328 40.1549 39.0878C39.6999 39.5428 38.9654 39.5428 38.5034 39.0878L35.5912 36.1688C35.1362 35.7138 35.1362 34.9718 35.5912 34.5168Z" fill="white"/>
<path fill-rule="evenodd" clip-rule="evenodd" d="M21.1986 20.9716C21.6676 18.1576 24.1041 16.0996 26.9531 16.0996H33.0426C35.8986 16.0996 38.3281 18.1576 38.7971 20.9716L40.3365 30.2116C40.8475 33.2496 38.881 36.2456 35.71 36.6726C33.995 36.9036 31.9579 37.0996 29.9979 37.0996C28.0379 37.0996 26.0077 36.9036 24.2857 36.6726C21.1217 36.2456 19.1552 33.2496 19.6592 30.2116L21.1986 20.9716ZM26.9531 18.4306C25.2451 18.4306 23.7817 19.6696 23.5017 21.3566L23.0751 23.9186C24.0201 24.9266 25.2587 25.5846 26.5047 26.0046C27.8977 26.4666 29.2279 26.5996 29.9979 26.5996C30.7679 26.5996 32.098 26.4666 33.491 26.0046C34.737 25.5916 35.9761 24.9266 36.9281 23.9186L36.5009 21.3566C36.2139 19.6696 34.7576 18.4306 33.0426 18.4306H26.9531ZM26.4979 30.0926C25.8539 30.0926 25.3289 30.6176 25.3289 31.2616C25.3289 31.9056 25.8539 32.4306 26.4979 32.4306C27.1489 32.4306 27.6668 31.9056 27.6668 31.2616C27.6668 30.6176 27.1489 30.0926 26.4979 30.0926ZM33.4842 30.0926C32.8402 30.0926 32.3221 30.6176 32.3221 31.2616C32.3221 31.9056 32.8402 32.4306 33.4842 32.4306H33.4979C34.1419 32.4306 34.6668 31.9056 34.6668 31.2616C34.6668 30.6176 34.1419 30.0926 33.4979 30.0926H33.4842Z" fill="white"/>
</g>
<defs>
<filter id="filter0_d_787_6462" x="0" y="0" width="60" height="65" filterUnits="userSpaceOnUse" color-interpolation-filters="sRGB">
<feFlood flood-opacity="0" result="BackgroundImageFix"/>
<feColorMatrix in="SourceAlpha" type="matrix" values="0 0 0 0 0 0 0 0 0 0 0 0 0 0 0 0 0 0 127 0" result="hardAlpha"/>
<feOffset dy="2"/>
<feGaussianBlur stdDeviation="4"/>
<feColorMatrix type="matrix" values="0 0 0 0 0 0 0 0 0 0 0 0 0 0 0 0 0 0 0.16 0"/>
<feBlend mode="normal" in2="BackgroundImageFix" result="effect1_dropShadow_787_6462"/>
<feBlend mode="normal" in="SourceGraphic" in2="effect1_dropShadow_787_6462" result="shape"/>
</filter>
</defs>
</svg>
