<svg width="44" height="44" viewBox="0 0 44 44" fill="none" xmlns="http://www.w3.org/2000/svg">
<g filter="url(#filter0_d_8318_8645)">
<g clip-path="url(#clip0_8318_8645)">
<rect x="8" y="8" width="28" height="28" rx="4" fill="#551125"/>
<path fill-rule="evenodd" clip-rule="evenodd" d="M18.0035 26.6551C18.3285 26.9801 18.3285 27.5101 18.0035 27.8351L15.9234 29.9201C15.5934 30.2451 15.0687 30.2451 14.7437 29.9201C14.4188 29.5951 14.4188 29.0651 14.7437 28.7401L16.8238 26.6551C17.1538 26.3301 17.6785 26.3301 18.0035 26.6551ZM25.9937 26.6551C26.3187 26.3301 26.8434 26.3301 27.1734 26.6551L29.2535 28.7401C29.5785 29.0651 29.5785 29.5951 29.2535 29.9201C28.9285 30.2451 28.4038 30.2451 28.0738 29.9201L25.9937 27.8351C25.6687 27.5101 25.6687 26.9801 25.9937 26.6551Z" fill="white"/>
<path fill-rule="evenodd" clip-rule="evenodd" d="M15.7133 16.98C16.0483 14.97 17.7887 13.5 19.8237 13.5H24.1733C26.2133 13.5 27.9486 14.97 28.2836 16.98L29.3832 23.58C29.7482 25.75 28.3435 27.89 26.0785 28.195C24.8535 28.36 23.3985 28.5 21.9985 28.5C20.5985 28.5 19.1484 28.36 17.9184 28.195C15.6584 27.89 14.2537 25.75 14.6137 23.58L15.7133 16.98ZM19.8237 15.165C18.6037 15.165 17.5583 16.05 17.3583 17.255L17.0536 19.085C17.7286 19.805 18.6134 20.275 19.5034 20.575C20.4984 20.905 21.4485 21 21.9985 21C22.5485 21 23.4986 20.905 24.4936 20.575C25.3836 20.28 26.2687 19.805 26.9487 19.085L26.6435 17.255C26.4385 16.05 25.3983 15.165 24.1733 15.165H19.8237ZM19.4985 23.495C19.0385 23.495 18.6635 23.87 18.6635 24.33C18.6635 24.79 19.0385 25.165 19.4985 25.165C19.9635 25.165 20.3334 24.79 20.3334 24.33C20.3334 23.87 19.9635 23.495 19.4985 23.495ZM24.4887 23.495C24.0287 23.495 23.6586 23.87 23.6586 24.33C23.6586 24.79 24.0287 25.165 24.4887 25.165H24.4985C24.9585 25.165 25.3334 24.79 25.3334 24.33C25.3334 23.87 24.9585 23.495 24.4985 23.495H24.4887Z" fill="white"/>
</g>
<rect x="9" y="9" width="26" height="26" rx="3" stroke="black" stroke-width="2"/>
</g>
<defs>
<filter id="filter0_d_8318_8645" x="0" y="0" width="44" height="44" filterUnits="userSpaceOnUse" color-interpolation-filters="sRGB">
<feFlood flood-opacity="0" result="BackgroundImageFix"/>
<feColorMatrix in="SourceAlpha" type="matrix" values="0 0 0 0 0 0 0 0 0 0 0 0 0 0 0 0 0 0 127 0" result="hardAlpha"/>
<feOffset/>
<feGaussianBlur stdDeviation="4"/>
<feColorMatrix type="matrix" values="0 0 0 0 0 0 0 0 0 0 0 0 0 0 0 0 0 0 0.23 0"/>
<feBlend mode="normal" in2="BackgroundImageFix" result="effect1_dropShadow_8318_8645"/>
<feBlend mode="normal" in="SourceGraphic" in2="effect1_dropShadow_8318_8645" result="shape"/>
</filter>
<clipPath id="clip0_8318_8645">
<rect x="8" y="8" width="28" height="28" rx="4" fill="white"/>
</clipPath>
</defs>
</svg>
