<svg width="60" height="65" viewBox="0 0 60 65" fill="none" xmlns="http://www.w3.org/2000/svg">
<g filter="url(#filter0_d_787_6452)">
<mask id="path-1-inside-1_787_6452" fill="white">
<path fill-rule="evenodd" clip-rule="evenodd" d="M16 6C11.5817 6 8 9.58172 8 14V27.7577V42C8 46.4183 11.5817 50 16 50H19.0486C22.0393 50 24.9778 51.0638 27.0226 53.2462C27.2503 53.4893 27.4744 53.7343 27.6944 53.9815C28.879 55.312 31.1727 55.3473 32.384 54.0382C32.6457 53.7553 32.9126 53.4746 33.184 53.1957C35.2608 51.0621 38.1772 50 41.1547 50H44C48.4183 50 52 46.4183 52 42V27.7577V14C52 9.58172 48.4183 6 44 6H16Z"/>
</mask>
<path fill-rule="evenodd" clip-rule="evenodd" d="M16 6C11.5817 6 8 9.58172 8 14V27.7577V42C8 46.4183 11.5817 50 16 50H19.0486C22.0393 50 24.9778 51.0638 27.0226 53.2462C27.2503 53.4893 27.4744 53.7343 27.6944 53.9815C28.879 55.312 31.1727 55.3473 32.384 54.0382C32.6457 53.7553 32.9126 53.4746 33.184 53.1957C35.2608 51.0621 38.1772 50 41.1547 50H44C48.4183 50 52 46.4183 52 42V27.7577V14C52 9.58172 48.4183 6 44 6H16Z" fill="#82B962"/>
<path d="M27.6944 53.9815L26.2005 55.3112L26.2006 55.3114L27.6944 53.9815ZM32.384 54.0382L33.852 55.3965L33.8521 55.3964L32.384 54.0382ZM27.0226 53.2462L25.5631 54.6137L27.0226 53.2462ZM10 14C10 10.6863 12.6863 8 16 8V4C10.4772 4 6 8.47715 6 14H10ZM10 27.7577V14H6V27.7577H10ZM10 42V27.7577H6V42H10ZM16 48C12.6863 48 10 45.3137 10 42H6C6 47.5228 10.4772 52 16 52V48ZM19.0486 48H16V52H19.0486V48ZM25.5631 54.6137C25.7799 54.8451 25.9925 55.0776 26.2005 55.3112L29.1883 52.6517C28.9563 52.3911 28.7207 52.1335 28.4821 51.8788L25.5631 54.6137ZM26.2006 55.3114C28.1611 57.5134 31.8291 57.5827 33.852 55.3965L30.916 52.6799C30.5164 53.1118 29.597 53.1107 29.1882 52.6516L26.2006 55.3114ZM33.8521 55.3964C34.1015 55.1269 34.3567 54.8584 34.6172 54.5907L31.7509 51.8008C31.4686 52.0907 31.19 52.3837 30.9159 52.68L33.8521 55.3964ZM44 48H41.1547V52H44V48ZM50 42C50 45.3137 47.3137 48 44 48V52C49.5228 52 54 47.5228 54 42H50ZM50 27.7577V42H54V27.7577H50ZM50 14V27.7577H54V14H50ZM44 8C47.3137 8 50 10.6863 50 14H54C54 8.47715 49.5228 4 44 4V8ZM16 8H44V4H16V8ZM34.6172 54.5907C36.2654 52.8974 38.6375 52 41.1547 52V48C37.717 48 34.2562 49.2268 31.7509 51.8008L34.6172 54.5907ZM19.0486 52C21.5852 52 23.9591 52.9017 25.5631 54.6137L28.4821 51.8788C25.9964 49.2258 22.4933 48 19.0486 48V52Z" fill="#012C44" mask="url(#path-1-inside-1_787_6452)"/>
<path d="M41.2 31.57C41.2 31.8647 41.0374 32.0285 40.7448 32.0285H37.3637V31.7337C37.3637 31.0788 37.1361 30.4893 36.6485 30.0308C36.1933 29.5723 35.6081 29.3103 34.9579 29.3103C34.3077 29.3103 33.69 29.5396 33.2348 30.0308C32.7797 30.4893 32.5196 31.0788 32.5196 31.7337C32.5196 32.3887 32.5196 31.832 32.5196 31.8647V31.9957H27.4154V31.701C27.4154 31.046 27.1878 30.4565 26.7326 29.9981C26.2775 29.5396 25.6923 29.2776 25.0096 29.2776C24.3268 29.2776 23.7416 29.5068 23.2865 29.9981C22.8313 30.4565 22.6038 31.046 22.6038 31.701V31.9957H19.2551C19.1251 31.9957 19.0276 31.9957 18.93 31.8647C18.8325 31.7665 18.8 31.6682 18.8 31.5372V22.8589C18.8 22.7279 18.8325 22.6296 18.93 22.5314C19.0276 22.4331 19.1251 22.4004 19.2551 22.4004H40.6798C40.8099 22.4004 40.9074 22.4004 41.0049 22.5314C41.1025 22.6296 41.135 22.7279 41.135 22.8589H41.2V31.57ZM19.8728 28.0659H24.3268V24.3653H19.8728V28.0659ZM26.9277 31.7337C26.9277 32.2577 26.7326 32.6834 26.375 33.0437C26.0174 33.4039 25.5623 33.6004 25.0746 33.6004C24.5869 33.6004 24.1318 33.4039 23.7742 33.0437C23.4165 32.6834 23.2215 32.225 23.2215 31.7337C23.2215 31.2425 23.4165 30.784 23.7742 30.4238C24.1318 30.0635 24.5869 29.8998 25.0746 29.8998C25.5623 29.8998 26.0174 30.0635 26.375 30.4238C26.7326 30.784 26.9277 31.2097 26.9277 31.7337ZM25.1396 28.0659H29.5936V24.3653H25.1396V28.0659ZM30.4389 28.0659H34.9254V24.3653H30.4389V28.0659ZM36.8435 31.7337C36.8435 32.2577 36.6485 32.6834 36.2908 33.0437C35.9332 33.4039 35.4781 33.6004 34.9904 33.6004C34.5027 33.6004 34.0476 33.4039 33.69 33.0437C33.3324 32.6834 33.1373 32.225 33.1373 31.7337C33.1373 31.2425 33.3324 30.784 33.69 30.4238C34.0476 30.0635 34.5027 29.8998 34.9904 29.8998C35.4781 29.8998 35.9332 30.0635 36.2908 30.4238C36.6485 30.784 36.8435 31.2097 36.8435 31.7337ZM35.7382 28.0659H40.1922V24.3653H35.7382V28.0659Z" fill="black"/>
</g>
<defs>
<filter id="filter0_d_787_6452" x="0" y="0" width="60" height="65" filterUnits="userSpaceOnUse" color-interpolation-filters="sRGB">
<feFlood flood-opacity="0" result="BackgroundImageFix"/>
<feColorMatrix in="SourceAlpha" type="matrix" values="0 0 0 0 0 0 0 0 0 0 0 0 0 0 0 0 0 0 127 0" result="hardAlpha"/>
<feOffset dy="2"/>
<feGaussianBlur stdDeviation="4"/>
<feColorMatrix type="matrix" values="0 0 0 0 0 0 0 0 0 0 0 0 0 0 0 0 0 0 0.16 0"/>
<feBlend mode="normal" in2="BackgroundImageFix" result="effect1_dropShadow_787_6452"/>
<feBlend mode="normal" in="SourceGraphic" in2="effect1_dropShadow_787_6452" result="shape"/>
</filter>
</defs>
</svg>
