<svg width="60" height="65" viewBox="0 0 60 65" fill="none" xmlns="http://www.w3.org/2000/svg">
<g filter="url(#filter0_d_8318_8692)">
<mask id="path-1-inside-1_8318_8692" fill="white">
<path fill-rule="evenodd" clip-rule="evenodd" d="M16 6C11.5817 6 8 9.58172 8 14V27.7577V42C8 46.4183 11.5817 50 16 50H19.0486C22.0393 50 24.9778 51.0638 27.0226 53.2462C27.2503 53.4893 27.4744 53.7343 27.6944 53.9815C28.879 55.312 31.1727 55.3473 32.384 54.0382C32.6457 53.7553 32.9126 53.4746 33.184 53.1957C35.2608 51.0621 38.1772 50 41.1547 50H44C48.4183 50 52 46.4183 52 42V27.7577V14C52 9.58172 48.4183 6 44 6H16Z"/>
</mask>
<path fill-rule="evenodd" clip-rule="evenodd" d="M16 6C11.5817 6 8 9.58172 8 14V27.7577V42C8 46.4183 11.5817 50 16 50H19.0486C22.0393 50 24.9778 51.0638 27.0226 53.2462C27.2503 53.4893 27.4744 53.7343 27.6944 53.9815C28.879 55.312 31.1727 55.3473 32.384 54.0382C32.6457 53.7553 32.9126 53.4746 33.184 53.1957C35.2608 51.0621 38.1772 50 41.1547 50H44C48.4183 50 52 46.4183 52 42V27.7577V14C52 9.58172 48.4183 6 44 6H16Z" fill="#676767"/>
<path d="M27.6944 53.9815L26.2005 55.3112L26.2006 55.3114L27.6944 53.9815ZM32.384 54.0382L33.852 55.3965L33.8521 55.3964L32.384 54.0382ZM27.0226 53.2462L25.5631 54.6137L27.0226 53.2462ZM8 14H10C10 10.6863 12.6863 8 16 8V6V4C10.4772 4 6 8.47715 6 14H8ZM8 27.7577H10V14H8H6V27.7577H8ZM8 42H10V27.7577H8H6V42H8ZM16 50V48C12.6863 48 10 45.3137 10 42H8H6C6 47.5228 10.4772 52 16 52V50ZM19.0486 50V48H16V50V52H19.0486V50ZM27.0226 53.2462L25.5631 54.6137C25.7799 54.8451 25.9925 55.0776 26.2005 55.3112L27.6944 53.9815L29.1883 52.6517C28.9563 52.3911 28.7207 52.1335 28.4821 51.8788L27.0226 53.2462ZM27.6944 53.9815L26.2006 55.3114C28.1611 57.5134 31.8291 57.5827 33.852 55.3965L32.384 54.0382L30.916 52.6799C30.5164 53.1118 29.597 53.1107 29.1882 52.6516L27.6944 53.9815ZM32.384 54.0382L33.8521 55.3964C34.1015 55.1269 34.3567 54.8584 34.6172 54.5907L33.184 53.1957L31.7509 51.8008C31.4686 52.0907 31.19 52.3837 30.9159 52.68L32.384 54.0382ZM44 50V48H41.1547V50V52H44V50ZM52 42H50C50 45.3137 47.3137 48 44 48V50V52C49.5228 52 54 47.5228 54 42H52ZM52 27.7577H50V42H52H54V27.7577H52ZM52 14H50V27.7577H52H54V14H52ZM44 6V8C47.3137 8 50 10.6863 50 14H52H54C54 8.47715 49.5228 4 44 4V6ZM16 6V8H44V6V4H16V6ZM33.184 53.1957L34.6172 54.5907C36.2654 52.8974 38.6375 52 41.1547 52V50V48C37.717 48 34.2562 49.2268 31.7509 51.8008L33.184 53.1957ZM19.0486 50V52C21.5852 52 23.9591 52.9017 25.5631 54.6137L27.0226 53.2462L28.4821 51.8788C25.9964 49.2258 22.4933 48 19.0486 48V50Z" fill="black" mask="url(#path-1-inside-1_8318_8692)"/>
<path fill-rule="evenodd" clip-rule="evenodd" d="M29.4786 16.4565C29.807 16.2923 30.1936 16.2923 30.5221 16.4565L42.1887 22.2898C42.584 22.4874 42.8337 22.8914 42.8337 23.3333V38.5C42.8337 39.1443 42.3113 39.6666 41.667 39.6666C41.0226 39.6666 40.5003 39.1443 40.5003 38.5V24.0543L30.0003 18.8043L19.5003 24.0543V38.5C19.5003 39.1443 18.978 39.6666 18.3337 39.6666C17.6893 39.6666 17.167 39.1443 17.167 38.5V23.3333C17.167 22.8914 17.4167 22.4874 17.8119 22.2898L29.4786 16.4565Z" fill="white"/>
<path fill-rule="evenodd" clip-rule="evenodd" d="M25.3337 35C25.978 35 26.5003 35.5223 26.5003 36.1666V38.5C26.5003 39.1443 25.978 39.6666 25.3337 39.6666C24.6893 39.6666 24.167 39.1443 24.167 38.5V36.1666C24.167 35.5223 24.6893 35 25.3337 35ZM34.667 35C35.3113 35 35.8337 35.5223 35.8337 36.1666V38.5C35.8337 39.1443 35.3113 39.6666 34.667 39.6666C34.0226 39.6666 33.5003 39.1443 33.5003 38.5V36.1666C33.5003 35.5223 34.0226 35 34.667 35Z" fill="white"/>
<path fill-rule="evenodd" clip-rule="evenodd" d="M27.7391 26.8333C27.2037 26.8333 26.7371 27.1977 26.6073 27.7171L25.8824 30.6162C25.7262 31.2413 25.0927 31.6214 24.4676 31.4651C23.8426 31.3089 23.4625 30.6755 23.6188 30.0504L24.3436 27.1511C24.7331 25.593 26.133 24.5 27.7391 24.5H32.2621C33.8682 24.5 35.2681 25.593 35.6576 27.1511L36.3825 30.0504C36.5387 30.6755 36.1587 31.3089 35.5336 31.4651C34.9085 31.6214 34.275 31.2413 34.1188 30.6162L33.3939 27.7171C33.2641 27.1977 32.7975 26.8333 32.2621 26.8333H27.7391Z" fill="white"/>
<path fill-rule="evenodd" clip-rule="evenodd" d="M25.3337 29.1666C23.4007 29.1666 21.8337 30.7336 21.8337 32.6666V33.8333C21.8337 35.7664 23.4007 37.3333 25.3337 37.3333H34.667C36.6 37.3333 38.167 35.7664 38.167 33.8333V32.6666C38.167 30.7336 36.6 29.1666 34.667 29.1666H25.3337ZM27.667 33.25C27.667 32.6056 27.1447 32.0833 26.5003 32.0833C25.856 32.0833 25.3337 32.6056 25.3337 33.25V33.2616C25.3337 33.906 25.856 34.4283 26.5003 34.4283C27.1447 34.4283 27.667 33.906 27.667 33.2616V33.25ZM34.667 33.25C34.667 32.6056 34.1447 32.0833 33.5003 32.0833C32.856 32.0833 32.3337 32.6056 32.3337 33.25V33.2616C32.3337 33.906 32.856 34.4283 33.5003 34.4283C34.1447 34.4283 34.667 33.906 34.667 33.2616V33.25Z" fill="white"/>
</g>
<defs>
<filter id="filter0_d_8318_8692" x="0" y="0" width="60" height="65" filterUnits="userSpaceOnUse" color-interpolation-filters="sRGB">
<feFlood flood-opacity="0" result="BackgroundImageFix"/>
<feColorMatrix in="SourceAlpha" type="matrix" values="0 0 0 0 0 0 0 0 0 0 0 0 0 0 0 0 0 0 127 0" result="hardAlpha"/>
<feOffset dy="2"/>
<feGaussianBlur stdDeviation="4"/>
<feColorMatrix type="matrix" values="0 0 0 0 0 0 0 0 0 0 0 0 0 0 0 0 0 0 0.16 0"/>
<feBlend mode="normal" in2="BackgroundImageFix" result="effect1_dropShadow_8318_8692"/>
<feBlend mode="normal" in="SourceGraphic" in2="effect1_dropShadow_8318_8692" result="shape"/>
</filter>
</defs>
</svg>
