<svg width="44" height="44" viewBox="0 0 44 44" fill="none" xmlns="http://www.w3.org/2000/svg">
<g filter="url(#filter0_d_787_6450)">
<g clip-path="url(#clip0_787_6450)">
<rect x="8" y="6" width="28" height="28" rx="4" fill="#676767"/>
<path fill-rule="evenodd" clip-rule="evenodd" d="M21.6273 11.755C21.8619 11.6377 22.1381 11.6377 22.3727 11.755L30.706 15.9216C30.9883 16.0628 31.1667 16.3514 31.1667 16.667V27.5003C31.1667 27.9606 30.7936 28.3337 30.3333 28.3337C29.8731 28.3337 29.5 27.9606 29.5 27.5003V17.182L22 13.432L14.5 17.182V27.5003C14.5 27.9606 14.1269 28.3337 13.6667 28.3337C13.2064 28.3337 12.8333 27.9606 12.8333 27.5003V16.667C12.8333 16.3514 13.0117 16.0628 13.294 15.9216L21.6273 11.755Z" fill="white"/>
<path fill-rule="evenodd" clip-rule="evenodd" d="M18.6667 25.0003C19.1269 25.0003 19.5 25.3734 19.5 25.8337V27.5003C19.5 27.9606 19.1269 28.3337 18.6667 28.3337C18.2064 28.3337 17.8333 27.9606 17.8333 27.5003V25.8337C17.8333 25.3734 18.2064 25.0003 18.6667 25.0003ZM25.3333 25.0003C25.7936 25.0003 26.1667 25.3734 26.1667 25.8337V27.5003C26.1667 27.9606 25.7936 28.3337 25.3333 28.3337C24.8731 28.3337 24.5 27.9606 24.5 27.5003V25.8337C24.5 25.3734 24.8731 25.0003 25.3333 25.0003Z" fill="white"/>
<path fill-rule="evenodd" clip-rule="evenodd" d="M20.3848 19.167C20.0024 19.167 19.6691 19.4272 19.5764 19.7982L19.0587 21.8691C18.947 22.3156 18.4946 22.5871 18.0481 22.4754C17.6016 22.3638 17.3301 21.9114 17.4418 21.4649L17.9595 19.394C18.2377 18.2811 19.2377 17.5003 20.3848 17.5003H23.6156C24.7628 17.5003 25.7627 18.2811 26.0409 19.394L26.5587 21.4649C26.6703 21.9114 26.3988 22.3638 25.9523 22.4754C25.5058 22.5871 25.0533 22.3156 24.9418 21.8691L24.424 19.7982C24.3313 19.4272 23.998 19.167 23.6156 19.167H20.3848Z" fill="white"/>
<path fill-rule="evenodd" clip-rule="evenodd" d="M18.6667 20.8337C17.286 20.8337 16.1667 21.9529 16.1667 23.3337V24.167C16.1667 25.5477 17.286 26.667 18.6667 26.667H25.3333C26.7141 26.667 27.8333 25.5477 27.8333 24.167V23.3337C27.8333 21.9529 26.7141 20.8337 25.3333 20.8337H18.6667ZM20.3333 23.7503C20.3333 23.2901 19.9602 22.917 19.5 22.917C19.0398 22.917 18.6667 23.2901 18.6667 23.7503V23.7587C18.6667 24.2189 19.0398 24.592 19.5 24.592C19.9602 24.592 20.3333 24.2189 20.3333 23.7587V23.7503ZM25.3333 23.7503C25.3333 23.2901 24.9603 22.917 24.5 22.917C24.0398 22.917 23.6667 23.2901 23.6667 23.7503V23.7587C23.6667 24.2189 24.0398 24.592 24.5 24.592C24.9603 24.592 25.3333 24.2189 25.3333 23.7587V23.7503Z" fill="white"/>
</g>
<rect x="9" y="7" width="26" height="26" rx="3" stroke="#012C44" stroke-width="2"/>
</g>
<defs>
<filter id="filter0_d_787_6450" x="0" y="0" width="44" height="44" filterUnits="userSpaceOnUse" color-interpolation-filters="sRGB">
<feFlood flood-opacity="0" result="BackgroundImageFix"/>
<feColorMatrix in="SourceAlpha" type="matrix" values="0 0 0 0 0 0 0 0 0 0 0 0 0 0 0 0 0 0 127 0" result="hardAlpha"/>
<feOffset dy="2"/>
<feGaussianBlur stdDeviation="4"/>
<feColorMatrix type="matrix" values="0 0 0 0 0 0 0 0 0 0 0 0 0 0 0 0 0 0 0.16 0"/>
<feBlend mode="normal" in2="BackgroundImageFix" result="effect1_dropShadow_787_6450"/>
<feBlend mode="normal" in="SourceGraphic" in2="effect1_dropShadow_787_6450" result="shape"/>
</filter>
<clipPath id="clip0_787_6450">
<rect x="8" y="6" width="28" height="28" rx="4" fill="white"/>
</clipPath>
</defs>
</svg>
