<svg width="44" height="44" viewBox="0 0 44 44" fill="none" xmlns="http://www.w3.org/2000/svg">
<g filter="url(#filter0_d_8318_8641)">
<g clip-path="url(#clip0_8318_8641)">
<rect x="8" y="6" width="28" height="28" rx="4" fill="#82B962"/>
<path d="M31.5 23.5278C31.5 23.7778 31.3621 23.9167 31.1139 23.9167H28.246V23.6667C28.246 23.1111 28.053 22.6111 27.6393 22.2222C27.2533 21.8333 26.7569 21.6111 26.2054 21.6111C25.6538 21.6111 25.1299 21.8056 24.7438 22.2222C24.3578 22.6111 24.1372 23.1111 24.1372 23.6667C24.1372 24.2222 24.1372 23.75 24.1372 23.7778V23.8889H19.8077V23.6389C19.8077 23.0833 19.6147 22.5833 19.2286 22.1944C18.8425 21.8056 18.3462 21.5833 17.7671 21.5833C17.188 21.5833 16.6916 21.7778 16.3055 22.1944C15.9194 22.5833 15.7264 23.0833 15.7264 23.6389V23.8889H12.8861C12.7758 23.8889 12.693 23.8889 12.6103 23.7778C12.5276 23.6944 12.5 23.6111 12.5 23.5V16.1389C12.5 16.0278 12.5276 15.9444 12.6103 15.8611C12.693 15.7778 12.7758 15.75 12.8861 15.75H31.0588C31.1691 15.75 31.2518 15.75 31.3345 15.8611C31.4173 15.9444 31.4448 16.0278 31.4448 16.1389H31.5V23.5278ZM13.41 20.5556H17.188V17.4167H13.41V20.5556ZM19.394 23.6667C19.394 24.1111 19.2286 24.4722 18.9253 24.7778C18.6219 25.0833 18.2358 25.25 17.8222 25.25C17.4086 25.25 17.0225 25.0833 16.7192 24.7778C16.4158 24.4722 16.2504 24.0833 16.2504 23.6667C16.2504 23.25 16.4158 22.8611 16.7192 22.5556C17.0225 22.25 17.4086 22.1111 17.8222 22.1111C18.2358 22.1111 18.6219 22.25 18.9253 22.5556C19.2286 22.8611 19.394 23.2222 19.394 23.6667ZM17.8774 20.5556H21.6553V17.4167H17.8774V20.5556ZM22.3723 20.5556H26.1778V17.4167H22.3723V20.5556ZM27.8048 23.6667C27.8048 24.1111 27.6393 24.4722 27.336 24.7778C27.0327 25.0833 26.6466 25.25 26.2329 25.25C25.8193 25.25 25.4332 25.0833 25.1299 24.7778C24.8266 24.4722 24.6611 24.0833 24.6611 23.6667C24.6611 23.25 24.8266 22.8611 25.1299 22.5556C25.4332 22.25 25.8193 22.1111 26.2329 22.1111C26.6466 22.1111 27.0327 22.25 27.336 22.5556C27.6393 22.8611 27.8048 23.2222 27.8048 23.6667ZM26.8672 20.5556H30.6451V17.4167H26.8672V20.5556Z" fill="black"/>
</g>
<rect x="9" y="7" width="26" height="26" rx="3" stroke="black" stroke-width="2"/>
</g>
<defs>
<filter id="filter0_d_8318_8641" x="0" y="0" width="44" height="44" filterUnits="userSpaceOnUse" color-interpolation-filters="sRGB">
<feFlood flood-opacity="0" result="BackgroundImageFix"/>
<feColorMatrix in="SourceAlpha" type="matrix" values="0 0 0 0 0 0 0 0 0 0 0 0 0 0 0 0 0 0 127 0" result="hardAlpha"/>
<feOffset dy="2"/>
<feGaussianBlur stdDeviation="4"/>
<feColorMatrix type="matrix" values="0 0 0 0 0 0 0 0 0 0 0 0 0 0 0 0 0 0 0.16 0"/>
<feBlend mode="normal" in2="BackgroundImageFix" result="effect1_dropShadow_8318_8641"/>
<feBlend mode="normal" in="SourceGraphic" in2="effect1_dropShadow_8318_8641" result="shape"/>
</filter>
<clipPath id="clip0_8318_8641">
<rect x="8" y="6" width="28" height="28" rx="4" fill="white"/>
</clipPath>
</defs>
</svg>
