<svg width="60" height="65" viewBox="0 0 60 65" fill="none" xmlns="http://www.w3.org/2000/svg">
<g filter="url(#filter0_d_8318_8682)">
<mask id="path-1-inside-1_8318_8682" fill="white">
<path fill-rule="evenodd" clip-rule="evenodd" d="M16 6C11.5817 6 8 9.58172 8 14V27.7577V42C8 46.4183 11.5817 50 16 50H19.0486C22.0393 50 24.9778 51.0638 27.0226 53.2462C27.2503 53.4893 27.4744 53.7343 27.6944 53.9815C28.879 55.312 31.1727 55.3473 32.384 54.0382C32.6457 53.7553 32.9126 53.4746 33.184 53.1957C35.2608 51.0621 38.1772 50 41.1547 50H44C48.4183 50 52 46.4183 52 42V27.7577V14C52 9.58172 48.4183 6 44 6H16Z"/>
</mask>
<path fill-rule="evenodd" clip-rule="evenodd" d="M16 6C11.5817 6 8 9.58172 8 14V27.7577V42C8 46.4183 11.5817 50 16 50H19.0486C22.0393 50 24.9778 51.0638 27.0226 53.2462C27.2503 53.4893 27.4744 53.7343 27.6944 53.9815C28.879 55.312 31.1727 55.3473 32.384 54.0382C32.6457 53.7553 32.9126 53.4746 33.184 53.1957C35.2608 51.0621 38.1772 50 41.1547 50H44C48.4183 50 52 46.4183 52 42V27.7577V14C52 9.58172 48.4183 6 44 6H16Z" fill="#007AB5"/>
<path d="M27.6944 53.9815L26.2005 55.3112L26.2006 55.3114L27.6944 53.9815ZM32.384 54.0382L33.852 55.3965L33.8521 55.3964L32.384 54.0382ZM27.0226 53.2462L25.5631 54.6137L27.0226 53.2462ZM8 14H10C10 10.6863 12.6863 8 16 8V6V4C10.4772 4 6 8.47715 6 14H8ZM8 27.7577H10V14H8H6V27.7577H8ZM8 42H10V27.7577H8H6V42H8ZM16 50V48C12.6863 48 10 45.3137 10 42H8H6C6 47.5228 10.4772 52 16 52V50ZM19.0486 50V48H16V50V52H19.0486V50ZM27.0226 53.2462L25.5631 54.6137C25.7799 54.8451 25.9925 55.0776 26.2005 55.3112L27.6944 53.9815L29.1883 52.6517C28.9563 52.3911 28.7207 52.1335 28.4821 51.8788L27.0226 53.2462ZM27.6944 53.9815L26.2006 55.3114C28.1611 57.5134 31.8291 57.5827 33.852 55.3965L32.384 54.0382L30.916 52.6799C30.5164 53.1118 29.597 53.1107 29.1882 52.6515L27.6944 53.9815ZM32.384 54.0382L33.8521 55.3964C34.1015 55.1269 34.3567 54.8584 34.6172 54.5907L33.184 53.1957L31.7509 51.8008C31.4686 52.0907 31.19 52.3837 30.9159 52.68L32.384 54.0382ZM44 50V48H41.1547V50V52H44V50ZM52 42H50C50 45.3137 47.3137 48 44 48V50V52C49.5228 52 54 47.5228 54 42H52ZM52 27.7577H50V42H52H54V27.7577H52ZM52 14H50V27.7577H52H54V14H52ZM44 6V8C47.3137 8 50 10.6863 50 14H52H54C54 8.47715 49.5228 4 44 4V6ZM16 6V8H44V6V4H16V6ZM33.184 53.1957L34.6172 54.5907C36.2654 52.8974 38.6375 52 41.1547 52V50V48C37.717 48 34.2562 49.2268 31.7509 51.8008L33.184 53.1957ZM19.0486 50V52C21.5852 52 23.9591 52.9017 25.5631 54.6137L27.0226 53.2462L28.4821 51.8788C25.9964 49.2258 22.4933 48 19.0486 48V50Z" fill="#012C44" mask="url(#path-1-inside-1_8318_8682)"/>
<path d="M37.7432 33.4609C37.8073 33.4609 37.8714 33.525 37.9356 33.5571L37.3263 34.3908H37.2622C36.7492 34.1342 36.3003 33.8777 35.3383 33.8777C34.3764 33.8777 33.9275 34.1022 33.3824 34.3908C32.8373 34.6793 32.196 35 30.9775 35C29.759 35 29.1177 34.6793 28.5726 34.3908C28.0596 34.1342 27.6107 33.8777 26.6166 33.8777C25.6226 33.8777 25.2058 34.1022 24.6928 34.3908C24.1156 34.6793 23.5063 35 22.2879 35C21.0694 35 20.4602 34.6793 19.883 34.3908C19.5944 34.2304 19.3058 34.1022 18.9531 34.006L19.2417 33.012C19.6906 33.1402 20.0433 33.3005 20.364 33.4609C20.877 33.7174 21.3259 33.9739 22.2879 33.9739C23.2498 33.9739 23.6987 33.7495 24.2438 33.4609C24.7889 33.1723 25.4302 32.8516 26.6487 32.8516C27.8672 32.8516 28.5085 33.1723 29.0536 33.4609C29.5666 33.7174 30.0155 33.9739 30.9775 33.9739C31.9394 33.9739 32.3883 33.7495 32.9334 33.4609C33.4785 33.1723 34.1199 32.8516 35.3383 32.8516C36.5568 32.8516 37.1981 33.1723 37.7432 33.4609Z" fill="white"/>
<path d="M40.8214 28.9718H37.5187C37.5187 28.9718 36.0758 22.7191 36.0117 22.3664C35.9476 22.0137 35.659 22.0778 35.659 22.0778H33.9916C33.9916 22.0778 33.7671 21.18 33.6709 20.699C33.5427 20.186 33.3182 20.3142 33.3182 20.3142C33.3182 20.3142 31.1378 21.1479 30.8492 21.2762C30.5606 21.4044 30.6568 21.7251 30.6568 21.7251V23.6811H23.2498C22.7368 23.6811 22.7368 23.9696 22.7368 23.9696L21.5183 28.9718H20.7167C20.5243 28.9718 20.396 29.1 20.364 29.2604L19.5303 32.1462C20.1075 32.3065 20.5243 32.531 20.877 32.6913C21.358 32.9478 21.6145 33.0761 22.3199 33.0761C23.0254 33.0761 23.2819 32.9478 23.7629 32.6913C24.3721 32.3707 25.2058 31.9538 26.6487 31.9538C28.0916 31.9538 28.9574 32.3707 29.5666 32.6913C30.0476 32.9478 30.3041 33.0761 31.0095 33.0761C31.715 33.0761 31.9715 32.9478 32.4525 32.6913C33.0617 32.3707 33.8954 31.9538 35.3704 31.9538C36.8454 31.9538 37.6791 32.3707 38.2883 32.6913C38.3524 32.6913 38.5127 32.7875 38.5127 32.7875L41.0459 29.2924C41.0459 29.2924 41.0459 29.2283 41.0459 29.1642C41.0459 29.0359 40.9497 28.9397 40.8214 28.9397V28.9718ZM23.1536 26.5348L23.5063 25.0278H26.777V26.5348H23.1536ZM30.8813 26.5348H27.2579V25.0278H30.8813V26.5348ZM31.4585 26.5348V25.0278H35.0818L35.4666 26.5348H31.4585Z" fill="white"/>
</g>
<defs>
<filter id="filter0_d_8318_8682" x="0" y="0" width="60" height="65" filterUnits="userSpaceOnUse" color-interpolation-filters="sRGB">
<feFlood flood-opacity="0" result="BackgroundImageFix"/>
<feColorMatrix in="SourceAlpha" type="matrix" values="0 0 0 0 0 0 0 0 0 0 0 0 0 0 0 0 0 0 127 0" result="hardAlpha"/>
<feOffset dy="2"/>
<feGaussianBlur stdDeviation="4"/>
<feColorMatrix type="matrix" values="0 0 0 0 0 0 0 0 0 0 0 0 0 0 0 0 0 0 0.16 0"/>
<feBlend mode="normal" in2="BackgroundImageFix" result="effect1_dropShadow_8318_8682"/>
<feBlend mode="normal" in="SourceGraphic" in2="effect1_dropShadow_8318_8682" result="shape"/>
</filter>
</defs>
</svg>
