<svg width="44" height="44" viewBox="0 0 44 44" fill="none" xmlns="http://www.w3.org/2000/svg">
<g filter="url(#filter0_d_8318_8651)">
<g clip-path="url(#clip0_8318_8651)">
<rect x="8" y="8" width="28" height="28" rx="4" fill="#007AB5"/>
<path d="M28.6597 27.4974C28.7148 27.4974 28.77 27.5525 28.8251 27.5801L28.3012 28.2971H28.246C27.8048 28.0765 27.4187 27.8559 26.5914 27.8559C25.7642 27.8559 25.3781 28.0489 24.9093 28.2971C24.4405 28.5453 23.889 28.821 22.8411 28.821C21.7932 28.821 21.2417 28.5453 20.7729 28.2971C20.3316 28.0765 19.9456 27.8559 19.0907 27.8559C18.2358 27.8559 17.8774 28.0489 17.4361 28.2971C16.9398 28.5453 16.4158 28.821 15.3679 28.821C14.32 28.821 13.7961 28.5453 13.2997 28.2971C13.0515 28.1592 12.8033 28.0489 12.5 27.9662L12.7482 27.1113C13.1343 27.2216 13.4376 27.3595 13.7134 27.4974C14.1546 27.718 14.5406 27.9386 15.3679 27.9386C16.1952 27.9386 16.5813 27.7456 17.0501 27.4974C17.5189 27.2492 18.0704 26.9734 19.1183 26.9734C20.1662 26.9734 20.7177 27.2492 21.1865 27.4974C21.6277 27.718 22.0138 27.9386 22.8411 27.9386C23.6684 27.9386 24.0544 27.7456 24.5232 27.4974C24.992 27.2492 25.5435 26.9734 26.5914 26.9734C27.6393 26.9734 28.1909 27.2492 28.6597 27.4974Z" fill="white"/>
<path d="M31.307 23.6367H28.4666C28.4666 23.6367 27.2257 18.2594 27.1705 17.956C27.1154 17.6527 26.8672 17.7078 26.8672 17.7078H25.4332C25.4332 17.7078 25.2402 16.9357 25.1575 16.5221C25.0472 16.0808 24.8541 16.1912 24.8541 16.1912C24.8541 16.1912 22.979 16.9081 22.7308 17.0184C22.4826 17.1287 22.5653 17.4045 22.5653 17.4045V19.0867H16.1952C15.754 19.0867 15.754 19.3348 15.754 19.3348L14.7061 23.6367H14.0167C13.8512 23.6367 13.7409 23.747 13.7134 23.8849L12.9964 26.3668C13.4927 26.5046 13.8512 26.6977 14.1546 26.8356C14.5682 27.0562 14.7888 27.1665 15.3955 27.1665C16.0022 27.1665 16.2228 27.0562 16.6364 26.8356C17.1604 26.5598 17.8774 26.2013 19.1183 26.2013C20.3592 26.2013 21.1038 26.5598 21.6277 26.8356C22.0414 27.0562 22.262 27.1665 22.8687 27.1665C23.4753 27.1665 23.6959 27.0562 24.1096 26.8356C24.6335 26.5598 25.3505 26.2013 26.619 26.2013C27.8875 26.2013 28.6045 26.5598 29.1285 26.8356C29.1836 26.8356 29.3215 26.9183 29.3215 26.9183L31.5 23.9125C31.5 23.9125 31.5 23.8573 31.5 23.8022C31.5 23.6919 31.4173 23.6091 31.307 23.6091V23.6367ZM16.1125 21.5409L16.4158 20.2449H19.2286V21.5409H16.1125ZM22.7583 21.5409H19.6422V20.2449H22.7583V21.5409ZM23.2547 21.5409V20.2449H26.3708L26.7017 21.5409H23.2547Z" fill="white"/>
</g>
<rect x="9" y="9" width="26" height="26" rx="3" stroke="black" stroke-width="2"/>
</g>
<defs>
<filter id="filter0_d_8318_8651" x="0" y="0" width="44" height="44" filterUnits="userSpaceOnUse" color-interpolation-filters="sRGB">
<feFlood flood-opacity="0" result="BackgroundImageFix"/>
<feColorMatrix in="SourceAlpha" type="matrix" values="0 0 0 0 0 0 0 0 0 0 0 0 0 0 0 0 0 0 127 0" result="hardAlpha"/>
<feOffset/>
<feGaussianBlur stdDeviation="4"/>
<feColorMatrix type="matrix" values="0 0 0 0 0 0 0 0 0 0 0 0 0 0 0 0 0 0 0.23 0"/>
<feBlend mode="normal" in2="BackgroundImageFix" result="effect1_dropShadow_8318_8651"/>
<feBlend mode="normal" in="SourceGraphic" in2="effect1_dropShadow_8318_8651" result="shape"/>
</filter>
<clipPath id="clip0_8318_8651">
<rect x="8" y="8" width="28" height="28" rx="4" fill="white"/>
</clipPath>
</defs>
</svg>
