<svg width="44" height="44" viewBox="0 0 44 44" fill="none" xmlns="http://www.w3.org/2000/svg">
<g filter="url(#filter0_d_8318_8651)">
<g clip-path="url(#clip0_8318_8651)">
<rect x="8" y="6" width="28" height="28" rx="4" fill="#007AB5"/>
<path d="M28.6597 25.4974C28.7148 25.4974 28.77 25.5525 28.8251 25.5801L28.3012 26.2971H28.246C27.8048 26.0765 27.4187 25.8559 26.5914 25.8559C25.7642 25.8559 25.3781 26.0489 24.9093 26.2971C24.4405 26.5453 23.889 26.821 22.8411 26.821C21.7932 26.821 21.2417 26.5453 20.7729 26.2971C20.3316 26.0765 19.9456 25.8559 19.0907 25.8559C18.2358 25.8559 17.8774 26.0489 17.4361 26.2971C16.9398 26.5453 16.4158 26.821 15.3679 26.821C14.32 26.821 13.7961 26.5453 13.2997 26.2971C13.0515 26.1592 12.8033 26.0489 12.5 25.9662L12.7482 25.1113C13.1343 25.2216 13.4376 25.3595 13.7134 25.4974C14.1546 25.718 14.5406 25.9386 15.3679 25.9386C16.1952 25.9386 16.5813 25.7456 17.0501 25.4974C17.5189 25.2492 18.0704 24.9734 19.1183 24.9734C20.1662 24.9734 20.7177 25.2492 21.1865 25.4974C21.6277 25.718 22.0138 25.9386 22.8411 25.9386C23.6684 25.9386 24.0544 25.7456 24.5232 25.4974C24.992 25.2492 25.5435 24.9734 26.5914 24.9734C27.6393 24.9734 28.1909 25.2492 28.6597 25.4974Z" fill="white"/>
<path d="M31.307 21.6367H28.4666C28.4666 21.6367 27.2257 16.2594 27.1705 15.956C27.1154 15.6527 26.8672 15.7078 26.8672 15.7078H25.4332C25.4332 15.7078 25.2402 14.9357 25.1575 14.5221C25.0472 14.0808 24.8541 14.1912 24.8541 14.1912C24.8541 14.1912 22.979 14.9081 22.7308 15.0184C22.4826 15.1287 22.5653 15.4045 22.5653 15.4045V17.0867H16.1952C15.754 17.0867 15.754 17.3348 15.754 17.3348L14.7061 21.6367H14.0167C13.8512 21.6367 13.7409 21.747 13.7134 21.8849L12.9964 24.3668C13.4927 24.5046 13.8512 24.6977 14.1546 24.8356C14.5682 25.0562 14.7888 25.1665 15.3955 25.1665C16.0022 25.1665 16.2228 25.0562 16.6364 24.8356C17.1604 24.5598 17.8774 24.2013 19.1183 24.2013C20.3592 24.2013 21.1038 24.5598 21.6277 24.8356C22.0414 25.0562 22.262 25.1665 22.8687 25.1665C23.4753 25.1665 23.6959 25.0562 24.1096 24.8356C24.6335 24.5598 25.3505 24.2013 26.619 24.2013C27.8875 24.2013 28.6045 24.5598 29.1284 24.8356C29.1836 24.8356 29.3215 24.9183 29.3215 24.9183L31.5 21.9125C31.5 21.9125 31.5 21.8573 31.5 21.8022C31.5 21.6919 31.4173 21.6091 31.307 21.6091V21.6367ZM16.1125 19.5409L16.4158 18.2449H19.2286V19.5409H16.1125ZM22.7583 19.5409H19.6422V18.2449H22.7583V19.5409ZM23.2547 19.5409V18.2449H26.3708L26.7017 19.5409H23.2547Z" fill="white"/>
</g>
<rect x="9" y="7" width="26" height="26" rx="3" stroke="#012C44" stroke-width="2"/>
</g>
<defs>
<filter id="filter0_d_8318_8651" x="0" y="0" width="44" height="44" filterUnits="userSpaceOnUse" color-interpolation-filters="sRGB">
<feFlood flood-opacity="0" result="BackgroundImageFix"/>
<feColorMatrix in="SourceAlpha" type="matrix" values="0 0 0 0 0 0 0 0 0 0 0 0 0 0 0 0 0 0 127 0" result="hardAlpha"/>
<feOffset dy="2"/>
<feGaussianBlur stdDeviation="4"/>
<feColorMatrix type="matrix" values="0 0 0 0 0 0 0 0 0 0 0 0 0 0 0 0 0 0 0.16 0"/>
<feBlend mode="normal" in2="BackgroundImageFix" result="effect1_dropShadow_8318_8651"/>
<feBlend mode="normal" in="SourceGraphic" in2="effect1_dropShadow_8318_8651" result="shape"/>
</filter>
<clipPath id="clip0_8318_8651">
<rect x="8" y="6" width="28" height="28" rx="4" fill="white"/>
</clipPath>
</defs>
</svg>
