<svg width="60" height="65" viewBox="0 0 60 65" fill="none" xmlns="http://www.w3.org/2000/svg">
<g filter="url(#filter0_d_8318_8682)">
<mask id="path-1-inside-1_8318_8682" fill="white">
<path fill-rule="evenodd" clip-rule="evenodd" d="M16 8C11.5817 8 8 11.5817 8 16V29.7577V44C8 48.4183 11.5817 52 16 52H19.0486C22.0393 52 24.9778 53.0638 27.0226 55.2462C27.2503 55.4893 27.4744 55.7343 27.6944 55.9815C28.879 57.312 31.1727 57.3473 32.384 56.0382C32.6457 55.7553 32.9126 55.4746 33.184 55.1957C35.2608 53.0621 38.1772 52 41.1547 52H44C48.4183 52 52 48.4183 52 44V29.7577V16C52 11.5817 48.4183 8 44 8H16Z"/>
</mask>
<path fill-rule="evenodd" clip-rule="evenodd" d="M16 8C11.5817 8 8 11.5817 8 16V29.7577V44C8 48.4183 11.5817 52 16 52H19.0486C22.0393 52 24.9778 53.0638 27.0226 55.2462C27.2503 55.4893 27.4744 55.7343 27.6944 55.9815C28.879 57.312 31.1727 57.3473 32.384 56.0382C32.6457 55.7553 32.9126 55.4746 33.184 55.1957C35.2608 53.0621 38.1772 52 41.1547 52H44C48.4183 52 52 48.4183 52 44V29.7577V16C52 11.5817 48.4183 8 44 8H16Z" fill="#007AB5"/>
<path d="M27.6944 55.9815L26.2005 57.3112L26.2006 57.3114L27.6944 55.9815ZM32.384 56.0382L33.852 57.3965L33.8521 57.3964L32.384 56.0382ZM27.0226 55.2462L25.5631 56.6137L27.0226 55.2462ZM8 16H10C10 12.6863 12.6863 10 16 10V8V6C10.4772 6 6 10.4772 6 16H8ZM8 29.7577H10V16H8H6V29.7577H8ZM8 44H10V29.7577H8H6V44H8ZM16 52V50C12.6863 50 10 47.3137 10 44H8H6C6 49.5228 10.4772 54 16 54V52ZM19.0486 52V50H16V52V54H19.0486V52ZM27.0226 55.2462L25.5631 56.6137C25.7799 56.8451 25.9925 57.0776 26.2005 57.3112L27.6944 55.9815L29.1883 54.6517C28.9563 54.3911 28.7207 54.1335 28.4821 53.8788L27.0226 55.2462ZM27.6944 55.9815L26.2006 57.3114C28.1611 59.5134 31.8291 59.5827 33.852 57.3965L32.384 56.0382L30.916 54.6799C30.5164 55.1118 29.597 55.1107 29.1882 54.6516L27.6944 55.9815ZM32.384 56.0382L33.8521 57.3964C34.1015 57.1269 34.3567 56.8584 34.6172 56.5907L33.184 55.1957L31.7509 53.8008C31.4686 54.0907 31.19 54.3837 30.9159 54.68L32.384 56.0382ZM44 52V50H41.1547V52V54H44V52ZM52 44H50C50 47.3137 47.3137 50 44 50V52V54C49.5228 54 54 49.5228 54 44H52ZM52 29.7577H50V44H52H54V29.7577H52ZM52 16H50V29.7577H52H54V16H52ZM44 8V10C47.3137 10 50 12.6863 50 16H52H54C54 10.4772 49.5228 6 44 6V8ZM16 8V10H44V8V6H16V8ZM33.184 55.1957L34.6172 56.5907C36.2654 54.8974 38.6375 54 41.1547 54V52V50C37.717 50 34.2562 51.2268 31.7509 53.8008L33.184 55.1957ZM19.0486 52V54C21.5852 54 23.9591 54.9017 25.5631 56.6137L27.0226 55.2462L28.4821 53.8788C25.9964 51.2258 22.4933 50 19.0486 50V52Z" fill="black" mask="url(#path-1-inside-1_8318_8682)"/>
<path d="M39.3237 37.4964C39.4009 37.4964 39.4781 37.5736 39.5553 37.6122L38.8218 38.616H38.7446C38.1269 38.3072 37.5864 37.9983 36.4282 37.9983C35.27 37.9983 34.7295 38.2685 34.0732 38.616C33.4169 38.9635 32.6448 39.3495 31.1777 39.3495C29.7106 39.3495 28.9385 38.9635 28.2822 38.616C27.6645 38.3072 27.124 37.9983 25.9272 37.9983C24.7304 37.9983 24.2285 38.2685 23.6108 38.616C22.9159 38.9635 22.1823 39.3495 20.7153 39.3495C19.2482 39.3495 18.5147 38.9635 17.8198 38.616C17.4723 38.423 17.1249 38.2685 16.7002 38.1527L17.0477 36.9559C17.5881 37.1103 18.0128 37.3034 18.3989 37.4964C19.0166 37.8053 19.5571 38.1141 20.7153 38.1141C21.8735 38.1141 22.414 37.8439 23.0703 37.4964C23.7266 37.149 24.4987 36.7629 25.9658 36.7629C27.4329 36.7629 28.205 37.149 28.8613 37.4964C29.479 37.8053 30.0195 38.1141 31.1777 38.1141C32.3359 38.1141 32.8764 37.8439 33.5327 37.4964C34.189 37.149 34.9612 36.7629 36.4282 36.7629C37.8953 36.7629 38.6674 37.149 39.3237 37.4964Z" fill="white"/>
<path d="M43.0299 32.0915H39.0535C39.0535 32.0915 37.3162 24.5632 37.2389 24.1385C37.1617 23.7138 36.8143 23.791 36.8143 23.791H34.8067C34.8067 23.791 34.5365 22.7101 34.4207 22.131C34.2662 21.5132 33.996 21.6677 33.996 21.6677C33.996 21.6677 31.3707 22.6714 31.0233 22.8259C30.6758 22.9803 30.7916 23.3664 30.7916 23.3664V25.7214H21.8735C21.2558 25.7214 21.2558 26.0688 21.2558 26.0688L19.7887 32.0915H18.8236C18.5919 32.0915 18.4375 32.2459 18.3989 32.4389L17.3951 35.9135C18.09 36.1066 18.5919 36.3768 19.0166 36.5698C19.5957 36.8787 19.9045 37.0331 20.7539 37.0331C21.6032 37.0331 21.9121 36.8787 22.4912 36.5698C23.2247 36.1838 24.2285 35.6819 25.9658 35.6819C27.7031 35.6819 28.7455 36.1838 29.479 36.5698C30.0581 36.8787 30.367 37.0331 31.2163 37.0331C32.0657 37.0331 32.3745 36.8787 32.9536 36.5698C33.6871 36.1838 34.6909 35.6819 36.4668 35.6819C38.2427 35.6819 39.2465 36.1838 39.98 36.5698C40.0572 36.5698 40.2503 36.6857 40.2503 36.6857L43.3002 32.4775C43.3002 32.4775 43.3002 32.4003 43.3002 32.3231C43.3002 32.1687 43.1844 32.0529 43.0299 32.0529V32.0915ZM21.7577 29.1574L22.1823 27.3429H26.1202V29.1574H21.7577ZM31.0619 29.1574H26.6993V27.3429H31.0619V29.1574ZM31.7568 29.1574V27.3429H36.1194L36.5826 29.1574H31.7568Z" fill="white"/>
</g>
<defs>
<filter id="filter0_d_8318_8682" x="0" y="0" width="60" height="65" filterUnits="userSpaceOnUse" color-interpolation-filters="sRGB">
<feFlood flood-opacity="0" result="BackgroundImageFix"/>
<feColorMatrix in="SourceAlpha" type="matrix" values="0 0 0 0 0 0 0 0 0 0 0 0 0 0 0 0 0 0 127 0" result="hardAlpha"/>
<feOffset/>
<feGaussianBlur stdDeviation="4"/>
<feColorMatrix type="matrix" values="0 0 0 0 0 0 0 0 0 0 0 0 0 0 0 0 0 0 0.23 0"/>
<feBlend mode="normal" in2="BackgroundImageFix" result="effect1_dropShadow_8318_8682"/>
<feBlend mode="normal" in="SourceGraphic" in2="effect1_dropShadow_8318_8682" result="shape"/>
</filter>
</defs>
</svg>
