<svg width="102" height="65" viewBox="0 0 102 65" fill="none" xmlns="http://www.w3.org/2000/svg">
<g filter="url(#filter0_d_8318_8719)">
<mask id="path-1-inside-1_8318_8719" fill="white">
<path fill-rule="evenodd" clip-rule="evenodd" d="M16 6C11.5817 6 8 9.58172 8 14V42C8 46.4183 11.5817 50 16 50H40.0486C43.0393 50 45.9778 51.0638 48.0226 53.2462C48.2503 53.4893 48.4744 53.7343 48.6944 53.9815C49.879 55.312 52.1727 55.3473 53.384 54.0382C53.6458 53.7553 53.9126 53.4746 54.184 53.1957C56.2608 51.0621 59.1772 50 62.1547 50H86C90.4183 50 94 46.4183 94 42V14C94 9.58172 90.4183 6 86 6H16Z"/>
</mask>
<path fill-rule="evenodd" clip-rule="evenodd" d="M16 6C11.5817 6 8 9.58172 8 14V42C8 46.4183 11.5817 50 16 50H40.0486C43.0393 50 45.9778 51.0638 48.0226 53.2462C48.2503 53.4893 48.4744 53.7343 48.6944 53.9815C49.879 55.312 52.1727 55.3473 53.384 54.0382C53.6458 53.7553 53.9126 53.4746 54.184 53.1957C56.2608 51.0621 59.1772 50 62.1547 50H86C90.4183 50 94 46.4183 94 42V14C94 9.58172 90.4183 6 86 6H16Z" fill="#012C44"/>
<path d="M48.6944 53.9815L47.2005 55.3112L47.2006 55.3114L48.6944 53.9815ZM53.384 54.0382L54.852 55.3965L54.8521 55.3964L53.384 54.0382ZM54.184 53.1957L52.7509 51.8008L54.184 53.1957ZM48.0226 53.2462L49.4821 51.8788L48.0226 53.2462ZM8 14H10C10 10.6863 12.6863 8 16 8V6V4C10.4772 4 6 8.47715 6 14H8ZM8 42H10V14H8H6V42H8ZM16 50V48C12.6863 48 10 45.3137 10 42H8H6C6 47.5228 10.4772 52 16 52V50ZM40.0486 50V48H16V50V52H40.0486V50ZM48.0226 53.2462L46.5631 54.6137C46.7799 54.8451 46.9925 55.0776 47.2005 55.3112L48.6944 53.9815L50.1883 52.6517C49.9563 52.3911 49.7207 52.1335 49.4821 51.8788L48.0226 53.2462ZM48.6944 53.9815L47.2006 55.3114C49.1611 57.5134 52.8291 57.5827 54.852 55.3965L53.384 54.0382L51.9161 52.6799C51.5164 53.1118 50.597 53.1107 50.1882 52.6515L48.6944 53.9815ZM53.384 54.0382L54.8521 55.3964C55.1015 55.1269 55.3567 54.8584 55.6172 54.5907L54.184 53.1957L52.7509 51.8008C52.4686 52.0907 52.19 52.3837 51.916 52.68L53.384 54.0382ZM86 50V48H62.1547V50V52H86V50ZM94 42H92C92 45.3137 89.3137 48 86 48V50V52C91.5229 52 96 47.5228 96 42H94ZM94 14H92V42H94H96V14H94ZM86 6V8C89.3137 8 92 10.6863 92 14H94H96C96 8.47715 91.5229 4 86 4V6ZM16 6V8H86V6V4H16V6ZM54.184 53.1957L55.6172 54.5907C57.2654 52.8974 59.6375 52 62.1547 52V50V48C58.717 48 55.2562 49.2268 52.7509 51.8008L54.184 53.1957ZM40.0486 50V52C42.5852 52 44.9591 52.9017 46.5631 54.6137L48.0226 53.2462L49.4821 51.8788C46.9964 49.2258 43.4933 48 40.0486 48V50Z" fill="#012C44" mask="url(#path-1-inside-1_8318_8719)"/>
<rect x="10" y="8" width="40" height="40" rx="6" fill="#82B962"/>
<path fill-rule="evenodd" clip-rule="evenodd" d="M17.4004 22.75C17.4004 21.5902 18.3406 20.65 19.5004 20.65H37.0004C40.4798 20.65 43.3004 23.4706 43.3004 26.95V32.55C43.3004 33.7098 42.3602 34.65 41.2004 34.65C41.2004 32.3304 39.32 30.45 37.0004 30.45C34.6808 30.45 32.8004 32.3304 32.8004 34.65H27.9004C27.9004 32.3304 26.02 30.45 23.7004 30.45C21.3808 30.45 19.5004 32.3304 19.5004 34.65C18.3406 34.65 17.4004 33.7098 17.4004 32.55V22.75ZM19.5004 23.45C19.5004 23.0635 19.8138 22.75 20.2004 22.75H22.2974C22.684 22.75 22.9974 23.0635 22.9974 23.45V26.95C22.9974 27.3366 22.684 27.65 22.2974 27.65H20.2004C19.8504 27.65 19.5004 27.3 19.5004 26.95V23.45ZM25.108 22.75C24.7214 22.75 24.408 23.0635 24.408 23.45L24.4004 26.95C24.4004 27.3 24.7504 27.65 25.1004 27.65H27.908C28.2946 27.65 28.608 27.3366 28.608 26.95V23.45C28.608 23.0635 28.2946 22.75 27.908 22.75H25.108ZM30.0185 23.45C30.0185 23.0635 30.3319 22.75 30.7185 22.75H33.5185C33.9051 22.75 34.2185 23.0635 34.2185 23.45V26.95C34.2185 27.3366 33.9051 27.65 33.5185 27.65H31.4185C30.6453 27.65 30.0004 27.7233 30.0004 26.95L30.0185 23.45ZM36.329 22.75C35.9424 22.75 35.629 23.0635 35.629 23.45V26.95C35.629 27.3366 35.9424 27.65 36.329 27.65H40.529C40.9156 27.65 41.229 27.3366 41.229 26.95C41.229 24.6304 39.3486 22.75 37.029 22.75H36.329Z" fill="black"/>
<path d="M26.5004 34.65C26.5004 36.1964 25.2468 37.45 23.7004 37.45C22.154 37.45 20.9004 36.1964 20.9004 34.65C20.9004 33.1036 22.154 31.85 23.7004 31.85C25.2468 31.85 26.5004 33.1036 26.5004 34.65Z" fill="black"/>
<path d="M39.8004 34.65C39.8004 36.1964 38.5468 37.45 37.0004 37.45C35.454 37.45 34.2004 36.1964 34.2004 34.65C34.2004 33.1036 35.454 31.85 37.0004 31.85C38.5468 31.85 39.8004 33.1036 39.8004 34.65Z" fill="black"/>
<rect x="52" y="8" width="40" height="40" rx="6" fill="#82B962"/>
<path fill-rule="evenodd" clip-rule="evenodd" d="M59.4004 24.325C59.4004 23.1652 60.3406 22.225 61.5004 22.225H79.0004C82.4798 22.225 85.3004 25.0456 85.3004 28.525V32.725C85.3004 33.8848 84.3649 34.825 83.2051 34.825C76.3616 34.825 63.3834 34.825 61.5004 34.825C60.3406 34.825 59.4004 33.8848 59.4004 32.725V24.325ZM61.5004 25.025C61.5004 24.6384 61.8138 24.325 62.2004 24.325H64.2974C64.684 24.325 64.9974 24.6384 64.9974 25.025V28.525C64.9974 28.9116 64.684 29.225 64.2974 29.225H62.2004C61.8504 29.225 61.5004 28.875 61.5004 28.525V25.025ZM67.108 24.325C66.7214 24.325 66.408 24.6384 66.408 25.025L66.4004 28.525C66.4004 28.875 66.7504 29.225 67.1004 29.225H69.908C70.2946 29.225 70.608 28.9116 70.608 28.525V25.025C70.608 24.6384 70.2946 24.325 69.908 24.325H67.108ZM72.0185 25.025C72.0185 24.6384 72.3319 24.325 72.7185 24.325H75.5185C75.9051 24.325 76.2185 24.6384 76.2185 25.025V28.525C76.2185 28.9116 75.9051 29.225 75.5185 29.225H73.4185C72.6453 29.225 72.0004 29.2982 72.0004 28.525L72.0185 25.025ZM78.329 24.325C77.9424 24.325 77.629 24.6384 77.629 25.025V28.525C77.629 28.9116 77.9424 29.225 78.329 29.225H82.529C82.9156 29.225 83.229 28.9116 83.229 28.525C83.229 26.2054 81.3486 24.325 79.029 24.325H78.329Z" fill="black"/>
<path fill-rule="evenodd" clip-rule="evenodd" d="M59.9254 36.925C59.9254 36.4417 60.3171 36.05 60.8004 36.05L83.9004 36.05C84.3836 36.05 84.7754 36.4417 84.7754 36.925C84.7754 37.4082 84.3836 37.8 83.9004 37.8L60.8004 37.8C60.3171 37.8 59.9254 37.4082 59.9254 36.925Z" fill="black"/>
<path fill-rule="evenodd" clip-rule="evenodd" d="M68.3254 19.425C68.3254 18.9417 68.7171 18.55 69.2004 18.55H74.8004C75.1459 18.55 75.4591 18.7533 75.5997 19.069C75.7403 19.3847 75.6819 19.7535 75.4508 20.0103L72.3008 23.5103C71.9775 23.8695 71.4242 23.8986 71.065 23.5754C70.7058 23.2521 70.6767 22.6988 71 22.3396L72.8357 20.3H69.2004C68.7171 20.3 68.3254 19.9082 68.3254 19.425Z" fill="black"/>
</g>
<defs>
<filter id="filter0_d_8318_8719" x="0" y="0" width="102" height="65" filterUnits="userSpaceOnUse" color-interpolation-filters="sRGB">
<feFlood flood-opacity="0" result="BackgroundImageFix"/>
<feColorMatrix in="SourceAlpha" type="matrix" values="0 0 0 0 0 0 0 0 0 0 0 0 0 0 0 0 0 0 127 0" result="hardAlpha"/>
<feOffset dy="2"/>
<feGaussianBlur stdDeviation="4"/>
<feColorMatrix type="matrix" values="0 0 0 0 0 0 0 0 0 0 0 0 0 0 0 0 0 0 0.16 0"/>
<feBlend mode="normal" in2="BackgroundImageFix" result="effect1_dropShadow_8318_8719"/>
<feBlend mode="normal" in="SourceGraphic" in2="effect1_dropShadow_8318_8719" result="shape"/>
</filter>
</defs>
</svg>
