<svg width="60" height="65" viewBox="0 0 60 65" fill="none" xmlns="http://www.w3.org/2000/svg">
<g filter="url(#filter0_d_8318_8677)">
<mask id="path-1-inside-1_8318_8677" fill="white">
<path fill-rule="evenodd" clip-rule="evenodd" d="M16 6C11.5817 6 8 9.58172 8 14V27.7577V42C8 46.4183 11.5817 50 16 50H19.0486C22.0393 50 24.9778 51.0638 27.0226 53.2462C27.2503 53.4893 27.4744 53.7343 27.6944 53.9815C28.879 55.312 31.1727 55.3473 32.384 54.0382C32.6457 53.7553 32.9126 53.4746 33.184 53.1957C35.2608 51.0621 38.1772 50 41.1547 50H44C48.4183 50 52 46.4183 52 42V27.7577V14C52 9.58172 48.4183 6 44 6H16Z"/>
</mask>
<path fill-rule="evenodd" clip-rule="evenodd" d="M16 6C11.5817 6 8 9.58172 8 14V27.7577V42C8 46.4183 11.5817 50 16 50H19.0486C22.0393 50 24.9778 51.0638 27.0226 53.2462C27.2503 53.4893 27.4744 53.7343 27.6944 53.9815C28.879 55.312 31.1727 55.3473 32.384 54.0382C32.6457 53.7553 32.9126 53.4746 33.184 53.1957C35.2608 51.0621 38.1772 50 41.1547 50H44C48.4183 50 52 46.4183 52 42V27.7577V14C52 9.58172 48.4183 6 44 6H16Z" fill="#007AB5"/>
<path d="M27.6944 53.9815L26.2005 55.3112L26.2006 55.3114L27.6944 53.9815ZM32.384 54.0382L33.852 55.3965L33.8521 55.3964L32.384 54.0382ZM27.0226 53.2462L25.5631 54.6137L27.0226 53.2462ZM8 14H10C10 10.6863 12.6863 8 16 8V6V4C10.4772 4 6 8.47715 6 14H8ZM8 27.7577H10V14H8H6V27.7577H8ZM8 42H10V27.7577H8H6V42H8ZM16 50V48C12.6863 48 10 45.3137 10 42H8H6C6 47.5228 10.4772 52 16 52V50ZM19.0486 50V48H16V50V52H19.0486V50ZM27.0226 53.2462L25.5631 54.6137C25.7799 54.8451 25.9925 55.0776 26.2005 55.3112L27.6944 53.9815L29.1883 52.6517C28.9563 52.3911 28.7207 52.1335 28.4821 51.8788L27.0226 53.2462ZM27.6944 53.9815L26.2006 55.3114C28.1611 57.5134 31.8291 57.5827 33.852 55.3965L32.384 54.0382L30.916 52.6799C30.5164 53.1118 29.597 53.1107 29.1882 52.6516L27.6944 53.9815ZM32.384 54.0382L33.8521 55.3964C34.1015 55.1269 34.3567 54.8584 34.6172 54.5907L33.184 53.1957L31.7509 51.8008C31.4686 52.0907 31.19 52.3837 30.9159 52.68L32.384 54.0382ZM44 50V48H41.1547V50V52H44V50ZM52 42H50C50 45.3137 47.3137 48 44 48V50V52C49.5228 52 54 47.5228 54 42H52ZM52 27.7577H50V42H52H54V27.7577H52ZM52 14H50V27.7577H52H54V14H52ZM44 6V8C47.3137 8 50 10.6863 50 14H52H54C54 8.47715 49.5228 4 44 4V6ZM16 6V8H44V6V4H16V6ZM33.184 53.1957L34.6172 54.5907C36.2654 52.8974 38.6375 52 41.1547 52V50V48C37.717 48 34.2562 49.2268 31.7509 51.8008L33.184 53.1957ZM19.0486 50V52C21.5852 52 23.9591 52.9017 25.5631 54.6137L27.0226 53.2462L28.4821 51.8788C25.9964 49.2258 22.4933 48 19.0486 48V50Z" fill="black" mask="url(#path-1-inside-1_8318_8677)"/>
<path d="M41.1851 31.6382C40.7907 31.2797 40.3606 30.8853 39.536 30.8853C38.7115 30.8853 38.2813 31.2797 37.887 31.6382C37.5285 31.9608 37.2058 32.2476 36.5606 32.2476C35.9153 32.2476 35.5926 31.9608 35.2341 31.6382C34.8398 31.2797 34.4096 30.8853 33.5851 30.8853C32.7606 30.8853 32.3304 31.2797 31.936 31.6382C31.5775 31.9608 31.2549 32.2476 30.6096 32.2476C29.9643 32.2476 29.6417 31.9608 29.2832 31.6382C29.104 31.4589 28.8889 31.2797 28.6379 31.1363C28.6379 31.1363 28.5662 31.1363 28.5304 31.1363C28.2794 31.0287 28.0285 30.957 27.67 30.957C26.8455 30.957 26.4153 31.3514 26.0568 31.7098C25.6983 32.0325 25.4115 32.3193 24.7662 32.3193C24.1209 32.3193 23.7983 32.0325 23.4757 31.7098C23.0813 31.3514 22.687 30.957 21.8625 30.957C21.0379 30.957 20.6077 31.3514 20.2493 31.7098C19.8908 32.0325 19.604 32.3193 18.9228 32.3193C18.2417 32.3193 17.9549 32.0325 17.6323 31.7098C17.4172 31.5306 17.2021 31.3155 16.8794 31.1363L16.7002 32.3193C16.9511 32.4268 17.1304 32.6061 17.3096 32.7853C17.704 33.1438 18.1342 33.5382 18.9228 33.5382C19.7115 33.5382 20.1776 33.1438 20.536 32.7853C20.8945 32.4627 21.1813 32.1759 21.8266 32.1759C22.4719 32.1759 22.7945 32.4627 23.153 32.7853C23.5474 33.1438 23.9417 33.5382 24.7662 33.5382C25.5908 33.5382 26.0209 33.1438 26.3794 32.7853C26.7379 32.4627 27.0247 32.1759 27.7058 32.1759C28.387 32.1759 28.2436 32.2476 28.4587 32.3551C28.6379 32.4627 28.8172 32.6061 28.9606 32.7495C29.3191 33.0721 29.7492 33.4665 30.5738 33.4665C31.3983 33.4665 31.8285 33.0721 32.2228 32.7136C32.5813 32.391 32.8681 32.1042 33.5492 32.1042C34.2304 32.1042 34.5172 32.391 34.8757 32.7136C35.27 33.0721 35.7002 33.4665 36.5247 33.4665C37.3492 33.4665 37.7794 33.0721 38.1738 32.7136C38.5323 32.391 38.8549 32.1042 39.5002 32.1042C40.1455 32.1042 40.4681 32.391 40.8266 32.7136L41.2209 31.7098C41.2209 31.7098 41.1492 31.6382 41.0775 31.6023V31.674L41.1851 31.6382Z" fill="white"/>
<path d="M28.4945 31.1004C28.2794 30.9929 28.0643 30.9212 27.7417 30.9212C27.4191 30.9212 27.1681 30.9929 26.953 31.1363L28.5304 31.1363L28.4945 31.1363V31.1004Z" fill="white"/>
<path d="M21.0021 31.1721H22.687C22.4719 31.0287 22.2209 30.9212 21.8625 30.9212C21.504 30.9212 21.2172 31.0287 21.0021 31.1721Z" fill="white"/>
<path d="M43.1926 26.1891H39.8587L34.7323 22.3891H21.2889C21.0738 22.3891 20.8945 22.5683 20.8587 22.7834L20.07 26.1891H18.8153C18.6002 26.1891 18.4209 26.3325 18.3851 26.5117L17.4172 29.9891L17.3096 30.0966C17.453 30.2042 17.5606 30.3117 17.704 30.4193C18.0625 30.7419 18.3493 31.0287 18.9945 31.0287C19.6398 31.0287 19.9625 30.7419 20.3209 30.4193C20.7153 30.0608 21.1096 29.6665 21.9342 29.6665C22.7587 29.6665 23.1889 30.0608 23.5474 30.4193C23.9059 30.7419 24.1926 31.0287 24.8379 31.0287C25.4832 31.0287 25.8059 30.7419 26.1285 30.4193C26.5228 30.0608 26.9172 29.6665 27.7417 29.6665C28.5662 29.6665 28.387 29.7382 28.6021 29.8457C28.9247 29.9891 29.1398 30.2042 29.3908 30.3834C29.7492 30.7061 30.0719 30.9929 30.7172 30.9929C31.3625 30.9929 31.6851 30.7061 32.0436 30.3834C32.4379 30.0249 32.8681 29.6306 33.6926 29.6306C34.5172 29.6306 34.9474 30.0249 35.3417 30.3834C35.7002 30.7061 36.0228 30.9929 36.6681 30.9929C37.3134 30.9929 37.636 30.7061 37.9945 30.3834C38.3889 30.0249 38.819 29.6306 39.6436 29.6306C40.4681 29.6306 40.5398 29.774 40.8266 29.9891L43.3002 26.5476C43.3002 26.5476 43.3002 26.4759 43.3002 26.4042C43.3002 26.2608 43.1926 26.1532 43.0492 26.1532H43.1568L43.1926 26.1891ZM25.5908 26.1891H21.0738L21.504 24.3249H25.5191V24.3966H25.5908V26.2249V26.1891ZM30.0719 26.1891H26.0926V24.3249H30.0719V26.1891ZM30.7172 26.1891V24.3249H35.3775L37.9228 26.1891H30.7172Z" fill="white"/>
<path d="M32.9757 31.1004H34.4455C34.2662 30.9929 34.0153 30.9212 33.7285 30.9212C33.4417 30.9212 33.1908 30.9929 32.9757 31.1004Z" fill="white"/>
<path d="M39.7153 30.9212C39.4285 30.9212 39.2492 30.9212 39.0341 31.0646H40.0379L40.1096 30.9929C40.0021 30.9929 39.8587 30.9929 39.7153 30.9929V30.9212Z" fill="white"/>
</g>
<defs>
<filter id="filter0_d_8318_8677" x="0" y="0" width="60" height="65" filterUnits="userSpaceOnUse" color-interpolation-filters="sRGB">
<feFlood flood-opacity="0" result="BackgroundImageFix"/>
<feColorMatrix in="SourceAlpha" type="matrix" values="0 0 0 0 0 0 0 0 0 0 0 0 0 0 0 0 0 0 127 0" result="hardAlpha"/>
<feOffset dy="2"/>
<feGaussianBlur stdDeviation="4"/>
<feColorMatrix type="matrix" values="0 0 0 0 0 0 0 0 0 0 0 0 0 0 0 0 0 0 0.16 0"/>
<feBlend mode="normal" in2="BackgroundImageFix" result="effect1_dropShadow_8318_8677"/>
<feBlend mode="normal" in="SourceGraphic" in2="effect1_dropShadow_8318_8677" result="shape"/>
</filter>
</defs>
</svg>
