<svg width="76" height="44" viewBox="0 0 76 44" fill="none" xmlns="http://www.w3.org/2000/svg">
<g filter="url(#filter0_d_8318_8697)">
<g clip-path="url(#clip0_8318_8697)">
<rect x="8" y="6" width="28" height="28" rx="4" fill="#82B962"/>
<path d="M31.5 23.5278C31.5 23.7778 31.3621 23.9167 31.1139 23.9167H28.246V23.6667C28.246 23.1111 28.053 22.6111 27.6393 22.2222C27.2533 21.8333 26.7569 21.6111 26.2054 21.6111C25.6538 21.6111 25.1299 21.8056 24.7438 22.2222C24.3578 22.6111 24.1372 23.1111 24.1372 23.6667C24.1372 24.2222 24.1372 23.75 24.1372 23.7778V23.8889H19.8077V23.6389C19.8077 23.0833 19.6147 22.5833 19.2286 22.1944C18.8425 21.8056 18.3462 21.5833 17.7671 21.5833C17.188 21.5833 16.6916 21.7778 16.3055 22.1944C15.9194 22.5833 15.7264 23.0833 15.7264 23.6389V23.8889H12.8861C12.7758 23.8889 12.693 23.8889 12.6103 23.7778C12.5276 23.6944 12.5 23.6111 12.5 23.5V16.1389C12.5 16.0278 12.5276 15.9444 12.6103 15.8611C12.693 15.7778 12.7758 15.75 12.8861 15.75H31.0588C31.1691 15.75 31.2518 15.75 31.3345 15.8611C31.4173 15.9444 31.4448 16.0278 31.4448 16.1389H31.5V23.5278ZM13.41 20.5556H17.188V17.4167H13.41V20.5556ZM19.394 23.6667C19.394 24.1111 19.2286 24.4722 18.9253 24.7778C18.6219 25.0833 18.2358 25.25 17.8222 25.25C17.4086 25.25 17.0225 25.0833 16.7192 24.7778C16.4158 24.4722 16.2504 24.0833 16.2504 23.6667C16.2504 23.25 16.4158 22.8611 16.7192 22.5556C17.0225 22.25 17.4086 22.1111 17.8222 22.1111C18.2358 22.1111 18.6219 22.25 18.9253 22.5556C19.2286 22.8611 19.394 23.2222 19.394 23.6667ZM17.8774 20.5556H21.6553V17.4167H17.8774V20.5556ZM22.3723 20.5556H26.1778V17.4167H22.3723V20.5556ZM27.8048 23.6667C27.8048 24.1111 27.6393 24.4722 27.336 24.7778C27.0327 25.0833 26.6466 25.25 26.2329 25.25C25.8193 25.25 25.4332 25.0833 25.1299 24.7778C24.8266 24.4722 24.6611 24.0833 24.6611 23.6667C24.6611 23.25 24.8266 22.8611 25.1299 22.5556C25.4332 22.25 25.8193 22.1111 26.2329 22.1111C26.6466 22.1111 27.0327 22.25 27.336 22.5556C27.6393 22.8611 27.8048 23.2222 27.8048 23.6667ZM26.8672 20.5556H30.6451V17.4167H26.8672V20.5556Z" fill="black"/>
</g>
<rect x="9" y="7" width="26" height="26" rx="3" stroke="#012C44" stroke-width="2"/>
<g clip-path="url(#clip1_8318_8697)">
<rect x="40" y="6" width="28" height="28" rx="4" fill="#82B962"/>
<path fill-rule="evenodd" clip-rule="evenodd" d="M45 17.375C45 16.5466 45.6716 15.875 46.5 15.875H59C61.4853 15.875 63.5 17.8897 63.5 20.375V23.375C63.5 24.2034 62.8318 24.875 62.0034 24.875C57.1152 24.875 47.845 24.875 46.5 24.875C45.6716 24.875 45 24.2034 45 23.375V17.375ZM46.5 17.875C46.5 17.5989 46.7239 17.375 47 17.375H48.4979C48.774 17.375 48.9979 17.5989 48.9979 17.875V20.375C48.9979 20.6511 48.774 20.875 48.4979 20.875H47C46.75 20.875 46.5 20.625 46.5 20.375V17.875ZM50.5054 17.375C50.2293 17.375 50.0054 17.5989 50.0054 17.875L50 20.375C50 20.625 50.25 20.875 50.5 20.875H52.5054C52.7816 20.875 53.0054 20.6511 53.0054 20.375V17.875C53.0054 17.5989 52.7816 17.375 52.5054 17.375H50.5054ZM54.0129 17.875C54.0129 17.5989 54.2368 17.375 54.5129 17.375H56.5129C56.7891 17.375 57.0129 17.5989 57.0129 17.875V20.375C57.0129 20.6511 56.7891 20.875 56.5129 20.875H55.0129C54.4607 20.875 54 20.9273 54 20.375L54.0129 17.875ZM58.5204 17.375C58.2443 17.375 58.0204 17.5989 58.0204 17.875V20.375C58.0204 20.6511 58.2443 20.875 58.5204 20.875H61.5204C61.7966 20.875 62.0204 20.6511 62.0204 20.375C62.0204 18.7181 60.6773 17.375 59.0204 17.375H58.5204Z" fill="black"/>
<path fill-rule="evenodd" clip-rule="evenodd" d="M45.375 26.375C45.375 26.0298 45.6548 25.75 46 25.75L62.5 25.75C62.8452 25.75 63.125 26.0298 63.125 26.375C63.125 26.7202 62.8452 27 62.5 27L46 27C45.6548 27 45.375 26.7202 45.375 26.375Z" fill="black"/>
<path fill-rule="evenodd" clip-rule="evenodd" d="M51.375 13.875C51.375 13.5298 51.6548 13.25 52 13.25H56C56.2468 13.25 56.4705 13.3953 56.5709 13.6207C56.6714 13.8462 56.6297 14.1096 56.4646 14.2931L54.2146 16.7931C53.9836 17.0497 53.5885 17.0705 53.3319 16.8396C53.0753 16.6086 53.0545 16.2135 53.2854 15.9569L54.5966 14.5H52C51.6548 14.5 51.375 14.2202 51.375 13.875Z" fill="black"/>
</g>
<rect x="41" y="7" width="26" height="26" rx="3" stroke="#012C44" stroke-width="2"/>
</g>
<defs>
<filter id="filter0_d_8318_8697" x="0" y="0" width="76" height="44" filterUnits="userSpaceOnUse" color-interpolation-filters="sRGB">
<feFlood flood-opacity="0" result="BackgroundImageFix"/>
<feColorMatrix in="SourceAlpha" type="matrix" values="0 0 0 0 0 0 0 0 0 0 0 0 0 0 0 0 0 0 127 0" result="hardAlpha"/>
<feOffset dy="2"/>
<feGaussianBlur stdDeviation="4"/>
<feColorMatrix type="matrix" values="0 0 0 0 0 0 0 0 0 0 0 0 0 0 0 0 0 0 0.16 0"/>
<feBlend mode="normal" in2="BackgroundImageFix" result="effect1_dropShadow_8318_8697"/>
<feBlend mode="normal" in="SourceGraphic" in2="effect1_dropShadow_8318_8697" result="shape"/>
</filter>
<clipPath id="clip0_8318_8697">
<rect x="8" y="6" width="28" height="28" rx="4" fill="white"/>
</clipPath>
<clipPath id="clip1_8318_8697">
<rect x="40" y="6" width="28" height="28" rx="4" fill="white"/>
</clipPath>
</defs>
</svg>
