<svg width="60" height="65" viewBox="0 0 60 65" fill="none" xmlns="http://www.w3.org/2000/svg">
<g filter="url(#filter0_d_896_7513)">
<mask id="path-1-inside-1_896_7513" fill="white">
<path fill-rule="evenodd" clip-rule="evenodd" d="M16 6C11.5817 6 8 9.58172 8 14V27.7577V42C8 46.4183 11.5817 50 16 50H19.0486C22.0393 50 24.9778 51.0638 27.0226 53.2462C27.2503 53.4893 27.4744 53.7343 27.6944 53.9815C28.879 55.312 31.1727 55.3473 32.384 54.0382C32.6457 53.7553 32.9126 53.4746 33.184 53.1957C35.2608 51.0621 38.1772 50 41.1547 50H44C48.4183 50 52 46.4183 52 42V27.7577V14C52 9.58172 48.4183 6 44 6H16Z"/>
</mask>
<path fill-rule="evenodd" clip-rule="evenodd" d="M16 6C11.5817 6 8 9.58172 8 14V27.7577V42C8 46.4183 11.5817 50 16 50H19.0486C22.0393 50 24.9778 51.0638 27.0226 53.2462C27.2503 53.4893 27.4744 53.7343 27.6944 53.9815C28.879 55.312 31.1727 55.3473 32.384 54.0382C32.6457 53.7553 32.9126 53.4746 33.184 53.1957C35.2608 51.0621 38.1772 50 41.1547 50H44C48.4183 50 52 46.4183 52 42V27.7577V14C52 9.58172 48.4183 6 44 6H16Z" fill="#82B962"/>
<path d="M27.6944 53.9815L26.2005 55.3112L26.2006 55.3114L27.6944 53.9815ZM32.384 54.0382L33.852 55.3965L33.8521 55.3964L32.384 54.0382ZM27.0226 53.2462L25.5631 54.6137L27.0226 53.2462ZM10 14C10 10.6863 12.6863 8 16 8V4C10.4772 4 6 8.47715 6 14H10ZM10 27.7577V14H6V27.7577H10ZM10 42V27.7577H6V42H10ZM16 48C12.6863 48 10 45.3137 10 42H6C6 47.5228 10.4772 52 16 52V48ZM19.0486 48H16V52H19.0486V48ZM25.5631 54.6137C25.7799 54.8451 25.9925 55.0776 26.2005 55.3112L29.1883 52.6517C28.9563 52.3911 28.7207 52.1335 28.4821 51.8788L25.5631 54.6137ZM26.2006 55.3114C28.1611 57.5134 31.8291 57.5827 33.852 55.3965L30.916 52.6799C30.5164 53.1118 29.597 53.1107 29.1882 52.6515L26.2006 55.3114ZM33.8521 55.3964C34.1015 55.1269 34.3567 54.8584 34.6172 54.5907L31.7509 51.8008C31.4686 52.0907 31.19 52.3837 30.9159 52.68L33.8521 55.3964ZM44 48H41.1547V52H44V48ZM50 42C50 45.3137 47.3137 48 44 48V52C49.5228 52 54 47.5228 54 42H50ZM50 27.7577V42H54V27.7577H50ZM50 14V27.7577H54V14H50ZM44 8C47.3137 8 50 10.6863 50 14H54C54 8.47715 49.5228 4 44 4V8ZM16 8H44V4H16V8ZM34.6172 54.5907C36.2654 52.8974 38.6375 52 41.1547 52V48C37.717 48 34.2562 49.2268 31.7509 51.8008L34.6172 54.5907ZM19.0486 52C21.5852 52 23.9591 52.9017 25.5631 54.6137L28.4821 51.8788C25.9964 49.2258 22.4933 48 19.0486 48V52Z" fill="#012C44" mask="url(#path-1-inside-1_896_7513)"/>
<path fill-rule="evenodd" clip-rule="evenodd" d="M17.4 24.3258C17.4 23.166 18.3402 22.2258 19.5 22.2258H37C40.4794 22.2258 43.3 25.0464 43.3 28.5258V32.7258C43.3 33.8856 42.3645 34.8258 41.2047 34.8258C34.3613 34.8258 21.383 34.8258 19.5 34.8258C18.3402 34.8258 17.4 33.8856 17.4 32.7258V24.3258ZM19.5 25.0258C19.5 24.6392 19.8134 24.3258 20.2 24.3258H22.2971C22.6837 24.3258 22.9971 24.6392 22.9971 25.0258V28.5258C22.9971 28.9124 22.6837 29.2258 22.2971 29.2258H20.2C19.85 29.2258 19.5 28.8758 19.5 28.5258V25.0258ZM25.1076 24.3258C24.721 24.3258 24.4076 24.6392 24.4076 25.0258L24.4 28.5258C24.4 28.8758 24.75 29.2258 25.1 29.2258H27.9076C28.2942 29.2258 28.6076 28.9124 28.6076 28.5258V25.0258C28.6076 24.6392 28.2942 24.3258 27.9076 24.3258H25.1076ZM30.0181 25.0258C30.0181 24.6392 30.3315 24.3258 30.7181 24.3258H33.5181C33.9047 24.3258 34.2181 24.6392 34.2181 25.0258V28.5258C34.2181 28.9124 33.9047 29.2258 33.5181 29.2258H31.4181C30.6449 29.2258 30 29.299 30 28.5258L30.0181 25.0258ZM36.3286 24.3258C35.9421 24.3258 35.6286 24.6392 35.6286 25.0258V28.5258C35.6286 28.9124 35.9421 29.2258 36.3286 29.2258H40.5286C40.9152 29.2258 41.2286 28.9124 41.2286 28.5258C41.2286 26.2062 39.3482 24.3258 37.0286 24.3258H36.3286Z" fill="black"/>
<path fill-rule="evenodd" clip-rule="evenodd" d="M17.925 36.9258C17.925 36.4425 18.3168 36.0508 18.8 36.0508L41.9 36.0508C42.3833 36.0508 42.775 36.4425 42.775 36.9258C42.775 37.409 42.3833 37.8008 41.9 37.8008L18.8 37.8008C18.3168 37.8008 17.925 37.409 17.925 36.9258Z" fill="black"/>
<path fill-rule="evenodd" clip-rule="evenodd" d="M26.325 19.4258C26.325 18.9425 26.7168 18.5508 27.2 18.5508H32.8C33.1456 18.5508 33.4588 18.7541 33.5993 19.0698C33.7399 19.3855 33.6816 19.7543 33.4504 20.0111L30.3004 23.5111C29.9771 23.8703 29.4239 23.8994 29.0647 23.5762C28.7055 23.2529 28.6764 22.6996 28.9996 22.3404L30.8353 20.3008H27.2C26.7168 20.3008 26.325 19.909 26.325 19.4258Z" fill="black"/>
</g>
<defs>
<filter id="filter0_d_896_7513" x="0" y="0" width="60" height="65" filterUnits="userSpaceOnUse" color-interpolation-filters="sRGB">
<feFlood flood-opacity="0" result="BackgroundImageFix"/>
<feColorMatrix in="SourceAlpha" type="matrix" values="0 0 0 0 0 0 0 0 0 0 0 0 0 0 0 0 0 0 127 0" result="hardAlpha"/>
<feOffset dy="2"/>
<feGaussianBlur stdDeviation="4"/>
<feColorMatrix type="matrix" values="0 0 0 0 0 0 0 0 0 0 0 0 0 0 0 0 0 0 0.16 0"/>
<feBlend mode="normal" in2="BackgroundImageFix" result="effect1_dropShadow_896_7513"/>
<feBlend mode="normal" in="SourceGraphic" in2="effect1_dropShadow_896_7513" result="shape"/>
</filter>
</defs>
</svg>
