<svg width="60" height="65" viewBox="0 0 60 65" fill="none" xmlns="http://www.w3.org/2000/svg">
<g filter="url(#filter0_d_8318_8677)">
<mask id="path-1-inside-1_8318_8677" fill="white">
<path fill-rule="evenodd" clip-rule="evenodd" d="M16 8C11.5817 8 8 11.5817 8 16V29.7577V44C8 48.4183 11.5817 52 16 52H19.0486C22.0393 52 24.9778 53.0638 27.0226 55.2462C27.2503 55.4893 27.4744 55.7343 27.6944 55.9815C28.879 57.312 31.1727 57.3473 32.384 56.0382C32.6457 55.7553 32.9126 55.4746 33.184 55.1957C35.2608 53.0621 38.1772 52 41.1547 52H44C48.4183 52 52 48.4183 52 44V29.7577V16C52 11.5817 48.4183 8 44 8H16Z"/>
</mask>
<path fill-rule="evenodd" clip-rule="evenodd" d="M16 8C11.5817 8 8 11.5817 8 16V29.7577V44C8 48.4183 11.5817 52 16 52H19.0486C22.0393 52 24.9778 53.0638 27.0226 55.2462C27.2503 55.4893 27.4744 55.7343 27.6944 55.9815C28.879 57.312 31.1727 57.3473 32.384 56.0382C32.6457 55.7553 32.9126 55.4746 33.184 55.1957C35.2608 53.0621 38.1772 52 41.1547 52H44C48.4183 52 52 48.4183 52 44V29.7577V16C52 11.5817 48.4183 8 44 8H16Z" fill="#007AB5"/>
<path d="M27.6944 55.9815L26.2005 57.3112L26.2006 57.3114L27.6944 55.9815ZM32.384 56.0382L33.852 57.3965L33.8521 57.3964L32.384 56.0382ZM27.0226 55.2462L25.5631 56.6137L27.0226 55.2462ZM8 16H10C10 12.6863 12.6863 10 16 10V8V6C10.4772 6 6 10.4772 6 16H8ZM8 29.7577H10V16H8H6V29.7577H8ZM8 44H10V29.7577H8H6V44H8ZM16 52V50C12.6863 50 10 47.3137 10 44H8H6C6 49.5228 10.4772 54 16 54V52ZM19.0486 52V50H16V52V54H19.0486V52ZM27.0226 55.2462L25.5631 56.6137C25.7799 56.8451 25.9925 57.0776 26.2005 57.3112L27.6944 55.9815L29.1883 54.6517C28.9563 54.3911 28.7207 54.1335 28.4821 53.8788L27.0226 55.2462ZM27.6944 55.9815L26.2006 57.3114C28.1611 59.5134 31.8291 59.5827 33.852 57.3965L32.384 56.0382L30.916 54.6799C30.5164 55.1118 29.597 55.1107 29.1882 54.6516L27.6944 55.9815ZM32.384 56.0382L33.8521 57.3964C34.1015 57.1269 34.3567 56.8584 34.6172 56.5907L33.184 55.1957L31.7509 53.8008C31.4686 54.0907 31.19 54.3837 30.9159 54.68L32.384 56.0382ZM44 52V50H41.1547V52V54H44V52ZM52 44H50C50 47.3137 47.3137 50 44 50V52V54C49.5228 54 54 49.5228 54 44H52ZM52 29.7577H50V44H52H54V29.7577H52ZM52 16H50V29.7577H52H54V16H52ZM44 8V10C47.3137 10 50 12.6863 50 16H52H54C54 10.4772 49.5228 6 44 6V8ZM16 8V10H44V8V6H16V8ZM33.184 55.1957L34.6172 56.5907C36.2654 54.8974 38.6375 54 41.1547 54V52V50C37.717 50 34.2562 51.2268 31.7509 53.8008L33.184 55.1957ZM19.0486 52V54C21.5852 54 23.9591 54.9017 25.5631 56.6137L27.0226 55.2462L28.4821 53.8788C25.9964 51.2258 22.4933 50 19.0486 50V52Z" fill="black" mask="url(#path-1-inside-1_8318_8677)"/>
<path d="M41.1851 33.6382C40.7908 33.2797 40.3606 32.8853 39.536 32.8853C38.7115 32.8853 38.2813 33.2797 37.887 33.6382C37.5285 33.9608 37.2058 34.2476 36.5606 34.2476C35.9153 34.2476 35.5926 33.9608 35.2341 33.6382C34.8398 33.2797 34.4096 32.8853 33.5851 32.8853C32.7606 32.8853 32.3304 33.2797 31.936 33.6382C31.5775 33.9608 31.2549 34.2476 30.6096 34.2476C29.9643 34.2476 29.6417 33.9608 29.2832 33.6382C29.104 33.4589 28.8889 33.2797 28.6379 33.1363C28.6379 33.1363 28.5662 33.1363 28.5304 33.1363C28.2794 33.0287 28.0285 32.957 27.67 32.957C26.8455 32.957 26.4153 33.3514 26.0568 33.7099C25.6983 34.0325 25.4115 34.3193 24.7662 34.3193C24.1209 34.3193 23.7983 34.0325 23.4757 33.7099C23.0813 33.3514 22.687 32.957 21.8625 32.957C21.0379 32.957 20.6077 33.3514 20.2493 33.7099C19.8908 34.0325 19.604 34.3193 18.9228 34.3193C18.2417 34.3193 17.9549 34.0325 17.6323 33.7099C17.4172 33.5306 17.2021 33.3155 16.8794 33.1363L16.7002 34.3193C16.9511 34.4268 17.1304 34.6061 17.3096 34.7853C17.704 35.1438 18.1342 35.5382 18.9228 35.5382C19.7115 35.5382 20.1776 35.1438 20.536 34.7853C20.8945 34.4627 21.1813 34.1759 21.8266 34.1759C22.4719 34.1759 22.7945 34.4627 23.153 34.7853C23.5474 35.1438 23.9417 35.5382 24.7662 35.5382C25.5908 35.5382 26.0209 35.1438 26.3794 34.7853C26.7379 34.4627 27.0247 34.1759 27.7059 34.1759C28.387 34.1759 28.2436 34.2476 28.4587 34.3551C28.6379 34.4627 28.8172 34.6061 28.9606 34.7495C29.3191 35.0721 29.7492 35.4665 30.5738 35.4665C31.3983 35.4665 31.8285 35.0721 32.2228 34.7136C32.5813 34.391 32.8681 34.1042 33.5492 34.1042C34.2304 34.1042 34.5172 34.391 34.8757 34.7136C35.27 35.0721 35.7002 35.4665 36.5247 35.4665C37.3492 35.4665 37.7794 35.0721 38.1738 34.7136C38.5323 34.391 38.8549 34.1042 39.5002 34.1042C40.1455 34.1042 40.4681 34.391 40.8266 34.7136L41.2209 33.7099C41.2209 33.7099 41.1492 33.6382 41.0775 33.6023V33.674L41.1851 33.6382Z" fill="white"/>
<path d="M28.4945 33.1004C28.2794 32.9929 28.0643 32.9212 27.7417 32.9212C27.4191 32.9212 27.1681 32.9929 26.953 33.1363L28.5304 33.1363L28.4945 33.1363V33.1004Z" fill="white"/>
<path d="M21.0021 33.1721H22.687C22.4719 33.0287 22.2209 32.9212 21.8625 32.9212C21.504 32.9212 21.2172 33.0287 21.0021 33.1721Z" fill="white"/>
<path d="M43.1926 28.1891H39.8587L34.7323 24.3891H21.2889C21.0738 24.3891 20.8945 24.5683 20.8587 24.7834L20.07 28.1891H18.8153C18.6002 28.1891 18.4209 28.3325 18.3851 28.5117L17.4172 31.9891L17.3096 32.0966C17.453 32.2042 17.5606 32.3117 17.704 32.4193C18.0625 32.7419 18.3493 33.0287 18.9945 33.0287C19.6398 33.0287 19.9625 32.7419 20.3209 32.4193C20.7153 32.0608 21.1096 31.6665 21.9342 31.6665C22.7587 31.6665 23.1889 32.0608 23.5474 32.4193C23.9059 32.7419 24.1926 33.0287 24.8379 33.0287C25.4832 33.0287 25.8059 32.7419 26.1285 32.4193C26.5228 32.0608 26.9172 31.6665 27.7417 31.6665C28.5662 31.6665 28.387 31.7382 28.6021 31.8457C28.9247 31.9891 29.1398 32.2042 29.3908 32.3834C29.7492 32.7061 30.0719 32.9929 30.7172 32.9929C31.3625 32.9929 31.6851 32.7061 32.0436 32.3834C32.4379 32.0249 32.8681 31.6306 33.6926 31.6306C34.5172 31.6306 34.9474 32.0249 35.3417 32.3834C35.7002 32.7061 36.0228 32.9929 36.6681 32.9929C37.3134 32.9929 37.636 32.7061 37.9945 32.3834C38.3889 32.0249 38.819 31.6306 39.6436 31.6306C40.4681 31.6306 40.5398 31.774 40.8266 31.9891L43.3002 28.5476C43.3002 28.5476 43.3002 28.4759 43.3002 28.4042C43.3002 28.2608 43.1926 28.1532 43.0492 28.1532H43.1568L43.1926 28.1891ZM25.5908 28.1891H21.0738L21.504 26.3249H25.5191V26.3966H25.5908V28.2249V28.1891ZM30.0719 28.1891H26.0926V26.3249H30.0719V28.1891ZM30.7172 28.1891V26.3249H35.3775L37.9228 28.1891H30.7172Z" fill="white"/>
<path d="M32.9757 33.1004H34.4455C34.2662 32.9929 34.0153 32.9212 33.7285 32.9212C33.4417 32.9212 33.1908 32.9929 32.9757 33.1004Z" fill="white"/>
<path d="M39.7153 32.9212C39.4285 32.9212 39.2492 32.9212 39.0341 33.0646H40.0379L40.1096 32.9929C40.0021 32.9929 39.8587 32.9929 39.7153 32.9929V32.9212Z" fill="white"/>
</g>
<defs>
<filter id="filter0_d_8318_8677" x="0" y="0" width="60" height="65" filterUnits="userSpaceOnUse" color-interpolation-filters="sRGB">
<feFlood flood-opacity="0" result="BackgroundImageFix"/>
<feColorMatrix in="SourceAlpha" type="matrix" values="0 0 0 0 0 0 0 0 0 0 0 0 0 0 0 0 0 0 127 0" result="hardAlpha"/>
<feOffset/>
<feGaussianBlur stdDeviation="4"/>
<feColorMatrix type="matrix" values="0 0 0 0 0 0 0 0 0 0 0 0 0 0 0 0 0 0 0.23 0"/>
<feBlend mode="normal" in2="BackgroundImageFix" result="effect1_dropShadow_8318_8677"/>
<feBlend mode="normal" in="SourceGraphic" in2="effect1_dropShadow_8318_8677" result="shape"/>
</filter>
</defs>
</svg>
