<svg width="64" height="64" viewBox="0 0 64 64" fill="none" xmlns="http://www.w3.org/2000/svg">
<g filter="url(#filter0_d_10364_5763)">
<path d="M10 30C10 17.8497 19.8497 8 32 8C44.1503 8 54 17.8497 54 30C54 42.1503 44.1503 52 32 52C19.8497 52 10 42.1503 10 30Z" fill="#005686"/>
<path d="M32 7C44.7025 7 55 17.2975 55 30C55 42.7025 44.7025 53 32 53C19.2975 53 9 42.7025 9 30C9 17.2975 19.2975 7 32 7Z" stroke="black" stroke-width="2"/>
<path d="M45.3002 34.7389C45.3002 35.0889 45.1072 35.2833 44.7597 35.2833H40.7446V34.9333C40.7446 34.1556 40.4744 33.4556 39.8953 32.9111C39.3548 32.3667 38.6598 32.0556 37.8877 32.0556C37.1156 32.0556 36.3821 32.3278 35.8416 32.9111C35.3011 33.4556 34.9922 34.1556 34.9922 34.9333C34.9922 35.7111 34.9922 35.05 34.9922 35.0889V35.2445H28.931V34.8945C28.931 34.1167 28.6607 33.4167 28.1202 32.8722C27.5797 32.3278 26.8848 32.0167 26.0741 32.0167C25.2633 32.0167 24.5684 32.2889 24.0279 32.8722C23.4874 33.4167 23.2172 34.1167 23.2172 34.8945V35.2445H19.2407C19.0863 35.2445 18.9704 35.2445 18.8546 35.0889C18.7388 34.9722 18.7002 34.8556 18.7002 34.7V24.3945C18.7002 24.2389 18.7388 24.1222 18.8546 24.0056C18.9704 23.8889 19.0863 23.85 19.2407 23.85H44.6825C44.8369 23.85 44.9527 23.85 45.0686 24.0056C45.1844 24.1222 45.223 24.2389 45.223 24.3945H45.3002V34.7389ZM19.9742 30.5778H25.2633V26.1833H19.9742V30.5778ZM28.3519 34.9333C28.3519 35.5556 28.1202 36.0611 27.6956 36.4889C27.2709 36.9167 26.7304 37.15 26.1513 37.15C25.5722 37.15 25.0317 36.9167 24.607 36.4889C24.1823 36.0611 23.9507 35.5167 23.9507 34.9333C23.9507 34.35 24.1823 33.8056 24.607 33.3778C25.0317 32.95 25.5722 32.7556 26.1513 32.7556C26.7304 32.7556 27.2709 32.95 27.6956 33.3778C28.1202 33.8056 28.3519 34.3111 28.3519 34.9333ZM26.2285 30.5778H31.5176V26.1833H26.2285V30.5778ZM32.5214 30.5778H37.8491V26.1833H32.5214V30.5778ZM40.1269 34.9333C40.1269 35.5556 39.8953 36.0611 39.4706 36.4889C39.0459 36.9167 38.5054 37.15 37.9263 37.15C37.3472 37.15 36.8067 36.9167 36.3821 36.4889C35.9574 36.0611 35.7257 35.5167 35.7257 34.9333C35.7257 34.35 35.9574 33.8056 36.3821 33.3778C36.8067 32.95 37.3472 32.7556 37.9263 32.7556C38.5054 32.7556 39.0459 32.95 39.4706 33.3778C39.8953 33.8056 40.1269 34.3111 40.1269 34.9333ZM38.8143 30.5778H44.1034V26.1833H38.8143V30.5778Z" fill="white"/>
</g>
<defs>
<filter id="filter0_d_10364_5763" x="0" y="0" width="64" height="64" filterUnits="userSpaceOnUse" color-interpolation-filters="sRGB">
<feFlood flood-opacity="0" result="BackgroundImageFix"/>
<feColorMatrix in="SourceAlpha" type="matrix" values="0 0 0 0 0 0 0 0 0 0 0 0 0 0 0 0 0 0 127 0" result="hardAlpha"/>
<feOffset dy="2"/>
<feGaussianBlur stdDeviation="4"/>
<feColorMatrix type="matrix" values="0 0 0 0 0 0 0 0 0 0 0 0 0 0 0 0 0 0 0.16 0"/>
<feBlend mode="normal" in2="BackgroundImageFix" result="effect1_dropShadow_10364_5763"/>
<feBlend mode="normal" in="SourceGraphic" in2="effect1_dropShadow_10364_5763" result="shape"/>
</filter>
</defs>
</svg>
