<svg width="64" height="64" viewBox="0 0 64 64" fill="none" xmlns="http://www.w3.org/2000/svg">
<g filter="url(#filter0_d_10364_5789)">
<path d="M10 32C10 19.8497 19.8497 10 32 10C44.1503 10 54 19.8497 54 32C54 44.1503 44.1503 54 32 54C19.8497 54 10 44.1503 10 32Z" fill="#5B0C0E"/>
<path d="M32 9C44.7025 9 55 19.2975 55 32C55 44.7025 44.7025 55 32 55C19.2975 55 9 44.7025 9 32C9 19.2975 19.2975 9 32 9Z" stroke="black" stroke-width="2"/>
<path d="M43.1851 35.6381C42.7908 35.2796 42.3606 34.8853 41.536 34.8853C40.7115 34.8853 40.2813 35.2796 39.887 35.6381C39.5285 35.9608 39.2058 36.2476 38.5606 36.2476C37.9153 36.2476 37.5926 35.9608 37.2341 35.6381C36.8398 35.2796 36.4096 34.8853 35.5851 34.8853C34.7606 34.8853 34.3304 35.2796 33.936 35.6381C33.5775 35.9608 33.2549 36.2476 32.6096 36.2476C31.9643 36.2476 31.6417 35.9608 31.2832 35.6381C31.104 35.4589 30.8889 35.2796 30.6379 35.1363C30.6379 35.1363 30.5662 35.1363 30.5304 35.1363C30.2794 35.0287 30.0285 34.957 29.67 34.957C28.8455 34.957 28.4153 35.3513 28.0568 35.7098C27.6983 36.0325 27.4115 36.3193 26.7662 36.3193C26.1209 36.3193 25.7983 36.0325 25.4757 35.7098C25.0813 35.3513 24.687 34.957 23.8625 34.957C23.0379 34.957 22.6077 35.3513 22.2493 35.7098C21.8908 36.0325 21.604 36.3193 20.9228 36.3193C20.2417 36.3193 19.9549 36.0325 19.6323 35.7098C19.4172 35.5306 19.2021 35.3155 18.8794 35.1363L18.7002 36.3193C18.9511 36.4268 19.1304 36.6061 19.3096 36.7853C19.704 37.1438 20.1342 37.5381 20.9228 37.5381C21.7115 37.5381 22.1776 37.1438 22.536 36.7853C22.8945 36.4627 23.1813 36.1759 23.8266 36.1759C24.4719 36.1759 24.7945 36.4627 25.153 36.7853C25.5474 37.1438 25.9417 37.5381 26.7662 37.5381C27.5908 37.5381 28.0209 37.1438 28.3794 36.7853C28.7379 36.4627 29.0247 36.1759 29.7059 36.1759C30.387 36.1759 30.2436 36.2476 30.4587 36.3551C30.6379 36.4627 30.8172 36.6061 30.9606 36.7495C31.3191 37.0721 31.7492 37.4664 32.5738 37.4664C33.3983 37.4664 33.8285 37.0721 34.2228 36.7136C34.5813 36.391 34.8681 36.1042 35.5492 36.1042C36.2304 36.1042 36.5172 36.391 36.8757 36.7136C37.27 37.0721 37.7002 37.4664 38.5247 37.4664C39.3492 37.4664 39.7794 37.0721 40.1738 36.7136C40.5323 36.391 40.8549 36.1042 41.5002 36.1042C42.1455 36.1042 42.4681 36.391 42.8266 36.7136L43.2209 35.7098C43.2209 35.7098 43.1492 35.6381 43.0775 35.6023V35.674L43.1851 35.6381Z" fill="#E31B22"/>
<path d="M30.4945 35.1004C30.2794 34.9929 30.0643 34.9212 29.7417 34.9212C29.4191 34.9212 29.1681 34.9929 28.953 35.1363L30.5304 35.1363L30.4945 35.1363V35.1004Z" fill="#E31B22"/>
<path d="M23.0021 35.1721H24.687C24.4719 35.0287 24.2209 34.9212 23.8625 34.9212C23.504 34.9212 23.2172 35.0287 23.0021 35.1721Z" fill="#E31B22"/>
<path d="M45.1926 30.1891H41.8587L36.7323 26.3891H23.2889C23.0738 26.3891 22.8945 26.5683 22.8587 26.7834L22.07 30.1891H20.8153C20.6002 30.1891 20.4209 30.3325 20.3851 30.5117L19.4172 33.9891L19.3096 34.0966C19.453 34.2042 19.5606 34.3117 19.704 34.4193C20.0625 34.7419 20.3493 35.0287 20.9945 35.0287C21.6398 35.0287 21.9625 34.7419 22.3209 34.4193C22.7153 34.0608 23.1096 33.6664 23.9342 33.6664C24.7587 33.6664 25.1889 34.0608 25.5474 34.4193C25.9059 34.7419 26.1926 35.0287 26.8379 35.0287C27.4832 35.0287 27.8059 34.7419 28.1285 34.4193C28.5228 34.0608 28.9172 33.6664 29.7417 33.6664C30.5662 33.6664 30.387 33.7381 30.6021 33.8457C30.9247 33.9891 31.1398 34.2042 31.3908 34.3834C31.7492 34.7061 32.0719 34.9929 32.7172 34.9929C33.3625 34.9929 33.6851 34.7061 34.0436 34.3834C34.4379 34.0249 34.8681 33.6306 35.6926 33.6306C36.5172 33.6306 36.9474 34.0249 37.3417 34.3834C37.7002 34.7061 38.0228 34.9929 38.6681 34.9929C39.3134 34.9929 39.636 34.7061 39.9945 34.3834C40.3889 34.0249 40.819 33.6306 41.6436 33.6306C42.4681 33.6306 42.5398 33.774 42.8266 33.9891L45.3002 30.5476C45.3002 30.5476 45.3002 30.4759 45.3002 30.4042C45.3002 30.2608 45.1926 30.1532 45.0492 30.1532H45.1568L45.1926 30.1891ZM27.5908 30.1891H23.0738L23.504 28.3249H27.5191V28.3966H27.5908V30.2249V30.1891ZM32.0719 30.1891H28.0926V28.3249H32.0719V30.1891ZM32.7172 30.1891V28.3249H37.3775L39.9228 30.1891H32.7172Z" fill="#E31B22"/>
<path d="M34.9757 35.1004H36.4455C36.2662 34.9929 36.0153 34.9212 35.7285 34.9212C35.4417 34.9212 35.1908 34.9929 34.9757 35.1004Z" fill="#E31B22"/>
<path d="M41.7153 34.9212C41.4285 34.9212 41.2492 34.9212 41.0341 35.0646H42.0379L42.1096 34.9929C42.0021 34.9929 41.8587 34.9929 41.7153 34.9929V34.9212Z" fill="#E31B22"/>
</g>
<defs>
<filter id="filter0_d_10364_5789" x="0" y="0" width="64" height="64" filterUnits="userSpaceOnUse" color-interpolation-filters="sRGB">
<feFlood flood-opacity="0" result="BackgroundImageFix"/>
<feColorMatrix in="SourceAlpha" type="matrix" values="0 0 0 0 0 0 0 0 0 0 0 0 0 0 0 0 0 0 127 0" result="hardAlpha"/>
<feOffset/>
<feGaussianBlur stdDeviation="4"/>
<feColorMatrix type="matrix" values="0 0 0 0 0 0 0 0 0 0 0 0 0 0 0 0 0 0 0.23 0"/>
<feBlend mode="normal" in2="BackgroundImageFix" result="effect1_dropShadow_10364_5789"/>
<feBlend mode="normal" in="SourceGraphic" in2="effect1_dropShadow_10364_5789" result="shape"/>
</filter>
</defs>
</svg>
