<svg width="56" height="56" viewBox="0 0 56 56" fill="none" xmlns="http://www.w3.org/2000/svg">
<g filter="url(#filter0_d_8318_8505)">
<g clip-path="url(#clip0_8318_8505)">
<rect x="10" y="8" width="36" height="36" rx="18" fill="#676767"/>
<path d="M41.2992 30.7389C41.2992 31.0889 41.1062 31.2833 40.7587 31.2833H36.7436V30.9333C36.7436 30.1556 36.4734 29.4556 35.8943 28.9111C35.3538 28.3667 34.6589 28.0556 33.8867 28.0556C33.1146 28.0556 32.3811 28.3278 31.8406 28.9111C31.3001 29.4556 30.9912 30.1556 30.9912 30.9333C30.9912 31.7111 30.9912 31.05 30.9912 31.0889V31.2445H24.93V30.8945C24.93 30.1167 24.6597 29.4167 24.1192 28.8722C23.5788 28.3278 22.8838 28.0167 22.0731 28.0167C21.2624 28.0167 20.5674 28.2889 20.0269 28.8722C19.4864 29.4167 19.2162 30.1167 19.2162 30.8945V31.2445H15.2397C15.0853 31.2445 14.9695 31.2445 14.8536 31.0889C14.7378 30.9722 14.6992 30.8556 14.6992 30.7V20.3945C14.6992 20.2389 14.7378 20.1222 14.8536 20.0056C14.9695 19.8889 15.0853 19.85 15.2397 19.85H40.6815C40.8359 19.85 40.9518 19.85 41.0676 20.0056C41.1834 20.1222 41.222 20.2389 41.222 20.3945H41.2992V30.7389ZM15.9732 26.5778H21.2624V22.1833H15.9732V26.5778ZM24.3509 30.9333C24.3509 31.5556 24.1192 32.0611 23.6946 32.4889C23.2699 32.9167 22.7294 33.15 22.1503 33.15C21.5712 33.15 21.0307 32.9167 20.606 32.4889C20.1814 32.0611 19.9497 31.5167 19.9497 30.9333C19.9497 30.35 20.1814 29.8056 20.606 29.3778C21.0307 28.95 21.5712 28.7556 22.1503 28.7556C22.7294 28.7556 23.2699 28.95 23.6946 29.3778C24.1192 29.8056 24.3509 30.3111 24.3509 30.9333ZM22.2275 26.5778H27.5166V22.1833H22.2275V26.5778ZM28.5204 26.5778H33.8481V22.1833H28.5204V26.5778ZM36.1259 30.9333C36.1259 31.5556 35.8943 32.0611 35.4696 32.4889C35.0449 32.9167 34.5044 33.15 33.9253 33.15C33.3462 33.15 32.8057 32.9167 32.3811 32.4889C31.9564 32.0611 31.7248 31.5167 31.7248 30.9333C31.7248 30.35 31.9564 29.8056 32.3811 29.3778C32.8057 28.95 33.3462 28.7556 33.9253 28.7556C34.5044 28.7556 35.0449 28.95 35.4696 29.3778C35.8943 29.8056 36.1259 30.3111 36.1259 30.9333ZM34.8133 26.5778H40.1024V22.1833H34.8133V26.5778Z" fill="black"/>
</g>
<rect x="9" y="7" width="38" height="38" rx="19" stroke="#012C44" stroke-width="2"/>
</g>
<defs>
<filter id="filter0_d_8318_8505" x="0" y="0" width="56" height="56" filterUnits="userSpaceOnUse" color-interpolation-filters="sRGB">
<feFlood flood-opacity="0" result="BackgroundImageFix"/>
<feColorMatrix in="SourceAlpha" type="matrix" values="0 0 0 0 0 0 0 0 0 0 0 0 0 0 0 0 0 0 127 0" result="hardAlpha"/>
<feOffset dy="2"/>
<feGaussianBlur stdDeviation="4"/>
<feColorMatrix type="matrix" values="0 0 0 0 0 0 0 0 0 0 0 0 0 0 0 0 0 0 0.16 0"/>
<feBlend mode="normal" in2="BackgroundImageFix" result="effect1_dropShadow_8318_8505"/>
<feBlend mode="normal" in="SourceGraphic" in2="effect1_dropShadow_8318_8505" result="shape"/>
</filter>
<clipPath id="clip0_8318_8505">
<rect x="10" y="8" width="36" height="36" rx="18" fill="white"/>
</clipPath>
</defs>
</svg>
