<svg width="56" height="56" viewBox="0 0 56 56" fill="none" xmlns="http://www.w3.org/2000/svg">
<g filter="url(#filter0_d_896_7454)">
<g clip-path="url(#clip0_896_7454)">
<rect x="10" y="8" width="36" height="36" rx="18" fill="#B3B3B3"/>
<path fill-rule="evenodd" clip-rule="evenodd" d="M15.4 22.3258C15.4 21.166 16.3402 20.2258 17.5 20.2258H35C38.4794 20.2258 41.3 23.0464 41.3 26.5258V30.7258C41.3 31.8856 40.3645 32.8258 39.2047 32.8258C32.3613 32.8258 19.383 32.8258 17.5 32.8258C16.3402 32.8258 15.4 31.8856 15.4 30.7258V22.3258ZM17.5 23.0258C17.5 22.6392 17.8134 22.3258 18.2 22.3258H20.2971C20.6837 22.3258 20.9971 22.6392 20.9971 23.0258V26.5258C20.9971 26.9124 20.6837 27.2258 20.2971 27.2258H18.2C17.85 27.2258 17.5 26.8758 17.5 26.5258V23.0258ZM23.1076 22.3258C22.721 22.3258 22.4076 22.6392 22.4076 23.0258L22.4 26.5258C22.4 26.8758 22.75 27.2258 23.1 27.2258H25.9076C26.2942 27.2258 26.6076 26.9124 26.6076 26.5258V23.0258C26.6076 22.6392 26.2942 22.3258 25.9076 22.3258H23.1076ZM28.0181 23.0258C28.0181 22.6392 28.3315 22.3258 28.7181 22.3258H31.5181C31.9047 22.3258 32.2181 22.6392 32.2181 23.0258V26.5258C32.2181 26.9124 31.9047 27.2258 31.5181 27.2258H29.4181C28.6449 27.2258 28 27.299 28 26.5258L28.0181 23.0258ZM34.3286 22.3258C33.9421 22.3258 33.6286 22.6392 33.6286 23.0258V26.5258C33.6286 26.9124 33.9421 27.2258 34.3286 27.2258H38.5286C38.9152 27.2258 39.2286 26.9124 39.2286 26.5258C39.2286 24.2062 37.3482 22.3258 35.0286 22.3258H34.3286Z" fill="black"/>
<path fill-rule="evenodd" clip-rule="evenodd" d="M15.925 34.9258C15.925 34.4425 16.3168 34.0508 16.8 34.0508L39.9 34.0508C40.3833 34.0508 40.775 34.4425 40.775 34.9258C40.775 35.409 40.3833 35.8008 39.9 35.8008L16.8 35.8008C16.3168 35.8008 15.925 35.409 15.925 34.9258Z" fill="black"/>
<path fill-rule="evenodd" clip-rule="evenodd" d="M24.325 17.4258C24.325 16.9425 24.7168 16.5508 25.2 16.5508H30.8C31.1456 16.5508 31.4588 16.7541 31.5993 17.0698C31.7399 17.3855 31.6816 17.7543 31.4504 18.0111L28.3004 21.5111C27.9771 21.8703 27.4239 21.8994 27.0647 21.5762C26.7055 21.2529 26.6764 20.6996 26.9996 20.3404L28.8353 18.3008H25.2C24.7168 18.3008 24.325 17.909 24.325 17.4258Z" fill="black"/>
</g>
<rect x="9" y="7" width="38" height="38" rx="19" stroke="#012C44" stroke-width="2"/>
</g>
<defs>
<filter id="filter0_d_896_7454" x="0" y="0" width="56" height="56" filterUnits="userSpaceOnUse" color-interpolation-filters="sRGB">
<feFlood flood-opacity="0" result="BackgroundImageFix"/>
<feColorMatrix in="SourceAlpha" type="matrix" values="0 0 0 0 0 0 0 0 0 0 0 0 0 0 0 0 0 0 127 0" result="hardAlpha"/>
<feOffset dy="2"/>
<feGaussianBlur stdDeviation="4"/>
<feColorMatrix type="matrix" values="0 0 0 0 0 0 0 0 0 0 0 0 0 0 0 0 0 0 0.16 0"/>
<feBlend mode="normal" in2="BackgroundImageFix" result="effect1_dropShadow_896_7454"/>
<feBlend mode="normal" in="SourceGraphic" in2="effect1_dropShadow_896_7454" result="shape"/>
</filter>
<clipPath id="clip0_896_7454">
<rect x="10" y="8" width="36" height="36" rx="18" fill="white"/>
</clipPath>
</defs>
</svg>
