<svg width="64" height="64" viewBox="0 0 64 64" fill="none" xmlns="http://www.w3.org/2000/svg">
<g filter="url(#filter0_d_10410_5059)">
<path d="M10 32C10 19.8497 19.8497 10 32 10C44.1503 10 54 19.8497 54 32C54 44.1503 44.1503 54 32 54C19.8497 54 10 44.1503 10 32Z" fill="#5B0C0E"/>
<path d="M32 9C44.7025 9 55 19.2975 55 32C55 44.7025 44.7025 55 32 55C19.2975 55 9 44.7025 9 32C9 19.2975 19.2975 9 32 9Z" stroke="black" stroke-width="2"/>
<path d="M42.6934 42.4885C42.6934 42.4885 42.7567 42.4395 42.8127 42.3835C43.2537 41.9145 43.9956 41.8935 44.4646 42.3345C44.9336 42.7755 44.9545 43.5105 44.5135 43.9865C44.1145 44.4135 43.6246 44.7285 43.0366 44.8195C42.4556 44.9035 41.9445 44.7425 41.5525 44.5395C41.1675 44.3435 40.8316 44.0705 40.5586 43.8325C40.4186 43.7135 40.2364 43.5455 40.0684 43.3915C39.9494 43.2865 39.8447 43.1885 39.7677 43.1185C39.2217 42.6285 38.9626 42.5165 38.8366 42.5095C38.8366 42.5095 38.7668 42.5095 38.6408 42.5935C38.4868 42.6985 38.2556 42.9225 37.9616 43.3705H37.9544C37.6114 43.8885 37.1845 44.3225 36.6385 44.5465C36.0575 44.7915 35.4906 44.7425 35.0146 44.5815C34.5736 44.4345 34.1886 44.1755 33.8806 43.9515C33.6636 43.7905 33.4326 43.5945 33.2226 43.4265C33.1526 43.3635 33.0757 43.3075 33.0127 43.2515C32.4107 42.7615 32.0957 42.5935 31.8927 42.5795H31.8855C31.8855 42.5795 31.5424 42.5445 30.9544 43.4195C30.6394 43.9095 30.2195 44.3225 29.6525 44.5255C29.0785 44.7355 28.5325 44.6585 28.0915 44.5115C27.6715 44.3645 27.2935 44.1335 26.9855 43.9165C26.7755 43.7765 26.5517 43.6085 26.3487 43.4545C26.2577 43.3845 26.1665 43.3145 26.0825 43.2515C25.4595 42.7965 25.1025 42.6145 24.8575 42.6005C24.7875 42.6005 24.4794 42.5795 23.9684 43.3635H23.9616C23.4506 44.1335 22.6806 44.8125 21.6586 44.8125C20.6366 44.8125 19.8597 44.1335 19.3627 43.3635C19.0057 42.8245 19.1597 42.1035 19.6987 41.7465C20.2377 41.3965 20.9658 41.5435 21.3158 42.0895C21.4838 42.3485 21.6026 42.4395 21.6586 42.4675C21.7146 42.4395 21.8408 42.3485 22.0158 42.0825C22.8068 40.8785 23.8004 40.1995 25.0044 40.2695C26.0264 40.3325 26.9014 40.9485 27.4684 41.3685C27.5944 41.4595 27.7066 41.5435 27.8116 41.6205C27.9866 41.7535 28.1478 41.8725 28.3158 41.9845C28.5748 42.1595 28.7426 42.2575 28.8616 42.2925H28.8825C28.8825 42.2925 28.9526 42.2155 29.0086 42.1315C29.8276 40.8925 30.8287 40.1575 32.0537 40.2415C33.0967 40.3185 33.9575 41.0045 34.4825 41.4315C34.5875 41.5155 34.6787 41.5925 34.7627 41.6625C34.9517 41.8165 35.1126 41.9495 35.2806 42.0755C35.5186 42.2575 35.6725 42.3345 35.7635 42.3695C35.8055 42.3345 35.8896 42.2575 36.0086 42.0825C36.7856 40.8995 37.7375 40.1155 38.9415 40.1715C39.9915 40.2205 40.8175 40.9205 41.3215 41.3685C41.4825 41.5155 41.6017 41.6205 41.7067 41.7255C41.8257 41.8375 41.9375 41.9355 42.0915 42.0685C42.3225 42.2785 42.4977 42.3975 42.6237 42.4675C42.6587 42.4815 42.6794 42.4955 42.6934 42.5025V42.4885Z" fill="#E31B22"/>
<path fill-rule="evenodd" clip-rule="evenodd" d="M23.8286 26.1646C23.8286 24.8766 24.8785 23.8336 26.1665 23.8336H32.1866C33.5096 23.8336 34.7695 24.3936 35.6585 25.3806L39.8657 30.0566C40.2927 30.5326 40.2575 31.2746 39.7745 31.7016C39.2985 32.1356 38.5634 32.0936 38.1294 31.6176L33.9226 26.9416C33.4816 26.4516 32.8516 26.1716 32.1866 26.1716H26.1665V30.8406C26.1665 31.4846 25.6416 32.0096 24.9976 32.0096C24.3536 32.0096 23.8286 31.4846 23.8286 30.8406V26.1646Z" fill="#E31B22"/>
<path fill-rule="evenodd" clip-rule="evenodd" d="M24.9976 20.3268C24.9976 19.6828 25.5225 19.1578 26.1665 19.1578H28.4976C29.7856 19.1578 30.8286 20.2008 30.8286 21.4888V24.9888C30.8286 25.6328 30.3105 26.1578 29.6665 26.1578C29.0225 26.1578 28.4976 25.6328 28.4976 24.9888V21.4888H26.1665C25.5225 21.4888 24.9976 20.9638 24.9976 20.3198V20.3268Z" fill="#E31B22"/>
<path d="M20.3288 29.9519C20.0628 29.9519 19.8108 30.0709 19.6428 30.2809C19.4818 30.4909 19.4188 30.7639 19.4818 31.0229L21.5606 39.8779C22.4776 39.0029 23.6536 38.4289 25.1026 38.5129C26.6776 38.6109 27.9656 39.5559 28.5186 39.9549C29.4356 39.0309 30.6466 38.3799 32.1796 38.4849C33.7126 38.5899 34.8957 39.4999 35.4557 39.9549C36.3307 39.0449 37.4996 38.3379 39.0186 38.4079C40.5516 38.4779 41.7067 39.3669 42.2807 39.8639C42.3297 39.8079 42.3716 39.7449 42.4136 39.6889C43.1626 38.6249 43.6316 37.2599 43.9326 35.9789C44.2406 34.6839 44.3878 33.3959 44.4648 32.4369C44.4998 31.9539 44.5206 31.5549 44.5276 31.2749C44.5346 31.1349 44.5347 30.9109 44.5417 30.8269C44.5417 30.3369 44.1497 29.9449 43.6667 29.9449H20.3288V29.9519Z" fill="#E31B22"/>
</g>
<defs>
<filter id="filter0_d_10410_5059" x="0" y="0" width="64" height="64" filterUnits="userSpaceOnUse" color-interpolation-filters="sRGB">
<feFlood flood-opacity="0" result="BackgroundImageFix"/>
<feColorMatrix in="SourceAlpha" type="matrix" values="0 0 0 0 0 0 0 0 0 0 0 0 0 0 0 0 0 0 127 0" result="hardAlpha"/>
<feOffset/>
<feGaussianBlur stdDeviation="4"/>
<feColorMatrix type="matrix" values="0 0 0 0 0 0 0 0 0 0 0 0 0 0 0 0 0 0 0.23 0"/>
<feBlend mode="normal" in2="BackgroundImageFix" result="effect1_dropShadow_10410_5059"/>
<feBlend mode="normal" in="SourceGraphic" in2="effect1_dropShadow_10410_5059" result="shape"/>
</filter>
</defs>
</svg>
