<svg width="56" height="56" viewBox="0 0 56 56" fill="none" xmlns="http://www.w3.org/2000/svg">
<g filter="url(#filter0_d_8318_8428)">
<g clip-path="url(#clip0_8318_8428)">
<rect x="10" y="10" width="36" height="36" rx="18" fill="#B3B3B3"/>
<path d="M22.1689 36.897C23.7789 36.897 25.0811 35.588 25.0811 33.978C25.0811 32.368 23.7789 31.059 22.1689 31.059C20.5589 31.059 19.25 32.368 19.25 33.978C19.25 35.588 20.5589 36.897 22.1689 36.897Z" fill="black"/>
<path d="M33.8311 36.897C35.4411 36.897 36.75 35.588 36.75 33.978C36.75 32.368 35.4411 31.059 33.8311 31.059C32.2211 31.059 30.9189 32.368 30.9189 33.978C30.9189 35.588 32.2211 36.897 33.8311 36.897Z" fill="black"/>
<path fill-rule="evenodd" clip-rule="evenodd" d="M15.4561 25.809C15.4561 25.326 15.8481 24.934 16.3311 24.934H35C35.483 24.934 35.875 25.326 35.875 25.809C35.875 26.292 35.483 26.684 35 26.684H16.3311C15.8481 26.684 15.4561 26.292 15.4561 25.809Z" fill="black"/>
<path fill-rule="evenodd" clip-rule="evenodd" d="M24.5 19.103C24.983 19.103 25.375 19.495 25.375 19.978V25.809C25.375 26.292 24.983 26.684 24.5 26.684C24.017 26.684 23.625 26.292 23.625 25.809V19.978C23.625 19.495 24.017 19.103 24.5 19.103Z" fill="black"/>
<path fill-rule="evenodd" clip-rule="evenodd" d="M15.4561 19.978C15.4561 19.495 15.8481 19.103 16.3311 19.103H29.7011C30.7511 19.103 31.731 19.614 32.333 20.475L35.5879 25.13L38.7659 26.719C39.8579 27.265 40.5439 28.371 40.5439 29.589V32.816C40.5439 33.943 39.627 34.86 38.5 34.86H38.178C38.234 34.58 38.2689 34.286 38.2689 33.985C38.2689 31.535 36.2811 29.554 33.8311 29.554C31.3811 29.554 29.4 31.542 29.4 33.985C29.4 34.286 29.4281 34.58 29.4841 34.86H26.5159C26.5719 34.58 26.6 34.286 26.6 33.985C26.6 31.535 24.6119 29.554 22.1689 29.554C19.7259 29.554 17.7311 31.542 17.7311 33.985C17.7311 34.16 17.7449 34.342 17.7659 34.51L16.5901 33.922C15.8971 33.579 15.4561 32.872 15.4561 32.095V25.235C15.4561 25.116 15.484 24.99 15.533 24.878L17.3182 20.86H16.3311C15.8481 20.86 15.4561 20.468 15.4561 19.985V19.978ZM19.236 20.853L17.4231 24.934H23.625V20.853H19.236ZM25.375 20.853V24.934H33.3201L30.8981 21.476C30.6251 21.084 30.1771 20.853 29.7011 20.853H25.375Z" fill="black"/>
</g>
<rect x="9" y="9" width="38" height="38" rx="19" stroke="black" stroke-width="2"/>
</g>
<defs>
<filter id="filter0_d_8318_8428" x="0" y="0" width="56" height="56" filterUnits="userSpaceOnUse" color-interpolation-filters="sRGB">
<feFlood flood-opacity="0" result="BackgroundImageFix"/>
<feColorMatrix in="SourceAlpha" type="matrix" values="0 0 0 0 0 0 0 0 0 0 0 0 0 0 0 0 0 0 127 0" result="hardAlpha"/>
<feOffset/>
<feGaussianBlur stdDeviation="4"/>
<feColorMatrix type="matrix" values="0 0 0 0 0 0 0 0 0 0 0 0 0 0 0 0 0 0 0.23 0"/>
<feBlend mode="normal" in2="BackgroundImageFix" result="effect1_dropShadow_8318_8428"/>
<feBlend mode="normal" in="SourceGraphic" in2="effect1_dropShadow_8318_8428" result="shape"/>
</filter>
<clipPath id="clip0_8318_8428">
<rect x="10" y="10" width="36" height="36" rx="18" fill="white"/>
</clipPath>
</defs>
</svg>
