<svg width="56" height="56" viewBox="0 0 56 56" fill="none" xmlns="http://www.w3.org/2000/svg">
<g filter="url(#filter0_d_8318_8531)">
<g clip-path="url(#clip0_8318_8531)">
<rect x="10" y="8" width="36" height="36" rx="18" fill="#B3B3B3"/>
<path d="M35.7432 31.4609C35.8073 31.4609 35.8714 31.525 35.9356 31.5571L35.3263 32.3908H35.2622C34.7492 32.1342 34.3003 31.8777 33.3383 31.8777C32.3764 31.8777 31.9275 32.1022 31.3824 32.3908C30.8373 32.6793 30.196 33 28.9775 33C27.759 33 27.1177 32.6793 26.5726 32.3908C26.0596 32.1342 25.6107 31.8777 24.6166 31.8777C23.6226 31.8777 23.2058 32.1022 22.6928 32.3908C22.1156 32.6793 21.5063 33 20.2879 33C19.0694 33 18.4602 32.6793 17.883 32.3908C17.5944 32.2304 17.3058 32.1022 16.9531 32.006L17.2417 31.012C17.6906 31.1402 18.0433 31.3005 18.364 31.4609C18.877 31.7174 19.3259 31.9739 20.2879 31.9739C21.2498 31.9739 21.6987 31.7495 22.2438 31.4609C22.7889 31.1723 23.4302 30.8516 24.6487 30.8516C25.8672 30.8516 26.5085 31.1723 27.0536 31.4609C27.5666 31.7174 28.0155 31.9739 28.9775 31.9739C29.9394 31.9739 30.3883 31.7495 30.9334 31.4609C31.4785 31.1723 32.1199 30.8516 33.3383 30.8516C34.5568 30.8516 35.1981 31.1723 35.7432 31.4609Z" fill="black"/>
<path d="M38.8214 26.9718H35.5187C35.5187 26.9718 34.0758 20.7191 34.0117 20.3664C33.9476 20.0137 33.659 20.0778 33.659 20.0778H31.9916C31.9916 20.0778 31.7671 19.18 31.6709 18.699C31.5427 18.186 31.3182 18.3142 31.3182 18.3142C31.3182 18.3142 29.1378 19.1479 28.8492 19.2762C28.5606 19.4044 28.6568 19.7251 28.6568 19.7251V21.6811H21.2498C20.7368 21.6811 20.7368 21.9696 20.7368 21.9696L19.5183 26.9718H18.7167C18.5243 26.9718 18.396 27.1 18.364 27.2604L17.5303 30.1462C18.1075 30.3065 18.5243 30.531 18.877 30.6913C19.358 30.9478 19.6145 31.0761 20.3199 31.0761C21.0254 31.0761 21.2819 30.9478 21.7629 30.6913C22.3721 30.3707 23.2058 29.9538 24.6487 29.9538C26.0916 29.9538 26.9574 30.3707 27.5666 30.6913C28.0476 30.9478 28.3041 31.0761 29.0095 31.0761C29.715 31.0761 29.9715 30.9478 30.4525 30.6913C31.0617 30.3707 31.8954 29.9538 33.3704 29.9538C34.8454 29.9538 35.6791 30.3707 36.2883 30.6913C36.3524 30.6913 36.5127 30.7875 36.5127 30.7875L39.0459 27.2924C39.0459 27.2924 39.0459 27.2283 39.0459 27.1642C39.0459 27.0359 38.9497 26.9397 38.8214 26.9397V26.9718ZM21.1536 24.5348L21.5063 23.0278H24.777V24.5348H21.1536ZM28.8813 24.5348H25.2579V23.0278H28.8813V24.5348ZM29.4585 24.5348V23.0278H33.0818L33.4666 24.5348H29.4585Z" fill="black"/>
</g>
<rect x="9" y="7" width="38" height="38" rx="19" stroke="#012C44" stroke-width="2"/>
</g>
<defs>
<filter id="filter0_d_8318_8531" x="0" y="0" width="56" height="56" filterUnits="userSpaceOnUse" color-interpolation-filters="sRGB">
<feFlood flood-opacity="0" result="BackgroundImageFix"/>
<feColorMatrix in="SourceAlpha" type="matrix" values="0 0 0 0 0 0 0 0 0 0 0 0 0 0 0 0 0 0 127 0" result="hardAlpha"/>
<feOffset dy="2"/>
<feGaussianBlur stdDeviation="4"/>
<feColorMatrix type="matrix" values="0 0 0 0 0 0 0 0 0 0 0 0 0 0 0 0 0 0 0.16 0"/>
<feBlend mode="normal" in2="BackgroundImageFix" result="effect1_dropShadow_8318_8531"/>
<feBlend mode="normal" in="SourceGraphic" in2="effect1_dropShadow_8318_8531" result="shape"/>
</filter>
<clipPath id="clip0_8318_8531">
<rect x="10" y="8" width="36" height="36" rx="18" fill="white"/>
</clipPath>
</defs>
</svg>
