<svg width="56" height="56" viewBox="0 0 56 56" fill="none" xmlns="http://www.w3.org/2000/svg">
<g filter="url(#filter0_d_8318_8531)">
<g clip-path="url(#clip0_8318_8531)">
<rect x="10" y="8" width="36" height="36" rx="18" fill="#B3B3B3"/>
<path d="M37.3227 33.4964C37.3999 33.4964 37.4772 33.5736 37.5544 33.6122L36.8208 34.616H36.7436C36.1259 34.3071 35.5854 33.9983 34.4272 33.9983C33.269 33.9983 32.7285 34.2685 32.0722 34.616C31.4159 34.9634 30.6438 35.3495 29.1767 35.3495C27.7097 35.3495 26.9375 34.9634 26.2812 34.616C25.6635 34.3071 25.123 33.9983 23.9262 33.9983C22.7294 33.9983 22.2275 34.2685 21.6098 34.616C20.9149 34.9634 20.1814 35.3495 18.7143 35.3495C17.2473 35.3495 16.5137 34.9634 15.8188 34.616C15.4714 34.4229 15.1239 34.2685 14.6992 34.1527L15.0467 32.9559C15.5872 33.1103 16.0118 33.3033 16.3979 33.4964C17.0156 33.8052 17.5561 34.1141 18.7143 34.1141C19.8725 34.1141 20.413 33.8438 21.0693 33.4964C21.7256 33.1489 22.4978 32.7629 23.9648 32.7629C25.4319 32.7629 26.204 33.1489 26.8603 33.4964C27.478 33.8052 28.0185 34.1141 29.1767 34.1141C30.3349 34.1141 30.8754 33.8438 31.5317 33.4964C32.188 33.1489 32.9602 32.7629 34.4272 32.7629C35.8943 32.7629 36.6664 33.1489 37.3227 33.4964Z" fill="black"/>
<path d="M41.029 28.0914H37.0525C37.0525 28.0914 35.3152 20.5631 35.238 20.1385C35.1608 19.7138 34.8133 19.791 34.8133 19.791H32.8057C32.8057 19.791 32.5355 18.71 32.4197 18.1309C32.2653 17.5132 31.995 17.6676 31.995 17.6676C31.995 17.6676 29.3698 18.6714 29.0223 18.8258C28.6748 18.9803 28.7907 19.3663 28.7907 19.3663V21.7213H19.8725C19.2548 21.7213 19.2548 22.0688 19.2548 22.0688L17.7878 28.0914H16.8226C16.5909 28.0914 16.4365 28.2459 16.3979 28.4389L15.3941 31.9135C16.0891 32.1065 16.5909 32.3768 17.0156 32.5698C17.5947 32.8787 17.9036 33.0331 18.7529 33.0331C19.6023 33.0331 19.9111 32.8787 20.4902 32.5698C21.2237 32.1838 22.2275 31.6819 23.9648 31.6819C25.7021 31.6819 26.7445 32.1838 27.478 32.5698C28.0571 32.8787 28.366 33.0331 29.2153 33.0331C30.0647 33.0331 30.3735 32.8787 30.9526 32.5698C31.6862 32.1838 32.6899 31.6819 34.4658 31.6819C36.2417 31.6819 37.2455 32.1838 37.979 32.5698C38.0563 32.5698 38.2493 32.6856 38.2493 32.6856L41.2992 28.4775C41.2992 28.4775 41.2992 28.4003 41.2992 28.3231C41.2992 28.1687 41.1834 28.0528 41.029 28.0528V28.0914ZM19.7567 25.1573L20.1814 23.3428H24.1192V25.1573H19.7567ZM29.0609 25.1573H24.6983V23.3428H29.0609V25.1573ZM29.7558 25.1573V23.3428H34.1184L34.5817 25.1573H29.7558Z" fill="black"/>
</g>
<rect x="9" y="7" width="38" height="38" rx="19" stroke="#012C44" stroke-width="2"/>
</g>
<defs>
<filter id="filter0_d_8318_8531" x="0" y="0" width="56" height="56" filterUnits="userSpaceOnUse" color-interpolation-filters="sRGB">
<feFlood flood-opacity="0" result="BackgroundImageFix"/>
<feColorMatrix in="SourceAlpha" type="matrix" values="0 0 0 0 0 0 0 0 0 0 0 0 0 0 0 0 0 0 127 0" result="hardAlpha"/>
<feOffset dy="2"/>
<feGaussianBlur stdDeviation="4"/>
<feColorMatrix type="matrix" values="0 0 0 0 0 0 0 0 0 0 0 0 0 0 0 0 0 0 0.16 0"/>
<feBlend mode="normal" in2="BackgroundImageFix" result="effect1_dropShadow_8318_8531"/>
<feBlend mode="normal" in="SourceGraphic" in2="effect1_dropShadow_8318_8531" result="shape"/>
</filter>
<clipPath id="clip0_8318_8531">
<rect x="10" y="8" width="36" height="36" rx="18" fill="white"/>
</clipPath>
</defs>
</svg>
