<svg width="56" height="56" viewBox="0 0 56 56" fill="none" xmlns="http://www.w3.org/2000/svg">
<g filter="url(#filter0_d_8318_8524)">
<g clip-path="url(#clip0_8318_8524)">
<rect x="10" y="8" width="36" height="36" rx="18" fill="#B3B3B3"/>
<path d="M39.1841 29.6381C38.7898 29.2796 38.3596 28.8853 37.5351 28.8853C36.7105 28.8853 36.2803 29.2796 35.886 29.6381C35.5275 29.9608 35.2049 30.2476 34.5596 30.2476C33.9143 30.2476 33.5917 29.9608 33.2332 29.6381C32.8388 29.2796 32.4086 28.8853 31.5841 28.8853C30.7596 28.8853 30.3294 29.2796 29.9351 29.6381C29.5766 29.9608 29.2539 30.2476 28.6086 30.2476C27.9634 30.2476 27.6407 29.9608 27.2822 29.6381C27.103 29.4589 26.8879 29.2796 26.6369 29.1362C26.6369 29.1362 26.5652 29.1362 26.5294 29.1362C26.2785 29.0287 26.0275 28.957 25.669 28.957C24.8445 28.957 24.4143 29.3513 24.0558 29.7098C23.6973 30.0325 23.4105 30.3193 22.7653 30.3193C22.12 30.3193 21.7973 30.0325 21.4747 29.7098C21.0803 29.3513 20.686 28.957 19.8615 28.957C19.037 28.957 18.6068 29.3513 18.2483 29.7098C17.8898 30.0325 17.603 30.3193 16.9219 30.3193C16.2407 30.3193 15.9539 30.0325 15.6313 29.7098C15.4162 29.5306 15.2011 29.3155 14.8785 29.1362L14.6992 30.3193C14.9502 30.4268 15.1294 30.606 15.3087 30.7853C15.703 31.1438 16.1332 31.5381 16.9219 31.5381C17.7105 31.5381 18.1766 31.1438 18.5351 30.7853C18.8936 30.4626 19.1803 30.1759 19.8256 30.1759C20.4709 30.1759 20.7936 30.4626 21.152 30.7853C21.5464 31.1438 21.9407 31.5381 22.7653 31.5381C23.5898 31.5381 24.02 31.1438 24.3785 30.7853C24.7369 30.4626 25.0237 30.1759 25.7049 30.1759C26.386 30.1759 26.2426 30.2476 26.4577 30.3551C26.6369 30.4626 26.8162 30.606 26.9596 30.7494C27.3181 31.0721 27.7483 31.4664 28.5728 31.4664C29.3973 31.4664 29.8275 31.0721 30.2219 30.7136C30.5803 30.391 30.8671 30.1042 31.5483 30.1042C32.2294 30.1042 32.5162 30.391 32.8747 30.7136C33.269 31.0721 33.6992 31.4664 34.5237 31.4664C35.3483 31.4664 35.7785 31.0721 36.1728 30.7136C36.5313 30.391 36.8539 30.1042 37.4992 30.1042C38.1445 30.1042 38.4671 30.391 38.8256 30.7136L39.22 29.7098C39.22 29.7098 39.1483 29.6381 39.0766 29.6023V29.674L39.1841 29.6381Z" fill="black"/>
<path d="M26.4936 29.1004C26.2785 28.9928 26.0634 28.9211 25.7407 28.9211C25.4181 28.9211 25.1671 28.9928 24.952 29.1362L26.5294 29.1362L26.4936 29.1362V29.1004Z" fill="black"/>
<path d="M19.0011 29.1721H20.686C20.4709 29.0287 20.22 28.9211 19.8615 28.9211C19.503 28.9211 19.2162 29.0287 19.0011 29.1721Z" fill="black"/>
<path d="M41.1917 24.1891H37.8577L32.7313 20.3891H19.2879C19.0728 20.3891 18.8936 20.5683 18.8577 20.7834L18.069 24.1891H16.8143C16.5992 24.1891 16.42 24.3325 16.3841 24.5117L15.4162 27.9891L15.3087 28.0966C15.452 28.2042 15.5596 28.3117 15.703 28.4193C16.0615 28.7419 16.3483 29.0287 16.9936 29.0287C17.6388 29.0287 17.9615 28.7419 18.32 28.4193C18.7143 28.0608 19.1087 27.6664 19.9332 27.6664C20.7577 27.6664 21.1879 28.0608 21.5464 28.4193C21.9049 28.7419 22.1917 29.0287 22.837 29.0287C23.4822 29.0287 23.8049 28.7419 24.1275 28.4193C24.5219 28.0608 24.9162 27.6664 25.7407 27.6664C26.5653 27.6664 26.386 27.7381 26.6011 27.8457C26.9237 27.9891 27.1388 28.2042 27.3898 28.3834C27.7483 28.706 28.0709 28.9928 28.7162 28.9928C29.3615 28.9928 29.6841 28.706 30.0426 28.3834C30.4369 28.0249 30.8671 27.6306 31.6917 27.6306C32.5162 27.6306 32.9464 28.0249 33.3407 28.3834C33.6992 28.706 34.0218 28.9928 34.6671 28.9928C35.3124 28.9928 35.6351 28.706 35.9935 28.3834C36.3879 28.0249 36.8181 27.6306 37.6426 27.6306C38.4671 27.6306 38.5388 27.774 38.8256 27.9891L41.2992 24.5476C41.2992 24.5476 41.2992 24.4759 41.2992 24.4042C41.2992 24.2608 41.1917 24.1532 41.0483 24.1532H41.1558L41.1917 24.1891ZM23.5898 24.1891H19.0728L19.503 22.3249H23.5181V22.3966H23.5898V24.2249V24.1891ZM28.0709 24.1891H24.0917V22.3249H28.0709V24.1891ZM28.7162 24.1891V22.3249H33.3766L35.9218 24.1891H28.7162Z" fill="black"/>
<path d="M30.9747 29.1004H32.4445C32.2652 28.9928 32.0143 28.9211 31.7275 28.9211C31.4407 28.9211 31.1898 28.9928 30.9747 29.1004Z" fill="black"/>
<path d="M37.7143 28.9211C37.4275 28.9211 37.2483 28.9211 37.0332 29.0645H38.0369L38.1086 28.9928C38.0011 28.9928 37.8577 28.9928 37.7143 28.9928V28.9211Z" fill="black"/>
</g>
<rect x="9" y="7" width="38" height="38" rx="19" stroke="#012C44" stroke-width="2"/>
</g>
<defs>
<filter id="filter0_d_8318_8524" x="0" y="0" width="56" height="56" filterUnits="userSpaceOnUse" color-interpolation-filters="sRGB">
<feFlood flood-opacity="0" result="BackgroundImageFix"/>
<feColorMatrix in="SourceAlpha" type="matrix" values="0 0 0 0 0 0 0 0 0 0 0 0 0 0 0 0 0 0 127 0" result="hardAlpha"/>
<feOffset dy="2"/>
<feGaussianBlur stdDeviation="4"/>
<feColorMatrix type="matrix" values="0 0 0 0 0 0 0 0 0 0 0 0 0 0 0 0 0 0 0.16 0"/>
<feBlend mode="normal" in2="BackgroundImageFix" result="effect1_dropShadow_8318_8524"/>
<feBlend mode="normal" in="SourceGraphic" in2="effect1_dropShadow_8318_8524" result="shape"/>
</filter>
<clipPath id="clip0_8318_8524">
<rect x="10" y="8" width="36" height="36" rx="18" fill="white"/>
</clipPath>
</defs>
</svg>
