<svg width="56" height="56" viewBox="0 0 56 56" fill="none" xmlns="http://www.w3.org/2000/svg">
<g filter="url(#filter0_d_8318_8524)">
<g clip-path="url(#clip0_8318_8524)">
<rect x="10" y="8" width="36" height="36" rx="18" fill="#B3B3B3"/>
<path d="M38.8308 29.2299C38.4842 28.9148 38.106 28.5682 37.3813 28.5682C36.6565 28.5682 36.2784 28.9148 35.9317 29.2299C35.6166 29.5135 35.333 29.7656 34.7658 29.7656C34.1986 29.7656 33.915 29.5135 33.5999 29.2299C33.2533 28.9148 32.8752 28.5682 32.1504 28.5682C31.4256 28.5682 31.0475 28.9148 30.7009 29.2299C30.3858 29.5135 30.1022 29.7656 29.535 29.7656C28.9678 29.7656 28.6842 29.5135 28.369 29.2299C28.2115 29.0724 28.0224 28.9148 27.8018 28.7888C27.8018 28.7888 27.7388 28.7888 27.7073 28.7888C27.4867 28.6942 27.2661 28.6312 26.951 28.6312C26.2263 28.6312 25.8481 28.9778 25.533 29.293C25.2179 29.5766 24.9658 29.8287 24.3986 29.8287C23.8314 29.8287 23.5478 29.5766 23.2642 29.293C22.9176 28.9778 22.571 28.6312 21.8462 28.6312C21.1215 28.6312 20.7433 28.9778 20.4282 29.293C20.1131 29.5766 19.861 29.8287 19.2623 29.8287C18.6636 29.8287 18.4115 29.5766 18.1279 29.293C17.9388 29.1354 17.7498 28.9463 17.4662 28.7888L17.3086 29.8287C17.5292 29.9232 17.6867 30.0807 17.8443 30.2383C18.1909 30.5534 18.569 30.9 19.2623 30.9C19.9555 30.9 20.3652 30.5534 20.6803 30.2383C20.9954 29.9547 21.2475 29.7026 21.8147 29.7026C22.3819 29.7026 22.6655 29.9547 22.9806 30.2383C23.3272 30.5534 23.6739 30.9 24.3986 30.9C25.1234 30.9 25.5015 30.5534 25.8166 30.2383C26.1317 29.9547 26.3838 29.7026 26.9825 29.7026C27.5813 29.7026 27.4552 29.7656 27.6443 29.8602C27.8018 29.9547 27.9594 30.0807 28.0854 30.2068C28.4006 30.4904 28.7787 30.837 29.5034 30.837C30.2282 30.837 30.6063 30.4904 30.953 30.1753C31.2681 29.8917 31.5202 29.6396 32.1189 29.6396C32.7176 29.6396 32.9697 29.8917 33.2848 30.1753C33.6314 30.4904 34.0096 30.837 34.7343 30.837C35.4591 30.837 35.8372 30.4904 36.1838 30.1753C36.4989 29.8917 36.7825 29.6396 37.3498 29.6396C37.917 29.6396 38.2006 29.8917 38.5157 30.1753L38.8623 29.293C38.8623 29.293 38.7993 29.2299 38.7362 29.1984V29.2615L38.8308 29.2299Z" fill="black"/>
<path d="M27.6758 28.7573C27.4867 28.6627 27.2977 28.5997 27.0141 28.5997C26.7305 28.5997 26.5099 28.6627 26.3208 28.7888L27.7073 28.7888L27.6758 28.7888V28.7573Z" fill="black"/>
<path d="M21.0899 28.8203H22.571C22.3819 28.6942 22.1613 28.5997 21.8462 28.5997C21.5311 28.5997 21.279 28.6942 21.0899 28.8203Z" fill="black"/>
<path d="M40.5954 24.4402H37.6649L33.1588 21.1H21.342C21.153 21.1 20.9954 21.2576 20.9639 21.4467L20.2707 24.4402H19.1678C18.9787 24.4402 18.8211 24.5663 18.7896 24.7238L17.9388 27.7804L17.8443 27.875C17.9703 27.9695 18.0649 28.064 18.1909 28.1586C18.506 28.4422 18.7581 28.6942 19.3253 28.6942C19.8925 28.6942 20.1761 28.4422 20.4912 28.1586C20.8379 27.8434 21.1845 27.4968 21.9092 27.4968C22.634 27.4968 23.0121 27.8434 23.3272 28.1586C23.6424 28.4422 23.8944 28.6942 24.4616 28.6942C25.0289 28.6942 25.3125 28.4422 25.5961 28.1586C25.9427 27.8434 26.2893 27.4968 27.0141 27.4968C27.7388 27.4968 27.5813 27.5598 27.7703 27.6544C28.0539 27.7804 28.243 27.9695 28.4636 28.127C28.7787 28.4106 29.0623 28.6627 29.6295 28.6627C30.1967 28.6627 30.4803 28.4106 30.7954 28.127C31.142 27.8119 31.5202 27.4653 32.2449 27.4653C32.9697 27.4653 33.3478 27.8119 33.6944 28.127C34.0096 28.4106 34.2932 28.6627 34.8604 28.6627C35.4276 28.6627 35.7112 28.4106 36.0263 28.127C36.3729 27.8119 36.751 27.4653 37.4758 27.4653C38.2006 27.4653 38.2636 27.5914 38.5157 27.7804L40.6899 24.7553C40.6899 24.7553 40.6899 24.6923 40.6899 24.6293C40.6899 24.5033 40.5954 24.4087 40.4694 24.4087H40.5639L40.5954 24.4402ZM25.1234 24.4402H21.153L21.5311 22.8016H25.0604V22.8647H25.1234V24.4717V24.4402ZM29.0623 24.4402H25.5645V22.8016H29.0623V24.4402ZM29.6295 24.4402V22.8016H33.726L35.9633 24.4402H29.6295Z" fill="black"/>
<path d="M31.6147 28.7573H32.9067C32.7491 28.6627 32.5285 28.5997 32.2764 28.5997C32.0243 28.5997 31.8038 28.6627 31.6147 28.7573Z" fill="black"/>
<path d="M37.5388 28.5997C37.2867 28.5997 37.1292 28.5997 36.9401 28.7258H37.8224L37.8854 28.6627C37.7909 28.6627 37.6649 28.6627 37.5388 28.6627V28.5997Z" fill="black"/>
</g>
<rect x="9" y="7" width="38" height="38" rx="19" stroke="#012C44" stroke-width="2"/>
</g>
<defs>
<filter id="filter0_d_8318_8524" x="0" y="0" width="56" height="56" filterUnits="userSpaceOnUse" color-interpolation-filters="sRGB">
<feFlood flood-opacity="0" result="BackgroundImageFix"/>
<feColorMatrix in="SourceAlpha" type="matrix" values="0 0 0 0 0 0 0 0 0 0 0 0 0 0 0 0 0 0 127 0" result="hardAlpha"/>
<feOffset dy="2"/>
<feGaussianBlur stdDeviation="4"/>
<feColorMatrix type="matrix" values="0 0 0 0 0 0 0 0 0 0 0 0 0 0 0 0 0 0 0.16 0"/>
<feBlend mode="normal" in2="BackgroundImageFix" result="effect1_dropShadow_8318_8524"/>
<feBlend mode="normal" in="SourceGraphic" in2="effect1_dropShadow_8318_8524" result="shape"/>
</filter>
<clipPath id="clip0_8318_8524">
<rect x="10" y="8" width="36" height="36" rx="18" fill="white"/>
</clipPath>
</defs>
</svg>
