<svg width="48" height="48" viewBox="0 0 48 48" fill="none" xmlns="http://www.w3.org/2000/svg">
<g filter="url(#filter0_d_8318_8469)">
<g clip-path="url(#clip0_8318_8469)">
<path d="M8 22C8 13.1634 15.1634 6 24 6V6C32.8366 6 40 13.1634 40 22V22C40 30.8366 32.8366 38 24 38V38C15.1634 38 8 30.8366 8 22V22Z" fill="#012C44"/>
<path d="M24 7C32.2843 7 39 13.7157 39 22C39 30.2843 32.2843 37 24 37C15.7157 37 9 30.2843 9 22C9 13.7157 15.7157 7 24 7Z" fill="#009DDB"/>
<path d="M24 7C32.2843 7 39 13.7157 39 22C39 30.2843 32.2843 37 24 37C15.7157 37 9 30.2843 9 22C9 13.7157 15.7157 7 24 7Z" stroke="#012C44" stroke-width="2"/>
<path fill-rule="evenodd" clip-rule="evenodd" d="M17.3359 26.165C16.8759 26.165 16.501 26.54 16.501 27C16.501 27.46 16.8759 27.835 17.3359 27.835C17.7959 27.835 18.166 27.46 18.166 27C18.166 26.54 17.7959 26.165 17.3359 26.165ZM14.8359 27C14.8359 25.62 15.9559 24.5 17.3359 24.5C18.7159 24.5 19.8359 25.62 19.8359 27C19.8359 28.38 18.7159 29.5 17.3359 29.5C15.9559 29.5 14.8359 28.38 14.8359 27Z" fill="black"/>
<path fill-rule="evenodd" clip-rule="evenodd" d="M30.666 26.165C30.206 26.165 29.8359 26.54 29.8359 27C29.8359 27.46 30.206 27.835 30.666 27.835C31.126 27.835 31.501 27.46 31.501 27C31.501 26.54 31.126 26.165 30.666 26.165ZM28.166 27C28.166 25.62 29.286 24.5 30.666 24.5C32.046 24.5 33.166 25.62 33.166 27C33.166 28.38 32.046 29.5 30.666 29.5C29.286 29.5 28.166 28.38 28.166 27Z" fill="black"/>
<path fill-rule="evenodd" clip-rule="evenodd" d="M25.6659 15.335C25.6659 14.875 26.0408 14.5 26.5008 14.5H27.3158C28.4408 14.5 29.4259 15.25 29.7259 16.33L31.4711 22.61C31.5411 22.86 31.4909 23.13 31.3309 23.335C31.1759 23.54 30.9259 23.665 30.6659 23.665C29.5759 23.665 28.6108 24.185 28.0008 25C27.5808 25.555 27.3358 26.25 27.3358 27C27.3358 27.46 26.9608 27.835 26.5008 27.835H19.0008C18.7808 27.835 18.566 27.75 18.411 27.59C18.256 27.435 18.166 27.22 18.166 27C18.166 26.54 17.7959 26.165 17.3359 26.165C16.8759 26.165 16.5208 25.815 16.5008 25.365C16.4808 24.92 16.821 24.535 17.266 24.5L26.911 23.695C27.606 22.91 28.5409 22.34 29.6009 22.11L28.121 16.775C28.021 16.415 27.6908 16.165 27.3158 16.165H26.5008C26.0408 16.165 25.6659 15.79 25.6659 15.33V15.335Z" fill="black"/>
</g>
<path d="M24 7C32.2843 7 39 13.7157 39 22C39 30.2843 32.2843 37 24 37C15.7157 37 9 30.2843 9 22C9 13.7157 15.7157 7 24 7Z" stroke="#012C44" stroke-width="2"/>
</g>
<defs>
<filter id="filter0_d_8318_8469" x="0" y="0" width="48" height="48" filterUnits="userSpaceOnUse" color-interpolation-filters="sRGB">
<feFlood flood-opacity="0" result="BackgroundImageFix"/>
<feColorMatrix in="SourceAlpha" type="matrix" values="0 0 0 0 0 0 0 0 0 0 0 0 0 0 0 0 0 0 127 0" result="hardAlpha"/>
<feOffset dy="2"/>
<feGaussianBlur stdDeviation="4"/>
<feColorMatrix type="matrix" values="0 0 0 0 0 0 0 0 0 0 0 0 0 0 0 0 0 0 0.16 0"/>
<feBlend mode="normal" in2="BackgroundImageFix" result="effect1_dropShadow_8318_8469"/>
<feBlend mode="normal" in="SourceGraphic" in2="effect1_dropShadow_8318_8469" result="shape"/>
</filter>
<clipPath id="clip0_8318_8469">
<path d="M8 22C8 13.1634 15.1634 6 24 6V6C32.8366 6 40 13.1634 40 22V22C40 30.8366 32.8366 38 24 38V38C15.1634 38 8 30.8366 8 22V22Z" fill="white"/>
</clipPath>
</defs>
</svg>
