<svg width="56" height="56" viewBox="0 0 56 56" fill="none" xmlns="http://www.w3.org/2000/svg">
<g filter="url(#filter0_d_8318_8533)">
<g clip-path="url(#clip0_8318_8533)">
<rect x="10" y="8" width="36" height="36" rx="18" fill="#007AB5"/>
<path d="M37.3237 33.4964C37.4009 33.4964 37.4781 33.5736 37.5553 33.6122L36.8218 34.616H36.7446C36.1269 34.3071 35.5864 33.9983 34.4282 33.9983C33.27 33.9983 32.7295 34.2685 32.0732 34.616C31.4169 34.9634 30.6448 35.3495 29.1777 35.3495C27.7106 35.3495 26.9385 34.9634 26.2822 34.616C25.6645 34.3071 25.124 33.9983 23.9272 33.9983C22.7304 33.9983 22.2285 34.2685 21.6108 34.616C20.9159 34.9634 20.1823 35.3495 18.7153 35.3495C17.2482 35.3495 16.5147 34.9634 15.8198 34.616C15.4723 34.423 15.1249 34.2685 14.7002 34.1527L15.0477 32.9559C15.5881 33.1103 16.0128 33.3034 16.3989 33.4964C17.0166 33.8052 17.5571 34.1141 18.7153 34.1141C19.8735 34.1141 20.414 33.8439 21.0703 33.4964C21.7266 33.1489 22.4987 32.7629 23.9658 32.7629C25.4329 32.7629 26.205 33.1489 26.8613 33.4964C27.479 33.8052 28.0195 34.1141 29.1777 34.1141C30.3359 34.1141 30.8764 33.8439 31.5327 33.4964C32.189 33.1489 32.9612 32.7629 34.4282 32.7629C35.8953 32.7629 36.6674 33.1489 37.3237 33.4964Z" fill="white"/>
<path d="M41.0299 28.0915H37.0535C37.0535 28.0915 35.3162 20.5632 35.2389 20.1385C35.1617 19.7138 34.8143 19.791 34.8143 19.791H32.8067C32.8067 19.791 32.5365 18.71 32.4207 18.1309C32.2662 17.5132 31.996 17.6677 31.996 17.6677C31.996 17.6677 29.3707 18.6714 29.0233 18.8259C28.6758 18.9803 28.7916 19.3663 28.7916 19.3663V21.7214H19.8735C19.2558 21.7214 19.2558 22.0688 19.2558 22.0688L17.7887 28.0915H16.8236C16.5919 28.0915 16.4375 28.2459 16.3989 28.4389L15.3951 31.9135C16.09 32.1066 16.5919 32.3768 17.0166 32.5698C17.5957 32.8787 17.9045 33.0331 18.7539 33.0331C19.6032 33.0331 19.9121 32.8787 20.4912 32.5698C21.2247 32.1838 22.2285 31.6819 23.9658 31.6819C25.7031 31.6819 26.7455 32.1838 27.479 32.5698C28.0581 32.8787 28.367 33.0331 29.2163 33.0331C30.0657 33.0331 30.3745 32.8787 30.9536 32.5698C31.6871 32.1838 32.6909 31.6819 34.4668 31.6819C36.2427 31.6819 37.2465 32.1838 37.98 32.5698C38.0572 32.5698 38.2503 32.6857 38.2503 32.6857L41.3002 28.4775C41.3002 28.4775 41.3002 28.4003 41.3002 28.3231C41.3002 28.1687 41.1844 28.0529 41.0299 28.0529V28.0915ZM19.7577 25.1574L20.1823 23.3428H24.1202V25.1574H19.7577ZM29.0619 25.1574H24.6993V23.3428H29.0619V25.1574ZM29.7568 25.1574V23.3428H34.1194L34.5826 25.1574H29.7568Z" fill="white"/>
</g>
<rect x="9" y="7" width="38" height="38" rx="19" stroke="black" stroke-width="2"/>
</g>
<defs>
<filter id="filter0_d_8318_8533" x="0" y="0" width="56" height="56" filterUnits="userSpaceOnUse" color-interpolation-filters="sRGB">
<feFlood flood-opacity="0" result="BackgroundImageFix"/>
<feColorMatrix in="SourceAlpha" type="matrix" values="0 0 0 0 0 0 0 0 0 0 0 0 0 0 0 0 0 0 127 0" result="hardAlpha"/>
<feOffset dy="2"/>
<feGaussianBlur stdDeviation="4"/>
<feColorMatrix type="matrix" values="0 0 0 0 0 0 0 0 0 0 0 0 0 0 0 0 0 0 0.16 0"/>
<feBlend mode="normal" in2="BackgroundImageFix" result="effect1_dropShadow_8318_8533"/>
<feBlend mode="normal" in="SourceGraphic" in2="effect1_dropShadow_8318_8533" result="shape"/>
</filter>
<clipPath id="clip0_8318_8533">
<rect x="10" y="8" width="36" height="36" rx="18" fill="white"/>
</clipPath>
</defs>
</svg>
