<svg width="56" height="56" viewBox="0 0 56 56" fill="none" xmlns="http://www.w3.org/2000/svg">
<g filter="url(#filter0_d_8318_8524)">
<g clip-path="url(#clip0_8318_8524)">
<rect x="10" y="8" width="36" height="36" rx="18" fill="#B3B3B3"/>
<path d="M39.1851 29.6381C38.7907 29.2796 38.3606 28.8853 37.536 28.8853C36.7115 28.8853 36.2813 29.2796 35.887 29.6381C35.5285 29.9608 35.2058 30.2476 34.5606 30.2476C33.9153 30.2476 33.5926 29.9608 33.2341 29.6381C32.8398 29.2796 32.4096 28.8853 31.5851 28.8853C30.7606 28.8853 30.3304 29.2796 29.936 29.6381C29.5775 29.9608 29.2549 30.2476 28.6096 30.2476C27.9643 30.2476 27.6417 29.9608 27.2832 29.6381C27.104 29.4589 26.8889 29.2796 26.6379 29.1362C26.6379 29.1362 26.5662 29.1362 26.5304 29.1362C26.2794 29.0287 26.0285 28.957 25.67 28.957C24.8455 28.957 24.4153 29.3513 24.0568 29.7098C23.6983 30.0325 23.4115 30.3193 22.7662 30.3193C22.1209 30.3193 21.7983 30.0325 21.4757 29.7098C21.0813 29.3513 20.687 28.957 19.8625 28.957C19.0379 28.957 18.6077 29.3513 18.2493 29.7098C17.8908 30.0325 17.604 30.3193 16.9228 30.3193C16.2417 30.3193 15.9549 30.0325 15.6323 29.7098C15.4172 29.5306 15.2021 29.3155 14.8794 29.1362L14.7002 30.3193C14.9511 30.4268 15.1304 30.606 15.3096 30.7853C15.704 31.1438 16.1342 31.5381 16.9228 31.5381C17.7115 31.5381 18.1776 31.1438 18.536 30.7853C18.8945 30.4626 19.1813 30.1759 19.8266 30.1759C20.4719 30.1759 20.7945 30.4626 21.153 30.7853C21.5474 31.1438 21.9417 31.5381 22.7662 31.5381C23.5908 31.5381 24.0209 31.1438 24.3794 30.7853C24.7379 30.4626 25.0247 30.1759 25.7058 30.1759C26.387 30.1759 26.2436 30.2476 26.4587 30.3551C26.6379 30.4626 26.8172 30.606 26.9606 30.7494C27.3191 31.0721 27.7492 31.4664 28.5738 31.4664C29.3983 31.4664 29.8285 31.0721 30.2228 30.7136C30.5813 30.391 30.8681 30.1042 31.5492 30.1042C32.2304 30.1042 32.5172 30.391 32.8757 30.7136C33.27 31.0721 33.7002 31.4664 34.5247 31.4664C35.3492 31.4664 35.7794 31.0721 36.1738 30.7136C36.5323 30.391 36.8549 30.1042 37.5002 30.1042C38.1455 30.1042 38.4681 30.391 38.8266 30.7136L39.2209 29.7098C39.2209 29.7098 39.1492 29.6381 39.0775 29.6023V29.674L39.1851 29.6381Z" fill="black"/>
<path d="M26.4945 29.1004C26.2794 28.9928 26.0643 28.9211 25.7417 28.9211C25.4191 28.9211 25.1681 28.9928 24.953 29.1362L26.5304 29.1362L26.4945 29.1362V29.1004Z" fill="black"/>
<path d="M19.0021 29.1721H20.687C20.4719 29.0287 20.2209 28.9211 19.8625 28.9211C19.504 28.9211 19.2172 29.0287 19.0021 29.1721Z" fill="black"/>
<path d="M41.1926 24.1891H37.8587L32.7323 20.3891H19.2889C19.0738 20.3891 18.8945 20.5683 18.8587 20.7834L18.07 24.1891H16.8153C16.6002 24.1891 16.4209 24.3325 16.3851 24.5117L15.4172 27.9891L15.3096 28.0966C15.453 28.2042 15.5606 28.3117 15.704 28.4193C16.0625 28.7419 16.3493 29.0287 16.9945 29.0287C17.6398 29.0287 17.9625 28.7419 18.3209 28.4193C18.7153 28.0608 19.1096 27.6664 19.9342 27.6664C20.7587 27.6664 21.1889 28.0608 21.5474 28.4193C21.9059 28.7419 22.1926 29.0287 22.8379 29.0287C23.4832 29.0287 23.8059 28.7419 24.1285 28.4193C24.5228 28.0608 24.9172 27.6664 25.7417 27.6664C26.5662 27.6664 26.387 27.7381 26.6021 27.8457C26.9247 27.9891 27.1398 28.2042 27.3908 28.3834C27.7492 28.706 28.0719 28.9928 28.7172 28.9928C29.3625 28.9928 29.6851 28.706 30.0436 28.3834C30.4379 28.0249 30.8681 27.6306 31.6926 27.6306C32.5172 27.6306 32.9474 28.0249 33.3417 28.3834C33.7002 28.706 34.0228 28.9928 34.6681 28.9928C35.3134 28.9928 35.636 28.706 35.9945 28.3834C36.3889 28.0249 36.819 27.6306 37.6436 27.6306C38.4681 27.6306 38.5398 27.774 38.8266 27.9891L41.3002 24.5476C41.3002 24.5476 41.3002 24.4759 41.3002 24.4042C41.3002 24.2608 41.1926 24.1532 41.0492 24.1532H41.1568L41.1926 24.1891ZM23.5908 24.1891H19.0738L19.504 22.3249H23.5191V22.3966H23.5908V24.2249V24.1891ZM28.0719 24.1891H24.0926V22.3249H28.0719V24.1891ZM28.7172 24.1891V22.3249H33.3775L35.9228 24.1891H28.7172Z" fill="black"/>
<path d="M30.9757 29.1004H32.4455C32.2662 28.9928 32.0153 28.9211 31.7285 28.9211C31.4417 28.9211 31.1908 28.9928 30.9757 29.1004Z" fill="black"/>
<path d="M37.7153 28.9211C37.4285 28.9211 37.2492 28.9211 37.0341 29.0645H38.0379L38.1096 28.9928C38.0021 28.9928 37.8587 28.9928 37.7153 28.9928V28.9211Z" fill="black"/>
</g>
<rect x="9" y="7" width="38" height="38" rx="19" stroke="black" stroke-width="2"/>
</g>
<defs>
<filter id="filter0_d_8318_8524" x="0" y="0" width="56" height="56" filterUnits="userSpaceOnUse" color-interpolation-filters="sRGB">
<feFlood flood-opacity="0" result="BackgroundImageFix"/>
<feColorMatrix in="SourceAlpha" type="matrix" values="0 0 0 0 0 0 0 0 0 0 0 0 0 0 0 0 0 0 127 0" result="hardAlpha"/>
<feOffset dy="2"/>
<feGaussianBlur stdDeviation="4"/>
<feColorMatrix type="matrix" values="0 0 0 0 0 0 0 0 0 0 0 0 0 0 0 0 0 0 0.16 0"/>
<feBlend mode="normal" in2="BackgroundImageFix" result="effect1_dropShadow_8318_8524"/>
<feBlend mode="normal" in="SourceGraphic" in2="effect1_dropShadow_8318_8524" result="shape"/>
</filter>
<clipPath id="clip0_8318_8524">
<rect x="10" y="8" width="36" height="36" rx="18" fill="white"/>
</clipPath>
</defs>
</svg>
