<svg width="64" height="64" viewBox="0 0 64 64" fill="none" xmlns="http://www.w3.org/2000/svg">
<g filter="url(#filter0_d_10364_5769)">
<path d="M10 30C10 17.8497 19.8497 8 32 8C44.1503 8 54 17.8497 54 30C54 42.1503 44.1503 52 32 52C19.8497 52 10 42.1503 10 30Z" fill="#007AB5"/>
<path d="M32 7C44.7025 7 55 17.2975 55 30C55 42.7025 44.7025 53 32 53C19.2975 53 9 42.7025 9 30C9 17.2975 19.2975 7 32 7Z" stroke="black" stroke-width="2"/>
<path d="M43.1851 33.6381C42.7907 33.2796 42.3606 32.8853 41.536 32.8853C40.7115 32.8853 40.2813 33.2796 39.887 33.6381C39.5285 33.9608 39.2058 34.2476 38.5606 34.2476C37.9153 34.2476 37.5926 33.9608 37.2341 33.6381C36.8398 33.2796 36.4096 32.8853 35.5851 32.8853C34.7606 32.8853 34.3304 33.2796 33.936 33.6381C33.5775 33.9608 33.2549 34.2476 32.6096 34.2476C31.9643 34.2476 31.6417 33.9608 31.2832 33.6381C31.104 33.4589 30.8889 33.2796 30.6379 33.1363C30.6379 33.1363 30.5662 33.1363 30.5304 33.1363C30.2794 33.0287 30.0285 32.957 29.67 32.957C28.8455 32.957 28.4153 33.3513 28.0568 33.7098C27.6983 34.0325 27.4115 34.3193 26.7662 34.3193C26.1209 34.3193 25.7983 34.0325 25.4757 33.7098C25.0813 33.3513 24.687 32.957 23.8625 32.957C23.0379 32.957 22.6077 33.3513 22.2493 33.7098C21.8908 34.0325 21.604 34.3193 20.9228 34.3193C20.2417 34.3193 19.9549 34.0325 19.6323 33.7098C19.4172 33.5306 19.2021 33.3155 18.8794 33.1363L18.7002 34.3193C18.9511 34.4268 19.1304 34.6061 19.3096 34.7853C19.704 35.1438 20.1342 35.5381 20.9228 35.5381C21.7115 35.5381 22.1776 35.1438 22.536 34.7853C22.8945 34.4627 23.1813 34.1759 23.8266 34.1759C24.4719 34.1759 24.7945 34.4627 25.153 34.7853C25.5474 35.1438 25.9417 35.5381 26.7662 35.5381C27.5908 35.5381 28.0209 35.1438 28.3794 34.7853C28.7379 34.4627 29.0247 34.1759 29.7059 34.1759C30.387 34.1759 30.2436 34.2476 30.4587 34.3551C30.6379 34.4627 30.8172 34.6061 30.9606 34.7495C31.3191 35.0721 31.7492 35.4664 32.5738 35.4664C33.3983 35.4664 33.8285 35.0721 34.2228 34.7136C34.5813 34.391 34.8681 34.1042 35.5492 34.1042C36.2304 34.1042 36.5172 34.391 36.8757 34.7136C37.27 35.0721 37.7002 35.4664 38.5247 35.4664C39.3492 35.4664 39.7794 35.0721 40.1738 34.7136C40.5323 34.391 40.8549 34.1042 41.5002 34.1042C42.1455 34.1042 42.4681 34.391 42.8266 34.7136L43.2209 33.7098C43.2209 33.7098 43.1492 33.6381 43.0775 33.6023V33.674L43.1851 33.6381Z" fill="white"/>
<path d="M30.4945 33.1004C30.2794 32.9929 30.0643 32.9212 29.7417 32.9212C29.4191 32.9212 29.1681 32.9929 28.953 33.1363L30.5304 33.1363L30.4945 33.1363V33.1004Z" fill="white"/>
<path d="M23.0021 33.1721H24.687C24.4719 33.0287 24.2209 32.9212 23.8625 32.9212C23.504 32.9212 23.2172 33.0287 23.0021 33.1721Z" fill="white"/>
<path d="M45.1926 28.1891H41.8587L36.7323 24.3891H23.2889C23.0738 24.3891 22.8945 24.5683 22.8587 24.7834L22.07 28.1891H20.8153C20.6002 28.1891 20.4209 28.3325 20.3851 28.5117L19.4172 31.9891L19.3096 32.0966C19.453 32.2042 19.5606 32.3117 19.704 32.4193C20.0625 32.7419 20.3493 33.0287 20.9945 33.0287C21.6398 33.0287 21.9625 32.7419 22.3209 32.4193C22.7153 32.0608 23.1096 31.6664 23.9342 31.6664C24.7587 31.6664 25.1889 32.0608 25.5474 32.4193C25.9059 32.7419 26.1926 33.0287 26.8379 33.0287C27.4832 33.0287 27.8059 32.7419 28.1285 32.4193C28.5228 32.0608 28.9172 31.6664 29.7417 31.6664C30.5662 31.6664 30.387 31.7381 30.6021 31.8457C30.9247 31.9891 31.1398 32.2042 31.3908 32.3834C31.7492 32.7061 32.0719 32.9929 32.7172 32.9929C33.3625 32.9929 33.6851 32.7061 34.0436 32.3834C34.4379 32.0249 34.8681 31.6306 35.6926 31.6306C36.5172 31.6306 36.9474 32.0249 37.3417 32.3834C37.7002 32.7061 38.0228 32.9929 38.6681 32.9929C39.3134 32.9929 39.636 32.7061 39.9945 32.3834C40.3889 32.0249 40.8191 31.6306 41.6436 31.6306C42.4681 31.6306 42.5398 31.774 42.8266 31.9891L45.3002 28.5476C45.3002 28.5476 45.3002 28.4759 45.3002 28.4042C45.3002 28.2608 45.1926 28.1532 45.0492 28.1532H45.1568L45.1926 28.1891ZM27.5908 28.1891H23.0738L23.504 26.3249H27.5191V26.3966H27.5908V28.2249V28.1891ZM32.0719 28.1891H28.0926V26.3249H32.0719V28.1891ZM32.7172 28.1891V26.3249H37.3775L39.9228 28.1891H32.7172Z" fill="white"/>
<path d="M34.9757 33.1004H36.4455C36.2662 32.9929 36.0153 32.9212 35.7285 32.9212C35.4417 32.9212 35.1908 32.9929 34.9757 33.1004Z" fill="white"/>
<path d="M41.7153 32.9212C41.4285 32.9212 41.2492 32.9212 41.0341 33.0646H42.0379L42.1096 32.9929C42.0021 32.9929 41.8587 32.9929 41.7153 32.9929V32.9212Z" fill="white"/>
</g>
<defs>
<filter id="filter0_d_10364_5769" x="0" y="0" width="64" height="64" filterUnits="userSpaceOnUse" color-interpolation-filters="sRGB">
<feFlood flood-opacity="0" result="BackgroundImageFix"/>
<feColorMatrix in="SourceAlpha" type="matrix" values="0 0 0 0 0 0 0 0 0 0 0 0 0 0 0 0 0 0 127 0" result="hardAlpha"/>
<feOffset dy="2"/>
<feGaussianBlur stdDeviation="4"/>
<feColorMatrix type="matrix" values="0 0 0 0 0 0 0 0 0 0 0 0 0 0 0 0 0 0 0.16 0"/>
<feBlend mode="normal" in2="BackgroundImageFix" result="effect1_dropShadow_10364_5769"/>
<feBlend mode="normal" in="SourceGraphic" in2="effect1_dropShadow_10364_5769" result="shape"/>
</filter>
</defs>
</svg>
