<svg width="44" height="44" viewBox="0 0 44 44" fill="none" xmlns="http://www.w3.org/2000/svg">
<g filter="url(#filter0_d_10043_6318)">
<path d="M8 12C8 9.79086 9.79086 8 12 8H32C34.2091 8 36 9.79086 36 12V32C36 34.2091 34.2091 36 32 36H12C9.79086 36 8 34.2091 8 32V12Z" fill="#730D1E"/>
<path d="M27.8328 28.4594C27.6728 28.4594 27.5128 28.3994 27.3928 28.2744L15.7278 16.6094C15.4828 16.3644 15.4828 15.9694 15.7278 15.7244C15.9728 15.4794 16.3678 15.4794 16.6128 15.7244L28.2778 27.3894C28.5228 27.6344 28.5228 28.0294 28.2778 28.2744C28.1578 28.3944 27.9978 28.4594 27.8378 28.4594H27.8328Z" fill="white"/>
<path d="M16.1628 28.4594C16.0028 28.4594 15.8428 28.3994 15.7228 28.2744C15.4778 28.0294 15.4778 27.6344 15.7228 27.3894L27.3878 15.7244C27.6328 15.4794 28.0278 15.4794 28.2728 15.7244C28.5178 15.9694 28.5178 16.3644 28.2728 16.6094L16.6078 28.2744C16.4878 28.3944 16.3278 28.4594 16.1678 28.4594H16.1628Z" fill="white"/>
</g>
<defs>
<filter id="filter0_d_10043_6318" x="0" y="0" width="44" height="44" filterUnits="userSpaceOnUse" color-interpolation-filters="sRGB">
<feFlood flood-opacity="0" result="BackgroundImageFix"/>
<feColorMatrix in="SourceAlpha" type="matrix" values="0 0 0 0 0 0 0 0 0 0 0 0 0 0 0 0 0 0 127 0" result="hardAlpha"/>
<feOffset/>
<feGaussianBlur stdDeviation="4"/>
<feColorMatrix type="matrix" values="0 0 0 0 0 0 0 0 0 0 0 0 0 0 0 0 0 0 0.23 0"/>
<feBlend mode="normal" in2="BackgroundImageFix" result="effect1_dropShadow_10043_6318"/>
<feBlend mode="normal" in="SourceGraphic" in2="effect1_dropShadow_10043_6318" result="shape"/>
</filter>
</defs>
</svg>
