<svg width="28" height="28" viewBox="0 0 28 28" fill="none" xmlns="http://www.w3.org/2000/svg">
<path d="M0 4C0 1.79086 1.79086 0 4 0H24C26.2091 0 28 1.79086 28 4V24C28 26.2091 26.2091 28 24 28H4C1.79086 28 0 26.2091 0 24V4Z" fill="#2E0608"/>
<path d="M19.8325 20.4598C19.6725 20.4598 19.5125 20.3998 19.3925 20.2748L7.7275 8.60977C7.4825 8.36477 7.4825 7.96977 7.7275 7.72477C7.9725 7.47977 8.36751 7.47977 8.61251 7.72477L20.2775 19.3898C20.5225 19.6348 20.5225 20.0298 20.2775 20.2748C20.1575 20.3948 19.9975 20.4598 19.8375 20.4598H19.8325Z" fill="white"/>
<path d="M8.16248 20.4598C8.00248 20.4598 7.8425 20.3998 7.7225 20.2748C7.4775 20.0298 7.4775 19.6348 7.7225 19.3898L19.3875 7.72477C19.6325 7.47977 20.0275 7.47977 20.2725 7.72477C20.5175 7.96977 20.5175 8.36477 20.2725 8.60977L8.60749 20.2748C8.48749 20.3948 8.32749 20.4598 8.16749 20.4598H8.16248Z" fill="white"/>
</svg>
