<svg width="44" height="44" viewBox="0 0 44 44" fill="none" xmlns="http://www.w3.org/2000/svg">
<g filter="url(#filter0_d_10043_6318)">
<path d="M8 10C8 7.79086 9.79086 6 12 6H32C34.2091 6 36 7.79086 36 10V30C36 32.2091 34.2091 34 32 34H12C9.79086 34 8 32.2091 8 30V10Z" fill="#730D1E"/>
<path d="M27.8328 26.4594C27.6728 26.4594 27.5128 26.3994 27.3928 26.2744L15.7278 14.6094C15.4828 14.3644 15.4828 13.9694 15.7278 13.7244C15.9728 13.4794 16.3678 13.4794 16.6128 13.7244L28.2778 25.3894C28.5228 25.6344 28.5228 26.0294 28.2778 26.2744C28.1578 26.3944 27.9978 26.4594 27.8378 26.4594H27.8328Z" fill="white"/>
<path d="M16.1628 26.4594C16.0028 26.4594 15.8428 26.3994 15.7228 26.2744C15.4778 26.0294 15.4778 25.6344 15.7228 25.3894L27.3878 13.7244C27.6328 13.4794 28.0278 13.4794 28.2728 13.7244C28.5178 13.9694 28.5178 14.3644 28.2728 14.6094L16.6078 26.2744C16.4878 26.3944 16.3278 26.4594 16.1678 26.4594H16.1628Z" fill="white"/>
</g>
<defs>
<filter id="filter0_d_10043_6318" x="0" y="0" width="44" height="44" filterUnits="userSpaceOnUse" color-interpolation-filters="sRGB">
<feFlood flood-opacity="0" result="BackgroundImageFix"/>
<feColorMatrix in="SourceAlpha" type="matrix" values="0 0 0 0 0 0 0 0 0 0 0 0 0 0 0 0 0 0 127 0" result="hardAlpha"/>
<feOffset dy="2"/>
<feGaussianBlur stdDeviation="4"/>
<feColorMatrix type="matrix" values="0 0 0 0 0 0 0 0 0 0 0 0 0 0 0 0 0 0 0.16 0"/>
<feBlend mode="normal" in2="BackgroundImageFix" result="effect1_dropShadow_10043_6318"/>
<feBlend mode="normal" in="SourceGraphic" in2="effect1_dropShadow_10043_6318" result="shape"/>
</filter>
</defs>
</svg>
