<svg width="44" height="44" viewBox="0 0 44 44" fill="none" xmlns="http://www.w3.org/2000/svg">
<g filter="url(#filter0_d_10043_6304)">
<path d="M8 10C8 7.79086 9.79086 6 12 6H32C34.2091 6 36 7.79086 36 10V30C36 32.2091 34.2091 34 32 34H12C9.79086 34 8 32.2091 8 30V10Z" fill="#C91D39"/>
<path d="M27.6004 26.2C27.4454 26.2 27.2954 26.14 27.1754 26.025L15.9754 14.825C15.7404 14.59 15.7404 14.21 15.9754 13.975C16.2104 13.74 16.5904 13.74 16.8254 13.975L28.0254 25.175C28.2604 25.41 28.2604 25.79 28.0254 26.025C27.9104 26.14 27.7554 26.2 27.6004 26.2Z" fill="white"/>
<path d="M22.0004 28.6C17.2604 28.6 13.4004 24.74 13.4004 20C13.4004 15.26 17.2604 11.4 22.0004 11.4C26.7404 11.4 30.6004 15.26 30.6004 20C30.6004 24.74 26.7404 28.6 22.0004 28.6ZM22.0004 12.6C17.9204 12.6 14.6004 15.92 14.6004 20C14.6004 24.08 17.9204 27.4 22.0004 27.4C26.0804 27.4 29.4004 24.08 29.4004 20C29.4004 15.92 26.0804 12.6 22.0004 12.6Z" fill="white"/>
</g>
<defs>
<filter id="filter0_d_10043_6304" x="0" y="0" width="44" height="44" filterUnits="userSpaceOnUse" color-interpolation-filters="sRGB">
<feFlood flood-opacity="0" result="BackgroundImageFix"/>
<feColorMatrix in="SourceAlpha" type="matrix" values="0 0 0 0 0 0 0 0 0 0 0 0 0 0 0 0 0 0 127 0" result="hardAlpha"/>
<feOffset dy="2"/>
<feGaussianBlur stdDeviation="4"/>
<feColorMatrix type="matrix" values="0 0 0 0 0 0 0 0 0 0 0 0 0 0 0 0 0 0 0.16 0"/>
<feBlend mode="normal" in2="BackgroundImageFix" result="effect1_dropShadow_10043_6304"/>
<feBlend mode="normal" in="SourceGraphic" in2="effect1_dropShadow_10043_6304" result="shape"/>
</filter>
</defs>
</svg>
