<svg width="40" height="40" viewBox="0 0 40 40" fill="none" xmlns="http://www.w3.org/2000/svg">
<path fill-rule="evenodd" clip-rule="evenodd" d="M19.9992 36.67C21.0092 36.67 21.9691 36.29 22.6991 35.61C23.1991 35.14 23.7191 34.66 24.2391 34.18C30.5991 28.32 37.8491 21.63 33.8591 12.3C31.5191 6.82995 25.9092 3.32996 19.9992 3.32996C14.0892 3.32996 8.47917 6.82995 6.13917 12.3C2.16917 21.59 9.33919 28.23 15.6592 34.08C16.2192 34.6 16.7692 35.11 17.3092 35.61C18.0292 36.29 18.9992 36.67 19.9992 36.67ZM25.0092 15.09C25.4992 14.6 25.4992 13.81 25.0092 13.32C24.5192 12.83 23.7291 12.83 23.2391 13.32L19.9992 16.56L16.7592 13.32C16.2692 12.83 15.4791 12.83 14.9891 13.32C14.4991 13.81 14.4991 14.6 14.9891 15.09L18.2291 18.33L14.9891 21.57C14.4991 22.06 14.4991 22.85 14.9891 23.34C15.4791 23.83 16.2692 23.83 16.7592 23.34L19.9992 20.1L23.2391 23.34C23.7291 23.83 24.5192 23.83 25.0092 23.34C25.4992 22.85 25.4992 22.06 25.0092 21.57L21.7692 18.33L25.0092 15.09Z" fill="#D7425B" stroke="black"/>
</svg>
