<svg width="76" height="48" viewBox="0 0 76 48" fill="none" xmlns="http://www.w3.org/2000/svg">
<g filter="url(#filter0_d_654_10330)">
<path d="M8 10C8 7.79086 9.79086 6 12 6H64C66.2091 6 68 7.79086 68 10V34C68 36.2091 66.2091 38 64 38H12C9.79086 38 8 36.2091 8 34V10Z" fill="#2B353A"/>
<path d="M12 7H64C65.6569 7 67 8.34315 67 10V34C67 35.6569 65.6569 37 64 37H12C10.3431 37 9 35.6569 9 34V10C9 8.34315 10.3431 7 12 7Z" stroke="#2B353A" stroke-width="2"/>
<rect x="10" y="8" width="28" height="28" rx="2" fill="#BD75BD"/>
<path d="M19.835 28.3546C20.985 28.3546 21.915 27.4196 21.915 26.2696C21.915 25.1196 20.985 24.1846 19.835 24.1846C18.685 24.1846 17.75 25.1196 17.75 26.2696C17.75 27.4196 18.685 28.3546 19.835 28.3546Z" fill="black"/>
<path d="M28.165 28.3546C29.315 28.3546 30.25 27.4196 30.25 26.2696C30.25 25.1196 29.315 24.1846 28.165 24.1846C27.015 24.1846 26.085 25.1196 26.085 26.2696C26.085 27.4196 27.015 28.3546 28.165 28.3546Z" fill="black"/>
<path fill-rule="evenodd" clip-rule="evenodd" d="M15.04 20.4346C15.04 20.0896 15.32 19.8096 15.665 19.8096H29C29.345 19.8096 29.625 20.0896 29.625 20.4346C29.625 20.7796 29.345 21.0596 29 21.0596H15.665C15.32 21.0596 15.04 20.7796 15.04 20.4346Z" fill="black"/>
<path fill-rule="evenodd" clip-rule="evenodd" d="M21.5 15.6445C21.845 15.6445 22.125 15.9245 22.125 16.2695V20.4345C22.125 20.7795 21.845 21.0595 21.5 21.0595C21.155 21.0595 20.875 20.7795 20.875 20.4345V16.2695C20.875 15.9245 21.155 15.6445 21.5 15.6445Z" fill="black"/>
<path fill-rule="evenodd" clip-rule="evenodd" d="M15.04 16.2695C15.04 15.9245 15.32 15.6445 15.665 15.6445H25.2151C25.9651 15.6445 26.665 16.0095 27.095 16.6245L29.4199 19.9495L31.6899 21.0845C32.4699 21.4745 32.96 22.2645 32.96 23.1345V25.4395C32.96 26.2445 32.305 26.8995 31.5 26.8995H31.27C31.31 26.6995 31.335 26.4895 31.335 26.2745C31.335 24.5245 29.915 23.1095 28.165 23.1095C26.415 23.1095 25 24.5295 25 26.2745C25 26.4895 25.0201 26.6995 25.0601 26.8995H22.9399C22.9799 26.6995 23 26.4895 23 26.2745C23 24.5245 21.58 23.1095 19.835 23.1095C18.09 23.1095 16.665 24.5295 16.665 26.2745C16.665 26.3995 16.6749 26.5295 16.6899 26.6495L15.8501 26.2295C15.3551 25.9845 15.04 25.4795 15.04 24.9245V20.0245C15.04 19.9395 15.06 19.8495 15.095 19.7695L16.3701 16.8995H15.665C15.32 16.8995 15.04 16.6195 15.04 16.2745V16.2695ZM17.74 16.8945L16.4451 19.8095H20.875V16.8945H17.74ZM22.125 16.8945V19.8095H27.8L26.0701 17.3395C25.8751 17.0595 25.5551 16.8945 25.2151 16.8945H22.125Z" fill="black"/>
</g>
<defs>
<filter id="filter0_d_654_10330" x="0" y="0" width="76" height="48" filterUnits="userSpaceOnUse" color-interpolation-filters="sRGB">
<feFlood flood-opacity="0" result="BackgroundImageFix"/>
<feColorMatrix in="SourceAlpha" type="matrix" values="0 0 0 0 0 0 0 0 0 0 0 0 0 0 0 0 0 0 127 0" result="hardAlpha"/>
<feOffset dy="2"/>
<feGaussianBlur stdDeviation="4"/>
<feColorMatrix type="matrix" values="0 0 0 0 0 0 0 0 0 0 0 0 0 0 0 0 0 0 0.16 0"/>
<feBlend mode="normal" in2="BackgroundImageFix" result="effect1_dropShadow_654_10330"/>
<feBlend mode="normal" in="SourceGraphic" in2="effect1_dropShadow_654_10330" result="shape"/>
</filter>
</defs>
</svg>
