<svg width="102" height="65" viewBox="0 0 102 65" fill="none" xmlns="http://www.w3.org/2000/svg">
<g filter="url(#filter0_d_8318_8263)">
<mask id="path-1-inside-1_8318_8263" fill="white">
<path fill-rule="evenodd" clip-rule="evenodd" d="M16 8C11.5817 8 8 11.5817 8 16V44C8 48.4183 11.5817 52 16 52H40.0486C43.0393 52 45.9778 53.0638 48.0226 55.2462C48.2503 55.4893 48.4744 55.7343 48.6944 55.9815C49.879 57.312 52.1727 57.3473 53.384 56.0382C53.6458 55.7553 53.9126 55.4746 54.184 55.1957C56.2608 53.0621 59.1772 52 62.1547 52H86C90.4183 52 94 48.4183 94 44V16C94 11.5817 90.4183 8 86 8H16Z"/>
</mask>
<path fill-rule="evenodd" clip-rule="evenodd" d="M16 8C11.5817 8 8 11.5817 8 16V44C8 48.4183 11.5817 52 16 52H40.0486C43.0393 52 45.9778 53.0638 48.0226 55.2462C48.2503 55.4893 48.4744 55.7343 48.6944 55.9815C49.879 57.312 52.1727 57.3473 53.384 56.0382C53.6458 55.7553 53.9126 55.4746 54.184 55.1957C56.2608 53.0621 59.1772 52 62.1547 52H86C90.4183 52 94 48.4183 94 44V16C94 11.5817 90.4183 8 86 8H16Z" fill="black"/>
<path d="M48.6944 55.9815L47.2005 57.3112L47.2006 57.3114L48.6944 55.9815ZM53.384 56.0382L54.852 57.3965L54.8521 57.3964L53.384 56.0382ZM54.184 55.1957L52.7509 53.8008L54.184 55.1957ZM48.0226 55.2462L49.4821 53.8788L48.0226 55.2462ZM8 16H10C10 12.6863 12.6863 10 16 10V8V6C10.4772 6 6 10.4772 6 16H8ZM8 44H10V16H8H6V44H8ZM16 52V50C12.6863 50 10 47.3137 10 44H8H6C6 49.5228 10.4772 54 16 54V52ZM40.0486 52V50H16V52V54H40.0486V52ZM48.0226 55.2462L46.5631 56.6137C46.7799 56.8451 46.9925 57.0776 47.2005 57.3112L48.6944 55.9815L50.1883 54.6517C49.9563 54.3911 49.7207 54.1335 49.4821 53.8788L48.0226 55.2462ZM48.6944 55.9815L47.2006 57.3114C49.1611 59.5134 52.8291 59.5827 54.852 57.3965L53.384 56.0382L51.916 54.6799C51.5164 55.1118 50.597 55.1107 50.1882 54.6515L48.6944 55.9815ZM53.384 56.0382L54.8521 57.3964C55.1015 57.1269 55.3567 56.8584 55.6172 56.5907L54.184 55.1957L52.7509 53.8008C52.4686 54.0907 52.19 54.3837 51.916 54.68L53.384 56.0382ZM86 52V50H62.1547V52V54H86V52ZM94 44H92C92 47.3137 89.3137 50 86 50V52V54C91.5229 54 96 49.5228 96 44H94ZM94 16H92V44H94H96V16H94ZM86 8V10C89.3137 10 92 12.6863 92 16H94H96C96 10.4772 91.5229 6 86 6V8ZM16 8V10H86V8V6H16V8ZM54.184 55.1957L55.6172 56.5907C57.2654 54.8974 59.6375 54 62.1547 54V52V50C58.717 50 55.2562 51.2268 52.7509 53.8008L54.184 55.1957ZM40.0486 52V54C42.5852 54 44.9591 54.9017 46.5631 56.6137L48.0226 55.2462L49.4821 53.8788C46.9964 51.2258 43.4933 50 40.0486 50V52Z" fill="black" mask="url(#path-1-inside-1_8318_8263)"/>
<rect x="10" y="10" width="40" height="40" rx="6" fill="#D7425B"/>
<path d="M38.75 41.9559H21.25C19.479 41.9559 18.0439 40.5139 18.0439 38.7499V21.2499C18.0439 19.4789 19.479 18.0439 21.25 18.0439H38.75C40.521 18.0439 41.9561 19.4859 41.9561 21.2499V38.7499C41.9561 40.5209 40.521 41.9559 38.75 41.9559ZM21.25 19.7939C20.445 19.7939 19.7939 20.4449 19.7939 21.2499V38.7499C19.7939 39.5549 20.445 40.2059 21.25 40.2059H38.75C39.555 40.2059 40.2061 39.5549 40.2061 38.7499V21.2499C40.2061 20.4449 39.555 19.7939 38.75 19.7939H21.25Z" fill="black"/>
<path d="M25.9189 37.2939C25.4359 37.2939 25.0439 36.9019 25.0439 36.4189V23.5879C25.0439 23.1049 25.4359 22.7129 25.9189 22.7129H30.5811C32.9961 22.7129 34.9561 24.6729 34.9561 27.0879C34.9561 29.5029 32.9961 31.4629 30.5811 31.4629H26.7939V36.4189C26.7939 36.9019 26.4019 37.2939 25.9189 37.2939ZM26.7939 29.7059H30.5811C32.0301 29.7059 33.2061 28.5299 33.2061 27.0809C33.2061 25.6319 32.0301 24.4559 30.5811 24.4559H26.7939V29.7059Z" fill="black"/>
</g>
<defs>
<filter id="filter0_d_8318_8263" x="0" y="0" width="102" height="65" filterUnits="userSpaceOnUse" color-interpolation-filters="sRGB">
<feFlood flood-opacity="0" result="BackgroundImageFix"/>
<feColorMatrix in="SourceAlpha" type="matrix" values="0 0 0 0 0 0 0 0 0 0 0 0 0 0 0 0 0 0 127 0" result="hardAlpha"/>
<feOffset/>
<feGaussianBlur stdDeviation="4"/>
<feColorMatrix type="matrix" values="0 0 0 0 0 0 0 0 0 0 0 0 0 0 0 0 0 0 0.23 0"/>
<feBlend mode="normal" in2="BackgroundImageFix" result="effect1_dropShadow_8318_8263"/>
<feBlend mode="normal" in="SourceGraphic" in2="effect1_dropShadow_8318_8263" result="shape"/>
</filter>
</defs>
</svg>
