<svg width="60" height="65" viewBox="0 0 60 65" fill="none" xmlns="http://www.w3.org/2000/svg">
<g filter="url(#filter0_d_8318_8367)">
<mask id="path-1-inside-1_8318_8367" fill="white">
<path fill-rule="evenodd" clip-rule="evenodd" d="M16 6C11.5817 6 8 9.58172 8 14V27.7577V42C8 46.4183 11.5817 50 16 50H19.0486C22.0393 50 24.9778 51.0638 27.0226 53.2462C27.2503 53.4893 27.4744 53.7343 27.6944 53.9815C28.879 55.312 31.1727 55.3473 32.384 54.0382C32.6457 53.7553 32.9126 53.4746 33.184 53.1957C35.2608 51.0621 38.1772 50 41.1547 50H44C48.4183 50 52 46.4183 52 42V27.7577V14C52 9.58172 48.4183 6 44 6H16Z"/>
</mask>
<path fill-rule="evenodd" clip-rule="evenodd" d="M16 6C11.5817 6 8 9.58172 8 14V27.7577V42C8 46.4183 11.5817 50 16 50H19.0486C22.0393 50 24.9778 51.0638 27.0226 53.2462C27.2503 53.4893 27.4744 53.7343 27.6944 53.9815C28.879 55.312 31.1727 55.3473 32.384 54.0382C32.6457 53.7553 32.9126 53.4746 33.184 53.1957C35.2608 51.0621 38.1772 50 41.1547 50H44C48.4183 50 52 46.4183 52 42V27.7577V14C52 9.58172 48.4183 6 44 6H16Z" fill="#8F9CA3"/>
<path d="M27.6944 53.9815L26.2005 55.3112L26.2006 55.3114L27.6944 53.9815ZM32.384 54.0382L33.852 55.3965L33.8521 55.3964L32.384 54.0382ZM27.0226 53.2462L25.5631 54.6137L27.0226 53.2462ZM8 14H10C10 10.6863 12.6863 8 16 8V6V4C10.4772 4 6 8.47715 6 14H8ZM8 27.7577H10V14H8H6V27.7577H8ZM8 42H10V27.7577H8H6V42H8ZM16 50V48C12.6863 48 10 45.3137 10 42H8H6C6 47.5228 10.4772 52 16 52V50ZM19.0486 50V48H16V50V52H19.0486V50ZM27.0226 53.2462L25.5631 54.6137C25.7799 54.8451 25.9925 55.0776 26.2005 55.3112L27.6944 53.9815L29.1883 52.6517C28.9563 52.3911 28.7207 52.1335 28.4821 51.8788L27.0226 53.2462ZM27.6944 53.9815L26.2006 55.3114C28.1611 57.5134 31.8291 57.5827 33.852 55.3965L32.384 54.0382L30.916 52.6799C30.5164 53.1118 29.597 53.1107 29.1882 52.6516L27.6944 53.9815ZM32.384 54.0382L33.8521 55.3964C34.1015 55.1269 34.3567 54.8584 34.6172 54.5907L33.184 53.1957L31.7509 51.8008C31.4686 52.0907 31.19 52.3837 30.9159 52.68L32.384 54.0382ZM44 50V48H41.1547V50V52H44V50ZM52 42H50C50 45.3137 47.3137 48 44 48V50V52C49.5228 52 54 47.5228 54 42H52ZM52 27.7577H50V42H52H54V27.7577H52ZM52 14H50V27.7577H52H54V14H52ZM44 6V8C47.3137 8 50 10.6863 50 14H52H54C54 8.47715 49.5228 4 44 4V6ZM16 6V8H44V6V4H16V6ZM33.184 53.1957L34.6172 54.5907C36.2654 52.8974 38.6375 52 41.1547 52V50V48C37.717 48 34.2562 49.2268 31.7509 51.8008L33.184 53.1957ZM19.0486 50V52C21.5852 52 23.9591 52.9017 25.5631 54.6137L27.0226 53.2462L28.4821 51.8788C25.9964 49.2258 22.4933 48 19.0486 48V50Z" fill="black" mask="url(#path-1-inside-1_8318_8367)"/>
<path fill-rule="evenodd" clip-rule="evenodd" d="M32.3305 18.9389C34.2023 16.3188 38.0159 15.7876 40.4533 17.2497C40.5765 17.3236 40.6795 17.4267 40.7534 17.5498C42.2335 20.0161 41.5819 23.2984 39.3819 25.1595L37.671 26.607L39.2616 32.6503C39.5533 33.7584 39.2343 34.9381 38.4241 35.7482L36.888 37.2839C36.7011 37.4707 36.4399 37.5631 36.1772 37.5352C35.9145 37.5074 35.6783 37.3623 35.5348 37.1405L31.5593 30.9978L29.3031 33.2535L29.6715 36.5685C29.7008 36.8326 29.6085 37.0959 29.4204 37.2839L27.761 38.943C27.5621 39.1418 27.2798 39.2329 27.0022 39.1879C26.7246 39.1428 26.4856 38.9671 26.3598 38.7156L24.001 33.9991L19.2836 31.6408C19.032 31.5151 18.8562 31.276 18.8111 30.9983C18.7661 30.7207 18.8572 30.4382 19.0562 30.2394L20.7156 28.5803C20.9036 28.3924 21.1667 28.3001 21.4309 28.3295L24.7467 28.6978L27.0027 26.4423L20.859 22.4677C20.6371 22.3242 20.492 22.0881 20.4641 21.8253C20.4363 21.5624 20.5287 21.3011 20.7156 21.1143L22.2516 19.5786C23.0619 18.7684 24.2416 18.4496 25.3496 18.7412L31.3447 20.3185L32.3305 18.9389Z" fill="black"/>
</g>
<defs>
<filter id="filter0_d_8318_8367" x="0" y="0" width="60" height="65" filterUnits="userSpaceOnUse" color-interpolation-filters="sRGB">
<feFlood flood-opacity="0" result="BackgroundImageFix"/>
<feColorMatrix in="SourceAlpha" type="matrix" values="0 0 0 0 0 0 0 0 0 0 0 0 0 0 0 0 0 0 127 0" result="hardAlpha"/>
<feOffset dy="2"/>
<feGaussianBlur stdDeviation="4"/>
<feColorMatrix type="matrix" values="0 0 0 0 0 0 0 0 0 0 0 0 0 0 0 0 0 0 0.16 0"/>
<feBlend mode="normal" in2="BackgroundImageFix" result="effect1_dropShadow_8318_8367"/>
<feBlend mode="normal" in="SourceGraphic" in2="effect1_dropShadow_8318_8367" result="shape"/>
</filter>
</defs>
</svg>
