<svg width="44" height="44" viewBox="0 0 44 44" fill="none" xmlns="http://www.w3.org/2000/svg">
<g filter="url(#filter0_d_654_10237)">
<g clip-path="url(#clip0_654_10237)">
<rect x="8" y="6" width="28" height="28" rx="4" fill="#337FCC"/>
<g clip-path="url(#clip1_654_10237)">
<path fill-rule="evenodd" clip-rule="evenodd" d="M21.4083 15.405C21.7833 15.24 22.2135 15.24 22.5885 15.405L27.8685 17.74C28.9985 18.24 29.5284 19.535 29.0734 20.68L28.7684 21.455C28.7684 21.455 28.7385 21.455 28.7235 21.455H26.7833C26.4383 21.455 26.1583 21.735 26.1583 22.08C26.1583 22.425 26.4383 22.705 26.7833 22.705H28.2733L27.5033 24.645C27.3483 24.61 27.1833 24.59 27.0133 24.585C25.9283 24.54 25.0934 25.04 24.4684 25.69C24.0684 25.365 23.2233 24.72 22.1283 24.64C21.0383 24.565 20.1683 25.03 19.5133 25.69L19.4784 25.665C19.0884 25.375 18.1984 24.725 17.0734 24.655C16.8784 24.645 16.6884 24.65 16.5084 24.67L15.7284 22.705H17.2084C17.5534 22.705 17.8334 22.425 17.8334 22.08C17.8334 21.735 17.5534 21.455 17.2084 21.455H15.2335L14.9283 20.68C14.4733 19.535 15.0034 18.235 16.1334 17.74L21.4083 15.405Z" fill="black"/>
<path fill-rule="evenodd" clip-rule="evenodd" d="M16.4483 14.7701C16.5633 13.4801 17.6433 12.4951 18.9383 12.4951H25.0584C26.3534 12.4951 27.4334 13.4801 27.5484 14.7701L27.8284 17.8401C27.8684 18.3001 27.5333 18.7051 27.0733 18.7451C26.6133 18.7851 26.2083 18.4501 26.1683 17.9901L25.8882 14.9201C25.8482 14.4901 25.4884 14.1601 25.0584 14.1601H18.9383C18.5083 14.1601 18.1485 14.4901 18.1085 14.9201L17.8284 17.9901C17.7884 18.4501 17.3834 18.7851 16.9234 18.7451C16.4634 18.7051 16.1283 18.3001 16.1683 17.8401L16.4483 14.7701Z" fill="black"/>
<path fill-rule="evenodd" clip-rule="evenodd" d="M21.998 10.8301C22.458 10.8301 22.833 11.2051 22.833 11.6651V13.3301C22.833 13.7901 22.458 14.1651 21.998 14.1651C21.538 14.1651 21.1631 13.7901 21.1631 13.3301V11.6651C21.1631 11.2051 21.538 10.8301 21.998 10.8301Z" fill="black"/>
<path fill-rule="evenodd" clip-rule="evenodd" d="M29.638 27.49C29.638 27.49 29.6832 27.455 29.7232 27.415C30.0382 27.08 30.5681 27.065 30.9031 27.38C31.2381 27.695 31.253 28.22 30.938 28.56C30.653 28.865 30.3031 29.09 29.8831 29.155C29.4681 29.215 29.103 29.1 28.823 28.955C28.548 28.815 28.3081 28.62 28.1131 28.45C28.0131 28.365 27.883 28.245 27.763 28.135C27.678 28.06 27.6031 27.99 27.5481 27.94C27.1581 27.59 26.9731 27.51 26.8831 27.505C26.8831 27.505 26.8332 27.505 26.7432 27.565C26.6332 27.64 26.4681 27.8 26.2581 28.12H26.253C26.008 28.49 25.703 28.8 25.313 28.96C24.898 29.135 24.4931 29.1 24.1531 28.985C23.8381 28.88 23.563 28.695 23.343 28.535C23.188 28.42 23.0231 28.28 22.8731 28.16C22.8231 28.115 22.7682 28.075 22.7232 28.035C22.2932 27.685 22.0681 27.565 21.9231 27.555H21.918C21.918 27.555 21.673 27.53 21.253 28.155C21.028 28.505 20.728 28.8 20.323 28.945C19.913 29.095 19.523 29.04 19.208 28.935C18.908 28.83 18.638 28.665 18.418 28.51C18.268 28.41 18.1082 28.29 17.9632 28.18C17.8982 28.13 17.833 28.08 17.773 28.04C17.328 27.715 17.073 27.585 16.898 27.575C16.848 27.575 16.628 27.56 16.263 28.12H16.2581C15.8931 28.67 15.3431 29.155 14.6131 29.155C13.8831 29.155 13.3282 28.67 12.9732 28.12C12.7182 27.735 12.8282 27.22 13.2132 26.965C13.5982 26.715 14.1182 26.82 14.3682 27.21C14.4882 27.395 14.5731 27.46 14.6131 27.48C14.6531 27.46 14.7432 27.395 14.8682 27.205C15.4332 26.345 16.143 25.86 17.003 25.91C17.733 25.955 18.358 26.395 18.763 26.695C18.853 26.76 18.9331 26.82 19.0081 26.875C19.1331 26.97 19.2482 27.055 19.3682 27.135C19.5532 27.26 19.6731 27.33 19.7581 27.355C19.7631 27.355 19.768 27.355 19.773 27.355C19.793 27.335 19.8231 27.295 19.8631 27.235C20.4481 26.35 21.1631 25.825 22.0381 25.885C22.7831 25.94 23.398 26.43 23.773 26.735C23.848 26.795 23.9132 26.85 23.9732 26.9C24.1082 27.01 24.223 27.105 24.343 27.195C24.513 27.325 24.623 27.38 24.688 27.405C24.718 27.38 24.7781 27.325 24.8631 27.2C25.4181 26.355 26.098 25.795 26.958 25.835C27.708 25.87 28.298 26.37 28.658 26.69C28.773 26.795 28.8581 26.87 28.9331 26.945C29.0181 27.025 29.098 27.095 29.208 27.19C29.373 27.34 29.4982 27.425 29.5882 27.475C29.6132 27.485 29.628 27.495 29.638 27.5V27.49Z" fill="black"/>
</g>
</g>
<rect x="9" y="7" width="26" height="26" rx="3" stroke="#2B353A" stroke-width="2"/>
</g>
<defs>
<filter id="filter0_d_654_10237" x="0" y="0" width="44" height="44" filterUnits="userSpaceOnUse" color-interpolation-filters="sRGB">
<feFlood flood-opacity="0" result="BackgroundImageFix"/>
<feColorMatrix in="SourceAlpha" type="matrix" values="0 0 0 0 0 0 0 0 0 0 0 0 0 0 0 0 0 0 127 0" result="hardAlpha"/>
<feOffset dy="2"/>
<feGaussianBlur stdDeviation="4"/>
<feColorMatrix type="matrix" values="0 0 0 0 0 0 0 0 0 0 0 0 0 0 0 0 0 0 0.16 0"/>
<feBlend mode="normal" in2="BackgroundImageFix" result="effect1_dropShadow_654_10237"/>
<feBlend mode="normal" in="SourceGraphic" in2="effect1_dropShadow_654_10237" result="shape"/>
</filter>
<clipPath id="clip0_654_10237">
<rect x="8" y="6" width="28" height="28" rx="4" fill="white"/>
</clipPath>
<clipPath id="clip1_654_10237">
<rect width="20" height="20" fill="white" transform="translate(12 10)"/>
</clipPath>
</defs>
</svg>
