<svg width="60" height="65" viewBox="0 0 60 65" fill="none" xmlns="http://www.w3.org/2000/svg">
<g filter="url(#filter0_d_8318_8362)">
<mask id="path-1-inside-1_8318_8362" fill="white">
<path fill-rule="evenodd" clip-rule="evenodd" d="M16 8C11.5817 8 8 11.5817 8 16V29.7577V44C8 48.4183 11.5817 52 16 52H19.0486C22.0393 52 24.9778 53.0638 27.0226 55.2462C27.2503 55.4893 27.4744 55.7343 27.6944 55.9815C28.879 57.312 31.1727 57.3473 32.384 56.0382C32.6457 55.7553 32.9126 55.4746 33.184 55.1957C35.2608 53.0621 38.1772 52 41.1547 52H44C48.4183 52 52 48.4183 52 44V29.7577V16C52 11.5817 48.4183 8 44 8H16Z"/>
</mask>
<path fill-rule="evenodd" clip-rule="evenodd" d="M16 8C11.5817 8 8 11.5817 8 16V29.7577V44C8 48.4183 11.5817 52 16 52H19.0486C22.0393 52 24.9778 53.0638 27.0226 55.2462C27.2503 55.4893 27.4744 55.7343 27.6944 55.9815C28.879 57.312 31.1727 57.3473 32.384 56.0382C32.6457 55.7553 32.9126 55.4746 33.184 55.1957C35.2608 53.0621 38.1772 52 41.1547 52H44C48.4183 52 52 48.4183 52 44V29.7577V16C52 11.5817 48.4183 8 44 8H16Z" fill="#99D9E5"/>
<path d="M27.6944 55.9815L26.2005 57.3112L26.2006 57.3114L27.6944 55.9815ZM32.384 56.0382L33.852 57.3965L33.8521 57.3964L32.384 56.0382ZM27.0226 55.2462L25.5631 56.6137L27.0226 55.2462ZM8 16H10C10 12.6863 12.6863 10 16 10V8V6C10.4772 6 6 10.4772 6 16H8ZM8 29.7577H10V16H8H6V29.7577H8ZM8 44H10V29.7577H8H6V44H8ZM16 52V50C12.6863 50 10 47.3137 10 44H8H6C6 49.5228 10.4772 54 16 54V52ZM19.0486 52V50H16V52V54H19.0486V52ZM27.0226 55.2462L25.5631 56.6137C25.7799 56.8451 25.9925 57.0776 26.2005 57.3112L27.6944 55.9815L29.1883 54.6517C28.9563 54.3911 28.7207 54.1335 28.4821 53.8788L27.0226 55.2462ZM27.6944 55.9815L26.2006 57.3114C28.1611 59.5134 31.8291 59.5827 33.852 57.3965L32.384 56.0382L30.916 54.6799C30.5164 55.1118 29.597 55.1107 29.1882 54.6516L27.6944 55.9815ZM32.384 56.0382L33.8521 57.3964C34.1015 57.1269 34.3567 56.8584 34.6172 56.5907L33.184 55.1957L31.7509 53.8008C31.4686 54.0907 31.19 54.3837 30.9159 54.68L32.384 56.0382ZM44 52V50H41.1547V52V54H44V52ZM52 44H50C50 47.3137 47.3137 50 44 50V52V54C49.5228 54 54 49.5228 54 44H52ZM52 29.7577H50V44H52H54V29.7577H52ZM52 16H50V29.7577H52H54V16H52ZM44 8V10C47.3137 10 50 12.6863 50 16H52H54C54 10.4772 49.5228 6 44 6V8ZM16 8V10H44V8V6H16V8ZM33.184 55.1957L34.6172 56.5907C36.2654 54.8974 38.6375 54 41.1547 54V52V50C37.717 50 34.2562 51.2268 31.7509 53.8008L33.184 55.1957ZM19.0486 52V54C21.5852 54 23.9591 54.9017 25.5631 56.6137L27.0226 55.2462L28.4821 53.8788C25.9964 51.2258 22.4933 50 19.0486 50V52Z" fill="black" mask="url(#path-1-inside-1_8318_8362)"/>
<path fill-rule="evenodd" clip-rule="evenodd" d="M29.1719 23.5661C29.6969 23.3351 30.2992 23.3351 30.8242 23.5661L38.2162 26.8351C39.7982 27.5351 40.54 29.3481 39.903 30.9511L39.4761 32.0361C39.4761 32.0361 39.4342 32.0361 39.4132 32.0361H36.6969C36.2139 32.0361 35.8219 32.4281 35.8219 32.9111C35.8219 33.3941 36.2139 33.7861 36.6969 33.7861H38.7829L37.7049 36.5021C37.4879 36.4531 37.2569 36.4251 37.0189 36.4181C35.4999 36.3551 34.331 37.0551 33.456 37.9651C32.896 37.5101 31.7129 36.6071 30.1799 36.4951C28.6539 36.3901 27.4359 37.0411 26.5189 37.9651L26.47 37.9301C25.924 37.5241 24.678 36.6141 23.103 36.5161C22.83 36.5021 22.5641 36.5091 22.3121 36.5371L21.22 33.7861H23.292C23.775 33.7861 24.167 33.3941 24.167 32.9111C24.167 32.4281 23.775 32.0361 23.292 32.0361H20.5272L20.1 30.9511C19.463 29.3481 20.2051 27.5281 21.7871 26.8351L29.1719 23.5661Z" fill="black"/>
<path fill-rule="evenodd" clip-rule="evenodd" d="M22.2279 22.6772C22.3889 20.8712 23.9009 19.4922 25.7139 19.4922H34.2821C36.0951 19.4922 37.6071 20.8712 37.7681 22.6772L38.1601 26.9752C38.2161 27.6192 37.7469 28.1862 37.1029 28.2422C36.4589 28.2982 35.8919 27.8292 35.8359 27.1852L35.4438 22.8872C35.3878 22.2852 34.8841 21.8232 34.2821 21.8232H25.7139C25.1119 21.8232 24.6081 22.2852 24.5521 22.8872L24.1601 27.1852C24.1041 27.8292 23.5371 28.2982 22.8931 28.2422C22.2491 28.1862 21.7799 27.6192 21.8359 26.9752L22.2279 22.6772Z" fill="black"/>
<path fill-rule="evenodd" clip-rule="evenodd" d="M29.9976 17.1612C30.6416 17.1612 31.1665 17.6862 31.1665 18.3302V20.6612C31.1665 21.3052 30.6416 21.8302 29.9976 21.8302C29.3536 21.8302 28.8286 21.3052 28.8286 20.6612V18.3302C28.8286 17.6862 29.3536 17.1612 29.9976 17.1612Z" fill="black"/>
<path fill-rule="evenodd" clip-rule="evenodd" d="M40.6934 40.4851C40.6934 40.4851 40.7567 40.4361 40.8127 40.3801C41.2537 39.9111 41.9956 39.8901 42.4646 40.3311C42.9336 40.7721 42.9545 41.5071 42.5135 41.9831C42.1145 42.4101 41.6246 42.7251 41.0366 42.8161C40.4556 42.9001 39.9445 42.7391 39.5525 42.5361C39.1675 42.3401 38.8316 42.0671 38.5586 41.8291C38.4186 41.7101 38.2364 41.5421 38.0684 41.3881C37.9494 41.2831 37.8447 41.1851 37.7677 41.1151C37.2217 40.6251 36.9626 40.5131 36.8366 40.5061C36.8366 40.5061 36.7668 40.5061 36.6408 40.5901C36.4868 40.6951 36.2556 40.9191 35.9616 41.3671H35.9544C35.6114 41.8851 35.1845 42.3191 34.6385 42.5431C34.0575 42.7881 33.4906 42.7391 33.0146 42.5781C32.5736 42.4311 32.1886 42.1721 31.8806 41.9481C31.6636 41.7871 31.4326 41.5911 31.2226 41.4231C31.1526 41.3601 31.0757 41.3041 31.0127 41.2481C30.4107 40.7581 30.0957 40.5901 29.8927 40.5761H29.8855C29.8855 40.5761 29.5424 40.5411 28.9544 41.4161C28.6394 41.9061 28.2195 42.3191 27.6525 42.5221C27.0785 42.7321 26.5325 42.6551 26.0915 42.5081C25.6715 42.3611 25.2935 42.1301 24.9855 41.9131C24.7755 41.7731 24.5517 41.6051 24.3487 41.4511C24.2577 41.3811 24.1665 41.3111 24.0825 41.2551C23.4595 40.8001 23.1025 40.6181 22.8575 40.6041C22.7875 40.6041 22.4794 40.5831 21.9684 41.3671H21.9616C21.4506 42.1371 20.6806 42.8161 19.6586 42.8161C18.6366 42.8161 17.8597 42.1371 17.3627 41.3671C17.0057 40.8281 17.1597 40.1071 17.6987 39.7501C18.2377 39.4001 18.9658 39.5471 19.3158 40.0931C19.4838 40.3521 19.6026 40.4431 19.6586 40.4711C19.7146 40.4431 19.8408 40.3521 20.0158 40.0861C20.8068 38.8821 21.8004 38.2031 23.0044 38.2731C24.0264 38.3361 24.9014 38.9521 25.4684 39.3721C25.5944 39.4631 25.7066 39.5471 25.8116 39.6241C25.9866 39.7571 26.1478 39.8761 26.3158 39.9881C26.5748 40.1631 26.7426 40.2611 26.8616 40.2961C26.8686 40.2961 26.8755 40.2961 26.8825 40.2961C26.9105 40.2681 26.9526 40.2121 27.0086 40.1281C27.8276 38.8891 28.8287 38.1541 30.0537 38.2381C31.0967 38.3151 31.9575 39.0011 32.4825 39.4281C32.5875 39.5121 32.6787 39.5891 32.7627 39.6591C32.9517 39.8131 33.1126 39.9461 33.2806 40.0721C33.5186 40.2541 33.6725 40.3311 33.7635 40.3661C33.8055 40.3311 33.8896 40.2541 34.0086 40.0791C34.7856 38.8961 35.7375 38.1121 36.9415 38.1681C37.9915 38.2171 38.8175 38.9171 39.3215 39.3651C39.4825 39.5121 39.6017 39.6171 39.7067 39.7221C39.8257 39.8341 39.9375 39.9321 40.0915 40.0651C40.3225 40.2751 40.4977 40.3941 40.6237 40.4641C40.6587 40.4781 40.6794 40.4921 40.6934 40.4991V40.4851Z" fill="black"/>
</g>
<defs>
<filter id="filter0_d_8318_8362" x="0" y="0" width="60" height="65" filterUnits="userSpaceOnUse" color-interpolation-filters="sRGB">
<feFlood flood-opacity="0" result="BackgroundImageFix"/>
<feColorMatrix in="SourceAlpha" type="matrix" values="0 0 0 0 0 0 0 0 0 0 0 0 0 0 0 0 0 0 127 0" result="hardAlpha"/>
<feOffset/>
<feGaussianBlur stdDeviation="4"/>
<feColorMatrix type="matrix" values="0 0 0 0 0 0 0 0 0 0 0 0 0 0 0 0 0 0 0.23 0"/>
<feBlend mode="normal" in2="BackgroundImageFix" result="effect1_dropShadow_8318_8362"/>
<feBlend mode="normal" in="SourceGraphic" in2="effect1_dropShadow_8318_8362" result="shape"/>
</filter>
</defs>
</svg>
