<svg width="44" height="44" viewBox="0 0 44 44" fill="none" xmlns="http://www.w3.org/2000/svg">
<g filter="url(#filter0_d_654_10227)">
<g clip-path="url(#clip0_654_10227)">
<rect x="8" y="6" width="28" height="28" rx="4" fill="#94C20A"/>
<path fill-rule="evenodd" clip-rule="evenodd" d="M13 16.25C13 15.4216 13.6716 14.75 14.5 14.75H27C29.4853 14.75 31.5 16.7647 31.5 19.25V23.25C31.5 24.0784 30.8284 24.75 30 24.75C30 23.0931 28.6569 21.75 27 21.75C25.3431 21.75 24 23.0931 24 24.75H20.5C20.5 23.0931 19.1569 21.75 17.5 21.75C15.8431 21.75 14.5 23.0931 14.5 24.75C13.6716 24.75 13 24.0784 13 23.25V16.25ZM14.5 16.75C14.5 16.4739 14.7239 16.25 15 16.25H16.4979C16.774 16.25 16.9979 16.4739 16.9979 16.75V19.25C16.9979 19.5261 16.774 19.75 16.4979 19.75H15C14.75 19.75 14.5 19.5 14.5 19.25V16.75ZM18.5054 16.25C18.2293 16.25 18.0054 16.4739 18.0054 16.75L18 19.25C18 19.5 18.25 19.75 18.5 19.75H20.5054C20.7816 19.75 21.0054 19.5261 21.0054 19.25V16.75C21.0054 16.4739 20.7816 16.25 20.5054 16.25H18.5054ZM22.0129 16.75C22.0129 16.4739 22.2368 16.25 22.5129 16.25H24.5129C24.7891 16.25 25.0129 16.4739 25.0129 16.75V19.25C25.0129 19.5261 24.7891 19.75 24.5129 19.75H23.0129C22.4607 19.75 22 19.8023 22 19.25L22.0129 16.75ZM26.5204 16.25C26.2443 16.25 26.0204 16.4739 26.0204 16.75V19.25C26.0204 19.5261 26.2443 19.75 26.5204 19.75H29.5204C29.7966 19.75 30.0204 19.5261 30.0204 19.25C30.0204 17.5931 28.6773 16.25 27.0204 16.25H26.5204Z" fill="black"/>
<path d="M19.5 24.75C19.5 25.8546 18.6046 26.75 17.5 26.75C16.3954 26.75 15.5 25.8546 15.5 24.75C15.5 23.6454 16.3954 22.75 17.5 22.75C18.6046 22.75 19.5 23.6454 19.5 24.75Z" fill="black"/>
<path d="M29 24.75C29 25.8546 28.1046 26.75 27 26.75C25.8954 26.75 25 25.8546 25 24.75C25 23.6454 25.8954 22.75 27 22.75C28.1046 22.75 29 23.6454 29 24.75Z" fill="black"/>
</g>
<rect x="9" y="7" width="26" height="26" rx="3" stroke="#2B353A" stroke-width="2"/>
</g>
<defs>
<filter id="filter0_d_654_10227" x="0" y="0" width="44" height="44" filterUnits="userSpaceOnUse" color-interpolation-filters="sRGB">
<feFlood flood-opacity="0" result="BackgroundImageFix"/>
<feColorMatrix in="SourceAlpha" type="matrix" values="0 0 0 0 0 0 0 0 0 0 0 0 0 0 0 0 0 0 127 0" result="hardAlpha"/>
<feOffset dy="2"/>
<feGaussianBlur stdDeviation="4"/>
<feColorMatrix type="matrix" values="0 0 0 0 0 0 0 0 0 0 0 0 0 0 0 0 0 0 0.16 0"/>
<feBlend mode="normal" in2="BackgroundImageFix" result="effect1_dropShadow_654_10227"/>
<feBlend mode="normal" in="SourceGraphic" in2="effect1_dropShadow_654_10227" result="shape"/>
</filter>
<clipPath id="clip0_654_10227">
<rect x="8" y="6" width="28" height="28" rx="4" fill="white"/>
</clipPath>
</defs>
</svg>
