<svg width="76" height="44" viewBox="0 0 76 44" fill="none" xmlns="http://www.w3.org/2000/svg">
<g filter="url(#filter0_d_8318_8377)">
<g clip-path="url(#clip0_8318_8377)">
<rect x="8" y="8" width="28" height="28" rx="4" fill="#A9D22D"/>
<path fill-rule="evenodd" clip-rule="evenodd" d="M13 18.25C13 17.4216 13.6716 16.75 14.5 16.75H27C29.4853 16.75 31.5 18.7647 31.5 21.25V25.25C31.5 26.0784 30.8284 26.75 30 26.75C30 25.0931 28.6569 23.75 27 23.75C25.3431 23.75 24 25.0931 24 26.75H20.5C20.5 25.0931 19.1569 23.75 17.5 23.75C15.8431 23.75 14.5 25.0931 14.5 26.75C13.6716 26.75 13 26.0784 13 25.25V18.25ZM14.5 18.75C14.5 18.4739 14.7239 18.25 15 18.25H16.4979C16.774 18.25 16.9979 18.4739 16.9979 18.75V21.25C16.9979 21.5261 16.774 21.75 16.4979 21.75H15C14.75 21.75 14.5 21.5 14.5 21.25V18.75ZM18.5054 18.25C18.2293 18.25 18.0054 18.4739 18.0054 18.75L18 21.25C18 21.5 18.25 21.75 18.5 21.75H20.5054C20.7816 21.75 21.0054 21.5261 21.0054 21.25V18.75C21.0054 18.4739 20.7816 18.25 20.5054 18.25H18.5054ZM22.0129 18.75C22.0129 18.4739 22.2368 18.25 22.5129 18.25H24.5129C24.7891 18.25 25.0129 18.4739 25.0129 18.75V21.25C25.0129 21.5261 24.7891 21.75 24.5129 21.75H23.0129C22.4607 21.75 22 21.8023 22 21.25L22.0129 18.75ZM26.5204 18.25C26.2443 18.25 26.0204 18.4739 26.0204 18.75V21.25C26.0204 21.5261 26.2443 21.75 26.5204 21.75H29.5204C29.7966 21.75 30.0204 21.5261 30.0204 21.25C30.0204 19.5931 28.6773 18.25 27.0204 18.25H26.5204Z" fill="black"/>
<path d="M19.5 26.75C19.5 27.8546 18.6046 28.75 17.5 28.75C16.3954 28.75 15.5 27.8546 15.5 26.75C15.5 25.6454 16.3954 24.75 17.5 24.75C18.6046 24.75 19.5 25.6454 19.5 26.75Z" fill="black"/>
<path d="M29 26.75C29 27.8546 28.1046 28.75 27 28.75C25.8954 28.75 25 27.8546 25 26.75C25 25.6454 25.8954 24.75 27 24.75C28.1046 24.75 29 25.6454 29 26.75Z" fill="black"/>
</g>
<rect x="9" y="9" width="26" height="26" rx="3" stroke="black" stroke-width="2"/>
<g clip-path="url(#clip1_8318_8377)">
<rect x="40" y="8" width="28" height="28" rx="4" fill="#A9D22D"/>
<path fill-rule="evenodd" clip-rule="evenodd" d="M45 19.375C45 18.5466 45.6716 17.875 46.5 17.875H59C61.4853 17.875 63.5 19.8897 63.5 22.375V25.375C63.5 26.2034 62.8318 26.875 62.0034 26.875C57.1152 26.875 47.845 26.875 46.5 26.875C45.6716 26.875 45 26.2034 45 25.375V19.375ZM46.5 19.875C46.5 19.5989 46.7239 19.375 47 19.375H48.4979C48.774 19.375 48.9979 19.5989 48.9979 19.875V22.375C48.9979 22.6511 48.774 22.875 48.4979 22.875H47C46.75 22.875 46.5 22.625 46.5 22.375V19.875ZM50.5054 19.375C50.2293 19.375 50.0054 19.5989 50.0054 19.875L50 22.375C50 22.625 50.25 22.875 50.5 22.875H52.5054C52.7816 22.875 53.0054 22.6511 53.0054 22.375V19.875C53.0054 19.5989 52.7816 19.375 52.5054 19.375H50.5054ZM54.0129 19.875C54.0129 19.5989 54.2368 19.375 54.5129 19.375H56.5129C56.7891 19.375 57.0129 19.5989 57.0129 19.875V22.375C57.0129 22.6511 56.7891 22.875 56.5129 22.875H55.0129C54.4607 22.875 54 22.9273 54 22.375L54.0129 19.875ZM58.5204 19.375C58.2443 19.375 58.0204 19.5989 58.0204 19.875V22.375C58.0204 22.6511 58.2443 22.875 58.5204 22.875H61.5204C61.7966 22.875 62.0204 22.6511 62.0204 22.375C62.0204 20.7181 60.6773 19.375 59.0204 19.375H58.5204Z" fill="black"/>
<path fill-rule="evenodd" clip-rule="evenodd" d="M45.375 28.375C45.375 28.0298 45.6548 27.75 46 27.75L62.5 27.75C62.8452 27.75 63.125 28.0298 63.125 28.375C63.125 28.7202 62.8452 29 62.5 29L46 29C45.6548 29 45.375 28.7202 45.375 28.375Z" fill="black"/>
<path fill-rule="evenodd" clip-rule="evenodd" d="M51.375 15.875C51.375 15.5298 51.6548 15.25 52 15.25H56C56.2468 15.25 56.4705 15.3953 56.5709 15.6207C56.6714 15.8462 56.6297 16.1096 56.4646 16.2931L54.2146 18.7931C53.9836 19.0497 53.5885 19.0705 53.3319 18.8396C53.0753 18.6086 53.0545 18.2135 53.2854 17.9569L54.5966 16.5H52C51.6548 16.5 51.375 16.2202 51.375 15.875Z" fill="black"/>
</g>
<rect x="41" y="9" width="26" height="26" rx="3" stroke="black" stroke-width="2"/>
</g>
<defs>
<filter id="filter0_d_8318_8377" x="0" y="0" width="76" height="44" filterUnits="userSpaceOnUse" color-interpolation-filters="sRGB">
<feFlood flood-opacity="0" result="BackgroundImageFix"/>
<feColorMatrix in="SourceAlpha" type="matrix" values="0 0 0 0 0 0 0 0 0 0 0 0 0 0 0 0 0 0 127 0" result="hardAlpha"/>
<feOffset/>
<feGaussianBlur stdDeviation="4"/>
<feColorMatrix type="matrix" values="0 0 0 0 0 0 0 0 0 0 0 0 0 0 0 0 0 0 0.23 0"/>
<feBlend mode="normal" in2="BackgroundImageFix" result="effect1_dropShadow_8318_8377"/>
<feBlend mode="normal" in="SourceGraphic" in2="effect1_dropShadow_8318_8377" result="shape"/>
</filter>
<clipPath id="clip0_8318_8377">
<rect x="8" y="8" width="28" height="28" rx="4" fill="white"/>
</clipPath>
<clipPath id="clip1_8318_8377">
<rect x="40" y="8" width="28" height="28" rx="4" fill="white"/>
</clipPath>
</defs>
</svg>
