<svg width="44" height="44" viewBox="0 0 44 44" fill="none" xmlns="http://www.w3.org/2000/svg">
<g filter="url(#filter0_d_8318_8333)">
<g clip-path="url(#clip0_8318_8333)">
<rect x="8" y="8" width="28" height="28" rx="4" fill="#8F9CA3"/>
<path fill-rule="evenodd" clip-rule="evenodd" d="M23.6648 15.5277C25.0018 13.6563 27.7258 13.2768 29.4668 14.3212C29.5548 14.374 29.6283 14.4476 29.6812 14.5356C30.7383 16.2972 30.2729 18.6417 28.7015 19.9711L27.4794 21.005L28.6156 25.3217C28.8239 26.1132 28.5961 26.9557 28.0173 27.5344L26.9202 28.6313C26.7867 28.7647 26.6001 28.8307 26.4124 28.8108C26.2248 28.791 26.0561 28.6873 25.9536 28.5289L23.1139 24.1412L21.5023 25.7525L21.7655 28.1203C21.7864 28.309 21.7205 28.4971 21.5862 28.6313L20.4009 29.8164C20.2588 29.9584 20.0571 30.0235 19.8589 29.9913C19.6606 29.9592 19.4898 29.8337 19.4 29.654L17.7152 26.2851L14.3455 24.6006C14.1658 24.5107 14.0403 24.34 14.0081 24.1417C13.9759 23.9433 14.041 23.7416 14.1831 23.5996L15.3684 22.4145C15.5027 22.2802 15.6907 22.2143 15.8793 22.2353L18.2478 22.4984L19.8592 20.8873L15.4708 18.0484C15.3124 17.9458 15.2087 17.7772 15.1888 17.5895C15.1689 17.4017 15.2349 17.2151 15.3684 17.0816L16.4656 15.9847C17.0444 15.406 17.887 15.1783 18.6785 15.3865L22.9607 16.5132L23.6648 15.5277Z" fill="black"/>
</g>
<rect x="9" y="9" width="26" height="26" rx="3" stroke="black" stroke-width="2"/>
</g>
<defs>
<filter id="filter0_d_8318_8333" x="0" y="0" width="44" height="44" filterUnits="userSpaceOnUse" color-interpolation-filters="sRGB">
<feFlood flood-opacity="0" result="BackgroundImageFix"/>
<feColorMatrix in="SourceAlpha" type="matrix" values="0 0 0 0 0 0 0 0 0 0 0 0 0 0 0 0 0 0 127 0" result="hardAlpha"/>
<feOffset/>
<feGaussianBlur stdDeviation="4"/>
<feColorMatrix type="matrix" values="0 0 0 0 0 0 0 0 0 0 0 0 0 0 0 0 0 0 0.23 0"/>
<feBlend mode="normal" in2="BackgroundImageFix" result="effect1_dropShadow_8318_8333"/>
<feBlend mode="normal" in="SourceGraphic" in2="effect1_dropShadow_8318_8333" result="shape"/>
</filter>
<clipPath id="clip0_8318_8333">
<rect x="8" y="8" width="28" height="28" rx="4" fill="white"/>
</clipPath>
</defs>
</svg>
