<svg width="44" height="44" viewBox="0 0 44 44" fill="none" xmlns="http://www.w3.org/2000/svg">
<g filter="url(#filter0_d_870_8067)">
<g clip-path="url(#clip0_870_8067)">
<rect x="8" y="6" width="28" height="28" rx="4" fill="#8F9CA3"/>
<path fill-rule="evenodd" clip-rule="evenodd" d="M21.6273 11.754C21.8618 11.6367 22.138 11.6367 22.3726 11.754L30.7059 15.9207C30.9883 16.0618 31.1666 16.3504 31.1666 16.666V27.4993C31.1666 27.9596 30.7935 28.3327 30.3333 28.3327C29.873 28.3327 29.4999 27.9596 29.4999 27.4993V17.181L21.9999 13.431L14.4999 17.181V27.4993C14.4999 27.9596 14.1268 28.3327 13.6666 28.3327C13.2064 28.3327 12.8333 27.9596 12.8333 27.4993V16.666C12.8333 16.3504 13.0116 16.0618 13.2939 15.9207L21.6273 11.754Z" fill="black"/>
<path fill-rule="evenodd" clip-rule="evenodd" d="M18.6666 24.9993C19.1268 24.9993 19.4999 25.3724 19.4999 25.8327V27.4993C19.4999 27.9596 19.1268 28.3327 18.6666 28.3327C18.2064 28.3327 17.8333 27.9596 17.8333 27.4993V25.8327C17.8333 25.3724 18.2064 24.9993 18.6666 24.9993ZM25.3333 24.9993C25.7935 24.9993 26.1666 25.3724 26.1666 25.8327V27.4993C26.1666 27.9596 25.7935 28.3327 25.3333 28.3327C24.873 28.3327 24.4999 27.9596 24.4999 27.4993V25.8327C24.4999 25.3724 24.873 24.9993 25.3333 24.9993Z" fill="black"/>
<path fill-rule="evenodd" clip-rule="evenodd" d="M20.3848 19.166C20.0024 19.166 19.669 19.4263 19.5763 19.7973L19.0586 21.8681C18.9469 22.3146 18.4945 22.5861 18.048 22.4744C17.6015 22.3629 17.33 21.9104 17.4417 21.4639L17.9594 19.393C18.2376 18.2801 19.2376 17.4993 20.3848 17.4993H23.6155C24.7627 17.4993 25.7626 18.2801 26.0408 19.393L26.5586 21.4639C26.6702 21.9104 26.3988 22.3629 25.9523 22.4744C25.5058 22.5861 25.0533 22.3146 24.9417 21.8681L24.4239 19.7973C24.3312 19.4263 23.9979 19.166 23.6155 19.166H20.3848Z" fill="black"/>
<path fill-rule="evenodd" clip-rule="evenodd" d="M18.6666 20.8327C17.2859 20.8327 16.1666 21.9519 16.1666 23.3327V24.166C16.1666 25.5468 17.2859 26.666 18.6666 26.666H25.3333C26.714 26.666 27.8333 25.5468 27.8333 24.166V23.3327C27.8333 21.9519 26.714 20.8327 25.3333 20.8327H18.6666ZM20.3333 23.7493C20.3333 23.2891 19.9602 22.916 19.4999 22.916C19.0397 22.916 18.6666 23.2891 18.6666 23.7493V23.7577C18.6666 24.2179 19.0397 24.591 19.4999 24.591C19.9602 24.591 20.3333 24.2179 20.3333 23.7577V23.7493ZM25.3333 23.7493C25.3333 23.2891 24.9602 22.916 24.4999 22.916C24.0397 22.916 23.6666 23.2891 23.6666 23.7493V23.7577C23.6666 24.2179 24.0397 24.591 24.4999 24.591C24.9602 24.591 25.3333 24.2179 25.3333 23.7577V23.7493Z" fill="black"/>
</g>
<rect x="9" y="7" width="26" height="26" rx="3" stroke="#2B353A" stroke-width="2"/>
</g>
<defs>
<filter id="filter0_d_870_8067" x="0" y="0" width="44" height="44" filterUnits="userSpaceOnUse" color-interpolation-filters="sRGB">
<feFlood flood-opacity="0" result="BackgroundImageFix"/>
<feColorMatrix in="SourceAlpha" type="matrix" values="0 0 0 0 0 0 0 0 0 0 0 0 0 0 0 0 0 0 127 0" result="hardAlpha"/>
<feOffset dy="2"/>
<feGaussianBlur stdDeviation="4"/>
<feColorMatrix type="matrix" values="0 0 0 0 0 0 0 0 0 0 0 0 0 0 0 0 0 0 0.16 0"/>
<feBlend mode="normal" in2="BackgroundImageFix" result="effect1_dropShadow_870_8067"/>
<feBlend mode="normal" in="SourceGraphic" in2="effect1_dropShadow_870_8067" result="shape"/>
</filter>
<clipPath id="clip0_870_8067">
<rect x="8" y="6" width="28" height="28" rx="4" fill="white"/>
</clipPath>
</defs>
</svg>
