<svg width="102" height="65" viewBox="0 0 102 65" fill="none" xmlns="http://www.w3.org/2000/svg">
<g filter="url(#filter0_d_654_10305)">
<mask id="path-1-inside-1_654_10305" fill="white">
<path fill-rule="evenodd" clip-rule="evenodd" d="M16 6C11.5817 6 8 9.58172 8 14V42C8 46.4183 11.5817 50 16 50H40.0486C43.0393 50 45.9778 51.0638 48.0226 53.2462C48.2503 53.4893 48.4744 53.7343 48.6944 53.9815C49.879 55.312 52.1727 55.3473 53.384 54.0382C53.6458 53.7553 53.9126 53.4746 54.184 53.1957C56.2608 51.0621 59.1772 50 62.1547 50H86C90.4183 50 94 46.4183 94 42V14C94 9.58172 90.4183 6 86 6H16Z"/>
</mask>
<path fill-rule="evenodd" clip-rule="evenodd" d="M16 6C11.5817 6 8 9.58172 8 14V42C8 46.4183 11.5817 50 16 50H40.0486C43.0393 50 45.9778 51.0638 48.0226 53.2462C48.2503 53.4893 48.4744 53.7343 48.6944 53.9815C49.879 55.312 52.1727 55.3473 53.384 54.0382C53.6458 53.7553 53.9126 53.4746 54.184 53.1957C56.2608 51.0621 59.1772 50 62.1547 50H86C90.4183 50 94 46.4183 94 42V14C94 9.58172 90.4183 6 86 6H16Z" fill="#2B353A"/>
<path d="M48.6944 53.9815L47.2005 55.3112L47.2006 55.3114L48.6944 53.9815ZM53.384 54.0382L54.852 55.3965L54.8521 55.3964L53.384 54.0382ZM54.184 53.1957L52.7509 51.8008L54.184 53.1957ZM48.0226 53.2462L49.4821 51.8788L48.0226 53.2462ZM10 14C10 10.6863 12.6863 8 16 8V4C10.4772 4 6 8.47715 6 14H10ZM10 42V14H6V42H10ZM16 48C12.6863 48 10 45.3137 10 42H6C6 47.5228 10.4772 52 16 52V48ZM40.0486 48H16V52H40.0486V48ZM46.5631 54.6137C46.7799 54.8451 46.9925 55.0776 47.2005 55.3112L50.1883 52.6517C49.9563 52.3911 49.7207 52.1335 49.4821 51.8788L46.5631 54.6137ZM47.2006 55.3114C49.1611 57.5134 52.8291 57.5827 54.852 55.3965L51.9161 52.6799C51.5164 53.1118 50.597 53.1107 50.1882 52.6515L47.2006 55.3114ZM54.8521 55.3964C55.1015 55.1269 55.3567 54.8584 55.6172 54.5907L52.7509 51.8008C52.4686 52.0907 52.19 52.3837 51.916 52.68L54.8521 55.3964ZM86 48H62.1547V52H86V48ZM92 42C92 45.3137 89.3137 48 86 48V52C91.5229 52 96 47.5228 96 42H92ZM92 14V42H96V14H92ZM86 8C89.3137 8 92 10.6863 92 14H96C96 8.47715 91.5229 4 86 4V8ZM16 8H86V4H16V8ZM55.6172 54.5907C57.2654 52.8974 59.6375 52 62.1547 52V48C58.717 48 55.2562 49.2268 52.7509 51.8008L55.6172 54.5907ZM40.0486 52C42.5852 52 44.9591 52.9017 46.5631 54.6137L49.4821 51.8788C46.9964 49.2258 43.4933 48 40.0486 48V52Z" fill="#2B353A" mask="url(#path-1-inside-1_654_10305)"/>
<rect x="10" y="8" width="40" height="40" rx="6" fill="#94C20A"/>
<path fill-rule="evenodd" clip-rule="evenodd" d="M17.3999 22.7504C17.3999 21.5906 18.3401 20.6504 19.4999 20.6504H36.9999C40.4793 20.6504 43.2999 23.471 43.2999 26.9504V32.5504C43.2999 33.7102 42.3597 34.6504 41.1999 34.6504C41.1999 32.3308 39.3195 30.4504 36.9999 30.4504C34.6803 30.4504 32.7999 32.3308 32.7999 34.6504H27.8999C27.8999 32.3308 26.0195 30.4504 23.6999 30.4504C21.3803 30.4504 19.4999 32.3308 19.4999 34.6504C18.3401 34.6504 17.3999 33.7102 17.3999 32.5504V22.7504ZM19.4999 23.4504C19.4999 23.0638 19.8133 22.7504 20.1999 22.7504H22.297C22.6836 22.7504 22.997 23.0638 22.997 23.4504V26.9504C22.997 27.337 22.6836 27.6504 22.297 27.6504H20.1999C19.8499 27.6504 19.4999 27.3004 19.4999 26.9504V23.4504ZM25.1075 22.7504C24.7209 22.7504 24.4075 23.0638 24.4075 23.4504L24.3999 26.9504C24.3999 27.3004 24.7499 27.6504 25.0999 27.6504H27.9075C28.2941 27.6504 28.6075 27.337 28.6075 26.9504V23.4504C28.6075 23.0638 28.2941 22.7504 27.9075 22.7504H25.1075ZM30.018 23.4504C30.018 23.0638 30.3314 22.7504 30.718 22.7504H33.518C33.9046 22.7504 34.218 23.0638 34.218 23.4504V26.9504C34.218 27.337 33.9046 27.6504 33.518 27.6504H31.418C30.6448 27.6504 29.9999 27.7236 29.9999 26.9504L30.018 23.4504ZM36.3285 22.7504C35.9419 22.7504 35.6285 23.0638 35.6285 23.4504V26.9504C35.6285 27.337 35.9419 27.6504 36.3285 27.6504H40.5285C40.9151 27.6504 41.2285 27.337 41.2285 26.9504C41.2285 24.6308 39.3481 22.7504 37.0285 22.7504H36.3285Z" fill="black"/>
<path d="M26.4999 34.6504C26.4999 36.1968 25.2463 37.4504 23.6999 37.4504C22.1535 37.4504 20.8999 36.1968 20.8999 34.6504C20.8999 33.104 22.1535 31.8504 23.6999 31.8504C25.2463 31.8504 26.4999 33.104 26.4999 34.6504Z" fill="black"/>
<path d="M39.7999 34.6504C39.7999 36.1968 38.5463 37.4504 36.9999 37.4504C35.4535 37.4504 34.1999 36.1968 34.1999 34.6504C34.1999 33.104 35.4535 31.8504 36.9999 31.8504C38.5463 31.8504 39.7999 33.104 39.7999 34.6504Z" fill="black"/>
<rect x="52" y="8" width="40" height="40" rx="6" fill="#94C20A"/>
<path fill-rule="evenodd" clip-rule="evenodd" d="M59.3999 24.3258C59.3999 23.166 60.3401 22.2258 61.4999 22.2258H78.9999C82.4793 22.2258 85.2999 25.0464 85.2999 28.5258V32.7258C85.2999 33.8856 84.3644 34.8258 83.2046 34.8258C76.3612 34.8258 63.3829 34.8258 61.4999 34.8258C60.3401 34.8258 59.3999 33.8856 59.3999 32.7258V24.3258ZM61.4999 25.0258C61.4999 24.6392 61.8133 24.3258 62.1999 24.3258H64.297C64.6836 24.3258 64.997 24.6392 64.997 25.0258V28.5258C64.997 28.9124 64.6836 29.2258 64.297 29.2258H62.1999C61.8499 29.2258 61.4999 28.8758 61.4999 28.5258V25.0258ZM67.1075 24.3258C66.7209 24.3258 66.4075 24.6392 66.4075 25.0258L66.3999 28.5258C66.3999 28.8758 66.7499 29.2258 67.0999 29.2258H69.9075C70.2941 29.2258 70.6075 28.9124 70.6075 28.5258V25.0258C70.6075 24.6392 70.2941 24.3258 69.9075 24.3258H67.1075ZM72.018 25.0258C72.018 24.6392 72.3314 24.3258 72.718 24.3258H75.518C75.9046 24.3258 76.218 24.6392 76.218 25.0258V28.5258C76.218 28.9124 75.9046 29.2258 75.518 29.2258H73.418C72.6448 29.2258 71.9999 29.299 71.9999 28.5258L72.018 25.0258ZM78.3285 24.3258C77.9419 24.3258 77.6285 24.6392 77.6285 25.0258V28.5258C77.6285 28.9124 77.9419 29.2258 78.3285 29.2258H82.5285C82.9151 29.2258 83.2285 28.9124 83.2285 28.5258C83.2285 26.2062 81.3481 24.3258 79.0285 24.3258H78.3285Z" fill="black"/>
<path fill-rule="evenodd" clip-rule="evenodd" d="M59.9249 36.9258C59.9249 36.4425 60.3167 36.0508 60.7999 36.0508L83.8999 36.0508C84.3832 36.0508 84.7749 36.4425 84.7749 36.9258C84.7749 37.409 84.3832 37.8008 83.8999 37.8008L60.7999 37.8008C60.3167 37.8008 59.9249 37.409 59.9249 36.9258Z" fill="black"/>
<path fill-rule="evenodd" clip-rule="evenodd" d="M68.3249 19.4258C68.3249 18.9425 68.7167 18.5508 69.1999 18.5508H74.7999C75.1454 18.5508 75.4586 18.7541 75.5992 19.0698C75.7398 19.3855 75.6814 19.7543 75.4503 20.0111L72.3003 23.5111C71.977 23.8703 71.4238 23.8994 71.0646 23.5762C70.7054 23.2529 70.6762 22.6996 70.9995 22.3404L72.8352 20.3008H69.1999C68.7167 20.3008 68.3249 19.909 68.3249 19.4258Z" fill="black"/>
</g>
<defs>
<filter id="filter0_d_654_10305" x="0" y="0" width="102" height="65" filterUnits="userSpaceOnUse" color-interpolation-filters="sRGB">
<feFlood flood-opacity="0" result="BackgroundImageFix"/>
<feColorMatrix in="SourceAlpha" type="matrix" values="0 0 0 0 0 0 0 0 0 0 0 0 0 0 0 0 0 0 127 0" result="hardAlpha"/>
<feOffset dy="2"/>
<feGaussianBlur stdDeviation="4"/>
<feColorMatrix type="matrix" values="0 0 0 0 0 0 0 0 0 0 0 0 0 0 0 0 0 0 0.16 0"/>
<feBlend mode="normal" in2="BackgroundImageFix" result="effect1_dropShadow_654_10305"/>
<feBlend mode="normal" in="SourceGraphic" in2="effect1_dropShadow_654_10305" result="shape"/>
</filter>
</defs>
</svg>
