<svg width="44" height="44" viewBox="0 0 44 44" fill="none" xmlns="http://www.w3.org/2000/svg">
<g filter="url(#filter0_d_654_10241)">
<g clip-path="url(#clip0_654_10241)">
<rect x="8" y="6" width="28" height="28" rx="4" fill="#8F9CA3"/>
<path fill-rule="evenodd" clip-rule="evenodd" d="M21.6275 11.754C21.8621 11.6367 22.1382 11.6367 22.3728 11.754L30.7062 15.9207C30.9885 16.0618 31.1668 16.3504 31.1668 16.666V27.4993C31.1668 27.9596 30.7937 28.3327 30.3335 28.3327C29.8732 28.3327 29.5002 27.9596 29.5002 27.4993V17.181L22.0002 13.431L14.5002 17.181V27.4993C14.5002 27.9596 14.1271 28.3327 13.6668 28.3327C13.2066 28.3327 12.8335 27.9596 12.8335 27.4993V16.666C12.8335 16.3504 13.0118 16.0618 13.2942 15.9207L21.6275 11.754Z" fill="black"/>
<path fill-rule="evenodd" clip-rule="evenodd" d="M18.6668 24.9993C19.1271 24.9993 19.5002 25.3724 19.5002 25.8327V27.4993C19.5002 27.9596 19.1271 28.3327 18.6668 28.3327C18.2066 28.3327 17.8335 27.9596 17.8335 27.4993V25.8327C17.8335 25.3724 18.2066 24.9993 18.6668 24.9993ZM25.3335 24.9993C25.7937 24.9993 26.1668 25.3724 26.1668 25.8327V27.4993C26.1668 27.9596 25.7937 28.3327 25.3335 28.3327C24.8732 28.3327 24.5002 27.9596 24.5002 27.4993V25.8327C24.5002 25.3724 24.8732 24.9993 25.3335 24.9993Z" fill="black"/>
<path fill-rule="evenodd" clip-rule="evenodd" d="M20.385 19.166C20.0026 19.166 19.6693 19.4263 19.5765 19.7973L19.0588 21.8681C18.9472 22.3146 18.4947 22.5861 18.0482 22.4744C17.6018 22.3628 17.3303 21.9104 17.4419 21.4639L17.9596 19.393C18.2379 18.2801 19.2378 17.4993 20.385 17.4993H23.6157C24.7629 17.4993 25.7628 18.2801 26.0411 19.393L26.5588 21.4639C26.6704 21.9104 26.399 22.3628 25.9525 22.4744C25.506 22.5861 25.0535 22.3146 24.9419 21.8681L24.4242 19.7973C24.3314 19.4263 23.9982 19.166 23.6157 19.166H20.385Z" fill="black"/>
<path fill-rule="evenodd" clip-rule="evenodd" d="M18.6668 20.8327C17.2861 20.8327 16.1668 21.9519 16.1668 23.3327V24.166C16.1668 25.5468 17.2861 26.666 18.6668 26.666H25.3335C26.7142 26.666 27.8335 25.5468 27.8335 24.166V23.3327C27.8335 21.9519 26.7142 20.8327 25.3335 20.8327H18.6668ZM20.3335 23.7493C20.3335 23.2891 19.9604 22.916 19.5002 22.916C19.0399 22.916 18.6668 23.2891 18.6668 23.7493V23.7577C18.6668 24.2179 19.0399 24.591 19.5002 24.591C19.9604 24.591 20.3335 24.2179 20.3335 23.7577V23.7493ZM25.3335 23.7493C25.3335 23.2891 24.9604 22.916 24.5002 22.916C24.0399 22.916 23.6668 23.2891 23.6668 23.7493V23.7577C23.6668 24.2179 24.0399 24.591 24.5002 24.591C24.9604 24.591 25.3335 24.2179 25.3335 23.7577V23.7493Z" fill="black"/>
</g>
<rect x="9" y="7" width="26" height="26" rx="3" stroke="#2B353A" stroke-width="2"/>
</g>
<defs>
<filter id="filter0_d_654_10241" x="0" y="0" width="44" height="44" filterUnits="userSpaceOnUse" color-interpolation-filters="sRGB">
<feFlood flood-opacity="0" result="BackgroundImageFix"/>
<feColorMatrix in="SourceAlpha" type="matrix" values="0 0 0 0 0 0 0 0 0 0 0 0 0 0 0 0 0 0 127 0" result="hardAlpha"/>
<feOffset dy="2"/>
<feGaussianBlur stdDeviation="4"/>
<feColorMatrix type="matrix" values="0 0 0 0 0 0 0 0 0 0 0 0 0 0 0 0 0 0 0.16 0"/>
<feBlend mode="normal" in2="BackgroundImageFix" result="effect1_dropShadow_654_10241"/>
<feBlend mode="normal" in="SourceGraphic" in2="effect1_dropShadow_654_10241" result="shape"/>
</filter>
<clipPath id="clip0_654_10241">
<rect x="8" y="6" width="28" height="28" rx="4" fill="white"/>
</clipPath>
</defs>
</svg>
