<svg width="44" height="44" viewBox="0 0 44 44" fill="none" xmlns="http://www.w3.org/2000/svg">
<g filter="url(#filter0_d_8318_8329)">
<g clip-path="url(#clip0_8318_8329)">
<rect x="8" y="6" width="28" height="28" rx="4" fill="#337FCC"/>
<g clip-path="url(#clip1_8318_8329)">
<path d="M29.6375 27.4918C29.6375 27.4918 29.6827 27.4568 29.7227 27.4168C30.0377 27.0818 30.5676 27.0668 30.9026 27.3818C31.2376 27.6968 31.2525 28.2218 30.9375 28.5618C30.6525 28.8668 30.3026 29.0918 29.8826 29.1568C29.4676 29.2168 29.1025 29.1018 28.8225 28.9568C28.5475 28.8168 28.3076 28.6218 28.1126 28.4518C28.0126 28.3668 27.8825 28.2468 27.7625 28.1368C27.6775 28.0618 27.6026 27.9918 27.5476 27.9418C27.1576 27.5918 26.9726 27.5118 26.8826 27.5068C26.8826 27.5068 26.8327 27.5068 26.7427 27.5668C26.6327 27.6418 26.4676 27.8018 26.2576 28.1218H26.2525C26.0075 28.4918 25.7025 28.8018 25.3125 28.9618C24.8975 29.1368 24.4926 29.1018 24.1526 28.9868C23.8376 28.8818 23.5626 28.6968 23.3426 28.5368C23.1876 28.4218 23.0226 28.2818 22.8726 28.1618C22.8226 28.1168 22.7677 28.0768 22.7227 28.0368C22.2927 27.6868 22.0676 27.5668 21.9226 27.5568H21.9175C21.9175 27.5568 21.6725 27.5318 21.2525 28.1568C21.0275 28.5068 20.7275 28.8018 20.3225 28.9468C19.9125 29.0968 19.5225 29.0418 19.2075 28.9368C18.9075 28.8318 18.6375 28.6668 18.4175 28.5118C18.2675 28.4118 18.1077 28.2918 17.9627 28.1818C17.8977 28.1318 17.8325 28.0818 17.7725 28.0368C17.3275 27.7118 17.0725 27.5818 16.8975 27.5718C16.8475 27.5718 16.6275 27.5568 16.2625 28.1168H16.2576C15.8926 28.6668 15.3426 29.1518 14.6126 29.1518C13.8826 29.1518 13.3277 28.6668 12.9727 28.1168C12.7177 27.7318 12.8277 27.2168 13.2127 26.9618C13.5977 26.7118 14.1177 26.8168 14.3677 27.2068C14.4877 27.3918 14.5726 27.4568 14.6126 27.4768C14.6526 27.4568 14.7427 27.3918 14.8677 27.2018C15.4327 26.3418 16.1425 25.8568 17.0025 25.9068C17.7325 25.9518 18.3575 26.3918 18.7625 26.6918C18.8525 26.7568 18.9326 26.8168 19.0076 26.8718C19.1326 26.9668 19.2477 27.0518 19.3677 27.1318C19.5527 27.2568 19.6726 27.3268 19.7576 27.3518H19.7725C19.7725 27.3518 19.8226 27.2968 19.8626 27.2368C20.4476 26.3518 21.1626 25.8268 22.0376 25.8868C22.7826 25.9418 23.3975 26.4318 23.7725 26.7368C23.8475 26.7968 23.9127 26.8518 23.9727 26.9018C24.1077 27.0118 24.2226 27.1068 24.3426 27.1968C24.5126 27.3268 24.6225 27.3818 24.6875 27.4068C24.7175 27.3818 24.7776 27.3268 24.8626 27.2018C25.4176 26.3568 26.0975 25.7968 26.9575 25.8368C27.7075 25.8718 28.2975 26.3718 28.6575 26.6918C28.7725 26.7968 28.8576 26.8718 28.9326 26.9468C29.0176 27.0268 29.0975 27.0968 29.2075 27.1918C29.3725 27.3418 29.4977 27.4268 29.5877 27.4768C29.6127 27.4868 29.6275 27.4968 29.6375 27.5018V27.4918Z" fill="black"/>
<path fill-rule="evenodd" clip-rule="evenodd" d="M16.1626 15.8318C16.1626 14.9118 16.9125 14.1668 17.8325 14.1668H22.1326C23.0776 14.1668 23.9775 14.5668 24.6125 15.2718L27.6177 18.6118C27.9227 18.9518 27.8975 19.4818 27.5525 19.7868C27.2125 20.0968 26.6874 20.0668 26.3774 19.7268L23.3726 16.3868C23.0576 16.0368 22.6076 15.8368 22.1326 15.8368H17.8325V19.1718C17.8325 19.6318 17.4576 20.0068 16.9976 20.0068C16.5376 20.0068 16.1626 19.6318 16.1626 19.1718V15.8318Z" fill="black"/>
<path fill-rule="evenodd" clip-rule="evenodd" d="M16.9976 11.662C16.9976 11.202 17.3725 10.827 17.8325 10.827H19.4976C20.4176 10.827 21.1626 11.572 21.1626 12.492V14.992C21.1626 15.452 20.7925 15.827 20.3325 15.827C19.8725 15.827 19.4976 15.452 19.4976 14.992V12.492H17.8325C17.3725 12.492 16.9976 12.117 16.9976 11.657V11.662Z" fill="black"/>
<path d="M13.6627 18.537C13.4727 18.537 13.2927 18.622 13.1727 18.772C13.0577 18.922 13.0127 19.117 13.0577 19.302L14.5426 25.627C15.1976 25.002 16.0376 24.592 17.0726 24.652C18.1976 24.722 19.1176 25.397 19.5126 25.682C20.1676 25.022 21.0326 24.557 22.1276 24.632C23.2226 24.707 24.0676 25.357 24.4676 25.682C25.0926 25.032 25.9276 24.527 27.0126 24.577C28.1076 24.627 28.9326 25.262 29.3426 25.617C29.3776 25.577 29.4076 25.532 29.4376 25.492C29.9726 24.732 30.3076 23.757 30.5226 22.842C30.7426 21.917 30.8477 20.997 30.9027 20.312C30.9277 19.967 30.9426 19.682 30.9476 19.482C30.9526 19.382 30.9526 19.222 30.9576 19.162C30.9576 18.812 30.6776 18.532 30.3326 18.532H13.6627V18.537Z" fill="black"/>
</g>
</g>
<rect x="9" y="7" width="26" height="26" rx="3" stroke="black" stroke-width="2"/>
</g>
<defs>
<filter id="filter0_d_8318_8329" x="0" y="0" width="44" height="44" filterUnits="userSpaceOnUse" color-interpolation-filters="sRGB">
<feFlood flood-opacity="0" result="BackgroundImageFix"/>
<feColorMatrix in="SourceAlpha" type="matrix" values="0 0 0 0 0 0 0 0 0 0 0 0 0 0 0 0 0 0 127 0" result="hardAlpha"/>
<feOffset dy="2"/>
<feGaussianBlur stdDeviation="4"/>
<feColorMatrix type="matrix" values="0 0 0 0 0 0 0 0 0 0 0 0 0 0 0 0 0 0 0.16 0"/>
<feBlend mode="normal" in2="BackgroundImageFix" result="effect1_dropShadow_8318_8329"/>
<feBlend mode="normal" in="SourceGraphic" in2="effect1_dropShadow_8318_8329" result="shape"/>
</filter>
<clipPath id="clip0_8318_8329">
<rect x="8" y="6" width="28" height="28" rx="4" fill="white"/>
</clipPath>
<clipPath id="clip1_8318_8329">
<rect width="20" height="20" fill="white" transform="translate(12 10)"/>
</clipPath>
</defs>
</svg>
