<svg width="76" height="44" viewBox="0 0 76 44" fill="none" xmlns="http://www.w3.org/2000/svg">
<g filter="url(#filter0_d_8318_8382)">
<g clip-path="url(#clip0_8318_8382)">
<rect x="8" y="8" width="28" height="28" rx="4" fill="#A9D22D"/>
<rect width="28" height="28" transform="translate(8 8)" fill="#CD98CD"/>
<path fill-rule="evenodd" clip-rule="evenodd" d="M18.0035 26.6551C18.3285 26.9801 18.3285 27.5101 18.0035 27.8351L15.9234 29.9201C15.5934 30.2451 15.0687 30.2451 14.7437 29.9201C14.4188 29.5951 14.4188 29.0651 14.7437 28.7401L16.8238 26.6551C17.1538 26.3301 17.6785 26.3301 18.0035 26.6551ZM25.9937 26.6551C26.3187 26.3301 26.8434 26.3301 27.1734 26.6551L29.2535 28.7401C29.5785 29.0651 29.5785 29.5951 29.2535 29.9201C28.9285 30.2451 28.4038 30.2451 28.0738 29.9201L25.9937 27.8351C25.6687 27.5101 25.6687 26.9801 25.9937 26.6551Z" fill="black"/>
<path fill-rule="evenodd" clip-rule="evenodd" d="M15.7133 16.98C16.0483 14.97 17.7887 13.5 19.8237 13.5H24.1733C26.2133 13.5 27.9486 14.97 28.2836 16.98L29.3832 23.58C29.7482 25.75 28.3435 27.89 26.0785 28.195C24.8535 28.36 23.3985 28.5 21.9985 28.5C20.5985 28.5 19.1484 28.36 17.9184 28.195C15.6584 27.89 14.2537 25.75 14.6137 23.58L15.7133 16.98ZM19.8237 15.165C18.6037 15.165 17.5583 16.05 17.3583 17.255L17.0536 19.085C17.7286 19.805 18.6134 20.275 19.5034 20.575C20.4984 20.905 21.4485 21 21.9985 21C22.5485 21 23.4986 20.905 24.4936 20.575C25.3836 20.28 26.2687 19.805 26.9487 19.085L26.6435 17.255C26.4385 16.05 25.3983 15.165 24.1733 15.165H19.8237ZM19.4985 23.495C19.0385 23.495 18.6635 23.87 18.6635 24.33C18.6635 24.79 19.0385 25.165 19.4985 25.165C19.9635 25.165 20.3334 24.79 20.3334 24.33C20.3334 23.87 19.9635 23.495 19.4985 23.495ZM24.4887 23.495C24.0287 23.495 23.6586 23.87 23.6586 24.33C23.6586 24.79 24.0287 25.165 24.4887 25.165H24.4985C24.9585 25.165 25.3334 24.79 25.3334 24.33C25.3334 23.87 24.9585 23.495 24.4985 23.495H24.4887Z" fill="black"/>
</g>
<rect x="9" y="9" width="26" height="26" rx="3" stroke="black" stroke-width="2"/>
<g clip-path="url(#clip1_8318_8382)">
<rect x="40" y="8" width="28" height="28" rx="4" fill="#A9D22D"/>
<rect x="39" y="7" width="30" height="30" stroke="black" stroke-width="2"/>
<path fill-rule="evenodd" clip-rule="evenodd" d="M45 19.375C45 18.5466 45.6716 17.875 46.5 17.875H59C61.4853 17.875 63.5 19.8897 63.5 22.375V25.375C63.5 26.2034 62.8318 26.875 62.0034 26.875C57.1152 26.875 47.845 26.875 46.5 26.875C45.6716 26.875 45 26.2034 45 25.375V19.375ZM46.5 19.875C46.5 19.5989 46.7239 19.375 47 19.375H48.4979C48.774 19.375 48.9979 19.5989 48.9979 19.875V22.375C48.9979 22.6511 48.774 22.875 48.4979 22.875H47C46.75 22.875 46.5 22.625 46.5 22.375V19.875ZM50.5054 19.375C50.2293 19.375 50.0054 19.5989 50.0054 19.875L50 22.375C50 22.625 50.25 22.875 50.5 22.875H52.5054C52.7816 22.875 53.0054 22.6511 53.0054 22.375V19.875C53.0054 19.5989 52.7816 19.375 52.5054 19.375H50.5054ZM54.0129 19.875C54.0129 19.5989 54.2368 19.375 54.5129 19.375H56.5129C56.7891 19.375 57.0129 19.5989 57.0129 19.875V22.375C57.0129 22.6511 56.7891 22.875 56.5129 22.875H55.0129C54.4607 22.875 54 22.9273 54 22.375L54.0129 19.875ZM58.5204 19.375C58.2443 19.375 58.0204 19.5989 58.0204 19.875V22.375C58.0204 22.6511 58.2443 22.875 58.5204 22.875H61.5204C61.7966 22.875 62.0204 22.6511 62.0204 22.375C62.0204 20.7181 60.6773 19.375 59.0204 19.375H58.5204Z" fill="black"/>
<path fill-rule="evenodd" clip-rule="evenodd" d="M45.375 28.375C45.375 28.0298 45.6548 27.75 46 27.75L62.5 27.75C62.8452 27.75 63.125 28.0298 63.125 28.375C63.125 28.7202 62.8452 29 62.5 29L46 29C45.6548 29 45.375 28.7202 45.375 28.375Z" fill="black"/>
<path fill-rule="evenodd" clip-rule="evenodd" d="M51.375 15.875C51.375 15.5298 51.6548 15.25 52 15.25H56C56.2468 15.25 56.4705 15.3953 56.5709 15.6207C56.6714 15.8462 56.6297 16.1096 56.4646 16.2931L54.2146 18.7931C53.9836 19.0497 53.5885 19.0705 53.3319 18.8396C53.0753 18.6086 53.0545 18.2135 53.2854 17.9569L54.5966 16.5H52C51.6548 16.5 51.375 16.2202 51.375 15.875Z" fill="black"/>
</g>
<rect x="41" y="9" width="26" height="26" rx="3" stroke="black" stroke-width="2"/>
</g>
<defs>
<filter id="filter0_d_8318_8382" x="0" y="0" width="76" height="44" filterUnits="userSpaceOnUse" color-interpolation-filters="sRGB">
<feFlood flood-opacity="0" result="BackgroundImageFix"/>
<feColorMatrix in="SourceAlpha" type="matrix" values="0 0 0 0 0 0 0 0 0 0 0 0 0 0 0 0 0 0 127 0" result="hardAlpha"/>
<feOffset/>
<feGaussianBlur stdDeviation="4"/>
<feColorMatrix type="matrix" values="0 0 0 0 0 0 0 0 0 0 0 0 0 0 0 0 0 0 0.23 0"/>
<feBlend mode="normal" in2="BackgroundImageFix" result="effect1_dropShadow_8318_8382"/>
<feBlend mode="normal" in="SourceGraphic" in2="effect1_dropShadow_8318_8382" result="shape"/>
</filter>
<clipPath id="clip0_8318_8382">
<rect x="8" y="8" width="28" height="28" rx="4" fill="white"/>
</clipPath>
<clipPath id="clip1_8318_8382">
<rect x="40" y="8" width="28" height="28" rx="4" fill="white"/>
</clipPath>
</defs>
</svg>
