<svg width="60" height="65" viewBox="0 0 60 65" fill="none" xmlns="http://www.w3.org/2000/svg">
<g filter="url(#filter0_d_654_10268)">
<mask id="path-1-inside-1_654_10268" fill="white">
<path fill-rule="evenodd" clip-rule="evenodd" d="M16 6C11.5817 6 8 9.58172 8 14V27.7577V42C8 46.4183 11.5817 50 16 50H19.0486C22.0393 50 24.9778 51.0638 27.0226 53.2462C27.2503 53.4893 27.4744 53.7343 27.6944 53.9815C28.879 55.312 31.1727 55.3473 32.384 54.0382C32.6457 53.7553 32.9126 53.4746 33.184 53.1957C35.2608 51.0621 38.1772 50 41.1547 50H44C48.4183 50 52 46.4183 52 42V27.7577V14C52 9.58172 48.4183 6 44 6H16Z"/>
</mask>
<path fill-rule="evenodd" clip-rule="evenodd" d="M16 6C11.5817 6 8 9.58172 8 14V27.7577V42C8 46.4183 11.5817 50 16 50H19.0486C22.0393 50 24.9778 51.0638 27.0226 53.2462C27.2503 53.4893 27.4744 53.7343 27.6944 53.9815C28.879 55.312 31.1727 55.3473 32.384 54.0382C32.6457 53.7553 32.9126 53.4746 33.184 53.1957C35.2608 51.0621 38.1772 50 41.1547 50H44C48.4183 50 52 46.4183 52 42V27.7577V14C52 9.58172 48.4183 6 44 6H16Z" fill="#337FCC"/>
<path d="M27.6944 53.9815L26.2005 55.3112L26.2006 55.3114L27.6944 53.9815ZM32.384 54.0382L33.852 55.3965L33.8521 55.3964L32.384 54.0382ZM27.0226 53.2462L25.5631 54.6137L27.0226 53.2462ZM10 14C10 10.6863 12.6863 8 16 8V4C10.4772 4 6 8.47715 6 14H10ZM10 27.7577V14H6V27.7577H10ZM10 42V27.7577H6V42H10ZM16 48C12.6863 48 10 45.3137 10 42H6C6 47.5228 10.4772 52 16 52V48ZM19.0486 48H16V52H19.0486V48ZM25.5631 54.6137C25.7799 54.8451 25.9925 55.0776 26.2005 55.3112L29.1883 52.6517C28.9563 52.3911 28.7207 52.1335 28.4821 51.8788L25.5631 54.6137ZM26.2006 55.3114C28.1611 57.5134 31.8291 57.5827 33.852 55.3965L30.916 52.6799C30.5164 53.1118 29.597 53.1107 29.1882 52.6515L26.2006 55.3114ZM33.8521 55.3964C34.1015 55.1269 34.3567 54.8584 34.6172 54.5907L31.7509 51.8008C31.4686 52.0907 31.19 52.3837 30.9159 52.68L33.8521 55.3964ZM44 48H41.1547V52H44V48ZM50 42C50 45.3137 47.3137 48 44 48V52C49.5228 52 54 47.5228 54 42H50ZM50 27.7577V42H54V27.7577H50ZM50 14V27.7577H54V14H50ZM44 8C47.3137 8 50 10.6863 50 14H54C54 8.47715 49.5228 4 44 4V8ZM16 8H44V4H16V8ZM34.6172 54.5907C36.2654 52.8974 38.6375 52 41.1547 52V48C37.717 48 34.2562 49.2268 31.7509 51.8008L34.6172 54.5907ZM19.0486 52C21.5852 52 23.9591 52.9017 25.5631 54.6137L28.4821 51.8788C25.9964 49.2258 22.4933 48 19.0486 48V52Z" fill="#2B353A" mask="url(#path-1-inside-1_654_10268)"/>
<path fill-rule="evenodd" clip-rule="evenodd" d="M29.1715 21.567C29.6965 21.336 30.2987 21.336 30.8237 21.567L38.2157 24.836C39.7977 25.536 40.5395 27.349 39.9025 28.952L39.4756 30.037C39.4756 30.037 39.4337 30.037 39.4127 30.037H36.6965C36.2135 30.037 35.8215 30.429 35.8215 30.912C35.8215 31.395 36.2135 31.787 36.6965 31.787H38.7824L37.7044 34.503C37.4874 34.454 37.2564 34.426 37.0184 34.419C35.4994 34.356 34.3305 35.056 33.4555 35.966C32.8955 35.511 31.7124 34.608 30.1794 34.496C28.6534 34.391 27.4354 35.042 26.5184 35.966L26.4696 35.931C25.9236 35.525 24.6775 34.615 23.1025 34.517C22.8295 34.503 22.5636 34.51 22.3116 34.538L21.2196 31.787H23.2915C23.7745 31.787 24.1665 31.395 24.1665 30.912C24.1665 30.429 23.7745 30.037 23.2915 30.037H20.5267L20.0995 28.952C19.4625 27.349 20.2046 25.529 21.7866 24.836L29.1715 21.567Z" fill="black"/>
<path fill-rule="evenodd" clip-rule="evenodd" d="M22.2274 20.6782C22.3884 18.8722 23.9004 17.4932 25.7134 17.4932H34.2816C36.0946 17.4932 37.6066 18.8722 37.7676 20.6782L38.1596 24.9762C38.2156 25.6202 37.7464 26.1872 37.1024 26.2432C36.4584 26.2992 35.8914 25.8302 35.8354 25.1862L35.4434 20.8882C35.3874 20.2862 34.8836 19.8242 34.2816 19.8242H25.7134C25.1114 19.8242 24.6077 20.2862 24.5517 20.8882L24.1596 25.1862C24.1036 25.8302 23.5366 26.2992 22.8926 26.2432C22.2486 26.1872 21.7794 25.6202 21.8354 24.9762L22.2274 20.6782Z" fill="black"/>
<path fill-rule="evenodd" clip-rule="evenodd" d="M29.9971 15.1621C30.6411 15.1621 31.166 15.6871 31.166 16.3311V18.6621C31.166 19.3061 30.6411 19.8311 29.9971 19.8311C29.3531 19.8311 28.8281 19.3061 28.8281 18.6621V16.3311C28.8281 15.6871 29.3531 15.1621 29.9971 15.1621Z" fill="black"/>
<path fill-rule="evenodd" clip-rule="evenodd" d="M40.693 38.486C40.693 38.486 40.7562 38.437 40.8122 38.381C41.2532 37.912 41.9952 37.891 42.4642 38.332C42.9331 38.773 42.954 39.508 42.513 39.984C42.114 40.411 41.6241 40.726 41.0361 40.817C40.4551 40.901 39.944 40.74 39.552 40.537C39.167 40.341 38.8311 40.068 38.5581 39.83C38.4181 39.711 38.236 39.543 38.068 39.389C37.949 39.284 37.8442 39.186 37.7672 39.116C37.2212 38.626 36.9621 38.514 36.8361 38.507C36.8361 38.507 36.7663 38.507 36.6403 38.591C36.4863 38.696 36.2551 38.92 35.9611 39.368H35.9539C35.6109 39.886 35.184 40.32 34.638 40.544C34.057 40.789 33.4902 40.74 33.0142 40.579C32.5732 40.432 32.1881 40.173 31.8801 39.949C31.6631 39.788 31.4321 39.592 31.2221 39.424C31.1521 39.361 31.0752 39.305 31.0122 39.249C30.4102 38.759 30.0952 38.591 29.8922 38.577H29.885C29.885 38.577 29.5419 38.542 28.9539 39.417C28.6389 39.907 28.219 40.32 27.652 40.523C27.078 40.733 26.5321 40.656 26.0911 40.509C25.6711 40.362 25.293 40.131 24.985 39.914C24.775 39.774 24.5512 39.606 24.3482 39.452C24.2572 39.382 24.166 39.312 24.082 39.256C23.459 38.801 23.102 38.619 22.857 38.605C22.787 38.605 22.479 38.584 21.968 39.368H21.9611C21.4501 40.138 20.6801 40.817 19.6581 40.817C18.6361 40.817 17.8592 40.138 17.3622 39.368C17.0052 38.829 17.1592 38.108 17.6982 37.751C18.2372 37.401 18.9653 37.548 19.3153 38.094C19.4833 38.353 19.6021 38.444 19.6581 38.472C19.7141 38.444 19.8403 38.353 20.0153 38.087C20.8063 36.883 21.7999 36.204 23.0039 36.274C24.0259 36.337 24.901 36.953 25.468 37.373C25.594 37.464 25.7061 37.548 25.8111 37.625C25.9861 37.758 26.1473 37.877 26.3153 37.989C26.5743 38.164 26.7421 38.262 26.8611 38.297C26.8681 38.297 26.875 38.297 26.882 38.297C26.91 38.269 26.9521 38.213 27.0081 38.129C27.8271 36.89 28.8282 36.155 30.0532 36.239C31.0962 36.316 31.957 37.002 32.482 37.429C32.587 37.513 32.6782 37.59 32.7622 37.66C32.9512 37.814 33.1121 37.947 33.2801 38.073C33.5181 38.255 33.672 38.332 33.763 38.367C33.805 38.332 33.8891 38.255 34.0081 38.08C34.7851 36.897 35.7371 36.113 36.9411 36.169C37.9911 36.218 38.817 36.918 39.321 37.366C39.482 37.513 39.6012 37.618 39.7062 37.723C39.8252 37.835 39.9371 37.933 40.0911 38.066C40.3221 38.276 40.4972 38.395 40.6232 38.465C40.6582 38.479 40.679 38.493 40.693 38.5V38.486Z" fill="black"/>
</g>
<defs>
<filter id="filter0_d_654_10268" x="0" y="0" width="60" height="65" filterUnits="userSpaceOnUse" color-interpolation-filters="sRGB">
<feFlood flood-opacity="0" result="BackgroundImageFix"/>
<feColorMatrix in="SourceAlpha" type="matrix" values="0 0 0 0 0 0 0 0 0 0 0 0 0 0 0 0 0 0 127 0" result="hardAlpha"/>
<feOffset dy="2"/>
<feGaussianBlur stdDeviation="4"/>
<feColorMatrix type="matrix" values="0 0 0 0 0 0 0 0 0 0 0 0 0 0 0 0 0 0 0.16 0"/>
<feBlend mode="normal" in2="BackgroundImageFix" result="effect1_dropShadow_654_10268"/>
<feBlend mode="normal" in="SourceGraphic" in2="effect1_dropShadow_654_10268" result="shape"/>
</filter>
</defs>
</svg>
