<svg width="102" height="65" viewBox="0 0 102 65" fill="none" xmlns="http://www.w3.org/2000/svg">
<g filter="url(#filter0_d_8318_8399)">
<mask id="path-1-inside-1_8318_8399" fill="white">
<path fill-rule="evenodd" clip-rule="evenodd" d="M16 8C11.5817 8 8 11.5817 8 16V44C8 48.4183 11.5817 52 16 52H40.0486C43.0393 52 45.9778 53.0638 48.0226 55.2462C48.2503 55.4893 48.4744 55.7343 48.6944 55.9815C49.879 57.312 52.1727 57.3473 53.384 56.0382C53.6458 55.7553 53.9126 55.4746 54.184 55.1957C56.2608 53.0621 59.1772 52 62.1547 52H86C90.4183 52 94 48.4183 94 44V16C94 11.5817 90.4183 8 86 8H16Z"/>
</mask>
<path fill-rule="evenodd" clip-rule="evenodd" d="M16 8C11.5817 8 8 11.5817 8 16V44C8 48.4183 11.5817 52 16 52H40.0486C43.0393 52 45.9778 53.0638 48.0226 55.2462C48.2503 55.4893 48.4744 55.7343 48.6944 55.9815C49.879 57.312 52.1727 57.3473 53.384 56.0382C53.6458 55.7553 53.9126 55.4746 54.184 55.1957C56.2608 53.0621 59.1772 52 62.1547 52H86C90.4183 52 94 48.4183 94 44V16C94 11.5817 90.4183 8 86 8H16Z" fill="black"/>
<path d="M48.6944 55.9815L47.2005 57.3112L47.2006 57.3114L48.6944 55.9815ZM53.384 56.0382L54.852 57.3965L54.8521 57.3964L53.384 56.0382ZM54.184 55.1957L52.7509 53.8008L54.184 55.1957ZM48.0226 55.2462L49.4821 53.8788L48.0226 55.2462ZM8 16H10C10 12.6863 12.6863 10 16 10V8V6C10.4772 6 6 10.4772 6 16H8ZM8 44H10V16H8H6V44H8ZM16 52V50C12.6863 50 10 47.3137 10 44H8H6C6 49.5228 10.4772 54 16 54V52ZM40.0486 52V50H16V52V54H40.0486V52ZM48.0226 55.2462L46.5631 56.6137C46.7799 56.8451 46.9925 57.0776 47.2005 57.3112L48.6944 55.9815L50.1883 54.6517C49.9563 54.3911 49.7207 54.1335 49.4821 53.8788L48.0226 55.2462ZM48.6944 55.9815L47.2006 57.3114C49.1611 59.5134 52.8291 59.5827 54.852 57.3965L53.384 56.0382L51.916 54.6799C51.5164 55.1118 50.597 55.1107 50.1882 54.6515L48.6944 55.9815ZM53.384 56.0382L54.8521 57.3964C55.1015 57.1269 55.3567 56.8584 55.6172 56.5907L54.184 55.1957L52.7509 53.8008C52.4686 54.0907 52.19 54.3837 51.916 54.68L53.384 56.0382ZM86 52V50H62.1547V52V54H86V52ZM94 44H92C92 47.3137 89.3137 50 86 50V52V54C91.5229 54 96 49.5228 96 44H94ZM94 16H92V44H94H96V16H94ZM86 8V10C89.3137 10 92 12.6863 92 16H94H96C96 10.4772 91.5229 6 86 6V8ZM16 8V10H86V8V6H16V8ZM54.184 55.1957L55.6172 56.5907C57.2654 54.8974 59.6375 54 62.1547 54V52V50C58.717 50 55.2562 51.2268 52.7509 53.8008L54.184 55.1957ZM40.0486 52V54C42.5852 54 44.9591 54.9017 46.5631 56.6137L48.0226 55.2462L49.4821 53.8788C46.9964 51.2258 43.4933 50 40.0486 50V52Z" fill="black" mask="url(#path-1-inside-1_8318_8399)"/>
<rect x="10" y="10" width="40" height="40" rx="6" fill="#A9D22D"/>
<path fill-rule="evenodd" clip-rule="evenodd" d="M17.4004 24.75C17.4004 23.5902 18.3406 22.65 19.5004 22.65H37.0004C40.4798 22.65 43.3004 25.4706 43.3004 28.95V34.55C43.3004 35.7098 42.3602 36.65 41.2004 36.65C41.2004 34.3304 39.32 32.45 37.0004 32.45C34.6808 32.45 32.8004 34.3304 32.8004 36.65H27.9004C27.9004 34.3304 26.02 32.45 23.7004 32.45C21.3808 32.45 19.5004 34.3304 19.5004 36.65C18.3406 36.65 17.4004 35.7098 17.4004 34.55V24.75ZM19.5004 25.45C19.5004 25.0635 19.8138 24.75 20.2004 24.75H22.2974C22.684 24.75 22.9974 25.0635 22.9974 25.45V28.95C22.9974 29.3366 22.684 29.65 22.2974 29.65H20.2004C19.8504 29.65 19.5004 29.3 19.5004 28.95V25.45ZM25.108 24.75C24.7214 24.75 24.408 25.0635 24.408 25.45L24.4004 28.95C24.4004 29.3 24.7504 29.65 25.1004 29.65H27.908C28.2946 29.65 28.608 29.3366 28.608 28.95V25.45C28.608 25.0635 28.2946 24.75 27.908 24.75H25.108ZM30.0185 25.45C30.0185 25.0635 30.3319 24.75 30.7185 24.75H33.5185C33.9051 24.75 34.2185 25.0635 34.2185 25.45V28.95C34.2185 29.3366 33.9051 29.65 33.5185 29.65H31.4185C30.6453 29.65 30.0004 29.7233 30.0004 28.95L30.0185 25.45ZM36.329 24.75C35.9424 24.75 35.629 25.0635 35.629 25.45V28.95C35.629 29.3366 35.9424 29.65 36.329 29.65H40.529C40.9156 29.65 41.229 29.3366 41.229 28.95C41.229 26.6304 39.3486 24.75 37.029 24.75H36.329Z" fill="black"/>
<path d="M26.5004 36.65C26.5004 38.1964 25.2468 39.45 23.7004 39.45C22.154 39.45 20.9004 38.1964 20.9004 36.65C20.9004 35.1036 22.154 33.85 23.7004 33.85C25.2468 33.85 26.5004 35.1036 26.5004 36.65Z" fill="black"/>
<path d="M39.8004 36.65C39.8004 38.1964 38.5468 39.45 37.0004 39.45C35.454 39.45 34.2004 38.1964 34.2004 36.65C34.2004 35.1036 35.454 33.85 37.0004 33.85C38.5468 33.85 39.8004 35.1036 39.8004 36.65Z" fill="black"/>
<rect x="52" y="10" width="40" height="40" rx="6" fill="#A9D22D"/>
<path fill-rule="evenodd" clip-rule="evenodd" d="M59.4004 26.325C59.4004 25.1652 60.3406 24.225 61.5004 24.225H79.0004C82.4798 24.225 85.3004 27.0456 85.3004 30.525V34.725C85.3004 35.8848 84.3649 36.825 83.2051 36.825C76.3616 36.825 63.3834 36.825 61.5004 36.825C60.3406 36.825 59.4004 35.8848 59.4004 34.725V26.325ZM61.5004 27.025C61.5004 26.6384 61.8138 26.325 62.2004 26.325H64.2974C64.684 26.325 64.9974 26.6384 64.9974 27.025V30.525C64.9974 30.9116 64.684 31.225 64.2974 31.225H62.2004C61.8504 31.225 61.5004 30.875 61.5004 30.525V27.025ZM67.108 26.325C66.7214 26.325 66.408 26.6384 66.408 27.025L66.4004 30.525C66.4004 30.875 66.7504 31.225 67.1004 31.225H69.908C70.2946 31.225 70.608 30.9116 70.608 30.525V27.025C70.608 26.6384 70.2946 26.325 69.908 26.325H67.108ZM72.0185 27.025C72.0185 26.6384 72.3319 26.325 72.7185 26.325H75.5185C75.9051 26.325 76.2185 26.6384 76.2185 27.025V30.525C76.2185 30.9116 75.9051 31.225 75.5185 31.225H73.4185C72.6453 31.225 72.0004 31.2982 72.0004 30.525L72.0185 27.025ZM78.329 26.325C77.9424 26.325 77.629 26.6384 77.629 27.025V30.525C77.629 30.9116 77.9424 31.225 78.329 31.225H82.529C82.9156 31.225 83.229 30.9116 83.229 30.525C83.229 28.2054 81.3486 26.325 79.029 26.325H78.329Z" fill="black"/>
<path fill-rule="evenodd" clip-rule="evenodd" d="M59.9254 38.925C59.9254 38.4417 60.3171 38.05 60.8004 38.05L83.9004 38.05C84.3836 38.05 84.7754 38.4417 84.7754 38.925C84.7754 39.4082 84.3836 39.8 83.9004 39.8L60.8004 39.8C60.3171 39.8 59.9254 39.4082 59.9254 38.925Z" fill="black"/>
<path fill-rule="evenodd" clip-rule="evenodd" d="M68.3254 21.425C68.3254 20.9417 68.7171 20.55 69.2004 20.55H74.8004C75.1459 20.55 75.4591 20.7533 75.5997 21.069C75.7403 21.3847 75.6819 21.7535 75.4508 22.0103L72.3008 25.5103C71.9775 25.8695 71.4242 25.8986 71.065 25.5754C70.7058 25.2521 70.6767 24.6988 71 24.3396L72.8357 22.3H69.2004C68.7171 22.3 68.3254 21.9082 68.3254 21.425Z" fill="black"/>
</g>
<defs>
<filter id="filter0_d_8318_8399" x="0" y="0" width="102" height="65" filterUnits="userSpaceOnUse" color-interpolation-filters="sRGB">
<feFlood flood-opacity="0" result="BackgroundImageFix"/>
<feColorMatrix in="SourceAlpha" type="matrix" values="0 0 0 0 0 0 0 0 0 0 0 0 0 0 0 0 0 0 127 0" result="hardAlpha"/>
<feOffset/>
<feGaussianBlur stdDeviation="4"/>
<feColorMatrix type="matrix" values="0 0 0 0 0 0 0 0 0 0 0 0 0 0 0 0 0 0 0.23 0"/>
<feBlend mode="normal" in2="BackgroundImageFix" result="effect1_dropShadow_8318_8399"/>
<feBlend mode="normal" in="SourceGraphic" in2="effect1_dropShadow_8318_8399" result="shape"/>
</filter>
</defs>
</svg>
