<svg width="44" height="44" viewBox="0 0 44 44" fill="none" xmlns="http://www.w3.org/2000/svg">
<g filter="url(#filter0_d_8318_8335)">
<g clip-path="url(#clip0_8318_8335)">
<rect x="8" y="8" width="28" height="28" rx="4" fill="#8F9CA3"/>
<path fill-rule="evenodd" clip-rule="evenodd" d="M21.627 13.7547C21.8616 13.6374 22.1378 13.6374 22.3723 13.7547L30.7057 17.9213C30.988 18.0625 31.1663 18.351 31.1663 18.6667V29.5C31.1663 29.9603 30.7933 30.3334 30.333 30.3334C29.8728 30.3334 29.4997 29.9603 29.4997 29.5V19.1817L21.9997 15.4317L14.4997 19.1817V29.5C14.4997 29.9603 14.1266 30.3334 13.6663 30.3334C13.2061 30.3334 12.833 29.9603 12.833 29.5V18.6667C12.833 18.351 13.0113 18.0625 13.2937 17.9213L21.627 13.7547Z" fill="black"/>
<path fill-rule="evenodd" clip-rule="evenodd" d="M18.6663 27C19.1266 27 19.4997 27.3731 19.4997 27.8334V29.5C19.4997 29.9603 19.1266 30.3334 18.6663 30.3334C18.2061 30.3334 17.833 29.9603 17.833 29.5V27.8334C17.833 27.3731 18.2061 27 18.6663 27ZM25.333 27C25.7933 27 26.1663 27.3731 26.1663 27.8334V29.5C26.1663 29.9603 25.7933 30.3334 25.333 30.3334C24.8728 30.3334 24.4997 29.9603 24.4997 29.5V27.8334C24.4997 27.3731 24.8728 27 25.333 27Z" fill="black"/>
<path fill-rule="evenodd" clip-rule="evenodd" d="M20.3845 21.1667C20.0021 21.1667 19.6688 21.4269 19.576 21.7979L19.0583 23.8688C18.9467 24.3153 18.4943 24.5868 18.0478 24.4751C17.6013 24.3635 17.3298 23.9111 17.4414 23.4646L17.9591 21.3937C18.2374 20.2808 19.2373 19.5 20.3845 19.5H23.6153C24.7624 19.5 25.7623 20.2808 26.0406 21.3937L26.5583 23.4646C26.6699 23.9111 26.3985 24.3635 25.952 24.4751C25.5055 24.5868 25.053 24.3153 24.9414 23.8688L24.4237 21.7979C24.3309 21.4269 23.9977 21.1667 23.6153 21.1667H20.3845Z" fill="black"/>
<path fill-rule="evenodd" clip-rule="evenodd" d="M18.6663 22.8334C17.2856 22.8334 16.1663 23.9526 16.1663 25.3334V26.1667C16.1663 27.5474 17.2856 28.6667 18.6663 28.6667H25.333C26.7138 28.6667 27.833 27.5474 27.833 26.1667V25.3334C27.833 23.9526 26.7138 22.8334 25.333 22.8334H18.6663ZM20.333 25.75C20.333 25.2898 19.9599 24.9167 19.4997 24.9167C19.0394 24.9167 18.6663 25.2898 18.6663 25.75V25.7584C18.6663 26.2186 19.0394 26.5917 19.4997 26.5917C19.9599 26.5917 20.333 26.2186 20.333 25.7584V25.75ZM25.333 25.75C25.333 25.2898 24.9599 24.9167 24.4997 24.9167C24.0394 24.9167 23.6663 25.2898 23.6663 25.75V25.7584C23.6663 26.2186 24.0394 26.5917 24.4997 26.5917C24.9599 26.5917 25.333 26.2186 25.333 25.7584V25.75Z" fill="black"/>
</g>
<rect x="9" y="9" width="26" height="26" rx="3" stroke="black" stroke-width="2"/>
</g>
<defs>
<filter id="filter0_d_8318_8335" x="0" y="0" width="44" height="44" filterUnits="userSpaceOnUse" color-interpolation-filters="sRGB">
<feFlood flood-opacity="0" result="BackgroundImageFix"/>
<feColorMatrix in="SourceAlpha" type="matrix" values="0 0 0 0 0 0 0 0 0 0 0 0 0 0 0 0 0 0 127 0" result="hardAlpha"/>
<feOffset/>
<feGaussianBlur stdDeviation="4"/>
<feColorMatrix type="matrix" values="0 0 0 0 0 0 0 0 0 0 0 0 0 0 0 0 0 0 0.23 0"/>
<feBlend mode="normal" in2="BackgroundImageFix" result="effect1_dropShadow_8318_8335"/>
<feBlend mode="normal" in="SourceGraphic" in2="effect1_dropShadow_8318_8335" result="shape"/>
</filter>
<clipPath id="clip0_8318_8335">
<rect x="8" y="8" width="28" height="28" rx="4" fill="white"/>
</clipPath>
</defs>
</svg>
