<svg width="44" height="44" viewBox="0 0 44 44" fill="none" xmlns="http://www.w3.org/2000/svg">
<g filter="url(#filter0_d_654_10235)">
<g clip-path="url(#clip0_654_10235)">
<rect x="8" y="6" width="28" height="28" rx="4" fill="#337FCC"/>
<g clip-path="url(#clip1_654_10235)">
<path d="M29.638 27.491C29.638 27.491 29.6832 27.456 29.7232 27.416C30.0382 27.081 30.5681 27.066 30.9031 27.381C31.2381 27.696 31.253 28.221 30.938 28.561C30.653 28.866 30.3031 29.091 29.8831 29.156C29.4681 29.216 29.103 29.101 28.823 28.956C28.548 28.816 28.3081 28.621 28.1131 28.451C28.0131 28.366 27.883 28.246 27.763 28.136C27.678 28.061 27.6031 27.991 27.5481 27.941C27.1581 27.591 26.9731 27.511 26.8831 27.506C26.8831 27.506 26.8332 27.506 26.7432 27.566C26.6332 27.641 26.4681 27.801 26.2581 28.121H26.253C26.008 28.491 25.703 28.801 25.313 28.961C24.898 29.136 24.4931 29.101 24.1531 28.986C23.8381 28.881 23.563 28.696 23.343 28.536C23.188 28.421 23.0231 28.281 22.8731 28.161C22.8231 28.116 22.7682 28.076 22.7232 28.036C22.2932 27.686 22.0681 27.566 21.9231 27.556H21.918C21.918 27.556 21.673 27.531 21.253 28.156C21.028 28.506 20.728 28.801 20.323 28.946C19.913 29.096 19.523 29.041 19.208 28.936C18.908 28.831 18.638 28.666 18.418 28.511C18.268 28.411 18.1082 28.291 17.9632 28.181C17.8982 28.131 17.833 28.081 17.773 28.036C17.328 27.711 17.073 27.581 16.898 27.571C16.848 27.571 16.628 27.556 16.263 28.116H16.2581C15.8931 28.666 15.3431 29.151 14.6131 29.151C13.8831 29.151 13.3282 28.666 12.9732 28.116C12.7182 27.731 12.8282 27.216 13.2132 26.961C13.5982 26.711 14.1182 26.816 14.3682 27.206C14.4882 27.391 14.5731 27.456 14.6131 27.476C14.6531 27.456 14.7432 27.391 14.8682 27.201C15.4332 26.341 16.143 25.856 17.003 25.906C17.733 25.951 18.358 26.391 18.763 26.691C18.853 26.756 18.9331 26.816 19.0081 26.871C19.1331 26.966 19.2482 27.051 19.3682 27.131C19.5532 27.256 19.6731 27.326 19.7581 27.351H19.773C19.773 27.351 19.8231 27.296 19.8631 27.236C20.4481 26.351 21.1631 25.826 22.0381 25.886C22.7831 25.941 23.398 26.431 23.773 26.736C23.848 26.796 23.9132 26.851 23.9732 26.901C24.1082 27.011 24.223 27.106 24.343 27.196C24.513 27.326 24.623 27.381 24.688 27.406C24.718 27.381 24.7781 27.326 24.8631 27.201C25.4181 26.356 26.098 25.796 26.958 25.836C27.708 25.871 28.298 26.371 28.658 26.691C28.773 26.796 28.8581 26.871 28.9331 26.946C29.0181 27.026 29.098 27.096 29.208 27.191C29.373 27.341 29.4982 27.426 29.5882 27.476C29.6132 27.486 29.628 27.496 29.638 27.501V27.491Z" fill="black"/>
<path fill-rule="evenodd" clip-rule="evenodd" d="M16.1631 15.831C16.1631 14.911 16.913 14.166 17.833 14.166H22.1331C23.0781 14.166 23.978 14.566 24.613 15.271L27.6182 18.611C27.9232 18.951 27.898 19.481 27.553 19.786C27.213 20.096 26.6879 20.066 26.3779 19.726L23.373 16.386C23.058 16.036 22.6081 15.836 22.1331 15.836H17.833V19.171C17.833 19.631 17.458 20.006 16.998 20.006C16.538 20.006 16.1631 19.631 16.1631 19.171V15.831Z" fill="black"/>
<path fill-rule="evenodd" clip-rule="evenodd" d="M16.998 11.6612C16.998 11.2012 17.373 10.8262 17.833 10.8262H19.498C20.418 10.8262 21.1631 11.5712 21.1631 12.4912V14.9912C21.1631 15.4512 20.793 15.8262 20.333 15.8262C19.873 15.8262 19.498 15.4512 19.498 14.9912V12.4912H17.833C17.373 12.4912 16.998 12.1162 16.998 11.6562V11.6612Z" fill="black"/>
<path d="M13.6632 18.5363C13.4732 18.5363 13.2932 18.6213 13.1732 18.7713C13.0582 18.9213 13.0132 19.1163 13.0582 19.3013L14.5431 25.6263C15.1981 25.0013 16.0381 24.5912 17.0731 24.6512C18.1981 24.7212 19.1181 25.3963 19.5131 25.6813C20.1681 25.0213 21.033 24.5562 22.128 24.6312C23.223 24.7062 24.0681 25.3563 24.4681 25.6813C25.0931 25.0313 25.9281 24.5263 27.0131 24.5763C28.1081 24.6263 28.9331 25.2612 29.3431 25.6162C29.3781 25.5762 29.4081 25.5312 29.4381 25.4912C29.9731 24.7312 30.3081 23.7563 30.5231 22.8413C30.7431 21.9163 30.8482 20.9963 30.9032 20.3113C30.9282 19.9663 30.9431 19.6813 30.9481 19.4813C30.9531 19.3813 30.9531 19.2213 30.9581 19.1613C30.9581 18.8113 30.6781 18.5313 30.3331 18.5313H13.6632V18.5363Z" fill="black"/>
</g>
</g>
<rect x="9" y="7" width="26" height="26" rx="3" stroke="#2B353A" stroke-width="2"/>
</g>
<defs>
<filter id="filter0_d_654_10235" x="0" y="0" width="44" height="44" filterUnits="userSpaceOnUse" color-interpolation-filters="sRGB">
<feFlood flood-opacity="0" result="BackgroundImageFix"/>
<feColorMatrix in="SourceAlpha" type="matrix" values="0 0 0 0 0 0 0 0 0 0 0 0 0 0 0 0 0 0 127 0" result="hardAlpha"/>
<feOffset dy="2"/>
<feGaussianBlur stdDeviation="4"/>
<feColorMatrix type="matrix" values="0 0 0 0 0 0 0 0 0 0 0 0 0 0 0 0 0 0 0.16 0"/>
<feBlend mode="normal" in2="BackgroundImageFix" result="effect1_dropShadow_654_10235"/>
<feBlend mode="normal" in="SourceGraphic" in2="effect1_dropShadow_654_10235" result="shape"/>
</filter>
<clipPath id="clip0_654_10235">
<rect x="8" y="6" width="28" height="28" rx="4" fill="white"/>
</clipPath>
<clipPath id="clip1_654_10235">
<rect width="20" height="20" fill="white" transform="translate(12 10)"/>
</clipPath>
</defs>
</svg>
