<svg width="64" height="64" viewBox="0 0 64 64" fill="none" xmlns="http://www.w3.org/2000/svg">
<g filter="url(#filter0_d_10364_5548)">
<path d="M10 30C10 17.8497 19.8497 8 32 8C44.1503 8 54 17.8497 54 30C54 42.1503 44.1503 52 32 52C19.8497 52 10 42.1503 10 30Z" fill="#5C0A18"/>
<path d="M32 7C44.7025 7 55 17.2975 55 30C55 42.7025 44.7025 53 32 53C19.2975 53 9 42.7025 9 30C9 17.2975 19.2975 7 32 7Z" stroke="black" stroke-width="2"/>
<path fill-rule="evenodd" clip-rule="evenodd" d="M31.1719 23.5661C31.6969 23.3351 32.2992 23.3351 32.8242 23.5661L40.2162 26.8351C41.7982 27.5351 42.54 29.3481 41.903 30.9511L41.4761 32.0361C41.4761 32.0361 41.4342 32.0361 41.4132 32.0361H38.6969C38.2139 32.0361 37.8219 32.4281 37.8219 32.9111C37.8219 33.3941 38.2139 33.7861 38.6969 33.7861H40.7829L39.7049 36.5021C39.4879 36.4531 39.2569 36.4251 39.0189 36.4181C37.4999 36.3551 36.331 37.0551 35.456 37.9651C34.896 37.5101 33.7129 36.6071 32.1799 36.4951C30.6539 36.3901 29.4359 37.0411 28.5189 37.9651L28.47 37.9301C27.924 37.5241 26.678 36.6141 25.103 36.5161C24.83 36.5021 24.5641 36.5091 24.3121 36.5371L23.22 33.7861H25.292C25.775 33.7861 26.167 33.3941 26.167 32.9111C26.167 32.4281 25.775 32.0361 25.292 32.0361H22.5272L22.1 30.9511C21.463 29.3481 22.2051 27.5281 23.7871 26.8351L31.1719 23.5661Z" fill="#D7425B"/>
<path fill-rule="evenodd" clip-rule="evenodd" d="M24.2279 22.6772C24.3889 20.8712 25.9009 19.4922 27.7139 19.4922H36.2821C38.0951 19.4922 39.6071 20.8712 39.7681 22.6772L40.1601 26.9752C40.2161 27.6192 39.7469 28.1862 39.1029 28.2422C38.4589 28.2982 37.8919 27.8292 37.8359 27.1852L37.4438 22.8872C37.3878 22.2852 36.8841 21.8232 36.2821 21.8232H27.7139C27.1119 21.8232 26.6081 22.2852 26.5521 22.8872L26.1601 27.1852C26.1041 27.8292 25.5371 28.2982 24.8931 28.2422C24.2491 28.1862 23.7799 27.6192 23.8359 26.9752L24.2279 22.6772Z" fill="#D7425B"/>
<path fill-rule="evenodd" clip-rule="evenodd" d="M31.9976 17.1612C32.6416 17.1612 33.1665 17.6862 33.1665 18.3302V20.6612C33.1665 21.3052 32.6416 21.8302 31.9976 21.8302C31.3536 21.8302 30.8286 21.3052 30.8286 20.6612V18.3302C30.8286 17.6862 31.3536 17.1612 31.9976 17.1612Z" fill="#D7425B"/>
<path fill-rule="evenodd" clip-rule="evenodd" d="M42.6934 40.4851C42.6934 40.4851 42.7567 40.4361 42.8127 40.3801C43.2537 39.9111 43.9956 39.8901 44.4646 40.3311C44.9336 40.7721 44.9545 41.5071 44.5135 41.9831C44.1145 42.4101 43.6246 42.7251 43.0366 42.8161C42.4556 42.9001 41.9445 42.7391 41.5525 42.5361C41.1675 42.3401 40.8316 42.0671 40.5586 41.8291C40.4186 41.7101 40.2364 41.5421 40.0684 41.3881C39.9494 41.2831 39.8447 41.1851 39.7677 41.1151C39.2217 40.6251 38.9626 40.5131 38.8366 40.5061C38.8366 40.5061 38.7668 40.5061 38.6408 40.5901C38.4868 40.6951 38.2556 40.9191 37.9616 41.3671H37.9544C37.6114 41.8851 37.1845 42.3191 36.6385 42.5431C36.0575 42.7881 35.4906 42.7391 35.0146 42.5781C34.5736 42.4311 34.1886 42.1721 33.8806 41.9481C33.6636 41.7871 33.4326 41.5911 33.2226 41.4231C33.1526 41.3601 33.0757 41.3041 33.0127 41.2481C32.4107 40.7581 32.0957 40.5901 31.8927 40.5761H31.8855C31.8855 40.5761 31.5424 40.5411 30.9544 41.4161C30.6394 41.9061 30.2195 42.3191 29.6525 42.5221C29.0785 42.7321 28.5325 42.6551 28.0915 42.5081C27.6715 42.3611 27.2935 42.1301 26.9855 41.9131C26.7755 41.7731 26.5517 41.6051 26.3487 41.4511C26.2577 41.3811 26.1665 41.3111 26.0825 41.2551C25.4595 40.8001 25.1025 40.6181 24.8575 40.6041C24.7875 40.6041 24.4794 40.5831 23.9684 41.3671H23.9616C23.4506 42.1371 22.6806 42.8161 21.6586 42.8161C20.6366 42.8161 19.8597 42.1371 19.3627 41.3671C19.0057 40.8281 19.1597 40.1071 19.6987 39.7501C20.2377 39.4001 20.9658 39.5471 21.3158 40.0931C21.4838 40.3521 21.6026 40.4431 21.6586 40.4711C21.7146 40.4431 21.8408 40.3521 22.0158 40.0861C22.8068 38.8821 23.8004 38.2031 25.0044 38.2731C26.0264 38.3361 26.9014 38.9521 27.4684 39.3721C27.5944 39.4631 27.7066 39.5471 27.8116 39.6241C27.9866 39.7571 28.1478 39.8761 28.3158 39.9881C28.5748 40.1631 28.7426 40.2611 28.8616 40.2961C28.8686 40.2961 28.8755 40.2961 28.8825 40.2961C28.9105 40.2681 28.9526 40.2121 29.0086 40.1281C29.8276 38.8891 30.8287 38.1541 32.0537 38.2381C33.0967 38.3151 33.9575 39.0011 34.4825 39.4281C34.5875 39.5121 34.6787 39.5891 34.7627 39.6591C34.9517 39.8131 35.1126 39.9461 35.2806 40.0721C35.5186 40.2541 35.6725 40.3311 35.7635 40.3661C35.8055 40.3311 35.8896 40.2541 36.0086 40.0791C36.7856 38.8961 37.7375 38.1121 38.9415 38.1681C39.9915 38.2171 40.8175 38.9171 41.3215 39.3651C41.4825 39.5121 41.6017 39.6171 41.7067 39.7221C41.8257 39.8341 41.9375 39.9321 42.0915 40.0651C42.3225 40.2751 42.4977 40.3941 42.6237 40.4641C42.6587 40.4781 42.6794 40.4921 42.6934 40.4991V40.4851Z" fill="#D7425B"/>
</g>
<defs>
<filter id="filter0_d_10364_5548" x="0" y="0" width="64" height="64" filterUnits="userSpaceOnUse" color-interpolation-filters="sRGB">
<feFlood flood-opacity="0" result="BackgroundImageFix"/>
<feColorMatrix in="SourceAlpha" type="matrix" values="0 0 0 0 0 0 0 0 0 0 0 0 0 0 0 0 0 0 127 0" result="hardAlpha"/>
<feOffset dy="2"/>
<feGaussianBlur stdDeviation="4"/>
<feColorMatrix type="matrix" values="0 0 0 0 0 0 0 0 0 0 0 0 0 0 0 0 0 0 0.16 0"/>
<feBlend mode="normal" in2="BackgroundImageFix" result="effect1_dropShadow_10364_5548"/>
<feBlend mode="normal" in="SourceGraphic" in2="effect1_dropShadow_10364_5548" result="shape"/>
</filter>
</defs>
</svg>
