<svg width="64" height="64" viewBox="0 0 64 64" fill="none" xmlns="http://www.w3.org/2000/svg">
<g filter="url(#filter0_d_10364_5536)">
<path d="M10 30C10 17.8497 19.8497 8 32 8C44.1503 8 54 17.8497 54 30C54 42.1503 44.1503 52 32 52C19.8497 52 10 42.1503 10 30Z" fill="#8F9CA3"/>
<path d="M32 7C44.7025 7 55 17.2975 55 30C55 42.7025 44.7025 53 32 53C19.2975 53 9 42.7025 9 30C9 17.2975 19.2975 7 32 7Z" stroke="black" stroke-width="2"/>
<path fill-rule="evenodd" clip-rule="evenodd" d="M19.1689 19.5C19.1689 18.856 19.6871 18.331 20.3311 18.331H28.892C31.16 18.331 33.372 19.066 35.192 20.431L42.0311 25.562C43.7951 26.885 44.8311 28.957 44.8311 31.162C44.8311 33.094 43.2701 34.662 41.3311 34.662H20.3311C19.6871 34.662 19.1689 34.137 19.1689 33.493V30.868H27.3379C27.8209 30.868 28.2129 30.476 28.2129 29.993C28.2129 26.934 25.7279 24.449 22.6689 24.449H19.1689V19.493V19.5ZM19.1689 26.206V29.125H26.358C25.966 27.452 24.4609 26.206 22.6689 26.206H19.1689ZM40.6311 27.431C40.8481 27.592 41.0439 27.767 41.2189 27.956H37.8311C35.0941 27.956 32.875 25.737 32.875 23V21.705C33.19 21.88 33.498 22.083 33.792 22.3L40.6311 27.431Z" fill="black"/>
<path fill-rule="evenodd" clip-rule="evenodd" d="M19.1689 38.169C19.1689 37.525 19.6871 37 20.3311 37H43.6689C44.3129 37 44.8311 37.525 44.8311 38.169C44.8311 38.813 44.3129 39.338 43.6689 39.338H20.3311C19.6871 39.338 19.1689 38.813 19.1689 38.169Z" fill="black"/>
<path fill-rule="evenodd" clip-rule="evenodd" d="M25 37C25.644 37 26.1689 37.525 26.1689 38.169V40.5C26.1689 41.144 25.644 41.669 25 41.669C24.356 41.669 23.8311 41.144 23.8311 40.5V38.169C23.8311 37.525 24.356 37 25 37ZM32 37C32.644 37 33.1689 37.525 33.1689 38.169V40.5C33.1689 41.144 32.644 41.669 32 41.669C31.356 41.669 30.8311 41.144 30.8311 40.5V38.169C30.8311 37.525 31.356 37 32 37ZM39 37C39.644 37 40.1689 37.525 40.1689 38.169V40.5C40.1689 41.144 39.644 41.669 39 41.669C38.356 41.669 37.8311 41.144 37.8311 40.5V38.169C37.8311 37.525 38.356 37 39 37Z" fill="black"/>
</g>
<defs>
<filter id="filter0_d_10364_5536" x="0" y="0" width="64" height="64" filterUnits="userSpaceOnUse" color-interpolation-filters="sRGB">
<feFlood flood-opacity="0" result="BackgroundImageFix"/>
<feColorMatrix in="SourceAlpha" type="matrix" values="0 0 0 0 0 0 0 0 0 0 0 0 0 0 0 0 0 0 127 0" result="hardAlpha"/>
<feOffset dy="2"/>
<feGaussianBlur stdDeviation="4"/>
<feColorMatrix type="matrix" values="0 0 0 0 0 0 0 0 0 0 0 0 0 0 0 0 0 0 0.16 0"/>
<feBlend mode="normal" in2="BackgroundImageFix" result="effect1_dropShadow_10364_5536"/>
<feBlend mode="normal" in="SourceGraphic" in2="effect1_dropShadow_10364_5536" result="shape"/>
</filter>
</defs>
</svg>
