<svg width="48" height="48" viewBox="0 0 48 48" fill="none" xmlns="http://www.w3.org/2000/svg">
<g filter="url(#filter0_d_10957_6645)">
<path d="M8 24C8 15.1634 15.1634 8 24 8V8C32.8366 8 40 15.1634 40 24V24C40 32.8366 32.8366 40 24 40V40C15.1634 40 8 32.8366 8 24V24Z" fill="black"/>
<path d="M24 9C32.2843 9 39 15.7157 39 24C39 32.2843 32.2843 39 24 39C15.7157 39 9 32.2843 9 24C9 15.7157 15.7157 9 24 9Z" stroke="black" stroke-width="2"/>
<path d="M10 24C10 16.268 16.268 10 24 10V10C31.732 10 38 16.268 38 24V24C38 31.732 31.732 38 24 38V38C16.268 38 10 31.732 10 24V24Z" fill="#F36960"/>
<path fill-rule="evenodd" clip-rule="evenodd" d="M25.7596 15.0393C26.0043 15.1303 26.1667 15.3639 26.1667 15.625V22.5002H30.1257C30.3702 22.5002 30.5923 22.6427 30.694 22.8651C30.7958 23.0874 30.7585 23.3487 30.5987 23.5337L22.682 32.7002C22.5113 32.8978 22.2358 32.9685 21.9911 32.8774C21.7463 32.7864 21.584 32.5528 21.584 32.2917V25.4166H17.625C17.3805 25.4166 17.1585 25.274 17.0567 25.0517C16.955 24.8293 16.9922 24.5681 17.152 24.383L25.0687 15.2165C25.2393 15.0189 25.5148 14.9482 25.7596 15.0393Z" fill="black"/>
</g>
<defs>
<filter id="filter0_d_10957_6645" x="0" y="0" width="48" height="48" filterUnits="userSpaceOnUse" color-interpolation-filters="sRGB">
<feFlood flood-opacity="0" result="BackgroundImageFix"/>
<feColorMatrix in="SourceAlpha" type="matrix" values="0 0 0 0 0 0 0 0 0 0 0 0 0 0 0 0 0 0 127 0" result="hardAlpha"/>
<feOffset/>
<feGaussianBlur stdDeviation="4"/>
<feColorMatrix type="matrix" values="0 0 0 0 0 0 0 0 0 0 0 0 0 0 0 0 0 0 0.23 0"/>
<feBlend mode="normal" in2="BackgroundImageFix" result="effect1_dropShadow_10957_6645"/>
<feBlend mode="normal" in="SourceGraphic" in2="effect1_dropShadow_10957_6645" result="shape"/>
</filter>
</defs>
</svg>
