<svg width="64" height="69" viewBox="0 0 64 69" fill="none" xmlns="http://www.w3.org/2000/svg">
<g filter="url(#filter0_d_8318_8150)">
<path d="M32 7C44.6395 7 55 16.6092 55 28.5986C54.9999 35.0433 51.8044 39.9817 47.7822 44.3154C45.7739 46.4793 43.5266 48.5259 41.3398 50.5391C39.1404 52.5639 36.9981 54.5581 35.1318 56.6611C33.512 58.4862 30.5069 58.4302 28.9336 56.5879C27.1079 54.4496 24.9835 52.4564 22.7871 50.4512C20.6053 48.4592 18.3424 46.4462 16.3174 44.3184C12.2556 40.0503 9.00008 35.1686 9 28.5986C9 16.6092 19.3605 7 32 7Z" fill="#5C99D6" stroke="black" stroke-width="2" stroke-linejoin="round"/>
<path fill-rule="evenodd" clip-rule="evenodd" d="M22.6689 35.831C22.0249 35.831 21.5 36.356 21.5 37C21.5 37.644 22.0249 38.169 22.6689 38.169C23.3129 38.169 23.8311 37.644 23.8311 37C23.8311 36.356 23.3129 35.831 22.6689 35.831ZM19.1689 37C19.1689 35.068 20.7369 33.5 22.6689 33.5C24.6009 33.5 26.1689 35.068 26.1689 37C26.1689 38.932 24.6009 40.5 22.6689 40.5C20.7369 40.5 19.1689 38.932 19.1689 37Z" fill="black"/>
<path fill-rule="evenodd" clip-rule="evenodd" d="M41.3311 35.831C40.6871 35.831 40.1689 36.356 40.1689 37C40.1689 37.644 40.6871 38.169 41.3311 38.169C41.9751 38.169 42.5 37.644 42.5 37C42.5 36.356 41.9751 35.831 41.3311 35.831ZM37.8311 37C37.8311 35.068 39.3991 33.5 41.3311 33.5C43.2631 33.5 44.8311 35.068 44.8311 37C44.8311 38.932 43.2631 40.5 41.3311 40.5C39.3991 40.5 37.8311 38.932 37.8311 37Z" fill="black"/>
<path fill-rule="evenodd" clip-rule="evenodd" d="M34.3309 20.669C34.3309 20.025 34.8558 19.5 35.4998 19.5H36.6407C38.2157 19.5 39.5949 20.55 40.0149 22.062L42.4581 30.854C42.5561 31.204 42.4859 31.582 42.2619 31.869C42.0449 32.156 41.6949 32.331 41.3309 32.331C39.8049 32.331 38.4538 33.059 37.5998 34.2C37.0118 34.977 36.6688 35.95 36.6688 37C36.6688 37.644 36.1438 38.169 35.4998 38.169H24.9998C24.6918 38.169 24.391 38.05 24.174 37.826C23.957 37.609 23.8311 37.308 23.8311 37C23.8311 36.356 23.3129 35.831 22.6689 35.831C22.0249 35.831 21.5278 35.341 21.4998 34.711C21.4718 34.088 21.948 33.549 22.571 33.5L36.074 32.373C37.047 31.274 38.3559 30.476 39.8399 30.154L37.768 22.685C37.628 22.181 37.1657 21.831 36.6407 21.831H35.4998C34.8558 21.831 34.3309 21.306 34.3309 20.662V20.669Z" fill="black"/>
</g>
<defs>
<filter id="filter0_d_8318_8150" x="0" y="0" width="64" height="69.0001" filterUnits="userSpaceOnUse" color-interpolation-filters="sRGB">
<feFlood flood-opacity="0" result="BackgroundImageFix"/>
<feColorMatrix in="SourceAlpha" type="matrix" values="0 0 0 0 0 0 0 0 0 0 0 0 0 0 0 0 0 0 127 0" result="hardAlpha"/>
<feOffset dy="2"/>
<feGaussianBlur stdDeviation="4"/>
<feColorMatrix type="matrix" values="0 0 0 0 0 0 0 0 0 0 0 0 0 0 0 0 0 0 0.16 0"/>
<feBlend mode="normal" in2="BackgroundImageFix" result="effect1_dropShadow_8318_8150"/>
<feBlend mode="normal" in="SourceGraphic" in2="effect1_dropShadow_8318_8150" result="shape"/>
</filter>
</defs>
</svg>
