<svg width="56" height="56" viewBox="0 0 56 56" fill="none" xmlns="http://www.w3.org/2000/svg">
<g filter="url(#filter0_d_654_10096)">
<g clip-path="url(#clip0_654_10096)">
<rect x="10" y="8" width="36" height="36" rx="18" fill="#D7425B"/>
<path fill-rule="evenodd" clip-rule="evenodd" d="M20.7061 27.1654C18.7741 27.1654 17.2061 28.7334 17.2061 30.6654C17.2061 32.5974 18.7741 34.1654 20.7061 34.1654C22.6381 34.1654 24.2061 32.5974 24.2061 30.6654C24.2061 28.7334 22.6381 27.1654 20.7061 27.1654ZM14.875 30.6654C14.875 27.4454 17.4861 24.8344 20.7061 24.8344C23.9261 24.8344 26.5371 27.4454 26.5371 30.6654C26.5371 33.8854 23.9261 36.4964 20.7061 36.4964C17.4861 36.4964 14.875 33.8854 14.875 30.6654Z" fill="black"/>
<path fill-rule="evenodd" clip-rule="evenodd" d="M35.2871 27.1654C33.3551 27.1654 31.7871 28.7334 31.7871 30.6654C31.7871 32.5974 33.3551 34.1654 35.2871 34.1654C37.2191 34.1654 38.7871 32.5974 38.7871 30.6654C38.7871 28.7334 37.2261 27.1654 35.2871 27.1654ZM29.4561 30.6654C29.4561 27.4454 32.0671 24.8344 35.2871 24.8344C38.5071 24.8344 41.125 27.4454 41.125 30.6654C41.125 33.8854 38.5071 36.4964 35.2871 36.4964C32.0671 36.4964 29.4561 33.8854 29.4561 30.6654Z" fill="black"/>
<path fill-rule="evenodd" clip-rule="evenodd" d="M32.9909 20.3473C33.5369 20.6903 33.7051 21.4113 33.3621 21.9573L27.5311 31.2883C27.3141 31.6313 26.9431 31.8343 26.5371 31.8343H20.7061C20.0621 31.8343 19.5371 31.3093 19.5371 30.6653C19.5371 30.0213 20.0621 29.4963 20.7061 29.4963H25.8932L31.3811 20.7183C31.7241 20.1723 32.4449 20.0043 32.9909 20.3473Z" fill="black"/>
<path fill-rule="evenodd" clip-rule="evenodd" d="M18.375 20.1655C18.375 19.5215 18.8931 18.9965 19.5371 18.9965H25.375C26.019 18.9965 26.5371 19.5215 26.5371 20.1655C26.5371 20.8095 26.019 21.3345 25.375 21.3345H24.3879L29.1833 26.9905C29.5963 27.4805 29.5332 28.2155 29.0432 28.6355C28.5532 29.0485 27.8178 28.9925 27.3978 28.4955L21.3288 21.3275H19.5371C18.8931 21.3275 18.375 20.8025 18.375 20.1585V20.1655Z" fill="black"/>
<path fill-rule="evenodd" clip-rule="evenodd" d="M32.7879 17.9045C33.3059 17.9325 33.8028 17.9885 34.2788 18.1145C35.1258 18.3385 35.6649 18.7375 35.9099 19.5775C36.0849 20.1935 36.7362 20.5575 37.3522 20.3755C37.9752 20.2005 38.332 19.5495 38.15 18.9335C37.618 17.0715 36.2461 16.2245 34.8811 15.8605C33.8661 15.5875 32.7178 15.5525 31.8568 15.5245C31.6468 15.5245 31.4581 15.5105 31.2901 15.5035C30.4431 15.4615 29.8762 16.2665 30.0932 17.0085L34.1674 30.9945C34.3494 31.6105 34.9999 31.9675 35.6159 31.7855C36.2319 31.6035 36.5888 30.9595 36.4068 30.3365L32.7879 17.8975V17.9045Z" fill="black"/>
</g>
<rect x="9" y="7" width="38" height="38" rx="19" stroke="#2B353A" stroke-width="2"/>
</g>
<defs>
<filter id="filter0_d_654_10096" x="0" y="0" width="56" height="56" filterUnits="userSpaceOnUse" color-interpolation-filters="sRGB">
<feFlood flood-opacity="0" result="BackgroundImageFix"/>
<feColorMatrix in="SourceAlpha" type="matrix" values="0 0 0 0 0 0 0 0 0 0 0 0 0 0 0 0 0 0 127 0" result="hardAlpha"/>
<feOffset dy="2"/>
<feGaussianBlur stdDeviation="4"/>
<feColorMatrix type="matrix" values="0 0 0 0 0 0 0 0 0 0 0 0 0 0 0 0 0 0 0.16 0"/>
<feBlend mode="normal" in2="BackgroundImageFix" result="effect1_dropShadow_654_10096"/>
<feBlend mode="normal" in="SourceGraphic" in2="effect1_dropShadow_654_10096" result="shape"/>
</filter>
<clipPath id="clip0_654_10096">
<rect x="10" y="8" width="36" height="36" rx="18" fill="white"/>
</clipPath>
</defs>
</svg>
