<svg width="56" height="56" viewBox="0 0 56 56" fill="none" xmlns="http://www.w3.org/2000/svg">
<g filter="url(#filter0_d_654_10172)">
<g clip-path="url(#clip0_654_10172)">
<rect x="10" y="8" width="36" height="36" rx="18" fill="#5C0A18"/>
<path fill-rule="evenodd" clip-rule="evenodd" d="M15.4004 20.7504C15.4004 19.5906 16.3406 18.6504 17.5004 18.6504H35.0004C38.4798 18.6504 41.3004 21.471 41.3004 24.9504V30.5504C41.3004 31.7102 40.3602 32.6504 39.2004 32.6504C39.2004 30.3308 37.32 28.4504 35.0004 28.4504C32.6808 28.4504 30.8004 30.3308 30.8004 32.6504H25.9004C25.9004 30.3308 24.02 28.4504 21.7004 28.4504C19.3808 28.4504 17.5004 30.3308 17.5004 32.6504C16.3406 32.6504 15.4004 31.7102 15.4004 30.5504V20.7504ZM17.5004 21.4504C17.5004 21.0638 17.8138 20.7504 18.2004 20.7504H20.2974C20.684 20.7504 20.9974 21.0638 20.9974 21.4504V24.9504C20.9974 25.337 20.684 25.6504 20.2974 25.6504H18.2004C17.8504 25.6504 17.5004 25.3004 17.5004 24.9504V21.4504ZM23.108 20.7504C22.7214 20.7504 22.408 21.0638 22.408 21.4504L22.4004 24.9504C22.4004 25.3004 22.7504 25.6504 23.1004 25.6504H25.908C26.2946 25.6504 26.608 25.337 26.608 24.9504V21.4504C26.608 21.0638 26.2946 20.7504 25.908 20.7504H23.108ZM28.0185 21.4504C28.0185 21.0638 28.3319 20.7504 28.7185 20.7504H31.5185C31.9051 20.7504 32.2185 21.0638 32.2185 21.4504V24.9504C32.2185 25.337 31.9051 25.6504 31.5185 25.6504H29.4185C28.6453 25.6504 28.0004 25.7236 28.0004 24.9504L28.0185 21.4504ZM34.329 20.7504C33.9424 20.7504 33.629 21.0638 33.629 21.4504V24.9504C33.629 25.337 33.9424 25.6504 34.329 25.6504H38.529C38.9156 25.6504 39.229 25.337 39.229 24.9504C39.229 22.6308 37.3486 20.7504 35.029 20.7504H34.329Z" fill="#D7425B"/>
<path d="M24.5004 32.6504C24.5004 34.1968 23.2468 35.4504 21.7004 35.4504C20.154 35.4504 18.9004 34.1968 18.9004 32.6504C18.9004 31.104 20.154 29.8504 21.7004 29.8504C23.2468 29.8504 24.5004 31.104 24.5004 32.6504Z" fill="#D7425B"/>
<path d="M37.8004 32.6504C37.8004 34.1968 36.5468 35.4504 35.0004 35.4504C33.454 35.4504 32.2004 34.1968 32.2004 32.6504C32.2004 31.104 33.454 29.8504 35.0004 29.8504C36.5468 29.8504 37.8004 31.104 37.8004 32.6504Z" fill="#D7425B"/>
</g>
<rect x="9" y="7" width="38" height="38" rx="19" stroke="#2B353A" stroke-width="2"/>
</g>
<defs>
<filter id="filter0_d_654_10172" x="0" y="0" width="56" height="56" filterUnits="userSpaceOnUse" color-interpolation-filters="sRGB">
<feFlood flood-opacity="0" result="BackgroundImageFix"/>
<feColorMatrix in="SourceAlpha" type="matrix" values="0 0 0 0 0 0 0 0 0 0 0 0 0 0 0 0 0 0 127 0" result="hardAlpha"/>
<feOffset dy="2"/>
<feGaussianBlur stdDeviation="4"/>
<feColorMatrix type="matrix" values="0 0 0 0 0 0 0 0 0 0 0 0 0 0 0 0 0 0 0.16 0"/>
<feBlend mode="normal" in2="BackgroundImageFix" result="effect1_dropShadow_654_10172"/>
<feBlend mode="normal" in="SourceGraphic" in2="effect1_dropShadow_654_10172" result="shape"/>
</filter>
<clipPath id="clip0_654_10172">
<rect x="10" y="8" width="36" height="36" rx="18" fill="white"/>
</clipPath>
</defs>
</svg>
