<svg width="36" height="30" viewBox="0 0 36 30" fill="none" xmlns="http://www.w3.org/2000/svg">
<g filter="url(#filter0_d_10364_5581)">
<path d="M17.3053 8.30814C17.6755 7.89728 18.3284 7.89729 18.6986 8.30814L25.7764 16.1641C26.4428 16.9038 25.513 18.2311 24.5443 17.9654C22.6557 17.4472 20.3265 16.9882 18.002 16.9882C15.6774 16.9882 13.3482 17.4472 11.4596 17.9654C10.4909 18.2311 9.56112 16.9038 10.2275 16.1641L17.3053 8.30814Z" fill="#002677"/>
<path d="M16.7129 7.48926C17.4435 6.83714 18.5604 6.83715 19.291 7.48926L19.4414 7.63867L26.5195 15.4951C27.2716 16.3302 27.0239 17.391 26.5957 18.0107C26.1669 18.6309 25.2981 19.2092 24.2793 18.9297C22.439 18.4249 20.2047 17.9883 18.002 17.9883C15.7992 17.9883 13.5649 18.4249 11.7246 18.9297C10.7058 19.2092 9.83702 18.6309 9.4082 18.0107C8.97997 17.391 8.73234 16.3302 9.48438 15.4951L16.5625 7.63867L16.7129 7.48926Z" stroke="black" stroke-width="2"/>
</g>
<defs>
<filter id="filter0_d_10364_5581" x="0" y="0" width="36.0039" height="30.0041" filterUnits="userSpaceOnUse" color-interpolation-filters="sRGB">
<feFlood flood-opacity="0" result="BackgroundImageFix"/>
<feColorMatrix in="SourceAlpha" type="matrix" values="0 0 0 0 0 0 0 0 0 0 0 0 0 0 0 0 0 0 127 0" result="hardAlpha"/>
<feOffset dy="2"/>
<feGaussianBlur stdDeviation="4"/>
<feColorMatrix type="matrix" values="0 0 0 0 0 0 0 0 0 0 0 0 0 0 0 0 0 0 0.16 0"/>
<feBlend mode="normal" in2="BackgroundImageFix" result="effect1_dropShadow_10364_5581"/>
<feBlend mode="normal" in="SourceGraphic" in2="effect1_dropShadow_10364_5581" result="shape"/>
</filter>
</defs>
</svg>
