<svg width="56" height="56" viewBox="0 0 56 56" fill="none" xmlns="http://www.w3.org/2000/svg">
<g filter="url(#filter0_d_8318_8228)">
<g clip-path="url(#clip0_8318_8228)">
<rect x="10" y="8" width="36" height="36" rx="18" fill="#5C0A18"/>
<path fill-rule="evenodd" clip-rule="evenodd" d="M15.168 15.5C15.168 14.856 15.6861 14.331 16.3301 14.331H24.8911C27.1591 14.331 29.3711 15.066 31.1911 16.431L38.0301 21.562C39.7941 22.885 40.8301 24.957 40.8301 27.162C40.8301 29.094 39.2691 30.662 37.3301 30.662H16.3301C15.6861 30.662 15.168 30.137 15.168 29.493V26.868H23.3369C23.8199 26.868 24.2119 26.476 24.2119 25.993C24.2119 22.934 21.727 20.449 18.668 20.449H15.168V15.493V15.5ZM15.168 22.206V25.125H22.357C21.965 23.452 20.46 22.206 18.668 22.206H15.168ZM36.6301 23.431C36.8471 23.592 37.043 23.767 37.218 23.956H33.8301C31.0931 23.956 28.874 21.737 28.874 19V17.705C29.189 17.88 29.4971 18.083 29.7911 18.3L36.6301 23.431Z" fill="#D7425B"/>
<path fill-rule="evenodd" clip-rule="evenodd" d="M15.168 34.169C15.168 33.525 15.6861 33 16.3301 33H39.668C40.312 33 40.8301 33.525 40.8301 34.169C40.8301 34.813 40.312 35.338 39.668 35.338H16.3301C15.6861 35.338 15.168 34.813 15.168 34.169Z" fill="#D7425B"/>
<path fill-rule="evenodd" clip-rule="evenodd" d="M20.999 33C21.643 33 22.168 33.525 22.168 34.169V36.5C22.168 37.144 21.643 37.669 20.999 37.669C20.355 37.669 19.8301 37.144 19.8301 36.5V34.169C19.8301 33.525 20.355 33 20.999 33ZM27.999 33C28.643 33 29.168 33.525 29.168 34.169V36.5C29.168 37.144 28.643 37.669 27.999 37.669C27.355 37.669 26.8301 37.144 26.8301 36.5V34.169C26.8301 33.525 27.355 33 27.999 33ZM34.999 33C35.643 33 36.168 33.525 36.168 34.169V36.5C36.168 37.144 35.643 37.669 34.999 37.669C34.355 37.669 33.8301 37.144 33.8301 36.5V34.169C33.8301 33.525 34.355 33 34.999 33Z" fill="#D7425B"/>
</g>
<rect x="9" y="7" width="38" height="38" rx="19" stroke="#2B353A" stroke-width="2"/>
</g>
<defs>
<filter id="filter0_d_8318_8228" x="0" y="0" width="56" height="56" filterUnits="userSpaceOnUse" color-interpolation-filters="sRGB">
<feFlood flood-opacity="0" result="BackgroundImageFix"/>
<feColorMatrix in="SourceAlpha" type="matrix" values="0 0 0 0 0 0 0 0 0 0 0 0 0 0 0 0 0 0 127 0" result="hardAlpha"/>
<feOffset dy="2"/>
<feGaussianBlur stdDeviation="4"/>
<feColorMatrix type="matrix" values="0 0 0 0 0 0 0 0 0 0 0 0 0 0 0 0 0 0 0.16 0"/>
<feBlend mode="normal" in2="BackgroundImageFix" result="effect1_dropShadow_8318_8228"/>
<feBlend mode="normal" in="SourceGraphic" in2="effect1_dropShadow_8318_8228" result="shape"/>
</filter>
<clipPath id="clip0_8318_8228">
<rect x="10" y="8" width="36" height="36" rx="18" fill="white"/>
</clipPath>
</defs>
</svg>
