<svg width="76" height="48" viewBox="0 0 76 48" fill="none" xmlns="http://www.w3.org/2000/svg">
<g filter="url(#filter0_d_8318_8162)">
<path d="M8 24C8 15.1634 15.1634 8 24 8H52C60.8366 8 68 15.1634 68 24C68 32.8366 60.8366 40 52 40H24C15.1634 40 8 32.8366 8 24Z" fill="black"/>
<path d="M24 9H52C60.2843 9 67 15.7157 67 24C67 32.2843 60.2843 39 52 39H24C15.7157 39 9 32.2843 9 24C9 15.7157 15.7157 9 24 9Z" stroke="black" stroke-width="2"/>
<path d="M10 24C10 16.268 16.268 10 24 10C31.732 10 38 16.268 38 24C38 31.732 31.732 38 24 38C16.268 38 10 31.732 10 24Z" fill="#5C99D6"/>
<path fill-rule="evenodd" clip-rule="evenodd" d="M17.335 28.165C16.875 28.165 16.5 28.54 16.5 29C16.5 29.46 16.875 29.835 17.335 29.835C17.795 29.835 18.165 29.46 18.165 29C18.165 28.54 17.795 28.165 17.335 28.165ZM14.835 29C14.835 27.62 15.955 26.5 17.335 26.5C18.715 26.5 19.835 27.62 19.835 29C19.835 30.38 18.715 31.5 17.335 31.5C15.955 31.5 14.835 30.38 14.835 29Z" fill="black"/>
<path fill-rule="evenodd" clip-rule="evenodd" d="M30.665 28.165C30.205 28.165 29.835 28.54 29.835 29C29.835 29.46 30.205 29.835 30.665 29.835C31.125 29.835 31.5 29.46 31.5 29C31.5 28.54 31.125 28.165 30.665 28.165ZM28.165 29C28.165 27.62 29.285 26.5 30.665 26.5C32.045 26.5 33.165 27.62 33.165 29C33.165 30.38 32.045 31.5 30.665 31.5C29.285 31.5 28.165 30.38 28.165 29Z" fill="black"/>
<path fill-rule="evenodd" clip-rule="evenodd" d="M25.6649 17.335C25.6649 16.875 26.0399 16.5 26.4999 16.5H27.3148C28.4398 16.5 29.425 17.25 29.725 18.33L31.4701 24.61C31.5401 24.86 31.4899 25.13 31.3299 25.335C31.1749 25.54 30.9249 25.665 30.6649 25.665C29.5749 25.665 28.6099 26.185 27.9999 27C27.5799 27.555 27.3348 28.25 27.3348 29C27.3348 29.46 26.9599 29.835 26.4999 29.835H18.9999C18.7799 29.835 18.565 29.75 18.41 29.59C18.255 29.435 18.165 29.22 18.165 29C18.165 28.54 17.795 28.165 17.335 28.165C16.875 28.165 16.5199 27.815 16.4999 27.365C16.4799 26.92 16.82 26.535 17.265 26.5L26.91 25.695C27.605 24.91 28.54 24.34 29.6 24.11L28.12 18.775C28.02 18.415 27.6898 18.165 27.3148 18.165H26.4999C26.0399 18.165 25.6649 17.79 25.6649 17.33V17.335Z" fill="black"/>
</g>
<defs>
<filter id="filter0_d_8318_8162" x="0" y="0" width="76" height="48" filterUnits="userSpaceOnUse" color-interpolation-filters="sRGB">
<feFlood flood-opacity="0" result="BackgroundImageFix"/>
<feColorMatrix in="SourceAlpha" type="matrix" values="0 0 0 0 0 0 0 0 0 0 0 0 0 0 0 0 0 0 127 0" result="hardAlpha"/>
<feOffset/>
<feGaussianBlur stdDeviation="4"/>
<feColorMatrix type="matrix" values="0 0 0 0 0 0 0 0 0 0 0 0 0 0 0 0 0 0 0.23 0"/>
<feBlend mode="normal" in2="BackgroundImageFix" result="effect1_dropShadow_8318_8162"/>
<feBlend mode="normal" in="SourceGraphic" in2="effect1_dropShadow_8318_8162" result="shape"/>
</filter>
</defs>
</svg>
