<svg width="56" height="56" viewBox="0 0 56 56" fill="none" xmlns="http://www.w3.org/2000/svg">
<g filter="url(#filter0_d_654_10179)">
<g clip-path="url(#clip0_654_10179)">
<rect x="10" y="8" width="36" height="36" rx="18" fill="#5C0A18"/>
<path d="M38.6934 36.489C38.6934 36.489 38.7567 36.44 38.8127 36.384C39.2537 35.915 39.9956 35.894 40.4646 36.335C40.9336 36.776 40.9545 37.511 40.5135 37.987C40.1145 38.414 39.6246 38.729 39.0366 38.82C38.4556 38.904 37.9445 38.743 37.5525 38.54C37.1675 38.344 36.8316 38.071 36.5586 37.833C36.4186 37.714 36.2364 37.546 36.0684 37.392C35.9494 37.287 35.8447 37.189 35.7677 37.119C35.2217 36.629 34.9626 36.517 34.8366 36.51C34.8366 36.51 34.7668 36.51 34.6408 36.594C34.4868 36.699 34.2556 36.923 33.9616 37.371H33.9544C33.6114 37.889 33.1845 38.323 32.6385 38.547C32.0575 38.792 31.4906 38.743 31.0146 38.582C30.5736 38.435 30.1886 38.176 29.8806 37.952C29.6636 37.791 29.4326 37.595 29.2226 37.427C29.1526 37.364 29.0757 37.308 29.0127 37.252C28.4107 36.762 28.0957 36.594 27.8927 36.58H27.8855C27.8855 36.58 27.5424 36.545 26.9544 37.42C26.6394 37.91 26.2195 38.323 25.6525 38.526C25.0785 38.736 24.5325 38.659 24.0915 38.512C23.6715 38.365 23.2935 38.134 22.9855 37.917C22.7755 37.777 22.5517 37.609 22.3487 37.455C22.2577 37.385 22.1665 37.315 22.0825 37.252C21.4595 36.797 21.1025 36.615 20.8575 36.601C20.7875 36.601 20.4794 36.58 19.9684 37.364H19.9616C19.4506 38.134 18.6806 38.813 17.6586 38.813C16.6366 38.813 15.8597 38.134 15.3627 37.364C15.0057 36.825 15.1597 36.104 15.6987 35.747C16.2377 35.397 16.9658 35.544 17.3158 36.09C17.4838 36.349 17.6026 36.44 17.6586 36.468C17.7146 36.44 17.8408 36.349 18.0158 36.083C18.8068 34.879 19.8004 34.2 21.0044 34.27C22.0264 34.333 22.9014 34.949 23.4684 35.369C23.5944 35.46 23.7066 35.544 23.8116 35.621C23.9866 35.754 24.1478 35.873 24.3158 35.985C24.5748 36.16 24.7426 36.258 24.8616 36.293H24.8825C24.8825 36.293 24.9526 36.216 25.0086 36.132C25.8276 34.893 26.8287 34.158 28.0537 34.242C29.0967 34.319 29.9575 35.005 30.4825 35.432C30.5875 35.516 30.6787 35.593 30.7627 35.663C30.9517 35.817 31.1126 35.95 31.2806 36.076C31.5186 36.258 31.6725 36.335 31.7635 36.37C31.8055 36.335 31.8896 36.258 32.0086 36.083C32.7856 34.9 33.7375 34.116 34.9415 34.172C35.9915 34.221 36.8175 34.921 37.3215 35.369C37.4825 35.516 37.6017 35.621 37.7067 35.726C37.8257 35.838 37.9375 35.936 38.0915 36.069C38.3225 36.279 38.4977 36.398 38.6237 36.468C38.6587 36.482 38.6794 36.496 38.6934 36.503V36.489Z" fill="#D7425B"/>
<path fill-rule="evenodd" clip-rule="evenodd" d="M19.8286 20.165C19.8286 18.877 20.8785 17.834 22.1665 17.834H28.1866C29.5096 17.834 30.7695 18.394 31.6585 19.381L35.8657 24.057C36.2927 24.533 36.2575 25.275 35.7745 25.702C35.2985 26.136 34.5634 26.094 34.1294 25.618L29.9226 20.942C29.4816 20.452 28.8516 20.172 28.1866 20.172H22.1665V24.841C22.1665 25.485 21.6416 26.01 20.9976 26.01C20.3536 26.01 19.8286 25.485 19.8286 24.841V20.165Z" fill="#D7425B"/>
<path fill-rule="evenodd" clip-rule="evenodd" d="M20.9976 14.3272C20.9976 13.6832 21.5225 13.1582 22.1665 13.1582H24.4976C25.7856 13.1582 26.8286 14.2012 26.8286 15.4892V18.9892C26.8286 19.6332 26.3105 20.1582 25.6665 20.1582C25.0225 20.1582 24.4976 19.6332 24.4976 18.9892V15.4892H22.1665C21.5225 15.4892 20.9976 14.9642 20.9976 14.3202V14.3272Z" fill="#D7425B"/>
<path d="M16.3288 23.9523C16.0628 23.9523 15.8108 24.0713 15.6428 24.2813C15.4818 24.4913 15.4188 24.7643 15.4818 25.0233L17.5606 33.8783C18.4776 33.0033 19.6536 32.4293 21.1026 32.5133C22.6776 32.6113 23.9656 33.5563 24.5186 33.9553C25.4356 33.0313 26.6466 32.3803 28.1796 32.4853C29.7126 32.5903 30.8957 33.5003 31.4557 33.9553C32.3307 33.0453 33.4996 32.3383 35.0186 32.4083C36.5516 32.4783 37.7067 33.3673 38.2807 33.8643C38.3297 33.8083 38.3716 33.7453 38.4136 33.6893C39.1626 32.6253 39.6316 31.2603 39.9326 29.9793C40.2406 28.6843 40.3878 27.3963 40.4648 26.4373C40.4998 25.9543 40.5206 25.5553 40.5276 25.2753C40.5346 25.1353 40.5347 24.9113 40.5417 24.8273C40.5417 24.3373 40.1497 23.9453 39.6667 23.9453H16.3288V23.9523Z" fill="#D7425B"/>
</g>
<rect x="9" y="7" width="38" height="38" rx="19" stroke="#2B353A" stroke-width="2"/>
</g>
<defs>
<filter id="filter0_d_654_10179" x="0" y="0" width="56" height="56" filterUnits="userSpaceOnUse" color-interpolation-filters="sRGB">
<feFlood flood-opacity="0" result="BackgroundImageFix"/>
<feColorMatrix in="SourceAlpha" type="matrix" values="0 0 0 0 0 0 0 0 0 0 0 0 0 0 0 0 0 0 127 0" result="hardAlpha"/>
<feOffset dy="2"/>
<feGaussianBlur stdDeviation="4"/>
<feColorMatrix type="matrix" values="0 0 0 0 0 0 0 0 0 0 0 0 0 0 0 0 0 0 0.16 0"/>
<feBlend mode="normal" in2="BackgroundImageFix" result="effect1_dropShadow_654_10179"/>
<feBlend mode="normal" in="SourceGraphic" in2="effect1_dropShadow_654_10179" result="shape"/>
</filter>
<clipPath id="clip0_654_10179">
<rect x="10" y="8" width="36" height="36" rx="18" fill="white"/>
</clipPath>
</defs>
</svg>
