<svg width="56" height="56" viewBox="0 0 56 56" fill="none" xmlns="http://www.w3.org/2000/svg">
<g filter="url(#filter0_d_870_8003)">
<g clip-path="url(#clip0_870_8003)">
<rect x="10" y="8" width="36" height="36" rx="18" fill="#337FCC"/>
<path d="M38.693 36.489C38.693 36.489 38.7562 36.44 38.8122 36.384C39.2532 35.915 39.9952 35.894 40.4642 36.335C40.9331 36.776 40.954 37.511 40.513 37.987C40.114 38.414 39.6241 38.729 39.0361 38.82C38.4551 38.904 37.944 38.743 37.552 38.54C37.167 38.344 36.8311 38.071 36.5581 37.833C36.4181 37.714 36.236 37.546 36.068 37.392C35.949 37.287 35.8442 37.189 35.7672 37.119C35.2212 36.629 34.9621 36.517 34.8361 36.51C34.8361 36.51 34.7663 36.51 34.6403 36.594C34.4863 36.699 34.2551 36.923 33.9611 37.371H33.9539C33.6109 37.889 33.184 38.323 32.638 38.547C32.057 38.792 31.4902 38.743 31.0142 38.582C30.5732 38.435 30.1881 38.176 29.8801 37.952C29.6631 37.791 29.4321 37.595 29.2221 37.427C29.1521 37.364 29.0752 37.308 29.0122 37.252C28.4102 36.762 28.0952 36.594 27.8922 36.58H27.885C27.885 36.58 27.5419 36.545 26.9539 37.42C26.6389 37.91 26.219 38.323 25.652 38.526C25.078 38.736 24.5321 38.659 24.0911 38.512C23.6711 38.365 23.293 38.134 22.985 37.917C22.775 37.777 22.5512 37.609 22.3482 37.455C22.2572 37.385 22.166 37.315 22.082 37.252C21.459 36.797 21.102 36.615 20.857 36.601C20.787 36.601 20.479 36.58 19.968 37.364H19.9611C19.4501 38.134 18.6801 38.813 17.6581 38.813C16.6361 38.813 15.8592 38.134 15.3622 37.364C15.0052 36.825 15.1592 36.104 15.6982 35.747C16.2372 35.397 16.9653 35.544 17.3153 36.09C17.4833 36.349 17.6021 36.44 17.6581 36.468C17.7141 36.44 17.8403 36.349 18.0153 36.083C18.8063 34.879 19.7999 34.2 21.0039 34.27C22.0259 34.333 22.901 34.949 23.468 35.369C23.594 35.46 23.7061 35.544 23.8111 35.621C23.9861 35.754 24.1473 35.873 24.3153 35.985C24.5743 36.16 24.7421 36.258 24.8611 36.293H24.882C24.882 36.293 24.9521 36.216 25.0081 36.132C25.8271 34.893 26.8282 34.158 28.0532 34.242C29.0962 34.319 29.957 35.005 30.482 35.432C30.587 35.516 30.6782 35.593 30.7622 35.663C30.9512 35.817 31.1121 35.95 31.2801 36.076C31.5181 36.258 31.672 36.335 31.763 36.37C31.805 36.335 31.8891 36.258 32.0081 36.083C32.7851 34.9 33.7371 34.116 34.9411 34.172C35.9911 34.221 36.817 34.921 37.321 35.369C37.482 35.516 37.6012 35.621 37.7062 35.726C37.8252 35.838 37.9371 35.936 38.0911 36.069C38.3221 36.279 38.4972 36.398 38.6232 36.468C38.6582 36.482 38.679 36.496 38.693 36.503V36.489Z" fill="black"/>
<path fill-rule="evenodd" clip-rule="evenodd" d="M19.8281 20.165C19.8281 18.877 20.878 17.834 22.166 17.834H28.1861C29.5091 17.834 30.7691 18.394 31.6581 19.381L35.8652 24.057C36.2922 24.533 36.257 25.275 35.774 25.702C35.298 26.136 34.5629 26.094 34.1289 25.618L29.9221 20.942C29.4811 20.452 28.8511 20.172 28.1861 20.172H22.166V24.841C22.166 25.485 21.6411 26.01 20.9971 26.01C20.3531 26.01 19.8281 25.485 19.8281 24.841V20.165Z" fill="black"/>
<path fill-rule="evenodd" clip-rule="evenodd" d="M20.9971 14.3272C20.9971 13.6832 21.522 13.1582 22.166 13.1582H24.4971C25.7851 13.1582 26.8281 14.2012 26.8281 15.4892V18.9892C26.8281 19.6332 26.31 20.1582 25.666 20.1582C25.022 20.1582 24.4971 19.6332 24.4971 18.9892V15.4892H22.166C21.522 15.4892 20.9971 14.9642 20.9971 14.3202V14.3272Z" fill="black"/>
<path d="M16.3283 23.9523C16.0623 23.9523 15.8103 24.0713 15.6423 24.2813C15.4813 24.4913 15.4183 24.7643 15.4813 25.0233L17.5601 33.8783C18.4771 33.0033 19.6532 32.4293 21.1022 32.5133C22.6772 32.6113 23.9651 33.5563 24.5181 33.9553C25.4351 33.0313 26.6461 32.3803 28.1791 32.4853C29.7121 32.5903 30.8952 33.5003 31.4552 33.9553C32.3302 33.0453 33.4991 32.3383 35.0181 32.4083C36.5511 32.4783 37.7062 33.3673 38.2802 33.8643C38.3292 33.8083 38.3711 33.7453 38.4131 33.6893C39.1621 32.6253 39.6311 31.2603 39.9321 29.9793C40.2401 28.6843 40.3873 27.3963 40.4643 26.4373C40.4993 25.9543 40.5202 25.5553 40.5272 25.2753C40.5342 25.1353 40.5342 24.9113 40.5412 24.8273C40.5412 24.3373 40.1492 23.9453 39.6662 23.9453H16.3283V23.9523Z" fill="black"/>
</g>
<rect x="9" y="7" width="38" height="38" rx="19" stroke="#2B353A" stroke-width="2"/>
</g>
<defs>
<filter id="filter0_d_870_8003" x="0" y="0" width="56" height="56" filterUnits="userSpaceOnUse" color-interpolation-filters="sRGB">
<feFlood flood-opacity="0" result="BackgroundImageFix"/>
<feColorMatrix in="SourceAlpha" type="matrix" values="0 0 0 0 0 0 0 0 0 0 0 0 0 0 0 0 0 0 127 0" result="hardAlpha"/>
<feOffset dy="2"/>
<feGaussianBlur stdDeviation="4"/>
<feColorMatrix type="matrix" values="0 0 0 0 0 0 0 0 0 0 0 0 0 0 0 0 0 0 0.16 0"/>
<feBlend mode="normal" in2="BackgroundImageFix" result="effect1_dropShadow_870_8003"/>
<feBlend mode="normal" in="SourceGraphic" in2="effect1_dropShadow_870_8003" result="shape"/>
</filter>
<clipPath id="clip0_870_8003">
<rect x="10" y="8" width="36" height="36" rx="18" fill="white"/>
</clipPath>
</defs>
</svg>
