<svg width="64" height="64" viewBox="0 0 64 64" fill="none" xmlns="http://www.w3.org/2000/svg">
<g filter="url(#filter0_d_10364_5546)">
<path d="M10 30C10 17.8497 19.8497 8 32 8C44.1503 8 54 17.8497 54 30C54 42.1503 44.1503 52 32 52C19.8497 52 10 42.1503 10 30Z" fill="#5C0A18"/>
<path d="M32 7C44.7025 7 55 17.2975 55 30C55 42.7025 44.7025 53 32 53C19.2975 53 9 42.7025 9 30C9 17.2975 19.2975 7 32 7Z" stroke="black" stroke-width="2"/>
<path d="M42.6934 40.4885C42.6934 40.4885 42.7567 40.4395 42.8127 40.3835C43.2537 39.9145 43.9956 39.8935 44.4646 40.3345C44.9336 40.7755 44.9545 41.5105 44.5135 41.9865C44.1145 42.4135 43.6246 42.7285 43.0366 42.8195C42.4556 42.9035 41.9445 42.7425 41.5525 42.5395C41.1675 42.3435 40.8316 42.0705 40.5586 41.8325C40.4186 41.7135 40.2364 41.5455 40.0684 41.3915C39.9494 41.2865 39.8447 41.1885 39.7677 41.1185C39.2217 40.6285 38.9626 40.5165 38.8366 40.5095C38.8366 40.5095 38.7668 40.5095 38.6408 40.5935C38.4868 40.6985 38.2556 40.9225 37.9616 41.3705H37.9544C37.6114 41.8885 37.1845 42.3225 36.6385 42.5465C36.0575 42.7915 35.4906 42.7425 35.0146 42.5815C34.5736 42.4345 34.1886 42.1755 33.8806 41.9515C33.6636 41.7905 33.4326 41.5945 33.2226 41.4265C33.1526 41.3635 33.0757 41.3075 33.0127 41.2515C32.4107 40.7615 32.0957 40.5935 31.8927 40.5795H31.8855C31.8855 40.5795 31.5424 40.5445 30.9544 41.4195C30.6394 41.9095 30.2195 42.3225 29.6525 42.5255C29.0785 42.7355 28.5325 42.6585 28.0915 42.5115C27.6715 42.3645 27.2935 42.1335 26.9855 41.9165C26.7755 41.7765 26.5517 41.6085 26.3487 41.4545C26.2577 41.3845 26.1665 41.3145 26.0825 41.2515C25.4595 40.7965 25.1025 40.6145 24.8575 40.6005C24.7875 40.6005 24.4794 40.5795 23.9684 41.3635H23.9616C23.4506 42.1335 22.6806 42.8125 21.6586 42.8125C20.6366 42.8125 19.8597 42.1335 19.3627 41.3635C19.0057 40.8245 19.1597 40.1035 19.6987 39.7465C20.2377 39.3965 20.9658 39.5435 21.3158 40.0895C21.4838 40.3485 21.6026 40.4395 21.6586 40.4675C21.7146 40.4395 21.8408 40.3485 22.0158 40.0825C22.8068 38.8785 23.8004 38.1995 25.0044 38.2695C26.0264 38.3325 26.9014 38.9485 27.4684 39.3685C27.5944 39.4595 27.7066 39.5435 27.8116 39.6205C27.9866 39.7535 28.1478 39.8725 28.3158 39.9845C28.5748 40.1595 28.7426 40.2575 28.8616 40.2925H28.8825C28.8825 40.2925 28.9526 40.2155 29.0086 40.1315C29.8276 38.8925 30.8287 38.1575 32.0537 38.2415C33.0967 38.3185 33.9575 39.0045 34.4825 39.4315C34.5875 39.5155 34.6787 39.5925 34.7627 39.6625C34.9517 39.8165 35.1126 39.9495 35.2806 40.0755C35.5186 40.2575 35.6725 40.3345 35.7635 40.3695C35.8055 40.3345 35.8896 40.2575 36.0086 40.0825C36.7856 38.8995 37.7375 38.1155 38.9415 38.1715C39.9915 38.2205 40.8175 38.9205 41.3215 39.3685C41.4825 39.5155 41.6017 39.6205 41.7067 39.7255C41.8257 39.8375 41.9375 39.9355 42.0915 40.0685C42.3225 40.2785 42.4977 40.3975 42.6237 40.4675C42.6587 40.4815 42.6794 40.4955 42.6934 40.5025V40.4885Z" fill="#D7425B"/>
<path fill-rule="evenodd" clip-rule="evenodd" d="M23.8286 24.1645C23.8286 22.8765 24.8785 21.8335 26.1665 21.8335H32.1866C33.5096 21.8335 34.7695 22.3935 35.6585 23.3805L39.8657 28.0565C40.2927 28.5325 40.2575 29.2745 39.7745 29.7015C39.2985 30.1355 38.5634 30.0935 38.1294 29.6175L33.9226 24.9415C33.4816 24.4515 32.8516 24.1715 32.1866 24.1715H26.1665V28.8405C26.1665 29.4845 25.6416 30.0095 24.9976 30.0095C24.3536 30.0095 23.8286 29.4845 23.8286 28.8405V24.1645Z" fill="#D7425B"/>
<path fill-rule="evenodd" clip-rule="evenodd" d="M24.9976 18.3267C24.9976 17.6827 25.5225 17.1577 26.1665 17.1577H28.4976C29.7856 17.1577 30.8286 18.2007 30.8286 19.4887V22.9887C30.8286 23.6327 30.3105 24.1577 29.6665 24.1577C29.0225 24.1577 28.4976 23.6327 28.4976 22.9887V19.4887H26.1665C25.5225 19.4887 24.9976 18.9637 24.9976 18.3197V18.3267Z" fill="#D7425B"/>
<path d="M20.3288 27.9519C20.0628 27.9519 19.8108 28.0709 19.6428 28.2809C19.4818 28.4909 19.4188 28.7639 19.4818 29.0229L21.5606 37.8779C22.4776 37.0029 23.6536 36.4289 25.1026 36.5129C26.6776 36.6109 27.9656 37.5559 28.5186 37.9549C29.4356 37.0309 30.6466 36.3799 32.1796 36.4849C33.7126 36.5899 34.8957 37.4999 35.4557 37.9549C36.3307 37.0449 37.4996 36.3379 39.0186 36.4079C40.5516 36.4779 41.7067 37.3669 42.2807 37.8639C42.3297 37.8079 42.3716 37.7449 42.4136 37.6889C43.1626 36.6249 43.6316 35.2599 43.9326 33.9789C44.2406 32.6839 44.3878 31.3959 44.4648 30.4369C44.4998 29.9539 44.5206 29.5549 44.5276 29.2749C44.5346 29.1349 44.5347 28.9109 44.5417 28.8269C44.5417 28.3369 44.1497 27.9449 43.6667 27.9449H20.3288V27.9519Z" fill="#D7425B"/>
</g>
<defs>
<filter id="filter0_d_10364_5546" x="0" y="0" width="64" height="64" filterUnits="userSpaceOnUse" color-interpolation-filters="sRGB">
<feFlood flood-opacity="0" result="BackgroundImageFix"/>
<feColorMatrix in="SourceAlpha" type="matrix" values="0 0 0 0 0 0 0 0 0 0 0 0 0 0 0 0 0 0 127 0" result="hardAlpha"/>
<feOffset dy="2"/>
<feGaussianBlur stdDeviation="4"/>
<feColorMatrix type="matrix" values="0 0 0 0 0 0 0 0 0 0 0 0 0 0 0 0 0 0 0.16 0"/>
<feBlend mode="normal" in2="BackgroundImageFix" result="effect1_dropShadow_10364_5546"/>
<feBlend mode="normal" in="SourceGraphic" in2="effect1_dropShadow_10364_5546" result="shape"/>
</filter>
</defs>
</svg>
