<svg width="56" height="56" viewBox="0 0 56 56" fill="none" xmlns="http://www.w3.org/2000/svg">
<g filter="url(#filter0_d_870_8017)">
<g clip-path="url(#clip0_870_8017)">
<rect x="10" y="8" width="36" height="36" rx="18" fill="#94C20A"/>
<path fill-rule="evenodd" clip-rule="evenodd" d="M15.3999 22.3258C15.3999 21.166 16.3401 20.2258 17.4999 20.2258H34.9999C38.4793 20.2258 41.2999 23.0464 41.2999 26.5258V30.7258C41.2999 31.8856 40.3644 32.8258 39.2046 32.8258C32.3612 32.8258 19.3829 32.8258 17.4999 32.8258C16.3401 32.8258 15.3999 31.8856 15.3999 30.7258V22.3258ZM17.4999 23.0258C17.4999 22.6392 17.8133 22.3258 18.1999 22.3258H20.297C20.6836 22.3258 20.997 22.6392 20.997 23.0258V26.5258C20.997 26.9124 20.6836 27.2258 20.297 27.2258H18.1999C17.8499 27.2258 17.4999 26.8758 17.4999 26.5258V23.0258ZM23.1075 22.3258C22.7209 22.3258 22.4075 22.6392 22.4075 23.0258L22.3999 26.5258C22.3999 26.8758 22.7499 27.2258 23.0999 27.2258H25.9075C26.2941 27.2258 26.6075 26.9124 26.6075 26.5258V23.0258C26.6075 22.6392 26.2941 22.3258 25.9075 22.3258H23.1075ZM28.018 23.0258C28.018 22.6392 28.3314 22.3258 28.718 22.3258H31.518C31.9046 22.3258 32.218 22.6392 32.218 23.0258V26.5258C32.218 26.9124 31.9046 27.2258 31.518 27.2258H29.418C28.6448 27.2258 27.9999 27.299 27.9999 26.5258L28.018 23.0258ZM34.3285 22.3258C33.9419 22.3258 33.6285 22.6392 33.6285 23.0258V26.5258C33.6285 26.9124 33.9419 27.2258 34.3285 27.2258H38.5285C38.9151 27.2258 39.2285 26.9124 39.2285 26.5258C39.2285 24.2062 37.3481 22.3258 35.0285 22.3258H34.3285Z" fill="black"/>
<path fill-rule="evenodd" clip-rule="evenodd" d="M15.9249 34.9258C15.9249 34.4425 16.3167 34.0508 16.7999 34.0508L39.8999 34.0508C40.3832 34.0508 40.7749 34.4425 40.7749 34.9258C40.7749 35.409 40.3832 35.8008 39.8999 35.8008L16.7999 35.8008C16.3167 35.8008 15.9249 35.409 15.9249 34.9258Z" fill="black"/>
<path fill-rule="evenodd" clip-rule="evenodd" d="M24.3249 17.4258C24.3249 16.9425 24.7167 16.5508 25.1999 16.5508H30.7999C31.1454 16.5508 31.4586 16.7541 31.5992 17.0698C31.7398 17.3855 31.6814 17.7543 31.4503 18.0111L28.3003 21.5111C27.977 21.8703 27.4238 21.8994 27.0646 21.5762C26.7054 21.2529 26.6762 20.6996 26.9995 20.3404L28.8352 18.3008H25.1999C24.7167 18.3008 24.3249 17.909 24.3249 17.4258Z" fill="black"/>
</g>
<rect x="9" y="7" width="38" height="38" rx="19" stroke="#2B353A" stroke-width="2"/>
</g>
<defs>
<filter id="filter0_d_870_8017" x="0" y="0" width="56" height="56" filterUnits="userSpaceOnUse" color-interpolation-filters="sRGB">
<feFlood flood-opacity="0" result="BackgroundImageFix"/>
<feColorMatrix in="SourceAlpha" type="matrix" values="0 0 0 0 0 0 0 0 0 0 0 0 0 0 0 0 0 0 127 0" result="hardAlpha"/>
<feOffset dy="2"/>
<feGaussianBlur stdDeviation="4"/>
<feColorMatrix type="matrix" values="0 0 0 0 0 0 0 0 0 0 0 0 0 0 0 0 0 0 0.16 0"/>
<feBlend mode="normal" in2="BackgroundImageFix" result="effect1_dropShadow_870_8017"/>
<feBlend mode="normal" in="SourceGraphic" in2="effect1_dropShadow_870_8017" result="shape"/>
</filter>
<clipPath id="clip0_870_8017">
<rect x="10" y="8" width="36" height="36" rx="18" fill="white"/>
</clipPath>
</defs>
</svg>
