<svg width="56" height="56" viewBox="0 0 56 56" fill="none" xmlns="http://www.w3.org/2000/svg">
<g filter="url(#filter0_d_654_10191)">
<g clip-path="url(#clip0_654_10191)">
<rect x="10" y="8" width="36" height="36" rx="18" fill="#94C20A"/>
<path fill-rule="evenodd" clip-rule="evenodd" d="M15.4004 22.3258C15.4004 21.166 16.3406 20.2258 17.5004 20.2258H35.0004C38.4798 20.2258 41.3004 23.0464 41.3004 26.5258V30.7258C41.3004 31.8856 40.3649 32.8258 39.2051 32.8258C32.3616 32.8258 19.3834 32.8258 17.5004 32.8258C16.3406 32.8258 15.4004 31.8856 15.4004 30.7258V22.3258ZM17.5004 23.0258C17.5004 22.6392 17.8138 22.3258 18.2004 22.3258H20.2974C20.684 22.3258 20.9974 22.6392 20.9974 23.0258V26.5258C20.9974 26.9124 20.684 27.2258 20.2974 27.2258H18.2004C17.8504 27.2258 17.5004 26.8758 17.5004 26.5258V23.0258ZM23.108 22.3258C22.7214 22.3258 22.408 22.6392 22.408 23.0258L22.4004 26.5258C22.4004 26.8758 22.7504 27.2258 23.1004 27.2258H25.908C26.2946 27.2258 26.608 26.9124 26.608 26.5258V23.0258C26.608 22.6392 26.2946 22.3258 25.908 22.3258H23.108ZM28.0185 23.0258C28.0185 22.6392 28.3319 22.3258 28.7185 22.3258H31.5185C31.9051 22.3258 32.2185 22.6392 32.2185 23.0258V26.5258C32.2185 26.9124 31.9051 27.2258 31.5185 27.2258H29.4185C28.6453 27.2258 28.0004 27.299 28.0004 26.5258L28.0185 23.0258ZM34.329 22.3258C33.9424 22.3258 33.629 22.6392 33.629 23.0258V26.5258C33.629 26.9124 33.9424 27.2258 34.329 27.2258H38.529C38.9156 27.2258 39.229 26.9124 39.229 26.5258C39.229 24.2062 37.3486 22.3258 35.029 22.3258H34.329Z" fill="black"/>
<path fill-rule="evenodd" clip-rule="evenodd" d="M15.9254 34.9258C15.9254 34.4425 16.3171 34.0508 16.8004 34.0508L39.9004 34.0508C40.3836 34.0508 40.7754 34.4425 40.7754 34.9258C40.7754 35.409 40.3836 35.8008 39.9004 35.8008L16.8004 35.8008C16.3171 35.8008 15.9254 35.409 15.9254 34.9258Z" fill="black"/>
<path fill-rule="evenodd" clip-rule="evenodd" d="M24.3254 17.4258C24.3254 16.9425 24.7171 16.5508 25.2004 16.5508H30.8004C31.1459 16.5508 31.4591 16.7541 31.5997 17.0698C31.7403 17.3855 31.6819 17.7543 31.4508 18.0111L28.3008 21.5111C27.9775 21.8703 27.4242 21.8994 27.065 21.5762C26.7058 21.2529 26.6767 20.6996 27 20.3404L28.8357 18.3008H25.2004C24.7171 18.3008 24.3254 17.909 24.3254 17.4258Z" fill="black"/>
</g>
<rect x="9" y="7" width="38" height="38" rx="19" stroke="#2B353A" stroke-width="2"/>
</g>
<defs>
<filter id="filter0_d_654_10191" x="0" y="0" width="56" height="56" filterUnits="userSpaceOnUse" color-interpolation-filters="sRGB">
<feFlood flood-opacity="0" result="BackgroundImageFix"/>
<feColorMatrix in="SourceAlpha" type="matrix" values="0 0 0 0 0 0 0 0 0 0 0 0 0 0 0 0 0 0 127 0" result="hardAlpha"/>
<feOffset dy="2"/>
<feGaussianBlur stdDeviation="4"/>
<feColorMatrix type="matrix" values="0 0 0 0 0 0 0 0 0 0 0 0 0 0 0 0 0 0 0.16 0"/>
<feBlend mode="normal" in2="BackgroundImageFix" result="effect1_dropShadow_654_10191"/>
<feBlend mode="normal" in="SourceGraphic" in2="effect1_dropShadow_654_10191" result="shape"/>
</filter>
<clipPath id="clip0_654_10191">
<rect x="10" y="8" width="36" height="36" rx="18" fill="white"/>
</clipPath>
</defs>
</svg>
