<svg width="56" height="56" viewBox="0 0 56 56" fill="none" xmlns="http://www.w3.org/2000/svg">
<g filter="url(#filter0_d_8318_8219)">
<g clip-path="url(#clip0_8318_8219)">
<rect x="10" y="8" width="36" height="36" rx="18" fill="#A9D22D"/>
<path fill-rule="evenodd" clip-rule="evenodd" d="M15.4004 22.325C15.4004 21.1652 16.3406 20.225 17.5004 20.225H35.0004C38.4798 20.225 41.3004 23.0456 41.3004 26.525V30.725C41.3004 31.8848 40.3649 32.825 39.2051 32.825C32.3616 32.825 19.3834 32.825 17.5004 32.825C16.3406 32.825 15.4004 31.8848 15.4004 30.725V22.325ZM17.5004 23.025C17.5004 22.6384 17.8138 22.325 18.2004 22.325H20.2974C20.684 22.325 20.9974 22.6384 20.9974 23.025V26.525C20.9974 26.9116 20.684 27.225 20.2974 27.225H18.2004C17.8504 27.225 17.5004 26.875 17.5004 26.525V23.025ZM23.108 22.325C22.7214 22.325 22.408 22.6384 22.408 23.025L22.4004 26.525C22.4004 26.875 22.7504 27.225 23.1004 27.225H25.908C26.2946 27.225 26.608 26.9116 26.608 26.525V23.025C26.608 22.6384 26.2946 22.325 25.908 22.325H23.108ZM28.0185 23.025C28.0185 22.6384 28.3319 22.325 28.7185 22.325H31.5185C31.9051 22.325 32.2185 22.6384 32.2185 23.025V26.525C32.2185 26.9116 31.9051 27.225 31.5185 27.225H29.4185C28.6453 27.225 28.0004 27.2982 28.0004 26.525L28.0185 23.025ZM34.329 22.325C33.9424 22.325 33.629 22.6384 33.629 23.025V26.525C33.629 26.9116 33.9424 27.225 34.329 27.225H38.529C38.9156 27.225 39.229 26.9116 39.229 26.525C39.229 24.2054 37.3486 22.325 35.029 22.325H34.329Z" fill="black"/>
<path fill-rule="evenodd" clip-rule="evenodd" d="M15.9254 34.925C15.9254 34.4418 16.3171 34.05 16.8004 34.05L39.9004 34.05C40.3836 34.05 40.7754 34.4418 40.7754 34.925C40.7754 35.4083 40.3836 35.8 39.9004 35.8L16.8004 35.8C16.3171 35.8 15.9254 35.4082 15.9254 34.925Z" fill="black"/>
<path fill-rule="evenodd" clip-rule="evenodd" d="M24.3254 17.425C24.3254 16.9418 24.7171 16.55 25.2004 16.55H30.8004C31.1459 16.55 31.4591 16.7534 31.5997 17.069C31.7403 17.3847 31.6819 17.7535 31.4508 18.0103L28.3008 21.5103C27.9775 21.8695 27.4242 21.8987 27.065 21.5754C26.7058 21.2521 26.6767 20.6989 27 20.3397L28.8357 18.3H25.2004C24.7171 18.3 24.3254 17.9083 24.3254 17.425Z" fill="black"/>
</g>
<rect x="9" y="7" width="38" height="38" rx="19" stroke="black" stroke-width="2"/>
</g>
<defs>
<filter id="filter0_d_8318_8219" x="0" y="0" width="56" height="56" filterUnits="userSpaceOnUse" color-interpolation-filters="sRGB">
<feFlood flood-opacity="0" result="BackgroundImageFix"/>
<feColorMatrix in="SourceAlpha" type="matrix" values="0 0 0 0 0 0 0 0 0 0 0 0 0 0 0 0 0 0 127 0" result="hardAlpha"/>
<feOffset dy="2"/>
<feGaussianBlur stdDeviation="4"/>
<feColorMatrix type="matrix" values="0 0 0 0 0 0 0 0 0 0 0 0 0 0 0 0 0 0 0.16 0"/>
<feBlend mode="normal" in2="BackgroundImageFix" result="effect1_dropShadow_8318_8219"/>
<feBlend mode="normal" in="SourceGraphic" in2="effect1_dropShadow_8318_8219" result="shape"/>
</filter>
<clipPath id="clip0_8318_8219">
<rect x="10" y="8" width="36" height="36" rx="18" fill="white"/>
</clipPath>
</defs>
</svg>
