<svg width="44" height="44" viewBox="0 0 44 44" fill="none" xmlns="http://www.w3.org/2000/svg">
<g filter="url(#filter0_d_10043_6282)">
<path d="M8 10C8 7.79086 9.79086 6 12 6H32C34.2091 6 36 7.79086 36 10V30C36 32.2091 34.2091 34 32 34H12C9.79086 34 8 32.2091 8 30V10Z" fill="#FFFCDE"/>
<path fill-rule="evenodd" clip-rule="evenodd" d="M21.6157 11.3577C22.592 11.0126 23.6633 11.5242 24.0085 12.5005C24.3536 13.4768 23.842 14.5481 22.8657 14.8933C21.8894 15.2384 20.8181 14.7268 20.4729 13.7505C20.1277 12.7742 20.6394 11.7029 21.6157 11.3577ZM21.0503 16.6336C21.1692 16.9576 21.0029 17.3167 20.6788 17.4356C19.383 17.911 18.5887 18.4418 18.0906 19.0176C17.6003 19.5843 17.3529 20.2457 17.2448 21.073C17.2001 21.4153 16.8864 21.6565 16.5441 21.6117C16.2018 21.567 15.9606 21.2533 16.0053 20.911C16.1358 19.913 16.4531 18.9998 17.1452 18.1997C17.8295 17.4087 18.8351 16.7806 20.2482 16.2621C20.5723 16.1432 20.9314 16.3095 21.0503 16.6336ZM22.9108 16.4213C23.2012 16.2348 23.5878 16.319 23.7744 16.6094C23.8003 16.6496 23.8318 16.7032 23.8697 16.7675C24.2252 17.371 25.1374 18.9195 27.1012 19.2468C27.4417 19.3035 27.6717 19.6256 27.615 19.966C27.5582 20.3065 27.2362 20.5365 26.8957 20.4798C24.2964 20.0465 23.0942 17.9347 22.784 17.3898C22.7569 17.3422 22.7365 17.3065 22.7227 17.285C22.5362 16.9946 22.6203 16.6079 22.9108 16.4213ZM21.4282 21.7663C21.6522 21.5037 22.0467 21.4725 22.3093 21.6965L23.6761 22.8627C24.3029 23.3975 24.7471 24.1145 24.947 24.9138L25.5215 27.2117C25.6052 27.5466 25.4016 27.8859 25.0668 27.9696C24.7319 28.0533 24.3926 27.8498 24.3088 27.5149L23.7343 25.217C23.5976 24.6701 23.2936 24.1795 22.8647 23.8136L21.4979 22.6474C21.2354 22.4234 21.2041 22.0289 21.4282 21.7663ZM20.1128 23.0207C20.4403 23.1299 20.6173 23.4838 20.5081 23.8113L20.3032 24.4261C20.1451 24.9004 19.9244 25.3515 19.6471 25.7675L18.3519 27.7104C18.1604 27.9976 17.7724 28.0752 17.4852 27.8837C17.198 27.6922 17.1203 27.3042 17.3118 27.017L18.6071 25.0741C18.8228 24.7506 18.9944 24.3997 19.1173 24.0308L19.3222 23.416C19.4314 23.0886 19.7854 22.9116 20.1128 23.0207Z" fill="black"/>
<path fill-rule="evenodd" clip-rule="evenodd" d="M23.0199 15.9244C23.3299 16.0702 23.5788 16.3049 23.7744 16.6094C23.8684 16.7557 23.8972 16.9346 23.8538 17.103L22.5089 22.3278C22.4655 22.4962 22.3539 22.639 22.2009 22.7217C22.0479 22.8045 21.8673 22.8197 21.7026 22.7638L21.6741 22.7541C21.1922 22.5904 20.7884 22.4533 20.4699 22.3095C20.1354 22.1584 19.8385 21.9762 19.6033 21.6926C19.4191 21.4705 19.2785 21.2156 19.1889 20.9414C19.0745 20.5911 19.0788 20.2428 19.1294 19.8793C19.1776 19.5333 19.2769 19.1187 19.3955 18.624L19.8557 16.7032C19.9045 16.4999 20.052 16.3342 20.2482 16.2621L20.2504 16.2613C20.8674 16.0345 21.5148 15.7965 22.0892 15.7627C22.3943 15.7448 22.714 15.7805 23.0199 15.9244Z" fill="black"/>
</g>
<defs>
<filter id="filter0_d_10043_6282" x="0" y="0" width="44" height="44" filterUnits="userSpaceOnUse" color-interpolation-filters="sRGB">
<feFlood flood-opacity="0" result="BackgroundImageFix"/>
<feColorMatrix in="SourceAlpha" type="matrix" values="0 0 0 0 0 0 0 0 0 0 0 0 0 0 0 0 0 0 127 0" result="hardAlpha"/>
<feOffset dy="2"/>
<feGaussianBlur stdDeviation="4"/>
<feColorMatrix type="matrix" values="0 0 0 0 0 0 0 0 0 0 0 0 0 0 0 0 0 0 0.16 0"/>
<feBlend mode="normal" in2="BackgroundImageFix" result="effect1_dropShadow_10043_6282"/>
<feBlend mode="normal" in="SourceGraphic" in2="effect1_dropShadow_10043_6282" result="shape"/>
</filter>
</defs>
</svg>
