<svg width="28" height="28" viewBox="0 0 28 28" fill="none" xmlns="http://www.w3.org/2000/svg">
<path d="M0 4C0 1.79086 1.79086 0 4 0H24C26.2091 0 28 1.79086 28 4V24C28 26.2091 26.2091 28 24 28H4C1.79086 28 0 26.2091 0 24V4Z" fill="#54090A"/>
<path d="M19.8328 20.4594C19.6728 20.4594 19.5128 20.3994 19.3928 20.2744L7.72782 8.60937C7.48282 8.36437 7.48282 7.96937 7.72782 7.72437C7.97282 7.47937 8.36783 7.47937 8.61283 7.72437L20.2778 19.3894C20.5228 19.6344 20.5228 20.0294 20.2778 20.2744C20.1578 20.3944 19.9978 20.4594 19.8378 20.4594H19.8328Z" fill="white"/>
<path d="M8.1628 20.4594C8.0028 20.4594 7.84281 20.3994 7.72281 20.2744C7.47781 20.0294 7.47781 19.6344 7.72281 19.3894L19.3878 7.72437C19.6328 7.47937 20.0278 7.47937 20.2728 7.72437C20.5178 7.96937 20.5178 8.36437 20.2728 8.60937L8.60781 20.2744C8.48781 20.3944 8.3278 20.4594 8.1678 20.4594H8.1628Z" fill="white"/>
</svg>
