<svg width="44" height="44" viewBox="0 0 44 44" fill="none" xmlns="http://www.w3.org/2000/svg">
<g filter="url(#filter0_d_10043_6296)">
<path d="M8 12C8 9.79086 9.79086 8 12 8H32C34.2091 8 36 9.79086 36 12V32C36 34.2091 34.2091 36 32 36H12C9.79086 36 8 34.2091 8 32V12Z" fill="#D44546"/>
<path d="M27.6004 28.1999C27.4454 28.1999 27.2954 28.1399 27.1754 28.0249L15.9754 16.8249C15.7404 16.5899 15.7404 16.2099 15.9754 15.9749C16.2104 15.7399 16.5904 15.7399 16.8254 15.9749L28.0254 27.1749C28.2604 27.4099 28.2604 27.7899 28.0254 28.0249C27.9104 28.1399 27.7554 28.1999 27.6004 28.1999Z" fill="black"/>
<path d="M22.0004 30.6C17.2604 30.6 13.4004 26.74 13.4004 22C13.4004 17.26 17.2604 13.4 22.0004 13.4C26.7404 13.4 30.6004 17.26 30.6004 22C30.6004 26.74 26.7404 30.6 22.0004 30.6ZM22.0004 14.6C17.9204 14.6 14.6004 17.92 14.6004 22C14.6004 26.08 17.9204 29.4 22.0004 29.4C26.0804 29.4 29.4004 26.08 29.4004 22C29.4004 17.92 26.0804 14.6 22.0004 14.6Z" fill="black"/>
</g>
<defs>
<filter id="filter0_d_10043_6296" x="0" y="0" width="44" height="44" filterUnits="userSpaceOnUse" color-interpolation-filters="sRGB">
<feFlood flood-opacity="0" result="BackgroundImageFix"/>
<feColorMatrix in="SourceAlpha" type="matrix" values="0 0 0 0 0 0 0 0 0 0 0 0 0 0 0 0 0 0 127 0" result="hardAlpha"/>
<feOffset/>
<feGaussianBlur stdDeviation="4"/>
<feColorMatrix type="matrix" values="0 0 0 0 0 0 0 0 0 0 0 0 0 0 0 0 0 0 0.23 0"/>
<feBlend mode="normal" in2="BackgroundImageFix" result="effect1_dropShadow_10043_6296"/>
<feBlend mode="normal" in="SourceGraphic" in2="effect1_dropShadow_10043_6296" result="shape"/>
</filter>
</defs>
</svg>
