<svg width="44" height="44" viewBox="0 0 44 44" fill="none" xmlns="http://www.w3.org/2000/svg">
<g filter="url(#filter0_d_10043_6282)">
<path d="M8 12C8 9.79086 9.79086 8 12 8H32C34.2091 8 36 9.79086 36 12V32C36 34.2091 34.2091 36 32 36H12C9.79086 36 8 34.2091 8 32V12Z" fill="#FFFCDE"/>
<path fill-rule="evenodd" clip-rule="evenodd" d="M21.6157 13.3577C22.592 13.0126 23.6633 13.5242 24.0085 14.5005C24.3536 15.4768 23.842 16.5481 22.8657 16.8933C21.8894 17.2384 20.8181 16.7268 20.4729 15.7505C20.1277 14.7742 20.6394 13.7029 21.6157 13.3577ZM21.0503 18.6336C21.1692 18.9576 21.0029 19.3167 20.6788 19.4356C19.383 19.911 18.5887 20.4418 18.0906 21.0176C17.6003 21.5843 17.3529 22.2457 17.2448 23.073C17.2001 23.4153 16.8864 23.6565 16.5441 23.6117C16.2018 23.567 15.9606 23.2533 16.0053 22.911C16.1358 21.913 16.4531 20.9998 17.1452 20.1997C17.8295 19.4087 18.8351 18.7806 20.2482 18.2621C20.5723 18.1432 20.9314 18.3095 21.0503 18.6336ZM22.9108 18.4213C23.2012 18.2348 23.5878 18.319 23.7744 18.6094C23.8003 18.6496 23.8318 18.7032 23.8697 18.7675C24.2252 19.371 25.1374 20.9195 27.1012 21.2468C27.4417 21.3035 27.6717 21.6256 27.615 21.966C27.5582 22.3065 27.2362 22.5365 26.8957 22.4798C24.2964 22.0465 23.0942 19.9347 22.784 19.3898C22.7569 19.3422 22.7365 19.3065 22.7227 19.285C22.5362 18.9946 22.6203 18.6079 22.9108 18.4213ZM21.4282 23.7663C21.6522 23.5037 22.0467 23.4725 22.3093 23.6965L23.6761 24.8627C24.3029 25.3975 24.7471 26.1145 24.947 26.9138L25.5215 29.2117C25.6052 29.5466 25.4016 29.8859 25.0668 29.9696C24.7319 30.0533 24.3926 29.8498 24.3088 29.5149L23.7343 27.217C23.5976 26.6701 23.2936 26.1795 22.8647 25.8136L21.4979 24.6474C21.2354 24.4234 21.2041 24.0289 21.4282 23.7663ZM20.1128 25.0207C20.4403 25.1299 20.6173 25.4838 20.5081 25.8113L20.3032 26.4261C20.1451 26.9004 19.9244 27.3515 19.6471 27.7675L18.3519 29.7104C18.1604 29.9976 17.7724 30.0752 17.4852 29.8837C17.198 29.6922 17.1203 29.3042 17.3118 29.017L18.6071 27.0741C18.8228 26.7506 18.9944 26.3997 19.1173 26.0308L19.3222 25.416C19.4314 25.0886 19.7854 24.9116 20.1128 25.0207Z" fill="black"/>
<path fill-rule="evenodd" clip-rule="evenodd" d="M23.0199 17.9244C23.3299 18.0702 23.5788 18.3049 23.7744 18.6094C23.8684 18.7557 23.8972 18.9346 23.8538 19.103L22.5089 24.3278C22.4655 24.4962 22.3539 24.639 22.2009 24.7217C22.0479 24.8045 21.8673 24.8197 21.7026 24.7638L21.6741 24.7541C21.1922 24.5904 20.7884 24.4533 20.4699 24.3095C20.1354 24.1584 19.8385 23.9762 19.6033 23.6926C19.4191 23.4705 19.2785 23.2156 19.1889 22.9414C19.0745 22.5911 19.0788 22.2428 19.1294 21.8793C19.1776 21.5333 19.2769 21.1187 19.3955 20.624L19.8557 18.7032C19.9045 18.4999 20.052 18.3342 20.2482 18.2621L20.2504 18.2613C20.8674 18.0345 21.5148 17.7965 22.0892 17.7627C22.3943 17.7448 22.714 17.7805 23.0199 17.9244Z" fill="black"/>
</g>
<defs>
<filter id="filter0_d_10043_6282" x="0" y="0" width="44" height="44" filterUnits="userSpaceOnUse" color-interpolation-filters="sRGB">
<feFlood flood-opacity="0" result="BackgroundImageFix"/>
<feColorMatrix in="SourceAlpha" type="matrix" values="0 0 0 0 0 0 0 0 0 0 0 0 0 0 0 0 0 0 127 0" result="hardAlpha"/>
<feOffset/>
<feGaussianBlur stdDeviation="4"/>
<feColorMatrix type="matrix" values="0 0 0 0 0 0 0 0 0 0 0 0 0 0 0 0 0 0 0.23 0"/>
<feBlend mode="normal" in2="BackgroundImageFix" result="effect1_dropShadow_10043_6282"/>
<feBlend mode="normal" in="SourceGraphic" in2="effect1_dropShadow_10043_6282" result="shape"/>
</filter>
</defs>
</svg>
