<svg width="28" height="28" viewBox="0 0 28 28" fill="none" xmlns="http://www.w3.org/2000/svg">
<path d="M0 4C0 1.79086 1.79086 0 4 0H24C26.2091 0 28 1.79086 28 4V24C28 26.2091 26.2091 28 24 28H4C1.79086 28 0 26.2091 0 24V4Z" fill="#54090A"/>
<path d="M19.8323 20.4598C19.6723 20.4598 19.5123 20.3998 19.3923 20.2748L7.72733 8.60977C7.48233 8.36477 7.48233 7.96977 7.72733 7.72477C7.97233 7.47977 8.36734 7.47977 8.61234 7.72477L20.2773 19.3898C20.5223 19.6348 20.5223 20.0298 20.2773 20.2748C20.1573 20.3948 19.9973 20.4598 19.8373 20.4598H19.8323Z" fill="white"/>
<path d="M8.16231 20.4598C8.00231 20.4598 7.84232 20.3998 7.72232 20.2748C7.47732 20.0298 7.47732 19.6348 7.72232 19.3898L19.3873 7.72477C19.6323 7.47977 20.0273 7.47977 20.2723 7.72477C20.5173 7.96977 20.5173 8.36477 20.2723 8.60977L8.60732 20.2748C8.48732 20.3948 8.32732 20.4598 8.16732 20.4598H8.16231Z" fill="white"/>
</svg>
