<svg width="44" height="44" viewBox="0 0 44 44" fill="none" xmlns="http://www.w3.org/2000/svg">
<g filter="url(#filter0_d_10043_6263)">
<path d="M8 12C8 9.79086 9.79086 8 12 8H32C34.2091 8 36 9.79086 36 12V32C36 34.2091 34.2091 36 32 36H12C9.79086 36 8 34.2091 8 32V12Z" fill="#86BF6C"/>
<path fill-rule="evenodd" clip-rule="evenodd" d="M28.8131 16.3855C29.1523 16.6965 29.1753 17.2237 28.8643 17.5629L19.6976 27.563C19.544 27.7305 19.3287 27.828 19.1014 27.833C18.8742 27.8379 18.6548 27.7498 18.4941 27.589L14.7441 23.839C14.4186 23.5136 14.4186 22.986 14.7441 22.6605C15.0695 22.3351 15.5971 22.3351 15.9226 22.6605L19.0572 25.7951L27.6357 16.4367C27.9467 16.0974 28.4738 16.0745 28.8131 16.3855Z" fill="black"/>
</g>
<defs>
<filter id="filter0_d_10043_6263" x="0" y="0" width="44" height="44" filterUnits="userSpaceOnUse" color-interpolation-filters="sRGB">
<feFlood flood-opacity="0" result="BackgroundImageFix"/>
<feColorMatrix in="SourceAlpha" type="matrix" values="0 0 0 0 0 0 0 0 0 0 0 0 0 0 0 0 0 0 127 0" result="hardAlpha"/>
<feOffset/>
<feGaussianBlur stdDeviation="4"/>
<feColorMatrix type="matrix" values="0 0 0 0 0 0 0 0 0 0 0 0 0 0 0 0 0 0 0.23 0"/>
<feBlend mode="normal" in2="BackgroundImageFix" result="effect1_dropShadow_10043_6263"/>
<feBlend mode="normal" in="SourceGraphic" in2="effect1_dropShadow_10043_6263" result="shape"/>
</filter>
</defs>
</svg>
