<svg width="28" height="28" viewBox="0 0 28 28" fill="none" xmlns="http://www.w3.org/2000/svg">
<path d="M0 4C0 1.79086 1.79086 0 4 0H24C26.2091 0 28 1.79086 28 4V24C28 26.2091 26.2091 28 24 28H4C1.79086 28 0 26.2091 0 24V4Z" fill="#54090A"/>
<path d="M19.8323 20.4593C19.6723 20.4593 19.5123 20.3993 19.3923 20.2743L7.72733 8.60928C7.48233 8.36428 7.48233 7.96928 7.72733 7.72428C7.97233 7.47928 8.36734 7.47928 8.61234 7.72428L20.2773 19.3893C20.5223 19.6343 20.5223 20.0293 20.2773 20.2743C20.1573 20.3943 19.9973 20.4593 19.8373 20.4593H19.8323Z" fill="white"/>
<path d="M8.16231 20.4593C8.00231 20.4593 7.84232 20.3993 7.72232 20.2743C7.47732 20.0293 7.47732 19.6343 7.72232 19.3893L19.3873 7.72428C19.6323 7.47928 20.0273 7.47928 20.2723 7.72428C20.5173 7.96928 20.5173 8.36428 20.2723 8.60928L8.60732 20.2743C8.48732 20.3943 8.32732 20.4593 8.16732 20.4593H8.16231Z" fill="white"/>
</svg>
