<svg width="47" height="51" viewBox="0 0 47 51" fill="none" xmlns="http://www.w3.org/2000/svg">
<g filter="url(#filter0_d_8318_7971)">
<path fill-rule="evenodd" clip-rule="evenodd" d="M23.5011 41.84C24.5111 41.84 25.4711 41.46 26.2011 40.78C26.7011 40.31 27.2211 39.83 27.7411 39.35C34.1011 33.49 41.3511 26.8 37.3611 17.47C35.0211 12 29.4111 8.5 23.5011 8.5C17.5911 8.5 11.9811 12 9.64112 17.47C5.67112 26.76 12.8411 33.4 19.1611 39.25C19.7211 39.77 20.2712 40.28 20.8112 40.78C21.5312 41.46 22.5011 41.84 23.5011 41.84ZM30.5711 20.52C31.2211 20.3 31.5711 19.59 31.3511 18.94C31.1311 18.29 30.4211 17.93 29.7711 18.16C28.5311 18.58 27.3311 19.38 26.2611 20.27C25.1811 21.17 24.1712 22.22 23.3112 23.21C22.5812 24.04 21.9611 24.83 21.4711 25.47C20.9911 24.88 20.5211 24.47 20.0811 24.19C19.7011 23.95 19.3611 23.81 19.0811 23.74C18.9411 23.7 18.8211 23.68 18.7211 23.67C18.6711 23.67 18.6311 23.66 18.5911 23.66C18.5711 23.66 18.5611 23.66 18.5411 23.66H18.5211H18.5111H18.5011C17.8111 23.66 17.2511 24.22 17.2511 24.91C17.2511 25.6 17.7611 26.11 18.4111 26.16H18.4212C18.4212 26.16 18.5811 26.21 18.7411 26.32C19.0711 26.53 19.6612 27.04 20.3112 28.28C20.5112 28.67 20.9111 28.92 21.3511 28.95C21.7911 28.97 22.2111 28.76 22.4611 28.4L22.4711 28.39L22.5011 28.34C22.5011 28.34 22.5811 28.22 22.6511 28.13C22.7811 27.95 22.9711 27.68 23.2111 27.35C23.6911 26.7 24.381 25.81 25.191 24.89C26.001 23.96 26.9211 23.02 27.8611 22.23C28.8211 21.43 29.7511 20.84 30.5711 20.57V20.52Z" fill="#86BF6C"/>
<path d="M18.5911 23.66C18.6311 23.66 18.6711 23.67 18.7211 23.67C18.8211 23.68 18.9411 23.7 19.0811 23.74C19.3611 23.81 19.7011 23.95 20.0811 24.19C20.5211 24.47 20.9911 24.88 21.4711 25.47C21.9611 24.83 22.5812 24.04 23.3112 23.21C24.1712 22.22 25.1811 21.17 26.2611 20.27C27.3311 19.38 28.5311 18.58 29.7711 18.16C30.4211 17.93 31.1311 18.29 31.3511 18.94C31.5711 19.59 31.2211 20.3 30.5711 20.52V20.57C29.7511 20.84 28.8211 21.43 27.8611 22.23C26.9211 23.02 26.001 23.96 25.191 24.89C24.381 25.81 23.6911 26.7 23.2111 27.35C22.9711 27.68 22.7811 27.95 22.6511 28.13C22.5811 28.22 22.5011 28.34 22.5011 28.34L22.4711 28.39L22.4611 28.4C22.2111 28.76 21.7911 28.97 21.3511 28.95C20.9111 28.92 20.5112 28.67 20.3112 28.28C19.6612 27.04 19.0711 26.53 18.7411 26.32C18.5811 26.21 18.4212 26.16 18.4212 26.16H18.4111C17.7611 26.11 17.2511 25.6 17.2511 24.91C17.2511 24.22 17.8111 23.66 18.5011 23.66M18.5911 23.66C18.5711 23.66 18.5611 23.66 18.5411 23.66H18.5211H18.5111H18.5011M18.5911 23.66H18.5011M23.5011 41.84C24.5111 41.84 25.4711 41.46 26.2011 40.78C26.7011 40.31 27.2211 39.83 27.7411 39.35C34.1011 33.49 41.3511 26.8 37.3611 17.47C35.0211 12 29.4111 8.5 23.5011 8.5C17.5911 8.5 11.9811 12 9.64112 17.47C5.67112 26.76 12.8411 33.4 19.1611 39.25C19.7211 39.77 20.2712 40.28 20.8112 40.78C21.5312 41.46 22.5011 41.84 23.5011 41.84Z" stroke="white"/>
</g>
<defs>
<filter id="filter0_d_8318_7971" x="-4.49805" y="-2.83002" width="56" height="56" filterUnits="userSpaceOnUse" color-interpolation-filters="sRGB">
<feFlood flood-opacity="0" result="BackgroundImageFix"/>
<feColorMatrix in="SourceAlpha" type="matrix" values="0 0 0 0 0 0 0 0 0 0 0 0 0 0 0 0 0 0 127 0" result="hardAlpha"/>
<feOffset/>
<feGaussianBlur stdDeviation="4"/>
<feColorMatrix type="matrix" values="0 0 0 0 0 0 0 0 0 0 0 0 0 0 0 0 0 0 0.23 0"/>
<feBlend mode="normal" in2="BackgroundImageFix" result="effect1_dropShadow_8318_7971"/>
<feBlend mode="normal" in="SourceGraphic" in2="effect1_dropShadow_8318_7971" result="shape"/>
</filter>
</defs>
</svg>
