<svg width="76" height="48" viewBox="0 0 76 48" fill="none" xmlns="http://www.w3.org/2000/svg">
<g filter="url(#filter0_d_8318_7931)">
<path d="M8 12C8 9.79086 9.79086 8 12 8H64C66.2091 8 68 9.79086 68 12V36C68 38.2091 66.2091 40 64 40H12C9.79086 40 8 38.2091 8 36V12Z" fill="white"/>
<path d="M12 9H64C65.6569 9 67 10.3431 67 12V36C67 37.6569 65.6569 39 64 39H12C10.3431 39 9 37.6569 9 36V12C9 10.3431 10.3431 9 12 9Z" stroke="white" stroke-width="2"/>
<rect x="10" y="10" width="28" height="28" rx="2" fill="#8E2864"/>
<path d="M30.251 32.54H17.751C16.486 32.54 15.4609 31.51 15.4609 30.25V17.75C15.4609 16.485 16.486 15.46 17.751 15.46H30.251C31.516 15.46 32.541 16.49 32.541 17.75V30.25C32.541 31.515 31.516 32.54 30.251 32.54ZM17.751 16.71C17.176 16.71 16.7109 17.175 16.7109 17.75V30.25C16.7109 30.825 17.176 31.29 17.751 31.29H30.251C30.826 31.29 31.291 30.825 31.291 30.25V17.75C31.291 17.175 30.826 16.71 30.251 16.71H17.751Z" fill="white"/>
<path d="M21.0859 29.21C20.7409 29.21 20.4609 28.93 20.4609 28.585V19.42C20.4609 19.075 20.7409 18.795 21.0859 18.795H24.416C26.141 18.795 27.541 20.195 27.541 21.92C27.541 23.645 26.141 25.045 24.416 25.045H21.7109V28.585C21.7109 28.93 21.4309 29.21 21.0859 29.21ZM21.7109 23.79H24.416C25.451 23.79 26.291 22.95 26.291 21.915C26.291 20.88 25.451 20.04 24.416 20.04H21.7109V23.79Z" fill="white"/>
</g>
<defs>
<filter id="filter0_d_8318_7931" x="0" y="0" width="76" height="48" filterUnits="userSpaceOnUse" color-interpolation-filters="sRGB">
<feFlood flood-opacity="0" result="BackgroundImageFix"/>
<feColorMatrix in="SourceAlpha" type="matrix" values="0 0 0 0 0 0 0 0 0 0 0 0 0 0 0 0 0 0 127 0" result="hardAlpha"/>
<feOffset/>
<feGaussianBlur stdDeviation="4"/>
<feColorMatrix type="matrix" values="0 0 0 0 0 0 0 0 0 0 0 0 0 0 0 0 0 0 0.23 0"/>
<feBlend mode="normal" in2="BackgroundImageFix" result="effect1_dropShadow_8318_7931"/>
<feBlend mode="normal" in="SourceGraphic" in2="effect1_dropShadow_8318_7931" result="shape"/>
</filter>
</defs>
</svg>
