<svg width="76" height="48" viewBox="0 0 76 48" fill="none" xmlns="http://www.w3.org/2000/svg">
<g filter="url(#filter0_d_8318_7931)">
<path d="M8 12C8 9.79086 9.79086 8 12 8H64C66.2091 8 68 9.79086 68 12V36C68 38.2091 66.2091 40 64 40H12C9.79086 40 8 38.2091 8 36V12Z" fill="white"/>
<path d="M12 9H64C65.6569 9 67 10.3431 67 12V36C67 37.6569 65.6569 39 64 39H12C10.3431 39 9 37.6569 9 36V12C9 10.3431 10.3431 9 12 9Z" stroke="white" stroke-width="2"/>
<path d="M10 14C10 11.7909 11.7909 10 14 10H34C36.2091 10 38 11.7909 38 14V34C38 36.2091 36.2091 38 34 38H14C11.7909 38 10 36.2091 10 34V14Z" fill="#0020C2"/>
<path d="M20.7051 31.4167C20.2221 31.4167 19.127 31.1868 19.127 30.7038V18.2917C19.127 17.8087 19.519 17.4167 20.002 17.4167H24.6641C27.0791 17.4167 29.0391 19.3767 29.0391 21.7917C29.0391 24.2067 27.0791 26.2038 24.6641 26.2038H22.2177V30.7038C22.2177 31.1868 21.1881 31.4167 20.7051 31.4167ZM22.2177 23.2038H23.7177C25.1667 23.2038 26.2177 23.1528 26.2177 21.7038C26.2177 20.3055 25.1667 20.2038 23.7177 20.2038H22.2177V23.2038Z" fill="white"/>
</g>
<defs>
<filter id="filter0_d_8318_7931" x="0" y="0" width="76" height="48" filterUnits="userSpaceOnUse" color-interpolation-filters="sRGB">
<feFlood flood-opacity="0" result="BackgroundImageFix"/>
<feColorMatrix in="SourceAlpha" type="matrix" values="0 0 0 0 0 0 0 0 0 0 0 0 0 0 0 0 0 0 127 0" result="hardAlpha"/>
<feOffset/>
<feGaussianBlur stdDeviation="4"/>
<feColorMatrix type="matrix" values="0 0 0 0 0 0 0 0 0 0 0 0 0 0 0 0 0 0 0.23 0"/>
<feBlend mode="normal" in2="BackgroundImageFix" result="effect1_dropShadow_8318_7931"/>
<feBlend mode="normal" in="SourceGraphic" in2="effect1_dropShadow_8318_7931" result="shape"/>
</filter>
</defs>
</svg>
