<svg width="44" height="44" viewBox="0 0 44 44" fill="none" xmlns="http://www.w3.org/2000/svg">
<g filter="url(#filter0_d_805_7106)">
<g clip-path="url(#clip0_805_7106)">
<rect x="8" y="6" width="28" height="28" rx="4" fill="#418083"/>
<path d="M27.5313 23.9006C27.5771 23.9006 27.623 23.9464 27.6688 23.9693L27.2336 24.5648H27.1878C26.8213 24.3816 26.5007 24.1984 25.8136 24.1984C25.1265 24.1984 24.8058 24.3587 24.4165 24.5648C24.0271 24.771 23.569 25 22.6987 25C21.8284 25 21.3703 24.771 20.9809 24.5648C20.6145 24.3816 20.2938 24.1984 19.5838 24.1984C18.8738 24.1984 18.5761 24.3587 18.2096 24.5648C17.7973 24.771 17.3622 25 16.4918 25C15.6215 25 15.1863 24.771 14.7741 24.5648C14.5679 24.4503 14.3618 24.3587 14.1099 24.29L14.316 23.58C14.6366 23.6716 14.8886 23.7861 15.1176 23.9006C15.4841 24.0839 15.8047 24.2671 16.4918 24.2671C17.1789 24.2671 17.4996 24.1068 17.8889 23.9006C18.2783 23.6945 18.7364 23.4655 19.6067 23.4655C20.477 23.4655 20.9351 23.6945 21.3245 23.9006C21.6909 24.0839 22.0116 24.2671 22.6987 24.2671C23.3858 24.2671 23.7064 24.1068 24.0958 23.9006C24.4852 23.6945 24.9432 23.4655 25.8136 23.4655C26.6839 23.4655 27.142 23.6945 27.5313 23.9006Z" fill="white"/>
<path d="M29.7301 20.6941H27.371C27.371 20.6941 26.3404 16.2279 26.2945 15.976C26.2487 15.7241 26.0426 15.7699 26.0426 15.7699H24.8516C24.8516 15.7699 24.6913 15.1286 24.6226 14.785C24.531 14.4186 24.3706 14.5102 24.3706 14.5102C24.3706 14.5102 22.8132 15.1057 22.6071 15.1973C22.4009 15.2889 22.4697 15.5179 22.4697 15.5179V16.9151H17.1789C16.8125 16.9151 16.8125 17.1212 16.8125 17.1212L15.9421 20.6941H15.3696C15.2321 20.6941 15.1405 20.7857 15.1176 20.9003L14.5221 22.9616C14.9344 23.0761 15.2321 23.2364 15.4841 23.3509C15.8276 23.5342 16.0109 23.6258 16.5147 23.6258C17.0186 23.6258 17.2018 23.5342 17.5454 23.3509C17.9806 23.1219 18.5761 22.8242 19.6067 22.8242C20.6374 22.8242 21.2558 23.1219 21.6909 23.3509C22.0345 23.5342 22.2177 23.6258 22.7216 23.6258C23.2255 23.6258 23.4087 23.5342 23.7523 23.3509C24.1874 23.1219 24.7829 22.8242 25.8365 22.8242C26.89 22.8242 27.4855 23.1219 27.9207 23.3509C27.9665 23.3509 28.081 23.4197 28.081 23.4197L29.8904 20.9232C29.8904 20.9232 29.8904 20.8774 29.8904 20.8316C29.8904 20.7399 29.8217 20.6712 29.7301 20.6712V20.6941ZM17.1102 18.9535L17.3622 17.877H19.6983V18.9535H17.1102ZM22.63 18.9535H20.0419V17.877H22.63V18.9535ZM23.0422 18.9535V17.877H25.6303L25.9052 18.9535H23.0422Z" fill="white"/>
</g>
<rect x="9" y="7" width="26" height="26" rx="3" stroke="white" stroke-width="2"/>
</g>
<defs>
<filter id="filter0_d_805_7106" x="0" y="0" width="44" height="44" filterUnits="userSpaceOnUse" color-interpolation-filters="sRGB">
<feFlood flood-opacity="0" result="BackgroundImageFix"/>
<feColorMatrix in="SourceAlpha" type="matrix" values="0 0 0 0 0 0 0 0 0 0 0 0 0 0 0 0 0 0 127 0" result="hardAlpha"/>
<feOffset dy="2"/>
<feGaussianBlur stdDeviation="4"/>
<feColorMatrix type="matrix" values="0 0 0 0 0 0 0 0 0 0 0 0 0 0 0 0 0 0 0.16 0"/>
<feBlend mode="normal" in2="BackgroundImageFix" result="effect1_dropShadow_805_7106"/>
<feBlend mode="normal" in="SourceGraphic" in2="effect1_dropShadow_805_7106" result="shape"/>
</filter>
<clipPath id="clip0_805_7106">
<rect x="8" y="6" width="28" height="28" rx="4" fill="white"/>
</clipPath>
</defs>
</svg>
