<svg width="44" height="44" viewBox="0 0 44 44" fill="none" xmlns="http://www.w3.org/2000/svg">
<g filter="url(#filter0_d_8318_7998)">
<g clip-path="url(#clip0_8318_7998)">
<rect x="8" y="6" width="28" height="28" rx="4" fill="#418083"/>
<g clip-path="url(#clip1_8318_7998)">
<path d="M29.6385 27.4917C29.6385 27.4917 29.6837 27.4567 29.7237 27.4167C30.0387 27.0817 30.5686 27.0667 30.9036 27.3817C31.2386 27.6967 31.2535 28.2217 30.9385 28.5617C30.6535 28.8667 30.3036 29.0917 29.8836 29.1567C29.4686 29.2167 29.1035 29.1017 28.8235 28.9567C28.5485 28.8167 28.3086 28.6217 28.1136 28.4517C28.0136 28.3667 27.8835 28.2467 27.7635 28.1367C27.6785 28.0617 27.6036 27.9917 27.5486 27.9417C27.1586 27.5917 26.9736 27.5117 26.8836 27.5067C26.8836 27.5067 26.8337 27.5067 26.7437 27.5667C26.6337 27.6417 26.4686 27.8017 26.2586 28.1217H26.2534C26.0084 28.4917 25.7035 28.8017 25.3135 28.9617C24.8985 29.1367 24.4936 29.1017 24.1536 28.9867C23.8386 28.8817 23.5635 28.6967 23.3435 28.5367C23.1885 28.4217 23.0236 28.2817 22.8736 28.1617C22.8236 28.1167 22.7687 28.0767 22.7237 28.0367C22.2937 27.6867 22.0686 27.5667 21.9236 27.5567H21.9185C21.9185 27.5567 21.6734 27.5317 21.2534 28.1567C21.0284 28.5067 20.7285 28.8017 20.3235 28.9467C19.9135 29.0967 19.5235 29.0417 19.2085 28.9367C18.9085 28.8317 18.6385 28.6667 18.4185 28.5117C18.2685 28.4117 18.1087 28.2917 17.9637 28.1817C17.8987 28.1317 17.8335 28.0817 17.7735 28.0367C17.3285 27.7117 17.0735 27.5817 16.8985 27.5717C16.8485 27.5717 16.6285 27.5567 16.2635 28.1167H16.2586C15.8936 28.6667 15.3436 29.1517 14.6136 29.1517C13.8836 29.1517 13.3287 28.6667 12.9737 28.1167C12.7187 27.7317 12.8287 27.2167 13.2137 26.9617C13.5987 26.7117 14.1187 26.8167 14.3687 27.2067C14.4887 27.3917 14.5736 27.4567 14.6136 27.4767C14.6536 27.4567 14.7437 27.3917 14.8687 27.2017C15.4337 26.3417 16.1434 25.8567 17.0034 25.9067C17.7334 25.9517 18.3585 26.3917 18.7635 26.6917C18.8535 26.7567 18.9336 26.8167 19.0086 26.8717C19.1336 26.9667 19.2487 27.0517 19.3687 27.1317C19.5537 27.2567 19.6736 27.3267 19.7586 27.3517H19.7735C19.7735 27.3517 19.8236 27.2967 19.8636 27.2367C20.4486 26.3517 21.1636 25.8267 22.0386 25.8867C22.7836 25.9417 23.3985 26.4317 23.7735 26.7367C23.8485 26.7967 23.9137 26.8517 23.9737 26.9017C24.1087 27.0117 24.2235 27.1067 24.3435 27.1967C24.5135 27.3267 24.6235 27.3817 24.6885 27.4067C24.7185 27.3817 24.7786 27.3267 24.8636 27.2017C25.4186 26.3567 26.0985 25.7967 26.9585 25.8367C27.7085 25.8717 28.2985 26.3717 28.6585 26.6917C28.7735 26.7967 28.8586 26.8717 28.9336 26.9467C29.0186 27.0267 29.0985 27.0967 29.2085 27.1917C29.3735 27.3417 29.4987 27.4267 29.5887 27.4767C29.6137 27.4867 29.6285 27.4967 29.6385 27.5017V27.4917Z" fill="white"/>
<path fill-rule="evenodd" clip-rule="evenodd" d="M16.1636 15.8317C16.1636 14.9117 16.9135 14.1667 17.8335 14.1667H22.1335C23.0785 14.1667 23.9785 14.5667 24.6135 15.2717L27.6187 18.6117C27.9237 18.9517 27.8985 19.4817 27.5535 19.7867C27.2135 20.0967 26.6884 20.0667 26.3784 19.7267L23.3735 16.3867C23.0585 16.0367 22.6085 15.8367 22.1335 15.8367H17.8335V19.1717C17.8335 19.6317 17.4585 20.0067 16.9985 20.0067C16.5385 20.0067 16.1636 19.6317 16.1636 19.1717V15.8317Z" fill="white"/>
<path fill-rule="evenodd" clip-rule="evenodd" d="M16.9985 11.6619C16.9985 11.2019 17.3735 10.8269 17.8335 10.8269H19.4985C20.4185 10.8269 21.1636 11.5719 21.1636 12.4919V14.9919C21.1636 15.4519 20.7935 15.8269 20.3335 15.8269C19.8735 15.8269 19.4985 15.4519 19.4985 14.9919V12.4919H17.8335C17.3735 12.4919 16.9985 12.1169 16.9985 11.6569V11.6619Z" fill="white"/>
<path d="M13.6637 18.537C13.4737 18.537 13.2937 18.622 13.1737 18.772C13.0587 18.922 13.0137 19.117 13.0587 19.302L14.5436 25.627C15.1986 25.002 16.0386 24.592 17.0736 24.652C18.1986 24.722 19.1185 25.397 19.5135 25.682C20.1685 25.022 21.0335 24.557 22.1285 24.632C23.2235 24.707 24.0686 25.357 24.4686 25.682C25.0936 25.032 25.9285 24.527 27.0135 24.577C28.1085 24.627 28.9336 25.262 29.3436 25.617C29.3786 25.577 29.4086 25.532 29.4386 25.492C29.9736 24.732 30.3085 23.757 30.5236 22.842C30.7435 21.917 30.8487 20.997 30.9037 20.312C30.9287 19.967 30.9436 19.682 30.9486 19.482C30.9536 19.382 30.9536 19.222 30.9586 19.162C30.9586 18.812 30.6786 18.532 30.3336 18.532H13.6637V18.537Z" fill="white"/>
</g>
</g>
<rect x="9" y="7" width="26" height="26" rx="3" stroke="white" stroke-width="2"/>
</g>
<defs>
<filter id="filter0_d_8318_7998" x="0" y="0" width="44" height="44" filterUnits="userSpaceOnUse" color-interpolation-filters="sRGB">
<feFlood flood-opacity="0" result="BackgroundImageFix"/>
<feColorMatrix in="SourceAlpha" type="matrix" values="0 0 0 0 0 0 0 0 0 0 0 0 0 0 0 0 0 0 127 0" result="hardAlpha"/>
<feOffset dy="2"/>
<feGaussianBlur stdDeviation="4"/>
<feColorMatrix type="matrix" values="0 0 0 0 0 0 0 0 0 0 0 0 0 0 0 0 0 0 0.16 0"/>
<feBlend mode="normal" in2="BackgroundImageFix" result="effect1_dropShadow_8318_7998"/>
<feBlend mode="normal" in="SourceGraphic" in2="effect1_dropShadow_8318_7998" result="shape"/>
</filter>
<clipPath id="clip0_8318_7998">
<rect x="8" y="6" width="28" height="28" rx="4" fill="white"/>
</clipPath>
<clipPath id="clip1_8318_7998">
<rect width="20" height="20" fill="white" transform="translate(12 10)"/>
</clipPath>
</defs>
</svg>
