<svg width="102" height="65" viewBox="0 0 102 65" fill="none" xmlns="http://www.w3.org/2000/svg">
<g filter="url(#filter0_d_805_7180)">
<mask id="path-1-inside-1_805_7180" fill="white">
<path fill-rule="evenodd" clip-rule="evenodd" d="M16 6C11.5817 6 8 9.58172 8 14V42C8 46.4183 11.5817 50 16 50H40.0486C43.0393 50 45.9778 51.0638 48.0226 53.2462C48.2503 53.4893 48.4744 53.7343 48.6944 53.9815C49.879 55.312 52.1727 55.3473 53.384 54.0382C53.6458 53.7553 53.9126 53.4746 54.184 53.1957C56.2608 51.0621 59.1772 50 62.1547 50H86C90.4183 50 94 46.4183 94 42V14C94 9.58172 90.4183 6 86 6H16Z"/>
</mask>
<path fill-rule="evenodd" clip-rule="evenodd" d="M16 6C11.5817 6 8 9.58172 8 14V42C8 46.4183 11.5817 50 16 50H40.0486C43.0393 50 45.9778 51.0638 48.0226 53.2462C48.2503 53.4893 48.4744 53.7343 48.6944 53.9815C49.879 55.312 52.1727 55.3473 53.384 54.0382C53.6458 53.7553 53.9126 53.4746 54.184 53.1957C56.2608 51.0621 59.1772 50 62.1547 50H86C90.4183 50 94 46.4183 94 42V14C94 9.58172 90.4183 6 86 6H16Z" fill="white"/>
<path d="M48.6944 53.9815L47.2005 55.3112L47.2006 55.3114L48.6944 53.9815ZM53.384 54.0382L54.852 55.3965L54.8521 55.3964L53.384 54.0382ZM54.184 53.1957L52.7509 51.8008L54.184 53.1957ZM48.0226 53.2462L49.4821 51.8788L48.0226 53.2462ZM10 14C10 10.6863 12.6863 8 16 8V4C10.4772 4 6 8.47715 6 14H10ZM10 42V14H6V42H10ZM16 48C12.6863 48 10 45.3137 10 42H6C6 47.5228 10.4772 52 16 52V48ZM40.0486 48H16V52H40.0486V48ZM46.5631 54.6137C46.7799 54.8451 46.9925 55.0776 47.2005 55.3112L50.1883 52.6517C49.9563 52.3911 49.7207 52.1335 49.4821 51.8788L46.5631 54.6137ZM47.2006 55.3114C49.1611 57.5134 52.8291 57.5827 54.852 55.3965L51.916 52.6799C51.5164 53.1118 50.597 53.1107 50.1882 52.6515L47.2006 55.3114ZM54.8521 55.3964C55.1015 55.1269 55.3567 54.8584 55.6172 54.5907L52.7509 51.8008C52.4686 52.0907 52.19 52.3837 51.916 52.68L54.8521 55.3964ZM86 48H62.1547V52H86V48ZM92 42C92 45.3137 89.3137 48 86 48V52C91.5229 52 96 47.5228 96 42H92ZM92 14V42H96V14H92ZM86 8C89.3137 8 92 10.6863 92 14H96C96 8.47715 91.5229 4 86 4V8ZM16 8H86V4H16V8ZM55.6172 54.5907C57.2654 52.8974 59.6375 52 62.1547 52V48C58.717 48 55.2562 49.2268 52.7509 51.8008L55.6172 54.5907ZM40.0486 52C42.5852 52 44.9591 52.9017 46.5631 54.6137L49.4821 51.8788C46.9964 49.2258 43.4933 48 40.0486 48V52Z" fill="white" mask="url(#path-1-inside-1_805_7180)"/>
<rect x="10" y="8" width="40" height="40" rx="6" fill="#BD3685"/>
<path fill-rule="evenodd" clip-rule="evenodd" d="M24.4049 34.5173C24.8599 34.9723 24.8599 35.7143 24.4049 36.1693L21.4928 39.0883C21.0308 39.5433 20.2962 39.5433 19.8412 39.0883C19.3863 38.6333 19.3863 37.8913 19.8412 37.4363L22.7534 34.5173C23.2154 34.0623 23.9499 34.0623 24.4049 34.5173ZM35.5912 34.5173C36.0462 34.0623 36.7808 34.0623 37.2428 34.5173L40.1549 37.4363C40.6099 37.8913 40.6099 38.6333 40.1549 39.0883C39.6999 39.5433 38.9654 39.5433 38.5034 39.0883L35.5912 36.1693C35.1362 35.7143 35.1362 34.9723 35.5912 34.5173Z" fill="white"/>
<path fill-rule="evenodd" clip-rule="evenodd" d="M21.1986 20.9721C21.6676 18.1581 24.1041 16.1001 26.9531 16.1001H33.0426C35.8986 16.1001 38.3281 18.1581 38.7971 20.9721L40.3365 30.2121C40.8475 33.2501 38.881 36.2461 35.71 36.6731C33.995 36.9041 31.9579 37.1001 29.9979 37.1001C28.0379 37.1001 26.0077 36.9041 24.2857 36.6731C21.1217 36.2461 19.1552 33.2501 19.6592 30.2121L21.1986 20.9721ZM26.9531 18.4311C25.2451 18.4311 23.7817 19.6701 23.5017 21.3571L23.0751 23.9191C24.0201 24.9271 25.2587 25.5851 26.5047 26.0051C27.8977 26.4671 29.2279 26.6001 29.9979 26.6001C30.7679 26.6001 32.098 26.4671 33.491 26.0051C34.737 25.5921 35.9761 24.9271 36.9281 23.9191L36.5009 21.3571C36.2139 19.6701 34.7576 18.4311 33.0426 18.4311H26.9531ZM26.4979 30.0931C25.8539 30.0931 25.3289 30.6181 25.3289 31.2621C25.3289 31.9061 25.8539 32.4311 26.4979 32.4311C27.1489 32.4311 27.6668 31.9061 27.6668 31.2621C27.6668 30.6181 27.1489 30.0931 26.4979 30.0931ZM33.4842 30.0931C32.8402 30.0931 32.3221 30.6181 32.3221 31.2621C32.3221 31.9061 32.8402 32.4311 33.4842 32.4311H33.4979C34.1419 32.4311 34.6668 31.9061 34.6668 31.2621C34.6668 30.6181 34.1419 30.0931 33.4979 30.0931H33.4842Z" fill="white"/>
<rect x="52" y="8" width="40" height="40" rx="6" fill="#334DCE"/>
<path fill-rule="evenodd" clip-rule="evenodd" d="M59.3999 24.3248C59.3999 23.165 60.3401 22.2248 61.4999 22.2248H78.9999C82.4793 22.2248 85.2999 25.0454 85.2999 28.5248V32.7248C85.2999 33.8846 84.3644 34.8248 83.2046 34.8248C76.3612 34.8248 63.3829 34.8248 61.4999 34.8248C60.3401 34.8248 59.3999 33.8846 59.3999 32.7248V24.3248ZM61.4999 25.0248C61.4999 24.6382 61.8133 24.3248 62.1999 24.3248H64.297C64.6836 24.3248 64.997 24.6382 64.997 25.0248V28.5248C64.997 28.9114 64.6836 29.2248 64.297 29.2248H62.1999C61.8499 29.2248 61.4999 28.8748 61.4999 28.5248V25.0248ZM67.1075 24.3248C66.7209 24.3248 66.4075 24.6382 66.4075 25.0248L66.3999 28.5248C66.3999 28.8748 66.7499 29.2248 67.0999 29.2248H69.9075C70.2941 29.2248 70.6075 28.9114 70.6075 28.5248V25.0248C70.6075 24.6382 70.2941 24.3248 69.9075 24.3248H67.1075ZM72.018 25.0248C72.018 24.6382 72.3314 24.3248 72.718 24.3248H75.518C75.9046 24.3248 76.218 24.6382 76.218 25.0248V28.5248C76.218 28.9114 75.9046 29.2248 75.518 29.2248H73.418C72.6448 29.2248 71.9999 29.298 71.9999 28.5248L72.018 25.0248ZM78.3285 24.3248C77.9419 24.3248 77.6285 24.6382 77.6285 25.0248V28.5248C77.6285 28.9114 77.9419 29.2248 78.3285 29.2248H82.5285C82.9151 29.2248 83.2285 28.9114 83.2285 28.5248C83.2285 26.2052 81.3481 24.3248 79.0285 24.3248H78.3285Z" fill="white"/>
<path fill-rule="evenodd" clip-rule="evenodd" d="M59.9249 36.9248C59.9249 36.4416 60.3167 36.0498 60.7999 36.0498L83.8999 36.0498C84.3832 36.0498 84.7749 36.4416 84.7749 36.9248C84.7749 37.4081 84.3832 37.7998 83.8999 37.7998L60.7999 37.7998C60.3167 37.7998 59.9249 37.4081 59.9249 36.9248Z" fill="white"/>
<path fill-rule="evenodd" clip-rule="evenodd" d="M68.3249 19.4248C68.3249 18.9416 68.7167 18.5498 69.1999 18.5498H74.7999C75.1454 18.5498 75.4586 18.7532 75.5992 19.0688C75.7398 19.3845 75.6814 19.7533 75.4503 20.0101L72.3003 23.5101C71.977 23.8693 71.4238 23.8985 71.0646 23.5752C70.7054 23.2519 70.6762 22.6987 70.9995 22.3395L72.8352 20.2998H69.1999C68.7167 20.2998 68.3249 19.9081 68.3249 19.4248Z" fill="white"/>
</g>
<defs>
<filter id="filter0_d_805_7180" x="0" y="0" width="102" height="65" filterUnits="userSpaceOnUse" color-interpolation-filters="sRGB">
<feFlood flood-opacity="0" result="BackgroundImageFix"/>
<feColorMatrix in="SourceAlpha" type="matrix" values="0 0 0 0 0 0 0 0 0 0 0 0 0 0 0 0 0 0 127 0" result="hardAlpha"/>
<feOffset dy="2"/>
<feGaussianBlur stdDeviation="4"/>
<feColorMatrix type="matrix" values="0 0 0 0 0 0 0 0 0 0 0 0 0 0 0 0 0 0 0.16 0"/>
<feBlend mode="normal" in2="BackgroundImageFix" result="effect1_dropShadow_805_7180"/>
<feBlend mode="normal" in="SourceGraphic" in2="effect1_dropShadow_805_7180" result="shape"/>
</filter>
</defs>
</svg>
