<svg width="44" height="44" viewBox="0 0 44 44" fill="none" xmlns="http://www.w3.org/2000/svg">
<g filter="url(#filter0_d_8318_8004)">
<g clip-path="url(#clip0_8318_8004)">
<rect x="8" y="8" width="28" height="28" rx="4" fill="#37424A"/>
<path fill-rule="evenodd" clip-rule="evenodd" d="M21.628 13.7546C21.8626 13.6373 22.1387 13.6373 22.3733 13.7546L30.7067 17.9213C30.989 18.0624 31.1673 18.351 31.1673 18.6666V29.5C31.1673 29.9602 30.7942 30.3333 30.334 30.3333C29.8737 30.3333 29.5007 29.9602 29.5007 29.5V19.1817L22.0007 15.4317L14.5007 19.1817V29.5C14.5007 29.9602 14.1276 30.3333 13.6673 30.3333C13.2071 30.3333 12.834 29.9602 12.834 29.5V18.6666C12.834 18.351 13.0123 18.0624 13.2946 17.9213L21.628 13.7546Z" fill="white"/>
<path fill-rule="evenodd" clip-rule="evenodd" d="M18.6673 27C19.1276 27 19.5007 27.373 19.5007 27.8333V29.5C19.5007 29.9602 19.1276 30.3333 18.6673 30.3333C18.2071 30.3333 17.834 29.9602 17.834 29.5V27.8333C17.834 27.373 18.2071 27 18.6673 27ZM25.334 27C25.7942 27 26.1673 27.373 26.1673 27.8333V29.5C26.1673 29.9602 25.7942 30.3333 25.334 30.3333C24.8737 30.3333 24.5007 29.9602 24.5007 29.5V27.8333C24.5007 27.373 24.8737 27 25.334 27Z" fill="white"/>
<path fill-rule="evenodd" clip-rule="evenodd" d="M20.3855 21.1666C20.0031 21.1666 19.6698 21.4269 19.577 21.7979L19.0593 23.8687C18.9477 24.3152 18.4952 24.5867 18.0487 24.475C17.6022 24.3635 17.3308 23.911 17.4424 23.4645L17.9601 21.3936C18.2384 20.2807 19.2383 19.5 20.3855 19.5H23.6162C24.7634 19.5 25.7633 20.2807 26.0416 21.3936L26.5593 23.4645C26.6709 23.911 26.3995 24.3635 25.953 24.475C25.5065 24.5867 25.054 24.3152 24.9424 23.8687L24.4247 21.7979C24.3319 21.4269 23.9987 21.1666 23.6162 21.1666H20.3855Z" fill="white"/>
<path fill-rule="evenodd" clip-rule="evenodd" d="M18.6673 22.8333C17.2866 22.8333 16.1673 23.9525 16.1673 25.3333V26.1666C16.1673 27.5474 17.2866 28.6666 18.6673 28.6666H25.334C26.7147 28.6666 27.834 27.5474 27.834 26.1666V25.3333C27.834 23.9525 26.7147 22.8333 25.334 22.8333H18.6673ZM20.334 25.75C20.334 25.2897 19.9609 24.9166 19.5007 24.9166C19.0404 24.9166 18.6673 25.2897 18.6673 25.75V25.7583C18.6673 26.2185 19.0404 26.5916 19.5007 26.5916C19.9609 26.5916 20.334 26.2185 20.334 25.7583V25.75ZM25.334 25.75C25.334 25.2897 24.9609 24.9166 24.5007 24.9166C24.0404 24.9166 23.6673 25.2897 23.6673 25.75V25.7583C23.6673 26.2185 24.0404 26.5916 24.5007 26.5916C24.9609 26.5916 25.334 26.2185 25.334 25.7583V25.75Z" fill="white"/>
</g>
<rect x="9" y="9" width="26" height="26" rx="3" stroke="white" stroke-width="2"/>
</g>
<defs>
<filter id="filter0_d_8318_8004" x="0" y="0" width="44" height="44" filterUnits="userSpaceOnUse" color-interpolation-filters="sRGB">
<feFlood flood-opacity="0" result="BackgroundImageFix"/>
<feColorMatrix in="SourceAlpha" type="matrix" values="0 0 0 0 0 0 0 0 0 0 0 0 0 0 0 0 0 0 127 0" result="hardAlpha"/>
<feOffset/>
<feGaussianBlur stdDeviation="4"/>
<feColorMatrix type="matrix" values="0 0 0 0 0 0 0 0 0 0 0 0 0 0 0 0 0 0 0.23 0"/>
<feBlend mode="normal" in2="BackgroundImageFix" result="effect1_dropShadow_8318_8004"/>
<feBlend mode="normal" in="SourceGraphic" in2="effect1_dropShadow_8318_8004" result="shape"/>
</filter>
<clipPath id="clip0_8318_8004">
<rect x="8" y="8" width="28" height="28" rx="4" fill="white"/>
</clipPath>
</defs>
</svg>
