<svg width="60" height="65" viewBox="0 0 60 65" fill="none" xmlns="http://www.w3.org/2000/svg">
<g filter="url(#filter0_d_805_7132)">
<mask id="path-1-inside-1_805_7132" fill="white">
<path fill-rule="evenodd" clip-rule="evenodd" d="M16 6C11.5817 6 8 9.58172 8 14V27.7577V42C8 46.4183 11.5817 50 16 50H19.0486C22.0393 50 24.9778 51.0638 27.0226 53.2462C27.2503 53.4893 27.4744 53.7343 27.6944 53.9815C28.879 55.312 31.1727 55.3473 32.384 54.0382C32.6457 53.7553 32.9126 53.4746 33.184 53.1957C35.2608 51.0621 38.1772 50 41.1547 50H44C48.4183 50 52 46.4183 52 42V27.7577V14C52 9.58172 48.4183 6 44 6H16Z"/>
</mask>
<path fill-rule="evenodd" clip-rule="evenodd" d="M16 6C11.5817 6 8 9.58172 8 14V27.7577V42C8 46.4183 11.5817 50 16 50H19.0486C22.0393 50 24.9778 51.0638 27.0226 53.2462C27.2503 53.4893 27.4744 53.7343 27.6944 53.9815C28.879 55.312 31.1727 55.3473 32.384 54.0382C32.6457 53.7553 32.9126 53.4746 33.184 53.1957C35.2608 51.0621 38.1772 50 41.1547 50H44C48.4183 50 52 46.4183 52 42V27.7577V14C52 9.58172 48.4183 6 44 6H16Z" fill="#418083"/>
<path d="M27.6944 53.9815L26.2005 55.3112L26.2006 55.3114L27.6944 53.9815ZM32.384 54.0382L33.852 55.3965L33.8521 55.3964L32.384 54.0382ZM27.0226 53.2462L25.5631 54.6137L27.0226 53.2462ZM10 14C10 10.6863 12.6863 8 16 8V4C10.4772 4 6 8.47715 6 14H10ZM10 27.7577V14H6V27.7577H10ZM10 42V27.7577H6V42H10ZM16 48C12.6863 48 10 45.3137 10 42H6C6 47.5228 10.4772 52 16 52V48ZM19.0486 48H16V52H19.0486V48ZM25.5631 54.6137C25.7799 54.8451 25.9925 55.0776 26.2005 55.3112L29.1883 52.6517C28.9563 52.3911 28.7207 52.1335 28.4821 51.8788L25.5631 54.6137ZM26.2006 55.3114C28.1611 57.5134 31.8291 57.5827 33.852 55.3965L30.916 52.6799C30.5164 53.1118 29.597 53.1107 29.1882 52.6516L26.2006 55.3114ZM33.8521 55.3964C34.1015 55.1269 34.3567 54.8584 34.6172 54.5907L31.7509 51.8008C31.4686 52.0907 31.19 52.3837 30.9159 52.68L33.8521 55.3964ZM44 48H41.1547V52H44V48ZM50 42C50 45.3137 47.3137 48 44 48V52C49.5228 52 54 47.5228 54 42H50ZM50 27.7577V42H54V27.7577H50ZM50 14V27.7577H54V14H50ZM44 8C47.3137 8 50 10.6863 50 14H54C54 8.47715 49.5228 4 44 4V8ZM16 8H44V4H16V8ZM34.6172 54.5907C36.2654 52.8974 38.6375 52 41.1547 52V48C37.717 48 34.2562 49.2268 31.7509 51.8008L34.6172 54.5907ZM19.0486 52C21.5852 52 23.9591 52.9017 25.5631 54.6137L28.4821 51.8788C25.9964 49.2258 22.4933 48 19.0486 48V52Z" fill="white" mask="url(#path-1-inside-1_805_7132)"/>
<path d="M40.8318 31.23C40.4851 30.9149 40.107 30.5683 39.3822 30.5683C38.6575 30.5683 38.2793 30.9149 37.9327 31.23C37.6176 31.5136 37.334 31.7657 36.7668 31.7657C36.1996 31.7657 35.916 31.5136 35.6009 31.23C35.2543 30.9149 34.8761 30.5683 34.1514 30.5683C33.4266 30.5683 33.0485 30.9149 32.7019 31.23C32.3867 31.5136 32.1031 31.7657 31.5359 31.7657C30.9687 31.7657 30.6851 31.5136 30.37 31.23C30.2125 31.0724 30.0234 30.9149 29.8028 30.7888C29.8028 30.7888 29.7398 30.7888 29.7083 30.7888C29.4877 30.6943 29.2671 30.6313 28.952 30.6313C28.2273 30.6313 27.8491 30.9779 27.534 31.293C27.2189 31.5766 26.9668 31.8287 26.3996 31.8287C25.8324 31.8287 25.5488 31.5766 25.2652 31.293C24.9186 30.9779 24.5719 30.6313 23.8472 30.6313C23.1224 30.6313 22.7443 30.9779 22.4292 31.293C22.1141 31.5766 21.862 31.8287 21.2633 31.8287C20.6646 31.8287 20.4125 31.5766 20.1289 31.293C19.9398 31.1355 19.7507 30.9464 19.4671 30.7888L19.3096 31.8287C19.5301 31.9232 19.6877 32.0808 19.8453 32.2384C20.1919 32.5535 20.57 32.9001 21.2633 32.9001C21.9565 32.9001 22.3662 32.5535 22.6813 32.2384C22.9964 31.9548 23.2485 31.7027 23.8157 31.7027C24.3829 31.7027 24.6665 31.9548 24.9816 32.2384C25.3282 32.5535 25.6748 32.9001 26.3996 32.9001C27.1244 32.9001 27.5025 32.5535 27.8176 32.2384C28.1327 31.9548 28.3848 31.7027 28.9835 31.7027C29.5822 31.7027 29.4562 31.7657 29.6453 31.8602C29.8028 31.9548 29.9604 32.0808 30.0864 32.2069C30.4015 32.4905 30.7797 32.8371 31.5044 32.8371C32.2292 32.8371 32.6073 32.4905 32.9539 32.1753C33.2691 31.8917 33.5211 31.6396 34.1199 31.6396C34.7186 31.6396 34.9707 31.8917 35.2858 32.1753C35.6324 32.4905 36.0105 32.8371 36.7353 32.8371C37.4601 32.8371 37.8382 32.4905 38.1848 32.1753C38.4999 31.8917 38.7835 31.6396 39.3507 31.6396C39.9179 31.6396 40.2015 31.8917 40.5166 32.1753L40.8633 31.293C40.8633 31.293 40.8002 31.23 40.7372 31.1985V31.2615L40.8318 31.23Z" fill="white"/>
<path d="M29.6768 30.7573C29.4877 30.6628 29.2986 30.5998 29.015 30.5998C28.7314 30.5998 28.5109 30.6628 28.3218 30.7888L29.7083 30.7888L29.6768 30.7888V30.7573Z" fill="white"/>
<path d="M23.0909 30.8204H24.5719C24.3829 30.6943 24.1623 30.5998 23.8472 30.5998C23.5321 30.5998 23.28 30.6943 23.0909 30.8204Z" fill="white"/>
<path d="M42.5964 26.4403H39.6658L35.1597 23.1001H23.343C23.1539 23.1001 22.9964 23.2577 22.9649 23.4467L22.2716 26.4403H21.1687C20.9797 26.4403 20.8221 26.5663 20.7906 26.7239L19.9398 29.7805L19.8453 29.875C19.9713 29.9696 20.0658 30.0641 20.1919 30.1586C20.507 30.4422 20.7591 30.6943 21.3263 30.6943C21.8935 30.6943 22.1771 30.4422 22.4922 30.1586C22.8388 29.8435 23.1855 29.4969 23.9102 29.4969C24.635 29.4969 25.0131 29.8435 25.3282 30.1586C25.6433 30.4422 25.8954 30.6943 26.4626 30.6943C27.0298 30.6943 27.3134 30.4422 27.597 30.1586C27.9437 29.8435 28.2903 29.4969 29.015 29.4969C29.7398 29.4969 29.5822 29.5599 29.7713 29.6544C30.0549 29.7805 30.244 29.9696 30.4646 30.1271C30.7797 30.4107 31.0633 30.6628 31.6305 30.6628C32.1977 30.6628 32.4813 30.4107 32.7964 30.1271C33.143 29.812 33.5211 29.4654 34.2459 29.4654C34.9707 29.4654 35.3488 29.812 35.6954 30.1271C36.0105 30.4107 36.2941 30.6628 36.8613 30.6628C37.4285 30.6628 37.7121 30.4107 38.0273 30.1271C38.3739 29.812 38.752 29.4654 39.4768 29.4654C40.2015 29.4654 40.2646 29.5914 40.5166 29.7805L42.6909 26.7554C42.6909 26.7554 42.6909 26.6924 42.6909 26.6294C42.6909 26.5033 42.5964 26.4088 42.4703 26.4088H42.5649L42.5964 26.4403ZM27.1244 26.4403H23.1539L23.5321 24.8017H27.0613V24.8647H27.1244V26.4718V26.4403ZM31.0633 26.4403H27.5655V24.8017H31.0633V26.4403ZM31.6305 26.4403V24.8017H35.7269L37.9642 26.4403H31.6305Z" fill="white"/>
<path d="M33.6157 30.7573H34.9076C34.7501 30.6628 34.5295 30.5998 34.2774 30.5998C34.0253 30.5998 33.8047 30.6628 33.6157 30.7573Z" fill="white"/>
<path d="M39.5398 30.5998C39.2877 30.5998 39.1301 30.5998 38.9411 30.7258H39.8234L39.8864 30.6628C39.7919 30.6628 39.6658 30.6628 39.5398 30.6628V30.5998Z" fill="white"/>
</g>
<defs>
<filter id="filter0_d_805_7132" x="0" y="0" width="60" height="65" filterUnits="userSpaceOnUse" color-interpolation-filters="sRGB">
<feFlood flood-opacity="0" result="BackgroundImageFix"/>
<feColorMatrix in="SourceAlpha" type="matrix" values="0 0 0 0 0 0 0 0 0 0 0 0 0 0 0 0 0 0 127 0" result="hardAlpha"/>
<feOffset dy="2"/>
<feGaussianBlur stdDeviation="4"/>
<feColorMatrix type="matrix" values="0 0 0 0 0 0 0 0 0 0 0 0 0 0 0 0 0 0 0.16 0"/>
<feBlend mode="normal" in2="BackgroundImageFix" result="effect1_dropShadow_805_7132"/>
<feBlend mode="normal" in="SourceGraphic" in2="effect1_dropShadow_805_7132" result="shape"/>
</filter>
</defs>
</svg>
