<svg width="44" height="44" viewBox="0 0 44 44" fill="none" xmlns="http://www.w3.org/2000/svg">
<g filter="url(#filter0_d_8318_7996)">
<g clip-path="url(#clip0_8318_7996)">
<rect x="8" y="6" width="28" height="28" rx="4" fill="#BD3685"/>
<path fill-rule="evenodd" clip-rule="evenodd" d="M12.8359 12.5C12.8359 12.04 13.206 11.665 13.666 11.665H19.781C21.401 11.665 22.981 12.19 24.281 13.165L29.166 16.83C30.426 17.775 31.166 19.255 31.166 20.83C31.166 22.21 30.051 23.33 28.666 23.33H13.666C13.206 23.33 12.8359 22.955 12.8359 22.495V20.62H18.6709C19.0159 20.62 19.2959 20.34 19.2959 19.995C19.2959 17.81 17.5209 16.035 15.3359 16.035H12.8359V12.495V12.5ZM12.8359 17.29V19.375H17.9709C17.6909 18.18 16.6159 17.29 15.3359 17.29H12.8359ZM28.166 18.165C28.321 18.28 28.4609 18.405 28.5859 18.54H26.166C24.211 18.54 22.626 16.955 22.626 15V14.075C22.851 14.2 23.071 14.345 23.281 14.5L28.166 18.165Z" fill="white"/>
<path fill-rule="evenodd" clip-rule="evenodd" d="M12.8359 25.835C12.8359 25.375 13.206 25 13.666 25H30.3359C30.7959 25 31.166 25.375 31.166 25.835C31.166 26.295 30.7959 26.67 30.3359 26.67H13.666C13.206 26.67 12.8359 26.295 12.8359 25.835Z" fill="white"/>
<path fill-rule="evenodd" clip-rule="evenodd" d="M17.001 25C17.461 25 17.8359 25.375 17.8359 25.835V27.5C17.8359 27.96 17.461 28.335 17.001 28.335C16.541 28.335 16.166 27.96 16.166 27.5V25.835C16.166 25.375 16.541 25 17.001 25ZM22.001 25C22.461 25 22.8359 25.375 22.8359 25.835V27.5C22.8359 27.96 22.461 28.335 22.001 28.335C21.541 28.335 21.166 27.96 21.166 27.5V25.835C21.166 25.375 21.541 25 22.001 25ZM27.001 25C27.461 25 27.8359 25.375 27.8359 25.835V27.5C27.8359 27.96 27.461 28.335 27.001 28.335C26.541 28.335 26.166 27.96 26.166 27.5V25.835C26.166 25.375 26.541 25 27.001 25Z" fill="white"/>
</g>
<rect x="9" y="7" width="26" height="26" rx="3" stroke="white" stroke-width="2"/>
</g>
<defs>
<filter id="filter0_d_8318_7996" x="0" y="0" width="44" height="44" filterUnits="userSpaceOnUse" color-interpolation-filters="sRGB">
<feFlood flood-opacity="0" result="BackgroundImageFix"/>
<feColorMatrix in="SourceAlpha" type="matrix" values="0 0 0 0 0 0 0 0 0 0 0 0 0 0 0 0 0 0 127 0" result="hardAlpha"/>
<feOffset dy="2"/>
<feGaussianBlur stdDeviation="4"/>
<feColorMatrix type="matrix" values="0 0 0 0 0 0 0 0 0 0 0 0 0 0 0 0 0 0 0.16 0"/>
<feBlend mode="normal" in2="BackgroundImageFix" result="effect1_dropShadow_8318_7996"/>
<feBlend mode="normal" in="SourceGraphic" in2="effect1_dropShadow_8318_7996" result="shape"/>
</filter>
<clipPath id="clip0_8318_7996">
<rect x="8" y="6" width="28" height="28" rx="4" fill="white"/>
</clipPath>
</defs>
</svg>
