<svg width="60" height="65" viewBox="0 0 60 65" fill="none" xmlns="http://www.w3.org/2000/svg">
<g filter="url(#filter0_d_8318_8041)">
<mask id="path-1-inside-1_8318_8041" fill="white">
<path fill-rule="evenodd" clip-rule="evenodd" d="M16 8C11.5817 8 8 11.5817 8 16V29.7577V44C8 48.4183 11.5817 52 16 52H19.0486C22.0393 52 24.9778 53.0638 27.0226 55.2462C27.2503 55.4893 27.4744 55.7343 27.6944 55.9815C28.879 57.312 31.1727 57.3473 32.384 56.0382C32.6457 55.7553 32.9126 55.4746 33.184 55.1957C35.2608 53.0621 38.1772 52 41.1547 52H44C48.4183 52 52 48.4183 52 44V29.7577V16C52 11.5817 48.4183 8 44 8H16Z"/>
</mask>
<path fill-rule="evenodd" clip-rule="evenodd" d="M16 8C11.5817 8 8 11.5817 8 16V29.7577V44C8 48.4183 11.5817 52 16 52H19.0486C22.0393 52 24.9778 53.0638 27.0226 55.2462C27.2503 55.4893 27.4744 55.7343 27.6944 55.9815C28.879 57.312 31.1727 57.3473 32.384 56.0382C32.6457 55.7553 32.9126 55.4746 33.184 55.1957C35.2608 53.0621 38.1772 52 41.1547 52H44C48.4183 52 52 48.4183 52 44V29.7577V16C52 11.5817 48.4183 8 44 8H16Z" fill="#37424A"/>
<path d="M27.6944 55.9815L26.2005 57.3112L26.2006 57.3114L27.6944 55.9815ZM32.384 56.0382L33.852 57.3965L33.8521 57.3964L32.384 56.0382ZM27.0226 55.2462L25.5631 56.6137L27.0226 55.2462ZM8 16H10C10 12.6863 12.6863 10 16 10V8V6C10.4772 6 6 10.4772 6 16H8ZM8 29.7577H10V16H8H6V29.7577H8ZM8 44H10V29.7577H8H6V44H8ZM16 52V50C12.6863 50 10 47.3137 10 44H8H6C6 49.5228 10.4772 54 16 54V52ZM19.0486 52V50H16V52V54H19.0486V52ZM27.0226 55.2462L25.5631 56.6137C25.7799 56.8451 25.9925 57.0776 26.2005 57.3112L27.6944 55.9815L29.1883 54.6517C28.9563 54.3911 28.7207 54.1335 28.4821 53.8788L27.0226 55.2462ZM27.6944 55.9815L26.2006 57.3114C28.1611 59.5134 31.8291 59.5827 33.852 57.3965L32.384 56.0382L30.916 54.6799C30.5164 55.1118 29.597 55.1107 29.1882 54.6516L27.6944 55.9815ZM32.384 56.0382L33.8521 57.3964C34.1015 57.1269 34.3567 56.8584 34.6172 56.5907L33.184 55.1957L31.7509 53.8008C31.4686 54.0907 31.19 54.3837 30.9159 54.68L32.384 56.0382ZM44 52V50H41.1547V52V54H44V52ZM52 44H50C50 47.3137 47.3137 50 44 50V52V54C49.5228 54 54 49.5228 54 44H52ZM52 29.7577H50V44H52H54V29.7577H52ZM52 16H50V29.7577H52H54V16H52ZM44 8V10C47.3137 10 50 12.6863 50 16H52H54C54 10.4772 49.5228 6 44 6V8ZM16 8V10H44V8V6H16V8ZM33.184 55.1957L34.6172 56.5907C36.2654 54.8974 38.6375 54 41.1547 54V52V50C37.717 50 34.2562 51.2268 31.7509 53.8008L33.184 55.1957ZM19.0486 52V54C21.5852 54 23.9591 54.9017 25.5631 56.6137L27.0226 55.2462L28.4821 53.8788C25.9964 51.2258 22.4933 50 19.0486 50V52Z" fill="white" mask="url(#path-1-inside-1_8318_8041)"/>
<path fill-rule="evenodd" clip-rule="evenodd" d="M29.4776 18.4565C29.806 18.2923 30.1927 18.2923 30.5211 18.4565L42.1877 24.2899C42.583 24.4875 42.8327 24.8915 42.8327 25.3334V40.5C42.8327 41.1444 42.3104 41.6667 41.666 41.6667C41.0217 41.6667 40.4993 41.1444 40.4993 40.5V26.0544L29.9993 20.8044L19.4993 26.0544V40.5C19.4993 41.1444 18.977 41.6667 18.3327 41.6667C17.6884 41.6667 17.166 41.1444 17.166 40.5V25.3334C17.166 24.8915 17.4157 24.4875 17.8109 24.2899L29.4776 18.4565Z" fill="white"/>
<path fill-rule="evenodd" clip-rule="evenodd" d="M25.3327 37C25.977 37 26.4993 37.5224 26.4993 38.1667V40.5C26.4993 41.1444 25.977 41.6667 25.3327 41.6667C24.6884 41.6667 24.166 41.1444 24.166 40.5V38.1667C24.166 37.5224 24.6884 37 25.3327 37ZM34.666 37C35.3104 37 35.8327 37.5224 35.8327 38.1667V40.5C35.8327 41.1444 35.3104 41.6667 34.666 41.6667C34.0217 41.6667 33.4993 41.1444 33.4993 40.5V38.1667C33.4993 37.5224 34.0217 37 34.666 37Z" fill="white"/>
<path fill-rule="evenodd" clip-rule="evenodd" d="M27.7381 28.8334C27.2028 28.8334 26.7361 29.1977 26.6063 29.7171L25.8815 32.6163C25.7252 33.2414 25.0918 33.6215 24.4667 33.4652C23.8416 33.3089 23.4615 32.6756 23.6178 32.0505L24.3426 29.1512C24.7321 27.5931 26.1321 26.5 27.7381 26.5H32.2612C33.8672 26.5 35.2671 27.5931 35.6566 29.1512L36.3815 32.0505C36.5377 32.6756 36.1577 33.3089 35.5326 33.4652C34.9075 33.6215 34.274 33.2414 34.1178 32.6163L33.393 29.7171C33.2631 29.1977 32.7965 28.8334 32.2612 28.8334H27.7381Z" fill="white"/>
<path fill-rule="evenodd" clip-rule="evenodd" d="M25.3327 31.1667C23.3997 31.1667 21.8327 32.7337 21.8327 34.6667V35.8334C21.8327 37.7664 23.3997 39.3334 25.3327 39.3334H34.666C36.5991 39.3334 38.166 37.7664 38.166 35.8334V34.6667C38.166 32.7337 36.5991 31.1667 34.666 31.1667H25.3327ZM27.666 35.25C27.666 34.6057 27.1437 34.0834 26.4993 34.0834C25.855 34.0834 25.3327 34.6057 25.3327 35.25V35.2617C25.3327 35.9061 25.855 36.4284 26.4993 36.4284C27.1437 36.4284 27.666 35.9061 27.666 35.2617V35.25ZM34.666 35.25C34.666 34.6057 34.1437 34.0834 33.4993 34.0834C32.855 34.0834 32.3327 34.6057 32.3327 35.25V35.2617C32.3327 35.9061 32.855 36.4284 33.4993 36.4284C34.1437 36.4284 34.666 35.9061 34.666 35.2617V35.25Z" fill="white"/>
</g>
<defs>
<filter id="filter0_d_8318_8041" x="0" y="0" width="60" height="65" filterUnits="userSpaceOnUse" color-interpolation-filters="sRGB">
<feFlood flood-opacity="0" result="BackgroundImageFix"/>
<feColorMatrix in="SourceAlpha" type="matrix" values="0 0 0 0 0 0 0 0 0 0 0 0 0 0 0 0 0 0 127 0" result="hardAlpha"/>
<feOffset/>
<feGaussianBlur stdDeviation="4"/>
<feColorMatrix type="matrix" values="0 0 0 0 0 0 0 0 0 0 0 0 0 0 0 0 0 0 0.23 0"/>
<feBlend mode="normal" in2="BackgroundImageFix" result="effect1_dropShadow_8318_8041"/>
<feBlend mode="normal" in="SourceGraphic" in2="effect1_dropShadow_8318_8041" result="shape"/>
</filter>
</defs>
</svg>
