<svg width="60" height="65" viewBox="0 0 60 65" fill="none" xmlns="http://www.w3.org/2000/svg">
<g filter="url(#filter0_d_8318_8026)">
<mask id="path-1-inside-1_8318_8026" fill="white">
<path fill-rule="evenodd" clip-rule="evenodd" d="M16 6C11.5817 6 8 9.58172 8 14V27.7577V42C8 46.4183 11.5817 50 16 50H19.0486C22.0393 50 24.9778 51.0638 27.0226 53.2462C27.2503 53.4893 27.4744 53.7343 27.6944 53.9815C28.879 55.312 31.1727 55.3473 32.384 54.0382C32.6457 53.7553 32.9126 53.4746 33.184 53.1957C35.2608 51.0621 38.1772 50 41.1547 50H44C48.4183 50 52 46.4183 52 42V27.7577V14C52 9.58172 48.4183 6 44 6H16Z"/>
</mask>
<path fill-rule="evenodd" clip-rule="evenodd" d="M16 6C11.5817 6 8 9.58172 8 14V27.7577V42C8 46.4183 11.5817 50 16 50H19.0486C22.0393 50 24.9778 51.0638 27.0226 53.2462C27.2503 53.4893 27.4744 53.7343 27.6944 53.9815C28.879 55.312 31.1727 55.3473 32.384 54.0382C32.6457 53.7553 32.9126 53.4746 33.184 53.1957C35.2608 51.0621 38.1772 50 41.1547 50H44C48.4183 50 52 46.4183 52 42V27.7577V14C52 9.58172 48.4183 6 44 6H16Z" fill="#418083"/>
<path d="M27.6944 53.9815L26.2005 55.3112L26.2006 55.3114L27.6944 53.9815ZM32.384 54.0382L33.852 55.3965L33.8521 55.3964L32.384 54.0382ZM27.0226 53.2462L25.5631 54.6137L27.0226 53.2462ZM8 14H10C10 10.6863 12.6863 8 16 8V6V4C10.4772 4 6 8.47715 6 14H8ZM8 27.7577H10V14H8H6V27.7577H8ZM8 42H10V27.7577H8H6V42H8ZM16 50V48C12.6863 48 10 45.3137 10 42H8H6C6 47.5228 10.4772 52 16 52V50ZM19.0486 50V48H16V50V52H19.0486V50ZM27.0226 53.2462L25.5631 54.6137C25.7799 54.8451 25.9925 55.0776 26.2005 55.3112L27.6944 53.9815L29.1883 52.6517C28.9563 52.3911 28.7207 52.1335 28.4821 51.8788L27.0226 53.2462ZM27.6944 53.9815L26.2006 55.3114C28.1611 57.5134 31.8291 57.5827 33.852 55.3965L32.384 54.0382L30.916 52.6799C30.5164 53.1118 29.597 53.1107 29.1882 52.6515L27.6944 53.9815ZM32.384 54.0382L33.8521 55.3964C34.1015 55.1269 34.3567 54.8584 34.6172 54.5907L33.184 53.1957L31.7509 51.8008C31.4686 52.0907 31.19 52.3837 30.9159 52.68L32.384 54.0382ZM44 50V48H41.1547V50V52H44V50ZM52 42H50C50 45.3137 47.3137 48 44 48V50V52C49.5228 52 54 47.5228 54 42H52ZM52 27.7577H50V42H52H54V27.7577H52ZM52 14H50V27.7577H52H54V14H52ZM44 6V8C47.3137 8 50 10.6863 50 14H52H54C54 8.47715 49.5228 4 44 4V6ZM16 6V8H44V6V4H16V6ZM33.184 53.1957L34.6172 54.5907C36.2654 52.8974 38.6375 52 41.1547 52V50V48C37.717 48 34.2562 49.2268 31.7509 51.8008L33.184 53.1957ZM19.0486 50V52C21.5852 52 23.9591 52.9017 25.5631 54.6137L27.0226 53.2462L28.4821 51.8788C25.9964 49.2258 22.4933 48 19.0486 48V50Z" fill="white" mask="url(#path-1-inside-1_8318_8026)"/>
<path d="M40.6934 38.4885C40.6934 38.4885 40.7567 38.4395 40.8127 38.3835C41.2537 37.9145 41.9956 37.8935 42.4646 38.3345C42.9336 38.7755 42.9545 39.5105 42.5135 39.9865C42.1145 40.4135 41.6246 40.7285 41.0366 40.8195C40.4556 40.9035 39.9445 40.7425 39.5525 40.5395C39.1675 40.3435 38.8316 40.0705 38.5586 39.8325C38.4186 39.7135 38.2364 39.5455 38.0684 39.3915C37.9494 39.2865 37.8447 39.1885 37.7677 39.1185C37.2217 38.6285 36.9626 38.5165 36.8366 38.5095C36.8366 38.5095 36.7668 38.5095 36.6408 38.5935C36.4868 38.6985 36.2556 38.9225 35.9616 39.3705H35.9544C35.6114 39.8885 35.1845 40.3225 34.6385 40.5465C34.0575 40.7915 33.4906 40.7425 33.0146 40.5815C32.5736 40.4345 32.1886 40.1755 31.8806 39.9515C31.6636 39.7905 31.4326 39.5945 31.2226 39.4265C31.1526 39.3635 31.0757 39.3075 31.0127 39.2515C30.4107 38.7615 30.0957 38.5935 29.8927 38.5795H29.8855C29.8855 38.5795 29.5424 38.5445 28.9544 39.4195C28.6394 39.9095 28.2195 40.3225 27.6525 40.5255C27.0785 40.7355 26.5325 40.6585 26.0915 40.5115C25.6715 40.3645 25.2935 40.1335 24.9855 39.9165C24.7755 39.7765 24.5517 39.6085 24.3487 39.4545C24.2577 39.3845 24.1665 39.3145 24.0825 39.2515C23.4595 38.7965 23.1025 38.6145 22.8575 38.6005C22.7875 38.6005 22.4794 38.5795 21.9684 39.3635H21.9616C21.4506 40.1335 20.6806 40.8125 19.6586 40.8125C18.6366 40.8125 17.8597 40.1335 17.3627 39.3635C17.0057 38.8245 17.1597 38.1035 17.6987 37.7465C18.2377 37.3965 18.9658 37.5435 19.3158 38.0895C19.4838 38.3485 19.6026 38.4395 19.6586 38.4675C19.7146 38.4395 19.8408 38.3485 20.0158 38.0825C20.8068 36.8785 21.8004 36.1995 23.0044 36.2695C24.0264 36.3325 24.9014 36.9485 25.4684 37.3685C25.5944 37.4595 25.7066 37.5435 25.8116 37.6205C25.9866 37.7535 26.1478 37.8725 26.3158 37.9845C26.5748 38.1595 26.7426 38.2575 26.8616 38.2925H26.8825C26.8825 38.2925 26.9526 38.2155 27.0086 38.1315C27.8276 36.8925 28.8287 36.1575 30.0537 36.2415C31.0967 36.3185 31.9575 37.0045 32.4825 37.4315C32.5875 37.5155 32.6787 37.5925 32.7627 37.6625C32.9517 37.8165 33.1126 37.9495 33.2806 38.0755C33.5186 38.2575 33.6725 38.3345 33.7635 38.3695C33.8055 38.3345 33.8896 38.2575 34.0086 38.0825C34.7856 36.8995 35.7375 36.1155 36.9415 36.1715C37.9915 36.2205 38.8175 36.9205 39.3215 37.3685C39.4825 37.5155 39.6017 37.6205 39.7067 37.7255C39.8257 37.8375 39.9375 37.9355 40.0915 38.0685C40.3225 38.2785 40.4977 38.3975 40.6237 38.4675C40.6587 38.4815 40.6794 38.4955 40.6934 38.5025V38.4885Z" fill="white"/>
<path fill-rule="evenodd" clip-rule="evenodd" d="M21.8286 22.1645C21.8286 20.8765 22.8785 19.8335 24.1665 19.8335H30.1866C31.5096 19.8335 32.7695 20.3935 33.6585 21.3805L37.8657 26.0565C38.2927 26.5325 38.2575 27.2745 37.7745 27.7015C37.2985 28.1355 36.5634 28.0935 36.1294 27.6175L31.9226 22.9415C31.4816 22.4515 30.8516 22.1715 30.1866 22.1715H24.1665V26.8405C24.1665 27.4845 23.6416 28.0095 22.9976 28.0095C22.3536 28.0095 21.8286 27.4845 21.8286 26.8405V22.1645Z" fill="white"/>
<path fill-rule="evenodd" clip-rule="evenodd" d="M22.9976 16.3267C22.9976 15.6827 23.5225 15.1577 24.1665 15.1577H26.4976C27.7856 15.1577 28.8286 16.2007 28.8286 17.4887V20.9887C28.8286 21.6327 28.3105 22.1577 27.6665 22.1577C27.0225 22.1577 26.4976 21.6327 26.4976 20.9887V17.4887H24.1665C23.5225 17.4887 22.9976 16.9637 22.9976 16.3197V16.3267Z" fill="white"/>
<path d="M18.3288 25.9518C18.0628 25.9518 17.8108 26.0708 17.6428 26.2808C17.4818 26.4908 17.4188 26.7638 17.4818 27.0228L19.5606 35.8778C20.4776 35.0028 21.6536 34.4288 23.1026 34.5128C24.6776 34.6108 25.9656 35.5558 26.5186 35.9548C27.4356 35.0308 28.6466 34.3798 30.1796 34.4848C31.7126 34.5898 32.8957 35.4998 33.4557 35.9548C34.3307 35.0448 35.4996 34.3378 37.0186 34.4078C38.5516 34.4778 39.7067 35.3668 40.2807 35.8638C40.3297 35.8078 40.3716 35.7448 40.4136 35.6888C41.1626 34.6248 41.6316 33.2598 41.9326 31.9788C42.2406 30.6838 42.3878 29.3958 42.4648 28.4368C42.4998 27.9538 42.5206 27.5548 42.5276 27.2748C42.5346 27.1348 42.5347 26.9108 42.5417 26.8268C42.5417 26.3368 42.1497 25.9448 41.6667 25.9448H18.3288V25.9518Z" fill="white"/>
</g>
<defs>
<filter id="filter0_d_8318_8026" x="0" y="0" width="60" height="65" filterUnits="userSpaceOnUse" color-interpolation-filters="sRGB">
<feFlood flood-opacity="0" result="BackgroundImageFix"/>
<feColorMatrix in="SourceAlpha" type="matrix" values="0 0 0 0 0 0 0 0 0 0 0 0 0 0 0 0 0 0 127 0" result="hardAlpha"/>
<feOffset dy="2"/>
<feGaussianBlur stdDeviation="4"/>
<feColorMatrix type="matrix" values="0 0 0 0 0 0 0 0 0 0 0 0 0 0 0 0 0 0 0.16 0"/>
<feBlend mode="normal" in2="BackgroundImageFix" result="effect1_dropShadow_8318_8026"/>
<feBlend mode="normal" in="SourceGraphic" in2="effect1_dropShadow_8318_8026" result="shape"/>
</filter>
</defs>
</svg>
