<svg width="60" height="65" viewBox="0 0 60 65" fill="none" xmlns="http://www.w3.org/2000/svg">
<g filter="url(#filter0_d_805_7112)">
<mask id="path-1-inside-1_805_7112" fill="white">
<path fill-rule="evenodd" clip-rule="evenodd" d="M16 6C11.5817 6 8 9.58172 8 14V27.7577V42C8 46.4183 11.5817 50 16 50H19.0486C22.0393 50 24.9778 51.0638 27.0226 53.2462C27.2503 53.4893 27.4744 53.7343 27.6944 53.9815C28.879 55.312 31.1727 55.3473 32.384 54.0382C32.6457 53.7553 32.9126 53.4746 33.184 53.1957C35.2608 51.0621 38.1772 50 41.1547 50H44C48.4183 50 52 46.4183 52 42V27.7577V14C52 9.58172 48.4183 6 44 6H16Z"/>
</mask>
<path fill-rule="evenodd" clip-rule="evenodd" d="M16 6C11.5817 6 8 9.58172 8 14V27.7577V42C8 46.4183 11.5817 50 16 50H19.0486C22.0393 50 24.9778 51.0638 27.0226 53.2462C27.2503 53.4893 27.4744 53.7343 27.6944 53.9815C28.879 55.312 31.1727 55.3473 32.384 54.0382C32.6457 53.7553 32.9126 53.4746 33.184 53.1957C35.2608 51.0621 38.1772 50 41.1547 50H44C48.4183 50 52 46.4183 52 42V27.7577V14C52 9.58172 48.4183 6 44 6H16Z" fill="#334DCE"/>
<path d="M27.6944 53.9815L26.2005 55.3112L26.2006 55.3114L27.6944 53.9815ZM32.384 54.0382L33.852 55.3965L33.8521 55.3964L32.384 54.0382ZM27.0226 53.2462L25.5631 54.6137L27.0226 53.2462ZM10 14C10 10.6863 12.6863 8 16 8V4C10.4772 4 6 8.47715 6 14H10ZM10 27.7577V14H6V27.7577H10ZM10 42V27.7577H6V42H10ZM16 48C12.6863 48 10 45.3137 10 42H6C6 47.5228 10.4772 52 16 52V48ZM19.0486 48H16V52H19.0486V48ZM25.5631 54.6137C25.7799 54.8451 25.9925 55.0776 26.2005 55.3112L29.1883 52.6517C28.9563 52.3911 28.7207 52.1335 28.4821 51.8788L25.5631 54.6137ZM26.2006 55.3114C28.1611 57.5134 31.8291 57.5827 33.852 55.3965L30.916 52.6799C30.5164 53.1118 29.597 53.1107 29.1882 52.6516L26.2006 55.3114ZM33.8521 55.3964C34.1015 55.1269 34.3567 54.8584 34.6172 54.5907L31.7509 51.8008C31.4686 52.0907 31.19 52.3837 30.9159 52.68L33.8521 55.3964ZM44 48H41.1547V52H44V48ZM50 42C50 45.3137 47.3137 48 44 48V52C49.5228 52 54 47.5228 54 42H50ZM50 27.7577V42H54V27.7577H50ZM50 14V27.7577H54V14H50ZM44 8C47.3137 8 50 10.6863 50 14H54C54 8.47715 49.5228 4 44 4V8ZM16 8H44V4H16V8ZM34.6172 54.5907C36.2654 52.8974 38.6375 52 41.1547 52V48C37.717 48 34.2562 49.2268 31.7509 51.8008L34.6172 54.5907ZM19.0486 52C21.5852 52 23.9591 52.9017 25.5631 54.6137L28.4821 51.8788C25.9964 49.2258 22.4933 48 19.0486 48V52Z" fill="white" mask="url(#path-1-inside-1_805_7112)"/>
<path d="M41.1998 31.5695C41.1998 31.8642 41.0373 32.028 40.7447 32.028H37.3635V31.7332C37.3635 31.0783 37.1359 30.4888 36.6483 30.0303C36.1931 29.5718 35.6079 29.3098 34.9577 29.3098C34.3075 29.3098 33.6898 29.5391 33.2346 30.0303C32.7795 30.4888 32.5194 31.0783 32.5194 31.7332C32.5194 32.3882 32.5194 31.8315 32.5194 31.8642V31.9952H27.4152V31.7005C27.4152 31.0455 27.1876 30.456 26.7325 29.9976C26.2773 29.5391 25.6921 29.2771 25.0094 29.2771C24.3267 29.2771 23.7415 29.5063 23.2863 29.9976C22.8312 30.456 22.6036 31.0455 22.6036 31.7005V31.9952H19.255C19.1249 31.9952 19.0274 31.9952 18.9298 31.8642C18.8323 31.766 18.7998 31.6677 18.7998 31.5367V22.8584C18.7998 22.7274 18.8323 22.6291 18.9298 22.5309C19.0274 22.4327 19.1249 22.3999 19.255 22.3999H40.6796C40.8097 22.3999 40.9072 22.3999 41.0047 22.5309C41.1023 22.6291 41.1348 22.7274 41.1348 22.8584H41.1998V31.5695ZM19.8727 28.0654H24.3267V24.3648H19.8727V28.0654ZM26.9275 31.7332C26.9275 32.2572 26.7325 32.6829 26.3748 33.0432C26.0172 33.4034 25.5621 33.5999 25.0744 33.5999C24.5867 33.5999 24.1316 33.4034 23.774 33.0432C23.4164 32.6829 23.2213 32.2245 23.2213 31.7332C23.2213 31.242 23.4164 30.7835 23.774 30.4233C24.1316 30.0631 24.5867 29.8993 25.0744 29.8993C25.5621 29.8993 26.0172 30.0631 26.3748 30.4233C26.7325 30.7835 26.9275 31.2093 26.9275 31.7332ZM25.1394 28.0654H29.5934V24.3648H25.1394V28.0654ZM30.4387 28.0654H34.9252V24.3648H30.4387V28.0654ZM36.8433 31.7332C36.8433 32.2572 36.6483 32.6829 36.2907 33.0432C35.933 33.4034 35.4779 33.5999 34.9902 33.5999C34.5026 33.5999 34.0474 33.4034 33.6898 33.0432C33.3322 32.6829 33.1371 32.2245 33.1371 31.7332C33.1371 31.242 33.3322 30.7835 33.6898 30.4233C34.0474 30.0631 34.5026 29.8993 34.9902 29.8993C35.4779 29.8993 35.933 30.0631 36.2907 30.4233C36.6483 30.7835 36.8433 31.2093 36.8433 31.7332ZM35.738 28.0654H40.192V24.3648H35.738V28.0654Z" fill="white"/>
</g>
<defs>
<filter id="filter0_d_805_7112" x="0" y="0" width="60" height="65" filterUnits="userSpaceOnUse" color-interpolation-filters="sRGB">
<feFlood flood-opacity="0" result="BackgroundImageFix"/>
<feColorMatrix in="SourceAlpha" type="matrix" values="0 0 0 0 0 0 0 0 0 0 0 0 0 0 0 0 0 0 127 0" result="hardAlpha"/>
<feOffset dy="2"/>
<feGaussianBlur stdDeviation="4"/>
<feColorMatrix type="matrix" values="0 0 0 0 0 0 0 0 0 0 0 0 0 0 0 0 0 0 0.16 0"/>
<feBlend mode="normal" in2="BackgroundImageFix" result="effect1_dropShadow_805_7112"/>
<feBlend mode="normal" in="SourceGraphic" in2="effect1_dropShadow_805_7112" result="shape"/>
</filter>
</defs>
</svg>
