<svg width="60" height="65" viewBox="0 0 60 65" fill="none" xmlns="http://www.w3.org/2000/svg">
<g filter="url(#filter0_d_805_7117)">
<mask id="path-1-inside-1_805_7117" fill="white">
<path fill-rule="evenodd" clip-rule="evenodd" d="M16 6C11.5817 6 8 9.58172 8 14V27.7577V42C8 46.4183 11.5817 50 16 50H19.0486C22.0393 50 24.9778 51.0638 27.0226 53.2462C27.2503 53.4893 27.4744 53.7343 27.6944 53.9815C28.879 55.312 31.1727 55.3473 32.384 54.0382C32.6457 53.7553 32.9126 53.4746 33.184 53.1957C35.2608 51.0621 38.1772 50 41.1547 50H44C48.4183 50 52 46.4183 52 42V27.7577V14C52 9.58172 48.4183 6 44 6H16Z"/>
</mask>
<path fill-rule="evenodd" clip-rule="evenodd" d="M16 6C11.5817 6 8 9.58172 8 14V27.7577V42C8 46.4183 11.5817 50 16 50H19.0486C22.0393 50 24.9778 51.0638 27.0226 53.2462C27.2503 53.4893 27.4744 53.7343 27.6944 53.9815C28.879 55.312 31.1727 55.3473 32.384 54.0382C32.6457 53.7553 32.9126 53.4746 33.184 53.1957C35.2608 51.0621 38.1772 50 41.1547 50H44C48.4183 50 52 46.4183 52 42V27.7577V14C52 9.58172 48.4183 6 44 6H16Z" fill="#334DCE"/>
<path d="M27.6944 53.9815L26.2005 55.3112L26.2006 55.3114L27.6944 53.9815ZM32.384 54.0382L33.852 55.3965L33.8521 55.3964L32.384 54.0382ZM27.0226 53.2462L25.5631 54.6137L27.0226 53.2462ZM10 14C10 10.6863 12.6863 8 16 8V4C10.4772 4 6 8.47715 6 14H10ZM10 27.7577V14H6V27.7577H10ZM10 42V27.7577H6V42H10ZM16 48C12.6863 48 10 45.3137 10 42H6C6 47.5228 10.4772 52 16 52V48ZM19.0486 48H16V52H19.0486V48ZM25.5631 54.6137C25.7799 54.8451 25.9925 55.0776 26.2005 55.3112L29.1883 52.6517C28.9563 52.3911 28.7207 52.1335 28.4821 51.8788L25.5631 54.6137ZM26.2006 55.3114C28.1611 57.5134 31.8291 57.5827 33.852 55.3965L30.916 52.6799C30.5164 53.1118 29.597 53.1107 29.1882 52.6516L26.2006 55.3114ZM33.8521 55.3964C34.1015 55.1269 34.3567 54.8584 34.6172 54.5907L31.7509 51.8008C31.4686 52.0907 31.19 52.3837 30.9159 52.68L33.8521 55.3964ZM44 48H41.1547V52H44V48ZM50 42C50 45.3137 47.3137 48 44 48V52C49.5228 52 54 47.5228 54 42H50ZM50 27.7577V42H54V27.7577H50ZM50 14V27.7577H54V14H50ZM44 8C47.3137 8 50 10.6863 50 14H54C54 8.47715 49.5228 4 44 4V8ZM16 8H44V4H16V8ZM34.6172 54.5907C36.2654 52.8974 38.6375 52 41.1547 52V48C37.717 48 34.2562 49.2268 31.7509 51.8008L34.6172 54.5907ZM19.0486 52C21.5852 52 23.9591 52.9017 25.5631 54.6137L28.4821 51.8788C25.9964 49.2258 22.4933 48 19.0486 48V52Z" fill="white" mask="url(#path-1-inside-1_805_7117)"/>
<path fill-rule="evenodd" clip-rule="evenodd" d="M17.3999 24.3248C17.3999 23.165 18.3401 22.2248 19.4999 22.2248H36.9999C40.4793 22.2248 43.2999 25.0454 43.2999 28.5248V32.7248C43.2999 33.8846 42.3644 34.8248 41.2046 34.8248C34.3612 34.8248 21.3829 34.8248 19.4999 34.8248C18.3401 34.8248 17.3999 33.8846 17.3999 32.7248V24.3248ZM19.4999 25.0248C19.4999 24.6382 19.8133 24.3248 20.1999 24.3248H22.297C22.6836 24.3248 22.997 24.6382 22.997 25.0248V28.5248C22.997 28.9114 22.6836 29.2248 22.297 29.2248H20.1999C19.8499 29.2248 19.4999 28.8748 19.4999 28.5248V25.0248ZM25.1075 24.3248C24.7209 24.3248 24.4075 24.6382 24.4075 25.0248L24.3999 28.5248C24.3999 28.8748 24.7499 29.2248 25.0999 29.2248H27.9075C28.2941 29.2248 28.6075 28.9114 28.6075 28.5248V25.0248C28.6075 24.6382 28.2941 24.3248 27.9075 24.3248H25.1075ZM30.018 25.0248C30.018 24.6382 30.3314 24.3248 30.718 24.3248H33.518C33.9046 24.3248 34.218 24.6382 34.218 25.0248V28.5248C34.218 28.9114 33.9046 29.2248 33.518 29.2248H31.418C30.6448 29.2248 29.9999 29.298 29.9999 28.5248L30.018 25.0248ZM36.3285 24.3248C35.9419 24.3248 35.6285 24.6382 35.6285 25.0248V28.5248C35.6285 28.9114 35.9419 29.2248 36.3285 29.2248H40.5285C40.9151 29.2248 41.2285 28.9114 41.2285 28.5248C41.2285 26.2052 39.3481 24.3248 37.0285 24.3248H36.3285Z" fill="white"/>
<path fill-rule="evenodd" clip-rule="evenodd" d="M17.9249 36.9248C17.9249 36.4416 18.3167 36.0498 18.7999 36.0498L41.8999 36.0498C42.3832 36.0498 42.7749 36.4416 42.7749 36.9248C42.7749 37.4081 42.3832 37.7998 41.8999 37.7998L18.7999 37.7998C18.3167 37.7998 17.9249 37.4081 17.9249 36.9248Z" fill="white"/>
<path fill-rule="evenodd" clip-rule="evenodd" d="M26.3249 19.4248C26.3249 18.9416 26.7167 18.5498 27.1999 18.5498H32.7999C33.1454 18.5498 33.4586 18.7532 33.5992 19.0688C33.7398 19.3845 33.6814 19.7533 33.4503 20.0101L30.3003 23.5101C29.977 23.8693 29.4238 23.8985 29.0646 23.5752C28.7054 23.2519 28.6762 22.6987 28.9995 22.3395L30.8352 20.2998H27.1999C26.7167 20.2998 26.3249 19.9081 26.3249 19.4248Z" fill="white"/>
</g>
<defs>
<filter id="filter0_d_805_7117" x="0" y="0" width="60" height="65" filterUnits="userSpaceOnUse" color-interpolation-filters="sRGB">
<feFlood flood-opacity="0" result="BackgroundImageFix"/>
<feColorMatrix in="SourceAlpha" type="matrix" values="0 0 0 0 0 0 0 0 0 0 0 0 0 0 0 0 0 0 127 0" result="hardAlpha"/>
<feOffset dy="2"/>
<feGaussianBlur stdDeviation="4"/>
<feColorMatrix type="matrix" values="0 0 0 0 0 0 0 0 0 0 0 0 0 0 0 0 0 0 0.16 0"/>
<feBlend mode="normal" in2="BackgroundImageFix" result="effect1_dropShadow_805_7117"/>
<feBlend mode="normal" in="SourceGraphic" in2="effect1_dropShadow_805_7117" result="shape"/>
</filter>
</defs>
</svg>
