<svg width="44" height="44" viewBox="0 0 44 44" fill="none" xmlns="http://www.w3.org/2000/svg">
<g filter="url(#filter0_d_8318_7998)">
<g clip-path="url(#clip0_8318_7998)">
<rect x="8" y="8" width="28" height="28" rx="4" fill="#418083"/>
<g clip-path="url(#clip1_8318_7998)">
<path d="M29.6385 29.4917C29.6385 29.4917 29.6837 29.4567 29.7237 29.4167C30.0387 29.0817 30.5686 29.0667 30.9036 29.3817C31.2386 29.6967 31.2535 30.2217 30.9385 30.5617C30.6535 30.8667 30.3036 31.0917 29.8836 31.1567C29.4686 31.2167 29.1035 31.1017 28.8235 30.9567C28.5485 30.8167 28.3086 30.6217 28.1136 30.4517C28.0136 30.3667 27.8835 30.2467 27.7635 30.1367C27.6785 30.0617 27.6036 29.9917 27.5486 29.9417C27.1586 29.5917 26.9736 29.5117 26.8836 29.5067C26.8836 29.5067 26.8337 29.5067 26.7437 29.5667C26.6337 29.6417 26.4686 29.8017 26.2586 30.1217H26.2534C26.0084 30.4917 25.7035 30.8017 25.3135 30.9617C24.8985 31.1367 24.4936 31.1017 24.1536 30.9867C23.8386 30.8817 23.5635 30.6967 23.3435 30.5367C23.1885 30.4217 23.0236 30.2817 22.8736 30.1617C22.8236 30.1167 22.7687 30.0767 22.7237 30.0367C22.2937 29.6867 22.0686 29.5667 21.9236 29.5567H21.9185C21.9185 29.5567 21.6734 29.5317 21.2534 30.1567C21.0284 30.5067 20.7285 30.8017 20.3235 30.9467C19.9135 31.0967 19.5235 31.0417 19.2085 30.9367C18.9085 30.8317 18.6385 30.6667 18.4185 30.5117C18.2685 30.4117 18.1087 30.2917 17.9637 30.1817C17.8987 30.1317 17.8335 30.0817 17.7735 30.0367C17.3285 29.7117 17.0735 29.5817 16.8985 29.5717C16.8485 29.5717 16.6285 29.5567 16.2635 30.1167H16.2586C15.8936 30.6667 15.3436 31.1517 14.6136 31.1517C13.8836 31.1517 13.3287 30.6667 12.9737 30.1167C12.7187 29.7317 12.8287 29.2167 13.2137 28.9617C13.5987 28.7117 14.1187 28.8167 14.3687 29.2067C14.4887 29.3917 14.5736 29.4567 14.6136 29.4767C14.6536 29.4567 14.7437 29.3917 14.8687 29.2017C15.4337 28.3417 16.1434 27.8567 17.0034 27.9067C17.7334 27.9517 18.3585 28.3917 18.7635 28.6917C18.8535 28.7567 18.9336 28.8167 19.0086 28.8717C19.1336 28.9667 19.2487 29.0517 19.3687 29.1317C19.5537 29.2567 19.6736 29.3267 19.7586 29.3517H19.7735C19.7735 29.3517 19.8236 29.2967 19.8636 29.2367C20.4486 28.3517 21.1636 27.8267 22.0386 27.8867C22.7836 27.9417 23.3985 28.4317 23.7735 28.7367C23.8485 28.7967 23.9137 28.8517 23.9737 28.9017C24.1087 29.0117 24.2235 29.1067 24.3435 29.1967C24.5135 29.3267 24.6235 29.3817 24.6885 29.4067C24.7185 29.3817 24.7786 29.3267 24.8636 29.2017C25.4186 28.3567 26.0985 27.7967 26.9585 27.8367C27.7085 27.8717 28.2985 28.3717 28.6585 28.6917C28.7735 28.7967 28.8586 28.8717 28.9336 28.9467C29.0186 29.0267 29.0985 29.0967 29.2085 29.1917C29.3735 29.3417 29.4987 29.4267 29.5887 29.4767C29.6137 29.4867 29.6285 29.4967 29.6385 29.5017V29.4917Z" fill="white"/>
<path fill-rule="evenodd" clip-rule="evenodd" d="M16.1636 17.8317C16.1636 16.9117 16.9135 16.1667 17.8335 16.1667H22.1335C23.0785 16.1667 23.9785 16.5667 24.6135 17.2717L27.6187 20.6117C27.9237 20.9517 27.8985 21.4817 27.5535 21.7867C27.2135 22.0967 26.6884 22.0667 26.3784 21.7267L23.3735 18.3867C23.0585 18.0367 22.6085 17.8367 22.1335 17.8367H17.8335V21.1717C17.8335 21.6317 17.4585 22.0067 16.9985 22.0067C16.5385 22.0067 16.1636 21.6317 16.1636 21.1717V17.8317Z" fill="white"/>
<path fill-rule="evenodd" clip-rule="evenodd" d="M16.9985 13.6619C16.9985 13.2019 17.3735 12.8269 17.8335 12.8269H19.4985C20.4185 12.8269 21.1636 13.5719 21.1636 14.4919V16.9919C21.1636 17.4519 20.7935 17.8269 20.3335 17.8269C19.8735 17.8269 19.4985 17.4519 19.4985 16.9919V14.4919H17.8335C17.3735 14.4919 16.9985 14.1169 16.9985 13.6569V13.6619Z" fill="white"/>
<path d="M13.6637 20.537C13.4737 20.537 13.2937 20.622 13.1737 20.772C13.0587 20.922 13.0137 21.117 13.0587 21.302L14.5436 27.627C15.1986 27.002 16.0386 26.592 17.0736 26.652C18.1986 26.722 19.1185 27.397 19.5135 27.682C20.1685 27.022 21.0335 26.557 22.1285 26.632C23.2235 26.707 24.0686 27.357 24.4686 27.682C25.0936 27.032 25.9285 26.527 27.0135 26.577C28.1085 26.627 28.9336 27.262 29.3436 27.617C29.3786 27.577 29.4086 27.532 29.4386 27.492C29.9736 26.732 30.3085 25.757 30.5236 24.842C30.7435 23.917 30.8487 22.997 30.9037 22.312C30.9287 21.967 30.9436 21.682 30.9486 21.482C30.9536 21.382 30.9536 21.222 30.9586 21.162C30.9586 20.812 30.6786 20.532 30.3336 20.532H13.6637V20.537Z" fill="white"/>
</g>
</g>
<rect x="9" y="9" width="26" height="26" rx="3" stroke="white" stroke-width="2"/>
</g>
<defs>
<filter id="filter0_d_8318_7998" x="0" y="0" width="44" height="44" filterUnits="userSpaceOnUse" color-interpolation-filters="sRGB">
<feFlood flood-opacity="0" result="BackgroundImageFix"/>
<feColorMatrix in="SourceAlpha" type="matrix" values="0 0 0 0 0 0 0 0 0 0 0 0 0 0 0 0 0 0 127 0" result="hardAlpha"/>
<feOffset/>
<feGaussianBlur stdDeviation="4"/>
<feColorMatrix type="matrix" values="0 0 0 0 0 0 0 0 0 0 0 0 0 0 0 0 0 0 0.23 0"/>
<feBlend mode="normal" in2="BackgroundImageFix" result="effect1_dropShadow_8318_7998"/>
<feBlend mode="normal" in="SourceGraphic" in2="effect1_dropShadow_8318_7998" result="shape"/>
</filter>
<clipPath id="clip0_8318_7998">
<rect x="8" y="8" width="28" height="28" rx="4" fill="white"/>
</clipPath>
<clipPath id="clip1_8318_7998">
<rect width="20" height="20" fill="white" transform="translate(12 12)"/>
</clipPath>
</defs>
</svg>
