<svg width="44" height="44" viewBox="0 0 44 44" fill="none" xmlns="http://www.w3.org/2000/svg">
<g filter="url(#filter0_d_805_7110)">
<g clip-path="url(#clip0_805_7110)">
<rect x="8" y="6" width="28" height="28" rx="4" fill="#37424A"/>
<path fill-rule="evenodd" clip-rule="evenodd" d="M21.6275 11.7545C21.8621 11.6372 22.1382 11.6372 22.3728 11.7545L30.7062 15.9211C30.9885 16.0623 31.1668 16.3509 31.1668 16.6665V27.4998C31.1668 27.9601 30.7937 28.3332 30.3335 28.3332C29.8732 28.3332 29.5002 27.9601 29.5002 27.4998V17.1815L22.0002 13.4315L14.5002 17.1815V27.4998C14.5002 27.9601 14.1271 28.3332 13.6668 28.3332C13.2066 28.3332 12.8335 27.9601 12.8335 27.4998V16.6665C12.8335 16.3509 13.0118 16.0623 13.2942 15.9211L21.6275 11.7545Z" fill="white"/>
<path fill-rule="evenodd" clip-rule="evenodd" d="M18.6668 24.9998C19.1271 24.9998 19.5002 25.3729 19.5002 25.8332V27.4998C19.5002 27.9601 19.1271 28.3332 18.6668 28.3332C18.2066 28.3332 17.8335 27.9601 17.8335 27.4998V25.8332C17.8335 25.3729 18.2066 24.9998 18.6668 24.9998ZM25.3335 24.9998C25.7937 24.9998 26.1668 25.3729 26.1668 25.8332V27.4998C26.1668 27.9601 25.7937 28.3332 25.3335 28.3332C24.8732 28.3332 24.5002 27.9601 24.5002 27.4998V25.8332C24.5002 25.3729 24.8732 24.9998 25.3335 24.9998Z" fill="white"/>
<path fill-rule="evenodd" clip-rule="evenodd" d="M20.385 19.1665C20.0026 19.1665 19.6693 19.4268 19.5765 19.7978L19.0588 21.8686C18.9472 22.3151 18.4947 22.5866 18.0482 22.4749C17.6018 22.3633 17.3303 21.9109 17.4419 21.4644L17.9596 19.3935C18.2379 18.2806 19.2378 17.4998 20.385 17.4998H23.6157C24.7629 17.4998 25.7628 18.2806 26.0411 19.3935L26.5588 21.4644C26.6704 21.9109 26.399 22.3633 25.9525 22.4749C25.506 22.5866 25.0535 22.3151 24.9419 21.8686L24.4242 19.7978C24.3314 19.4268 23.9982 19.1665 23.6157 19.1665H20.385Z" fill="white"/>
<path fill-rule="evenodd" clip-rule="evenodd" d="M18.6668 20.8332C17.2861 20.8332 16.1668 21.9524 16.1668 23.3332V24.1665C16.1668 25.5473 17.2861 26.6665 18.6668 26.6665H25.3335C26.7142 26.6665 27.8335 25.5473 27.8335 24.1665V23.3332C27.8335 21.9524 26.7142 20.8332 25.3335 20.8332H18.6668ZM20.3335 23.7498C20.3335 23.2896 19.9604 22.9165 19.5002 22.9165C19.0399 22.9165 18.6668 23.2896 18.6668 23.7498V23.7582C18.6668 24.2184 19.0399 24.5915 19.5002 24.5915C19.9604 24.5915 20.3335 24.2184 20.3335 23.7582V23.7498ZM25.3335 23.7498C25.3335 23.2896 24.9604 22.9165 24.5002 22.9165C24.0399 22.9165 23.6668 23.2896 23.6668 23.7498V23.7582C23.6668 24.2184 24.0399 24.5915 24.5002 24.5915C24.9604 24.5915 25.3335 24.2184 25.3335 23.7582V23.7498Z" fill="white"/>
</g>
<rect x="9" y="7" width="26" height="26" rx="3" stroke="white" stroke-width="2"/>
</g>
<defs>
<filter id="filter0_d_805_7110" x="0" y="0" width="44" height="44" filterUnits="userSpaceOnUse" color-interpolation-filters="sRGB">
<feFlood flood-opacity="0" result="BackgroundImageFix"/>
<feColorMatrix in="SourceAlpha" type="matrix" values="0 0 0 0 0 0 0 0 0 0 0 0 0 0 0 0 0 0 127 0" result="hardAlpha"/>
<feOffset dy="2"/>
<feGaussianBlur stdDeviation="4"/>
<feColorMatrix type="matrix" values="0 0 0 0 0 0 0 0 0 0 0 0 0 0 0 0 0 0 0.16 0"/>
<feBlend mode="normal" in2="BackgroundImageFix" result="effect1_dropShadow_805_7110"/>
<feBlend mode="normal" in="SourceGraphic" in2="effect1_dropShadow_805_7110" result="shape"/>
</filter>
<clipPath id="clip0_805_7110">
<rect x="8" y="6" width="28" height="28" rx="4" fill="white"/>
</clipPath>
</defs>
</svg>
