<svg width="44" height="44" viewBox="0 0 44 44" fill="none" xmlns="http://www.w3.org/2000/svg">
<g filter="url(#filter0_d_8318_8004)">
<g clip-path="url(#clip0_8318_8004)">
<rect x="8" y="6" width="28" height="28" rx="4" fill="#37424A"/>
<path fill-rule="evenodd" clip-rule="evenodd" d="M21.628 11.7546C21.8626 11.6373 22.1387 11.6373 22.3733 11.7546L30.7067 15.9213C30.989 16.0624 31.1673 16.351 31.1673 16.6666V27.5C31.1673 27.9602 30.7942 28.3333 30.334 28.3333C29.8737 28.3333 29.5007 27.9602 29.5007 27.5V17.1817L22.0007 13.4317L14.5007 17.1817V27.5C14.5007 27.9602 14.1276 28.3333 13.6673 28.3333C13.2071 28.3333 12.834 27.9602 12.834 27.5V16.6666C12.834 16.351 13.0123 16.0624 13.2946 15.9213L21.628 11.7546Z" fill="white"/>
<path fill-rule="evenodd" clip-rule="evenodd" d="M18.6673 25C19.1276 25 19.5007 25.373 19.5007 25.8333V27.5C19.5007 27.9602 19.1276 28.3333 18.6673 28.3333C18.2071 28.3333 17.834 27.9602 17.834 27.5V25.8333C17.834 25.373 18.2071 25 18.6673 25ZM25.334 25C25.7942 25 26.1673 25.373 26.1673 25.8333V27.5C26.1673 27.9602 25.7942 28.3333 25.334 28.3333C24.8737 28.3333 24.5007 27.9602 24.5007 27.5V25.8333C24.5007 25.373 24.8737 25 25.334 25Z" fill="white"/>
<path fill-rule="evenodd" clip-rule="evenodd" d="M20.3855 19.1666C20.0031 19.1666 19.6698 19.4269 19.577 19.7979L19.0593 21.8687C18.9477 22.3152 18.4952 22.5867 18.0487 22.475C17.6022 22.3635 17.3308 21.911 17.4424 21.4645L17.9601 19.3936C18.2384 18.2807 19.2383 17.5 20.3855 17.5H23.6162C24.7634 17.5 25.7633 18.2807 26.0416 19.3936L26.5593 21.4645C26.6709 21.911 26.3995 22.3635 25.953 22.475C25.5065 22.5867 25.054 22.3152 24.9424 21.8687L24.4247 19.7979C24.3319 19.4269 23.9987 19.1666 23.6162 19.1666H20.3855Z" fill="white"/>
<path fill-rule="evenodd" clip-rule="evenodd" d="M18.6673 20.8333C17.2866 20.8333 16.1673 21.9525 16.1673 23.3333V24.1666C16.1673 25.5474 17.2866 26.6666 18.6673 26.6666H25.334C26.7147 26.6666 27.834 25.5474 27.834 24.1666V23.3333C27.834 21.9525 26.7147 20.8333 25.334 20.8333H18.6673ZM20.334 23.75C20.334 23.2897 19.9609 22.9166 19.5007 22.9166C19.0404 22.9166 18.6673 23.2897 18.6673 23.75V23.7583C18.6673 24.2185 19.0404 24.5916 19.5007 24.5916C19.9609 24.5916 20.334 24.2185 20.334 23.7583V23.75ZM25.334 23.75C25.334 23.2897 24.9609 22.9166 24.5007 22.9166C24.0404 22.9166 23.6673 23.2897 23.6673 23.75V23.7583C23.6673 24.2185 24.0404 24.5916 24.5007 24.5916C24.9609 24.5916 25.334 24.2185 25.334 23.7583V23.75Z" fill="white"/>
</g>
<rect x="9" y="7" width="26" height="26" rx="3" stroke="white" stroke-width="2"/>
</g>
<defs>
<filter id="filter0_d_8318_8004" x="0" y="0" width="44" height="44" filterUnits="userSpaceOnUse" color-interpolation-filters="sRGB">
<feFlood flood-opacity="0" result="BackgroundImageFix"/>
<feColorMatrix in="SourceAlpha" type="matrix" values="0 0 0 0 0 0 0 0 0 0 0 0 0 0 0 0 0 0 127 0" result="hardAlpha"/>
<feOffset dy="2"/>
<feGaussianBlur stdDeviation="4"/>
<feColorMatrix type="matrix" values="0 0 0 0 0 0 0 0 0 0 0 0 0 0 0 0 0 0 0.16 0"/>
<feBlend mode="normal" in2="BackgroundImageFix" result="effect1_dropShadow_8318_8004"/>
<feBlend mode="normal" in="SourceGraphic" in2="effect1_dropShadow_8318_8004" result="shape"/>
</filter>
<clipPath id="clip0_8318_8004">
<rect x="8" y="6" width="28" height="28" rx="4" fill="white"/>
</clipPath>
</defs>
</svg>
