<svg width="44" height="44" viewBox="0 0 44 44" fill="none" xmlns="http://www.w3.org/2000/svg">
<g filter="url(#filter0_d_805_7104)">
<g clip-path="url(#clip0_805_7104)">
<rect x="8" y="6" width="28" height="28" rx="4" fill="#418083"/>
<path d="M30.0224 22.3071C29.7748 22.082 29.5047 21.8344 28.987 21.8344C28.4693 21.8344 28.1993 22.082 27.9517 22.3071C27.7266 22.5096 27.524 22.6897 27.1189 22.6897C26.7137 22.6897 26.5112 22.5096 26.2861 22.3071C26.0385 22.082 25.7684 21.8344 25.2507 21.8344C24.733 21.8344 24.4629 22.082 24.2153 22.3071C23.9903 22.5096 23.7877 22.6897 23.3825 22.6897C22.9774 22.6897 22.7748 22.5096 22.5497 22.3071C22.4372 22.1945 22.3021 22.082 22.1446 21.992C22.1446 21.992 22.0996 21.992 22.0771 21.992C21.9195 21.9244 21.762 21.8794 21.5369 21.8794C21.0192 21.8794 20.7491 22.127 20.524 22.3521C20.2989 22.5547 20.1189 22.7347 19.7137 22.7347C19.3086 22.7347 19.106 22.5547 18.9034 22.3521C18.6558 22.127 18.4083 21.8794 17.8906 21.8794C17.3729 21.8794 17.1028 22.127 16.8777 22.3521C16.6526 22.5547 16.4726 22.7347 16.0449 22.7347C15.6173 22.7347 15.4372 22.5547 15.2346 22.3521C15.0996 22.2395 14.9645 22.1045 14.762 21.992L14.6494 22.7347C14.807 22.8023 14.9195 22.9148 15.0321 23.0273C15.2796 23.2524 15.5497 23.5 16.0449 23.5C16.5401 23.5 16.8327 23.2524 17.0578 23.0273C17.2829 22.8248 17.4629 22.6447 17.8681 22.6447C18.2732 22.6447 18.4758 22.8248 18.7009 23.0273C18.9484 23.2524 19.196 23.5 19.7137 23.5C20.2314 23.5 20.5015 23.2524 20.7266 23.0273C20.9517 22.8248 21.1317 22.6447 21.5594 22.6447C21.987 22.6447 21.897 22.6897 22.0321 22.7572C22.1446 22.8248 22.2571 22.9148 22.3472 23.0048C22.5722 23.2074 22.8423 23.455 23.36 23.455C23.8777 23.455 24.1478 23.2074 24.3954 22.9823C24.6205 22.7797 24.8005 22.5997 25.2282 22.5997C25.6558 22.5997 25.8359 22.7797 26.061 22.9823C26.3086 23.2074 26.5787 23.455 27.0964 23.455C27.614 23.455 27.8841 23.2074 28.1317 22.9823C28.3568 22.7797 28.5594 22.5997 28.9645 22.5997C29.3697 22.5997 29.5722 22.7797 29.7973 22.9823L30.0449 22.3521C30.0449 22.3521 29.9999 22.3071 29.9549 22.2846V22.3296L30.0224 22.3071Z" fill="white"/>
<path d="M22.0546 21.9695C21.9195 21.9019 21.7845 21.8569 21.5819 21.8569C21.3793 21.8569 21.2218 21.9019 21.0867 21.992L22.0771 21.992L22.0546 21.992V21.9695Z" fill="white"/>
<path d="M17.3504 22.0145H18.4083C18.2732 21.9244 18.1157 21.8569 17.8906 21.8569C17.6655 21.8569 17.4854 21.9244 17.3504 22.0145Z" fill="white"/>
<path d="M31.2829 18.8859H29.1896L25.971 16.5H17.5304C17.3954 16.5 17.2829 16.6125 17.2603 16.7476L16.7652 18.8859H15.9774C15.8423 18.8859 15.7298 18.9759 15.7073 19.0884L15.0996 21.2717L15.0321 21.3392C15.1221 21.4068 15.1896 21.4743 15.2796 21.5418C15.5047 21.7444 15.6848 21.9244 16.0899 21.9244C16.4951 21.9244 16.6976 21.7444 16.9227 21.5418C17.1703 21.3167 17.4179 21.0691 17.9356 21.0691C18.4533 21.0691 18.7234 21.3167 18.9484 21.5418C19.1735 21.7444 19.3536 21.9244 19.7587 21.9244C20.1639 21.9244 20.3665 21.7444 20.569 21.5418C20.8166 21.3167 21.0642 21.0691 21.5819 21.0691C22.0996 21.0691 21.987 21.1141 22.1221 21.1817C22.3247 21.2717 22.4597 21.4068 22.6173 21.5193C22.8423 21.7219 23.0449 21.9019 23.4501 21.9019C23.8552 21.9019 24.0578 21.7219 24.2829 21.5193C24.5304 21.2942 24.8005 21.0466 25.3182 21.0466C25.8359 21.0466 26.106 21.2942 26.3536 21.5193C26.5787 21.7219 26.7812 21.9019 27.1864 21.9019C27.5915 21.9019 27.7941 21.7219 28.0192 21.5193C28.2668 21.2942 28.5369 21.0466 29.0546 21.0466C29.5722 21.0466 29.6173 21.1367 29.7973 21.2717L31.3504 19.1109C31.3504 19.1109 31.3504 19.0659 31.3504 19.0209C31.3504 18.9309 31.2829 18.8633 31.1928 18.8633H31.2603L31.2829 18.8859ZM20.2314 18.8859H17.3954L17.6655 17.7154H20.1864V17.7605H20.2314V18.9084V18.8859ZM23.0449 18.8859H20.5465V17.7154H23.0449V18.8859ZM23.4501 18.8859V17.7154H26.3761L27.9742 18.8859H23.4501Z" fill="white"/>
<path d="M24.8681 21.9695H25.7909C25.6784 21.9019 25.5208 21.8569 25.3407 21.8569C25.1607 21.8569 25.0031 21.9019 24.8681 21.9695Z" fill="white"/>
<path d="M29.0996 21.8569C28.9195 21.8569 28.807 21.8569 28.6719 21.9469H29.3021L29.3472 21.9019C29.2796 21.9019 29.1896 21.9019 29.0996 21.9019V21.8569Z" fill="white"/>
</g>
<rect x="9" y="7" width="26" height="26" rx="3" stroke="white" stroke-width="2"/>
</g>
<defs>
<filter id="filter0_d_805_7104" x="0" y="0" width="44" height="44" filterUnits="userSpaceOnUse" color-interpolation-filters="sRGB">
<feFlood flood-opacity="0" result="BackgroundImageFix"/>
<feColorMatrix in="SourceAlpha" type="matrix" values="0 0 0 0 0 0 0 0 0 0 0 0 0 0 0 0 0 0 127 0" result="hardAlpha"/>
<feOffset dy="2"/>
<feGaussianBlur stdDeviation="4"/>
<feColorMatrix type="matrix" values="0 0 0 0 0 0 0 0 0 0 0 0 0 0 0 0 0 0 0.16 0"/>
<feBlend mode="normal" in2="BackgroundImageFix" result="effect1_dropShadow_805_7104"/>
<feBlend mode="normal" in="SourceGraphic" in2="effect1_dropShadow_805_7104" result="shape"/>
</filter>
<clipPath id="clip0_805_7104">
<rect x="8" y="6" width="28" height="28" rx="4" fill="white"/>
</clipPath>
</defs>
</svg>
