<svg width="44" height="44" viewBox="0 0 44 44" fill="none" xmlns="http://www.w3.org/2000/svg">
<g filter="url(#filter0_d_8318_8000)">
<g clip-path="url(#clip0_8318_8000)">
<rect x="8" y="8" width="28" height="28" rx="4" fill="#418083"/>
<g clip-path="url(#clip1_8318_8000)">
<path fill-rule="evenodd" clip-rule="evenodd" d="M21.4088 17.4043C21.7838 17.2393 22.214 17.2393 22.589 17.4043L27.869 19.7393C28.999 20.2393 29.5289 21.5343 29.0739 22.6793L28.7689 23.4543C28.7689 23.4543 28.739 23.4543 28.724 23.4543H26.7838C26.4388 23.4543 26.1588 23.7343 26.1588 24.0793C26.1588 24.4243 26.4388 24.7043 26.7838 24.7043H28.2738L27.5038 26.6443C27.3488 26.6093 27.1838 26.5893 27.0138 26.5843C25.9288 26.5393 25.0939 27.0393 24.4689 27.6893C24.0689 27.3643 23.2238 26.7193 22.1288 26.6393C21.0388 26.5643 20.1688 27.0293 19.5138 27.6893L19.4789 27.6643C19.0889 27.3743 18.1989 26.7243 17.0739 26.6543C16.8789 26.6443 16.6889 26.6493 16.5089 26.6693L15.7289 24.7043H17.2089C17.5539 24.7043 17.8339 24.4243 17.8339 24.0793C17.8339 23.7343 17.5539 23.4543 17.2089 23.4543H15.234L14.9288 22.6793C14.4738 21.5343 15.0039 20.2343 16.1339 19.7393L21.4088 17.4043Z" fill="white"/>
<path fill-rule="evenodd" clip-rule="evenodd" d="M16.4488 16.7694C16.5638 15.4794 17.6438 14.4944 18.9388 14.4944H25.0589C26.3539 14.4944 27.4339 15.4794 27.5489 16.7694L27.8289 19.8394C27.8689 20.2994 27.5338 20.7044 27.0738 20.7444C26.6138 20.7844 26.2088 20.4494 26.1688 19.9894L25.8887 16.9194C25.8487 16.4894 25.4889 16.1594 25.0589 16.1594H18.9388C18.5088 16.1594 18.149 16.4894 18.109 16.9194L17.8289 19.9894C17.7889 20.4494 17.3839 20.7844 16.9239 20.7444C16.4639 20.7044 16.1288 20.2994 16.1688 19.8394L16.4488 16.7694Z" fill="white"/>
<path fill-rule="evenodd" clip-rule="evenodd" d="M21.9985 12.8293C22.4585 12.8293 22.8335 13.2043 22.8335 13.6643V15.3293C22.8335 15.7893 22.4585 16.1643 21.9985 16.1643C21.5385 16.1643 21.1636 15.7893 21.1636 15.3293V13.6643C21.1636 13.2043 21.5385 12.8293 21.9985 12.8293Z" fill="white"/>
<path fill-rule="evenodd" clip-rule="evenodd" d="M29.6385 29.4893C29.6385 29.4893 29.6837 29.4543 29.7237 29.4143C30.0387 29.0793 30.5686 29.0643 30.9036 29.3793C31.2386 29.6943 31.2535 30.2193 30.9385 30.5593C30.6535 30.8643 30.3036 31.0893 29.8836 31.1543C29.4686 31.2143 29.1035 31.0993 28.8235 30.9543C28.5485 30.8143 28.3086 30.6193 28.1136 30.4493C28.0136 30.3643 27.8835 30.2443 27.7635 30.1343C27.6785 30.0593 27.6036 29.9893 27.5486 29.9393C27.1586 29.5893 26.9736 29.5093 26.8836 29.5043C26.8836 29.5043 26.8337 29.5043 26.7437 29.5643C26.6337 29.6393 26.4686 29.7993 26.2586 30.1193H26.2534C26.0084 30.4893 25.7035 30.7993 25.3135 30.9593C24.8985 31.1343 24.4936 31.0993 24.1536 30.9843C23.8386 30.8793 23.5635 30.6943 23.3435 30.5343C23.1885 30.4193 23.0236 30.2793 22.8736 30.1593C22.8236 30.1143 22.7687 30.0743 22.7237 30.0343C22.2937 29.6843 22.0686 29.5643 21.9236 29.5543H21.9185C21.9185 29.5543 21.6734 29.5293 21.2534 30.1543C21.0284 30.5043 20.7285 30.7993 20.3235 30.9443C19.9135 31.0943 19.5235 31.0393 19.2085 30.9343C18.9085 30.8293 18.6385 30.6643 18.4185 30.5093C18.2685 30.4093 18.1087 30.2893 17.9637 30.1793C17.8987 30.1293 17.8335 30.0793 17.7735 30.0393C17.3285 29.7143 17.0735 29.5843 16.8985 29.5743C16.8485 29.5743 16.6285 29.5593 16.2635 30.1193H16.2586C15.8936 30.6693 15.3436 31.1543 14.6136 31.1543C13.8836 31.1543 13.3287 30.6693 12.9737 30.1193C12.7187 29.7343 12.8287 29.2193 13.2137 28.9643C13.5987 28.7143 14.1187 28.8193 14.3687 29.2093C14.4887 29.3943 14.5736 29.4593 14.6136 29.4793C14.6536 29.4593 14.7437 29.3943 14.8687 29.2043C15.4337 28.3443 16.1434 27.8593 17.0034 27.9093C17.7334 27.9543 18.3585 28.3943 18.7635 28.6943C18.8535 28.7593 18.9336 28.8193 19.0086 28.8743C19.1336 28.9693 19.2487 29.0543 19.3687 29.1343C19.5537 29.2593 19.6736 29.3293 19.7586 29.3543C19.7636 29.3543 19.7685 29.3543 19.7735 29.3543C19.7935 29.3343 19.8236 29.2943 19.8636 29.2343C20.4486 28.3493 21.1636 27.8243 22.0386 27.8843C22.7836 27.9393 23.3985 28.4293 23.7735 28.7343C23.8485 28.7943 23.9137 28.8493 23.9737 28.8993C24.1087 29.0093 24.2235 29.1043 24.3435 29.1943C24.5135 29.3243 24.6235 29.3793 24.6885 29.4043C24.7185 29.3793 24.7786 29.3243 24.8636 29.1993C25.4186 28.3543 26.0985 27.7943 26.9585 27.8343C27.7085 27.8693 28.2985 28.3693 28.6585 28.6893C28.7735 28.7943 28.8586 28.8693 28.9336 28.9443C29.0186 29.0243 29.0985 29.0943 29.2085 29.1893C29.3735 29.3393 29.4987 29.4243 29.5887 29.4743C29.6137 29.4843 29.6285 29.4943 29.6385 29.4993V29.4893Z" fill="white"/>
</g>
</g>
<rect x="9" y="9" width="26" height="26" rx="3" stroke="white" stroke-width="2"/>
</g>
<defs>
<filter id="filter0_d_8318_8000" x="0" y="0" width="44" height="44" filterUnits="userSpaceOnUse" color-interpolation-filters="sRGB">
<feFlood flood-opacity="0" result="BackgroundImageFix"/>
<feColorMatrix in="SourceAlpha" type="matrix" values="0 0 0 0 0 0 0 0 0 0 0 0 0 0 0 0 0 0 127 0" result="hardAlpha"/>
<feOffset/>
<feGaussianBlur stdDeviation="4"/>
<feColorMatrix type="matrix" values="0 0 0 0 0 0 0 0 0 0 0 0 0 0 0 0 0 0 0.23 0"/>
<feBlend mode="normal" in2="BackgroundImageFix" result="effect1_dropShadow_8318_8000"/>
<feBlend mode="normal" in="SourceGraphic" in2="effect1_dropShadow_8318_8000" result="shape"/>
</filter>
<clipPath id="clip0_8318_8000">
<rect x="8" y="8" width="28" height="28" rx="4" fill="white"/>
</clipPath>
<clipPath id="clip1_8318_8000">
<rect width="20" height="20" fill="white" transform="translate(12 12)"/>
</clipPath>
</defs>
</svg>
