<svg width="60" height="65" viewBox="0 0 60 65" fill="none" xmlns="http://www.w3.org/2000/svg">
<g filter="url(#filter0_d_8318_8021)">
<mask id="path-1-inside-1_8318_8021" fill="white">
<path fill-rule="evenodd" clip-rule="evenodd" d="M16 6C11.5817 6 8 9.58172 8 14V27.7577V42C8 46.4183 11.5817 50 16 50H19.0486C22.0393 50 24.9778 51.0638 27.0226 53.2462C27.2503 53.4893 27.4744 53.7343 27.6944 53.9815C28.879 55.312 31.1727 55.3473 32.384 54.0382C32.6457 53.7553 32.9126 53.4746 33.184 53.1957C35.2608 51.0621 38.1772 50 41.1547 50H44C48.4183 50 52 46.4183 52 42V27.7577V14C52 9.58172 48.4183 6 44 6H16Z"/>
</mask>
<path fill-rule="evenodd" clip-rule="evenodd" d="M16 6C11.5817 6 8 9.58172 8 14V27.7577V42C8 46.4183 11.5817 50 16 50H19.0486C22.0393 50 24.9778 51.0638 27.0226 53.2462C27.2503 53.4893 27.4744 53.7343 27.6944 53.9815C28.879 55.312 31.1727 55.3473 32.384 54.0382C32.6457 53.7553 32.9126 53.4746 33.184 53.1957C35.2608 51.0621 38.1772 50 41.1547 50H44C48.4183 50 52 46.4183 52 42V27.7577V14C52 9.58172 48.4183 6 44 6H16Z" fill="#BD3685"/>
<path d="M27.6944 53.9815L26.2005 55.3112L26.2006 55.3114L27.6944 53.9815ZM32.384 54.0382L33.852 55.3965L33.8521 55.3964L32.384 54.0382ZM27.0226 53.2462L25.5631 54.6137L27.0226 53.2462ZM8 14H10C10 10.6863 12.6863 8 16 8V6V4C10.4772 4 6 8.47715 6 14H8ZM8 27.7577H10V14H8H6V27.7577H8ZM8 42H10V27.7577H8H6V42H8ZM16 50V48C12.6863 48 10 45.3137 10 42H8H6C6 47.5228 10.4772 52 16 52V50ZM19.0486 50V48H16V50V52H19.0486V50ZM27.0226 53.2462L25.5631 54.6137C25.7799 54.8451 25.9925 55.0776 26.2005 55.3112L27.6944 53.9815L29.1883 52.6517C28.9563 52.3911 28.7207 52.1335 28.4821 51.8788L27.0226 53.2462ZM27.6944 53.9815L26.2006 55.3114C28.1611 57.5134 31.8291 57.5827 33.852 55.3965L32.384 54.0382L30.916 52.6799C30.5164 53.1118 29.597 53.1107 29.1882 52.6516L27.6944 53.9815ZM32.384 54.0382L33.8521 55.3964C34.1015 55.1269 34.3567 54.8584 34.6172 54.5907L33.184 53.1957L31.7509 51.8008C31.4686 52.0907 31.19 52.3837 30.9159 52.68L32.384 54.0382ZM44 50V48H41.1547V50V52H44V50ZM52 42H50C50 45.3137 47.3137 48 44 48V50V52C49.5228 52 54 47.5228 54 42H52ZM52 27.7577H50V42H52H54V27.7577H52ZM52 14H50V27.7577H52H54V14H52ZM44 6V8C47.3137 8 50 10.6863 50 14H52H54C54 8.47715 49.5228 4 44 4V6ZM16 6V8H44V6V4H16V6ZM33.184 53.1957L34.6172 54.5907C36.2654 52.8974 38.6375 52 41.1547 52V50V48C37.717 48 34.2562 49.2268 31.7509 51.8008L33.184 53.1957ZM19.0486 50V52C21.5852 52 23.9591 52.9017 25.5631 54.6137L27.0226 53.2462L28.4821 51.8788C25.9964 49.2258 22.4933 48 19.0486 48V50Z" fill="white" mask="url(#path-1-inside-1_8318_8021)"/>
<path fill-rule="evenodd" clip-rule="evenodd" d="M17.168 17.5001C17.168 16.8561 17.6861 16.3311 18.3301 16.3311H26.8911C29.1591 16.3311 31.3711 17.0661 33.1911 18.4311L40.0301 23.5621C41.7941 24.8851 42.8301 26.9571 42.8301 29.1621C42.8301 31.0941 41.2691 32.6621 39.3301 32.6621H18.3301C17.6861 32.6621 17.168 32.1371 17.168 31.4931V28.8681H25.3369C25.8199 28.8681 26.2119 28.4761 26.2119 27.9931C26.2119 24.9341 23.727 22.4491 20.668 22.4491H17.168V17.4931V17.5001ZM17.168 24.2061V27.1251H24.357C23.965 25.4521 22.46 24.2061 20.668 24.2061H17.168ZM38.6301 25.4311C38.8471 25.5921 39.043 25.7671 39.218 25.9561H35.8301C33.0931 25.9561 30.874 23.7371 30.874 21.0001V19.7051C31.189 19.8801 31.4971 20.0831 31.7911 20.3001L38.6301 25.4311Z" fill="white"/>
<path fill-rule="evenodd" clip-rule="evenodd" d="M17.168 36.169C17.168 35.525 17.6861 35 18.3301 35H41.668C42.312 35 42.8301 35.525 42.8301 36.169C42.8301 36.813 42.312 37.338 41.668 37.338H18.3301C17.6861 37.338 17.168 36.813 17.168 36.169Z" fill="white"/>
<path fill-rule="evenodd" clip-rule="evenodd" d="M22.999 35C23.643 35 24.168 35.525 24.168 36.169V38.5C24.168 39.144 23.643 39.669 22.999 39.669C22.355 39.669 21.8301 39.144 21.8301 38.5V36.169C21.8301 35.525 22.355 35 22.999 35ZM29.999 35C30.643 35 31.168 35.525 31.168 36.169V38.5C31.168 39.144 30.643 39.669 29.999 39.669C29.355 39.669 28.8301 39.144 28.8301 38.5V36.169C28.8301 35.525 29.355 35 29.999 35ZM36.999 35C37.643 35 38.168 35.525 38.168 36.169V38.5C38.168 39.144 37.643 39.669 36.999 39.669C36.355 39.669 35.8301 39.144 35.8301 38.5V36.169C35.8301 35.525 36.355 35 36.999 35Z" fill="white"/>
</g>
<defs>
<filter id="filter0_d_8318_8021" x="0" y="0" width="60" height="65" filterUnits="userSpaceOnUse" color-interpolation-filters="sRGB">
<feFlood flood-opacity="0" result="BackgroundImageFix"/>
<feColorMatrix in="SourceAlpha" type="matrix" values="0 0 0 0 0 0 0 0 0 0 0 0 0 0 0 0 0 0 127 0" result="hardAlpha"/>
<feOffset dy="2"/>
<feGaussianBlur stdDeviation="4"/>
<feColorMatrix type="matrix" values="0 0 0 0 0 0 0 0 0 0 0 0 0 0 0 0 0 0 0.16 0"/>
<feBlend mode="normal" in2="BackgroundImageFix" result="effect1_dropShadow_8318_8021"/>
<feBlend mode="normal" in="SourceGraphic" in2="effect1_dropShadow_8318_8021" result="shape"/>
</filter>
</defs>
</svg>
