<svg width="56" height="56" viewBox="0 0 56 56" fill="none" xmlns="http://www.w3.org/2000/svg">
<g filter="url(#filter0_d_8318_7870)">
<g clip-path="url(#clip0_8318_7870)">
<rect x="10" y="8" width="36" height="36" rx="18" fill="#507341"/>
<path fill-rule="evenodd" clip-rule="evenodd" d="M15.4004 20.75C15.4004 19.5902 16.3406 18.65 17.5004 18.65H35.0004C38.4798 18.65 41.3004 21.4706 41.3004 24.95V30.55C41.3004 31.7098 40.3602 32.65 39.2004 32.65C39.2004 30.3304 37.32 28.45 35.0004 28.45C32.6808 28.45 30.8004 30.3304 30.8004 32.65H25.9004C25.9004 30.3304 24.02 28.45 21.7004 28.45C19.3808 28.45 17.5004 30.3304 17.5004 32.65C16.3406 32.65 15.4004 31.7098 15.4004 30.55V20.75ZM17.5004 21.45C17.5004 21.0635 17.8138 20.75 18.2004 20.75H20.2974C20.684 20.75 20.9974 21.0635 20.9974 21.45V24.95C20.9974 25.3366 20.684 25.65 20.2974 25.65H18.2004C17.8504 25.65 17.5004 25.3 17.5004 24.95V21.45ZM23.108 20.75C22.7214 20.75 22.408 21.0635 22.408 21.45L22.4004 24.95C22.4004 25.3 22.7504 25.65 23.1004 25.65H25.908C26.2946 25.65 26.608 25.3366 26.608 24.95V21.45C26.608 21.0635 26.2946 20.75 25.908 20.75H23.108ZM28.0185 21.45C28.0185 21.0635 28.3319 20.75 28.7185 20.75H31.5185C31.9051 20.75 32.2185 21.0635 32.2185 21.45V24.95C32.2185 25.3366 31.9051 25.65 31.5185 25.65H29.4185C28.6453 25.65 28.0004 25.7233 28.0004 24.95L28.0185 21.45ZM34.329 20.75C33.9424 20.75 33.629 21.0635 33.629 21.45V24.95C33.629 25.3366 33.9424 25.65 34.329 25.65H38.529C38.9156 25.65 39.229 25.3366 39.229 24.95C39.229 22.6304 37.3486 20.75 35.029 20.75H34.329Z" fill="white"/>
<path d="M24.5004 32.65C24.5004 34.1964 23.2468 35.45 21.7004 35.45C20.154 35.45 18.9004 34.1964 18.9004 32.65C18.9004 31.1036 20.154 29.85 21.7004 29.85C23.2468 29.85 24.5004 31.1036 24.5004 32.65Z" fill="white"/>
<path d="M37.8004 32.65C37.8004 34.1964 36.5468 35.45 35.0004 35.45C33.454 35.45 32.2004 34.1964 32.2004 32.65C32.2004 31.1036 33.454 29.85 35.0004 29.85C36.5468 29.85 37.8004 31.1036 37.8004 32.65Z" fill="white"/>
</g>
<rect x="9" y="7" width="38" height="38" rx="19" stroke="white" stroke-width="2"/>
</g>
<defs>
<filter id="filter0_d_8318_7870" x="0" y="0" width="56" height="56" filterUnits="userSpaceOnUse" color-interpolation-filters="sRGB">
<feFlood flood-opacity="0" result="BackgroundImageFix"/>
<feColorMatrix in="SourceAlpha" type="matrix" values="0 0 0 0 0 0 0 0 0 0 0 0 0 0 0 0 0 0 127 0" result="hardAlpha"/>
<feOffset dy="2"/>
<feGaussianBlur stdDeviation="4"/>
<feColorMatrix type="matrix" values="0 0 0 0 0 0 0 0 0 0 0 0 0 0 0 0 0 0 0.16 0"/>
<feBlend mode="normal" in2="BackgroundImageFix" result="effect1_dropShadow_8318_7870"/>
<feBlend mode="normal" in="SourceGraphic" in2="effect1_dropShadow_8318_7870" result="shape"/>
</filter>
<clipPath id="clip0_8318_7870">
<rect x="10" y="8" width="36" height="36" rx="18" fill="white"/>
</clipPath>
</defs>
</svg>
