<svg width="64" height="69" viewBox="0 0 64 69" fill="none" xmlns="http://www.w3.org/2000/svg">
<g filter="url(#filter0_d_8318_7829)">
<path d="M32 7C44.6395 7 55 16.6092 55 28.5986C54.9999 35.0433 51.8044 39.9817 47.7822 44.3154C45.7739 46.4793 43.5266 48.5259 41.3398 50.5391C39.4154 52.3107 37.535 54.0589 35.8447 55.877L35.1318 56.6611C33.5626 58.4291 30.6941 58.4313 29.0859 56.7549L28.9336 56.5879C27.1079 54.4496 24.9835 52.4564 22.7871 50.4512C20.6053 48.4592 18.3424 46.4462 16.3174 44.3184C12.2556 40.0503 9.00008 35.1686 9 28.5986C9 16.6092 19.3605 7 32 7Z" fill="#6B9956" stroke="white" stroke-width="2" stroke-linejoin="round"/>
<path fill-rule="evenodd" clip-rule="evenodd" d="M22.668 35.831C22.024 35.831 21.499 36.356 21.499 37C21.499 37.644 22.024 38.169 22.668 38.169C23.312 38.169 23.8301 37.644 23.8301 37C23.8301 36.356 23.312 35.831 22.668 35.831ZM19.168 37C19.168 35.068 20.736 33.5 22.668 33.5C24.6 33.5 26.168 35.068 26.168 37C26.168 38.932 24.6 40.5 22.668 40.5C20.736 40.5 19.168 38.932 19.168 37Z" fill="black"/>
<path fill-rule="evenodd" clip-rule="evenodd" d="M41.3301 35.831C40.6861 35.831 40.168 36.356 40.168 37C40.168 37.644 40.6861 38.169 41.3301 38.169C41.9741 38.169 42.499 37.644 42.499 37C42.499 36.356 41.9741 35.831 41.3301 35.831ZM37.8301 37C37.8301 35.068 39.3981 33.5 41.3301 33.5C43.2621 33.5 44.8301 35.068 44.8301 37C44.8301 38.932 43.2621 40.5 41.3301 40.5C39.3981 40.5 37.8301 38.932 37.8301 37Z" fill="black"/>
<path fill-rule="evenodd" clip-rule="evenodd" d="M34.3299 20.669C34.3299 20.025 34.8548 19.5 35.4988 19.5H36.6397C38.2147 19.5 39.594 20.55 40.014 22.062L42.4571 30.854C42.5551 31.204 42.4849 31.582 42.2609 31.869C42.0439 32.156 41.6939 32.331 41.3299 32.331C39.8039 32.331 38.4528 33.059 37.5988 34.2C37.0108 34.977 36.6678 35.95 36.6678 37C36.6678 37.644 36.1428 38.169 35.4988 38.169H24.9988C24.6908 38.169 24.39 38.05 24.173 37.826C23.956 37.609 23.8301 37.308 23.8301 37C23.8301 36.356 23.312 35.831 22.668 35.831C22.024 35.831 21.5268 35.341 21.4988 34.711C21.4708 34.088 21.947 33.549 22.57 33.5L36.073 32.373C37.046 31.274 38.355 30.476 39.839 30.154L37.767 22.685C37.627 22.181 37.1647 21.831 36.6397 21.831H35.4988C34.8548 21.831 34.3299 21.306 34.3299 20.662V20.669Z" fill="black"/>
</g>
<defs>
<filter id="filter0_d_8318_7829" x="0" y="0" width="64" height="69" filterUnits="userSpaceOnUse" color-interpolation-filters="sRGB">
<feFlood flood-opacity="0" result="BackgroundImageFix"/>
<feColorMatrix in="SourceAlpha" type="matrix" values="0 0 0 0 0 0 0 0 0 0 0 0 0 0 0 0 0 0 127 0" result="hardAlpha"/>
<feOffset dy="2"/>
<feGaussianBlur stdDeviation="4"/>
<feColorMatrix type="matrix" values="0 0 0 0 0 0 0 0 0 0 0 0 0 0 0 0 0 0 0.16 0"/>
<feBlend mode="normal" in2="BackgroundImageFix" result="effect1_dropShadow_8318_7829"/>
<feBlend mode="normal" in="SourceGraphic" in2="effect1_dropShadow_8318_7829" result="shape"/>
</filter>
</defs>
</svg>
