<svg width="56" height="56" viewBox="0 0 56 56" fill="none" xmlns="http://www.w3.org/2000/svg">
<g filter="url(#filter0_d_805_7062)">
<g clip-path="url(#clip0_805_7062)">
<rect x="10" y="8" width="36" height="36" rx="18" fill="#FAE8E8"/>
<path fill-rule="evenodd" clip-rule="evenodd" d="M15.3999 22.3248C15.3999 21.165 16.3401 20.2248 17.4999 20.2248H34.9999C38.4793 20.2248 41.2999 23.0454 41.2999 26.5248V30.7248C41.2999 31.8846 40.3644 32.8248 39.2046 32.8248C32.3612 32.8248 19.3829 32.8248 17.4999 32.8248C16.3401 32.8248 15.3999 31.8846 15.3999 30.7248V22.3248ZM17.4999 23.0248C17.4999 22.6382 17.8133 22.3248 18.1999 22.3248H20.297C20.6836 22.3248 20.997 22.6382 20.997 23.0248V26.5248C20.997 26.9114 20.6836 27.2248 20.297 27.2248H18.1999C17.8499 27.2248 17.4999 26.8748 17.4999 26.5248V23.0248ZM23.1075 22.3248C22.7209 22.3248 22.4075 22.6382 22.4075 23.0248L22.3999 26.5248C22.3999 26.8748 22.7499 27.2248 23.0999 27.2248H25.9075C26.2941 27.2248 26.6075 26.9114 26.6075 26.5248V23.0248C26.6075 22.6382 26.2941 22.3248 25.9075 22.3248H23.1075ZM28.018 23.0248C28.018 22.6382 28.3314 22.3248 28.718 22.3248H31.518C31.9046 22.3248 32.218 22.6382 32.218 23.0248V26.5248C32.218 26.9114 31.9046 27.2248 31.518 27.2248H29.418C28.6448 27.2248 27.9999 27.298 27.9999 26.5248L28.018 23.0248ZM34.3285 22.3248C33.9419 22.3248 33.6285 22.6382 33.6285 23.0248V26.5248C33.6285 26.9114 33.9419 27.2248 34.3285 27.2248H38.5285C38.9151 27.2248 39.2285 26.9114 39.2285 26.5248C39.2285 24.2052 37.3481 22.3248 35.0285 22.3248H34.3285Z" fill="#D44546"/>
<path fill-rule="evenodd" clip-rule="evenodd" d="M15.9249 34.9248C15.9249 34.4416 16.3167 34.0498 16.7999 34.0498L39.8999 34.0498C40.3832 34.0498 40.7749 34.4416 40.7749 34.9248C40.7749 35.4081 40.3832 35.7998 39.8999 35.7998L16.7999 35.7998C16.3167 35.7998 15.9249 35.4081 15.9249 34.9248Z" fill="#D44546"/>
<path fill-rule="evenodd" clip-rule="evenodd" d="M24.3249 17.4248C24.3249 16.9416 24.7167 16.5498 25.1999 16.5498H30.7999C31.1454 16.5498 31.4586 16.7532 31.5992 17.0688C31.7398 17.3845 31.6814 17.7533 31.4503 18.0101L28.3003 21.5101C27.977 21.8693 27.4238 21.8985 27.0646 21.5752C26.7054 21.2519 26.6762 20.6987 26.9995 20.3395L28.8352 18.2998H25.1999C24.7167 18.2998 24.3249 17.9081 24.3249 17.4248Z" fill="#D44546"/>
</g>
<rect x="9" y="7" width="38" height="38" rx="19" stroke="white" stroke-width="2"/>
</g>
<defs>
<filter id="filter0_d_805_7062" x="0" y="0" width="56" height="56" filterUnits="userSpaceOnUse" color-interpolation-filters="sRGB">
<feFlood flood-opacity="0" result="BackgroundImageFix"/>
<feColorMatrix in="SourceAlpha" type="matrix" values="0 0 0 0 0 0 0 0 0 0 0 0 0 0 0 0 0 0 127 0" result="hardAlpha"/>
<feOffset dy="2"/>
<feGaussianBlur stdDeviation="4"/>
<feColorMatrix type="matrix" values="0 0 0 0 0 0 0 0 0 0 0 0 0 0 0 0 0 0 0.16 0"/>
<feBlend mode="normal" in2="BackgroundImageFix" result="effect1_dropShadow_805_7062"/>
<feBlend mode="normal" in="SourceGraphic" in2="effect1_dropShadow_805_7062" result="shape"/>
</filter>
<clipPath id="clip0_805_7062">
<rect x="10" y="8" width="36" height="36" rx="18" fill="white"/>
</clipPath>
</defs>
</svg>
