<svg width="56" height="56" viewBox="0 0 56 56" fill="none" xmlns="http://www.w3.org/2000/svg">
<g filter="url(#filter0_d_805_7046)">
<g clip-path="url(#clip0_805_7046)">
<rect x="10" y="8" width="36" height="36" rx="18" fill="#418083"/>
<path d="M38.8315 29.2295C38.4849 28.9144 38.1068 28.5678 37.382 28.5678C36.6572 28.5678 36.2791 28.9144 35.9325 29.2295C35.6174 29.5131 35.3338 29.7652 34.7666 29.7652C34.1994 29.7652 33.9158 29.5131 33.6006 29.2295C33.254 28.9144 32.8759 28.5678 32.1511 28.5678C31.4264 28.5678 31.0482 28.9144 30.7016 29.2295C30.3865 29.5131 30.1029 29.7652 29.5357 29.7652C28.9685 29.7652 28.6849 29.5131 28.3698 29.2295C28.2122 29.072 28.0232 28.9144 27.8026 28.7884C27.8026 28.7884 27.7396 28.7884 27.708 28.7884C27.4875 28.6938 27.2669 28.6308 26.9518 28.6308C26.227 28.6308 25.8489 28.9774 25.5338 29.2925C25.2186 29.5761 24.9666 29.8282 24.3994 29.8282C23.8322 29.8282 23.5486 29.5761 23.265 29.2925C22.9183 28.9774 22.5717 28.6308 21.8469 28.6308C21.1222 28.6308 20.7441 28.9774 20.4289 29.2925C20.1138 29.5761 19.8617 29.8282 19.263 29.8282C18.6643 29.8282 18.4122 29.5761 18.1286 29.2925C17.9396 29.135 17.7505 28.9459 17.4669 28.7884L17.3093 29.8282C17.5299 29.9228 17.6875 30.0803 17.845 30.2379C18.1916 30.553 18.5698 30.8996 19.263 30.8996C19.9563 30.8996 20.3659 30.553 20.681 30.2379C20.9961 29.9543 21.2482 29.7022 21.8154 29.7022C22.3826 29.7022 22.6662 29.9543 22.9814 30.2379C23.328 30.553 23.6746 30.8996 24.3994 30.8996C25.1241 30.8996 25.5023 30.553 25.8174 30.2379C26.1325 29.9543 26.3846 29.7022 26.9833 29.7022C27.582 29.7022 27.4559 29.7652 27.645 29.8597C27.8026 29.9543 27.9601 30.0803 28.0862 30.2064C28.4013 30.49 28.7794 30.8366 29.5042 30.8366C30.2289 30.8366 30.6071 30.49 30.9537 30.1749C31.2688 29.8912 31.5209 29.6392 32.1196 29.6392C32.7183 29.6392 32.9704 29.8912 33.2855 30.1749C33.6322 30.49 34.0103 30.8366 34.735 30.8366C35.4598 30.8366 35.8379 30.49 36.1846 30.1749C36.4997 29.8912 36.7833 29.6392 37.3505 29.6392C37.9177 29.6392 38.2013 29.8912 38.5164 30.1749L38.863 29.2925C38.863 29.2925 38.8 29.2295 38.737 29.198V29.261L38.8315 29.2295Z" fill="white"/>
<path d="M27.6765 28.7568C27.4875 28.6623 27.2984 28.5993 27.0148 28.5993C26.7312 28.5993 26.5106 28.6623 26.3215 28.7884L27.708 28.7884L27.6765 28.7884V28.7568Z" fill="white"/>
<path d="M21.0907 28.8199H22.5717C22.3826 28.6938 22.1621 28.5993 21.8469 28.5993C21.5318 28.5993 21.2797 28.6938 21.0907 28.8199Z" fill="white"/>
<path d="M40.5961 24.4398H37.6656L33.1595 21.0996H21.3428C21.1537 21.0996 20.9961 21.2572 20.9646 21.4462L20.2714 24.4398H19.1685C18.9794 24.4398 18.8219 24.5658 18.7904 24.7234L17.9396 27.78L17.845 27.8745C17.9711 27.9691 18.0656 28.0636 18.1916 28.1581C18.5068 28.4417 18.7588 28.6938 19.326 28.6938C19.8932 28.6938 20.1768 28.4417 20.492 28.1581C20.8386 27.843 21.1852 27.4964 21.91 27.4964C22.6347 27.4964 23.0129 27.843 23.328 28.1581C23.6431 28.4417 23.8952 28.6938 24.4624 28.6938C25.0296 28.6938 25.3132 28.4417 25.5968 28.1581C25.9434 27.843 26.29 27.4964 27.0148 27.4964C27.7396 27.4964 27.582 27.5594 27.7711 27.654C28.0547 27.78 28.2437 27.9691 28.4643 28.1266C28.7794 28.4102 29.063 28.6623 29.6302 28.6623C30.1974 28.6623 30.481 28.4102 30.7961 28.1266C31.1428 27.8115 31.5209 27.4649 32.2457 27.4649C32.9704 27.4649 33.3486 27.8115 33.6952 28.1266C34.0103 28.4102 34.2939 28.6623 34.8611 28.6623C35.4283 28.6623 35.7119 28.4102 36.027 28.1266C36.3736 27.8115 36.7518 27.4649 37.4765 27.4649C38.2013 27.4649 38.2643 27.5909 38.5164 27.78L40.6907 24.7549C40.6907 24.7549 40.6907 24.6919 40.6907 24.6289C40.6907 24.5028 40.5961 24.4083 40.4701 24.4083H40.5646L40.5961 24.4398ZM25.1241 24.4398H21.1537L21.5318 22.8012H25.0611V22.8642H25.1241V24.4713V24.4398ZM29.063 24.4398H25.5653V22.8012H29.063V24.4398ZM29.6302 24.4398V22.8012H33.7267L35.964 24.4398H29.6302Z" fill="white"/>
<path d="M31.6154 28.7568H32.9074C32.7498 28.6623 32.5293 28.5993 32.2772 28.5993C32.0251 28.5993 31.8045 28.6623 31.6154 28.7568Z" fill="white"/>
<path d="M37.5396 28.5993C37.2875 28.5993 37.1299 28.5993 36.9408 28.7253H37.8232L37.8862 28.6623C37.7916 28.6623 37.6656 28.6623 37.5396 28.6623V28.5993Z" fill="white"/>
</g>
<rect x="9" y="7" width="38" height="38" rx="19" stroke="white" stroke-width="2"/>
</g>
<defs>
<filter id="filter0_d_805_7046" x="0" y="0" width="56" height="56" filterUnits="userSpaceOnUse" color-interpolation-filters="sRGB">
<feFlood flood-opacity="0" result="BackgroundImageFix"/>
<feColorMatrix in="SourceAlpha" type="matrix" values="0 0 0 0 0 0 0 0 0 0 0 0 0 0 0 0 0 0 127 0" result="hardAlpha"/>
<feOffset dy="2"/>
<feGaussianBlur stdDeviation="4"/>
<feColorMatrix type="matrix" values="0 0 0 0 0 0 0 0 0 0 0 0 0 0 0 0 0 0 0.16 0"/>
<feBlend mode="normal" in2="BackgroundImageFix" result="effect1_dropShadow_805_7046"/>
<feBlend mode="normal" in="SourceGraphic" in2="effect1_dropShadow_805_7046" result="shape"/>
</filter>
<clipPath id="clip0_805_7046">
<rect x="10" y="8" width="36" height="36" rx="18" fill="white"/>
</clipPath>
</defs>
</svg>
