<svg width="64" height="64" viewBox="0 0 64 64" fill="none" xmlns="http://www.w3.org/2000/svg">
<g filter="url(#filter0_d_10364_5353)">
<path d="M10 30C10 17.8497 19.8497 8 32 8C44.1503 8 54 17.8497 54 30C54 42.1503 44.1503 52 32 52C19.8497 52 10 42.1503 10 30Z" fill="#FAE8E8"/>
<path d="M32 7C44.7025 7 55 17.2975 55 30C55 42.7025 44.7025 53 32 53C19.2975 53 9 42.7025 9 30C9 17.2975 19.2975 7 32 7Z" stroke="white" stroke-width="2"/>
<path fill-rule="evenodd" clip-rule="evenodd" d="M19.168 19.5001C19.168 18.8561 19.6861 18.3311 20.3301 18.3311H28.8911C31.1591 18.3311 33.3711 19.0661 35.1911 20.4311L42.0301 25.5621C43.7941 26.8851 44.8301 28.9571 44.8301 31.1621C44.8301 33.0941 43.2691 34.6621 41.3301 34.6621H20.3301C19.6861 34.6621 19.168 34.1371 19.168 33.4931V30.8681H27.3369C27.8199 30.8681 28.2119 30.4761 28.2119 29.9931C28.2119 26.9341 25.727 24.4491 22.668 24.4491H19.168V19.4931V19.5001ZM19.168 26.2061V29.1251H26.357C25.965 27.4521 24.46 26.2061 22.668 26.2061H19.168ZM40.6301 27.4311C40.8471 27.5921 41.043 27.7671 41.218 27.9561H37.8301C35.0931 27.9561 32.874 25.7371 32.874 23.0001V21.7051C33.189 21.8801 33.4971 22.0831 33.7911 22.3001L40.6301 27.4311Z" fill="#D44546"/>
<path fill-rule="evenodd" clip-rule="evenodd" d="M19.168 38.169C19.168 37.525 19.6861 37 20.3301 37H43.668C44.312 37 44.8301 37.525 44.8301 38.169C44.8301 38.813 44.312 39.338 43.668 39.338H20.3301C19.6861 39.338 19.168 38.813 19.168 38.169Z" fill="#D44546"/>
<path fill-rule="evenodd" clip-rule="evenodd" d="M24.999 37C25.643 37 26.168 37.525 26.168 38.169V40.5C26.168 41.144 25.643 41.669 24.999 41.669C24.355 41.669 23.8301 41.144 23.8301 40.5V38.169C23.8301 37.525 24.355 37 24.999 37ZM31.999 37C32.643 37 33.168 37.525 33.168 38.169V40.5C33.168 41.144 32.643 41.669 31.999 41.669C31.355 41.669 30.8301 41.144 30.8301 40.5V38.169C30.8301 37.525 31.355 37 31.999 37ZM38.999 37C39.643 37 40.168 37.525 40.168 38.169V40.5C40.168 41.144 39.643 41.669 38.999 41.669C38.355 41.669 37.8301 41.144 37.8301 40.5V38.169C37.8301 37.525 38.355 37 38.999 37Z" fill="#D44546"/>
</g>
<defs>
<filter id="filter0_d_10364_5353" x="0" y="0" width="64" height="64" filterUnits="userSpaceOnUse" color-interpolation-filters="sRGB">
<feFlood flood-opacity="0" result="BackgroundImageFix"/>
<feColorMatrix in="SourceAlpha" type="matrix" values="0 0 0 0 0 0 0 0 0 0 0 0 0 0 0 0 0 0 127 0" result="hardAlpha"/>
<feOffset dy="2"/>
<feGaussianBlur stdDeviation="4"/>
<feColorMatrix type="matrix" values="0 0 0 0 0 0 0 0 0 0 0 0 0 0 0 0 0 0 0.16 0"/>
<feBlend mode="normal" in2="BackgroundImageFix" result="effect1_dropShadow_10364_5353"/>
<feBlend mode="normal" in="SourceGraphic" in2="effect1_dropShadow_10364_5353" result="shape"/>
</filter>
</defs>
</svg>
