<svg width="56" height="56" viewBox="0 0 56 56" fill="none" xmlns="http://www.w3.org/2000/svg">
<g filter="url(#filter0_d_896_9435)">
<g clip-path="url(#clip0_896_9435)">
<rect x="10" y="8" width="36" height="36" rx="18" fill="#A9AEB1"/>
<path fill-rule="evenodd" clip-rule="evenodd" d="M27.1715 19.567C27.6965 19.336 28.2987 19.336 28.8237 19.567L36.2157 22.836C37.7977 23.536 38.5395 25.349 37.9025 26.952L37.4756 28.037C37.4756 28.037 37.4337 28.037 37.4127 28.037H34.6965C34.2135 28.037 33.8215 28.429 33.8215 28.912C33.8215 29.395 34.2135 29.787 34.6965 29.787H36.7824L35.7044 32.503C35.4874 32.454 35.2564 32.426 35.0184 32.419C33.4994 32.356 32.3305 33.056 31.4555 33.966C30.8955 33.511 29.7124 32.608 28.1794 32.496C26.6534 32.391 25.4354 33.042 24.5184 33.966L24.4696 33.931C23.9236 33.525 22.6775 32.615 21.1025 32.517C20.8295 32.503 20.5636 32.51 20.3116 32.538L19.2196 29.787H21.2915C21.7745 29.787 22.1665 29.395 22.1665 28.912C22.1665 28.429 21.7745 28.037 21.2915 28.037H18.5267L18.0995 26.952C17.4625 25.349 18.2046 23.529 19.7866 22.836L27.1715 19.567Z" fill="white"/>
<path fill-rule="evenodd" clip-rule="evenodd" d="M20.2274 18.6782C20.3884 16.8722 21.9004 15.4932 23.7134 15.4932H32.2816C34.0946 15.4932 35.6066 16.8722 35.7676 18.6782L36.1596 22.9762C36.2156 23.6202 35.7464 24.1872 35.1024 24.2432C34.4584 24.2992 33.8914 23.8302 33.8354 23.1862L33.4434 18.8882C33.3874 18.2862 32.8836 17.8242 32.2816 17.8242H23.7134C23.1114 17.8242 22.6077 18.2862 22.5517 18.8882L22.1596 23.1862C22.1036 23.8302 21.5366 24.2992 20.8926 24.2432C20.2486 24.1872 19.7794 23.6202 19.8354 22.9762L20.2274 18.6782Z" fill="white"/>
<path fill-rule="evenodd" clip-rule="evenodd" d="M27.9971 13.1621C28.6411 13.1621 29.166 13.6871 29.166 14.3311V16.6621C29.166 17.3061 28.6411 17.8311 27.9971 17.8311C27.3531 17.8311 26.8281 17.3061 26.8281 16.6621V14.3311C26.8281 13.6871 27.3531 13.1621 27.9971 13.1621Z" fill="white"/>
<path fill-rule="evenodd" clip-rule="evenodd" d="M38.693 36.486C38.693 36.486 38.7562 36.437 38.8122 36.381C39.2532 35.912 39.9952 35.891 40.4642 36.332C40.9331 36.773 40.954 37.508 40.513 37.984C40.114 38.411 39.6241 38.726 39.0361 38.817C38.4551 38.901 37.944 38.74 37.552 38.537C37.167 38.341 36.8311 38.068 36.5581 37.83C36.4181 37.711 36.236 37.543 36.068 37.389C35.949 37.284 35.8442 37.186 35.7672 37.116C35.2212 36.626 34.9621 36.514 34.8361 36.507C34.8361 36.507 34.7663 36.507 34.6403 36.591C34.4863 36.696 34.2551 36.92 33.9611 37.368H33.9539C33.6109 37.886 33.184 38.32 32.638 38.544C32.057 38.789 31.4902 38.74 31.0142 38.579C30.5732 38.432 30.1881 38.173 29.8801 37.949C29.6631 37.788 29.4321 37.592 29.2221 37.424C29.1521 37.361 29.0752 37.305 29.0122 37.249C28.4102 36.759 28.0952 36.591 27.8922 36.577H27.885C27.885 36.577 27.5419 36.542 26.9539 37.417C26.6389 37.907 26.219 38.32 25.652 38.523C25.078 38.733 24.5321 38.656 24.0911 38.509C23.6711 38.362 23.293 38.131 22.985 37.914C22.775 37.774 22.5512 37.606 22.3482 37.452C22.2572 37.382 22.166 37.312 22.082 37.256C21.459 36.801 21.102 36.619 20.857 36.605C20.787 36.605 20.479 36.584 19.968 37.368H19.9611C19.4501 38.138 18.6801 38.817 17.6581 38.817C16.6361 38.817 15.8592 38.138 15.3622 37.368C15.0052 36.829 15.1592 36.108 15.6982 35.751C16.2372 35.401 16.9653 35.548 17.3153 36.094C17.4833 36.353 17.6021 36.444 17.6581 36.472C17.7141 36.444 17.8403 36.353 18.0153 36.087C18.8063 34.883 19.7999 34.204 21.0039 34.274C22.0259 34.337 22.901 34.953 23.468 35.373C23.594 35.464 23.7061 35.548 23.8111 35.625C23.9861 35.758 24.1473 35.877 24.3153 35.989C24.5743 36.164 24.7421 36.262 24.8611 36.297C24.8681 36.297 24.875 36.297 24.882 36.297C24.91 36.269 24.9521 36.213 25.0081 36.129C25.8271 34.89 26.8282 34.155 28.0532 34.239C29.0962 34.316 29.957 35.002 30.482 35.429C30.587 35.513 30.6782 35.59 30.7622 35.66C30.9512 35.814 31.1121 35.947 31.2801 36.073C31.5181 36.255 31.672 36.332 31.763 36.367C31.805 36.332 31.8891 36.255 32.0081 36.08C32.7851 34.897 33.7371 34.113 34.9411 34.169C35.9911 34.218 36.817 34.918 37.321 35.366C37.482 35.513 37.6012 35.618 37.7062 35.723C37.8252 35.835 37.9371 35.933 38.0911 36.066C38.3221 36.276 38.4972 36.395 38.6232 36.465C38.6582 36.479 38.679 36.493 38.693 36.5V36.486Z" fill="white"/>
</g>
<rect x="9" y="7" width="38" height="38" rx="19" stroke="white" stroke-width="2"/>
</g>
<defs>
<filter id="filter0_d_896_9435" x="0" y="0" width="56" height="56" filterUnits="userSpaceOnUse" color-interpolation-filters="sRGB">
<feFlood flood-opacity="0" result="BackgroundImageFix"/>
<feColorMatrix in="SourceAlpha" type="matrix" values="0 0 0 0 0 0 0 0 0 0 0 0 0 0 0 0 0 0 127 0" result="hardAlpha"/>
<feOffset dy="2"/>
<feGaussianBlur stdDeviation="4"/>
<feColorMatrix type="matrix" values="0 0 0 0 0 0 0 0 0 0 0 0 0 0 0 0 0 0 0.16 0"/>
<feBlend mode="normal" in2="BackgroundImageFix" result="effect1_dropShadow_896_9435"/>
<feBlend mode="normal" in="SourceGraphic" in2="effect1_dropShadow_896_9435" result="shape"/>
</filter>
<clipPath id="clip0_896_9435">
<rect x="10" y="8" width="36" height="36" rx="18" fill="white"/>
</clipPath>
</defs>
</svg>
