<svg width="56" height="56" viewBox="0 0 56 56" fill="none" xmlns="http://www.w3.org/2000/svg">
<g filter="url(#filter0_d_8318_7786)">
<g clip-path="url(#clip0_8318_7786)">
<rect x="10" y="10" width="36" height="36" rx="18" fill="#A9AEB1"/>
<path d="M22.1699 36.8971C23.7799 36.8971 25.082 35.5881 25.082 33.9781C25.082 32.3681 23.7799 31.0591 22.1699 31.0591C20.5599 31.0591 19.251 32.3681 19.251 33.9781C19.251 35.5881 20.5599 36.8971 22.1699 36.8971Z" fill="white"/>
<path d="M33.832 36.8971C35.442 36.8971 36.751 35.5881 36.751 33.9781C36.751 32.3681 35.442 31.0591 33.832 31.0591C32.222 31.0591 30.9199 32.3681 30.9199 33.9781C30.9199 35.5881 32.222 36.8971 33.832 36.8971Z" fill="white"/>
<path fill-rule="evenodd" clip-rule="evenodd" d="M15.457 25.8091C15.457 25.3261 15.849 24.9341 16.332 24.9341H35.001C35.484 24.9341 35.876 25.3261 35.876 25.8091C35.876 26.2921 35.484 26.6841 35.001 26.6841H16.332C15.849 26.6841 15.457 26.2921 15.457 25.8091Z" fill="white"/>
<path fill-rule="evenodd" clip-rule="evenodd" d="M24.501 19.103C24.984 19.103 25.376 19.495 25.376 19.978V25.809C25.376 26.292 24.984 26.684 24.501 26.684C24.018 26.684 23.626 26.292 23.626 25.809V19.978C23.626 19.495 24.018 19.103 24.501 19.103Z" fill="white"/>
<path fill-rule="evenodd" clip-rule="evenodd" d="M15.457 19.978C15.457 19.495 15.849 19.103 16.332 19.103H29.7021C30.7521 19.103 31.7319 19.614 32.3339 20.475L35.5889 25.13L38.7669 26.719C39.8589 27.265 40.5449 28.371 40.5449 29.589V32.816C40.5449 33.943 39.628 34.86 38.501 34.86H38.179C38.235 34.58 38.2699 34.286 38.2699 33.985C38.2699 31.535 36.282 29.554 33.832 29.554C31.382 29.554 29.401 31.542 29.401 33.985C29.401 34.286 29.4291 34.58 29.4851 34.86H26.5169C26.5729 34.58 26.601 34.286 26.601 33.985C26.601 31.535 24.6129 29.554 22.1699 29.554C19.7269 29.554 17.732 31.542 17.732 33.985C17.732 34.16 17.7459 34.342 17.7669 34.51L16.5911 33.922C15.8981 33.579 15.457 32.872 15.457 32.095V25.235C15.457 25.116 15.4849 24.99 15.5339 24.878L17.3191 20.86H16.332C15.849 20.86 15.457 20.468 15.457 19.985V19.978ZM19.237 20.853L17.4241 24.934H23.626V20.853H19.237ZM25.376 20.853V24.934H33.321L30.8991 21.476C30.6261 21.084 30.1781 20.853 29.7021 20.853H25.376Z" fill="white"/>
</g>
<rect x="9" y="9" width="38" height="38" rx="19" stroke="white" stroke-width="2"/>
</g>
<defs>
<filter id="filter0_d_8318_7786" x="0" y="0" width="56" height="56" filterUnits="userSpaceOnUse" color-interpolation-filters="sRGB">
<feFlood flood-opacity="0" result="BackgroundImageFix"/>
<feColorMatrix in="SourceAlpha" type="matrix" values="0 0 0 0 0 0 0 0 0 0 0 0 0 0 0 0 0 0 127 0" result="hardAlpha"/>
<feOffset/>
<feGaussianBlur stdDeviation="4"/>
<feColorMatrix type="matrix" values="0 0 0 0 0 0 0 0 0 0 0 0 0 0 0 0 0 0 0.23 0"/>
<feBlend mode="normal" in2="BackgroundImageFix" result="effect1_dropShadow_8318_7786"/>
<feBlend mode="normal" in="SourceGraphic" in2="effect1_dropShadow_8318_7786" result="shape"/>
</filter>
<clipPath id="clip0_8318_7786">
<rect x="10" y="10" width="36" height="36" rx="18" fill="white"/>
</clipPath>
</defs>
</svg>
