<svg width="76" height="48" viewBox="0 0 76 48" fill="none" xmlns="http://www.w3.org/2000/svg">
<g filter="url(#filter0_d_10646_5104)">
<path d="M8 24C8 15.1634 15.1634 8 24 8H52C60.8366 8 68 15.1634 68 24C68 32.8366 60.8366 40 52 40H24C15.1634 40 8 32.8366 8 24Z" fill="white"/>
<path d="M24 9H52C60.2843 9 67 15.7157 67 24C67 32.2843 60.2843 39 52 39H24C15.7157 39 9 32.2843 9 24C9 15.7157 15.7157 9 24 9Z" stroke="white" stroke-width="2"/>
<path d="M10 24C10 16.268 16.268 10 24 10C31.732 10 38 16.268 38 24C38 31.732 31.732 38 24 38C16.268 38 10 31.732 10 24Z" fill="#8E2864"/>
<path d="M19.834 30.3551C20.984 30.3551 21.9141 29.4201 21.9141 28.2701C21.9141 27.1201 20.984 26.1851 19.834 26.1851C18.684 26.1851 17.749 27.1201 17.749 28.2701C17.749 29.4201 18.684 30.3551 19.834 30.3551Z" fill="white"/>
<path d="M28.1641 30.3551C29.3141 30.3551 30.249 29.4201 30.249 28.2701C30.249 27.1201 29.3141 26.1851 28.1641 26.1851C27.0141 26.1851 26.084 27.1201 26.084 28.2701C26.084 29.4201 27.0141 30.3551 28.1641 30.3551Z" fill="white"/>
<path fill-rule="evenodd" clip-rule="evenodd" d="M15.0391 22.4351C15.0391 22.0901 15.3191 21.8101 15.6641 21.8101H28.999C29.344 21.8101 29.624 22.0901 29.624 22.4351C29.624 22.7801 29.344 23.0601 28.999 23.0601H15.6641C15.3191 23.0601 15.0391 22.7801 15.0391 22.4351Z" fill="white"/>
<path fill-rule="evenodd" clip-rule="evenodd" d="M21.499 17.645C21.844 17.645 22.124 17.925 22.124 18.27V22.435C22.124 22.78 21.844 23.06 21.499 23.06C21.154 23.06 20.874 22.78 20.874 22.435V18.27C20.874 17.925 21.154 17.645 21.499 17.645Z" fill="white"/>
<path fill-rule="evenodd" clip-rule="evenodd" d="M15.0391 18.27C15.0391 17.925 15.3191 17.645 15.6641 17.645H25.2141C25.9641 17.645 26.664 18.01 27.094 18.625L29.4189 21.95L31.689 23.085C32.469 23.475 32.959 24.265 32.959 25.135V27.44C32.959 28.245 32.304 28.9 31.499 28.9H31.269C31.309 28.7 31.334 28.49 31.334 28.275C31.334 26.525 29.9141 25.11 28.1641 25.11C26.4141 25.11 24.999 26.53 24.999 28.275C24.999 28.49 25.0191 28.7 25.0591 28.9H22.939C22.979 28.7 22.999 28.49 22.999 28.275C22.999 26.525 21.579 25.11 19.834 25.11C18.089 25.11 16.6641 26.53 16.6641 28.275C16.6641 28.4 16.674 28.53 16.689 28.65L15.8491 28.23C15.3541 27.985 15.0391 27.48 15.0391 26.925V22.025C15.0391 21.94 15.059 21.85 15.094 21.77L16.3691 18.9H15.6641C15.3191 18.9 15.0391 18.62 15.0391 18.275V18.27ZM17.739 18.895L16.4441 21.81H20.874V18.895H17.739ZM22.124 18.895V21.81H27.7991L26.0691 19.34C25.8741 19.06 25.5541 18.895 25.2141 18.895H22.124Z" fill="white"/>
</g>
<defs>
<filter id="filter0_d_10646_5104" x="0" y="0" width="76" height="48" filterUnits="userSpaceOnUse" color-interpolation-filters="sRGB">
<feFlood flood-opacity="0" result="BackgroundImageFix"/>
<feColorMatrix in="SourceAlpha" type="matrix" values="0 0 0 0 0 0 0 0 0 0 0 0 0 0 0 0 0 0 127 0" result="hardAlpha"/>
<feOffset/>
<feGaussianBlur stdDeviation="4"/>
<feColorMatrix type="matrix" values="0 0 0 0 0 0 0 0 0 0 0 0 0 0 0 0 0 0 0.23 0"/>
<feBlend mode="normal" in2="BackgroundImageFix" result="effect1_dropShadow_10646_5104"/>
<feBlend mode="normal" in="SourceGraphic" in2="effect1_dropShadow_10646_5104" result="shape"/>
</filter>
</defs>
</svg>
