<svg width="56" height="56" viewBox="0 0 56 56" fill="none" xmlns="http://www.w3.org/2000/svg">
<g filter="url(#filter0_d_8318_7891)">
<g clip-path="url(#clip0_8318_7891)">
<rect x="10" y="8" width="36" height="36" rx="18" fill="#418083"/>
<path fill-rule="evenodd" clip-rule="evenodd" d="M27.1719 19.566C27.6969 19.335 28.2992 19.335 28.8242 19.566L36.2162 22.835C37.7982 23.535 38.54 25.348 37.903 26.951L37.4761 28.036C37.4761 28.036 37.4342 28.036 37.4132 28.036H34.6969C34.2139 28.036 33.8219 28.428 33.8219 28.911C33.8219 29.394 34.2139 29.786 34.6969 29.786H36.7829L35.7049 32.502C35.4879 32.453 35.2569 32.425 35.0189 32.418C33.4999 32.355 32.331 33.055 31.456 33.965C30.896 33.51 29.7129 32.607 28.1799 32.495C26.6539 32.39 25.4359 33.041 24.5189 33.965L24.47 33.93C23.924 33.524 22.678 32.614 21.103 32.516C20.83 32.502 20.5641 32.509 20.3121 32.537L19.22 29.786H21.292C21.775 29.786 22.167 29.394 22.167 28.911C22.167 28.428 21.775 28.036 21.292 28.036H18.5272L18.1 26.951C17.463 25.348 18.2051 23.528 19.7871 22.835L27.1719 19.566Z" fill="white"/>
<path fill-rule="evenodd" clip-rule="evenodd" d="M20.2279 18.6772C20.3889 16.8712 21.9009 15.4922 23.7139 15.4922H32.2821C34.0951 15.4922 35.6071 16.8712 35.7681 18.6772L36.1601 22.9752C36.2161 23.6192 35.7469 24.1862 35.1029 24.2422C34.4589 24.2982 33.8919 23.8292 33.8359 23.1852L33.4438 18.8872C33.3878 18.2852 32.8841 17.8232 32.2821 17.8232H23.7139C23.1119 17.8232 22.6081 18.2852 22.5521 18.8872L22.1601 23.1852C22.1041 23.8292 21.5371 24.2982 20.8931 24.2422C20.2491 24.1862 19.7799 23.6192 19.8359 22.9752L20.2279 18.6772Z" fill="white"/>
<path fill-rule="evenodd" clip-rule="evenodd" d="M27.9976 13.1611C28.6416 13.1611 29.1665 13.6861 29.1665 14.3301V16.6611C29.1665 17.3051 28.6416 17.8301 27.9976 17.8301C27.3536 17.8301 26.8286 17.3051 26.8286 16.6611V14.3301C26.8286 13.6861 27.3536 13.1611 27.9976 13.1611Z" fill="white"/>
<path fill-rule="evenodd" clip-rule="evenodd" d="M38.6934 36.4851C38.6934 36.4851 38.7567 36.436 38.8127 36.38C39.2537 35.911 39.9956 35.89 40.4646 36.331C40.9336 36.772 40.9545 37.507 40.5135 37.983C40.1145 38.41 39.6246 38.725 39.0366 38.8161C38.4556 38.9001 37.9445 38.739 37.5525 38.536C37.1675 38.34 36.8316 38.0671 36.5586 37.8291C36.4186 37.7101 36.2364 37.542 36.0684 37.3881C35.9494 37.2831 35.8447 37.1851 35.7677 37.1151C35.2217 36.625 34.9626 36.513 34.8366 36.506C34.8366 36.506 34.7668 36.5061 34.6408 36.59C34.4868 36.6951 34.2556 36.9191 33.9616 37.3671H33.9544C33.6114 37.885 33.1845 38.3191 32.6385 38.5431C32.0575 38.7881 31.4906 38.7391 31.0146 38.5781C30.5736 38.4311 30.1886 38.1721 29.8806 37.9481C29.6636 37.7871 29.4326 37.5911 29.2226 37.4231C29.1526 37.3601 29.0757 37.3041 29.0127 37.2481C28.4107 36.7581 28.0957 36.5901 27.8927 36.5761H27.8855C27.8855 36.5761 27.5424 36.541 26.9544 37.416C26.6394 37.906 26.2195 38.3191 25.6525 38.5221C25.0785 38.7321 24.5325 38.655 24.0915 38.508C23.6715 38.361 23.2935 38.1301 22.9855 37.913C22.7755 37.7731 22.5517 37.6051 22.3487 37.4511C22.2577 37.3811 22.1665 37.311 22.0825 37.255C21.4595 36.8 21.1025 36.6181 20.8575 36.6041C20.7875 36.6041 20.4794 36.5831 19.9684 37.3671H19.9616C19.4506 38.1371 18.6806 38.8161 17.6586 38.8161C16.6366 38.8161 15.8597 38.1371 15.3627 37.3671C15.0057 36.8281 15.1597 36.1071 15.6987 35.7501C16.2377 35.4001 16.9658 35.5471 17.3158 36.0931C17.4838 36.3521 17.6026 36.4431 17.6586 36.4711C17.7146 36.4431 17.8408 36.352 18.0158 36.0861C18.8068 34.882 19.8004 34.2031 21.0044 34.2731C22.0264 34.3361 22.9014 34.9521 23.4684 35.3721C23.5944 35.4631 23.7066 35.5471 23.8116 35.6241C23.9866 35.7571 24.1478 35.8761 24.3158 35.9881C24.5748 36.163 24.7426 36.2611 24.8616 36.2961C24.8686 36.2961 24.8755 36.2961 24.8825 36.2961C24.9105 36.2681 24.9526 36.2121 25.0086 36.1281C25.8276 34.8891 26.8287 34.1541 28.0537 34.2381C29.0967 34.3151 29.9575 35.0011 30.4825 35.4281C30.5875 35.5121 30.6787 35.589 30.7627 35.659C30.9517 35.813 31.1126 35.9461 31.2806 36.0721C31.5186 36.2541 31.6725 36.3311 31.7635 36.3661C31.8055 36.3311 31.8896 36.2541 32.0086 36.0791C32.7856 34.8961 33.7375 34.1121 34.9415 34.1681C35.9915 34.2171 36.8175 34.9171 37.3215 35.3651C37.4825 35.5121 37.6017 35.6171 37.7067 35.7221C37.8257 35.8341 37.9375 35.9321 38.0915 36.0651C38.3225 36.2751 38.4977 36.3941 38.6237 36.4641C38.6587 36.4781 38.6794 36.4921 38.6934 36.4991V36.4851Z" fill="white"/>
</g>
<rect x="9" y="7" width="38" height="38" rx="19" stroke="white" stroke-width="2"/>
</g>
<defs>
<filter id="filter0_d_8318_7891" x="0" y="0" width="56" height="56" filterUnits="userSpaceOnUse" color-interpolation-filters="sRGB">
<feFlood flood-opacity="0" result="BackgroundImageFix"/>
<feColorMatrix in="SourceAlpha" type="matrix" values="0 0 0 0 0 0 0 0 0 0 0 0 0 0 0 0 0 0 127 0" result="hardAlpha"/>
<feOffset dy="2"/>
<feGaussianBlur stdDeviation="4"/>
<feColorMatrix type="matrix" values="0 0 0 0 0 0 0 0 0 0 0 0 0 0 0 0 0 0 0.16 0"/>
<feBlend mode="normal" in2="BackgroundImageFix" result="effect1_dropShadow_8318_7891"/>
<feBlend mode="normal" in="SourceGraphic" in2="effect1_dropShadow_8318_7891" result="shape"/>
</filter>
<clipPath id="clip0_8318_7891">
<rect x="10" y="8" width="36" height="36" rx="18" fill="white"/>
</clipPath>
</defs>
</svg>
