<svg width="64" height="64" viewBox="0 0 64 64" fill="none" xmlns="http://www.w3.org/2000/svg">
<g filter="url(#filter0_d_10410_4997)">
<path d="M10 32C10 19.8497 19.8497 10 32 10C44.1503 10 54 19.8497 54 32C54 44.1503 44.1503 54 32 54C19.8497 54 10 44.1503 10 32Z" fill="#BD3685"/>
<path d="M32 9C44.7025 9 55 19.2975 55 32C55 44.7025 44.7025 55 32 55C19.2975 55 9 44.7025 9 32C9 19.2975 19.2975 9 32 9Z" stroke="white" stroke-width="2"/>
<path fill-rule="evenodd" clip-rule="evenodd" d="M19.168 21.5001C19.168 20.8561 19.6861 20.3311 20.3301 20.3311H28.8911C31.1591 20.3311 33.3711 21.0661 35.1911 22.4311L42.0301 27.5621C43.7941 28.8851 44.8301 30.9571 44.8301 33.1621C44.8301 35.0941 43.2691 36.6621 41.3301 36.6621H20.3301C19.6861 36.6621 19.168 36.1371 19.168 35.4931V32.8681H27.3369C27.8199 32.8681 28.2119 32.4761 28.2119 31.9931C28.2119 28.9341 25.727 26.4491 22.668 26.4491H19.168V21.4931V21.5001ZM19.168 28.2061V31.1251H26.357C25.965 29.4521 24.46 28.2061 22.668 28.2061H19.168ZM40.6301 29.4311C40.8471 29.5921 41.043 29.7671 41.218 29.9561H37.8301C35.0931 29.9561 32.874 27.7371 32.874 25.0001V23.7051C33.189 23.8801 33.4971 24.0831 33.7911 24.3001L40.6301 29.4311Z" fill="white"/>
<path fill-rule="evenodd" clip-rule="evenodd" d="M19.168 40.169C19.168 39.525 19.6861 39 20.3301 39H43.668C44.312 39 44.8301 39.525 44.8301 40.169C44.8301 40.813 44.312 41.338 43.668 41.338H20.3301C19.6861 41.338 19.168 40.813 19.168 40.169Z" fill="white"/>
<path fill-rule="evenodd" clip-rule="evenodd" d="M24.999 39C25.643 39 26.168 39.525 26.168 40.169V42.5C26.168 43.144 25.643 43.669 24.999 43.669C24.355 43.669 23.8301 43.144 23.8301 42.5V40.169C23.8301 39.525 24.355 39 24.999 39ZM31.999 39C32.643 39 33.168 39.525 33.168 40.169V42.5C33.168 43.144 32.643 43.669 31.999 43.669C31.355 43.669 30.8301 43.144 30.8301 42.5V40.169C30.8301 39.525 31.355 39 31.999 39ZM38.999 39C39.643 39 40.168 39.525 40.168 40.169V42.5C40.168 43.144 39.643 43.669 38.999 43.669C38.355 43.669 37.8301 43.144 37.8301 42.5V40.169C37.8301 39.525 38.355 39 38.999 39Z" fill="white"/>
</g>
<defs>
<filter id="filter0_d_10410_4997" x="0" y="0" width="64" height="64" filterUnits="userSpaceOnUse" color-interpolation-filters="sRGB">
<feFlood flood-opacity="0" result="BackgroundImageFix"/>
<feColorMatrix in="SourceAlpha" type="matrix" values="0 0 0 0 0 0 0 0 0 0 0 0 0 0 0 0 0 0 127 0" result="hardAlpha"/>
<feOffset/>
<feGaussianBlur stdDeviation="4"/>
<feColorMatrix type="matrix" values="0 0 0 0 0 0 0 0 0 0 0 0 0 0 0 0 0 0 0.23 0"/>
<feBlend mode="normal" in2="BackgroundImageFix" result="effect1_dropShadow_10410_4997"/>
<feBlend mode="normal" in="SourceGraphic" in2="effect1_dropShadow_10410_4997" result="shape"/>
</filter>
</defs>
</svg>
