<svg width="56" height="56" viewBox="0 0 56 56" fill="none" xmlns="http://www.w3.org/2000/svg">
<g filter="url(#filter0_d_805_7051)">
<g clip-path="url(#clip0_805_7051)">
<rect x="10" y="8" width="36" height="36" rx="18" fill="#A9AEB1"/>
<path d="M35.7437 31.4607C35.8078 31.4607 35.8719 31.5248 35.9361 31.5569L35.3268 32.3906H35.2627C34.7497 32.1341 34.3008 31.8775 33.3388 31.8775C32.3769 31.8775 31.9279 32.102 31.3828 32.3906C30.8377 32.6792 30.1964 32.9998 28.978 32.9998C27.7595 32.9998 27.1182 32.6792 26.5731 32.3906C26.0601 32.1341 25.6111 31.8775 24.6171 31.8775C23.6231 31.8775 23.2063 32.102 22.6932 32.3906C22.1161 32.6792 21.5068 32.9998 20.2884 32.9998C19.0699 32.9998 18.4607 32.6792 17.8835 32.3906C17.5949 32.2302 17.3063 32.102 16.9536 32.0058L17.2422 31.0118C17.6911 31.14 18.0438 31.3004 18.3645 31.4607C18.8775 31.7172 19.3264 31.9737 20.2884 31.9737C21.2503 31.9737 21.6992 31.7493 22.2443 31.4607C22.7894 31.1721 23.4307 30.8515 24.6492 30.8515C25.8677 30.8515 26.509 31.1721 27.0541 31.4607C27.5671 31.7172 28.016 31.9737 28.978 31.9737C29.9399 31.9737 30.3888 31.7493 30.9339 31.4607C31.479 31.1721 32.1203 30.8515 33.3388 30.8515C34.5573 30.8515 35.1986 31.1721 35.7437 31.4607Z" fill="white"/>
<path d="M38.8219 26.9716H35.5192C35.5192 26.9716 34.0763 20.7189 34.0122 20.3662C33.948 20.0135 33.6595 20.0776 33.6595 20.0776H31.9921C31.9921 20.0776 31.7676 19.1798 31.6714 18.6988C31.5432 18.1858 31.3187 18.3141 31.3187 18.3141C31.3187 18.3141 29.1383 19.1477 28.8497 19.276C28.5611 19.4043 28.6573 19.7249 28.6573 19.7249V21.6809H21.2503C20.7373 21.6809 20.7373 21.9695 20.7373 21.9695L19.5188 26.9716H18.7172C18.5248 26.9716 18.3965 27.0999 18.3645 27.2602L17.5308 30.146C18.108 30.3063 18.5248 30.5308 18.8775 30.6911C19.3585 30.9476 19.615 31.0759 20.3204 31.0759C21.0259 31.0759 21.2824 30.9476 21.7634 30.6911C22.3726 30.3705 23.2063 29.9536 24.6492 29.9536C26.0921 29.9536 26.9579 30.3705 27.5671 30.6911C28.0481 30.9476 28.3046 31.0759 29.01 31.0759C29.7155 31.0759 29.972 30.9476 30.453 30.6911C31.0622 30.3705 31.8959 29.9536 33.3709 29.9536C34.8459 29.9536 35.6795 30.3705 36.2888 30.6911C36.3529 30.6911 36.5132 30.7873 36.5132 30.7873L39.0464 27.2922C39.0464 27.2922 39.0464 27.2281 39.0464 27.164C39.0464 27.0357 38.9502 26.9395 38.8219 26.9395V26.9716ZM21.1541 24.5347L21.5068 23.0276H24.7775V24.5347H21.1541ZM28.8818 24.5347H25.2584V23.0276H28.8818V24.5347ZM29.4589 24.5347V23.0276H33.0823L33.4671 24.5347H29.4589Z" fill="white"/>
</g>
<rect x="9" y="7" width="38" height="38" rx="19" stroke="white" stroke-width="2"/>
</g>
<defs>
<filter id="filter0_d_805_7051" x="0" y="0" width="56" height="56" filterUnits="userSpaceOnUse" color-interpolation-filters="sRGB">
<feFlood flood-opacity="0" result="BackgroundImageFix"/>
<feColorMatrix in="SourceAlpha" type="matrix" values="0 0 0 0 0 0 0 0 0 0 0 0 0 0 0 0 0 0 127 0" result="hardAlpha"/>
<feOffset dy="2"/>
<feGaussianBlur stdDeviation="4"/>
<feColorMatrix type="matrix" values="0 0 0 0 0 0 0 0 0 0 0 0 0 0 0 0 0 0 0.16 0"/>
<feBlend mode="normal" in2="BackgroundImageFix" result="effect1_dropShadow_805_7051"/>
<feBlend mode="normal" in="SourceGraphic" in2="effect1_dropShadow_805_7051" result="shape"/>
</filter>
<clipPath id="clip0_805_7051">
<rect x="10" y="8" width="36" height="36" rx="18" fill="white"/>
</clipPath>
</defs>
</svg>
