<svg width="48" height="48" viewBox="0 0 48 48" fill="none" xmlns="http://www.w3.org/2000/svg">
<g filter="url(#filter0_d_10646_5313)">
<g clip-path="url(#clip0_10646_5313)">
<path d="M8 24C8 15.1634 15.1634 8 24 8V8C32.8366 8 40 15.1634 40 24V24C40 32.8366 32.8366 40 24 40V40C15.1634 40 8 32.8366 8 24V24Z" fill="white"/>
<path d="M24 9C32.2843 9 39 15.7157 39 24C39 32.2843 32.2843 39 24 39C15.7157 39 9 32.2843 9 24C9 15.7157 15.7157 9 24 9Z" fill="#F36960"/>
<path d="M24 9C32.2843 9 39 15.7157 39 24C39 32.2843 32.2843 39 24 39C15.7157 39 9 32.2843 9 24C9 15.7157 15.7157 9 24 9Z" stroke="white" stroke-width="2"/>
<path fill-rule="evenodd" clip-rule="evenodd" d="M17.3359 28.165C16.8759 28.165 16.501 28.54 16.501 29C16.501 29.46 16.8759 29.835 17.3359 29.835C17.7959 29.835 18.166 29.46 18.166 29C18.166 28.54 17.7959 28.165 17.3359 28.165ZM14.8359 29C14.8359 27.62 15.9559 26.5 17.3359 26.5C18.7159 26.5 19.8359 27.62 19.8359 29C19.8359 30.38 18.7159 31.5 17.3359 31.5C15.9559 31.5 14.8359 30.38 14.8359 29Z" fill="black"/>
<path fill-rule="evenodd" clip-rule="evenodd" d="M30.666 28.165C30.206 28.165 29.8359 28.54 29.8359 29C29.8359 29.46 30.206 29.835 30.666 29.835C31.126 29.835 31.501 29.46 31.501 29C31.501 28.54 31.126 28.165 30.666 28.165ZM28.166 29C28.166 27.62 29.286 26.5 30.666 26.5C32.046 26.5 33.166 27.62 33.166 29C33.166 30.38 32.046 31.5 30.666 31.5C29.286 31.5 28.166 30.38 28.166 29Z" fill="black"/>
<path fill-rule="evenodd" clip-rule="evenodd" d="M25.6659 17.335C25.6659 16.875 26.0408 16.5 26.5008 16.5H27.3158C28.4408 16.5 29.4259 17.25 29.7259 18.33L31.4711 24.61C31.5411 24.86 31.4909 25.13 31.3309 25.335C31.1759 25.54 30.9259 25.665 30.6659 25.665C29.5759 25.665 28.6108 26.185 28.0008 27C27.5808 27.555 27.3358 28.25 27.3358 29C27.3358 29.46 26.9608 29.835 26.5008 29.835H19.0008C18.7808 29.835 18.566 29.75 18.411 29.59C18.256 29.435 18.166 29.22 18.166 29C18.166 28.54 17.7959 28.165 17.3359 28.165C16.8759 28.165 16.5208 27.815 16.5008 27.365C16.4808 26.92 16.821 26.535 17.266 26.5L26.911 25.695C27.606 24.91 28.5409 24.34 29.6009 24.11L28.121 18.775C28.021 18.415 27.6908 18.165 27.3158 18.165H26.5008C26.0408 18.165 25.6659 17.79 25.6659 17.33V17.335Z" fill="black"/>
</g>
<path d="M24 9C32.2843 9 39 15.7157 39 24C39 32.2843 32.2843 39 24 39C15.7157 39 9 32.2843 9 24C9 15.7157 15.7157 9 24 9Z" stroke="white" stroke-width="2"/>
</g>
<defs>
<filter id="filter0_d_10646_5313" x="0" y="0" width="48" height="48" filterUnits="userSpaceOnUse" color-interpolation-filters="sRGB">
<feFlood flood-opacity="0" result="BackgroundImageFix"/>
<feColorMatrix in="SourceAlpha" type="matrix" values="0 0 0 0 0 0 0 0 0 0 0 0 0 0 0 0 0 0 127 0" result="hardAlpha"/>
<feOffset/>
<feGaussianBlur stdDeviation="4"/>
<feColorMatrix type="matrix" values="0 0 0 0 0 0 0 0 0 0 0 0 0 0 0 0 0 0 0.23 0"/>
<feBlend mode="normal" in2="BackgroundImageFix" result="effect1_dropShadow_10646_5313"/>
<feBlend mode="normal" in="SourceGraphic" in2="effect1_dropShadow_10646_5313" result="shape"/>
</filter>
<clipPath id="clip0_10646_5313">
<path d="M8 24C8 15.1634 15.1634 8 24 8V8C32.8366 8 40 15.1634 40 24V24C40 32.8366 32.8366 40 24 40V40C15.1634 40 8 32.8366 8 24V24Z" fill="white"/>
</clipPath>
</defs>
</svg>
