<svg width="64" height="64" viewBox="0 0 64 64" fill="none" xmlns="http://www.w3.org/2000/svg">
<g filter="url(#filter0_d_10364_5367)">
<path d="M10 30C10 17.8497 19.8497 8 32 8C44.1503 8 54 17.8497 54 30C54 42.1503 44.1503 52 32 52C19.8497 52 10 42.1503 10 30Z" fill="#A9AEB1"/>
<path d="M32 7C44.7025 7 55 17.2975 55 30C55 42.7025 44.7025 53 32 53C19.2975 53 9 42.7025 9 30C9 17.2975 19.2975 7 32 7Z" stroke="white" stroke-width="2"/>
<path fill-rule="evenodd" clip-rule="evenodd" d="M31.9991 18.3311C32.6431 18.3311 33.1681 18.8561 33.1681 19.5001V23.0001C33.1681 23.6441 32.6431 24.1691 31.9991 24.1691C31.3551 24.1691 30.8301 23.6441 30.8301 23.0001V19.5001C30.8301 18.8561 31.3551 18.3311 31.9991 18.3311Z" fill="black"/>
<path fill-rule="evenodd" clip-rule="evenodd" d="M31.9991 35.8311C32.6431 35.8311 33.1681 36.3561 33.1681 37.0001V40.5001C33.1681 41.1441 32.6431 41.6691 31.9991 41.6691C31.3551 41.6691 30.8301 41.1441 30.8301 40.5001V37.0001C30.8301 36.3561 31.3551 35.8311 31.9991 35.8311Z" fill="black"/>
<path fill-rule="evenodd" clip-rule="evenodd" d="M37.8301 30.0001C37.8301 29.3561 38.3551 28.8311 38.9991 28.8311H42.4991C43.1431 28.8311 43.6681 29.3561 43.6681 30.0001C43.6681 30.6441 43.1431 31.1691 42.4991 31.1691H38.9991C38.3551 31.1691 37.8301 30.6441 37.8301 30.0001Z" fill="black"/>
<path fill-rule="evenodd" clip-rule="evenodd" d="M20.3301 30.0001C20.3301 29.3561 20.8551 28.8311 21.4991 28.8311H24.9991C25.6431 28.8311 26.1681 29.3561 26.1681 30.0001C26.1681 30.6441 25.6431 31.1691 24.9991 31.1691H21.4991C20.8551 31.1691 20.3301 30.6441 20.3301 30.0001Z" fill="black"/>
<path fill-rule="evenodd" clip-rule="evenodd" d="M40.2455 21.7538C40.7075 22.2088 40.7075 22.9508 40.2455 23.4058L37.7745 25.8838C37.3195 26.3388 36.5775 26.3388 36.1225 25.8838C35.6675 25.4288 35.6675 24.6868 36.1225 24.2318L38.6005 21.7538C39.0555 21.2988 39.7905 21.2988 40.2455 21.7538Z" fill="black"/>
<path fill-rule="evenodd" clip-rule="evenodd" d="M27.8764 34.1229C28.3314 34.5779 28.3314 35.3199 27.8764 35.7749L25.3983 38.2529C24.9433 38.7079 24.2084 38.7079 23.7534 38.2529C23.2984 37.7979 23.2984 37.0559 23.7534 36.6009L26.2244 34.1229C26.6794 33.6679 27.4214 33.6679 27.8764 34.1229Z" fill="black"/>
<path fill-rule="evenodd" clip-rule="evenodd" d="M36.1225 34.1229C36.5775 33.6679 37.3195 33.6679 37.7745 34.1229L40.2455 36.6009C40.7075 37.0559 40.7075 37.7979 40.2455 38.2529C39.7905 38.7079 39.0555 38.7079 38.6005 38.2529L36.1225 35.7749C35.6675 35.3199 35.6675 34.5779 36.1225 34.1229Z" fill="black"/>
<path fill-rule="evenodd" clip-rule="evenodd" d="M23.7534 21.7538C24.2084 21.2988 24.9433 21.2988 25.3983 21.7538L27.8764 24.2318C28.3314 24.6868 28.3314 25.4288 27.8764 25.8838C27.4214 26.3388 26.6794 26.3388 26.2244 25.8838L23.7534 23.4058C23.2984 22.9508 23.2984 22.2088 23.7534 21.7538Z" fill="black"/>
</g>
<defs>
<filter id="filter0_d_10364_5367" x="0" y="0" width="64" height="64" filterUnits="userSpaceOnUse" color-interpolation-filters="sRGB">
<feFlood flood-opacity="0" result="BackgroundImageFix"/>
<feColorMatrix in="SourceAlpha" type="matrix" values="0 0 0 0 0 0 0 0 0 0 0 0 0 0 0 0 0 0 127 0" result="hardAlpha"/>
<feOffset dy="2"/>
<feGaussianBlur stdDeviation="4"/>
<feColorMatrix type="matrix" values="0 0 0 0 0 0 0 0 0 0 0 0 0 0 0 0 0 0 0.16 0"/>
<feBlend mode="normal" in2="BackgroundImageFix" result="effect1_dropShadow_10364_5367"/>
<feBlend mode="normal" in="SourceGraphic" in2="effect1_dropShadow_10364_5367" result="shape"/>
</filter>
</defs>
</svg>
