<svg width="56" height="56" viewBox="0 0 56 56" fill="none" xmlns="http://www.w3.org/2000/svg">
<g filter="url(#filter0_d_8318_7786)">
<g clip-path="url(#clip0_8318_7786)">
<rect x="10" y="8" width="36" height="36" rx="18" fill="#A9AEB1"/>
<path d="M22.1699 34.8971C23.7799 34.8971 25.082 33.5881 25.082 31.9781C25.082 30.3681 23.7799 29.0591 22.1699 29.0591C20.5599 29.0591 19.251 30.3681 19.251 31.9781C19.251 33.5881 20.5599 34.8971 22.1699 34.8971Z" fill="white"/>
<path d="M33.832 34.8971C35.442 34.8971 36.751 33.5881 36.751 31.9781C36.751 30.3681 35.442 29.0591 33.832 29.0591C32.222 29.0591 30.9199 30.3681 30.9199 31.9781C30.9199 33.5881 32.222 34.8971 33.832 34.8971Z" fill="white"/>
<path fill-rule="evenodd" clip-rule="evenodd" d="M15.457 23.8091C15.457 23.3261 15.849 22.9341 16.332 22.9341H35.001C35.484 22.9341 35.876 23.3261 35.876 23.8091C35.876 24.2921 35.484 24.6841 35.001 24.6841H16.332C15.849 24.6841 15.457 24.2921 15.457 23.8091Z" fill="white"/>
<path fill-rule="evenodd" clip-rule="evenodd" d="M24.501 17.103C24.984 17.103 25.376 17.495 25.376 17.978V23.809C25.376 24.292 24.984 24.684 24.501 24.684C24.018 24.684 23.626 24.292 23.626 23.809V17.978C23.626 17.495 24.018 17.103 24.501 17.103Z" fill="white"/>
<path fill-rule="evenodd" clip-rule="evenodd" d="M15.457 17.978C15.457 17.495 15.849 17.103 16.332 17.103H29.7021C30.7521 17.103 31.7319 17.614 32.3339 18.475L35.5889 23.13L38.7669 24.719C39.8589 25.265 40.5449 26.371 40.5449 27.589V30.816C40.5449 31.943 39.628 32.86 38.501 32.86H38.179C38.235 32.58 38.2699 32.286 38.2699 31.985C38.2699 29.535 36.282 27.554 33.832 27.554C31.382 27.554 29.401 29.542 29.401 31.985C29.401 32.286 29.4291 32.58 29.4851 32.86H26.5169C26.5729 32.58 26.601 32.286 26.601 31.985C26.601 29.535 24.6129 27.554 22.1699 27.554C19.7269 27.554 17.732 29.542 17.732 31.985C17.732 32.16 17.7459 32.342 17.7669 32.51L16.5911 31.922C15.8981 31.579 15.457 30.872 15.457 30.095V23.235C15.457 23.116 15.4849 22.99 15.5339 22.878L17.3191 18.86H16.332C15.849 18.86 15.457 18.468 15.457 17.985V17.978ZM19.237 18.853L17.4241 22.934H23.626V18.853H19.237ZM25.376 18.853V22.934H33.321L30.8991 19.476C30.6261 19.084 30.1781 18.853 29.7021 18.853H25.376Z" fill="white"/>
</g>
<rect x="9" y="7" width="38" height="38" rx="19" stroke="white" stroke-width="2"/>
</g>
<defs>
<filter id="filter0_d_8318_7786" x="0" y="0" width="56" height="56" filterUnits="userSpaceOnUse" color-interpolation-filters="sRGB">
<feFlood flood-opacity="0" result="BackgroundImageFix"/>
<feColorMatrix in="SourceAlpha" type="matrix" values="0 0 0 0 0 0 0 0 0 0 0 0 0 0 0 0 0 0 127 0" result="hardAlpha"/>
<feOffset dy="2"/>
<feGaussianBlur stdDeviation="4"/>
<feColorMatrix type="matrix" values="0 0 0 0 0 0 0 0 0 0 0 0 0 0 0 0 0 0 0.16 0"/>
<feBlend mode="normal" in2="BackgroundImageFix" result="effect1_dropShadow_8318_7786"/>
<feBlend mode="normal" in="SourceGraphic" in2="effect1_dropShadow_8318_7786" result="shape"/>
</filter>
<clipPath id="clip0_8318_7786">
<rect x="10" y="8" width="36" height="36" rx="18" fill="white"/>
</clipPath>
</defs>
</svg>
