<svg width="56" height="56" viewBox="0 0 56 56" fill="none" xmlns="http://www.w3.org/2000/svg">
<g filter="url(#filter0_d_896_9411)">
<g clip-path="url(#clip0_896_9411)">
<rect x="10" y="8" width="36" height="36" rx="18" fill="#FAE8E8"/>
<path fill-rule="evenodd" clip-rule="evenodd" d="M15.3999 20.7504C15.3999 19.5906 16.3401 18.6504 17.4999 18.6504H34.9999C38.4793 18.6504 41.2999 21.471 41.2999 24.9504V30.5504C41.2999 31.7102 40.3597 32.6504 39.1999 32.6504C39.1999 30.3308 37.3195 28.4504 34.9999 28.4504C32.6803 28.4504 30.7999 30.3308 30.7999 32.6504H25.8999C25.8999 30.3308 24.0195 28.4504 21.6999 28.4504C19.3803 28.4504 17.4999 30.3308 17.4999 32.6504C16.3401 32.6504 15.3999 31.7102 15.3999 30.5504V20.7504ZM17.4999 21.4504C17.4999 21.0638 17.8133 20.7504 18.1999 20.7504H20.297C20.6836 20.7504 20.997 21.0638 20.997 21.4504V24.9504C20.997 25.337 20.6836 25.6504 20.297 25.6504H18.1999C17.8499 25.6504 17.4999 25.3004 17.4999 24.9504V21.4504ZM23.1075 20.7504C22.7209 20.7504 22.4075 21.0638 22.4075 21.4504L22.3999 24.9504C22.3999 25.3004 22.7499 25.6504 23.0999 25.6504H25.9075C26.2941 25.6504 26.6075 25.337 26.6075 24.9504V21.4504C26.6075 21.0638 26.2941 20.7504 25.9075 20.7504H23.1075ZM28.018 21.4504C28.018 21.0638 28.3314 20.7504 28.718 20.7504H31.518C31.9046 20.7504 32.218 21.0638 32.218 21.4504V24.9504C32.218 25.337 31.9046 25.6504 31.518 25.6504H29.418C28.6448 25.6504 27.9999 25.7236 27.9999 24.9504L28.018 21.4504ZM34.3285 20.7504C33.9419 20.7504 33.6285 21.0638 33.6285 21.4504V24.9504C33.6285 25.337 33.9419 25.6504 34.3285 25.6504H38.5285C38.9151 25.6504 39.2285 25.337 39.2285 24.9504C39.2285 22.6308 37.3481 20.7504 35.0285 20.7504H34.3285Z" fill="#D44546"/>
<path d="M24.4999 32.6504C24.4999 34.1968 23.2463 35.4504 21.6999 35.4504C20.1535 35.4504 18.8999 34.1968 18.8999 32.6504C18.8999 31.104 20.1535 29.8504 21.6999 29.8504C23.2463 29.8504 24.4999 31.104 24.4999 32.6504Z" fill="#D44546"/>
<path d="M37.7999 32.6504C37.7999 34.1968 36.5463 35.4504 34.9999 35.4504C33.4535 35.4504 32.1999 34.1968 32.1999 32.6504C32.1999 31.104 33.4535 29.8504 34.9999 29.8504C36.5463 29.8504 37.7999 31.104 37.7999 32.6504Z" fill="#D44546"/>
</g>
<rect x="9" y="7" width="38" height="38" rx="19" stroke="white" stroke-width="2"/>
</g>
<defs>
<filter id="filter0_d_896_9411" x="0" y="0" width="56" height="56" filterUnits="userSpaceOnUse" color-interpolation-filters="sRGB">
<feFlood flood-opacity="0" result="BackgroundImageFix"/>
<feColorMatrix in="SourceAlpha" type="matrix" values="0 0 0 0 0 0 0 0 0 0 0 0 0 0 0 0 0 0 127 0" result="hardAlpha"/>
<feOffset dy="2"/>
<feGaussianBlur stdDeviation="4"/>
<feColorMatrix type="matrix" values="0 0 0 0 0 0 0 0 0 0 0 0 0 0 0 0 0 0 0.16 0"/>
<feBlend mode="normal" in2="BackgroundImageFix" result="effect1_dropShadow_896_9411"/>
<feBlend mode="normal" in="SourceGraphic" in2="effect1_dropShadow_896_9411" result="shape"/>
</filter>
<clipPath id="clip0_896_9411">
<rect x="10" y="8" width="36" height="36" rx="18" fill="white"/>
</clipPath>
</defs>
</svg>
