<svg width="48" height="48" viewBox="0 0 48 48" fill="none" xmlns="http://www.w3.org/2000/svg">
<g filter="url(#filter0_d_805_6935)">
<g clip-path="url(#clip0_805_6935)">
<path d="M8 22C8 13.1634 15.1634 6 24 6C32.8366 6 40 13.1634 40 22C40 30.8366 32.8366 38 24 38C15.1634 38 8 30.8366 8 22Z" fill="white"/>
<path d="M24 7C15.7157 7 9 13.7157 9 22C9 30.2843 15.7157 37 24 37C32.2843 37 39 30.2843 39 22C39 13.7157 32.2843 7 24 7Z" fill="#8E2864"/>
<path d="M24 7C15.7157 7 9 13.7157 9 22C9 30.2843 15.7157 37 24 37C32.2843 37 39 30.2843 39 22C39 13.7157 32.2843 7 24 7Z" stroke="white" stroke-width="2"/>
<path d="M19.835 28.3551C20.985 28.3551 21.915 27.4201 21.915 26.2701C21.915 25.1201 20.985 24.1851 19.835 24.1851C18.685 24.1851 17.75 25.1201 17.75 26.2701C17.75 27.4201 18.685 28.3551 19.835 28.3551Z" fill="white"/>
<path d="M28.165 28.3551C29.315 28.3551 30.25 27.4201 30.25 26.2701C30.25 25.1201 29.315 24.1851 28.165 24.1851C27.015 24.1851 26.085 25.1201 26.085 26.2701C26.085 27.4201 27.015 28.3551 28.165 28.3551Z" fill="white"/>
<path fill-rule="evenodd" clip-rule="evenodd" d="M15.04 20.4351C15.04 20.0901 15.32 19.8101 15.665 19.8101H29C29.345 19.8101 29.625 20.0901 29.625 20.4351C29.625 20.7801 29.345 21.0601 29 21.0601H15.665C15.32 21.0601 15.04 20.7801 15.04 20.4351Z" fill="white"/>
<path fill-rule="evenodd" clip-rule="evenodd" d="M21.5 15.645C21.845 15.645 22.125 15.925 22.125 16.27V20.435C22.125 20.78 21.845 21.06 21.5 21.06C21.155 21.06 20.875 20.78 20.875 20.435V16.27C20.875 15.925 21.155 15.645 21.5 15.645Z" fill="white"/>
<path fill-rule="evenodd" clip-rule="evenodd" d="M15.04 16.27C15.04 15.925 15.32 15.645 15.665 15.645H25.2151C25.9651 15.645 26.665 16.01 27.095 16.625L29.4199 19.95L31.6899 21.085C32.4699 21.475 32.96 22.265 32.96 23.135V25.44C32.96 26.245 32.305 26.9 31.5 26.9H31.27C31.31 26.7 31.335 26.49 31.335 26.275C31.335 24.525 29.915 23.11 28.165 23.11C26.415 23.11 25 24.53 25 26.275C25 26.49 25.0201 26.7 25.0601 26.9H22.9399C22.9799 26.7 23 26.49 23 26.275C23 24.525 21.58 23.11 19.835 23.11C18.09 23.11 16.665 24.53 16.665 26.275C16.665 26.4 16.6749 26.53 16.6899 26.65L15.8501 26.23C15.3551 25.985 15.04 25.48 15.04 24.925V20.025C15.04 19.94 15.06 19.85 15.095 19.77L16.3701 16.9H15.665C15.32 16.9 15.04 16.62 15.04 16.275V16.27ZM17.74 16.895L16.4451 19.81H20.875V16.895H17.74ZM22.125 16.895V19.81H27.8L26.0701 17.34C25.8751 17.06 25.5551 16.895 25.2151 16.895H22.125Z" fill="white"/>
</g>
<path d="M9 22C9 13.7157 15.7157 7 24 7C32.2843 7 39 13.7157 39 22C39 30.2843 32.2843 37 24 37C15.7157 37 9 30.2843 9 22Z" stroke="white" stroke-width="2"/>
</g>
<defs>
<filter id="filter0_d_805_6935" x="0" y="0" width="48" height="48" filterUnits="userSpaceOnUse" color-interpolation-filters="sRGB">
<feFlood flood-opacity="0" result="BackgroundImageFix"/>
<feColorMatrix in="SourceAlpha" type="matrix" values="0 0 0 0 0 0 0 0 0 0 0 0 0 0 0 0 0 0 127 0" result="hardAlpha"/>
<feOffset dy="2"/>
<feGaussianBlur stdDeviation="4"/>
<feColorMatrix type="matrix" values="0 0 0 0 0 0 0 0 0 0 0 0 0 0 0 0 0 0 0.16 0"/>
<feBlend mode="normal" in2="BackgroundImageFix" result="effect1_dropShadow_805_6935"/>
<feBlend mode="normal" in="SourceGraphic" in2="effect1_dropShadow_805_6935" result="shape"/>
</filter>
<clipPath id="clip0_805_6935">
<path d="M8 22C8 13.1634 15.1634 6 24 6C32.8366 6 40 13.1634 40 22C40 30.8366 32.8366 38 24 38C15.1634 38 8 30.8366 8 22Z" fill="white"/>
</clipPath>
</defs>
</svg>
