<svg width="64" height="64" viewBox="0 0 64 64" fill="none" xmlns="http://www.w3.org/2000/svg">
<g filter="url(#filter0_d_10364_5357)">
<path d="M10 32C10 19.8497 19.8497 10 32 10C44.1503 10 54 19.8497 54 32C54 44.1503 44.1503 54 32 54C19.8497 54 10 44.1503 10 32Z" fill="#A9AEB1"/>
<path d="M32 9C44.7025 9 55 19.2975 55 32C55 44.7025 44.7025 55 32 55C19.2975 55 9 44.7025 9 32C9 19.2975 19.2975 9 32 9Z" stroke="white" stroke-width="2"/>
<path fill-rule="evenodd" clip-rule="evenodd" d="M31.9991 20.3311C32.6431 20.3311 33.1681 20.8561 33.1681 21.5001V25.0001C33.1681 25.6441 32.6431 26.1691 31.9991 26.1691C31.3551 26.1691 30.8301 25.6441 30.8301 25.0001V21.5001C30.8301 20.8561 31.3551 20.3311 31.9991 20.3311Z" fill="black"/>
<path fill-rule="evenodd" clip-rule="evenodd" d="M31.9991 37.8311C32.6431 37.8311 33.1681 38.3561 33.1681 39.0001V42.5001C33.1681 43.1441 32.6431 43.6691 31.9991 43.6691C31.3551 43.6691 30.8301 43.1441 30.8301 42.5001V39.0001C30.8301 38.3561 31.3551 37.8311 31.9991 37.8311Z" fill="black"/>
<path fill-rule="evenodd" clip-rule="evenodd" d="M37.8301 32.0001C37.8301 31.3561 38.3551 30.8311 38.9991 30.8311H42.4991C43.1431 30.8311 43.6681 31.3561 43.6681 32.0001C43.6681 32.6441 43.1431 33.1691 42.4991 33.1691H38.9991C38.3551 33.1691 37.8301 32.6441 37.8301 32.0001Z" fill="black"/>
<path fill-rule="evenodd" clip-rule="evenodd" d="M20.3301 32.0001C20.3301 31.3561 20.8551 30.8311 21.4991 30.8311H24.9991C25.6431 30.8311 26.1681 31.3561 26.1681 32.0001C26.1681 32.6441 25.6431 33.1691 24.9991 33.1691H21.4991C20.8551 33.1691 20.3301 32.6441 20.3301 32.0001Z" fill="black"/>
<path fill-rule="evenodd" clip-rule="evenodd" d="M40.2455 23.7538C40.7075 24.2088 40.7075 24.9508 40.2455 25.4058L37.7745 27.8838C37.3195 28.3388 36.5775 28.3388 36.1225 27.8838C35.6675 27.4288 35.6675 26.6868 36.1225 26.2318L38.6005 23.7538C39.0555 23.2988 39.7905 23.2988 40.2455 23.7538Z" fill="black"/>
<path fill-rule="evenodd" clip-rule="evenodd" d="M27.8764 36.1229C28.3314 36.5779 28.3314 37.3199 27.8764 37.7749L25.3983 40.2529C24.9433 40.7079 24.2084 40.7079 23.7534 40.2529C23.2984 39.7979 23.2984 39.0559 23.7534 38.6009L26.2244 36.1229C26.6794 35.6679 27.4214 35.6679 27.8764 36.1229Z" fill="black"/>
<path fill-rule="evenodd" clip-rule="evenodd" d="M36.1225 36.1229C36.5775 35.6679 37.3195 35.6679 37.7745 36.1229L40.2455 38.6009C40.7075 39.0559 40.7075 39.7979 40.2455 40.2529C39.7905 40.7079 39.0555 40.7079 38.6005 40.2529L36.1225 37.7749C35.6675 37.3199 35.6675 36.5779 36.1225 36.1229Z" fill="black"/>
<path fill-rule="evenodd" clip-rule="evenodd" d="M23.7534 23.7538C24.2084 23.2988 24.9433 23.2988 25.3983 23.7538L27.8764 26.2318C28.3314 26.6868 28.3314 27.4288 27.8764 27.8838C27.4214 28.3388 26.6794 28.3388 26.2244 27.8838L23.7534 25.4058C23.2984 24.9508 23.2984 24.2088 23.7534 23.7538Z" fill="black"/>
</g>
<defs>
<filter id="filter0_d_10364_5357" x="0" y="0" width="64" height="64" filterUnits="userSpaceOnUse" color-interpolation-filters="sRGB">
<feFlood flood-opacity="0" result="BackgroundImageFix"/>
<feColorMatrix in="SourceAlpha" type="matrix" values="0 0 0 0 0 0 0 0 0 0 0 0 0 0 0 0 0 0 127 0" result="hardAlpha"/>
<feOffset/>
<feGaussianBlur stdDeviation="4"/>
<feColorMatrix type="matrix" values="0 0 0 0 0 0 0 0 0 0 0 0 0 0 0 0 0 0 0.23 0"/>
<feBlend mode="normal" in2="BackgroundImageFix" result="effect1_dropShadow_10364_5357"/>
<feBlend mode="normal" in="SourceGraphic" in2="effect1_dropShadow_10364_5357" result="shape"/>
</filter>
</defs>
</svg>
