<svg width="64" height="64" viewBox="0 0 64 64" fill="none" xmlns="http://www.w3.org/2000/svg">
<g filter="url(#filter0_d_10646_47248)">
<g clip-path="url(#clip0_10646_47248)">
<rect x="10" y="10" width="44" height="44" rx="22" fill="#FAE8E8"/>
<path fill-rule="evenodd" clip-rule="evenodd" d="M34.4626 19.455C34.8053 19.5825 35.0326 19.9095 35.0326 20.2751V29.9003H40.5752C40.9175 29.9003 41.2284 30.0999 41.3708 30.4111C41.5133 30.7224 41.4611 31.0882 41.2374 31.3472L30.154 44.1803C29.9151 44.457 29.5294 44.5559 29.1867 44.4284C28.8441 44.301 28.6168 43.974 28.6168 43.6084V33.9832H23.0742C22.7319 33.9832 22.421 33.7836 22.2786 33.4724C22.1361 33.1611 22.1883 32.7953 22.412 32.5362L33.4954 19.7031C33.7343 19.4265 34.12 19.3275 34.4626 19.455Z" fill="#D44546"/>
</g>
<rect x="9" y="9" width="46" height="46" rx="23" stroke="white" stroke-width="2"/>
</g>
<defs>
<filter id="filter0_d_10646_47248" x="0" y="0" width="64" height="64" filterUnits="userSpaceOnUse" color-interpolation-filters="sRGB">
<feFlood flood-opacity="0" result="BackgroundImageFix"/>
<feColorMatrix in="SourceAlpha" type="matrix" values="0 0 0 0 0 0 0 0 0 0 0 0 0 0 0 0 0 0 127 0" result="hardAlpha"/>
<feOffset/>
<feGaussianBlur stdDeviation="4"/>
<feColorMatrix type="matrix" values="0 0 0 0 0 0 0 0 0 0 0 0 0 0 0 0 0 0 0.23 0"/>
<feBlend mode="normal" in2="BackgroundImageFix" result="effect1_dropShadow_10646_47248"/>
<feBlend mode="normal" in="SourceGraphic" in2="effect1_dropShadow_10646_47248" result="shape"/>
</filter>
<clipPath id="clip0_10646_47248">
<rect x="10" y="10" width="44" height="44" rx="22" fill="white"/>
</clipPath>
</defs>
</svg>
