<svg width="48" height="48" viewBox="0 0 48 48" fill="none" xmlns="http://www.w3.org/2000/svg">
<g filter="url(#filter0_d_805_6987)">
<g clip-path="url(#clip0_805_6987)">
<path d="M8 22C8 13.1634 15.1634 6 24 6C32.8366 6 40 13.1634 40 22C40 30.8366 32.8366 38 24 38C15.1634 38 8 30.8366 8 22Z" fill="white"/>
<path d="M24 7C15.7157 7 9 13.7157 9 22C9 30.2843 15.7157 37 24 37C32.2843 37 39 30.2843 39 22C39 13.7157 32.2843 7 24 7Z" fill="#F36960"/>
<path d="M24 7C15.7157 7 9 13.7157 9 22C9 30.2843 15.7157 37 24 37C32.2843 37 39 30.2843 39 22C39 13.7157 32.2843 7 24 7Z" stroke="white" stroke-width="2"/>
<path fill-rule="evenodd" clip-rule="evenodd" d="M17.335 26.165C16.875 26.165 16.5 26.54 16.5 27C16.5 27.46 16.875 27.835 17.335 27.835C17.795 27.835 18.165 27.46 18.165 27C18.165 26.54 17.795 26.165 17.335 26.165ZM14.835 27C14.835 25.62 15.955 24.5 17.335 24.5C18.715 24.5 19.835 25.62 19.835 27C19.835 28.38 18.715 29.5 17.335 29.5C15.955 29.5 14.835 28.38 14.835 27Z" fill="black"/>
<path fill-rule="evenodd" clip-rule="evenodd" d="M30.665 26.165C30.205 26.165 29.835 26.54 29.835 27C29.835 27.46 30.205 27.835 30.665 27.835C31.125 27.835 31.5 27.46 31.5 27C31.5 26.54 31.125 26.165 30.665 26.165ZM28.165 27C28.165 25.62 29.285 24.5 30.665 24.5C32.045 24.5 33.165 25.62 33.165 27C33.165 28.38 32.045 29.5 30.665 29.5C29.285 29.5 28.165 28.38 28.165 27Z" fill="black"/>
<path fill-rule="evenodd" clip-rule="evenodd" d="M25.6649 15.335C25.6649 14.875 26.0399 14.5 26.4999 14.5H27.3148C28.4398 14.5 29.425 15.25 29.725 16.33L31.4701 22.61C31.5401 22.86 31.4899 23.13 31.3299 23.335C31.1749 23.54 30.9249 23.665 30.6649 23.665C29.5749 23.665 28.6099 24.185 27.9999 25C27.5799 25.555 27.3348 26.25 27.3348 27C27.3348 27.46 26.9599 27.835 26.4999 27.835H18.9999C18.7799 27.835 18.565 27.75 18.41 27.59C18.255 27.435 18.165 27.22 18.165 27C18.165 26.54 17.795 26.165 17.335 26.165C16.875 26.165 16.5199 25.815 16.4999 25.365C16.4799 24.92 16.82 24.535 17.265 24.5L26.91 23.695C27.605 22.91 28.54 22.34 29.6 22.11L28.12 16.775C28.02 16.415 27.6898 16.165 27.3148 16.165H26.4999C26.0399 16.165 25.6649 15.79 25.6649 15.33V15.335Z" fill="black"/>
</g>
<path d="M9 22C9 13.7157 15.7157 7 24 7C32.2843 7 39 13.7157 39 22C39 30.2843 32.2843 37 24 37C15.7157 37 9 30.2843 9 22Z" stroke="white" stroke-width="2"/>
</g>
<defs>
<filter id="filter0_d_805_6987" x="0" y="0" width="48" height="48" filterUnits="userSpaceOnUse" color-interpolation-filters="sRGB">
<feFlood flood-opacity="0" result="BackgroundImageFix"/>
<feColorMatrix in="SourceAlpha" type="matrix" values="0 0 0 0 0 0 0 0 0 0 0 0 0 0 0 0 0 0 127 0" result="hardAlpha"/>
<feOffset dy="2"/>
<feGaussianBlur stdDeviation="4"/>
<feColorMatrix type="matrix" values="0 0 0 0 0 0 0 0 0 0 0 0 0 0 0 0 0 0 0.16 0"/>
<feBlend mode="normal" in2="BackgroundImageFix" result="effect1_dropShadow_805_6987"/>
<feBlend mode="normal" in="SourceGraphic" in2="effect1_dropShadow_805_6987" result="shape"/>
</filter>
<clipPath id="clip0_805_6987">
<path d="M8 22C8 13.1634 15.1634 6 24 6C32.8366 6 40 13.1634 40 22C40 30.8366 32.8366 38 24 38C15.1634 38 8 30.8366 8 22Z" fill="white"/>
</clipPath>
</defs>
</svg>
