<svg width="64" height="69" viewBox="0 0 64 69" fill="none" xmlns="http://www.w3.org/2000/svg">
<g filter="url(#filter0_d_8318_7775)">
<path d="M32 7C44.6395 7 55 16.6092 55 28.5986C54.9999 35.0433 51.8044 39.9817 47.7822 44.3154C45.7739 46.4793 43.5266 48.5259 41.3398 50.5391C39.1404 52.5639 36.9981 54.5581 35.1318 56.6611C33.512 58.4862 30.5069 58.4302 28.9336 56.5879C27.1079 54.4496 24.9835 52.4564 22.7871 50.4512C20.6053 48.4592 18.3424 46.4462 16.3174 44.3184C12.2556 40.0503 9.00008 35.1686 9 28.5986C9 16.6092 19.3605 7 32 7Z" fill="#8E2864" stroke="white" stroke-width="2" stroke-linejoin="round"/>
<path d="M26.1699 38.8971C27.7799 38.8971 29.082 37.5881 29.082 35.9781C29.082 34.3681 27.7799 33.0591 26.1699 33.0591C24.5599 33.0591 23.251 34.3681 23.251 35.9781C23.251 37.5881 24.5599 38.8971 26.1699 38.8971Z" fill="white"/>
<path d="M37.832 38.8971C39.442 38.8971 40.751 37.5881 40.751 35.9781C40.751 34.3681 39.442 33.0591 37.832 33.0591C36.222 33.0591 34.9199 34.3681 34.9199 35.9781C34.9199 37.5881 36.222 38.8971 37.832 38.8971Z" fill="white"/>
<path fill-rule="evenodd" clip-rule="evenodd" d="M19.457 27.8091C19.457 27.3261 19.849 26.9341 20.332 26.9341H39.001C39.484 26.9341 39.876 27.3261 39.876 27.8091C39.876 28.2921 39.484 28.6841 39.001 28.6841H20.332C19.849 28.6841 19.457 28.2921 19.457 27.8091Z" fill="white"/>
<path fill-rule="evenodd" clip-rule="evenodd" d="M28.501 21.103C28.984 21.103 29.376 21.495 29.376 21.978V27.809C29.376 28.292 28.984 28.684 28.501 28.684C28.018 28.684 27.626 28.292 27.626 27.809V21.978C27.626 21.495 28.018 21.103 28.501 21.103Z" fill="white"/>
<path fill-rule="evenodd" clip-rule="evenodd" d="M19.457 21.978C19.457 21.495 19.849 21.103 20.332 21.103H33.7021C34.7521 21.103 35.7319 21.614 36.3339 22.475L39.5889 27.13L42.7669 28.719C43.8589 29.265 44.5449 30.371 44.5449 31.589V34.816C44.5449 35.943 43.628 36.86 42.501 36.86H42.179C42.235 36.58 42.2699 36.286 42.2699 35.985C42.2699 33.535 40.282 31.554 37.832 31.554C35.382 31.554 33.401 33.542 33.401 35.985C33.401 36.286 33.4291 36.58 33.4851 36.86H30.5169C30.5729 36.58 30.601 36.286 30.601 35.985C30.601 33.535 28.6129 31.554 26.1699 31.554C23.7269 31.554 21.732 33.542 21.732 35.985C21.732 36.16 21.7459 36.342 21.7669 36.51L20.5911 35.922C19.8981 35.579 19.457 34.872 19.457 34.095V27.235C19.457 27.116 19.4849 26.99 19.5339 26.878L21.3191 22.86H20.332C19.849 22.86 19.457 22.468 19.457 21.985V21.978ZM23.237 22.853L21.4241 26.934H27.626V22.853H23.237ZM29.376 22.853V26.934H37.321L34.8991 23.476C34.6261 23.084 34.1781 22.853 33.7021 22.853H29.376Z" fill="white"/>
</g>
<defs>
<filter id="filter0_d_8318_7775" x="0" y="0" width="64" height="69" filterUnits="userSpaceOnUse" color-interpolation-filters="sRGB">
<feFlood flood-opacity="0" result="BackgroundImageFix"/>
<feColorMatrix in="SourceAlpha" type="matrix" values="0 0 0 0 0 0 0 0 0 0 0 0 0 0 0 0 0 0 127 0" result="hardAlpha"/>
<feOffset dy="2"/>
<feGaussianBlur stdDeviation="4"/>
<feColorMatrix type="matrix" values="0 0 0 0 0 0 0 0 0 0 0 0 0 0 0 0 0 0 0.16 0"/>
<feBlend mode="normal" in2="BackgroundImageFix" result="effect1_dropShadow_8318_7775"/>
<feBlend mode="normal" in="SourceGraphic" in2="effect1_dropShadow_8318_7775" result="shape"/>
</filter>
</defs>
</svg>
