<svg width="47" height="51" viewBox="0 0 47 51" fill="none" xmlns="http://www.w3.org/2000/svg">
<g filter="url(#filter0_d_8318_8932)">
<path fill-rule="evenodd" clip-rule="evenodd" d="M23.5011 39.84C24.5111 39.84 25.4711 39.46 26.2011 38.78C26.7011 38.31 27.2211 37.83 27.7411 37.35C34.1011 31.49 41.3511 24.8 37.3611 15.47C35.0211 10 29.4111 6.5 23.5011 6.5C17.5911 6.5 11.9811 10 9.64112 15.47C5.67112 24.76 12.8411 31.4 19.1611 37.25C19.7211 37.77 20.2712 38.28 20.8112 38.78C21.5312 39.46 22.5011 39.84 23.5011 39.84ZM28.5111 18.26C29.0011 17.77 29.0011 16.98 28.5111 16.49C28.0211 16 27.2311 16 26.7411 16.49L23.5011 19.73L20.2611 16.49C19.7711 16 18.9811 16 18.4911 16.49C18.0011 16.98 18.0011 17.77 18.4911 18.26L21.7311 21.5L18.4911 24.74C18.0011 25.23 18.0011 26.02 18.4911 26.51C18.9811 27 19.7711 27 20.2611 26.51L23.5011 23.27L26.7411 26.51C27.2311 27 28.0211 27 28.5111 26.51C29.0011 26.02 29.0011 25.23 28.5111 24.74L25.2711 21.5L28.5111 18.26Z" fill="#EF4E45" stroke="black"/>
</g>
<defs>
<filter id="filter0_d_8318_8932" x="-4.49805" y="-2.82996" width="56" height="56" filterUnits="userSpaceOnUse" color-interpolation-filters="sRGB">
<feFlood flood-opacity="0" result="BackgroundImageFix"/>
<feColorMatrix in="SourceAlpha" type="matrix" values="0 0 0 0 0 0 0 0 0 0 0 0 0 0 0 0 0 0 127 0" result="hardAlpha"/>
<feOffset dy="2"/>
<feGaussianBlur stdDeviation="4"/>
<feColorMatrix type="matrix" values="0 0 0 0 0 0 0 0 0 0 0 0 0 0 0 0 0 0 0.16 0"/>
<feBlend mode="normal" in2="BackgroundImageFix" result="effect1_dropShadow_8318_8932"/>
<feBlend mode="normal" in="SourceGraphic" in2="effect1_dropShadow_8318_8932" result="shape"/>
</filter>
</defs>
</svg>
