<svg width="102" height="65" viewBox="0 0 102 65" fill="none" xmlns="http://www.w3.org/2000/svg">
<g filter="url(#filter0_d_8318_8918)">
<mask id="path-1-inside-1_8318_8918" fill="white">
<path fill-rule="evenodd" clip-rule="evenodd" d="M16 6C11.5817 6 8 9.58172 8 14V42C8 46.4183 11.5817 50 16 50H40.0486C43.0393 50 45.9778 51.0638 48.0226 53.2462C48.2503 53.4893 48.4744 53.7343 48.6944 53.9815C49.879 55.312 52.1727 55.3473 53.384 54.0382C53.6458 53.7553 53.9126 53.4746 54.184 53.1957C56.2608 51.0621 59.1772 50 62.1547 50H86C90.4183 50 94 46.4183 94 42V14C94 9.58172 90.4183 6 86 6H16Z"/>
</mask>
<path fill-rule="evenodd" clip-rule="evenodd" d="M16 6C11.5817 6 8 9.58172 8 14V42C8 46.4183 11.5817 50 16 50H40.0486C43.0393 50 45.9778 51.0638 48.0226 53.2462C48.2503 53.4893 48.4744 53.7343 48.6944 53.9815C49.879 55.312 52.1727 55.3473 53.384 54.0382C53.6458 53.7553 53.9126 53.4746 54.184 53.1957C56.2608 51.0621 59.1772 50 62.1547 50H86C90.4183 50 94 46.4183 94 42V14C94 9.58172 90.4183 6 86 6H16Z" fill="#034151"/>
<path d="M48.6944 53.9815L47.2005 55.3112L47.2006 55.3114L48.6944 53.9815ZM53.384 54.0382L54.852 55.3965L54.8521 55.3964L53.384 54.0382ZM54.184 53.1957L52.7509 51.8008L54.184 53.1957ZM48.0226 53.2462L49.4821 51.8788L48.0226 53.2462ZM8 14H10C10 10.6863 12.6863 8 16 8V6V4C10.4772 4 6 8.47715 6 14H8ZM8 42H10V14H8H6V42H8ZM16 50V48C12.6863 48 10 45.3137 10 42H8H6C6 47.5228 10.4772 52 16 52V50ZM40.0486 50V48H16V50V52H40.0486V50ZM48.0226 53.2462L46.5631 54.6137C46.7799 54.8451 46.9925 55.0776 47.2005 55.3112L48.6944 53.9815L50.1883 52.6517C49.9563 52.3911 49.7207 52.1335 49.4821 51.8788L48.0226 53.2462ZM48.6944 53.9815L47.2006 55.3114C49.1611 57.5134 52.8291 57.5827 54.852 55.3965L53.384 54.0382L51.9161 52.6799C51.5164 53.1118 50.597 53.1107 50.1882 52.6515L48.6944 53.9815ZM53.384 54.0382L54.8521 55.3964C55.1015 55.1269 55.3567 54.8584 55.6172 54.5907L54.184 53.1957L52.7509 51.8008C52.4686 52.0907 52.19 52.3837 51.916 52.68L53.384 54.0382ZM86 50V48H62.1547V50V52H86V50ZM94 42H92C92 45.3137 89.3137 48 86 48V50V52C91.5229 52 96 47.5228 96 42H94ZM94 14H92V42H94H96V14H94ZM86 6V8C89.3137 8 92 10.6863 92 14H94H96C96 8.47715 91.5229 4 86 4V6ZM16 6V8H86V6V4H16V6ZM54.184 53.1957L55.6172 54.5907C57.2654 52.8974 59.6375 52 62.1547 52V50V48C58.717 48 55.2562 49.2268 52.7509 51.8008L54.184 53.1957ZM40.0486 50V52C42.5852 52 44.9591 52.9017 46.5631 54.6137L48.0226 53.2462L49.4821 51.8788C46.9964 49.2258 43.4933 48 40.0486 48V50Z" fill="#034151" mask="url(#path-1-inside-1_8318_8918)"/>
<rect x="10" y="8" width="40" height="40" rx="6" fill="#533B75"/>
<path d="M38.749 39.9559H21.249C19.478 39.9559 18.043 38.5139 18.043 36.7499V19.2499C18.043 17.4789 19.478 16.0439 21.249 16.0439H38.749C40.52 16.0439 41.9551 17.4859 41.9551 19.2499V36.7499C41.9551 38.5209 40.52 39.9559 38.749 39.9559ZM21.249 17.7939C20.444 17.7939 19.793 18.4449 19.793 19.2499V36.7499C19.793 37.5549 20.444 38.2059 21.249 38.2059H38.749C39.554 38.2059 40.2051 37.5549 40.2051 36.7499V19.2499C40.2051 18.4449 39.554 17.7939 38.749 17.7939H21.249Z" fill="white"/>
<path d="M25.918 35.2939C25.435 35.2939 25.043 34.9019 25.043 34.4189V21.5879C25.043 21.1049 25.435 20.7129 25.918 20.7129H30.5801C32.9951 20.7129 34.9551 22.6729 34.9551 25.0879C34.9551 27.5029 32.9951 29.4629 30.5801 29.4629H26.793V34.4189C26.793 34.9019 26.401 35.2939 25.918 35.2939ZM26.793 27.7059H30.5801C32.0291 27.7059 33.2051 26.5299 33.2051 25.0809C33.2051 23.6319 32.0291 22.4559 30.5801 22.4559H26.793V27.7059Z" fill="white"/>
</g>
<defs>
<filter id="filter0_d_8318_8918" x="0" y="0" width="102" height="65" filterUnits="userSpaceOnUse" color-interpolation-filters="sRGB">
<feFlood flood-opacity="0" result="BackgroundImageFix"/>
<feColorMatrix in="SourceAlpha" type="matrix" values="0 0 0 0 0 0 0 0 0 0 0 0 0 0 0 0 0 0 127 0" result="hardAlpha"/>
<feOffset dy="2"/>
<feGaussianBlur stdDeviation="4"/>
<feColorMatrix type="matrix" values="0 0 0 0 0 0 0 0 0 0 0 0 0 0 0 0 0 0 0.16 0"/>
<feBlend mode="normal" in2="BackgroundImageFix" result="effect1_dropShadow_8318_8918"/>
<feBlend mode="normal" in="SourceGraphic" in2="effect1_dropShadow_8318_8918" result="shape"/>
</filter>
</defs>
</svg>
