<svg width="44" height="44" viewBox="0 0 44 44" fill="none" xmlns="http://www.w3.org/2000/svg">
<g filter="url(#filter0_d_803_6887)">
<g clip-path="url(#clip0_803_6887)">
<rect x="8" y="6" width="28" height="28" rx="4" fill="#004D61"/>
<path fill-rule="evenodd" clip-rule="evenodd" d="M13 17.375C13 16.5466 13.6716 15.875 14.5 15.875H27C29.4853 15.875 31.5 17.8897 31.5 20.375V23.375C31.5 24.2034 30.8318 24.875 30.0034 24.875C25.1152 24.875 15.845 24.875 14.5 24.875C13.6716 24.875 13 24.2034 13 23.375V17.375ZM14.5 17.875C14.5 17.5989 14.7239 17.375 15 17.375H16.4979C16.774 17.375 16.9979 17.5989 16.9979 17.875V20.375C16.9979 20.6511 16.774 20.875 16.4979 20.875H15C14.75 20.875 14.5 20.625 14.5 20.375V17.875ZM18.5054 17.375C18.2293 17.375 18.0054 17.5989 18.0054 17.875L18 20.375C18 20.625 18.25 20.875 18.5 20.875H20.5054C20.7816 20.875 21.0054 20.6511 21.0054 20.375V17.875C21.0054 17.5989 20.7816 17.375 20.5054 17.375H18.5054ZM22.0129 17.875C22.0129 17.5989 22.2368 17.375 22.5129 17.375H24.5129C24.7891 17.375 25.0129 17.5989 25.0129 17.875V20.375C25.0129 20.6511 24.7891 20.875 24.5129 20.875H23.0129C22.4607 20.875 22 20.9273 22 20.375L22.0129 17.875ZM26.5204 17.375C26.2443 17.375 26.0204 17.5989 26.0204 17.875V20.375C26.0204 20.6511 26.2443 20.875 26.5204 20.875H29.5204C29.7966 20.875 30.0204 20.6511 30.0204 20.375C30.0204 18.7181 28.6773 17.375 27.0204 17.375H26.5204Z" fill="white"/>
<path fill-rule="evenodd" clip-rule="evenodd" d="M13.375 26.375C13.375 26.0298 13.6548 25.75 14 25.75L30.5 25.75C30.8452 25.75 31.125 26.0298 31.125 26.375C31.125 26.7202 30.8452 27 30.5 27L14 27C13.6548 27 13.375 26.7202 13.375 26.375Z" fill="white"/>
<path fill-rule="evenodd" clip-rule="evenodd" d="M19.375 13.875C19.375 13.5298 19.6548 13.25 20 13.25H24C24.2468 13.25 24.4705 13.3953 24.5709 13.6207C24.6714 13.8462 24.6297 14.1096 24.4646 14.2931L22.2146 16.7931C21.9836 17.0497 21.5885 17.0705 21.3319 16.8396C21.0753 16.6086 21.0545 16.2135 21.2854 15.9569L22.5966 14.5H20C19.6548 14.5 19.375 14.2202 19.375 13.875Z" fill="white"/>
</g>
<rect x="9" y="7" width="26" height="26" rx="3" stroke="#034151" stroke-width="2"/>
</g>
<defs>
<filter id="filter0_d_803_6887" x="0" y="0" width="44" height="44" filterUnits="userSpaceOnUse" color-interpolation-filters="sRGB">
<feFlood flood-opacity="0" result="BackgroundImageFix"/>
<feColorMatrix in="SourceAlpha" type="matrix" values="0 0 0 0 0 0 0 0 0 0 0 0 0 0 0 0 0 0 127 0" result="hardAlpha"/>
<feOffset dy="2"/>
<feGaussianBlur stdDeviation="4"/>
<feColorMatrix type="matrix" values="0 0 0 0 0 0 0 0 0 0 0 0 0 0 0 0 0 0 0.16 0"/>
<feBlend mode="normal" in2="BackgroundImageFix" result="effect1_dropShadow_803_6887"/>
<feBlend mode="normal" in="SourceGraphic" in2="effect1_dropShadow_803_6887" result="shape"/>
</filter>
<clipPath id="clip0_803_6887">
<rect x="8" y="6" width="28" height="28" rx="4" fill="white"/>
</clipPath>
</defs>
</svg>
