<svg width="60" height="65" viewBox="0 0 60 65" fill="none" xmlns="http://www.w3.org/2000/svg">
<g filter="url(#filter0_d_803_6901)">
<mask id="path-1-inside-1_803_6901" fill="white">
<path fill-rule="evenodd" clip-rule="evenodd" d="M16 6C11.5817 6 8 9.58172 8 14V27.7577V42C8 46.4183 11.5817 50 16 50H19.0486C22.0393 50 24.9778 51.0638 27.0226 53.2462C27.2503 53.4893 27.4744 53.7343 27.6944 53.9815C28.879 55.312 31.1727 55.3473 32.384 54.0382C32.6457 53.7553 32.9126 53.4746 33.184 53.1957C35.2608 51.0621 38.1772 50 41.1547 50H44C48.4183 50 52 46.4183 52 42V27.7577V14C52 9.58172 48.4183 6 44 6H16Z"/>
</mask>
<path fill-rule="evenodd" clip-rule="evenodd" d="M16 6C11.5817 6 8 9.58172 8 14V27.7577V42C8 46.4183 11.5817 50 16 50H19.0486C22.0393 50 24.9778 51.0638 27.0226 53.2462C27.2503 53.4893 27.4744 53.7343 27.6944 53.9815C28.879 55.312 31.1727 55.3473 32.384 54.0382C32.6457 53.7553 32.9126 53.4746 33.184 53.1957C35.2608 51.0621 38.1772 50 41.1547 50H44C48.4183 50 52 46.4183 52 42V27.7577V14C52 9.58172 48.4183 6 44 6H16Z" fill="#004D61"/>
<path d="M27.6944 53.9815L26.2005 55.3112L26.2006 55.3114L27.6944 53.9815ZM32.384 54.0382L33.852 55.3965L33.8521 55.3964L32.384 54.0382ZM27.0226 53.2462L25.5631 54.6137L27.0226 53.2462ZM10 14C10 10.6863 12.6863 8 16 8V4C10.4772 4 6 8.47715 6 14H10ZM10 27.7577V14H6V27.7577H10ZM10 42V27.7577H6V42H10ZM16 48C12.6863 48 10 45.3137 10 42H6C6 47.5228 10.4772 52 16 52V48ZM19.0486 48H16V52H19.0486V48ZM25.5631 54.6137C25.7799 54.8451 25.9925 55.0776 26.2005 55.3112L29.1883 52.6517C28.9563 52.3911 28.7207 52.1335 28.4821 51.8788L25.5631 54.6137ZM26.2006 55.3114C28.1611 57.5134 31.8291 57.5827 33.852 55.3965L30.916 52.6799C30.5164 53.1118 29.597 53.1107 29.1882 52.6516L26.2006 55.3114ZM33.8521 55.3964C34.1015 55.1269 34.3567 54.8584 34.6172 54.5907L31.7509 51.8008C31.4686 52.0907 31.19 52.3837 30.9159 52.68L33.8521 55.3964ZM44 48H41.1547V52H44V48ZM50 42C50 45.3137 47.3137 48 44 48V52C49.5228 52 54 47.5228 54 42H50ZM50 27.7577V42H54V27.7577H50ZM50 14V27.7577H54V14H50ZM44 8C47.3137 8 50 10.6863 50 14H54C54 8.47715 49.5228 4 44 4V8ZM16 8H44V4H16V8ZM34.6172 54.5907C36.2654 52.8974 38.6375 52 41.1547 52V48C37.717 48 34.2562 49.2268 31.7509 51.8008L34.6172 54.5907ZM19.0486 52C21.5852 52 23.9591 52.9017 25.5631 54.6137L28.4821 51.8788C25.9964 49.2258 22.4933 48 19.0486 48V52Z" fill="#034151" mask="url(#path-1-inside-1_803_6901)"/>
<path fill-rule="evenodd" clip-rule="evenodd" d="M17.4 22.7504C17.4 21.5906 18.3402 20.6504 19.5 20.6504H37C40.4794 20.6504 43.3 23.471 43.3 26.9504V32.5504C43.3 33.7102 42.3598 34.6504 41.2 34.6504C41.2 32.3308 39.3196 30.4504 37 30.4504C34.6804 30.4504 32.8 32.3308 32.8 34.6504H27.9C27.9 32.3308 26.0196 30.4504 23.7 30.4504C21.3804 30.4504 19.5 32.3308 19.5 34.6504C18.3402 34.6504 17.4 33.7102 17.4 32.5504V22.7504ZM19.5 23.4504C19.5 23.0638 19.8134 22.7504 20.2 22.7504H22.2971C22.6837 22.7504 22.9971 23.0638 22.9971 23.4504V26.9504C22.9971 27.337 22.6837 27.6504 22.2971 27.6504H20.2C19.85 27.6504 19.5 27.3004 19.5 26.9504V23.4504ZM25.1076 22.7504C24.721 22.7504 24.4076 23.0638 24.4076 23.4504L24.4 26.9504C24.4 27.3004 24.75 27.6504 25.1 27.6504H27.9076C28.2942 27.6504 28.6076 27.337 28.6076 26.9504V23.4504C28.6076 23.0638 28.2942 22.7504 27.9076 22.7504H25.1076ZM30.0181 23.4504C30.0181 23.0638 30.3315 22.7504 30.7181 22.7504H33.5181C33.9047 22.7504 34.2181 23.0638 34.2181 23.4504V26.9504C34.2181 27.337 33.9047 27.6504 33.5181 27.6504H31.4181C30.6449 27.6504 30 27.7236 30 26.9504L30.0181 23.4504ZM36.3286 22.7504C35.9421 22.7504 35.6286 23.0638 35.6286 23.4504V26.9504C35.6286 27.337 35.9421 27.6504 36.3286 27.6504H40.5287C40.9152 27.6504 41.2286 27.337 41.2286 26.9504C41.2286 24.6308 39.3482 22.7504 37.0287 22.7504H36.3286Z" fill="white"/>
<path d="M26.5 34.6504C26.5 36.1968 25.2464 37.4504 23.7 37.4504C22.1536 37.4504 20.9 36.1968 20.9 34.6504C20.9 33.104 22.1536 31.8504 23.7 31.8504C25.2464 31.8504 26.5 33.104 26.5 34.6504Z" fill="white"/>
<path d="M39.8 34.6504C39.8 36.1968 38.5464 37.4504 37 37.4504C35.4536 37.4504 34.2 36.1968 34.2 34.6504C34.2 33.104 35.4536 31.8504 37 31.8504C38.5464 31.8504 39.8 33.104 39.8 34.6504Z" fill="white"/>
</g>
<defs>
<filter id="filter0_d_803_6901" x="0" y="0" width="60" height="65" filterUnits="userSpaceOnUse" color-interpolation-filters="sRGB">
<feFlood flood-opacity="0" result="BackgroundImageFix"/>
<feColorMatrix in="SourceAlpha" type="matrix" values="0 0 0 0 0 0 0 0 0 0 0 0 0 0 0 0 0 0 127 0" result="hardAlpha"/>
<feOffset dy="2"/>
<feGaussianBlur stdDeviation="4"/>
<feColorMatrix type="matrix" values="0 0 0 0 0 0 0 0 0 0 0 0 0 0 0 0 0 0 0.16 0"/>
<feBlend mode="normal" in2="BackgroundImageFix" result="effect1_dropShadow_803_6901"/>
<feBlend mode="normal" in="SourceGraphic" in2="effect1_dropShadow_803_6901" result="shape"/>
</filter>
</defs>
</svg>
