<svg width="60" height="65" viewBox="0 0 60 65" fill="none" xmlns="http://www.w3.org/2000/svg">
<g filter="url(#filter0_d_8318_9013)">
<mask id="path-1-inside-1_8318_9013" fill="white">
<path fill-rule="evenodd" clip-rule="evenodd" d="M16 6C11.5817 6 8 9.58172 8 14V27.7577V42C8 46.4183 11.5817 50 16 50H19.0486C22.0393 50 24.9778 51.0638 27.0226 53.2462C27.2503 53.4893 27.4744 53.7343 27.6944 53.9815C28.879 55.312 31.1727 55.3473 32.384 54.0382C32.6457 53.7553 32.9126 53.4746 33.184 53.1957C35.2608 51.0621 38.1772 50 41.1547 50H44C48.4183 50 52 46.4183 52 42V27.7577V14C52 9.58172 48.4183 6 44 6H16Z"/>
</mask>
<path fill-rule="evenodd" clip-rule="evenodd" d="M16 6C11.5817 6 8 9.58172 8 14V27.7577V42C8 46.4183 11.5817 50 16 50H19.0486C22.0393 50 24.9778 51.0638 27.0226 53.2462C27.2503 53.4893 27.4744 53.7343 27.6944 53.9815C28.879 55.312 31.1727 55.3473 32.384 54.0382C32.6457 53.7553 32.9126 53.4746 33.184 53.1957C35.2608 51.0621 38.1772 50 41.1547 50H44C48.4183 50 52 46.4183 52 42V27.7577V14C52 9.58172 48.4183 6 44 6H16Z" fill="#707070"/>
<path d="M27.6944 53.9815L26.2005 55.3112L26.2006 55.3114L27.6944 53.9815ZM32.384 54.0382L33.852 55.3965L33.8521 55.3964L32.384 54.0382ZM27.0226 53.2462L25.5631 54.6137L27.0226 53.2462ZM8 14H10C10 10.6863 12.6863 8 16 8V6V4C10.4772 4 6 8.47715 6 14H8ZM8 27.7577H10V14H8H6V27.7577H8ZM8 42H10V27.7577H8H6V42H8ZM16 50V48C12.6863 48 10 45.3137 10 42H8H6C6 47.5228 10.4772 52 16 52V50ZM19.0486 50V48H16V50V52H19.0486V50ZM27.0226 53.2462L25.5631 54.6137C25.7799 54.8451 25.9925 55.0776 26.2005 55.3112L27.6944 53.9815L29.1883 52.6517C28.9563 52.3911 28.7207 52.1335 28.4821 51.8788L27.0226 53.2462ZM27.6944 53.9815L26.2006 55.3114C28.1611 57.5134 31.8291 57.5827 33.852 55.3965L32.384 54.0382L30.916 52.6799C30.5164 53.1118 29.597 53.1107 29.1882 52.6515L27.6944 53.9815ZM32.384 54.0382L33.8521 55.3964C34.1015 55.1269 34.3567 54.8584 34.6172 54.5907L33.184 53.1957L31.7509 51.8008C31.4686 52.0907 31.19 52.3837 30.9159 52.68L32.384 54.0382ZM44 50V48H41.1547V50V52H44V50ZM52 42H50C50 45.3137 47.3137 48 44 48V50V52C49.5228 52 54 47.5228 54 42H52ZM52 27.7577H50V42H52H54V27.7577H52ZM52 14H50V27.7577H52H54V14H52ZM44 6V8C47.3137 8 50 10.6863 50 14H52H54C54 8.47715 49.5228 4 44 4V6ZM16 6V8H44V6V4H16V6ZM33.184 53.1957L34.6172 54.5907C36.2654 52.8974 38.6375 52 41.1547 52V50V48C37.717 48 34.2562 49.2268 31.7509 51.8008L33.184 53.1957ZM19.0486 50V52C21.5852 52 23.9591 52.9017 25.5631 54.6137L27.0226 53.2462L28.4821 51.8788C25.9964 49.2258 22.4933 48 19.0486 48V50Z" fill="#034151" mask="url(#path-1-inside-1_8318_9013)"/>
<path fill-rule="evenodd" clip-rule="evenodd" d="M29.4776 16.4565C29.806 16.2923 30.1927 16.2923 30.5211 16.4565L42.1877 22.2898C42.583 22.4874 42.8327 22.8914 42.8327 23.3333V38.5C42.8327 39.1443 42.3104 39.6666 41.666 39.6666C41.0217 39.6666 40.4994 39.1443 40.4994 38.5V24.0543L29.9993 18.8043L19.4993 24.0543V38.5C19.4993 39.1443 18.977 39.6666 18.3327 39.6666C17.6884 39.6666 17.166 39.1443 17.166 38.5V23.3333C17.166 22.8914 17.4157 22.4874 17.8109 22.2898L29.4776 16.4565Z" fill="white"/>
<path fill-rule="evenodd" clip-rule="evenodd" d="M25.3327 35C25.977 35 26.4993 35.5223 26.4993 36.1666V38.5C26.4993 39.1443 25.977 39.6666 25.3327 39.6666C24.6884 39.6666 24.166 39.1443 24.166 38.5V36.1666C24.166 35.5223 24.6884 35 25.3327 35ZM34.666 35C35.3104 35 35.8327 35.5223 35.8327 36.1666V38.5C35.8327 39.1443 35.3104 39.6666 34.666 39.6666C34.0217 39.6666 33.4993 39.1443 33.4993 38.5V36.1666C33.4993 35.5223 34.0217 35 34.666 35Z" fill="white"/>
<path fill-rule="evenodd" clip-rule="evenodd" d="M27.7381 26.8333C27.2028 26.8333 26.7361 27.1977 26.6063 27.7171L25.8815 30.6162C25.7252 31.2413 25.0918 31.6214 24.4667 31.4651C23.8416 31.3089 23.4615 30.6755 23.6178 30.0504L24.3426 27.1511C24.7321 25.593 26.1321 24.5 27.7381 24.5H32.2612C33.8672 24.5 35.2671 25.593 35.6566 27.1511L36.3815 30.0504C36.5377 30.6755 36.1577 31.3089 35.5326 31.4651C34.9075 31.6214 34.274 31.2413 34.1178 30.6162L33.393 27.7171C33.2631 27.1977 32.7965 26.8333 32.2612 26.8333H27.7381Z" fill="white"/>
<path fill-rule="evenodd" clip-rule="evenodd" d="M25.3327 29.1666C23.3997 29.1666 21.8327 30.7336 21.8327 32.6666V33.8333C21.8327 35.7664 23.3997 37.3333 25.3327 37.3333H34.666C36.5991 37.3333 38.166 35.7664 38.166 33.8333V32.6666C38.166 30.7336 36.5991 29.1666 34.666 29.1666H25.3327ZM27.666 33.25C27.666 32.6056 27.1437 32.0833 26.4993 32.0833C25.855 32.0833 25.3327 32.6056 25.3327 33.25V33.2616C25.3327 33.906 25.855 34.4283 26.4993 34.4283C27.1437 34.4283 27.666 33.906 27.666 33.2616V33.25ZM34.666 33.25C34.666 32.6056 34.1437 32.0833 33.4993 32.0833C32.855 32.0833 32.3327 32.6056 32.3327 33.25V33.2616C32.3327 33.906 32.855 34.4283 33.4993 34.4283C34.1437 34.4283 34.666 33.906 34.666 33.2616V33.25Z" fill="white"/>
</g>
<defs>
<filter id="filter0_d_8318_9013" x="0" y="0" width="60" height="65" filterUnits="userSpaceOnUse" color-interpolation-filters="sRGB">
<feFlood flood-opacity="0" result="BackgroundImageFix"/>
<feColorMatrix in="SourceAlpha" type="matrix" values="0 0 0 0 0 0 0 0 0 0 0 0 0 0 0 0 0 0 127 0" result="hardAlpha"/>
<feOffset dy="2"/>
<feGaussianBlur stdDeviation="4"/>
<feColorMatrix type="matrix" values="0 0 0 0 0 0 0 0 0 0 0 0 0 0 0 0 0 0 0.16 0"/>
<feBlend mode="normal" in2="BackgroundImageFix" result="effect1_dropShadow_8318_9013"/>
<feBlend mode="normal" in="SourceGraphic" in2="effect1_dropShadow_8318_9013" result="shape"/>
</filter>
</defs>
</svg>
