<svg width="44" height="44" viewBox="0 0 44 44" fill="none" xmlns="http://www.w3.org/2000/svg">
<g filter="url(#filter0_d_8318_8962)">
<g clip-path="url(#clip0_8318_8962)">
<rect x="8" y="8" width="28" height="28" rx="4" fill="#1A5843"/>
<path fill-rule="evenodd" clip-rule="evenodd" d="M13 18.25C13 17.4216 13.6716 16.75 14.5 16.75H27C29.4853 16.75 31.5 18.7647 31.5 21.25V25.25C31.5 26.0784 30.8284 26.75 30 26.75C30 25.0931 28.6569 23.75 27 23.75C25.3431 23.75 24 25.0931 24 26.75H20.5C20.5 25.0931 19.1569 23.75 17.5 23.75C15.8431 23.75 14.5 25.0931 14.5 26.75C13.6716 26.75 13 26.0784 13 25.25V18.25ZM14.5 18.75C14.5 18.4739 14.7239 18.25 15 18.25H16.4979C16.774 18.25 16.9979 18.4739 16.9979 18.75V21.25C16.9979 21.5261 16.774 21.75 16.4979 21.75H15C14.75 21.75 14.5 21.5 14.5 21.25V18.75ZM18.5054 18.25C18.2293 18.25 18.0054 18.4739 18.0054 18.75L18 21.25C18 21.5 18.25 21.75 18.5 21.75H20.5054C20.7816 21.75 21.0054 21.5261 21.0054 21.25V18.75C21.0054 18.4739 20.7816 18.25 20.5054 18.25H18.5054ZM22.0129 18.75C22.0129 18.4739 22.2368 18.25 22.5129 18.25H24.5129C24.7891 18.25 25.0129 18.4739 25.0129 18.75V21.25C25.0129 21.5261 24.7891 21.75 24.5129 21.75H23.0129C22.4607 21.75 22 21.8023 22 21.25L22.0129 18.75ZM26.5204 18.25C26.2443 18.25 26.0204 18.4739 26.0204 18.75V21.25C26.0204 21.5261 26.2443 21.75 26.5204 21.75H29.5204C29.7966 21.75 30.0204 21.5261 30.0204 21.25C30.0204 19.5931 28.6773 18.25 27.0204 18.25H26.5204Z" fill="white"/>
<path d="M19.5 26.75C19.5 27.8546 18.6046 28.75 17.5 28.75C16.3954 28.75 15.5 27.8546 15.5 26.75C15.5 25.6454 16.3954 24.75 17.5 24.75C18.6046 24.75 19.5 25.6454 19.5 26.75Z" fill="white"/>
<path d="M29 26.75C29 27.8546 28.1046 28.75 27 28.75C25.8954 28.75 25 27.8546 25 26.75C25 25.6454 25.8954 24.75 27 24.75C28.1046 24.75 29 25.6454 29 26.75Z" fill="white"/>
</g>
<rect x="9" y="9" width="26" height="26" rx="3" stroke="black" stroke-width="2"/>
</g>
<defs>
<filter id="filter0_d_8318_8962" x="0" y="0" width="44" height="44" filterUnits="userSpaceOnUse" color-interpolation-filters="sRGB">
<feFlood flood-opacity="0" result="BackgroundImageFix"/>
<feColorMatrix in="SourceAlpha" type="matrix" values="0 0 0 0 0 0 0 0 0 0 0 0 0 0 0 0 0 0 127 0" result="hardAlpha"/>
<feOffset/>
<feGaussianBlur stdDeviation="4"/>
<feColorMatrix type="matrix" values="0 0 0 0 0 0 0 0 0 0 0 0 0 0 0 0 0 0 0.23 0"/>
<feBlend mode="normal" in2="BackgroundImageFix" result="effect1_dropShadow_8318_8962"/>
<feBlend mode="normal" in="SourceGraphic" in2="effect1_dropShadow_8318_8962" result="shape"/>
</filter>
<clipPath id="clip0_8318_8962">
<rect x="8" y="8" width="28" height="28" rx="4" fill="white"/>
</clipPath>
</defs>
</svg>
