<svg width="44" height="44" viewBox="0 0 44 44" fill="none" xmlns="http://www.w3.org/2000/svg">
<g filter="url(#filter0_d_8318_8972)">
<g clip-path="url(#clip0_8318_8972)">
<rect x="8" y="6" width="28" height="28" rx="4" fill="#5CA1E3"/>
<g clip-path="url(#clip1_8318_8972)">
<path fill-rule="evenodd" clip-rule="evenodd" d="M21.4088 15.4043C21.7838 15.2393 22.214 15.2393 22.589 15.4043L27.869 17.7393C28.999 18.2393 29.5289 19.5343 29.0739 20.6793L28.7689 21.4543C28.7689 21.4543 28.739 21.4543 28.724 21.4543H26.7838C26.4388 21.4543 26.1588 21.7343 26.1588 22.0793C26.1588 22.4243 26.4388 22.7043 26.7838 22.7043H28.2738L27.5038 24.6443C27.3488 24.6093 27.1838 24.5893 27.0138 24.5843C25.9288 24.5393 25.0939 25.0393 24.4689 25.6893C24.0689 25.3643 23.2238 24.7193 22.1288 24.6393C21.0388 24.5643 20.1688 25.0293 19.5138 25.6893L19.4789 25.6643C19.0889 25.3743 18.1989 24.7243 17.0739 24.6543C16.8789 24.6443 16.6889 24.6493 16.5089 24.6693L15.7289 22.7043H17.2089C17.5539 22.7043 17.8339 22.4243 17.8339 22.0793C17.8339 21.7343 17.5539 21.4543 17.2089 21.4543H15.234L14.9288 20.6793C14.4738 19.5343 15.0039 18.2343 16.1339 17.7393L21.4088 15.4043Z" fill="black"/>
<path fill-rule="evenodd" clip-rule="evenodd" d="M16.4488 14.7694C16.5638 13.4794 17.6438 12.4944 18.9388 12.4944H25.0589C26.3539 12.4944 27.4339 13.4794 27.5489 14.7694L27.8289 17.8394C27.8689 18.2994 27.5338 18.7044 27.0738 18.7444C26.6138 18.7844 26.2088 18.4494 26.1688 17.9894L25.8887 14.9194C25.8487 14.4894 25.4889 14.1594 25.0589 14.1594H18.9388C18.5088 14.1594 18.149 14.4894 18.109 14.9194L17.8289 17.9894C17.7889 18.4494 17.3839 18.7844 16.9239 18.7444C16.4639 18.7044 16.1288 18.2994 16.1688 17.8394L16.4488 14.7694Z" fill="black"/>
<path fill-rule="evenodd" clip-rule="evenodd" d="M21.9985 10.8294C22.4585 10.8294 22.8335 11.2044 22.8335 11.6644V13.3294C22.8335 13.7894 22.4585 14.1644 21.9985 14.1644C21.5385 14.1644 21.1636 13.7894 21.1636 13.3294V11.6644C21.1636 11.2044 21.5385 10.8294 21.9985 10.8294Z" fill="black"/>
<path fill-rule="evenodd" clip-rule="evenodd" d="M29.6385 27.4893C29.6385 27.4893 29.6837 27.4543 29.7237 27.4143C30.0387 27.0793 30.5686 27.0643 30.9036 27.3793C31.2386 27.6943 31.2535 28.2193 30.9385 28.5593C30.6535 28.8643 30.3036 29.0893 29.8836 29.1543C29.4686 29.2143 29.1035 29.0993 28.8235 28.9543C28.5485 28.8143 28.3086 28.6194 28.1136 28.4494C28.0136 28.3644 27.8835 28.2443 27.7635 28.1343C27.6785 28.0593 27.6036 27.9893 27.5486 27.9393C27.1586 27.5893 26.9736 27.5093 26.8836 27.5043C26.8836 27.5043 26.8337 27.5043 26.7437 27.5643C26.6337 27.6393 26.4686 27.7993 26.2586 28.1193H26.2534C26.0084 28.4893 25.7035 28.7993 25.3135 28.9593C24.8985 29.1343 24.4936 29.0994 24.1536 28.9844C23.8386 28.8794 23.5635 28.6943 23.3435 28.5343C23.1885 28.4193 23.0236 28.2793 22.8736 28.1593C22.8236 28.1143 22.7687 28.0743 22.7237 28.0343C22.2937 27.6843 22.0686 27.5643 21.9236 27.5543H21.9185C21.9185 27.5543 21.6734 27.5293 21.2534 28.1543C21.0284 28.5043 20.7285 28.7993 20.3235 28.9443C19.9135 29.0943 19.5235 29.0393 19.2085 28.9343C18.9085 28.8293 18.6385 28.6643 18.4185 28.5093C18.2685 28.4093 18.1087 28.2893 17.9637 28.1793C17.8987 28.1293 17.8335 28.0793 17.7735 28.0393C17.3285 27.7143 17.0735 27.5844 16.8985 27.5744C16.8485 27.5744 16.6285 27.5593 16.2635 28.1193H16.2586C15.8936 28.6693 15.3436 29.1543 14.6136 29.1543C13.8836 29.1543 13.3287 28.6693 12.9737 28.1193C12.7187 27.7343 12.8287 27.2193 13.2137 26.9643C13.5987 26.7143 14.1187 26.8193 14.3687 27.2093C14.4887 27.3943 14.5736 27.4593 14.6136 27.4793C14.6536 27.4593 14.7437 27.3943 14.8687 27.2043C15.4337 26.3443 16.1434 25.8593 17.0034 25.9093C17.7334 25.9543 18.3585 26.3943 18.7635 26.6943C18.8535 26.7593 18.9336 26.8193 19.0086 26.8743C19.1336 26.9693 19.2487 27.0543 19.3687 27.1343C19.5537 27.2593 19.6736 27.3293 19.7586 27.3543C19.7636 27.3543 19.7685 27.3543 19.7735 27.3543C19.7935 27.3343 19.8236 27.2944 19.8636 27.2344C20.4486 26.3494 21.1636 25.8243 22.0386 25.8843C22.7836 25.9393 23.3985 26.4294 23.7735 26.7344C23.8485 26.7944 23.9137 26.8493 23.9737 26.8993C24.1087 27.0093 24.2235 27.1043 24.3435 27.1943C24.5135 27.3243 24.6235 27.3793 24.6885 27.4043C24.7185 27.3793 24.7786 27.3244 24.8636 27.1994C25.4186 26.3544 26.0985 25.7943 26.9585 25.8343C27.7085 25.8693 28.2985 26.3693 28.6585 26.6893C28.7735 26.7943 28.8586 26.8693 28.9336 26.9443C29.0186 27.0243 29.0985 27.0943 29.2085 27.1893C29.3735 27.3393 29.4987 27.4243 29.5887 27.4743C29.6137 27.4843 29.6285 27.4943 29.6385 27.4993V27.4893Z" fill="black"/>
</g>
</g>
<rect x="9" y="7" width="26" height="26" rx="3" stroke="#034151" stroke-width="2"/>
</g>
<defs>
<filter id="filter0_d_8318_8972" x="0" y="0" width="44" height="44" filterUnits="userSpaceOnUse" color-interpolation-filters="sRGB">
<feFlood flood-opacity="0" result="BackgroundImageFix"/>
<feColorMatrix in="SourceAlpha" type="matrix" values="0 0 0 0 0 0 0 0 0 0 0 0 0 0 0 0 0 0 127 0" result="hardAlpha"/>
<feOffset dy="2"/>
<feGaussianBlur stdDeviation="4"/>
<feColorMatrix type="matrix" values="0 0 0 0 0 0 0 0 0 0 0 0 0 0 0 0 0 0 0.16 0"/>
<feBlend mode="normal" in2="BackgroundImageFix" result="effect1_dropShadow_8318_8972"/>
<feBlend mode="normal" in="SourceGraphic" in2="effect1_dropShadow_8318_8972" result="shape"/>
</filter>
<clipPath id="clip0_8318_8972">
<rect x="8" y="6" width="28" height="28" rx="4" fill="white"/>
</clipPath>
<clipPath id="clip1_8318_8972">
<rect width="20" height="20" fill="white" transform="translate(12 10)"/>
</clipPath>
</defs>
</svg>
