<svg width="44" height="44" viewBox="0 0 44 44" fill="none" xmlns="http://www.w3.org/2000/svg">
<g filter="url(#filter0_d_803_6893)">
<g clip-path="url(#clip0_803_6893)">
<rect x="8" y="6" width="28" height="28" rx="4" fill="#5CA1E3"/>
<g clip-path="url(#clip1_803_6893)">
<path d="M29.638 27.492C29.638 27.492 29.6832 27.457 29.7232 27.417C30.0382 27.082 30.5681 27.067 30.9031 27.382C31.2381 27.697 31.253 28.222 30.938 28.562C30.653 28.867 30.3031 29.092 29.8831 29.157C29.4681 29.217 29.103 29.102 28.823 28.957C28.548 28.817 28.3081 28.622 28.1131 28.452C28.0131 28.367 27.883 28.247 27.763 28.137C27.678 28.062 27.6031 27.992 27.5481 27.942C27.1581 27.592 26.9731 27.512 26.8831 27.507C26.8831 27.507 26.8332 27.507 26.7432 27.567C26.6332 27.642 26.4681 27.802 26.2581 28.122H26.253C26.008 28.492 25.703 28.802 25.313 28.962C24.898 29.137 24.4931 29.102 24.1531 28.987C23.8381 28.882 23.563 28.697 23.343 28.537C23.188 28.422 23.0231 28.282 22.8731 28.162C22.8231 28.117 22.7682 28.077 22.7232 28.037C22.2932 27.687 22.0681 27.567 21.9231 27.557H21.918C21.918 27.557 21.673 27.532 21.253 28.157C21.028 28.507 20.728 28.802 20.323 28.947C19.913 29.097 19.523 29.042 19.208 28.937C18.908 28.832 18.638 28.667 18.418 28.512C18.268 28.412 18.1082 28.292 17.9632 28.182C17.8982 28.132 17.833 28.082 17.773 28.037C17.328 27.712 17.073 27.582 16.898 27.572C16.848 27.572 16.628 27.557 16.263 28.117H16.2581C15.8931 28.667 15.3431 29.152 14.6131 29.152C13.8831 29.152 13.3282 28.667 12.9732 28.117C12.7182 27.732 12.8282 27.217 13.2132 26.962C13.5982 26.712 14.1182 26.817 14.3682 27.207C14.4882 27.392 14.5731 27.457 14.6131 27.477C14.6531 27.457 14.7432 27.392 14.8682 27.202C15.4332 26.342 16.143 25.857 17.003 25.907C17.733 25.952 18.358 26.392 18.763 26.692C18.853 26.757 18.9331 26.817 19.0081 26.872C19.1331 26.967 19.2482 27.052 19.3682 27.132C19.5532 27.257 19.6731 27.327 19.7581 27.352H19.773C19.773 27.352 19.8231 27.297 19.8631 27.237C20.4481 26.352 21.1631 25.827 22.0381 25.887C22.7831 25.942 23.398 26.432 23.773 26.737C23.848 26.797 23.9132 26.852 23.9732 26.902C24.1082 27.012 24.223 27.107 24.343 27.197C24.513 27.327 24.623 27.382 24.688 27.407C24.718 27.382 24.7781 27.327 24.8631 27.202C25.4181 26.357 26.098 25.797 26.958 25.837C27.708 25.872 28.298 26.372 28.658 26.692C28.773 26.797 28.8581 26.872 28.9331 26.947C29.0181 27.027 29.098 27.097 29.208 27.192C29.373 27.342 29.4982 27.427 29.5882 27.477C29.6132 27.487 29.628 27.497 29.638 27.502V27.492Z" fill="black"/>
<path fill-rule="evenodd" clip-rule="evenodd" d="M16.1631 15.832C16.1631 14.912 16.913 14.167 17.833 14.167H22.1331C23.0781 14.167 23.978 14.567 24.613 15.272L27.6182 18.612C27.9232 18.952 27.898 19.482 27.553 19.787C27.213 20.097 26.6879 20.067 26.3779 19.727L23.373 16.387C23.058 16.037 22.6081 15.837 22.1331 15.837H17.833V19.172C17.833 19.632 17.458 20.007 16.998 20.007C16.538 20.007 16.1631 19.632 16.1631 19.172V15.832Z" fill="black"/>
<path fill-rule="evenodd" clip-rule="evenodd" d="M16.998 11.6621C16.998 11.2021 17.373 10.8271 17.833 10.8271H19.498C20.418 10.8271 21.1631 11.5721 21.1631 12.4921V14.9921C21.1631 15.4521 20.793 15.8271 20.333 15.8271C19.873 15.8271 19.498 15.4521 19.498 14.9921V12.4921H17.833C17.373 12.4921 16.998 12.1171 16.998 11.6571V11.6621Z" fill="black"/>
<path d="M13.6632 18.5372C13.4732 18.5372 13.2932 18.6222 13.1732 18.7722C13.0582 18.9222 13.0132 19.1172 13.0582 19.3022L14.5431 25.6272C15.1981 25.0022 16.0381 24.5922 17.0731 24.6522C18.1981 24.7222 19.1181 25.3972 19.5131 25.6822C20.1681 25.0222 21.033 24.5572 22.128 24.6322C23.223 24.7072 24.0681 25.3572 24.4681 25.6822C25.0931 25.0322 25.9281 24.5272 27.0131 24.5772C28.1081 24.6272 28.9331 25.2622 29.3431 25.6172C29.3781 25.5772 29.4081 25.5322 29.4381 25.4922C29.9731 24.7322 30.3081 23.7572 30.5231 22.8422C30.7431 21.9172 30.8482 20.9972 30.9032 20.3122C30.9282 19.9672 30.9431 19.6822 30.9481 19.4822C30.9531 19.3822 30.9531 19.2222 30.9581 19.1622C30.9581 18.8122 30.6781 18.5322 30.3331 18.5322H13.6632V18.5372Z" fill="black"/>
</g>
</g>
<rect x="9" y="7" width="26" height="26" rx="3" stroke="#034151" stroke-width="2"/>
</g>
<defs>
<filter id="filter0_d_803_6893" x="0" y="0" width="44" height="44" filterUnits="userSpaceOnUse" color-interpolation-filters="sRGB">
<feFlood flood-opacity="0" result="BackgroundImageFix"/>
<feColorMatrix in="SourceAlpha" type="matrix" values="0 0 0 0 0 0 0 0 0 0 0 0 0 0 0 0 0 0 127 0" result="hardAlpha"/>
<feOffset dy="2"/>
<feGaussianBlur stdDeviation="4"/>
<feColorMatrix type="matrix" values="0 0 0 0 0 0 0 0 0 0 0 0 0 0 0 0 0 0 0.16 0"/>
<feBlend mode="normal" in2="BackgroundImageFix" result="effect1_dropShadow_803_6893"/>
<feBlend mode="normal" in="SourceGraphic" in2="effect1_dropShadow_803_6893" result="shape"/>
</filter>
<clipPath id="clip0_803_6893">
<rect x="8" y="6" width="28" height="28" rx="4" fill="white"/>
</clipPath>
<clipPath id="clip1_803_6893">
<rect width="20" height="20" fill="white" transform="translate(12 10)"/>
</clipPath>
</defs>
</svg>
