<svg width="44" height="44" viewBox="0 0 44 44" fill="none" xmlns="http://www.w3.org/2000/svg">
<g filter="url(#filter0_d_8318_8972)">
<g clip-path="url(#clip0_8318_8972)">
<rect x="8" y="8" width="28" height="28" rx="4" fill="#5CA1E3"/>
<g clip-path="url(#clip1_8318_8972)">
<path fill-rule="evenodd" clip-rule="evenodd" d="M21.4078 17.4043C21.7828 17.2393 22.213 17.2393 22.588 17.4043L27.868 19.7393C28.998 20.2393 29.5279 21.5343 29.0729 22.6793L28.7679 23.4543C28.7679 23.4543 28.738 23.4543 28.723 23.4543H26.7828C26.4378 23.4543 26.1578 23.7343 26.1578 24.0793C26.1578 24.4243 26.4378 24.7043 26.7828 24.7043H28.2728L27.5028 26.6443C27.3478 26.6093 27.1828 26.5893 27.0128 26.5843C25.9278 26.5393 25.0929 27.0393 24.4679 27.6893C24.0679 27.3643 23.2228 26.7193 22.1278 26.6393C21.0378 26.5643 20.1678 27.0293 19.5128 27.6893L19.4779 27.6643C19.0879 27.3743 18.1979 26.7243 17.0729 26.6543C16.8779 26.6443 16.6879 26.6493 16.5079 26.6693L15.7279 24.7043H17.2079C17.5529 24.7043 17.8329 24.4243 17.8329 24.0793C17.8329 23.7343 17.5529 23.4543 17.2079 23.4543H15.233L14.9279 22.6793C14.4729 21.5343 15.0029 20.2343 16.1329 19.7393L21.4078 17.4043Z" fill="black"/>
<path fill-rule="evenodd" clip-rule="evenodd" d="M16.4478 16.7694C16.5628 15.4794 17.6428 14.4944 18.9378 14.4944H25.0579C26.3529 14.4944 27.4329 15.4794 27.5479 16.7694L27.8279 19.8394C27.8679 20.2994 27.5328 20.7044 27.0728 20.7444C26.6128 20.7844 26.2078 20.4494 26.1678 19.9894L25.8878 16.9194C25.8478 16.4894 25.4879 16.1594 25.0579 16.1594H18.9378C18.5078 16.1594 18.148 16.4894 18.108 16.9194L17.8279 19.9894C17.7879 20.4494 17.3829 20.7844 16.9229 20.7444C16.4629 20.7044 16.1278 20.2994 16.1678 19.8394L16.4478 16.7694Z" fill="black"/>
<path fill-rule="evenodd" clip-rule="evenodd" d="M21.9976 12.8294C22.4576 12.8294 22.8325 13.2044 22.8325 13.6644V15.3294C22.8325 15.7894 22.4576 16.1644 21.9976 16.1644C21.5376 16.1644 21.1626 15.7894 21.1626 15.3294V13.6644C21.1626 13.2044 21.5376 12.8294 21.9976 12.8294Z" fill="black"/>
<path fill-rule="evenodd" clip-rule="evenodd" d="M29.6375 29.4893C29.6375 29.4893 29.6827 29.4543 29.7227 29.4143C30.0377 29.0793 30.5676 29.0643 30.9026 29.3793C31.2376 29.6943 31.2525 30.2193 30.9375 30.5593C30.6525 30.8643 30.3026 31.0893 29.8826 31.1543C29.4676 31.2143 29.1025 31.0993 28.8225 30.9543C28.5475 30.8143 28.3076 30.6194 28.1126 30.4494C28.0126 30.3643 27.8825 30.2443 27.7625 30.1343C27.6775 30.0593 27.6026 29.9893 27.5476 29.9393C27.1576 29.5893 26.9726 29.5093 26.8826 29.5043C26.8826 29.5043 26.8327 29.5043 26.7427 29.5643C26.6327 29.6393 26.4676 29.7993 26.2576 30.1193H26.2525C26.0075 30.4893 25.7025 30.7993 25.3125 30.9593C24.8975 31.1343 24.4926 31.0993 24.1526 30.9844C23.8376 30.8794 23.5626 30.6943 23.3426 30.5343C23.1876 30.4193 23.0226 30.2794 22.8726 30.1593C22.8226 30.1143 22.7677 30.0743 22.7227 30.0343C22.2927 29.6843 22.0676 29.5644 21.9226 29.5543H21.9175C21.9175 29.5543 21.6725 29.5293 21.2525 30.1543C21.0275 30.5043 20.7275 30.7993 20.3225 30.9443C19.9125 31.0943 19.5225 31.0393 19.2075 30.9343C18.9075 30.8293 18.6375 30.6643 18.4175 30.5093C18.2675 30.4093 18.1077 30.2894 17.9627 30.1793C17.8977 30.1294 17.8325 30.0793 17.7725 30.0393C17.3275 29.7143 17.0725 29.5844 16.8975 29.5744C16.8475 29.5744 16.6275 29.5593 16.2625 30.1193H16.2576C15.8926 30.6693 15.3426 31.1543 14.6126 31.1543C13.8826 31.1543 13.3277 30.6693 12.9727 30.1193C12.7177 29.7343 12.8277 29.2193 13.2127 28.9643C13.5977 28.7143 14.1177 28.8193 14.3677 29.2093C14.4877 29.3943 14.5726 29.4593 14.6126 29.4793C14.6526 29.4593 14.7427 29.3943 14.8677 29.2043C15.4327 28.3443 16.1425 27.8593 17.0025 27.9093C17.7325 27.9543 18.3575 28.3943 18.7625 28.6943C18.8525 28.7593 18.9326 28.8193 19.0076 28.8743C19.1326 28.9693 19.2477 29.0543 19.3677 29.1343C19.5527 29.2593 19.6726 29.3293 19.7576 29.3543C19.7626 29.3543 19.7675 29.3543 19.7725 29.3543C19.7925 29.3343 19.8226 29.2943 19.8626 29.2344C20.4476 28.3493 21.1626 27.8243 22.0376 27.8843C22.7826 27.9393 23.3975 28.4293 23.7725 28.7344C23.8475 28.7944 23.9127 28.8493 23.9727 28.8993C24.1077 29.0093 24.2226 29.1043 24.3426 29.1943C24.5126 29.3243 24.6225 29.3793 24.6875 29.4043C24.7175 29.3793 24.7776 29.3244 24.8626 29.1994C25.4176 28.3544 26.0975 27.7943 26.9575 27.8343C27.7075 27.8693 28.2975 28.3693 28.6575 28.6893C28.7725 28.7943 28.8576 28.8693 28.9326 28.9443C29.0176 29.0243 29.0975 29.0943 29.2075 29.1893C29.3725 29.3393 29.4977 29.4243 29.5877 29.4743C29.6127 29.4843 29.6275 29.4944 29.6375 29.4993V29.4893Z" fill="black"/>
</g>
</g>
<rect x="9" y="9" width="26" height="26" rx="3" stroke="black" stroke-width="2"/>
</g>
<defs>
<filter id="filter0_d_8318_8972" x="0" y="0" width="44" height="44" filterUnits="userSpaceOnUse" color-interpolation-filters="sRGB">
<feFlood flood-opacity="0" result="BackgroundImageFix"/>
<feColorMatrix in="SourceAlpha" type="matrix" values="0 0 0 0 0 0 0 0 0 0 0 0 0 0 0 0 0 0 127 0" result="hardAlpha"/>
<feOffset/>
<feGaussianBlur stdDeviation="4"/>
<feColorMatrix type="matrix" values="0 0 0 0 0 0 0 0 0 0 0 0 0 0 0 0 0 0 0.23 0"/>
<feBlend mode="normal" in2="BackgroundImageFix" result="effect1_dropShadow_8318_8972"/>
<feBlend mode="normal" in="SourceGraphic" in2="effect1_dropShadow_8318_8972" result="shape"/>
</filter>
<clipPath id="clip0_8318_8972">
<rect x="8" y="8" width="28" height="28" rx="4" fill="white"/>
</clipPath>
<clipPath id="clip1_8318_8972">
<rect width="20" height="20" fill="white" transform="translate(12 12)"/>
</clipPath>
</defs>
</svg>
