<svg width="44" height="44" viewBox="0 0 44 44" fill="none" xmlns="http://www.w3.org/2000/svg">
<g filter="url(#filter0_d_8318_8972)">
<g clip-path="url(#clip0_8318_8972)">
<rect x="8" y="6" width="28" height="28" rx="4" fill="#5CA1E3"/>
<g clip-path="url(#clip1_8318_8972)">
<path fill-rule="evenodd" clip-rule="evenodd" d="M21.4078 15.4043C21.7828 15.2393 22.213 15.2393 22.588 15.4043L27.868 17.7393C28.998 18.2393 29.5279 19.5343 29.0729 20.6793L28.7679 21.4543C28.7679 21.4543 28.738 21.4543 28.723 21.4543H26.7828C26.4378 21.4543 26.1578 21.7343 26.1578 22.0793C26.1578 22.4243 26.4378 22.7043 26.7828 22.7043H28.2728L27.5028 24.6443C27.3478 24.6093 27.1828 24.5893 27.0128 24.5843C25.9278 24.5393 25.0929 25.0393 24.4679 25.6893C24.0679 25.3643 23.2228 24.7193 22.1278 24.6393C21.0378 24.5643 20.1678 25.0293 19.5128 25.6893L19.4779 25.6643C19.0879 25.3743 18.1979 24.7243 17.0729 24.6543C16.8779 24.6443 16.6879 24.6493 16.5079 24.6693L15.7279 22.7043H17.2079C17.5529 22.7043 17.8329 22.4243 17.8329 22.0793C17.8329 21.7343 17.5529 21.4543 17.2079 21.4543H15.233L14.9279 20.6793C14.4729 19.5343 15.0029 18.2343 16.1329 17.7393L21.4078 15.4043Z" fill="black"/>
<path fill-rule="evenodd" clip-rule="evenodd" d="M16.4478 14.7694C16.5628 13.4794 17.6428 12.4944 18.9378 12.4944H25.0579C26.3529 12.4944 27.4329 13.4794 27.5479 14.7694L27.8279 17.8394C27.8679 18.2994 27.5328 18.7044 27.0728 18.7444C26.6128 18.7844 26.2078 18.4494 26.1678 17.9894L25.8878 14.9194C25.8478 14.4894 25.4879 14.1594 25.0579 14.1594H18.9378C18.5078 14.1594 18.148 14.4894 18.108 14.9194L17.8279 17.9894C17.7879 18.4494 17.3829 18.7844 16.9229 18.7444C16.4629 18.7044 16.1278 18.2994 16.1678 17.8394L16.4478 14.7694Z" fill="black"/>
<path fill-rule="evenodd" clip-rule="evenodd" d="M21.9976 10.8294C22.4576 10.8294 22.8325 11.2044 22.8325 11.6644V13.3294C22.8325 13.7894 22.4576 14.1644 21.9976 14.1644C21.5376 14.1644 21.1626 13.7894 21.1626 13.3294V11.6644C21.1626 11.2044 21.5376 10.8294 21.9976 10.8294Z" fill="black"/>
<path fill-rule="evenodd" clip-rule="evenodd" d="M29.6375 27.4893C29.6375 27.4893 29.6827 27.4543 29.7227 27.4143C30.0377 27.0793 30.5676 27.0643 30.9026 27.3793C31.2376 27.6943 31.2525 28.2193 30.9375 28.5593C30.6525 28.8643 30.3026 29.0893 29.8826 29.1543C29.4676 29.2143 29.1025 29.0993 28.8225 28.9543C28.5475 28.8143 28.3076 28.6194 28.1126 28.4494C28.0126 28.3643 27.8825 28.2443 27.7625 28.1343C27.6775 28.0593 27.6026 27.9893 27.5476 27.9393C27.1576 27.5893 26.9726 27.5093 26.8826 27.5043C26.8826 27.5043 26.8327 27.5043 26.7427 27.5643C26.6327 27.6393 26.4676 27.7993 26.2576 28.1193H26.2525C26.0075 28.4893 25.7025 28.7993 25.3125 28.9593C24.8975 29.1343 24.4926 29.0993 24.1526 28.9844C23.8376 28.8794 23.5626 28.6943 23.3426 28.5343C23.1876 28.4193 23.0226 28.2794 22.8726 28.1593C22.8226 28.1143 22.7677 28.0743 22.7227 28.0343C22.2927 27.6843 22.0676 27.5644 21.9226 27.5543H21.9175C21.9175 27.5543 21.6725 27.5293 21.2525 28.1543C21.0275 28.5043 20.7275 28.7993 20.3225 28.9443C19.9125 29.0943 19.5225 29.0393 19.2075 28.9343C18.9075 28.8293 18.6375 28.6643 18.4175 28.5093C18.2675 28.4093 18.1077 28.2894 17.9627 28.1793C17.8977 28.1294 17.8325 28.0793 17.7725 28.0393C17.3275 27.7143 17.0725 27.5844 16.8975 27.5744C16.8475 27.5744 16.6275 27.5593 16.2625 28.1193H16.2576C15.8926 28.6693 15.3426 29.1543 14.6126 29.1543C13.8826 29.1543 13.3277 28.6693 12.9727 28.1193C12.7177 27.7343 12.8277 27.2193 13.2127 26.9643C13.5977 26.7143 14.1177 26.8193 14.3677 27.2093C14.4877 27.3943 14.5726 27.4593 14.6126 27.4793C14.6526 27.4593 14.7427 27.3943 14.8677 27.2043C15.4327 26.3443 16.1425 25.8593 17.0025 25.9093C17.7325 25.9543 18.3575 26.3943 18.7625 26.6943C18.8525 26.7593 18.9326 26.8193 19.0076 26.8743C19.1326 26.9693 19.2477 27.0543 19.3677 27.1343C19.5527 27.2593 19.6726 27.3293 19.7576 27.3543C19.7626 27.3543 19.7675 27.3543 19.7725 27.3543C19.7925 27.3343 19.8226 27.2943 19.8626 27.2344C20.4476 26.3493 21.1626 25.8243 22.0376 25.8843C22.7826 25.9393 23.3975 26.4293 23.7725 26.7344C23.8475 26.7944 23.9127 26.8493 23.9727 26.8993C24.1077 27.0093 24.2226 27.1043 24.3426 27.1943C24.5126 27.3243 24.6225 27.3793 24.6875 27.4043C24.7175 27.3793 24.7776 27.3244 24.8626 27.1994C25.4176 26.3544 26.0975 25.7943 26.9575 25.8343C27.7075 25.8693 28.2975 26.3693 28.6575 26.6893C28.7725 26.7943 28.8576 26.8693 28.9326 26.9443C29.0176 27.0243 29.0975 27.0943 29.2075 27.1893C29.3725 27.3393 29.4977 27.4243 29.5877 27.4743C29.6127 27.4843 29.6275 27.4944 29.6375 27.4993V27.4893Z" fill="black"/>
</g>
</g>
<rect x="9" y="7" width="26" height="26" rx="3" stroke="black" stroke-width="2"/>
</g>
<defs>
<filter id="filter0_d_8318_8972" x="0" y="0" width="44" height="44" filterUnits="userSpaceOnUse" color-interpolation-filters="sRGB">
<feFlood flood-opacity="0" result="BackgroundImageFix"/>
<feColorMatrix in="SourceAlpha" type="matrix" values="0 0 0 0 0 0 0 0 0 0 0 0 0 0 0 0 0 0 127 0" result="hardAlpha"/>
<feOffset dy="2"/>
<feGaussianBlur stdDeviation="4"/>
<feColorMatrix type="matrix" values="0 0 0 0 0 0 0 0 0 0 0 0 0 0 0 0 0 0 0.16 0"/>
<feBlend mode="normal" in2="BackgroundImageFix" result="effect1_dropShadow_8318_8972"/>
<feBlend mode="normal" in="SourceGraphic" in2="effect1_dropShadow_8318_8972" result="shape"/>
</filter>
<clipPath id="clip0_8318_8972">
<rect x="8" y="6" width="28" height="28" rx="4" fill="white"/>
</clipPath>
<clipPath id="clip1_8318_8972">
<rect width="20" height="20" fill="white" transform="translate(12 10)"/>
</clipPath>
</defs>
</svg>
