<svg width="60" height="65" viewBox="0 0 60 65" fill="none" xmlns="http://www.w3.org/2000/svg">
<g filter="url(#filter0_d_8318_8998)">
<mask id="path-1-inside-1_8318_8998" fill="white">
<path fill-rule="evenodd" clip-rule="evenodd" d="M16 8C11.5817 8 8 11.5817 8 16V29.7577V44C8 48.4183 11.5817 52 16 52H19.0486C22.0393 52 24.9778 53.0638 27.0226 55.2462C27.2503 55.4893 27.4744 55.7343 27.6944 55.9815C28.879 57.312 31.1727 57.3473 32.384 56.0382C32.6457 55.7553 32.9126 55.4746 33.184 55.1957C35.2608 53.0621 38.1772 52 41.1547 52H44C48.4183 52 52 48.4183 52 44V29.7577V16C52 11.5817 48.4183 8 44 8H16Z"/>
</mask>
<path fill-rule="evenodd" clip-rule="evenodd" d="M16 8C11.5817 8 8 11.5817 8 16V29.7577V44C8 48.4183 11.5817 52 16 52H19.0486C22.0393 52 24.9778 53.0638 27.0226 55.2462C27.2503 55.4893 27.4744 55.7343 27.6944 55.9815C28.879 57.312 31.1727 57.3473 32.384 56.0382C32.6457 55.7553 32.9126 55.4746 33.184 55.1957C35.2608 53.0621 38.1772 52 41.1547 52H44C48.4183 52 52 48.4183 52 44V29.7577V16C52 11.5817 48.4183 8 44 8H16Z" fill="#5CA1E3"/>
<path d="M27.6944 55.9815L26.2005 57.3112L26.2006 57.3114L27.6944 55.9815ZM32.384 56.0382L33.852 57.3965L33.8521 57.3964L32.384 56.0382ZM27.0226 55.2462L25.5631 56.6137L27.0226 55.2462ZM8 16H10C10 12.6863 12.6863 10 16 10V8V6C10.4772 6 6 10.4772 6 16H8ZM8 29.7577H10V16H8H6V29.7577H8ZM8 44H10V29.7577H8H6V44H8ZM16 52V50C12.6863 50 10 47.3137 10 44H8H6C6 49.5228 10.4772 54 16 54V52ZM19.0486 52V50H16V52V54H19.0486V52ZM27.0226 55.2462L25.5631 56.6137C25.7799 56.8451 25.9925 57.0776 26.2005 57.3112L27.6944 55.9815L29.1883 54.6517C28.9563 54.3911 28.7207 54.1335 28.4821 53.8788L27.0226 55.2462ZM27.6944 55.9815L26.2006 57.3114C28.1611 59.5134 31.8291 59.5827 33.852 57.3965L32.384 56.0382L30.916 54.6799C30.5164 55.1118 29.597 55.1107 29.1882 54.6516L27.6944 55.9815ZM32.384 56.0382L33.8521 57.3964C34.1015 57.1269 34.3567 56.8584 34.6172 56.5907L33.184 55.1957L31.7509 53.8008C31.4686 54.0907 31.19 54.3837 30.9159 54.68L32.384 56.0382ZM44 52V50H41.1547V52V54H44V52ZM52 44H50C50 47.3137 47.3137 50 44 50V52V54C49.5228 54 54 49.5228 54 44H52ZM52 29.7577H50V44H52H54V29.7577H52ZM52 16H50V29.7577H52H54V16H52ZM44 8V10C47.3137 10 50 12.6863 50 16H52H54C54 10.4772 49.5228 6 44 6V8ZM16 8V10H44V8V6H16V8ZM33.184 55.1957L34.6172 56.5907C36.2654 54.8974 38.6375 54 41.1547 54V52V50C37.717 50 34.2562 51.2268 31.7509 53.8008L33.184 55.1957ZM19.0486 52V54C21.5852 54 23.9591 54.9017 25.5631 56.6137L27.0226 55.2462L28.4821 53.8788C25.9964 51.2258 22.4933 50 19.0486 50V52Z" fill="black" mask="url(#path-1-inside-1_8318_8998)"/>
<path d="M40.6934 40.4885C40.6934 40.4885 40.7567 40.4395 40.8127 40.3835C41.2537 39.9145 41.9956 39.8935 42.4646 40.3345C42.9336 40.7755 42.9545 41.5105 42.5135 41.9865C42.1145 42.4135 41.6246 42.7285 41.0366 42.8195C40.4556 42.9035 39.9445 42.7425 39.5525 42.5395C39.1675 42.3435 38.8316 42.0705 38.5586 41.8325C38.4186 41.7135 38.2364 41.5455 38.0684 41.3915C37.9494 41.2865 37.8447 41.1885 37.7677 41.1185C37.2217 40.6285 36.9626 40.5165 36.8366 40.5095C36.8366 40.5095 36.7668 40.5095 36.6408 40.5935C36.4868 40.6985 36.2556 40.9225 35.9616 41.3705H35.9544C35.6114 41.8885 35.1845 42.3225 34.6385 42.5465C34.0575 42.7915 33.4906 42.7425 33.0146 42.5815C32.5736 42.4345 32.1886 42.1755 31.8806 41.9515C31.6636 41.7905 31.4326 41.5945 31.2226 41.4265C31.1526 41.3635 31.0757 41.3075 31.0127 41.2515C30.4107 40.7615 30.0957 40.5935 29.8927 40.5795H29.8855C29.8855 40.5795 29.5424 40.5445 28.9544 41.4195C28.6394 41.9095 28.2195 42.3225 27.6525 42.5255C27.0785 42.7355 26.5325 42.6585 26.0915 42.5115C25.6715 42.3645 25.2935 42.1335 24.9855 41.9165C24.7755 41.7765 24.5517 41.6085 24.3487 41.4545C24.2577 41.3845 24.1665 41.3145 24.0825 41.2515C23.4595 40.7965 23.1025 40.6145 22.8575 40.6005C22.7875 40.6005 22.4794 40.5795 21.9684 41.3635H21.9616C21.4506 42.1335 20.6806 42.8125 19.6586 42.8125C18.6366 42.8125 17.8597 42.1335 17.3627 41.3635C17.0057 40.8245 17.1597 40.1035 17.6987 39.7465C18.2377 39.3965 18.9658 39.5435 19.3158 40.0895C19.4838 40.3485 19.6026 40.4395 19.6586 40.4675C19.7146 40.4395 19.8408 40.3485 20.0158 40.0825C20.8068 38.8785 21.8004 38.1995 23.0044 38.2695C24.0264 38.3325 24.9014 38.9485 25.4684 39.3685C25.5944 39.4595 25.7066 39.5435 25.8116 39.6205C25.9866 39.7535 26.1478 39.8725 26.3158 39.9845C26.5748 40.1595 26.7426 40.2575 26.8616 40.2925H26.8825C26.8825 40.2925 26.9526 40.2155 27.0086 40.1315C27.8276 38.8925 28.8287 38.1575 30.0537 38.2415C31.0967 38.3185 31.9575 39.0045 32.4825 39.4315C32.5875 39.5155 32.6787 39.5925 32.7627 39.6625C32.9517 39.8165 33.1126 39.9495 33.2806 40.0755C33.5186 40.2575 33.6725 40.3345 33.7635 40.3695C33.8055 40.3345 33.8896 40.2575 34.0086 40.0825C34.7856 38.8995 35.7375 38.1155 36.9415 38.1715C37.9915 38.2205 38.8175 38.9205 39.3215 39.3685C39.4825 39.5155 39.6017 39.6205 39.7067 39.7255C39.8257 39.8375 39.9375 39.9355 40.0915 40.0685C40.3225 40.2785 40.4977 40.3975 40.6237 40.4675C40.6587 40.4815 40.6794 40.4955 40.6934 40.5025V40.4885Z" fill="black"/>
<path fill-rule="evenodd" clip-rule="evenodd" d="M21.8286 24.1646C21.8286 22.8766 22.8785 21.8336 24.1665 21.8336H30.1866C31.5096 21.8336 32.7695 22.3936 33.6585 23.3806L37.8657 28.0566C38.2927 28.5326 38.2575 29.2746 37.7745 29.7016C37.2985 30.1356 36.5634 30.0936 36.1294 29.6176L31.9226 24.9416C31.4816 24.4516 30.8516 24.1716 30.1866 24.1716H24.1665V28.8406C24.1665 29.4846 23.6416 30.0096 22.9976 30.0096C22.3536 30.0096 21.8286 29.4846 21.8286 28.8406V24.1646Z" fill="black"/>
<path fill-rule="evenodd" clip-rule="evenodd" d="M22.9976 18.3268C22.9976 17.6828 23.5225 17.1578 24.1665 17.1578H26.4976C27.7856 17.1578 28.8286 18.2008 28.8286 19.4888V22.9888C28.8286 23.6328 28.3105 24.1578 27.6665 24.1578C27.0225 24.1578 26.4976 23.6328 26.4976 22.9888V19.4888H24.1665C23.5225 19.4888 22.9976 18.9638 22.9976 18.3198V18.3268Z" fill="black"/>
<path d="M18.3288 27.9519C18.0628 27.9519 17.8108 28.0709 17.6428 28.2809C17.4818 28.4909 17.4188 28.7639 17.4818 29.0229L19.5606 37.8779C20.4776 37.0029 21.6536 36.4289 23.1026 36.5129C24.6776 36.6109 25.9656 37.5559 26.5186 37.9549C27.4356 37.0309 28.6466 36.3799 30.1796 36.4849C31.7126 36.5899 32.8957 37.4999 33.4557 37.9549C34.3307 37.0449 35.4996 36.3379 37.0186 36.4079C38.5516 36.4779 39.7067 37.3669 40.2807 37.8639C40.3297 37.8079 40.3716 37.7449 40.4136 37.6889C41.1626 36.6249 41.6316 35.2599 41.9326 33.9789C42.2406 32.6839 42.3878 31.3959 42.4648 30.4369C42.4998 29.9539 42.5206 29.5549 42.5276 29.2749C42.5346 29.1349 42.5347 28.9109 42.5417 28.8269C42.5417 28.3369 42.1497 27.9449 41.6667 27.9449H18.3288V27.9519Z" fill="black"/>
</g>
<defs>
<filter id="filter0_d_8318_8998" x="0" y="0" width="60" height="65" filterUnits="userSpaceOnUse" color-interpolation-filters="sRGB">
<feFlood flood-opacity="0" result="BackgroundImageFix"/>
<feColorMatrix in="SourceAlpha" type="matrix" values="0 0 0 0 0 0 0 0 0 0 0 0 0 0 0 0 0 0 127 0" result="hardAlpha"/>
<feOffset/>
<feGaussianBlur stdDeviation="4"/>
<feColorMatrix type="matrix" values="0 0 0 0 0 0 0 0 0 0 0 0 0 0 0 0 0 0 0.23 0"/>
<feBlend mode="normal" in2="BackgroundImageFix" result="effect1_dropShadow_8318_8998"/>
<feBlend mode="normal" in="SourceGraphic" in2="effect1_dropShadow_8318_8998" result="shape"/>
</filter>
</defs>
</svg>
