<svg width="44" height="44" viewBox="0 0 44 44" fill="none" xmlns="http://www.w3.org/2000/svg">
<g filter="url(#filter0_d_803_6895)">
<g clip-path="url(#clip0_803_6895)">
<rect x="8" y="6" width="28" height="28" rx="4" fill="#5CA1E3"/>
<g clip-path="url(#clip1_803_6895)">
<path fill-rule="evenodd" clip-rule="evenodd" d="M21.4083 15.404C21.7833 15.239 22.2135 15.239 22.5885 15.404L27.8685 17.739C28.9985 18.239 29.5284 19.534 29.0734 20.679L28.7684 21.454C28.7684 21.454 28.7385 21.454 28.7235 21.454H26.7833C26.4383 21.454 26.1583 21.734 26.1583 22.079C26.1583 22.424 26.4383 22.704 26.7833 22.704H28.2733L27.5033 24.644C27.3483 24.609 27.1833 24.589 27.0133 24.584C25.9283 24.539 25.0934 25.039 24.4684 25.689C24.0684 25.364 23.2233 24.719 22.1283 24.639C21.0383 24.564 20.1683 25.029 19.5133 25.689L19.4784 25.664C19.0884 25.374 18.1984 24.724 17.0734 24.654C16.8784 24.644 16.6884 24.649 16.5084 24.669L15.7284 22.704H17.2084C17.5534 22.704 17.8334 22.424 17.8334 22.079C17.8334 21.734 17.5534 21.454 17.2084 21.454H15.2335L14.9283 20.679C14.4733 19.534 15.0034 18.234 16.1334 17.739L21.4083 15.404Z" fill="black"/>
<path fill-rule="evenodd" clip-rule="evenodd" d="M16.4483 14.7691C16.5633 13.4791 17.6433 12.4941 18.9383 12.4941H25.0584C26.3534 12.4941 27.4334 13.4791 27.5484 14.7691L27.8284 17.8391C27.8684 18.2991 27.5333 18.7041 27.0733 18.7441C26.6133 18.7841 26.2083 18.4491 26.1683 17.9891L25.8882 14.9191C25.8482 14.4891 25.4884 14.1591 25.0584 14.1591H18.9383C18.5083 14.1591 18.1485 14.4891 18.1085 14.9191L17.8284 17.9891C17.7884 18.4491 17.3834 18.7841 16.9234 18.7441C16.4634 18.7041 16.1283 18.2991 16.1683 17.8391L16.4483 14.7691Z" fill="black"/>
<path fill-rule="evenodd" clip-rule="evenodd" d="M21.998 10.8291C22.458 10.8291 22.833 11.2041 22.833 11.6641V13.3291C22.833 13.7891 22.458 14.1641 21.998 14.1641C21.538 14.1641 21.1631 13.7891 21.1631 13.3291V11.6641C21.1631 11.2041 21.538 10.8291 21.998 10.8291Z" fill="black"/>
<path fill-rule="evenodd" clip-rule="evenodd" d="M29.638 27.489C29.638 27.489 29.6832 27.454 29.7232 27.414C30.0382 27.079 30.5681 27.064 30.9031 27.379C31.2381 27.694 31.253 28.219 30.938 28.559C30.653 28.864 30.3031 29.089 29.8831 29.154C29.4681 29.214 29.103 29.099 28.823 28.954C28.548 28.814 28.3081 28.619 28.1131 28.449C28.0131 28.364 27.883 28.244 27.763 28.134C27.678 28.059 27.6031 27.989 27.5481 27.939C27.1581 27.589 26.9731 27.509 26.8831 27.504C26.8831 27.504 26.8332 27.504 26.7432 27.564C26.6332 27.639 26.4681 27.799 26.2581 28.119H26.253C26.008 28.489 25.703 28.799 25.313 28.959C24.898 29.134 24.4931 29.099 24.1531 28.984C23.8381 28.879 23.563 28.694 23.343 28.534C23.188 28.419 23.0231 28.279 22.8731 28.159C22.8231 28.114 22.7682 28.074 22.7232 28.034C22.2932 27.684 22.0681 27.564 21.9231 27.554H21.918C21.918 27.554 21.673 27.529 21.253 28.154C21.028 28.504 20.728 28.799 20.323 28.944C19.913 29.094 19.523 29.039 19.208 28.934C18.908 28.829 18.638 28.664 18.418 28.509C18.268 28.409 18.1082 28.289 17.9632 28.179C17.8982 28.129 17.833 28.079 17.773 28.039C17.328 27.714 17.073 27.584 16.898 27.574C16.848 27.574 16.628 27.559 16.263 28.119H16.2581C15.8931 28.669 15.3431 29.154 14.6131 29.154C13.8831 29.154 13.3282 28.669 12.9732 28.119C12.7182 27.734 12.8282 27.219 13.2132 26.964C13.5982 26.714 14.1182 26.819 14.3682 27.209C14.4882 27.394 14.5731 27.459 14.6131 27.479C14.6531 27.459 14.7432 27.394 14.8682 27.204C15.4332 26.344 16.143 25.859 17.003 25.909C17.733 25.954 18.358 26.394 18.763 26.694C18.853 26.759 18.9331 26.819 19.0081 26.874C19.1331 26.969 19.2482 27.054 19.3682 27.134C19.5532 27.259 19.6731 27.329 19.7581 27.354C19.7631 27.354 19.768 27.354 19.773 27.354C19.793 27.334 19.8231 27.294 19.8631 27.234C20.4481 26.349 21.1631 25.824 22.0381 25.884C22.7831 25.939 23.398 26.429 23.773 26.734C23.848 26.794 23.9132 26.849 23.9732 26.899C24.1082 27.009 24.223 27.104 24.343 27.194C24.513 27.324 24.623 27.379 24.688 27.404C24.718 27.379 24.7781 27.324 24.8631 27.199C25.4181 26.354 26.098 25.794 26.958 25.834C27.708 25.869 28.298 26.369 28.658 26.689C28.773 26.794 28.8581 26.869 28.9331 26.944C29.0181 27.024 29.098 27.094 29.208 27.189C29.373 27.339 29.4982 27.424 29.5882 27.474C29.6132 27.484 29.628 27.494 29.638 27.499V27.489Z" fill="black"/>
</g>
</g>
<rect x="9" y="7" width="26" height="26" rx="3" stroke="#034151" stroke-width="2"/>
</g>
<defs>
<filter id="filter0_d_803_6895" x="0" y="0" width="44" height="44" filterUnits="userSpaceOnUse" color-interpolation-filters="sRGB">
<feFlood flood-opacity="0" result="BackgroundImageFix"/>
<feColorMatrix in="SourceAlpha" type="matrix" values="0 0 0 0 0 0 0 0 0 0 0 0 0 0 0 0 0 0 127 0" result="hardAlpha"/>
<feOffset dy="2"/>
<feGaussianBlur stdDeviation="4"/>
<feColorMatrix type="matrix" values="0 0 0 0 0 0 0 0 0 0 0 0 0 0 0 0 0 0 0.16 0"/>
<feBlend mode="normal" in2="BackgroundImageFix" result="effect1_dropShadow_803_6895"/>
<feBlend mode="normal" in="SourceGraphic" in2="effect1_dropShadow_803_6895" result="shape"/>
</filter>
<clipPath id="clip0_803_6895">
<rect x="8" y="6" width="28" height="28" rx="4" fill="white"/>
</clipPath>
<clipPath id="clip1_803_6895">
<rect width="20" height="20" fill="white" transform="translate(12 10)"/>
</clipPath>
</defs>
</svg>
