<svg width="44" height="44" viewBox="0 0 44 44" fill="none" xmlns="http://www.w3.org/2000/svg">
<g filter="url(#filter0_d_8318_8970)">
<g clip-path="url(#clip0_8318_8970)">
<rect x="8" y="8" width="28" height="28" rx="4" fill="#5CA1E3"/>
<g clip-path="url(#clip1_8318_8970)">
<path d="M29.6375 29.4918C29.6375 29.4918 29.6827 29.4568 29.7227 29.4168C30.0377 29.0818 30.5676 29.0668 30.9026 29.3818C31.2376 29.6968 31.2525 30.2218 30.9375 30.5618C30.6525 30.8668 30.3026 31.0918 29.8826 31.1568C29.4676 31.2168 29.1025 31.1018 28.8225 30.9568C28.5475 30.8168 28.3076 30.6218 28.1126 30.4518C28.0126 30.3668 27.8825 30.2468 27.7625 30.1368C27.6775 30.0618 27.6026 29.9918 27.5476 29.9418C27.1576 29.5918 26.9726 29.5118 26.8826 29.5068C26.8826 29.5068 26.8327 29.5068 26.7427 29.5668C26.6327 29.6418 26.4676 29.8018 26.2576 30.1218H26.2525C26.0075 30.4918 25.7025 30.8018 25.3125 30.9618C24.8975 31.1368 24.4926 31.1018 24.1526 30.9868C23.8376 30.8818 23.5626 30.6968 23.3426 30.5368C23.1876 30.4218 23.0226 30.2818 22.8726 30.1618C22.8226 30.1168 22.7677 30.0768 22.7227 30.0368C22.2927 29.6868 22.0676 29.5668 21.9226 29.5568H21.9175C21.9175 29.5568 21.6725 29.5318 21.2525 30.1568C21.0275 30.5068 20.7275 30.8018 20.3225 30.9468C19.9125 31.0968 19.5225 31.0418 19.2075 30.9368C18.9075 30.8318 18.6375 30.6668 18.4175 30.5118C18.2675 30.4118 18.1077 30.2918 17.9627 30.1818C17.8977 30.1318 17.8325 30.0818 17.7725 30.0368C17.3275 29.7118 17.0725 29.5818 16.8975 29.5718C16.8475 29.5718 16.6275 29.5568 16.2625 30.1168H16.2576C15.8926 30.6668 15.3426 31.1518 14.6126 31.1518C13.8826 31.1518 13.3277 30.6668 12.9727 30.1168C12.7177 29.7318 12.8277 29.2168 13.2127 28.9618C13.5977 28.7118 14.1177 28.8168 14.3677 29.2068C14.4877 29.3918 14.5726 29.4568 14.6126 29.4768C14.6526 29.4568 14.7427 29.3918 14.8677 29.2018C15.4327 28.3418 16.1425 27.8568 17.0025 27.9068C17.7325 27.9518 18.3575 28.3918 18.7625 28.6918C18.8525 28.7568 18.9326 28.8168 19.0076 28.8718C19.1326 28.9668 19.2477 29.0518 19.3677 29.1318C19.5527 29.2568 19.6726 29.3268 19.7576 29.3518H19.7725C19.7725 29.3518 19.8226 29.2968 19.8626 29.2368C20.4476 28.3518 21.1626 27.8268 22.0376 27.8868C22.7826 27.9418 23.3975 28.4318 23.7725 28.7368C23.8475 28.7968 23.9127 28.8518 23.9727 28.9018C24.1077 29.0118 24.2226 29.1068 24.3426 29.1968C24.5126 29.3268 24.6225 29.3818 24.6875 29.4068C24.7175 29.3818 24.7776 29.3268 24.8626 29.2018C25.4176 28.3568 26.0975 27.7968 26.9575 27.8368C27.7075 27.8718 28.2975 28.3718 28.6575 28.6918C28.7725 28.7968 28.8576 28.8718 28.9326 28.9468C29.0176 29.0268 29.0975 29.0968 29.2075 29.1918C29.3725 29.3418 29.4977 29.4268 29.5877 29.4768C29.6127 29.4868 29.6275 29.4968 29.6375 29.5018V29.4918Z" fill="black"/>
<path fill-rule="evenodd" clip-rule="evenodd" d="M16.1626 17.8318C16.1626 16.9118 16.9125 16.1668 17.8325 16.1668H22.1326C23.0776 16.1668 23.9775 16.5668 24.6125 17.2718L27.6177 20.6118C27.9227 20.9518 27.8975 21.4818 27.5525 21.7868C27.2125 22.0968 26.6874 22.0668 26.3774 21.7268L23.3726 18.3868C23.0576 18.0368 22.6076 17.8368 22.1326 17.8368H17.8325V21.1718C17.8325 21.6318 17.4576 22.0068 16.9976 22.0068C16.5376 22.0068 16.1626 21.6318 16.1626 21.1718V17.8318Z" fill="black"/>
<path fill-rule="evenodd" clip-rule="evenodd" d="M16.9976 13.662C16.9976 13.202 17.3725 12.827 17.8325 12.827H19.4976C20.4176 12.827 21.1626 13.572 21.1626 14.492V16.992C21.1626 17.452 20.7925 17.827 20.3325 17.827C19.8725 17.827 19.4976 17.452 19.4976 16.992V14.492H17.8325C17.3725 14.492 16.9976 14.117 16.9976 13.657V13.662Z" fill="black"/>
<path d="M13.6627 20.537C13.4727 20.537 13.2927 20.622 13.1727 20.772C13.0577 20.922 13.0127 21.117 13.0577 21.302L14.5426 27.627C15.1976 27.002 16.0376 26.592 17.0726 26.652C18.1976 26.722 19.1176 27.397 19.5126 27.682C20.1676 27.022 21.0326 26.557 22.1276 26.632C23.2226 26.707 24.0676 27.357 24.4676 27.682C25.0926 27.032 25.9276 26.527 27.0126 26.577C28.1076 26.627 28.9326 27.262 29.3426 27.617C29.3776 27.577 29.4076 27.532 29.4376 27.492C29.9726 26.732 30.3076 25.757 30.5226 24.842C30.7426 23.917 30.8477 22.997 30.9027 22.312C30.9277 21.967 30.9426 21.682 30.9476 21.482C30.9526 21.382 30.9526 21.222 30.9576 21.162C30.9576 20.812 30.6776 20.532 30.3326 20.532H13.6627V20.537Z" fill="black"/>
</g>
</g>
<rect x="9" y="9" width="26" height="26" rx="3" stroke="black" stroke-width="2"/>
</g>
<defs>
<filter id="filter0_d_8318_8970" x="0" y="0" width="44" height="44" filterUnits="userSpaceOnUse" color-interpolation-filters="sRGB">
<feFlood flood-opacity="0" result="BackgroundImageFix"/>
<feColorMatrix in="SourceAlpha" type="matrix" values="0 0 0 0 0 0 0 0 0 0 0 0 0 0 0 0 0 0 127 0" result="hardAlpha"/>
<feOffset/>
<feGaussianBlur stdDeviation="4"/>
<feColorMatrix type="matrix" values="0 0 0 0 0 0 0 0 0 0 0 0 0 0 0 0 0 0 0.23 0"/>
<feBlend mode="normal" in2="BackgroundImageFix" result="effect1_dropShadow_8318_8970"/>
<feBlend mode="normal" in="SourceGraphic" in2="effect1_dropShadow_8318_8970" result="shape"/>
</filter>
<clipPath id="clip0_8318_8970">
<rect x="8" y="8" width="28" height="28" rx="4" fill="white"/>
</clipPath>
<clipPath id="clip1_8318_8970">
<rect width="20" height="20" fill="white" transform="translate(12 12)"/>
</clipPath>
</defs>
</svg>
