<svg width="64" height="64" viewBox="0 0 64 64" fill="none" xmlns="http://www.w3.org/2000/svg">
<g filter="url(#filter0_d_10364_6064)">
<path d="M10 32C10 19.8497 19.8497 10 32 10C44.1503 10 54 19.8497 54 32C54 44.1503 44.1503 54 32 54C19.8497 54 10 44.1503 10 32Z" fill="#8FA9AF"/>
<path d="M32 9C44.7025 9 55 19.2975 55 32C55 44.7025 44.7025 55 32 55C19.2975 55 9 44.7025 9 32C9 19.2975 19.2975 9 32 9Z" stroke="black" stroke-width="2"/>
<path fill-rule="evenodd" clip-rule="evenodd" d="M32.0001 20.331C32.6441 20.331 33.1691 20.856 33.1691 21.5V25C33.1691 25.644 32.6441 26.169 32.0001 26.169C31.3561 26.169 30.8311 25.644 30.8311 25V21.5C30.8311 20.856 31.3561 20.331 32.0001 20.331Z" fill="black"/>
<path fill-rule="evenodd" clip-rule="evenodd" d="M32.0001 37.831C32.6441 37.831 33.1691 38.356 33.1691 39V42.5C33.1691 43.144 32.6441 43.669 32.0001 43.669C31.3561 43.669 30.8311 43.144 30.8311 42.5V39C30.8311 38.356 31.3561 37.831 32.0001 37.831Z" fill="black"/>
<path fill-rule="evenodd" clip-rule="evenodd" d="M37.8311 32C37.8311 31.356 38.3561 30.831 39.0001 30.831H42.5001C43.1441 30.831 43.6691 31.356 43.6691 32C43.6691 32.644 43.1441 33.169 42.5001 33.169H39.0001C38.3561 33.169 37.8311 32.644 37.8311 32Z" fill="black"/>
<path fill-rule="evenodd" clip-rule="evenodd" d="M20.3311 32C20.3311 31.356 20.8561 30.831 21.5001 30.831H25.0001C25.6441 30.831 26.1691 31.356 26.1691 32C26.1691 32.644 25.6441 33.169 25.0001 33.169H21.5001C20.8561 33.169 20.3311 32.644 20.3311 32Z" fill="black"/>
<path fill-rule="evenodd" clip-rule="evenodd" d="M40.2455 23.7539C40.7075 24.2089 40.7075 24.9509 40.2455 25.4059L37.7745 27.8839C37.3195 28.3389 36.5775 28.3389 36.1225 27.8839C35.6675 27.4289 35.6675 26.6869 36.1225 26.2319L38.6005 23.7539C39.0555 23.2989 39.7905 23.2989 40.2455 23.7539Z" fill="black"/>
<path fill-rule="evenodd" clip-rule="evenodd" d="M27.8773 36.1228C28.3323 36.5778 28.3323 37.3198 27.8773 37.7748L25.3993 40.2528C24.9443 40.7078 24.2093 40.7078 23.7543 40.2528C23.2993 39.7978 23.2993 39.0558 23.7543 38.6008L26.2254 36.1228C26.6804 35.6678 27.4223 35.6678 27.8773 36.1228Z" fill="black"/>
<path fill-rule="evenodd" clip-rule="evenodd" d="M36.1225 36.1228C36.5775 35.6678 37.3195 35.6678 37.7745 36.1228L40.2455 38.6008C40.7075 39.0558 40.7075 39.7978 40.2455 40.2528C39.7905 40.7078 39.0555 40.7078 38.6005 40.2528L36.1225 37.7748C35.6675 37.3198 35.6675 36.5778 36.1225 36.1228Z" fill="black"/>
<path fill-rule="evenodd" clip-rule="evenodd" d="M23.7543 23.7539C24.2093 23.2989 24.9443 23.2989 25.3993 23.7539L27.8773 26.2319C28.3323 26.6869 28.3323 27.4289 27.8773 27.8839C27.4223 28.3389 26.6804 28.3389 26.2254 27.8839L23.7543 25.4059C23.2993 24.9509 23.2993 24.2089 23.7543 23.7539Z" fill="black"/>
</g>
<defs>
<filter id="filter0_d_10364_6064" x="0" y="0" width="64" height="64" filterUnits="userSpaceOnUse" color-interpolation-filters="sRGB">
<feFlood flood-opacity="0" result="BackgroundImageFix"/>
<feColorMatrix in="SourceAlpha" type="matrix" values="0 0 0 0 0 0 0 0 0 0 0 0 0 0 0 0 0 0 127 0" result="hardAlpha"/>
<feOffset/>
<feGaussianBlur stdDeviation="4"/>
<feColorMatrix type="matrix" values="0 0 0 0 0 0 0 0 0 0 0 0 0 0 0 0 0 0 0.23 0"/>
<feBlend mode="normal" in2="BackgroundImageFix" result="effect1_dropShadow_10364_6064"/>
<feBlend mode="normal" in="SourceGraphic" in2="effect1_dropShadow_10364_6064" result="shape"/>
</filter>
</defs>
</svg>
