<svg width="76" height="48" viewBox="0 0 76 48" fill="none" xmlns="http://www.w3.org/2000/svg">
<g filter="url(#filter0_d_10646_5096)">
<path d="M8 24C8 15.1634 15.1634 8 24 8H52C60.8366 8 68 15.1634 68 24C68 32.8366 60.8366 40 52 40H24C15.1634 40 8 32.8366 8 24Z" fill="black"/>
<path d="M24 9H52C60.2843 9 67 15.7157 67 24C67 32.2843 60.2843 39 52 39H24C15.7157 39 9 32.2843 9 24C9 15.7157 15.7157 9 24 9Z" stroke="black" stroke-width="2"/>
<path d="M10 24C10 16.268 16.268 10 24 10C31.732 10 38 16.268 38 24C38 31.732 31.732 38 24 38C16.268 38 10 31.732 10 24Z" fill="#533B75"/>
<path d="M19.835 30.355C20.985 30.355 21.915 29.42 21.915 28.27C21.915 27.12 20.985 26.185 19.835 26.185C18.685 26.185 17.75 27.12 17.75 28.27C17.75 29.42 18.685 30.355 19.835 30.355Z" fill="white"/>
<path d="M28.165 30.355C29.315 30.355 30.25 29.42 30.25 28.27C30.25 27.12 29.315 26.185 28.165 26.185C27.015 26.185 26.085 27.12 26.085 28.27C26.085 29.42 27.015 30.355 28.165 30.355Z" fill="white"/>
<path fill-rule="evenodd" clip-rule="evenodd" d="M15.04 22.435C15.04 22.09 15.32 21.81 15.665 21.81H29C29.345 21.81 29.625 22.09 29.625 22.435C29.625 22.78 29.345 23.06 29 23.06H15.665C15.32 23.06 15.04 22.78 15.04 22.435Z" fill="white"/>
<path fill-rule="evenodd" clip-rule="evenodd" d="M21.5 17.645C21.845 17.645 22.125 17.925 22.125 18.27V22.435C22.125 22.78 21.845 23.06 21.5 23.06C21.155 23.06 20.875 22.78 20.875 22.435V18.27C20.875 17.925 21.155 17.645 21.5 17.645Z" fill="white"/>
<path fill-rule="evenodd" clip-rule="evenodd" d="M15.04 18.27C15.04 17.925 15.32 17.645 15.665 17.645H25.2151C25.9651 17.645 26.665 18.01 27.095 18.625L29.4199 21.95L31.6899 23.085C32.4699 23.475 32.96 24.265 32.96 25.135V27.44C32.96 28.245 32.305 28.9 31.5 28.9H31.27C31.31 28.7 31.335 28.49 31.335 28.275C31.335 26.525 29.915 25.11 28.165 25.11C26.415 25.11 25 26.53 25 28.275C25 28.49 25.0201 28.7 25.0601 28.9H22.9399C22.9799 28.7 23 28.49 23 28.275C23 26.525 21.58 25.11 19.835 25.11C18.09 25.11 16.665 26.53 16.665 28.275C16.665 28.4 16.6749 28.53 16.6899 28.65L15.8501 28.23C15.3551 27.985 15.04 27.48 15.04 26.925V22.025C15.04 21.94 15.06 21.85 15.095 21.77L16.3701 18.9H15.665C15.32 18.9 15.04 18.62 15.04 18.275V18.27ZM17.74 18.895L16.4451 21.81H20.875V18.895H17.74ZM22.125 18.895V21.81H27.8L26.0701 19.34C25.8751 19.06 25.5551 18.895 25.2151 18.895H22.125Z" fill="white"/>
</g>
<defs>
<filter id="filter0_d_10646_5096" x="0" y="0" width="76" height="48" filterUnits="userSpaceOnUse" color-interpolation-filters="sRGB">
<feFlood flood-opacity="0" result="BackgroundImageFix"/>
<feColorMatrix in="SourceAlpha" type="matrix" values="0 0 0 0 0 0 0 0 0 0 0 0 0 0 0 0 0 0 127 0" result="hardAlpha"/>
<feOffset/>
<feGaussianBlur stdDeviation="4"/>
<feColorMatrix type="matrix" values="0 0 0 0 0 0 0 0 0 0 0 0 0 0 0 0 0 0 0.23 0"/>
<feBlend mode="normal" in2="BackgroundImageFix" result="effect1_dropShadow_10646_5096"/>
<feBlend mode="normal" in="SourceGraphic" in2="effect1_dropShadow_10646_5096" result="shape"/>
</filter>
</defs>
</svg>
