<svg width="64" height="64" viewBox="0 0 64 64" fill="none" xmlns="http://www.w3.org/2000/svg">
<g filter="url(#filter0_d_10364_6056)">
<path d="M10 32C10 19.8497 19.8497 10 32 10C44.1503 10 54 19.8497 54 32C54 44.1503 44.1503 54 32 54C19.8497 54 10 44.1503 10 32Z" fill="#60201C"/>
<path d="M32 9C44.7025 9 55 19.2975 55 32C55 44.7025 44.7025 55 32 55C19.2975 55 9 44.7025 9 32C9 19.2975 19.2975 9 32 9Z" stroke="black" stroke-width="2"/>
<path fill-rule="evenodd" clip-rule="evenodd" d="M19.4004 28.325C19.4004 27.1652 20.3406 26.225 21.5004 26.225H39.0004C42.4798 26.225 45.3004 29.0456 45.3004 32.525V36.725C45.3004 37.8848 44.3649 38.825 43.2051 38.825C36.3616 38.825 23.3834 38.825 21.5004 38.825C20.3406 38.825 19.4004 37.8848 19.4004 36.725V28.325ZM21.5004 29.025C21.5004 28.6384 21.8138 28.325 22.2004 28.325H24.2974C24.684 28.325 24.9974 28.6384 24.9974 29.025V32.525C24.9974 32.9116 24.684 33.225 24.2974 33.225H22.2004C21.8504 33.225 21.5004 32.875 21.5004 32.525V29.025ZM27.108 28.325C26.7214 28.325 26.408 28.6384 26.408 29.025L26.4004 32.525C26.4004 32.875 26.7504 33.225 27.1004 33.225H29.908C30.2946 33.225 30.608 32.9116 30.608 32.525V29.025C30.608 28.6384 30.2946 28.325 29.908 28.325H27.108ZM32.0185 29.025C32.0185 28.6384 32.3319 28.325 32.7185 28.325H35.5185C35.9051 28.325 36.2185 28.6384 36.2185 29.025V32.525C36.2185 32.9116 35.9051 33.225 35.5185 33.225H33.4185C32.6453 33.225 32.0004 33.2982 32.0004 32.525L32.0185 29.025ZM38.329 28.325C37.9424 28.325 37.629 28.6384 37.629 29.025V32.525C37.629 32.9116 37.9424 33.225 38.329 33.225H42.529C42.9156 33.225 43.229 32.9116 43.229 32.525C43.229 30.2054 41.3486 28.325 39.029 28.325H38.329Z" fill="#EF4E45"/>
<path fill-rule="evenodd" clip-rule="evenodd" d="M19.9254 40.925C19.9254 40.4418 20.3171 40.05 20.8004 40.05H43.9004C44.3836 40.05 44.7754 40.4418 44.7754 40.925C44.7754 41.4083 44.3836 41.8 43.9004 41.8H20.8004C20.3171 41.8 19.9254 41.4083 19.9254 40.925Z" fill="#EF4E45"/>
<path fill-rule="evenodd" clip-rule="evenodd" d="M28.3254 23.425C28.3254 22.9418 28.7171 22.55 29.2004 22.55H34.8004C35.1459 22.55 35.4591 22.7534 35.5997 23.069C35.7403 23.3847 35.6819 23.7535 35.4508 24.0103L32.3008 27.5103C31.9775 27.8695 31.4242 27.8987 31.065 27.5754C30.7058 27.2521 30.6767 26.6989 31 26.3397L32.8357 24.3H29.2004C28.7171 24.3 28.3254 23.9083 28.3254 23.425Z" fill="#EF4E45"/>
</g>
<defs>
<filter id="filter0_d_10364_6056" x="0" y="0" width="64" height="64" filterUnits="userSpaceOnUse" color-interpolation-filters="sRGB">
<feFlood flood-opacity="0" result="BackgroundImageFix"/>
<feColorMatrix in="SourceAlpha" type="matrix" values="0 0 0 0 0 0 0 0 0 0 0 0 0 0 0 0 0 0 127 0" result="hardAlpha"/>
<feOffset/>
<feGaussianBlur stdDeviation="4"/>
<feColorMatrix type="matrix" values="0 0 0 0 0 0 0 0 0 0 0 0 0 0 0 0 0 0 0.23 0"/>
<feBlend mode="normal" in2="BackgroundImageFix" result="effect1_dropShadow_10364_6056"/>
<feBlend mode="normal" in="SourceGraphic" in2="effect1_dropShadow_10364_6056" result="shape"/>
</filter>
</defs>
</svg>
