<svg width="64" height="64" viewBox="0 0 64 64" fill="none" xmlns="http://www.w3.org/2000/svg">
<g filter="url(#filter0_d_10646_46926)">
<g clip-path="url(#clip0_10646_46926)">
<path d="M10 32C10 19.8497 19.8497 10 32 10V10C44.1503 10 54 19.8497 54 32V32C54 44.1503 44.1503 54 32 54V54C19.8497 54 10 44.1503 10 32V32Z" fill="#902F2A"/>
<path fill-rule="evenodd" clip-rule="evenodd" d="M34.4636 19.4549C34.8063 19.5824 35.0335 19.9094 35.0335 20.275V29.9002H40.5761C40.9184 29.9002 41.2294 30.0998 41.3718 30.4111C41.5143 30.7223 41.4621 31.0881 41.2383 31.3471L30.155 44.1802C29.9161 44.4569 29.5304 44.5559 29.1877 44.4283C28.8451 44.3009 28.6178 43.9739 28.6178 43.6083V33.9832H23.0752C22.7329 33.9832 22.422 33.7836 22.2796 33.4723C22.1371 33.161 22.1893 32.7953 22.413 32.5362L33.4963 19.7031C33.7353 19.4264 34.121 19.3275 34.4636 19.4549Z" fill="white"/>
</g>
<path d="M32 9C44.7025 9 55 19.2975 55 32C55 44.7025 44.7025 55 32 55C19.2975 55 9 44.7025 9 32C9 19.2975 19.2975 9 32 9Z" stroke="black" stroke-width="2"/>
</g>
<defs>
<filter id="filter0_d_10646_46926" x="0" y="0" width="64" height="64" filterUnits="userSpaceOnUse" color-interpolation-filters="sRGB">
<feFlood flood-opacity="0" result="BackgroundImageFix"/>
<feColorMatrix in="SourceAlpha" type="matrix" values="0 0 0 0 0 0 0 0 0 0 0 0 0 0 0 0 0 0 127 0" result="hardAlpha"/>
<feOffset/>
<feGaussianBlur stdDeviation="4"/>
<feColorMatrix type="matrix" values="0 0 0 0 0 0 0 0 0 0 0 0 0 0 0 0 0 0 0.23 0"/>
<feBlend mode="normal" in2="BackgroundImageFix" result="effect1_dropShadow_10646_46926"/>
<feBlend mode="normal" in="SourceGraphic" in2="effect1_dropShadow_10646_46926" result="shape"/>
</filter>
<clipPath id="clip0_10646_46926">
<path d="M10 32C10 19.8497 19.8497 10 32 10V10C44.1503 10 54 19.8497 54 32V32C54 44.1503 44.1503 54 32 54V54C19.8497 54 10 44.1503 10 32V32Z" fill="white"/>
</clipPath>
</defs>
</svg>
