<svg width="56" height="56" viewBox="0 0 56 56" fill="none" xmlns="http://www.w3.org/2000/svg">
<g filter="url(#filter0_d_8318_8810)">
<g clip-path="url(#clip0_8318_8810)">
<rect x="10" y="10" width="36" height="36" rx="18" fill="#60201C"/>
<path fill-rule="evenodd" clip-rule="evenodd" d="M18.6689 33.831C18.0249 33.831 17.5 34.356 17.5 35C17.5 35.644 18.0249 36.169 18.6689 36.169C19.3129 36.169 19.8311 35.644 19.8311 35C19.8311 34.356 19.3129 33.831 18.6689 33.831ZM15.1689 35C15.1689 33.068 16.7369 31.5 18.6689 31.5C20.6009 31.5 22.1689 33.068 22.1689 35C22.1689 36.932 20.6009 38.5 18.6689 38.5C16.7369 38.5 15.1689 36.932 15.1689 35Z" fill="#EF4E45"/>
<path fill-rule="evenodd" clip-rule="evenodd" d="M37.3311 33.831C36.6871 33.831 36.1689 34.356 36.1689 35C36.1689 35.644 36.6871 36.169 37.3311 36.169C37.9751 36.169 38.5 35.644 38.5 35C38.5 34.356 37.9751 33.831 37.3311 33.831ZM33.8311 35C33.8311 33.068 35.3991 31.5 37.3311 31.5C39.2631 31.5 40.8311 33.068 40.8311 35C40.8311 36.932 39.2631 38.5 37.3311 38.5C35.3991 38.5 33.8311 36.932 33.8311 35Z" fill="#EF4E45"/>
<path fill-rule="evenodd" clip-rule="evenodd" d="M30.3309 18.669C30.3309 18.025 30.8558 17.5 31.4998 17.5H32.6407C34.2157 17.5 35.5949 18.55 36.0149 20.062L38.4581 28.854C38.5561 29.204 38.4859 29.582 38.2619 29.869C38.0449 30.156 37.6949 30.331 37.3309 30.331C35.8049 30.331 34.4538 31.059 33.5998 32.2C33.0118 32.977 32.6688 33.95 32.6688 35C32.6688 35.644 32.1438 36.169 31.4998 36.169H20.9998C20.6918 36.169 20.391 36.05 20.174 35.826C19.957 35.609 19.8311 35.308 19.8311 35C19.8311 34.356 19.3129 33.831 18.6689 33.831C18.0249 33.831 17.5278 33.341 17.4998 32.711C17.4718 32.088 17.948 31.549 18.571 31.5L32.074 30.373C33.047 29.274 34.3559 28.476 35.8399 28.154L33.768 20.685C33.628 20.181 33.1657 19.831 32.6407 19.831H31.4998C30.8558 19.831 30.3309 19.306 30.3309 18.662V18.669Z" fill="#EF4E45"/>
</g>
<rect x="9" y="9" width="38" height="38" rx="19" stroke="black" stroke-width="2"/>
</g>
<defs>
<filter id="filter0_d_8318_8810" x="0" y="0" width="56" height="56" filterUnits="userSpaceOnUse" color-interpolation-filters="sRGB">
<feFlood flood-opacity="0" result="BackgroundImageFix"/>
<feColorMatrix in="SourceAlpha" type="matrix" values="0 0 0 0 0 0 0 0 0 0 0 0 0 0 0 0 0 0 127 0" result="hardAlpha"/>
<feOffset/>
<feGaussianBlur stdDeviation="4"/>
<feColorMatrix type="matrix" values="0 0 0 0 0 0 0 0 0 0 0 0 0 0 0 0 0 0 0.23 0"/>
<feBlend mode="normal" in2="BackgroundImageFix" result="effect1_dropShadow_8318_8810"/>
<feBlend mode="normal" in="SourceGraphic" in2="effect1_dropShadow_8318_8810" result="shape"/>
</filter>
<clipPath id="clip0_8318_8810">
<rect x="10" y="10" width="36" height="36" rx="18" fill="white"/>
</clipPath>
</defs>
</svg>
