<svg width="76" height="48" viewBox="0 0 76 48" fill="none" xmlns="http://www.w3.org/2000/svg">
<g filter="url(#filter0_d_8318_8741)">
<path d="M8 22C8 13.1634 15.1634 6 24 6H52C60.8366 6 68 13.1634 68 22C68 30.8366 60.8366 38 52 38H24C15.1634 38 8 30.8366 8 22Z" fill="black"/>
<path d="M24 7H52C60.2843 7 67 13.7157 67 22C67 30.2843 60.2843 37 52 37H24C15.7157 37 9 30.2843 9 22C9 13.7157 15.7157 7 24 7Z" stroke="black" stroke-width="2"/>
<path d="M10 22C10 14.268 16.268 8 24 8C31.732 8 38 14.268 38 22C38 29.732 31.732 36 24 36C16.268 36 10 29.732 10 22Z" fill="#533B75"/>
<path d="M19.835 28.355C20.985 28.355 21.915 27.42 21.915 26.27C21.915 25.12 20.985 24.185 19.835 24.185C18.685 24.185 17.75 25.12 17.75 26.27C17.75 27.42 18.685 28.355 19.835 28.355Z" fill="white"/>
<path d="M28.165 28.355C29.315 28.355 30.25 27.42 30.25 26.27C30.25 25.12 29.315 24.185 28.165 24.185C27.015 24.185 26.085 25.12 26.085 26.27C26.085 27.42 27.015 28.355 28.165 28.355Z" fill="white"/>
<path fill-rule="evenodd" clip-rule="evenodd" d="M15.04 20.435C15.04 20.09 15.32 19.81 15.665 19.81H29C29.345 19.81 29.625 20.09 29.625 20.435C29.625 20.78 29.345 21.06 29 21.06H15.665C15.32 21.06 15.04 20.78 15.04 20.435Z" fill="white"/>
<path fill-rule="evenodd" clip-rule="evenodd" d="M21.5 15.645C21.845 15.645 22.125 15.925 22.125 16.27V20.435C22.125 20.78 21.845 21.06 21.5 21.06C21.155 21.06 20.875 20.78 20.875 20.435V16.27C20.875 15.925 21.155 15.645 21.5 15.645Z" fill="white"/>
<path fill-rule="evenodd" clip-rule="evenodd" d="M15.04 16.27C15.04 15.925 15.32 15.645 15.665 15.645H25.2151C25.9651 15.645 26.665 16.01 27.095 16.625L29.4199 19.95L31.6899 21.085C32.4699 21.475 32.96 22.265 32.96 23.135V25.44C32.96 26.245 32.305 26.9 31.5 26.9H31.27C31.31 26.7 31.335 26.49 31.335 26.275C31.335 24.525 29.915 23.11 28.165 23.11C26.415 23.11 25 24.53 25 26.275C25 26.49 25.0201 26.7 25.0601 26.9H22.9399C22.9799 26.7 23 26.49 23 26.275C23 24.525 21.58 23.11 19.835 23.11C18.09 23.11 16.665 24.53 16.665 26.275C16.665 26.4 16.6749 26.53 16.6899 26.65L15.8501 26.23C15.3551 25.985 15.04 25.48 15.04 24.925V20.025C15.04 19.94 15.06 19.85 15.095 19.77L16.3701 16.9H15.665C15.32 16.9 15.04 16.62 15.04 16.275V16.27ZM17.74 16.895L16.4451 19.81H20.875V16.895H17.74ZM22.125 16.895V19.81H27.8L26.0701 17.34C25.8751 17.06 25.5551 16.895 25.2151 16.895H22.125Z" fill="white"/>
</g>
<defs>
<filter id="filter0_d_8318_8741" x="0" y="0" width="76" height="48" filterUnits="userSpaceOnUse" color-interpolation-filters="sRGB">
<feFlood flood-opacity="0" result="BackgroundImageFix"/>
<feColorMatrix in="SourceAlpha" type="matrix" values="0 0 0 0 0 0 0 0 0 0 0 0 0 0 0 0 0 0 127 0" result="hardAlpha"/>
<feOffset dy="2"/>
<feGaussianBlur stdDeviation="4"/>
<feColorMatrix type="matrix" values="0 0 0 0 0 0 0 0 0 0 0 0 0 0 0 0 0 0 0.16 0"/>
<feBlend mode="normal" in2="BackgroundImageFix" result="effect1_dropShadow_8318_8741"/>
<feBlend mode="normal" in="SourceGraphic" in2="effect1_dropShadow_8318_8741" result="shape"/>
</filter>
</defs>
</svg>
