<svg width="56" height="56" viewBox="0 0 56 56" fill="none" xmlns="http://www.w3.org/2000/svg">
<g filter="url(#filter0_d_803_6758)">
<g clip-path="url(#clip0_803_6758)">
<rect x="10" y="8" width="36" height="36" rx="18" fill="#8FA9AF"/>
<path fill-rule="evenodd" clip-rule="evenodd" d="M20.7061 27.1664C18.7741 27.1664 17.2061 28.7344 17.2061 30.6664C17.2061 32.5984 18.7741 34.1664 20.7061 34.1664C22.6381 34.1664 24.2061 32.5984 24.2061 30.6664C24.2061 28.7344 22.6381 27.1664 20.7061 27.1664ZM14.875 30.6664C14.875 27.4464 17.4861 24.8354 20.7061 24.8354C23.9261 24.8354 26.5371 27.4464 26.5371 30.6664C26.5371 33.8864 23.9261 36.4973 20.7061 36.4973C17.4861 36.4973 14.875 33.8864 14.875 30.6664Z" fill="black"/>
<path fill-rule="evenodd" clip-rule="evenodd" d="M35.2871 27.1664C33.3551 27.1664 31.7871 28.7344 31.7871 30.6664C31.7871 32.5984 33.3551 34.1664 35.2871 34.1664C37.2191 34.1664 38.7871 32.5984 38.7871 30.6664C38.7871 28.7344 37.2261 27.1664 35.2871 27.1664ZM29.4561 30.6664C29.4561 27.4464 32.0671 24.8354 35.2871 24.8354C38.5071 24.8354 41.125 27.4464 41.125 30.6664C41.125 33.8864 38.5071 36.4973 35.2871 36.4973C32.0671 36.4973 29.4561 33.8864 29.4561 30.6664Z" fill="black"/>
<path fill-rule="evenodd" clip-rule="evenodd" d="M32.9909 20.3482C33.5369 20.6912 33.7051 21.4122 33.3621 21.9582L27.5311 31.2892C27.3141 31.6322 26.9431 31.8352 26.5371 31.8352H20.7061C20.0621 31.8352 19.5371 31.3102 19.5371 30.6662C19.5371 30.0222 20.0621 29.4972 20.7061 29.4972H25.8932L31.3811 20.7192C31.7241 20.1732 32.4449 20.0052 32.9909 20.3482Z" fill="black"/>
<path fill-rule="evenodd" clip-rule="evenodd" d="M18.375 20.1665C18.375 19.5225 18.8931 18.9975 19.5371 18.9975H25.375C26.019 18.9975 26.5371 19.5225 26.5371 20.1665C26.5371 20.8105 26.019 21.3355 25.375 21.3355H24.3879L29.1833 26.9915C29.5963 27.4815 29.5332 28.2165 29.0432 28.6365C28.5532 29.0495 27.8178 28.9935 27.3978 28.4965L21.3288 21.3285H19.5371C18.8931 21.3285 18.375 20.8035 18.375 20.1595V20.1665Z" fill="black"/>
<path fill-rule="evenodd" clip-rule="evenodd" d="M32.7879 17.9055C33.3059 17.9335 33.8028 17.9895 34.2788 18.1155C35.1258 18.3395 35.6649 18.7385 35.9099 19.5785C36.0849 20.1945 36.7362 20.5585 37.3522 20.3765C37.9752 20.2015 38.332 19.5505 38.15 18.9345C37.618 17.0725 36.2461 16.2255 34.8811 15.8615C33.8661 15.5885 32.7178 15.5535 31.8568 15.5255C31.6468 15.5255 31.4581 15.5115 31.2901 15.5045C30.4431 15.4625 29.8762 16.2675 30.0932 17.0095L34.1674 30.9955C34.3494 31.6115 34.9999 31.9685 35.6159 31.7865C36.2319 31.6045 36.5888 30.9605 36.4068 30.3375L32.7879 17.8985V17.9055Z" fill="black"/>
</g>
<rect x="9" y="7" width="38" height="38" rx="19" stroke="#034151" stroke-width="2"/>
</g>
<defs>
<filter id="filter0_d_803_6758" x="0" y="0" width="56" height="56" filterUnits="userSpaceOnUse" color-interpolation-filters="sRGB">
<feFlood flood-opacity="0" result="BackgroundImageFix"/>
<feColorMatrix in="SourceAlpha" type="matrix" values="0 0 0 0 0 0 0 0 0 0 0 0 0 0 0 0 0 0 127 0" result="hardAlpha"/>
<feOffset dy="2"/>
<feGaussianBlur stdDeviation="4"/>
<feColorMatrix type="matrix" values="0 0 0 0 0 0 0 0 0 0 0 0 0 0 0 0 0 0 0.16 0"/>
<feBlend mode="normal" in2="BackgroundImageFix" result="effect1_dropShadow_803_6758"/>
<feBlend mode="normal" in="SourceGraphic" in2="effect1_dropShadow_803_6758" result="shape"/>
</filter>
<clipPath id="clip0_803_6758">
<rect x="10" y="8" width="36" height="36" rx="18" fill="white"/>
</clipPath>
</defs>
</svg>
