<svg width="56" height="56" viewBox="0 0 56 56" fill="none" xmlns="http://www.w3.org/2000/svg">
<g filter="url(#filter0_d_8318_8749)">
<g clip-path="url(#clip0_8318_8749)">
<rect x="10" y="8" width="36" height="36" rx="18" fill="#8FA9AF"/>
<path d="M22.1689 34.897C23.7789 34.897 25.0811 33.588 25.0811 31.978C25.0811 30.368 23.7789 29.059 22.1689 29.059C20.5589 29.059 19.25 30.368 19.25 31.978C19.25 33.588 20.5589 34.897 22.1689 34.897Z" fill="black"/>
<path d="M33.8311 34.897C35.4411 34.897 36.75 33.588 36.75 31.978C36.75 30.368 35.4411 29.059 33.8311 29.059C32.2211 29.059 30.9189 30.368 30.9189 31.978C30.9189 33.588 32.2211 34.897 33.8311 34.897Z" fill="black"/>
<path fill-rule="evenodd" clip-rule="evenodd" d="M15.4561 23.809C15.4561 23.326 15.8481 22.934 16.3311 22.934H35C35.483 22.934 35.875 23.326 35.875 23.809C35.875 24.292 35.483 24.684 35 24.684H16.3311C15.8481 24.684 15.4561 24.292 15.4561 23.809Z" fill="black"/>
<path fill-rule="evenodd" clip-rule="evenodd" d="M24.5 17.103C24.983 17.103 25.375 17.495 25.375 17.978V23.809C25.375 24.292 24.983 24.684 24.5 24.684C24.017 24.684 23.625 24.292 23.625 23.809V17.978C23.625 17.495 24.017 17.103 24.5 17.103Z" fill="black"/>
<path fill-rule="evenodd" clip-rule="evenodd" d="M15.4561 17.978C15.4561 17.495 15.8481 17.103 16.3311 17.103H29.7011C30.7511 17.103 31.731 17.614 32.333 18.475L35.5879 23.13L38.7659 24.719C39.8579 25.265 40.5439 26.371 40.5439 27.589V30.816C40.5439 31.943 39.627 32.86 38.5 32.86H38.178C38.234 32.58 38.2689 32.286 38.2689 31.985C38.2689 29.535 36.2811 27.554 33.8311 27.554C31.3811 27.554 29.4 29.542 29.4 31.985C29.4 32.286 29.4281 32.58 29.4841 32.86H26.5159C26.5719 32.58 26.6 32.286 26.6 31.985C26.6 29.535 24.6119 27.554 22.1689 27.554C19.7259 27.554 17.7311 29.542 17.7311 31.985C17.7311 32.16 17.7449 32.342 17.7659 32.51L16.5901 31.922C15.8971 31.579 15.4561 30.872 15.4561 30.095V23.235C15.4561 23.116 15.484 22.99 15.533 22.878L17.3182 18.86H16.3311C15.8481 18.86 15.4561 18.468 15.4561 17.985V17.978ZM19.236 18.853L17.4231 22.934H23.625V18.853H19.236ZM25.375 18.853V22.934H33.3201L30.8981 19.476C30.6251 19.084 30.1771 18.853 29.7011 18.853H25.375Z" fill="black"/>
</g>
<rect x="9" y="7" width="38" height="38" rx="19" stroke="black" stroke-width="2"/>
</g>
<defs>
<filter id="filter0_d_8318_8749" x="0" y="0" width="56" height="56" filterUnits="userSpaceOnUse" color-interpolation-filters="sRGB">
<feFlood flood-opacity="0" result="BackgroundImageFix"/>
<feColorMatrix in="SourceAlpha" type="matrix" values="0 0 0 0 0 0 0 0 0 0 0 0 0 0 0 0 0 0 127 0" result="hardAlpha"/>
<feOffset dy="2"/>
<feGaussianBlur stdDeviation="4"/>
<feColorMatrix type="matrix" values="0 0 0 0 0 0 0 0 0 0 0 0 0 0 0 0 0 0 0.16 0"/>
<feBlend mode="normal" in2="BackgroundImageFix" result="effect1_dropShadow_8318_8749"/>
<feBlend mode="normal" in="SourceGraphic" in2="effect1_dropShadow_8318_8749" result="shape"/>
</filter>
<clipPath id="clip0_8318_8749">
<rect x="10" y="8" width="36" height="36" rx="18" fill="white"/>
</clipPath>
</defs>
</svg>
