<svg width="28" height="28" viewBox="0 0 28 28" fill="none" xmlns="http://www.w3.org/2000/svg">
<path d="M0 4C0 1.79086 1.79086 0 4 0H24C26.2091 0 28 1.79086 28 4V24C28 26.2091 26.2091 28 24 28H4C1.79086 28 0 26.2091 0 24V4Z" fill="#0020C2"/>
<path d="M20.251 22.54H7.75098C6.48598 22.54 5.46094 21.51 5.46094 20.25V7.74996C5.46094 6.48496 6.48598 5.45996 7.75098 5.45996H20.251C21.516 5.45996 22.541 6.48996 22.541 7.74996V20.25C22.541 21.515 21.516 22.54 20.251 22.54ZM7.75098 6.70996C7.17598 6.70996 6.71094 7.17496 6.71094 7.74996V20.25C6.71094 20.825 7.17598 21.29 7.75098 21.29H20.251C20.826 21.29 21.291 20.825 21.291 20.25V7.74996C21.291 7.17496 20.826 6.70996 20.251 6.70996H7.75098Z" fill="white"/>
<path d="M11.0859 19.2099C10.7409 19.2099 10.4609 18.9299 10.4609 18.5849V9.41992C10.4609 9.07492 10.7409 8.79492 11.0859 8.79492H14.416C16.141 8.79492 17.541 10.1949 17.541 11.9199C17.541 13.6449 16.141 15.0449 14.416 15.0449H11.7109V18.5849C11.7109 18.9299 11.4309 19.2099 11.0859 19.2099ZM11.7109 13.7899H14.416C15.451 13.7899 16.291 12.9499 16.291 11.9149C16.291 10.8799 15.451 10.0399 14.416 10.0399H11.7109V13.7899Z" fill="white"/>
</svg>
