<svg width="28" height="28" viewBox="0 0 28 28" fill="none" xmlns="http://www.w3.org/2000/svg">
<path d="M0 4C0 1.79086 1.79086 0 4 0H24C26.2091 0 28 1.79086 28 4V24C28 26.2091 26.2091 28 24 28H4C1.79086 28 0 26.2091 0 24V4Z" fill="#D44546"/>
<path d="M19.5999 20.2003C19.4449 20.2003 19.295 20.1403 19.175 20.0253L7.97496 8.82532C7.73996 8.59032 7.73996 8.21032 7.97496 7.97532C8.20996 7.74032 8.58995 7.74032 8.82495 7.97532L20.025 19.1753C20.26 19.4103 20.26 19.7903 20.025 20.0253C19.91 20.1403 19.7549 20.2003 19.5999 20.2003Z" fill="black"/>
<path d="M13.9999 22.6004C9.25991 22.6004 5.3999 18.7404 5.3999 14.0004C5.3999 9.26039 9.25991 5.40039 13.9999 5.40039C18.7399 5.40039 22.5999 9.26039 22.5999 14.0004C22.5999 18.7404 18.7399 22.6004 13.9999 22.6004ZM13.9999 6.60039C9.91991 6.60039 6.59991 9.92039 6.59991 14.0004C6.59991 18.0804 9.91991 21.4004 13.9999 21.4004C18.0799 21.4004 21.3999 18.0804 21.3999 14.0004C21.3999 9.92039 18.0799 6.60039 13.9999 6.60039Z" fill="black"/>
</svg>
