<svg width="28" height="28" viewBox="0 0 28 28" fill="none" xmlns="http://www.w3.org/2000/svg">
<path d="M0 4C0 1.79086 1.79086 0 4 0H24C26.2091 0 28 1.79086 28 4V24C28 26.2091 26.2091 28 24 28H4C1.79086 28 0 26.2091 0 24V4Z" fill="#0020C2"/>
<path d="M10.7051 21.4166C10.2221 21.4166 9.12695 21.1867 9.12695 20.7037V8.29163C9.12695 7.80863 9.51895 7.41663 10.002 7.41663H14.6641C17.0791 7.41663 19.0391 9.37663 19.0391 11.7916C19.0391 14.2066 17.0791 16.2037 14.6641 16.2037H12.2177V20.7037C12.2177 21.1867 11.1881 21.4166 10.7051 21.4166ZM12.2177 13.2037H13.7177C15.1667 13.2037 16.2177 13.1527 16.2177 11.7037C16.2177 10.3054 15.1667 10.2037 13.7177 10.2037H12.2177V13.2037Z" fill="white"/>
</svg>
