<svg width="40" height="40" viewBox="0 0 40 40" fill="none" xmlns="http://www.w3.org/2000/svg">
<path fill-rule="evenodd" clip-rule="evenodd" d="M19.9948 2.08496C13.6248 2.08496 7.53479 5.85496 4.99479 11.805C2.62479 17.345 3.90475 22.055 6.57475 26.095C8.76475 29.405 11.9548 32.355 14.8448 35.025C15.3948 35.535 15.9247 36.035 16.4447 36.515C17.4047 37.415 18.6848 37.915 19.9948 37.915C21.3048 37.915 22.5848 37.415 23.5448 36.525C24.0348 36.065 24.5449 35.595 25.0549 35.125C27.9749 32.445 31.2148 29.455 33.4248 26.105C36.0948 22.065 37.3748 17.345 35.0048 11.815C32.4548 5.86496 26.3748 2.09496 19.9948 2.09496V2.08496ZM19.9948 11.675C16.3148 11.675 13.3247 14.655 13.3247 18.345C13.3247 22.035 16.3148 25.015 19.9948 25.015C23.6748 25.015 26.6648 22.035 26.6648 18.345C26.6648 14.655 23.6748 11.675 19.9948 11.675Z" fill="#D24600" stroke="#37424A"/>
</svg>
