<svg width="40" height="40" viewBox="0 0 40 40" fill="none" xmlns="http://www.w3.org/2000/svg">
<path fill-rule="evenodd" clip-rule="evenodd" d="M19.9996 36.6701C21.0096 36.6701 21.9696 36.2901 22.6996 35.6101C23.1996 35.1401 23.7196 34.6601 24.2396 34.1801C30.5996 28.3201 37.8496 21.6301 33.8596 12.3001C31.5196 6.83008 25.9096 3.33008 19.9996 3.33008C14.0896 3.33008 8.47966 6.83008 6.13966 12.3001C2.16966 21.5901 9.33968 28.2301 15.6597 34.0801C16.2197 34.6001 16.7697 35.1101 17.3097 35.6101C18.0297 36.2901 18.9996 36.6701 19.9996 36.6701ZM25.0097 15.0901C25.4997 14.6001 25.4997 13.8101 25.0097 13.3201C24.5197 12.8301 23.7296 12.8301 23.2396 13.3201L19.9996 16.5601L16.7597 13.3201C16.2697 12.8301 15.4796 12.8301 14.9896 13.3201C14.4996 13.8101 14.4996 14.6001 14.9896 15.0901L18.2296 18.3301L14.9896 21.5701C14.4996 22.0601 14.4996 22.8501 14.9896 23.3401C15.4796 23.8301 16.2697 23.8301 16.7597 23.3401L19.9996 20.1001L23.2396 23.3401C23.7296 23.8301 24.5197 23.8301 25.0097 23.3401C25.4997 22.8501 25.4997 22.0601 25.0097 21.5701L21.7697 18.3301L25.0097 15.0901Z" fill="#D44546" stroke="#37424A"/>
</svg>
