<svg width="40" height="40" viewBox="0 0 40 40" fill="none" xmlns="http://www.w3.org/2000/svg">
<path fill-rule="evenodd" clip-rule="evenodd" d="M19.9943 2.08496C13.6243 2.08496 7.53431 5.85496 4.99431 11.805C2.62431 17.345 3.90426 22.055 6.57426 26.095C8.76426 29.405 11.9543 32.355 14.8443 35.025C15.3943 35.535 15.9243 36.035 16.4443 36.515C17.4043 37.415 18.6843 37.915 19.9943 37.915C21.3043 37.915 22.5844 37.415 23.5444 36.525C24.0344 36.065 24.5444 35.595 25.0544 35.125C27.9744 32.445 31.2144 29.455 33.4244 26.105C36.0944 22.065 37.3743 17.345 35.0043 11.815C32.4543 5.86496 26.3743 2.09496 19.9943 2.09496V2.08496ZM19.9943 11.675C16.3143 11.675 13.3243 14.655 13.3243 18.345C13.3243 22.035 16.3143 25.015 19.9943 25.015C23.6743 25.015 26.6643 22.035 26.6643 18.345C26.6643 14.655 23.6743 11.675 19.9943 11.675Z" fill="#D24600" stroke="black"/>
</svg>
