<svg width="50" height="53" viewBox="0 0 50 53" fill="none" xmlns="http://www.w3.org/2000/svg">
<g filter="url(#filter0_d_8318_9251)">
<path fill-rule="evenodd" clip-rule="evenodd" d="M24.7463 6.5C18.3763 6.5 12.2863 10.27 9.74626 16.22C7.37626 21.76 8.65621 26.47 11.3262 30.51C13.5162 33.82 16.7062 36.77 19.5962 39.44C20.1462 39.95 20.6762 40.45 21.1962 40.93C22.1562 41.83 23.4363 42.33 24.7463 42.33C26.0563 42.33 27.3363 41.83 28.2963 40.94C28.7863 40.48 29.2963 40.01 29.8063 39.54C32.7263 36.86 35.9663 33.87 38.1763 30.52C40.8463 26.48 42.1263 21.76 39.7563 16.23C37.2063 10.28 31.1263 6.51 24.7463 6.51V6.5ZM24.7463 16.09C21.0663 16.09 18.0762 19.07 18.0762 22.76C18.0762 26.45 21.0663 29.43 24.7463 29.43C28.4263 29.43 31.4163 26.45 31.4163 22.76C31.4163 19.07 28.4263 16.09 24.7463 16.09Z" fill="#D24600" stroke="black"/>
</g>
<defs>
<filter id="filter0_d_8318_9251" x="-3.24805" y="-1.58496" width="56" height="56" filterUnits="userSpaceOnUse" color-interpolation-filters="sRGB">
<feFlood flood-opacity="0" result="BackgroundImageFix"/>
<feColorMatrix in="SourceAlpha" type="matrix" values="0 0 0 0 0 0 0 0 0 0 0 0 0 0 0 0 0 0 127 0" result="hardAlpha"/>
<feOffset dy="2"/>
<feGaussianBlur stdDeviation="4"/>
<feColorMatrix type="matrix" values="0 0 0 0 0 0 0 0 0 0 0 0 0 0 0 0 0 0 0.16 0"/>
<feBlend mode="normal" in2="BackgroundImageFix" result="effect1_dropShadow_8318_9251"/>
<feBlend mode="normal" in="SourceGraphic" in2="effect1_dropShadow_8318_9251" result="shape"/>
</filter>
</defs>
</svg>
