<svg width="76" height="48" viewBox="0 0 76 48" fill="none" xmlns="http://www.w3.org/2000/svg">
<g filter="url(#filter0_d_8318_9209)">
<path d="M8 12C8 9.79086 9.79086 8 12 8H64C66.2091 8 68 9.79086 68 12V36C68 38.2091 66.2091 40 64 40H12C9.79086 40 8 38.2091 8 36V12Z" fill="black"/>
<path d="M12 9H64C65.6569 9 67 10.3431 67 12V36C67 37.6569 65.6569 39 64 39H12C10.3431 39 9 37.6569 9 36V12C9 10.3431 10.3431 9 12 9Z" stroke="black" stroke-width="2"/>
<path d="M10 14C10 11.7909 11.7909 10 14 10H34C36.2091 10 38 11.7909 38 14V34C38 36.2091 36.2091 38 34 38H14C11.7909 38 10 36.2091 10 34V14Z" fill="#0020C2"/>
<path d="M20.7051 31.4166C20.2221 31.4166 19.127 31.1867 19.127 30.7037V18.2916C19.127 17.8086 19.519 17.4166 20.002 17.4166H24.6641C27.0791 17.4166 29.0391 19.3766 29.0391 21.7916C29.0391 24.2066 27.0791 26.2037 24.6641 26.2037H22.2177V30.7037C22.2177 31.1867 21.1881 31.4166 20.7051 31.4166ZM22.2177 23.2037H23.7177C25.1667 23.2037 26.2177 23.1527 26.2177 21.7037C26.2177 20.3054 25.1667 20.2037 23.7177 20.2037H22.2177V23.2037Z" fill="white"/>
</g>
<defs>
<filter id="filter0_d_8318_9209" x="0" y="0" width="76" height="48" filterUnits="userSpaceOnUse" color-interpolation-filters="sRGB">
<feFlood flood-opacity="0" result="BackgroundImageFix"/>
<feColorMatrix in="SourceAlpha" type="matrix" values="0 0 0 0 0 0 0 0 0 0 0 0 0 0 0 0 0 0 127 0" result="hardAlpha"/>
<feOffset/>
<feGaussianBlur stdDeviation="4"/>
<feColorMatrix type="matrix" values="0 0 0 0 0 0 0 0 0 0 0 0 0 0 0 0 0 0 0.23 0"/>
<feBlend mode="normal" in2="BackgroundImageFix" result="effect1_dropShadow_8318_9209"/>
<feBlend mode="normal" in="SourceGraphic" in2="effect1_dropShadow_8318_9209" result="shape"/>
</filter>
</defs>
</svg>
