<svg width="102" height="65" viewBox="0 0 102 65" fill="none" xmlns="http://www.w3.org/2000/svg">
<g filter="url(#filter0_d_8318_9218)">
<mask id="path-1-inside-1_8318_9218" fill="white">
<path fill-rule="evenodd" clip-rule="evenodd" d="M16 6C11.5817 6 8 9.58172 8 14V42C8 46.4183 11.5817 50 16 50H40.0486C43.0393 50 45.9778 51.0638 48.0226 53.2462C48.2503 53.4893 48.4744 53.7343 48.6944 53.9815C49.879 55.312 52.1727 55.3473 53.384 54.0382C53.6458 53.7553 53.9126 53.4746 54.184 53.1957C56.2608 51.0621 59.1772 50 62.1547 50H86C90.4183 50 94 46.4183 94 42V14C94 9.58172 90.4183 6 86 6H16Z"/>
</mask>
<path fill-rule="evenodd" clip-rule="evenodd" d="M16 6C11.5817 6 8 9.58172 8 14V42C8 46.4183 11.5817 50 16 50H40.0486C43.0393 50 45.9778 51.0638 48.0226 53.2462C48.2503 53.4893 48.4744 53.7343 48.6944 53.9815C49.879 55.312 52.1727 55.3473 53.384 54.0382C53.6458 53.7553 53.9126 53.4746 54.184 53.1957C56.2608 51.0621 59.1772 50 62.1547 50H86C90.4183 50 94 46.4183 94 42V14C94 9.58172 90.4183 6 86 6H16Z" fill="#37424A"/>
<path d="M48.6944 53.9815L47.2005 55.3112L47.2006 55.3114L48.6944 53.9815ZM53.384 54.0382L54.852 55.3965L54.8521 55.3964L53.384 54.0382ZM54.184 53.1957L52.7509 51.8008L54.184 53.1957ZM48.0226 53.2462L49.4821 51.8788L48.0226 53.2462ZM8 14H10C10 10.6863 12.6863 8 16 8V6V4C10.4772 4 6 8.47715 6 14H8ZM8 42H10V14H8H6V42H8ZM16 50V48C12.6863 48 10 45.3137 10 42H8H6C6 47.5228 10.4772 52 16 52V50ZM40.0486 50V48H16V50V52H40.0486V50ZM48.0226 53.2462L46.5631 54.6137C46.7799 54.8451 46.9925 55.0776 47.2005 55.3112L48.6944 53.9815L50.1883 52.6517C49.9563 52.3911 49.7207 52.1335 49.4821 51.8788L48.0226 53.2462ZM48.6944 53.9815L47.2006 55.3114C49.1611 57.5134 52.8291 57.5827 54.852 55.3965L53.384 54.0382L51.9161 52.6799C51.5164 53.1118 50.597 53.1107 50.1882 52.6515L48.6944 53.9815ZM53.384 54.0382L54.8521 55.3964C55.1015 55.1269 55.3567 54.8584 55.6172 54.5907L54.184 53.1957L52.7509 51.8008C52.4686 52.0907 52.19 52.3837 51.916 52.68L53.384 54.0382ZM86 50V48H62.1547V50V52H86V50ZM94 42H92C92 45.3137 89.3137 48 86 48V50V52C91.5229 52 96 47.5228 96 42H94ZM94 14H92V42H94H96V14H94ZM86 6V8C89.3137 8 92 10.6863 92 14H94H96C96 8.47715 91.5229 4 86 4V6ZM16 6V8H86V6V4H16V6ZM54.184 53.1957L55.6172 54.5907C57.2654 52.8974 59.6375 52 62.1547 52V50V48C58.717 48 55.2562 49.2268 52.7509 51.8008L54.184 53.1957ZM40.0486 50V52C42.5852 52 44.9591 52.9017 46.5631 54.6137L48.0226 53.2462L49.4821 51.8788C46.9964 49.2258 43.4933 48 40.0486 48V50Z" fill="#37424A" mask="url(#path-1-inside-1_8318_9218)"/>
<rect x="10" y="8" width="40" height="40" rx="6" fill="#8F1011"/>
<path fill-rule="evenodd" clip-rule="evenodd" d="M22.7061 29.1662C20.7741 29.1662 19.2061 30.7342 19.2061 32.6662C19.2061 34.5982 20.7741 36.1662 22.7061 36.1662C24.6381 36.1662 26.2061 34.5982 26.2061 32.6662C26.2061 30.7342 24.6381 29.1662 22.7061 29.1662ZM16.875 32.6662C16.875 29.4462 19.4861 26.8352 22.7061 26.8352C25.9261 26.8352 28.5371 29.4462 28.5371 32.6662C28.5371 35.8862 25.9261 38.4972 22.7061 38.4972C19.4861 38.4972 16.875 35.8862 16.875 32.6662Z" fill="white"/>
<path fill-rule="evenodd" clip-rule="evenodd" d="M37.2871 29.1662C35.3551 29.1662 33.7871 30.7342 33.7871 32.6662C33.7871 34.5982 35.3551 36.1662 37.2871 36.1662C39.2191 36.1662 40.7871 34.5982 40.7871 32.6662C40.7871 30.7342 39.2261 29.1662 37.2871 29.1662ZM31.4561 32.6662C31.4561 29.4462 34.0671 26.8352 37.2871 26.8352C40.5071 26.8352 43.125 29.4462 43.125 32.6662C43.125 35.8862 40.5071 38.4972 37.2871 38.4972C34.0671 38.4972 31.4561 35.8862 31.4561 32.6662Z" fill="white"/>
<path fill-rule="evenodd" clip-rule="evenodd" d="M34.9909 22.3481C35.5369 22.6911 35.7051 23.4121 35.3621 23.9581L29.5311 33.2891C29.3141 33.6321 28.9431 33.8351 28.5371 33.8351H22.7061C22.0621 33.8351 21.5371 33.3101 21.5371 32.6661C21.5371 32.0221 22.0621 31.4971 22.7061 31.4971H27.8932L33.3811 22.7191C33.7241 22.1731 34.4449 22.0051 34.9909 22.3481Z" fill="white"/>
<path fill-rule="evenodd" clip-rule="evenodd" d="M20.375 22.1663C20.375 21.5223 20.8931 20.9973 21.5371 20.9973H27.375C28.019 20.9973 28.5371 21.5223 28.5371 22.1663C28.5371 22.8103 28.019 23.3353 27.375 23.3353H26.3879L31.1833 28.9913C31.5963 29.4813 31.5332 30.2163 31.0432 30.6363C30.5532 31.0493 29.8178 30.9933 29.3978 30.4963L23.3288 23.3283H21.5371C20.8931 23.3283 20.375 22.8033 20.375 22.1593V22.1663Z" fill="white"/>
<path fill-rule="evenodd" clip-rule="evenodd" d="M34.7879 19.9054C35.3059 19.9334 35.8028 19.9894 36.2788 20.1154C37.1258 20.3394 37.6649 20.7384 37.9099 21.5784C38.0849 22.1944 38.7362 22.5584 39.3522 22.3764C39.9752 22.2014 40.332 21.5504 40.15 20.9344C39.618 19.0724 38.2461 18.2254 36.8811 17.8614C35.8661 17.5884 34.7178 17.5534 33.8568 17.5254C33.6468 17.5254 33.4581 17.5114 33.2901 17.5044C32.4431 17.4624 31.8762 18.2674 32.0932 19.0094L36.1674 32.9954C36.3494 33.6114 36.9999 33.9684 37.6159 33.7864C38.2319 33.6044 38.5888 32.9604 38.4068 32.3374L34.7879 19.8984V19.9054Z" fill="white"/>
</g>
<defs>
<filter id="filter0_d_8318_9218" x="0" y="0" width="102" height="65" filterUnits="userSpaceOnUse" color-interpolation-filters="sRGB">
<feFlood flood-opacity="0" result="BackgroundImageFix"/>
<feColorMatrix in="SourceAlpha" type="matrix" values="0 0 0 0 0 0 0 0 0 0 0 0 0 0 0 0 0 0 127 0" result="hardAlpha"/>
<feOffset dy="2"/>
<feGaussianBlur stdDeviation="4"/>
<feColorMatrix type="matrix" values="0 0 0 0 0 0 0 0 0 0 0 0 0 0 0 0 0 0 0.16 0"/>
<feBlend mode="normal" in2="BackgroundImageFix" result="effect1_dropShadow_8318_9218"/>
<feBlend mode="normal" in="SourceGraphic" in2="effect1_dropShadow_8318_9218" result="shape"/>
</filter>
</defs>
</svg>
