<svg width="76" height="48" viewBox="0 0 76 48" fill="none" xmlns="http://www.w3.org/2000/svg">
<g filter="url(#filter0_d_8318_9212)">
<path d="M8 10C8 7.79086 9.79086 6 12 6H64C66.2091 6 68 7.79086 68 10V34C68 36.2091 66.2091 38 64 38H12C9.79086 38 8 36.2091 8 34V10Z" fill="black"/>
<path d="M12 7H64C65.6569 7 67 8.34315 67 10V34C67 35.6569 65.6569 37 64 37H12C10.3431 37 9 35.6569 9 34V10C9 8.34315 10.3431 7 12 7Z" stroke="black" stroke-width="2"/>
<rect x="10" y="8" width="28" height="28" rx="2" fill="#8E2864"/>
<path d="M19.834 28.3551C20.984 28.3551 21.9141 27.4201 21.9141 26.2701C21.9141 25.1201 20.984 24.1851 19.834 24.1851C18.684 24.1851 17.749 25.1201 17.749 26.2701C17.749 27.4201 18.684 28.3551 19.834 28.3551Z" fill="white"/>
<path d="M28.1641 28.3551C29.3141 28.3551 30.249 27.4201 30.249 26.2701C30.249 25.1201 29.3141 24.1851 28.1641 24.1851C27.0141 24.1851 26.084 25.1201 26.084 26.2701C26.084 27.4201 27.0141 28.3551 28.1641 28.3551Z" fill="white"/>
<path fill-rule="evenodd" clip-rule="evenodd" d="M15.0391 20.4351C15.0391 20.0901 15.3191 19.8101 15.6641 19.8101H28.999C29.344 19.8101 29.624 20.0901 29.624 20.4351C29.624 20.7801 29.344 21.0601 28.999 21.0601H15.6641C15.3191 21.0601 15.0391 20.7801 15.0391 20.4351Z" fill="white"/>
<path fill-rule="evenodd" clip-rule="evenodd" d="M21.499 15.645C21.844 15.645 22.124 15.925 22.124 16.27V20.435C22.124 20.78 21.844 21.06 21.499 21.06C21.154 21.06 20.874 20.78 20.874 20.435V16.27C20.874 15.925 21.154 15.645 21.499 15.645Z" fill="white"/>
<path fill-rule="evenodd" clip-rule="evenodd" d="M15.0391 16.27C15.0391 15.925 15.3191 15.645 15.6641 15.645H25.2141C25.9641 15.645 26.664 16.01 27.094 16.625L29.4189 19.95L31.689 21.085C32.469 21.475 32.959 22.265 32.959 23.135V25.44C32.959 26.245 32.304 26.9 31.499 26.9H31.269C31.309 26.7 31.334 26.49 31.334 26.275C31.334 24.525 29.9141 23.11 28.1641 23.11C26.4141 23.11 24.999 24.53 24.999 26.275C24.999 26.49 25.0191 26.7 25.0591 26.9H22.939C22.979 26.7 22.999 26.49 22.999 26.275C22.999 24.525 21.579 23.11 19.834 23.11C18.089 23.11 16.6641 24.53 16.6641 26.275C16.6641 26.4 16.674 26.53 16.689 26.65L15.8491 26.23C15.3541 25.985 15.0391 25.48 15.0391 24.925V20.025C15.0391 19.94 15.059 19.85 15.094 19.77L16.3691 16.9H15.6641C15.3191 16.9 15.0391 16.62 15.0391 16.275V16.27ZM17.739 16.895L16.4441 19.81H20.874V16.895H17.739ZM22.124 16.895V19.81H27.7991L26.0691 17.34C25.8741 17.06 25.5541 16.895 25.2141 16.895H22.124Z" fill="white"/>
</g>
<defs>
<filter id="filter0_d_8318_9212" x="0" y="0" width="76" height="48" filterUnits="userSpaceOnUse" color-interpolation-filters="sRGB">
<feFlood flood-opacity="0" result="BackgroundImageFix"/>
<feColorMatrix in="SourceAlpha" type="matrix" values="0 0 0 0 0 0 0 0 0 0 0 0 0 0 0 0 0 0 127 0" result="hardAlpha"/>
<feOffset dy="2"/>
<feGaussianBlur stdDeviation="4"/>
<feColorMatrix type="matrix" values="0 0 0 0 0 0 0 0 0 0 0 0 0 0 0 0 0 0 0.16 0"/>
<feBlend mode="normal" in2="BackgroundImageFix" result="effect1_dropShadow_8318_9212"/>
<feBlend mode="normal" in="SourceGraphic" in2="effect1_dropShadow_8318_9212" result="shape"/>
</filter>
</defs>
</svg>
