<svg width="76" height="48" viewBox="0 0 76 48" fill="none" xmlns="http://www.w3.org/2000/svg">
<g filter="url(#filter0_d_8318_9215)">
<path d="M8 10C8 7.79086 9.79086 6 12 6H64C66.2091 6 68 7.79086 68 10V34C68 36.2091 66.2091 38 64 38H12C9.79086 38 8 36.2091 8 34V10Z" fill="#37424A"/>
<path d="M12 7H64C65.6569 7 67 8.34315 67 10V34C67 35.6569 65.6569 37 64 37H12C10.3431 37 9 35.6569 9 34V10C9 8.34315 10.3431 7 12 7Z" stroke="#37424A" stroke-width="2"/>
<rect x="10" y="8" width="28" height="28" rx="2" fill="#8E2864"/>
<path d="M30.251 30.54H17.751C16.486 30.54 15.4609 29.51 15.4609 28.25V15.75C15.4609 14.485 16.486 13.46 17.751 13.46H30.251C31.516 13.46 32.541 14.49 32.541 15.75V28.25C32.541 29.515 31.516 30.54 30.251 30.54ZM17.751 14.71C17.176 14.71 16.7109 15.175 16.7109 15.75V28.25C16.7109 28.825 17.176 29.29 17.751 29.29H30.251C30.826 29.29 31.291 28.825 31.291 28.25V15.75C31.291 15.175 30.826 14.71 30.251 14.71H17.751Z" fill="white"/>
<path d="M21.0859 27.2099C20.7409 27.2099 20.4609 26.9299 20.4609 26.5849V17.4199C20.4609 17.0749 20.7409 16.7949 21.0859 16.7949H24.416C26.141 16.7949 27.541 18.1949 27.541 19.9199C27.541 21.6449 26.141 23.0449 24.416 23.0449H21.7109V26.5849C21.7109 26.9299 21.4309 27.2099 21.0859 27.2099ZM21.7109 21.7899H24.416C25.451 21.7899 26.291 20.9499 26.291 19.9149C26.291 18.8799 25.451 18.0399 24.416 18.0399H21.7109V21.7899Z" fill="white"/>
</g>
<defs>
<filter id="filter0_d_8318_9215" x="0" y="0" width="76" height="48" filterUnits="userSpaceOnUse" color-interpolation-filters="sRGB">
<feFlood flood-opacity="0" result="BackgroundImageFix"/>
<feColorMatrix in="SourceAlpha" type="matrix" values="0 0 0 0 0 0 0 0 0 0 0 0 0 0 0 0 0 0 127 0" result="hardAlpha"/>
<feOffset dy="2"/>
<feGaussianBlur stdDeviation="4"/>
<feColorMatrix type="matrix" values="0 0 0 0 0 0 0 0 0 0 0 0 0 0 0 0 0 0 0.16 0"/>
<feBlend mode="normal" in2="BackgroundImageFix" result="effect1_dropShadow_8318_9215"/>
<feBlend mode="normal" in="SourceGraphic" in2="effect1_dropShadow_8318_9215" result="shape"/>
</filter>
</defs>
</svg>
