<svg width="60" height="65" viewBox="0 0 60 65" fill="none" xmlns="http://www.w3.org/2000/svg">
<g filter="url(#filter0_d_805_7428)">
<mask id="path-1-inside-1_805_7428" fill="white">
<path fill-rule="evenodd" clip-rule="evenodd" d="M16 6C11.5817 6 8 9.58172 8 14V27.7577V42C8 46.4183 11.5817 50 16 50H19.0486C22.0393 50 24.9778 51.0638 27.0226 53.2462C27.2503 53.4893 27.4744 53.7343 27.6944 53.9815C28.879 55.312 31.1727 55.3473 32.384 54.0382C32.6457 53.7553 32.9126 53.4746 33.184 53.1957C35.2608 51.0621 38.1772 50 41.1547 50H44C48.4183 50 52 46.4183 52 42V27.7577V14C52 9.58172 48.4183 6 44 6H16Z"/>
</mask>
<path fill-rule="evenodd" clip-rule="evenodd" d="M16 6C11.5817 6 8 9.58172 8 14V27.7577V42C8 46.4183 11.5817 50 16 50H19.0486C22.0393 50 24.9778 51.0638 27.0226 53.2462C27.2503 53.4893 27.4744 53.7343 27.6944 53.9815C28.879 55.312 31.1727 55.3473 32.384 54.0382C32.6457 53.7553 32.9126 53.4746 33.184 53.1957C35.2608 51.0621 38.1772 50 41.1547 50H44C48.4183 50 52 46.4183 52 42V27.7577V14C52 9.58172 48.4183 6 44 6H16Z" fill="#334DCE"/>
<path d="M27.6944 53.9815L26.2005 55.3112L26.2006 55.3114L27.6944 53.9815ZM32.384 54.0382L33.852 55.3965L33.8521 55.3964L32.384 54.0382ZM27.0226 53.2462L25.5631 54.6137L27.0226 53.2462ZM10 14C10 10.6863 12.6863 8 16 8V4C10.4772 4 6 8.47715 6 14H10ZM10 27.7577V14H6V27.7577H10ZM10 42V27.7577H6V42H10ZM16 48C12.6863 48 10 45.3137 10 42H6C6 47.5228 10.4772 52 16 52V48ZM19.0486 48H16V52H19.0486V48ZM25.5631 54.6137C25.7799 54.8451 25.9925 55.0776 26.2005 55.3112L29.1883 52.6517C28.9563 52.3911 28.7207 52.1335 28.4821 51.8788L25.5631 54.6137ZM26.2006 55.3114C28.1611 57.5134 31.8291 57.5827 33.852 55.3965L30.916 52.6799C30.5164 53.1118 29.597 53.1107 29.1882 52.6516L26.2006 55.3114ZM33.8521 55.3964C34.1015 55.1269 34.3567 54.8584 34.6172 54.5907L31.7509 51.8008C31.4686 52.0907 31.19 52.3837 30.9159 52.68L33.8521 55.3964ZM44 48H41.1547V52H44V48ZM50 42C50 45.3137 47.3137 48 44 48V52C49.5228 52 54 47.5228 54 42H50ZM50 27.7577V42H54V27.7577H50ZM50 14V27.7577H54V14H50ZM44 8C47.3137 8 50 10.6863 50 14H54C54 8.47715 49.5228 4 44 4V8ZM16 8H44V4H16V8ZM34.6172 54.5907C36.2654 52.8974 38.6375 52 41.1547 52V48C37.717 48 34.2562 49.2268 31.7509 51.8008L34.6172 54.5907ZM19.0486 52C21.5852 52 23.9591 52.9017 25.5631 54.6137L28.4821 51.8788C25.9964 49.2258 22.4933 48 19.0486 48V52Z" fill="#37424A" mask="url(#path-1-inside-1_805_7428)"/>
<path fill-rule="evenodd" clip-rule="evenodd" d="M17.3999 22.7504C17.3999 21.5906 18.3401 20.6504 19.4999 20.6504H36.9999C40.4793 20.6504 43.2999 23.471 43.2999 26.9504V32.5504C43.2999 33.7102 42.3597 34.6504 41.1999 34.6504C41.1999 32.3308 39.3195 30.4504 36.9999 30.4504C34.6803 30.4504 32.7999 32.3308 32.7999 34.6504H27.8999C27.8999 32.3308 26.0195 30.4504 23.6999 30.4504C21.3803 30.4504 19.4999 32.3308 19.4999 34.6504C18.3401 34.6504 17.3999 33.7102 17.3999 32.5504V22.7504ZM19.4999 23.4504C19.4999 23.0638 19.8133 22.7504 20.1999 22.7504H22.297C22.6836 22.7504 22.997 23.0638 22.997 23.4504V26.9504C22.997 27.337 22.6836 27.6504 22.297 27.6504H20.1999C19.8499 27.6504 19.4999 27.3004 19.4999 26.9504V23.4504ZM25.1075 22.7504C24.7209 22.7504 24.4075 23.0638 24.4075 23.4504L24.3999 26.9504C24.3999 27.3004 24.7499 27.6504 25.0999 27.6504H27.9075C28.2941 27.6504 28.6075 27.337 28.6075 26.9504V23.4504C28.6075 23.0638 28.2941 22.7504 27.9075 22.7504H25.1075ZM30.018 23.4504C30.018 23.0638 30.3314 22.7504 30.718 22.7504H33.518C33.9046 22.7504 34.218 23.0638 34.218 23.4504V26.9504C34.218 27.337 33.9046 27.6504 33.518 27.6504H31.418C30.6448 27.6504 29.9999 27.7236 29.9999 26.9504L30.018 23.4504ZM36.3285 22.7504C35.9419 22.7504 35.6285 23.0638 35.6285 23.4504V26.9504C35.6285 27.337 35.9419 27.6504 36.3285 27.6504H40.5285C40.9151 27.6504 41.2285 27.337 41.2285 26.9504C41.2285 24.6308 39.3481 22.7504 37.0285 22.7504H36.3285Z" fill="white"/>
<path d="M26.4999 34.6504C26.4999 36.1968 25.2463 37.4504 23.6999 37.4504C22.1535 37.4504 20.8999 36.1968 20.8999 34.6504C20.8999 33.104 22.1535 31.8504 23.6999 31.8504C25.2463 31.8504 26.4999 33.104 26.4999 34.6504Z" fill="white"/>
<path d="M39.7999 34.6504C39.7999 36.1968 38.5463 37.4504 36.9999 37.4504C35.4535 37.4504 34.1999 36.1968 34.1999 34.6504C34.1999 33.104 35.4535 31.8504 36.9999 31.8504C38.5463 31.8504 39.7999 33.104 39.7999 34.6504Z" fill="white"/>
</g>
<defs>
<filter id="filter0_d_805_7428" x="0" y="0" width="60" height="65" filterUnits="userSpaceOnUse" color-interpolation-filters="sRGB">
<feFlood flood-opacity="0" result="BackgroundImageFix"/>
<feColorMatrix in="SourceAlpha" type="matrix" values="0 0 0 0 0 0 0 0 0 0 0 0 0 0 0 0 0 0 127 0" result="hardAlpha"/>
<feOffset dy="2"/>
<feGaussianBlur stdDeviation="4"/>
<feColorMatrix type="matrix" values="0 0 0 0 0 0 0 0 0 0 0 0 0 0 0 0 0 0 0.16 0"/>
<feBlend mode="normal" in2="BackgroundImageFix" result="effect1_dropShadow_805_7428"/>
<feBlend mode="normal" in="SourceGraphic" in2="effect1_dropShadow_805_7428" result="shape"/>
</filter>
</defs>
</svg>
