<svg width="76" height="44" viewBox="0 0 76 44" fill="none" xmlns="http://www.w3.org/2000/svg">
<g filter="url(#filter0_d_805_7468)">
<g clip-path="url(#clip0_805_7468)">
<rect x="8" y="6" width="28" height="28" rx="4" fill="#334DCE"/>
<path fill-rule="evenodd" clip-rule="evenodd" d="M13 16.25C13 15.4216 13.6716 14.75 14.5 14.75H27C29.4853 14.75 31.5 16.7647 31.5 19.25V23.25C31.5 24.0784 30.8284 24.75 30 24.75C30 23.0931 28.6569 21.75 27 21.75C25.3431 21.75 24 23.0931 24 24.75H20.5C20.5 23.0931 19.1569 21.75 17.5 21.75C15.8431 21.75 14.5 23.0931 14.5 24.75C13.6716 24.75 13 24.0784 13 23.25V16.25ZM14.5 16.75C14.5 16.4739 14.7239 16.25 15 16.25H16.4979C16.774 16.25 16.9979 16.4739 16.9979 16.75V19.25C16.9979 19.5261 16.774 19.75 16.4979 19.75H15C14.75 19.75 14.5 19.5 14.5 19.25V16.75ZM18.5054 16.25C18.2293 16.25 18.0054 16.4739 18.0054 16.75L18 19.25C18 19.5 18.25 19.75 18.5 19.75H20.5054C20.7816 19.75 21.0054 19.5261 21.0054 19.25V16.75C21.0054 16.4739 20.7816 16.25 20.5054 16.25H18.5054ZM22.0129 16.75C22.0129 16.4739 22.2368 16.25 22.5129 16.25H24.5129C24.7891 16.25 25.0129 16.4739 25.0129 16.75V19.25C25.0129 19.5261 24.7891 19.75 24.5129 19.75H23.0129C22.4607 19.75 22 19.8023 22 19.25L22.0129 16.75ZM26.5204 16.25C26.2443 16.25 26.0204 16.4739 26.0204 16.75V19.25C26.0204 19.5261 26.2443 19.75 26.5204 19.75H29.5204C29.7966 19.75 30.0204 19.5261 30.0204 19.25C30.0204 17.5931 28.6773 16.25 27.0204 16.25H26.5204Z" fill="white"/>
<path d="M19.5 24.75C19.5 25.8546 18.6046 26.75 17.5 26.75C16.3954 26.75 15.5 25.8546 15.5 24.75C15.5 23.6454 16.3954 22.75 17.5 22.75C18.6046 22.75 19.5 23.6454 19.5 24.75Z" fill="white"/>
<path d="M29 24.75C29 25.8546 28.1046 26.75 27 26.75C25.8954 26.75 25 25.8546 25 24.75C25 23.6454 25.8954 22.75 27 22.75C28.1046 22.75 29 23.6454 29 24.75Z" fill="white"/>
</g>
<rect x="9" y="7" width="26" height="26" rx="3" stroke="#37424A" stroke-width="2"/>
<g clip-path="url(#clip1_805_7468)">
<rect x="40" y="6" width="28" height="28" rx="4" fill="#334DCE"/>
<path fill-rule="evenodd" clip-rule="evenodd" d="M45 17.375C45 16.5466 45.6716 15.875 46.5 15.875H59C61.4853 15.875 63.5 17.8897 63.5 20.375V23.375C63.5 24.2034 62.8318 24.875 62.0034 24.875C57.1152 24.875 47.845 24.875 46.5 24.875C45.6716 24.875 45 24.2034 45 23.375V17.375ZM46.5 17.875C46.5 17.5989 46.7239 17.375 47 17.375H48.4979C48.774 17.375 48.9979 17.5989 48.9979 17.875V20.375C48.9979 20.6511 48.774 20.875 48.4979 20.875H47C46.75 20.875 46.5 20.625 46.5 20.375V17.875ZM50.5054 17.375C50.2293 17.375 50.0054 17.5989 50.0054 17.875L50 20.375C50 20.625 50.25 20.875 50.5 20.875H52.5054C52.7816 20.875 53.0054 20.6511 53.0054 20.375V17.875C53.0054 17.5989 52.7816 17.375 52.5054 17.375H50.5054ZM54.0129 17.875C54.0129 17.5989 54.2368 17.375 54.5129 17.375H56.5129C56.7891 17.375 57.0129 17.5989 57.0129 17.875V20.375C57.0129 20.6511 56.7891 20.875 56.5129 20.875H55.0129C54.4607 20.875 54 20.9273 54 20.375L54.0129 17.875ZM58.5204 17.375C58.2443 17.375 58.0204 17.5989 58.0204 17.875V20.375C58.0204 20.6511 58.2443 20.875 58.5204 20.875H61.5204C61.7966 20.875 62.0204 20.6511 62.0204 20.375C62.0204 18.7181 60.6773 17.375 59.0204 17.375H58.5204Z" fill="white"/>
<path fill-rule="evenodd" clip-rule="evenodd" d="M45.375 26.375C45.375 26.0298 45.6548 25.75 46 25.75L62.5 25.75C62.8452 25.75 63.125 26.0298 63.125 26.375C63.125 26.7202 62.8452 27 62.5 27L46 27C45.6548 27 45.375 26.7202 45.375 26.375Z" fill="white"/>
<path fill-rule="evenodd" clip-rule="evenodd" d="M51.375 13.875C51.375 13.5298 51.6548 13.25 52 13.25H56C56.2468 13.25 56.4705 13.3953 56.5709 13.6207C56.6714 13.8462 56.6297 14.1096 56.4646 14.2931L54.2146 16.7931C53.9836 17.0497 53.5885 17.0705 53.3319 16.8396C53.0753 16.6086 53.0545 16.2135 53.2854 15.9569L54.5966 14.5H52C51.6548 14.5 51.375 14.2202 51.375 13.875Z" fill="white"/>
</g>
<rect x="41" y="7" width="26" height="26" rx="3" stroke="#37424A" stroke-width="2"/>
</g>
<defs>
<filter id="filter0_d_805_7468" x="0" y="0" width="76" height="44" filterUnits="userSpaceOnUse" color-interpolation-filters="sRGB">
<feFlood flood-opacity="0" result="BackgroundImageFix"/>
<feColorMatrix in="SourceAlpha" type="matrix" values="0 0 0 0 0 0 0 0 0 0 0 0 0 0 0 0 0 0 127 0" result="hardAlpha"/>
<feOffset dy="2"/>
<feGaussianBlur stdDeviation="4"/>
<feColorMatrix type="matrix" values="0 0 0 0 0 0 0 0 0 0 0 0 0 0 0 0 0 0 0.16 0"/>
<feBlend mode="normal" in2="BackgroundImageFix" result="effect1_dropShadow_805_7468"/>
<feBlend mode="normal" in="SourceGraphic" in2="effect1_dropShadow_805_7468" result="shape"/>
</filter>
<clipPath id="clip0_805_7468">
<rect x="8" y="6" width="28" height="28" rx="4" fill="white"/>
</clipPath>
<clipPath id="clip1_805_7468">
<rect x="40" y="6" width="28" height="28" rx="4" fill="white"/>
</clipPath>
</defs>
</svg>
