<svg width="60" height="65" viewBox="0 0 60 65" fill="none" xmlns="http://www.w3.org/2000/svg">
<g filter="url(#filter0_d_805_7453)">
<mask id="path-1-inside-1_805_7453" fill="white">
<path fill-rule="evenodd" clip-rule="evenodd" d="M16 6C11.5817 6 8 9.58172 8 14V27.7577V42C8 46.4183 11.5817 50 16 50H19.0486C22.0393 50 24.9778 51.0638 27.0226 53.2462C27.2503 53.4893 27.4744 53.7343 27.6944 53.9815C28.879 55.312 31.1727 55.3473 32.384 54.0382C32.6457 53.7553 32.9126 53.4746 33.184 53.1957C35.2608 51.0621 38.1772 50 41.1547 50H44C48.4183 50 52 46.4183 52 42V27.7577V14C52 9.58172 48.4183 6 44 6H16Z"/>
</mask>
<path fill-rule="evenodd" clip-rule="evenodd" d="M16 6C11.5817 6 8 9.58172 8 14V27.7577V42C8 46.4183 11.5817 50 16 50H19.0486C22.0393 50 24.9778 51.0638 27.0226 53.2462C27.2503 53.4893 27.4744 53.7343 27.6944 53.9815C28.879 55.312 31.1727 55.3473 32.384 54.0382C32.6457 53.7553 32.9126 53.4746 33.184 53.1957C35.2608 51.0621 38.1772 50 41.1547 50H44C48.4183 50 52 46.4183 52 42V27.7577V14C52 9.58172 48.4183 6 44 6H16Z" fill="#418083"/>
<path d="M27.6944 53.9815L26.2005 55.3112L26.2006 55.3114L27.6944 53.9815ZM32.384 54.0382L33.852 55.3965L33.8521 55.3964L32.384 54.0382ZM27.0226 53.2462L25.5631 54.6137L27.0226 53.2462ZM10 14C10 10.6863 12.6863 8 16 8V4C10.4772 4 6 8.47715 6 14H10ZM10 27.7577V14H6V27.7577H10ZM10 42V27.7577H6V42H10ZM16 48C12.6863 48 10 45.3137 10 42H6C6 47.5228 10.4772 52 16 52V48ZM19.0486 48H16V52H19.0486V48ZM25.5631 54.6137C25.7799 54.8451 25.9925 55.0776 26.2005 55.3112L29.1883 52.6517C28.9563 52.3911 28.7207 52.1335 28.4821 51.8788L25.5631 54.6137ZM26.2006 55.3114C28.1611 57.5134 31.8291 57.5827 33.852 55.3965L30.916 52.6799C30.5164 53.1118 29.597 53.1107 29.1882 52.6516L26.2006 55.3114ZM33.8521 55.3964C34.1015 55.1269 34.3567 54.8584 34.6172 54.5907L31.7509 51.8008C31.4686 52.0907 31.19 52.3837 30.9159 52.68L33.8521 55.3964ZM44 48H41.1547V52H44V48ZM50 42C50 45.3137 47.3137 48 44 48V52C49.5228 52 54 47.5228 54 42H50ZM50 27.7577V42H54V27.7577H50ZM50 14V27.7577H54V14H50ZM44 8C47.3137 8 50 10.6863 50 14H54C54 8.47715 49.5228 4 44 4V8ZM16 8H44V4H16V8ZM34.6172 54.5907C36.2654 52.8974 38.6375 52 41.1547 52V48C37.717 48 34.2562 49.2268 31.7509 51.8008L34.6172 54.5907ZM19.0486 52C21.5852 52 23.9591 52.9017 25.5631 54.6137L28.4821 51.8788C25.9964 49.2258 22.4933 48 19.0486 48V52Z" fill="#37424A" mask="url(#path-1-inside-1_805_7453)"/>
<path fill-rule="evenodd" clip-rule="evenodd" d="M29.1715 21.566C29.6965 21.335 30.2987 21.335 30.8237 21.566L38.2157 24.835C39.7977 25.535 40.5395 27.348 39.9025 28.951L39.4756 30.036C39.4756 30.036 39.4337 30.036 39.4127 30.036H36.6965C36.2135 30.036 35.8215 30.428 35.8215 30.911C35.8215 31.394 36.2135 31.786 36.6965 31.786H38.7824L37.7044 34.502C37.4874 34.453 37.2564 34.425 37.0184 34.418C35.4994 34.355 34.3305 35.055 33.4555 35.965C32.8955 35.51 31.7124 34.607 30.1794 34.495C28.6534 34.39 27.4354 35.041 26.5184 35.965L26.4696 35.93C25.9236 35.524 24.6775 34.614 23.1025 34.516C22.8295 34.502 22.5636 34.509 22.3116 34.537L21.2196 31.786H23.2915C23.7745 31.786 24.1665 31.394 24.1665 30.911C24.1665 30.428 23.7745 30.036 23.2915 30.036H20.5267L20.0995 28.951C19.4625 27.348 20.2046 25.528 21.7866 24.835L29.1715 21.566Z" fill="white"/>
<path fill-rule="evenodd" clip-rule="evenodd" d="M22.2274 20.6772C22.3884 18.8712 23.9004 17.4922 25.7134 17.4922H34.2816C36.0946 17.4922 37.6066 18.8712 37.7676 20.6772L38.1596 24.9752C38.2156 25.6192 37.7464 26.1862 37.1024 26.2422C36.4584 26.2982 35.8914 25.8292 35.8354 25.1852L35.4434 20.8872C35.3874 20.2852 34.8836 19.8232 34.2816 19.8232H25.7134C25.1114 19.8232 24.6077 20.2852 24.5517 20.8872L24.1596 25.1852C24.1036 25.8292 23.5366 26.2982 22.8926 26.2422C22.2486 26.1862 21.7794 25.6192 21.8354 24.9752L22.2274 20.6772Z" fill="white"/>
<path fill-rule="evenodd" clip-rule="evenodd" d="M29.9971 15.1611C30.6411 15.1611 31.166 15.6861 31.166 16.3301V18.6611C31.166 19.3051 30.6411 19.8301 29.9971 19.8301C29.3531 19.8301 28.8281 19.3051 28.8281 18.6611V16.3301C28.8281 15.6861 29.3531 15.1611 29.9971 15.1611Z" fill="white"/>
<path fill-rule="evenodd" clip-rule="evenodd" d="M40.693 38.4851C40.693 38.4851 40.7562 38.436 40.8122 38.38C41.2532 37.911 41.9952 37.89 42.4642 38.331C42.9331 38.772 42.954 39.507 42.513 39.983C42.114 40.41 41.6241 40.725 41.0361 40.8161C40.4551 40.9001 39.944 40.739 39.552 40.536C39.167 40.34 38.8311 40.0671 38.5581 39.8291C38.4181 39.7101 38.236 39.542 38.068 39.3881C37.949 39.2831 37.8442 39.1851 37.7672 39.1151C37.2212 38.625 36.9621 38.513 36.8361 38.506C36.8361 38.506 36.7663 38.5061 36.6403 38.59C36.4863 38.6951 36.2551 38.9191 35.9611 39.3671H35.9539C35.6109 39.885 35.184 40.3191 34.638 40.5431C34.057 40.7881 33.4902 40.7391 33.0142 40.5781C32.5732 40.4311 32.1881 40.1721 31.8801 39.9481C31.6631 39.7871 31.4321 39.5911 31.2221 39.4231C31.1521 39.3601 31.0752 39.3041 31.0122 39.2481C30.4102 38.7581 30.0952 38.5901 29.8922 38.5761H29.885C29.885 38.5761 29.5419 38.541 28.9539 39.416C28.6389 39.906 28.219 40.3191 27.652 40.5221C27.078 40.7321 26.5321 40.655 26.0911 40.508C25.6711 40.361 25.293 40.1301 24.985 39.913C24.775 39.7731 24.5512 39.6051 24.3482 39.4511C24.2572 39.3811 24.166 39.311 24.082 39.255C23.459 38.8 23.102 38.6181 22.857 38.6041C22.787 38.6041 22.479 38.5831 21.968 39.3671H21.9611C21.4501 40.1371 20.6801 40.8161 19.6581 40.8161C18.6361 40.8161 17.8592 40.1371 17.3622 39.3671C17.0052 38.8281 17.1592 38.1071 17.6982 37.7501C18.2372 37.4001 18.9653 37.5471 19.3153 38.0931C19.4833 38.3521 19.6021 38.4431 19.6581 38.4711C19.7141 38.4431 19.8403 38.352 20.0153 38.0861C20.8063 36.882 21.7999 36.2031 23.0039 36.2731C24.0259 36.3361 24.901 36.9521 25.468 37.3721C25.594 37.4631 25.7061 37.5471 25.8111 37.6241C25.9861 37.7571 26.1473 37.8761 26.3153 37.9881C26.5743 38.163 26.7421 38.2611 26.8611 38.2961C26.8681 38.2961 26.875 38.2961 26.882 38.2961C26.91 38.2681 26.9521 38.2121 27.0081 38.1281C27.8271 36.8891 28.8282 36.1541 30.0532 36.2381C31.0962 36.3151 31.957 37.0011 32.482 37.4281C32.587 37.5121 32.6782 37.589 32.7622 37.659C32.9512 37.813 33.1121 37.9461 33.2801 38.0721C33.5181 38.2541 33.672 38.3311 33.763 38.3661C33.805 38.3311 33.8891 38.2541 34.0081 38.0791C34.7851 36.8961 35.7371 36.1121 36.9411 36.1681C37.9911 36.2171 38.817 36.9171 39.321 37.3651C39.482 37.5121 39.6012 37.6171 39.7062 37.7221C39.8252 37.8341 39.9371 37.9321 40.0911 38.0651C40.3221 38.2751 40.4972 38.3941 40.6232 38.4641C40.6582 38.4781 40.679 38.4921 40.693 38.4991V38.4851Z" fill="white"/>
</g>
<defs>
<filter id="filter0_d_805_7453" x="0" y="0" width="60" height="65" filterUnits="userSpaceOnUse" color-interpolation-filters="sRGB">
<feFlood flood-opacity="0" result="BackgroundImageFix"/>
<feColorMatrix in="SourceAlpha" type="matrix" values="0 0 0 0 0 0 0 0 0 0 0 0 0 0 0 0 0 0 127 0" result="hardAlpha"/>
<feOffset dy="2"/>
<feGaussianBlur stdDeviation="4"/>
<feColorMatrix type="matrix" values="0 0 0 0 0 0 0 0 0 0 0 0 0 0 0 0 0 0 0.16 0"/>
<feBlend mode="normal" in2="BackgroundImageFix" result="effect1_dropShadow_805_7453"/>
<feBlend mode="normal" in="SourceGraphic" in2="effect1_dropShadow_805_7453" result="shape"/>
</filter>
</defs>
</svg>
