<svg width="44" height="44" viewBox="0 0 44 44" fill="none" xmlns="http://www.w3.org/2000/svg">
<g filter="url(#filter0_d_805_7426)">
<g clip-path="url(#clip0_805_7426)">
<rect x="8" y="6" width="28" height="28" rx="4" fill="#C7CACC"/>
<path fill-rule="evenodd" clip-rule="evenodd" d="M21.6275 11.755C21.8621 11.6377 22.1382 11.6377 22.3728 11.755L30.7062 15.9216C30.9885 16.0628 31.1668 16.3514 31.1668 16.667V27.5003C31.1668 27.9606 30.7937 28.3337 30.3335 28.3337C29.8732 28.3337 29.5002 27.9606 29.5002 27.5003V17.182L22.0002 13.432L14.5002 17.182V27.5003C14.5002 27.9606 14.1271 28.3337 13.6668 28.3337C13.2066 28.3337 12.8335 27.9606 12.8335 27.5003V16.667C12.8335 16.3514 13.0118 16.0628 13.2942 15.9216L21.6275 11.755Z" fill="black"/>
<path fill-rule="evenodd" clip-rule="evenodd" d="M18.6668 25.0003C19.1271 25.0003 19.5002 25.3734 19.5002 25.8337V27.5003C19.5002 27.9606 19.1271 28.3337 18.6668 28.3337C18.2066 28.3337 17.8335 27.9606 17.8335 27.5003V25.8337C17.8335 25.3734 18.2066 25.0003 18.6668 25.0003ZM25.3335 25.0003C25.7937 25.0003 26.1668 25.3734 26.1668 25.8337V27.5003C26.1668 27.9606 25.7937 28.3337 25.3335 28.3337C24.8732 28.3337 24.5002 27.9606 24.5002 27.5003V25.8337C24.5002 25.3734 24.8732 25.0003 25.3335 25.0003Z" fill="black"/>
<path fill-rule="evenodd" clip-rule="evenodd" d="M20.385 19.167C20.0026 19.167 19.6693 19.4272 19.5765 19.7982L19.0588 21.8691C18.9472 22.3156 18.4947 22.5871 18.0482 22.4754C17.6018 22.3638 17.3303 21.9114 17.4419 21.4649L17.9596 19.394C18.2379 18.2811 19.2378 17.5003 20.385 17.5003H23.6157C24.7629 17.5003 25.7628 18.2811 26.0411 19.394L26.5588 21.4649C26.6704 21.9114 26.399 22.3638 25.9525 22.4754C25.506 22.5871 25.0535 22.3156 24.9419 21.8691L24.4242 19.7982C24.3314 19.4272 23.9982 19.167 23.6157 19.167H20.385Z" fill="black"/>
<path fill-rule="evenodd" clip-rule="evenodd" d="M18.6668 20.8337C17.2861 20.8337 16.1668 21.9529 16.1668 23.3337V24.167C16.1668 25.5477 17.2861 26.667 18.6668 26.667H25.3335C26.7142 26.667 27.8335 25.5477 27.8335 24.167V23.3337C27.8335 21.9529 26.7142 20.8337 25.3335 20.8337H18.6668ZM20.3335 23.7503C20.3335 23.2901 19.9604 22.917 19.5002 22.917C19.0399 22.917 18.6668 23.2901 18.6668 23.7503V23.7587C18.6668 24.2189 19.0399 24.592 19.5002 24.592C19.9604 24.592 20.3335 24.2189 20.3335 23.7587V23.7503ZM25.3335 23.7503C25.3335 23.2901 24.9604 22.917 24.5002 22.917C24.0399 22.917 23.6668 23.2901 23.6668 23.7503V23.7587C23.6668 24.2189 24.0399 24.592 24.5002 24.592C24.9604 24.592 25.3335 24.2189 25.3335 23.7587V23.7503Z" fill="black"/>
</g>
<rect x="9" y="7" width="26" height="26" rx="3" stroke="#37424A" stroke-width="2"/>
</g>
<defs>
<filter id="filter0_d_805_7426" x="0" y="0" width="44" height="44" filterUnits="userSpaceOnUse" color-interpolation-filters="sRGB">
<feFlood flood-opacity="0" result="BackgroundImageFix"/>
<feColorMatrix in="SourceAlpha" type="matrix" values="0 0 0 0 0 0 0 0 0 0 0 0 0 0 0 0 0 0 127 0" result="hardAlpha"/>
<feOffset dy="2"/>
<feGaussianBlur stdDeviation="4"/>
<feColorMatrix type="matrix" values="0 0 0 0 0 0 0 0 0 0 0 0 0 0 0 0 0 0 0.16 0"/>
<feBlend mode="normal" in2="BackgroundImageFix" result="effect1_dropShadow_805_7426"/>
<feBlend mode="normal" in="SourceGraphic" in2="effect1_dropShadow_805_7426" result="shape"/>
</filter>
<clipPath id="clip0_805_7426">
<rect x="8" y="6" width="28" height="28" rx="4" fill="white"/>
</clipPath>
</defs>
</svg>
