<svg width="44" height="44" viewBox="0 0 44 44" fill="none" xmlns="http://www.w3.org/2000/svg">
<g filter="url(#filter0_d_8318_9297)">
<g clip-path="url(#clip0_8318_9297)">
<rect x="8" y="6" width="28" height="28" rx="4" fill="#C7CACC"/>
<path fill-rule="evenodd" clip-rule="evenodd" d="M21.628 11.7547C21.8626 11.6374 22.1387 11.6374 22.3733 11.7547L30.7067 15.9213C30.989 16.0625 31.1673 16.351 31.1673 16.6667V27.5C31.1673 27.9603 30.7942 28.3334 30.334 28.3334C29.8737 28.3334 29.5007 27.9603 29.5007 27.5V17.1817L22.0007 13.4317L14.5007 17.1817V27.5C14.5007 27.9603 14.1276 28.3334 13.6673 28.3334C13.2071 28.3334 12.834 27.9603 12.834 27.5V16.6667C12.834 16.351 13.0123 16.0625 13.2946 15.9213L21.628 11.7547Z" fill="black"/>
<path fill-rule="evenodd" clip-rule="evenodd" d="M18.6673 25C19.1276 25 19.5007 25.3731 19.5007 25.8334V27.5C19.5007 27.9603 19.1276 28.3334 18.6673 28.3334C18.2071 28.3334 17.834 27.9603 17.834 27.5V25.8334C17.834 25.3731 18.2071 25 18.6673 25ZM25.334 25C25.7942 25 26.1673 25.3731 26.1673 25.8334V27.5C26.1673 27.9603 25.7942 28.3334 25.334 28.3334C24.8737 28.3334 24.5007 27.9603 24.5007 27.5V25.8334C24.5007 25.3731 24.8737 25 25.334 25Z" fill="black"/>
<path fill-rule="evenodd" clip-rule="evenodd" d="M20.3855 19.1667C20.0031 19.1667 19.6698 19.4269 19.577 19.7979L19.0593 21.8688C18.9477 22.3153 18.4952 22.5868 18.0487 22.4751C17.6022 22.3635 17.3308 21.9111 17.4424 21.4646L17.9601 19.3937C18.2384 18.2808 19.2383 17.5 20.3855 17.5H23.6162C24.7634 17.5 25.7633 18.2808 26.0416 19.3937L26.5593 21.4646C26.6709 21.9111 26.3995 22.3635 25.953 22.4751C25.5065 22.5868 25.054 22.3153 24.9424 21.8688L24.4247 19.7979C24.3319 19.4269 23.9987 19.1667 23.6162 19.1667H20.3855Z" fill="black"/>
<path fill-rule="evenodd" clip-rule="evenodd" d="M18.6673 20.8334C17.2866 20.8334 16.1673 21.9526 16.1673 23.3334V24.1667C16.1673 25.5474 17.2866 26.6667 18.6673 26.6667H25.334C26.7147 26.6667 27.834 25.5474 27.834 24.1667V23.3334C27.834 21.9526 26.7147 20.8334 25.334 20.8334H18.6673ZM20.334 23.75C20.334 23.2898 19.9609 22.9167 19.5007 22.9167C19.0404 22.9167 18.6673 23.2898 18.6673 23.75V23.7584C18.6673 24.2186 19.0404 24.5917 19.5007 24.5917C19.9609 24.5917 20.334 24.2186 20.334 23.7584V23.75ZM25.334 23.75C25.334 23.2898 24.9609 22.9167 24.5007 22.9167C24.0404 22.9167 23.6673 23.2898 23.6673 23.75V23.7584C23.6673 24.2186 24.0404 24.5917 24.5007 24.5917C24.9609 24.5917 25.334 24.2186 25.334 23.7584V23.75Z" fill="black"/>
</g>
<rect x="9" y="7" width="26" height="26" rx="3" stroke="black" stroke-width="2"/>
</g>
<defs>
<filter id="filter0_d_8318_9297" x="0" y="0" width="44" height="44" filterUnits="userSpaceOnUse" color-interpolation-filters="sRGB">
<feFlood flood-opacity="0" result="BackgroundImageFix"/>
<feColorMatrix in="SourceAlpha" type="matrix" values="0 0 0 0 0 0 0 0 0 0 0 0 0 0 0 0 0 0 127 0" result="hardAlpha"/>
<feOffset dy="2"/>
<feGaussianBlur stdDeviation="4"/>
<feColorMatrix type="matrix" values="0 0 0 0 0 0 0 0 0 0 0 0 0 0 0 0 0 0 0.16 0"/>
<feBlend mode="normal" in2="BackgroundImageFix" result="effect1_dropShadow_8318_9297"/>
<feBlend mode="normal" in="SourceGraphic" in2="effect1_dropShadow_8318_9297" result="shape"/>
</filter>
<clipPath id="clip0_8318_9297">
<rect x="8" y="6" width="28" height="28" rx="4" fill="white"/>
</clipPath>
</defs>
</svg>
