<svg width="44" height="44" viewBox="0 0 44 44" fill="none" xmlns="http://www.w3.org/2000/svg">
<g filter="url(#filter0_d_8318_9291)">
<g clip-path="url(#clip0_8318_9291)">
<rect x="8" y="8" width="28" height="28" rx="4" fill="#418083"/>
<g clip-path="url(#clip1_8318_9291)">
<path d="M29.6385 29.4918C29.6385 29.4918 29.6837 29.4568 29.7237 29.4168C30.0387 29.0818 30.5686 29.0668 30.9036 29.3818C31.2386 29.6968 31.2535 30.2218 30.9385 30.5618C30.6535 30.8668 30.3036 31.0918 29.8836 31.1568C29.4686 31.2168 29.1035 31.1018 28.8235 30.9568C28.5485 30.8168 28.3086 30.6218 28.1136 30.4518C28.0136 30.3668 27.8835 30.2468 27.7635 30.1368C27.6785 30.0618 27.6036 29.9918 27.5486 29.9418C27.1586 29.5918 26.9736 29.5118 26.8836 29.5068C26.8836 29.5068 26.8337 29.5068 26.7437 29.5668C26.6337 29.6418 26.4686 29.8018 26.2586 30.1218H26.2534C26.0084 30.4918 25.7035 30.8018 25.3135 30.9618C24.8985 31.1368 24.4936 31.1018 24.1536 30.9868C23.8386 30.8818 23.5635 30.6968 23.3435 30.5368C23.1885 30.4218 23.0236 30.2818 22.8736 30.1618C22.8236 30.1168 22.7687 30.0768 22.7237 30.0368C22.2937 29.6868 22.0686 29.5668 21.9236 29.5568H21.9185C21.9185 29.5568 21.6734 29.5318 21.2534 30.1568C21.0284 30.5068 20.7285 30.8018 20.3235 30.9468C19.9135 31.0968 19.5235 31.0418 19.2085 30.9368C18.9085 30.8318 18.6385 30.6668 18.4185 30.5118C18.2685 30.4118 18.1087 30.2918 17.9637 30.1818C17.8987 30.1318 17.8335 30.0818 17.7735 30.0368C17.3285 29.7118 17.0735 29.5818 16.8985 29.5718C16.8485 29.5718 16.6285 29.5568 16.2635 30.1168H16.2586C15.8936 30.6668 15.3436 31.1518 14.6136 31.1518C13.8836 31.1518 13.3287 30.6668 12.9737 30.1168C12.7187 29.7318 12.8287 29.2168 13.2137 28.9618C13.5987 28.7118 14.1187 28.8168 14.3687 29.2068C14.4887 29.3918 14.5736 29.4568 14.6136 29.4768C14.6536 29.4568 14.7437 29.3918 14.8687 29.2018C15.4337 28.3418 16.1434 27.8568 17.0034 27.9068C17.7334 27.9518 18.3585 28.3918 18.7635 28.6918C18.8535 28.7568 18.9336 28.8168 19.0086 28.8718C19.1336 28.9668 19.2487 29.0518 19.3687 29.1318C19.5537 29.2568 19.6736 29.3268 19.7586 29.3518H19.7735C19.7735 29.3518 19.8236 29.2968 19.8636 29.2368C20.4486 28.3518 21.1636 27.8268 22.0386 27.8868C22.7836 27.9418 23.3985 28.4318 23.7735 28.7368C23.8485 28.7968 23.9137 28.8518 23.9737 28.9018C24.1087 29.0118 24.2235 29.1068 24.3435 29.1968C24.5135 29.3268 24.6235 29.3818 24.6885 29.4068C24.7185 29.3818 24.7786 29.3268 24.8636 29.2018C25.4186 28.3568 26.0985 27.7968 26.9585 27.8368C27.7085 27.8718 28.2985 28.3718 28.6585 28.6918C28.7735 28.7968 28.8586 28.8718 28.9336 28.9468C29.0186 29.0268 29.0985 29.0968 29.2085 29.1918C29.3735 29.3418 29.4987 29.4268 29.5887 29.4768C29.6137 29.4868 29.6285 29.4968 29.6385 29.5018V29.4918Z" fill="white"/>
<path fill-rule="evenodd" clip-rule="evenodd" d="M16.1636 17.8318C16.1636 16.9118 16.9135 16.1668 17.8335 16.1668H22.1335C23.0785 16.1668 23.9785 16.5668 24.6135 17.2718L27.6187 20.6118C27.9237 20.9518 27.8985 21.4818 27.5535 21.7868C27.2135 22.0968 26.6884 22.0668 26.3784 21.7268L23.3735 18.3868C23.0585 18.0368 22.6085 17.8368 22.1335 17.8368H17.8335V21.1718C17.8335 21.6318 17.4585 22.0068 16.9985 22.0068C16.5385 22.0068 16.1636 21.6318 16.1636 21.1718V17.8318Z" fill="white"/>
<path fill-rule="evenodd" clip-rule="evenodd" d="M16.9985 13.662C16.9985 13.202 17.3735 12.827 17.8335 12.827H19.4985C20.4185 12.827 21.1636 13.572 21.1636 14.492V16.992C21.1636 17.452 20.7935 17.827 20.3335 17.827C19.8735 17.827 19.4985 17.452 19.4985 16.992V14.492H17.8335C17.3735 14.492 16.9985 14.117 16.9985 13.657V13.662Z" fill="white"/>
<path d="M13.6637 20.537C13.4737 20.537 13.2937 20.622 13.1737 20.772C13.0587 20.922 13.0137 21.117 13.0587 21.302L14.5436 27.627C15.1986 27.002 16.0386 26.592 17.0736 26.652C18.1986 26.722 19.1185 27.397 19.5135 27.682C20.1685 27.022 21.0335 26.557 22.1285 26.632C23.2235 26.707 24.0686 27.357 24.4686 27.682C25.0936 27.032 25.9285 26.527 27.0135 26.577C28.1085 26.627 28.9336 27.262 29.3436 27.617C29.3786 27.577 29.4086 27.532 29.4386 27.492C29.9736 26.732 30.3085 25.757 30.5236 24.842C30.7435 23.917 30.8487 22.997 30.9037 22.312C30.9287 21.967 30.9436 21.682 30.9486 21.482C30.9536 21.382 30.9536 21.222 30.9586 21.162C30.9586 20.812 30.6786 20.532 30.3336 20.532H13.6637V20.537Z" fill="white"/>
</g>
</g>
<rect x="9" y="9" width="26" height="26" rx="3" stroke="black" stroke-width="2"/>
</g>
<defs>
<filter id="filter0_d_8318_9291" x="0" y="0" width="44" height="44" filterUnits="userSpaceOnUse" color-interpolation-filters="sRGB">
<feFlood flood-opacity="0" result="BackgroundImageFix"/>
<feColorMatrix in="SourceAlpha" type="matrix" values="0 0 0 0 0 0 0 0 0 0 0 0 0 0 0 0 0 0 127 0" result="hardAlpha"/>
<feOffset/>
<feGaussianBlur stdDeviation="4"/>
<feColorMatrix type="matrix" values="0 0 0 0 0 0 0 0 0 0 0 0 0 0 0 0 0 0 0.23 0"/>
<feBlend mode="normal" in2="BackgroundImageFix" result="effect1_dropShadow_8318_9291"/>
<feBlend mode="normal" in="SourceGraphic" in2="effect1_dropShadow_8318_9291" result="shape"/>
</filter>
<clipPath id="clip0_8318_9291">
<rect x="8" y="8" width="28" height="28" rx="4" fill="white"/>
</clipPath>
<clipPath id="clip1_8318_9291">
<rect width="20" height="20" fill="white" transform="translate(12 12)"/>
</clipPath>
</defs>
</svg>
