<svg width="44" height="44" viewBox="0 0 44 44" fill="none" xmlns="http://www.w3.org/2000/svg">
<g filter="url(#filter0_d_8318_9289)">
<g clip-path="url(#clip0_8318_9289)">
<rect x="8" y="8" width="28" height="28" rx="4" fill="#BD3685"/>
<path fill-rule="evenodd" clip-rule="evenodd" d="M12.8359 14.5C12.8359 14.04 13.206 13.665 13.666 13.665H19.781C21.401 13.665 22.981 14.19 24.281 15.165L29.166 18.83C30.426 19.775 31.166 21.255 31.166 22.83C31.166 24.21 30.051 25.33 28.666 25.33H13.666C13.206 25.33 12.8359 24.955 12.8359 24.495V22.62H18.6709C19.0159 22.62 19.2959 22.34 19.2959 21.995C19.2959 19.81 17.5209 18.035 15.3359 18.035H12.8359V14.495V14.5ZM12.8359 19.29V21.375H17.9709C17.6909 20.18 16.6159 19.29 15.3359 19.29H12.8359ZM28.166 20.165C28.321 20.28 28.4609 20.405 28.5859 20.54H26.166C24.211 20.54 22.626 18.955 22.626 17V16.075C22.851 16.2 23.071 16.345 23.281 16.5L28.166 20.165Z" fill="white"/>
<path fill-rule="evenodd" clip-rule="evenodd" d="M12.8359 27.835C12.8359 27.375 13.206 27 13.666 27H30.3359C30.7959 27 31.166 27.375 31.166 27.835C31.166 28.295 30.7959 28.67 30.3359 28.67H13.666C13.206 28.67 12.8359 28.295 12.8359 27.835Z" fill="white"/>
<path fill-rule="evenodd" clip-rule="evenodd" d="M17.001 27C17.461 27 17.8359 27.375 17.8359 27.835V29.5C17.8359 29.96 17.461 30.335 17.001 30.335C16.541 30.335 16.166 29.96 16.166 29.5V27.835C16.166 27.375 16.541 27 17.001 27ZM22.001 27C22.461 27 22.8359 27.375 22.8359 27.835V29.5C22.8359 29.96 22.461 30.335 22.001 30.335C21.541 30.335 21.166 29.96 21.166 29.5V27.835C21.166 27.375 21.541 27 22.001 27ZM27.001 27C27.461 27 27.8359 27.375 27.8359 27.835V29.5C27.8359 29.96 27.461 30.335 27.001 30.335C26.541 30.335 26.166 29.96 26.166 29.5V27.835C26.166 27.375 26.541 27 27.001 27Z" fill="white"/>
</g>
<rect x="9" y="9" width="26" height="26" rx="3" stroke="black" stroke-width="2"/>
</g>
<defs>
<filter id="filter0_d_8318_9289" x="0" y="0" width="44" height="44" filterUnits="userSpaceOnUse" color-interpolation-filters="sRGB">
<feFlood flood-opacity="0" result="BackgroundImageFix"/>
<feColorMatrix in="SourceAlpha" type="matrix" values="0 0 0 0 0 0 0 0 0 0 0 0 0 0 0 0 0 0 127 0" result="hardAlpha"/>
<feOffset/>
<feGaussianBlur stdDeviation="4"/>
<feColorMatrix type="matrix" values="0 0 0 0 0 0 0 0 0 0 0 0 0 0 0 0 0 0 0.23 0"/>
<feBlend mode="normal" in2="BackgroundImageFix" result="effect1_dropShadow_8318_9289"/>
<feBlend mode="normal" in="SourceGraphic" in2="effect1_dropShadow_8318_9289" result="shape"/>
</filter>
<clipPath id="clip0_8318_9289">
<rect x="8" y="8" width="28" height="28" rx="4" fill="white"/>
</clipPath>
</defs>
</svg>
