<svg width="44" height="44" viewBox="0 0 44 44" fill="none" xmlns="http://www.w3.org/2000/svg">
<g filter="url(#filter0_d_8318_9297)">
<g clip-path="url(#clip0_8318_9297)">
<rect x="8" y="8" width="28" height="28" rx="4" fill="#C7CACC"/>
<path fill-rule="evenodd" clip-rule="evenodd" d="M21.628 13.7547C21.8626 13.6374 22.1387 13.6374 22.3733 13.7547L30.7067 17.9213C30.989 18.0625 31.1673 18.351 31.1673 18.6667V29.5C31.1673 29.9603 30.7942 30.3334 30.334 30.3334C29.8737 30.3334 29.5007 29.9603 29.5007 29.5V19.1817L22.0007 15.4317L14.5007 19.1817V29.5C14.5007 29.9603 14.1276 30.3334 13.6673 30.3334C13.2071 30.3334 12.834 29.9603 12.834 29.5V18.6667C12.834 18.351 13.0123 18.0625 13.2946 17.9213L21.628 13.7547Z" fill="black"/>
<path fill-rule="evenodd" clip-rule="evenodd" d="M18.6673 27C19.1276 27 19.5007 27.3731 19.5007 27.8334V29.5C19.5007 29.9603 19.1276 30.3334 18.6673 30.3334C18.2071 30.3334 17.834 29.9603 17.834 29.5V27.8334C17.834 27.3731 18.2071 27 18.6673 27ZM25.334 27C25.7942 27 26.1673 27.3731 26.1673 27.8334V29.5C26.1673 29.9603 25.7942 30.3334 25.334 30.3334C24.8737 30.3334 24.5007 29.9603 24.5007 29.5V27.8334C24.5007 27.3731 24.8737 27 25.334 27Z" fill="black"/>
<path fill-rule="evenodd" clip-rule="evenodd" d="M20.3855 21.1667C20.0031 21.1667 19.6698 21.4269 19.577 21.7979L19.0593 23.8688C18.9477 24.3153 18.4952 24.5868 18.0487 24.4751C17.6022 24.3635 17.3308 23.9111 17.4424 23.4646L17.9601 21.3937C18.2384 20.2808 19.2383 19.5 20.3855 19.5H23.6162C24.7634 19.5 25.7633 20.2808 26.0416 21.3937L26.5593 23.4646C26.6709 23.9111 26.3995 24.3635 25.953 24.4751C25.5065 24.5868 25.054 24.3153 24.9424 23.8688L24.4247 21.7979C24.3319 21.4269 23.9987 21.1667 23.6162 21.1667H20.3855Z" fill="black"/>
<path fill-rule="evenodd" clip-rule="evenodd" d="M18.6673 22.8334C17.2866 22.8334 16.1673 23.9526 16.1673 25.3334V26.1667C16.1673 27.5474 17.2866 28.6667 18.6673 28.6667H25.334C26.7147 28.6667 27.834 27.5474 27.834 26.1667V25.3334C27.834 23.9526 26.7147 22.8334 25.334 22.8334H18.6673ZM20.334 25.75C20.334 25.2898 19.9609 24.9167 19.5007 24.9167C19.0404 24.9167 18.6673 25.2898 18.6673 25.75V25.7584C18.6673 26.2186 19.0404 26.5917 19.5007 26.5917C19.9609 26.5917 20.334 26.2186 20.334 25.7584V25.75ZM25.334 25.75C25.334 25.2898 24.9609 24.9167 24.5007 24.9167C24.0404 24.9167 23.6673 25.2898 23.6673 25.75V25.7584C23.6673 26.2186 24.0404 26.5917 24.5007 26.5917C24.9609 26.5917 25.334 26.2186 25.334 25.7584V25.75Z" fill="black"/>
</g>
<rect x="9" y="9" width="26" height="26" rx="3" stroke="black" stroke-width="2"/>
</g>
<defs>
<filter id="filter0_d_8318_9297" x="0" y="0" width="44" height="44" filterUnits="userSpaceOnUse" color-interpolation-filters="sRGB">
<feFlood flood-opacity="0" result="BackgroundImageFix"/>
<feColorMatrix in="SourceAlpha" type="matrix" values="0 0 0 0 0 0 0 0 0 0 0 0 0 0 0 0 0 0 127 0" result="hardAlpha"/>
<feOffset/>
<feGaussianBlur stdDeviation="4"/>
<feColorMatrix type="matrix" values="0 0 0 0 0 0 0 0 0 0 0 0 0 0 0 0 0 0 0.23 0"/>
<feBlend mode="normal" in2="BackgroundImageFix" result="effect1_dropShadow_8318_9297"/>
<feBlend mode="normal" in="SourceGraphic" in2="effect1_dropShadow_8318_9297" result="shape"/>
</filter>
<clipPath id="clip0_8318_9297">
<rect x="8" y="8" width="28" height="28" rx="4" fill="white"/>
</clipPath>
</defs>
</svg>
