<svg width="60" height="65" viewBox="0 0 60 65" fill="none" xmlns="http://www.w3.org/2000/svg">
<g filter="url(#filter0_d_805_7448)">
<mask id="path-1-inside-1_805_7448" fill="white">
<path fill-rule="evenodd" clip-rule="evenodd" d="M16 6C11.5817 6 8 9.58172 8 14V27.7577V42C8 46.4183 11.5817 50 16 50H19.0486C22.0393 50 24.9778 51.0638 27.0226 53.2462C27.2503 53.4893 27.4744 53.7343 27.6944 53.9815C28.879 55.312 31.1727 55.3473 32.384 54.0382C32.6457 53.7553 32.9126 53.4746 33.184 53.1957C35.2608 51.0621 38.1772 50 41.1547 50H44C48.4183 50 52 46.4183 52 42V27.7577V14C52 9.58172 48.4183 6 44 6H16Z"/>
</mask>
<path fill-rule="evenodd" clip-rule="evenodd" d="M16 6C11.5817 6 8 9.58172 8 14V27.7577V42C8 46.4183 11.5817 50 16 50H19.0486C22.0393 50 24.9778 51.0638 27.0226 53.2462C27.2503 53.4893 27.4744 53.7343 27.6944 53.9815C28.879 55.312 31.1727 55.3473 32.384 54.0382C32.6457 53.7553 32.9126 53.4746 33.184 53.1957C35.2608 51.0621 38.1772 50 41.1547 50H44C48.4183 50 52 46.4183 52 42V27.7577V14C52 9.58172 48.4183 6 44 6H16Z" fill="#418083"/>
<path d="M27.6944 53.9815L26.2005 55.3112L26.2006 55.3114L27.6944 53.9815ZM32.384 54.0382L33.852 55.3965L33.8521 55.3964L32.384 54.0382ZM27.0226 53.2462L25.5631 54.6137L27.0226 53.2462ZM10 14C10 10.6863 12.6863 8 16 8V4C10.4772 4 6 8.47715 6 14H10ZM10 27.7577V14H6V27.7577H10ZM10 42V27.7577H6V42H10ZM16 48C12.6863 48 10 45.3137 10 42H6C6 47.5228 10.4772 52 16 52V48ZM19.0486 48H16V52H19.0486V48ZM25.5631 54.6137C25.7799 54.8451 25.9925 55.0776 26.2005 55.3112L29.1883 52.6517C28.9563 52.3911 28.7207 52.1335 28.4821 51.8788L25.5631 54.6137ZM26.2006 55.3114C28.1611 57.5134 31.8291 57.5827 33.852 55.3965L30.916 52.6799C30.5164 53.1118 29.597 53.1107 29.1882 52.6516L26.2006 55.3114ZM33.8521 55.3964C34.1015 55.1269 34.3567 54.8584 34.6172 54.5907L31.7509 51.8008C31.4686 52.0907 31.19 52.3837 30.9159 52.68L33.8521 55.3964ZM44 48H41.1547V52H44V48ZM50 42C50 45.3137 47.3137 48 44 48V52C49.5228 52 54 47.5228 54 42H50ZM50 27.7577V42H54V27.7577H50ZM50 14V27.7577H54V14H50ZM44 8C47.3137 8 50 10.6863 50 14H54C54 8.47715 49.5228 4 44 4V8ZM16 8H44V4H16V8ZM34.6172 54.5907C36.2654 52.8974 38.6375 52 41.1547 52V48C37.717 48 34.2562 49.2268 31.7509 51.8008L34.6172 54.5907ZM19.0486 52C21.5852 52 23.9591 52.9017 25.5631 54.6137L28.4821 51.8788C25.9964 49.2258 22.4933 48 19.0486 48V52Z" fill="#37424A" mask="url(#path-1-inside-1_805_7448)"/>
<path d="M40.693 38.489C40.693 38.489 40.7562 38.44 40.8122 38.384C41.2532 37.915 41.9952 37.894 42.4642 38.335C42.9331 38.776 42.954 39.511 42.513 39.987C42.114 40.414 41.6241 40.729 41.0361 40.82C40.4551 40.904 39.944 40.743 39.552 40.54C39.167 40.344 38.8311 40.071 38.5581 39.833C38.4181 39.714 38.236 39.546 38.068 39.392C37.949 39.287 37.8442 39.189 37.7672 39.119C37.2212 38.629 36.9621 38.517 36.8361 38.51C36.8361 38.51 36.7663 38.51 36.6403 38.594C36.4863 38.699 36.2551 38.923 35.9611 39.371H35.9539C35.6109 39.889 35.184 40.323 34.638 40.547C34.057 40.792 33.4902 40.743 33.0142 40.582C32.5732 40.435 32.1881 40.176 31.8801 39.952C31.6631 39.791 31.4321 39.595 31.2221 39.427C31.1521 39.364 31.0752 39.308 31.0122 39.252C30.4102 38.762 30.0952 38.594 29.8922 38.58H29.885C29.885 38.58 29.5419 38.545 28.9539 39.42C28.6389 39.91 28.219 40.323 27.652 40.526C27.078 40.736 26.5321 40.659 26.0911 40.512C25.6711 40.365 25.293 40.134 24.985 39.917C24.775 39.777 24.5512 39.609 24.3482 39.455C24.2572 39.385 24.166 39.315 24.082 39.252C23.459 38.797 23.102 38.615 22.857 38.601C22.787 38.601 22.479 38.58 21.968 39.364H21.9611C21.4501 40.134 20.6801 40.813 19.6581 40.813C18.6361 40.813 17.8592 40.134 17.3622 39.364C17.0052 38.825 17.1592 38.104 17.6982 37.747C18.2372 37.397 18.9653 37.544 19.3153 38.09C19.4833 38.349 19.6021 38.44 19.6581 38.468C19.7141 38.44 19.8403 38.349 20.0153 38.083C20.8063 36.879 21.7999 36.2 23.0039 36.27C24.0259 36.333 24.901 36.949 25.468 37.369C25.594 37.46 25.7061 37.544 25.8111 37.621C25.9861 37.754 26.1473 37.873 26.3153 37.985C26.5743 38.16 26.7421 38.258 26.8611 38.293H26.882C26.882 38.293 26.9521 38.216 27.0081 38.132C27.8271 36.893 28.8282 36.158 30.0532 36.242C31.0962 36.319 31.957 37.005 32.482 37.432C32.587 37.516 32.6782 37.593 32.7622 37.663C32.9512 37.817 33.1121 37.95 33.2801 38.076C33.5181 38.258 33.672 38.335 33.763 38.37C33.805 38.335 33.8891 38.258 34.0081 38.083C34.7851 36.9 35.7371 36.116 36.9411 36.172C37.9911 36.221 38.817 36.921 39.321 37.369C39.482 37.516 39.6012 37.621 39.7062 37.726C39.8252 37.838 39.9371 37.936 40.0911 38.069C40.3221 38.279 40.4972 38.398 40.6232 38.468C40.6582 38.482 40.679 38.496 40.693 38.503V38.489Z" fill="white"/>
<path fill-rule="evenodd" clip-rule="evenodd" d="M21.8281 22.165C21.8281 20.877 22.878 19.834 24.166 19.834H30.1861C31.5091 19.834 32.7691 20.394 33.6581 21.381L37.8652 26.057C38.2922 26.533 38.257 27.275 37.774 27.702C37.298 28.136 36.5629 28.094 36.1289 27.618L31.9221 22.942C31.4811 22.452 30.8511 22.172 30.1861 22.172H24.166V26.841C24.166 27.485 23.6411 28.01 22.9971 28.01C22.3531 28.01 21.8281 27.485 21.8281 26.841V22.165Z" fill="white"/>
<path fill-rule="evenodd" clip-rule="evenodd" d="M22.9971 16.3272C22.9971 15.6832 23.522 15.1582 24.166 15.1582H26.4971C27.7851 15.1582 28.8281 16.2012 28.8281 17.4892V20.9892C28.8281 21.6332 28.31 22.1582 27.666 22.1582C27.022 22.1582 26.4971 21.6332 26.4971 20.9892V17.4892H24.166C23.522 17.4892 22.9971 16.9642 22.9971 16.3202V16.3272Z" fill="white"/>
<path d="M18.3283 25.9523C18.0623 25.9523 17.8103 26.0713 17.6423 26.2813C17.4813 26.4913 17.4183 26.7643 17.4813 27.0233L19.5601 35.8783C20.4771 35.0033 21.6532 34.4293 23.1022 34.5133C24.6772 34.6113 25.9651 35.5563 26.5181 35.9553C27.4351 35.0313 28.6461 34.3803 30.1791 34.4853C31.7121 34.5903 32.8952 35.5003 33.4552 35.9553C34.3302 35.0453 35.4991 34.3383 37.0181 34.4083C38.5511 34.4783 39.7062 35.3673 40.2802 35.8643C40.3292 35.8083 40.3711 35.7453 40.4131 35.6893C41.1621 34.6253 41.6311 33.2603 41.9321 31.9793C42.2401 30.6843 42.3873 29.3963 42.4643 28.4373C42.4993 27.9543 42.5202 27.5553 42.5272 27.2753C42.5342 27.1353 42.5342 26.9113 42.5412 26.8273C42.5412 26.3373 42.1492 25.9453 41.6662 25.9453H18.3283V25.9523Z" fill="white"/>
</g>
<defs>
<filter id="filter0_d_805_7448" x="0" y="0" width="60" height="65" filterUnits="userSpaceOnUse" color-interpolation-filters="sRGB">
<feFlood flood-opacity="0" result="BackgroundImageFix"/>
<feColorMatrix in="SourceAlpha" type="matrix" values="0 0 0 0 0 0 0 0 0 0 0 0 0 0 0 0 0 0 127 0" result="hardAlpha"/>
<feOffset dy="2"/>
<feGaussianBlur stdDeviation="4"/>
<feColorMatrix type="matrix" values="0 0 0 0 0 0 0 0 0 0 0 0 0 0 0 0 0 0 0.16 0"/>
<feBlend mode="normal" in2="BackgroundImageFix" result="effect1_dropShadow_805_7448"/>
<feBlend mode="normal" in="SourceGraphic" in2="effect1_dropShadow_805_7448" result="shape"/>
</filter>
</defs>
</svg>
