<svg width="44" height="44" viewBox="0 0 44 44" fill="none" xmlns="http://www.w3.org/2000/svg">
<g filter="url(#filter0_d_8318_9291)">
<g clip-path="url(#clip0_8318_9291)">
<rect x="8" y="6" width="28" height="28" rx="4" fill="#418083"/>
<g clip-path="url(#clip1_8318_9291)">
<path d="M29.6385 27.4918C29.6385 27.4918 29.6837 27.4568 29.7237 27.4168C30.0387 27.0818 30.5686 27.0668 30.9036 27.3818C31.2386 27.6968 31.2535 28.2218 30.9385 28.5618C30.6535 28.8668 30.3036 29.0918 29.8836 29.1568C29.4686 29.2168 29.1035 29.1018 28.8235 28.9568C28.5485 28.8168 28.3086 28.6218 28.1136 28.4518C28.0136 28.3668 27.8835 28.2468 27.7635 28.1368C27.6785 28.0618 27.6036 27.9918 27.5486 27.9418C27.1586 27.5918 26.9736 27.5118 26.8836 27.5068C26.8836 27.5068 26.8337 27.5068 26.7437 27.5668C26.6337 27.6418 26.4686 27.8018 26.2586 28.1218H26.2534C26.0084 28.4918 25.7035 28.8018 25.3135 28.9618C24.8985 29.1368 24.4936 29.1018 24.1536 28.9868C23.8386 28.8818 23.5635 28.6968 23.3435 28.5368C23.1885 28.4218 23.0236 28.2818 22.8736 28.1618C22.8236 28.1168 22.7687 28.0768 22.7237 28.0368C22.2937 27.6868 22.0686 27.5668 21.9236 27.5568H21.9185C21.9185 27.5568 21.6734 27.5318 21.2534 28.1568C21.0284 28.5068 20.7285 28.8018 20.3235 28.9468C19.9135 29.0968 19.5235 29.0418 19.2085 28.9368C18.9085 28.8318 18.6385 28.6668 18.4185 28.5118C18.2685 28.4118 18.1087 28.2918 17.9637 28.1818C17.8987 28.1318 17.8335 28.0818 17.7735 28.0368C17.3285 27.7118 17.0735 27.5818 16.8985 27.5718C16.8485 27.5718 16.6285 27.5568 16.2635 28.1168H16.2586C15.8936 28.6668 15.3436 29.1518 14.6136 29.1518C13.8836 29.1518 13.3287 28.6668 12.9737 28.1168C12.7187 27.7318 12.8287 27.2168 13.2137 26.9618C13.5987 26.7118 14.1187 26.8168 14.3687 27.2068C14.4887 27.3918 14.5736 27.4568 14.6136 27.4768C14.6536 27.4568 14.7437 27.3918 14.8687 27.2018C15.4337 26.3418 16.1434 25.8568 17.0034 25.9068C17.7334 25.9518 18.3585 26.3918 18.7635 26.6918C18.8535 26.7568 18.9336 26.8168 19.0086 26.8718C19.1336 26.9668 19.2487 27.0518 19.3687 27.1318C19.5537 27.2568 19.6736 27.3268 19.7586 27.3518H19.7735C19.7735 27.3518 19.8236 27.2968 19.8636 27.2368C20.4486 26.3518 21.1636 25.8268 22.0386 25.8868C22.7836 25.9418 23.3985 26.4318 23.7735 26.7368C23.8485 26.7968 23.9137 26.8518 23.9737 26.9018C24.1087 27.0118 24.2235 27.1068 24.3435 27.1968C24.5135 27.3268 24.6235 27.3818 24.6885 27.4068C24.7185 27.3818 24.7786 27.3268 24.8636 27.2018C25.4186 26.3568 26.0985 25.7968 26.9585 25.8368C27.7085 25.8718 28.2985 26.3718 28.6585 26.6918C28.7735 26.7968 28.8586 26.8718 28.9336 26.9468C29.0186 27.0268 29.0985 27.0968 29.2085 27.1918C29.3735 27.3418 29.4987 27.4268 29.5887 27.4768C29.6137 27.4868 29.6285 27.4968 29.6385 27.5018V27.4918Z" fill="white"/>
<path fill-rule="evenodd" clip-rule="evenodd" d="M16.1636 15.8318C16.1636 14.9118 16.9135 14.1668 17.8335 14.1668H22.1335C23.0785 14.1668 23.9785 14.5668 24.6135 15.2718L27.6187 18.6118C27.9237 18.9518 27.8985 19.4818 27.5535 19.7868C27.2135 20.0968 26.6884 20.0668 26.3784 19.7268L23.3735 16.3868C23.0585 16.0368 22.6085 15.8368 22.1335 15.8368H17.8335V19.1718C17.8335 19.6318 17.4585 20.0068 16.9985 20.0068C16.5385 20.0068 16.1636 19.6318 16.1636 19.1718V15.8318Z" fill="white"/>
<path fill-rule="evenodd" clip-rule="evenodd" d="M16.9985 11.662C16.9985 11.202 17.3735 10.827 17.8335 10.827H19.4985C20.4185 10.827 21.1636 11.572 21.1636 12.492V14.992C21.1636 15.452 20.7935 15.827 20.3335 15.827C19.8735 15.827 19.4985 15.452 19.4985 14.992V12.492H17.8335C17.3735 12.492 16.9985 12.117 16.9985 11.657V11.662Z" fill="white"/>
<path d="M13.6637 18.537C13.4737 18.537 13.2937 18.622 13.1737 18.772C13.0587 18.922 13.0137 19.117 13.0587 19.302L14.5436 25.627C15.1986 25.002 16.0386 24.592 17.0736 24.652C18.1986 24.722 19.1185 25.397 19.5135 25.682C20.1685 25.022 21.0335 24.557 22.1285 24.632C23.2235 24.707 24.0686 25.357 24.4686 25.682C25.0936 25.032 25.9285 24.527 27.0135 24.577C28.1085 24.627 28.9336 25.262 29.3436 25.617C29.3786 25.577 29.4086 25.532 29.4386 25.492C29.9736 24.732 30.3085 23.757 30.5236 22.842C30.7435 21.917 30.8487 20.997 30.9037 20.312C30.9287 19.967 30.9436 19.682 30.9486 19.482C30.9536 19.382 30.9536 19.222 30.9586 19.162C30.9586 18.812 30.6786 18.532 30.3336 18.532H13.6637V18.537Z" fill="white"/>
</g>
</g>
<rect x="9" y="7" width="26" height="26" rx="3" stroke="black" stroke-width="2"/>
</g>
<defs>
<filter id="filter0_d_8318_9291" x="0" y="0" width="44" height="44" filterUnits="userSpaceOnUse" color-interpolation-filters="sRGB">
<feFlood flood-opacity="0" result="BackgroundImageFix"/>
<feColorMatrix in="SourceAlpha" type="matrix" values="0 0 0 0 0 0 0 0 0 0 0 0 0 0 0 0 0 0 127 0" result="hardAlpha"/>
<feOffset dy="2"/>
<feGaussianBlur stdDeviation="4"/>
<feColorMatrix type="matrix" values="0 0 0 0 0 0 0 0 0 0 0 0 0 0 0 0 0 0 0.16 0"/>
<feBlend mode="normal" in2="BackgroundImageFix" result="effect1_dropShadow_8318_9291"/>
<feBlend mode="normal" in="SourceGraphic" in2="effect1_dropShadow_8318_9291" result="shape"/>
</filter>
<clipPath id="clip0_8318_9291">
<rect x="8" y="6" width="28" height="28" rx="4" fill="white"/>
</clipPath>
<clipPath id="clip1_8318_9291">
<rect width="20" height="20" fill="white" transform="translate(12 10)"/>
</clipPath>
</defs>
</svg>
