<svg width="60" height="65" viewBox="0 0 60 65" fill="none" xmlns="http://www.w3.org/2000/svg">
<g filter="url(#filter0_d_805_7443)">
<mask id="path-1-inside-1_805_7443" fill="white">
<path fill-rule="evenodd" clip-rule="evenodd" d="M16 6C11.5817 6 8 9.58172 8 14V27.7577V42C8 46.4183 11.5817 50 16 50H19.0486C22.0393 50 24.9778 51.0638 27.0226 53.2462C27.2503 53.4893 27.4744 53.7343 27.6944 53.9815C28.879 55.312 31.1727 55.3473 32.384 54.0382C32.6457 53.7553 32.9126 53.4746 33.184 53.1957C35.2608 51.0621 38.1772 50 41.1547 50H44C48.4183 50 52 46.4183 52 42V27.7577V14C52 9.58172 48.4183 6 44 6H16Z"/>
</mask>
<path fill-rule="evenodd" clip-rule="evenodd" d="M16 6C11.5817 6 8 9.58172 8 14V27.7577V42C8 46.4183 11.5817 50 16 50H19.0486C22.0393 50 24.9778 51.0638 27.0226 53.2462C27.2503 53.4893 27.4744 53.7343 27.6944 53.9815C28.879 55.312 31.1727 55.3473 32.384 54.0382C32.6457 53.7553 32.9126 53.4746 33.184 53.1957C35.2608 51.0621 38.1772 50 41.1547 50H44C48.4183 50 52 46.4183 52 42V27.7577V14C52 9.58172 48.4183 6 44 6H16Z" fill="#BD3685"/>
<path d="M27.6944 53.9815L26.2005 55.3112L26.2006 55.3114L27.6944 53.9815ZM32.384 54.0382L33.852 55.3965L33.8521 55.3964L32.384 54.0382ZM27.0226 53.2462L25.5631 54.6137L27.0226 53.2462ZM10 14C10 10.6863 12.6863 8 16 8V4C10.4772 4 6 8.47715 6 14H10ZM10 27.7577V14H6V27.7577H10ZM10 42V27.7577H6V42H10ZM16 48C12.6863 48 10 45.3137 10 42H6C6 47.5228 10.4772 52 16 52V48ZM19.0486 48H16V52H19.0486V48ZM25.5631 54.6137C25.7799 54.8451 25.9925 55.0776 26.2005 55.3112L29.1883 52.6517C28.9563 52.3911 28.7207 52.1335 28.4821 51.8788L25.5631 54.6137ZM26.2006 55.3114C28.1611 57.5134 31.8291 57.5827 33.852 55.3965L30.916 52.6799C30.5164 53.1118 29.597 53.1107 29.1882 52.6516L26.2006 55.3114ZM33.8521 55.3964C34.1015 55.1269 34.3567 54.8584 34.6172 54.5907L31.7509 51.8008C31.4686 52.0907 31.19 52.3837 30.9159 52.68L33.8521 55.3964ZM44 48H41.1547V52H44V48ZM50 42C50 45.3137 47.3137 48 44 48V52C49.5228 52 54 47.5228 54 42H50ZM50 27.7577V42H54V27.7577H50ZM50 14V27.7577H54V14H50ZM44 8C47.3137 8 50 10.6863 50 14H54C54 8.47715 49.5228 4 44 4V8ZM16 8H44V4H16V8ZM34.6172 54.5907C36.2654 52.8974 38.6375 52 41.1547 52V48C37.717 48 34.2562 49.2268 31.7509 51.8008L34.6172 54.5907ZM19.0486 52C21.5852 52 23.9591 52.9017 25.5631 54.6137L28.4821 51.8788C25.9964 49.2258 22.4933 48 19.0486 48V52Z" fill="#37424A" mask="url(#path-1-inside-1_805_7443)"/>
<path fill-rule="evenodd" clip-rule="evenodd" d="M17.1689 17.5001C17.1689 16.8561 17.6871 16.3311 18.3311 16.3311H26.892C29.16 16.3311 31.372 17.0661 33.192 18.4311L40.0311 23.5621C41.7951 24.8851 42.8311 26.9571 42.8311 29.1621C42.8311 31.0941 41.2701 32.6621 39.3311 32.6621H18.3311C17.6871 32.6621 17.1689 32.1371 17.1689 31.4931V28.8681H25.3379C25.8209 28.8681 26.2129 28.4761 26.2129 27.9931C26.2129 24.9341 23.7279 22.4491 20.6689 22.4491H17.1689V17.4931V17.5001ZM17.1689 24.2061V27.1251H24.358C23.966 25.4521 22.4609 24.2061 20.6689 24.2061H17.1689ZM38.6311 25.4311C38.8481 25.5921 39.0439 25.7671 39.2189 25.9561H35.8311C33.0941 25.9561 30.875 23.7371 30.875 21.0001V19.7051C31.19 19.8801 31.498 20.0831 31.792 20.3001L38.6311 25.4311Z" fill="white"/>
<path fill-rule="evenodd" clip-rule="evenodd" d="M17.1689 36.169C17.1689 35.525 17.6871 35 18.3311 35H41.6689C42.3129 35 42.8311 35.525 42.8311 36.169C42.8311 36.813 42.3129 37.338 41.6689 37.338H18.3311C17.6871 37.338 17.1689 36.813 17.1689 36.169Z" fill="white"/>
<path fill-rule="evenodd" clip-rule="evenodd" d="M23 35C23.644 35 24.1689 35.525 24.1689 36.169V38.5C24.1689 39.144 23.644 39.669 23 39.669C22.356 39.669 21.8311 39.144 21.8311 38.5V36.169C21.8311 35.525 22.356 35 23 35ZM30 35C30.644 35 31.1689 35.525 31.1689 36.169V38.5C31.1689 39.144 30.644 39.669 30 39.669C29.356 39.669 28.8311 39.144 28.8311 38.5V36.169C28.8311 35.525 29.356 35 30 35ZM37 35C37.644 35 38.1689 35.525 38.1689 36.169V38.5C38.1689 39.144 37.644 39.669 37 39.669C36.356 39.669 35.8311 39.144 35.8311 38.5V36.169C35.8311 35.525 36.356 35 37 35Z" fill="white"/>
</g>
<defs>
<filter id="filter0_d_805_7443" x="0" y="0" width="60" height="65" filterUnits="userSpaceOnUse" color-interpolation-filters="sRGB">
<feFlood flood-opacity="0" result="BackgroundImageFix"/>
<feColorMatrix in="SourceAlpha" type="matrix" values="0 0 0 0 0 0 0 0 0 0 0 0 0 0 0 0 0 0 127 0" result="hardAlpha"/>
<feOffset dy="2"/>
<feGaussianBlur stdDeviation="4"/>
<feColorMatrix type="matrix" values="0 0 0 0 0 0 0 0 0 0 0 0 0 0 0 0 0 0 0.16 0"/>
<feBlend mode="normal" in2="BackgroundImageFix" result="effect1_dropShadow_805_7443"/>
<feBlend mode="normal" in="SourceGraphic" in2="effect1_dropShadow_805_7443" result="shape"/>
</filter>
</defs>
</svg>
