<svg width="60" height="65" viewBox="0 0 60 65" fill="none" xmlns="http://www.w3.org/2000/svg">
<g filter="url(#filter0_d_8318_9304)">
<mask id="path-1-inside-1_8318_9304" fill="white">
<path fill-rule="evenodd" clip-rule="evenodd" d="M16 8C11.5817 8 8 11.5817 8 16V29.7577V44C8 48.4183 11.5817 52 16 52H19.0486C22.0393 52 24.9778 53.0638 27.0226 55.2462C27.2503 55.4893 27.4744 55.7343 27.6944 55.9815C28.879 57.312 31.1727 57.3473 32.384 56.0382C32.6457 55.7553 32.9126 55.4746 33.184 55.1957C35.2608 53.0621 38.1772 52 41.1547 52H44C48.4183 52 52 48.4183 52 44V29.7577V16C52 11.5817 48.4183 8 44 8H16Z"/>
</mask>
<path fill-rule="evenodd" clip-rule="evenodd" d="M16 8C11.5817 8 8 11.5817 8 16V29.7577V44C8 48.4183 11.5817 52 16 52H19.0486C22.0393 52 24.9778 53.0638 27.0226 55.2462C27.2503 55.4893 27.4744 55.7343 27.6944 55.9815C28.879 57.312 31.1727 57.3473 32.384 56.0382C32.6457 55.7553 32.9126 55.4746 33.184 55.1957C35.2608 53.0621 38.1772 52 41.1547 52H44C48.4183 52 52 48.4183 52 44V29.7577V16C52 11.5817 48.4183 8 44 8H16Z" fill="#334DCE"/>
<path d="M27.6944 55.9815L26.2005 57.3112L26.2006 57.3114L27.6944 55.9815ZM32.384 56.0382L33.852 57.3965L33.8521 57.3964L32.384 56.0382ZM27.0226 55.2462L25.5631 56.6137L27.0226 55.2462ZM8 16H10C10 12.6863 12.6863 10 16 10V8V6C10.4772 6 6 10.4772 6 16H8ZM8 29.7577H10V16H8H6V29.7577H8ZM8 44H10V29.7577H8H6V44H8ZM16 52V50C12.6863 50 10 47.3137 10 44H8H6C6 49.5228 10.4772 54 16 54V52ZM19.0486 52V50H16V52V54H19.0486V52ZM27.0226 55.2462L25.5631 56.6137C25.7799 56.8451 25.9925 57.0776 26.2005 57.3112L27.6944 55.9815L29.1883 54.6517C28.9563 54.3911 28.7207 54.1335 28.4821 53.8788L27.0226 55.2462ZM27.6944 55.9815L26.2006 57.3114C28.1611 59.5134 31.8291 59.5827 33.852 57.3965L32.384 56.0382L30.916 54.6799C30.5164 55.1118 29.597 55.1107 29.1882 54.6516L27.6944 55.9815ZM32.384 56.0382L33.8521 57.3964C34.1015 57.1269 34.3567 56.8584 34.6172 56.5907L33.184 55.1957L31.7509 53.8008C31.4686 54.0907 31.19 54.3837 30.9159 54.68L32.384 56.0382ZM44 52V50H41.1547V52V54H44V52ZM52 44H50C50 47.3137 47.3137 50 44 50V52V54C49.5228 54 54 49.5228 54 44H52ZM52 29.7577H50V44H52H54V29.7577H52ZM52 16H50V29.7577H52H54V16H52ZM44 8V10C47.3137 10 50 12.6863 50 16H52H54C54 10.4772 49.5228 6 44 6V8ZM16 8V10H44V8V6H16V8ZM33.184 55.1957L34.6172 56.5907C36.2654 54.8974 38.6375 54 41.1547 54V52V50C37.717 50 34.2562 51.2268 31.7509 53.8008L33.184 55.1957ZM19.0486 52V54C21.5852 54 23.9591 54.9017 25.5631 56.6137L27.0226 55.2462L28.4821 53.8788C25.9964 51.2258 22.4933 50 19.0486 50V52Z" fill="black" mask="url(#path-1-inside-1_8318_9304)"/>
<path fill-rule="evenodd" clip-rule="evenodd" d="M17.4004 26.325C17.4004 25.1652 18.3406 24.225 19.5004 24.225H37.0004C40.4798 24.225 43.3004 27.0456 43.3004 30.525V34.725C43.3004 35.8848 42.3649 36.825 41.2051 36.825C34.3616 36.825 21.3834 36.825 19.5004 36.825C18.3406 36.825 17.4004 35.8848 17.4004 34.725V26.325ZM19.5004 27.025C19.5004 26.6384 19.8138 26.325 20.2004 26.325H22.2974C22.684 26.325 22.9974 26.6384 22.9974 27.025V30.525C22.9974 30.9116 22.684 31.225 22.2974 31.225H20.2004C19.8504 31.225 19.5004 30.875 19.5004 30.525V27.025ZM25.108 26.325C24.7214 26.325 24.408 26.6384 24.408 27.025L24.4004 30.525C24.4004 30.875 24.7504 31.225 25.1004 31.225H27.908C28.2946 31.225 28.608 30.9116 28.608 30.525V27.025C28.608 26.6384 28.2946 26.325 27.908 26.325H25.108ZM30.0185 27.025C30.0185 26.6384 30.3319 26.325 30.7185 26.325H33.5185C33.9051 26.325 34.2185 26.6384 34.2185 27.025V30.525C34.2185 30.9116 33.9051 31.225 33.5185 31.225H31.4185C30.6453 31.225 30.0004 31.2982 30.0004 30.525L30.0185 27.025ZM36.329 26.325C35.9424 26.325 35.629 26.6384 35.629 27.025V30.525C35.629 30.9116 35.9424 31.225 36.329 31.225H40.529C40.9156 31.225 41.229 30.9116 41.229 30.525C41.229 28.2054 39.3486 26.325 37.029 26.325H36.329Z" fill="white"/>
<path fill-rule="evenodd" clip-rule="evenodd" d="M17.9254 38.925C17.9254 38.4417 18.3171 38.05 18.8004 38.05H41.9004C42.3836 38.05 42.7754 38.4417 42.7754 38.925C42.7754 39.4082 42.3836 39.8 41.9004 39.8H18.8004C18.3171 39.8 17.9254 39.4082 17.9254 38.925Z" fill="white"/>
<path fill-rule="evenodd" clip-rule="evenodd" d="M26.3254 21.425C26.3254 20.9417 26.7171 20.55 27.2004 20.55H32.8004C33.1459 20.55 33.4591 20.7533 33.5997 21.069C33.7403 21.3847 33.6819 21.7535 33.4508 22.0103L30.3008 25.5103C29.9775 25.8695 29.4242 25.8986 29.065 25.5754C28.7058 25.2521 28.6767 24.6988 29 24.3396L30.8357 22.3H27.2004C26.7171 22.3 26.3254 21.9082 26.3254 21.425Z" fill="white"/>
</g>
<defs>
<filter id="filter0_d_8318_9304" x="0" y="0" width="60" height="65" filterUnits="userSpaceOnUse" color-interpolation-filters="sRGB">
<feFlood flood-opacity="0" result="BackgroundImageFix"/>
<feColorMatrix in="SourceAlpha" type="matrix" values="0 0 0 0 0 0 0 0 0 0 0 0 0 0 0 0 0 0 127 0" result="hardAlpha"/>
<feOffset/>
<feGaussianBlur stdDeviation="4"/>
<feColorMatrix type="matrix" values="0 0 0 0 0 0 0 0 0 0 0 0 0 0 0 0 0 0 0.23 0"/>
<feBlend mode="normal" in2="BackgroundImageFix" result="effect1_dropShadow_8318_9304"/>
<feBlend mode="normal" in="SourceGraphic" in2="effect1_dropShadow_8318_9304" result="shape"/>
</filter>
</defs>
</svg>
