<svg width="64" height="69" viewBox="0 0 64 69" fill="none" xmlns="http://www.w3.org/2000/svg">
<g filter="url(#filter0_d_8318_9080)">
<path d="M32 7C44.6395 7 55 16.6092 55 28.5986C54.9999 35.0433 51.8044 39.9817 47.7822 44.3154C45.7739 46.4793 43.5266 48.5259 41.3398 50.5391C39.1404 52.5639 36.9981 54.5581 35.1318 56.6611C33.512 58.4862 30.5069 58.4302 28.9336 56.5879C27.1079 54.4496 24.9835 52.4564 22.7871 50.4512C20.6053 48.4592 18.3424 46.4462 16.3174 44.3184C12.2556 40.0503 9.00008 35.1686 9 28.5986C9 16.6092 19.3605 7 32 7Z" fill="#8F1011" stroke="black" stroke-width="2" stroke-linejoin="round"/>
<path fill-rule="evenodd" clip-rule="evenodd" d="M24.7061 31.1662C22.7741 31.1662 21.2061 32.7342 21.2061 34.6662C21.2061 36.5982 22.7741 38.1662 24.7061 38.1662C26.6381 38.1662 28.2061 36.5982 28.2061 34.6662C28.2061 32.7342 26.6381 31.1662 24.7061 31.1662ZM18.875 34.6662C18.875 31.4462 21.4861 28.8352 24.7061 28.8352C27.9261 28.8352 30.5371 31.4462 30.5371 34.6662C30.5371 37.8862 27.9261 40.4972 24.7061 40.4972C21.4861 40.4972 18.875 37.8862 18.875 34.6662Z" fill="white"/>
<path fill-rule="evenodd" clip-rule="evenodd" d="M39.2871 31.1662C37.3551 31.1662 35.7871 32.7342 35.7871 34.6662C35.7871 36.5982 37.3551 38.1662 39.2871 38.1662C41.2191 38.1662 42.7871 36.5982 42.7871 34.6662C42.7871 32.7342 41.2261 31.1662 39.2871 31.1662ZM33.4561 34.6662C33.4561 31.4462 36.0671 28.8352 39.2871 28.8352C42.5071 28.8352 45.125 31.4462 45.125 34.6662C45.125 37.8862 42.5071 40.4972 39.2871 40.4972C36.0671 40.4972 33.4561 37.8862 33.4561 34.6662Z" fill="white"/>
<path fill-rule="evenodd" clip-rule="evenodd" d="M36.9909 24.3481C37.5369 24.6911 37.7051 25.4121 37.3621 25.9581L31.5311 35.2891C31.3141 35.6321 30.9431 35.8351 30.5371 35.8351H24.7061C24.0621 35.8351 23.5371 35.3101 23.5371 34.6661C23.5371 34.0221 24.0621 33.4971 24.7061 33.4971H29.8932L35.3811 24.7191C35.7241 24.1731 36.4449 24.0051 36.9909 24.3481Z" fill="white"/>
<path fill-rule="evenodd" clip-rule="evenodd" d="M22.375 24.1663C22.375 23.5223 22.8931 22.9973 23.5371 22.9973H29.375C30.019 22.9973 30.5371 23.5223 30.5371 24.1663C30.5371 24.8103 30.019 25.3353 29.375 25.3353H28.3879L33.1833 30.9913C33.5963 31.4813 33.5332 32.2163 33.0432 32.6363C32.5532 33.0493 31.8178 32.9933 31.3978 32.4963L25.3288 25.3283H23.5371C22.8931 25.3283 22.375 24.8033 22.375 24.1593V24.1663Z" fill="white"/>
<path fill-rule="evenodd" clip-rule="evenodd" d="M36.7879 21.9054C37.3059 21.9334 37.8028 21.9894 38.2788 22.1154C39.1258 22.3394 39.6649 22.7384 39.9099 23.5784C40.0849 24.1944 40.7362 24.5584 41.3522 24.3764C41.9752 24.2014 42.332 23.5504 42.15 22.9344C41.618 21.0724 40.2461 20.2254 38.8811 19.8614C37.8661 19.5884 36.7178 19.5534 35.8568 19.5254C35.6468 19.5254 35.4581 19.5114 35.2901 19.5044C34.4431 19.4624 33.8762 20.2674 34.0932 21.0094L38.1674 34.9954C38.3494 35.6113 38.9999 35.9684 39.6159 35.7864C40.2319 35.6044 40.5888 34.9604 40.4068 34.3374L36.7879 21.8984V21.9054Z" fill="white"/>
</g>
<defs>
<filter id="filter0_d_8318_9080" x="0" y="0" width="64" height="69.0001" filterUnits="userSpaceOnUse" color-interpolation-filters="sRGB">
<feFlood flood-opacity="0" result="BackgroundImageFix"/>
<feColorMatrix in="SourceAlpha" type="matrix" values="0 0 0 0 0 0 0 0 0 0 0 0 0 0 0 0 0 0 127 0" result="hardAlpha"/>
<feOffset dy="2"/>
<feGaussianBlur stdDeviation="4"/>
<feColorMatrix type="matrix" values="0 0 0 0 0 0 0 0 0 0 0 0 0 0 0 0 0 0 0.16 0"/>
<feBlend mode="normal" in2="BackgroundImageFix" result="effect1_dropShadow_8318_9080"/>
<feBlend mode="normal" in="SourceGraphic" in2="effect1_dropShadow_8318_9080" result="shape"/>
</filter>
</defs>
</svg>
