<svg width="36" height="30" viewBox="0 0 36 30" fill="none" xmlns="http://www.w3.org/2000/svg">
<g filter="url(#filter0_d_8318_9151)">
<path d="M17.3034 8.30814C17.6735 7.89728 18.3265 7.89729 18.6966 8.30814L25.7744 16.1641C26.4408 16.9038 25.511 18.2311 24.5423 17.9654C22.6538 17.4472 20.3246 16.9882 18 16.9882C15.6754 16.9882 13.3462 17.4472 11.4577 17.9654C10.489 18.2311 9.55917 16.9038 10.2256 16.1641L17.3034 8.30814Z" fill="#C7CACC"/>
<path d="M16.7109 7.48926C17.4415 6.83714 18.5585 6.83715 19.2891 7.48926L19.4395 7.63867L26.5176 15.4951L26.6465 15.6543C27.2376 16.4612 26.9953 17.4297 26.5937 18.0107C26.1917 18.5922 25.4033 19.1372 24.4668 18.9727L24.2773 18.9297C22.4371 18.4249 20.2027 17.9883 18 17.9883C16.0724 17.9883 14.1204 18.3223 12.4297 18.7441L11.7227 18.9297C10.7038 19.2092 9.83507 18.6309 9.40625 18.0107C8.97801 17.391 8.73038 16.3302 9.48242 15.4951L16.5605 7.63867L16.7109 7.48926Z" stroke="#37424A" stroke-width="2"/>
</g>
<defs>
<filter id="filter0_d_8318_9151" x="-0.00195312" y="0" width="36.0039" height="30.0041" filterUnits="userSpaceOnUse" color-interpolation-filters="sRGB">
<feFlood flood-opacity="0" result="BackgroundImageFix"/>
<feColorMatrix in="SourceAlpha" type="matrix" values="0 0 0 0 0 0 0 0 0 0 0 0 0 0 0 0 0 0 127 0" result="hardAlpha"/>
<feOffset dy="2"/>
<feGaussianBlur stdDeviation="4"/>
<feColorMatrix type="matrix" values="0 0 0 0 0 0 0 0 0 0 0 0 0 0 0 0 0 0 0.16 0"/>
<feBlend mode="normal" in2="BackgroundImageFix" result="effect1_dropShadow_8318_9151"/>
<feBlend mode="normal" in="SourceGraphic" in2="effect1_dropShadow_8318_9151" result="shape"/>
</filter>
</defs>
</svg>
