<svg width="64" height="64" viewBox="0 0 64 64" fill="none" xmlns="http://www.w3.org/2000/svg">
<g filter="url(#filter0_d_10364_6329)">
<path d="M10 32C10 19.8497 19.8497 10 32 10C44.1503 10 54 19.8497 54 32C54 44.1503 44.1503 54 32 54C19.8497 54 10 44.1503 10 32Z" fill="#A9AEB1"/>
<path d="M32 9C44.7025 9 55 19.2975 55 32C55 44.7025 44.7025 55 32 55C19.2975 55 9 44.7025 9 32C9 19.2975 19.2975 9 32 9Z" stroke="black" stroke-width="2"/>
<path fill-rule="evenodd" clip-rule="evenodd" d="M31.9991 20.331C32.6431 20.331 33.1681 20.856 33.1681 21.5V25C33.1681 25.644 32.6431 26.169 31.9991 26.169C31.3551 26.169 30.8301 25.644 30.8301 25V21.5C30.8301 20.856 31.3551 20.331 31.9991 20.331Z" fill="black"/>
<path fill-rule="evenodd" clip-rule="evenodd" d="M31.9991 37.831C32.6431 37.831 33.1681 38.356 33.1681 39V42.5C33.1681 43.144 32.6431 43.669 31.9991 43.669C31.3551 43.669 30.8301 43.144 30.8301 42.5V39C30.8301 38.356 31.3551 37.831 31.9991 37.831Z" fill="black"/>
<path fill-rule="evenodd" clip-rule="evenodd" d="M37.8301 32C37.8301 31.356 38.3551 30.831 38.9991 30.831H42.4991C43.1431 30.831 43.6681 31.356 43.6681 32C43.6681 32.644 43.1431 33.169 42.4991 33.169H38.9991C38.3551 33.169 37.8301 32.644 37.8301 32Z" fill="black"/>
<path fill-rule="evenodd" clip-rule="evenodd" d="M20.3301 32C20.3301 31.356 20.8551 30.831 21.4991 30.831H24.9991C25.6431 30.831 26.1681 31.356 26.1681 32C26.1681 32.644 25.6431 33.169 24.9991 33.169H21.4991C20.8551 33.169 20.3301 32.644 20.3301 32Z" fill="black"/>
<path fill-rule="evenodd" clip-rule="evenodd" d="M40.2455 23.7539C40.7075 24.2089 40.7075 24.9509 40.2455 25.4059L37.7745 27.8839C37.3195 28.3389 36.5775 28.3389 36.1225 27.8839C35.6675 27.4289 35.6675 26.6869 36.1225 26.2319L38.6005 23.7539C39.0555 23.2989 39.7905 23.2989 40.2455 23.7539Z" fill="black"/>
<path fill-rule="evenodd" clip-rule="evenodd" d="M27.8764 36.1228C28.3314 36.5778 28.3314 37.3198 27.8764 37.7748L25.3983 40.2528C24.9433 40.7078 24.2084 40.7078 23.7534 40.2528C23.2984 39.7978 23.2984 39.0558 23.7534 38.6008L26.2244 36.1228C26.6794 35.6678 27.4214 35.6678 27.8764 36.1228Z" fill="black"/>
<path fill-rule="evenodd" clip-rule="evenodd" d="M36.1225 36.1228C36.5775 35.6678 37.3195 35.6678 37.7745 36.1228L40.2455 38.6008C40.7075 39.0558 40.7075 39.7978 40.2455 40.2528C39.7905 40.7078 39.0555 40.7078 38.6005 40.2528L36.1225 37.7748C35.6675 37.3198 35.6675 36.5778 36.1225 36.1228Z" fill="black"/>
<path fill-rule="evenodd" clip-rule="evenodd" d="M23.7534 23.7539C24.2084 23.2989 24.9433 23.2989 25.3983 23.7539L27.8764 26.2319C28.3314 26.6869 28.3314 27.4289 27.8764 27.8839C27.4214 28.3389 26.6794 28.3389 26.2244 27.8839L23.7534 25.4059C23.2984 24.9509 23.2984 24.2089 23.7534 23.7539Z" fill="black"/>
</g>
<defs>
<filter id="filter0_d_10364_6329" x="0" y="0" width="64" height="64" filterUnits="userSpaceOnUse" color-interpolation-filters="sRGB">
<feFlood flood-opacity="0" result="BackgroundImageFix"/>
<feColorMatrix in="SourceAlpha" type="matrix" values="0 0 0 0 0 0 0 0 0 0 0 0 0 0 0 0 0 0 127 0" result="hardAlpha"/>
<feOffset/>
<feGaussianBlur stdDeviation="4"/>
<feColorMatrix type="matrix" values="0 0 0 0 0 0 0 0 0 0 0 0 0 0 0 0 0 0 0.23 0"/>
<feBlend mode="normal" in2="BackgroundImageFix" result="effect1_dropShadow_10364_6329"/>
<feBlend mode="normal" in="SourceGraphic" in2="effect1_dropShadow_10364_6329" result="shape"/>
</filter>
</defs>
</svg>
