<svg width="56" height="56" viewBox="0 0 56 56" fill="none" xmlns="http://www.w3.org/2000/svg">
<g filter="url(#filter0_d_8318_9089)">
<g clip-path="url(#clip0_8318_9089)">
<rect x="10" y="10" width="36" height="36" rx="18" fill="#54090A"/>
<path fill-rule="evenodd" clip-rule="evenodd" d="M20.7061 29.1662C18.7741 29.1662 17.2061 30.7342 17.2061 32.6662C17.2061 34.5982 18.7741 36.1662 20.7061 36.1662C22.6381 36.1662 24.2061 34.5982 24.2061 32.6662C24.2061 30.7342 22.6381 29.1662 20.7061 29.1662ZM14.875 32.6662C14.875 29.4462 17.4861 26.8352 20.7061 26.8352C23.9261 26.8352 26.5371 29.4462 26.5371 32.6662C26.5371 35.8862 23.9261 38.4972 20.7061 38.4972C17.4861 38.4972 14.875 35.8862 14.875 32.6662Z" fill="#D44546"/>
<path fill-rule="evenodd" clip-rule="evenodd" d="M35.2871 29.1662C33.3551 29.1662 31.7871 30.7342 31.7871 32.6662C31.7871 34.5982 33.3551 36.1662 35.2871 36.1662C37.2191 36.1662 38.7871 34.5982 38.7871 32.6662C38.7871 30.7342 37.2261 29.1662 35.2871 29.1662ZM29.4561 32.6662C29.4561 29.4462 32.0671 26.8352 35.2871 26.8352C38.5071 26.8352 41.125 29.4462 41.125 32.6662C41.125 35.8862 38.5071 38.4972 35.2871 38.4972C32.0671 38.4972 29.4561 35.8862 29.4561 32.6662Z" fill="#D44546"/>
<path fill-rule="evenodd" clip-rule="evenodd" d="M32.9909 22.3481C33.5369 22.6911 33.7051 23.4121 33.3621 23.9581L27.5311 33.2891C27.3141 33.6321 26.9431 33.8351 26.5371 33.8351H20.7061C20.0621 33.8351 19.5371 33.3101 19.5371 32.6661C19.5371 32.0221 20.0621 31.4971 20.7061 31.4971H25.8932L31.3811 22.7191C31.7241 22.1731 32.4449 22.0051 32.9909 22.3481Z" fill="#D44546"/>
<path fill-rule="evenodd" clip-rule="evenodd" d="M18.375 22.1663C18.375 21.5223 18.8931 20.9973 19.5371 20.9973H25.375C26.019 20.9973 26.5371 21.5223 26.5371 22.1663C26.5371 22.8103 26.019 23.3353 25.375 23.3353H24.3879L29.1833 28.9913C29.5963 29.4813 29.5332 30.2163 29.0432 30.6363C28.5532 31.0493 27.8178 30.9933 27.3978 30.4963L21.3288 23.3283H19.5371C18.8931 23.3283 18.375 22.8033 18.375 22.1593V22.1663Z" fill="#D44546"/>
<path fill-rule="evenodd" clip-rule="evenodd" d="M32.7879 19.9054C33.3059 19.9334 33.8028 19.9894 34.2788 20.1154C35.1258 20.3394 35.6649 20.7384 35.9099 21.5784C36.0849 22.1944 36.7362 22.5584 37.3522 22.3764C37.9752 22.2014 38.332 21.5504 38.15 20.9344C37.618 19.0724 36.2461 18.2254 34.8811 17.8614C33.8661 17.5884 32.7178 17.5534 31.8568 17.5254C31.6468 17.5254 31.4581 17.5114 31.2901 17.5044C30.4431 17.4624 29.8762 18.2674 30.0932 19.0094L34.1674 32.9954C34.3494 33.6114 34.9999 33.9684 35.6159 33.7864C36.2319 33.6044 36.5888 32.9604 36.4068 32.3374L32.7879 19.8984V19.9054Z" fill="#D44546"/>
</g>
<rect x="9" y="9" width="38" height="38" rx="19" stroke="black" stroke-width="2"/>
</g>
<defs>
<filter id="filter0_d_8318_9089" x="0" y="0" width="56" height="56" filterUnits="userSpaceOnUse" color-interpolation-filters="sRGB">
<feFlood flood-opacity="0" result="BackgroundImageFix"/>
<feColorMatrix in="SourceAlpha" type="matrix" values="0 0 0 0 0 0 0 0 0 0 0 0 0 0 0 0 0 0 127 0" result="hardAlpha"/>
<feOffset/>
<feGaussianBlur stdDeviation="4"/>
<feColorMatrix type="matrix" values="0 0 0 0 0 0 0 0 0 0 0 0 0 0 0 0 0 0 0.23 0"/>
<feBlend mode="normal" in2="BackgroundImageFix" result="effect1_dropShadow_8318_9089"/>
<feBlend mode="normal" in="SourceGraphic" in2="effect1_dropShadow_8318_9089" result="shape"/>
</filter>
<clipPath id="clip0_8318_9089">
<rect x="10" y="10" width="36" height="36" rx="18" fill="white"/>
</clipPath>
</defs>
</svg>
