<svg width="64" height="69" viewBox="0 0 64 69" fill="none" xmlns="http://www.w3.org/2000/svg">
<g filter="url(#filter0_d_805_7253)">
<path d="M28.9339 56.5875L28.934 56.5875C30.5073 58.4299 33.5121 58.4862 35.1319 56.6611L35.132 56.661C36.9983 54.5579 39.1407 52.5639 41.3403 50.5389C41.4722 50.4174 41.6043 50.2959 41.7367 50.1741C43.7972 48.2784 45.8947 46.3487 47.7818 44.3154C51.8041 39.9816 55 35.0433 55 28.5984C55 16.609 44.6395 7 32 7C19.3605 7 9 16.609 9 28.5984C9 35.1686 12.2558 40.0504 16.3178 44.3186C18.0651 46.1546 19.9891 47.9049 21.8856 49.63C22.1871 49.9043 22.4879 50.1779 22.7872 50.4512C24.9836 52.4565 27.1082 54.4492 28.9339 56.5875Z" fill="#8E2864" stroke="#37424A" stroke-width="2" stroke-linejoin="round"/>
<path d="M26.1689 38.8966C27.7789 38.8966 29.0811 37.5876 29.0811 35.9776C29.0811 34.3676 27.7789 33.0586 26.1689 33.0586C24.5589 33.0586 23.25 34.3676 23.25 35.9776C23.25 37.5876 24.5589 38.8966 26.1689 38.8966Z" fill="white"/>
<path d="M37.8311 38.8966C39.4411 38.8966 40.75 37.5876 40.75 35.9776C40.75 34.3676 39.4411 33.0586 37.8311 33.0586C36.2211 33.0586 34.9189 34.3676 34.9189 35.9776C34.9189 37.5876 36.2211 38.8966 37.8311 38.8966Z" fill="white"/>
<path fill-rule="evenodd" clip-rule="evenodd" d="M19.4561 27.8086C19.4561 27.3256 19.8481 26.9336 20.3311 26.9336H39C39.483 26.9336 39.875 27.3256 39.875 27.8086C39.875 28.2916 39.483 28.6836 39 28.6836H20.3311C19.8481 28.6836 19.4561 28.2916 19.4561 27.8086Z" fill="white"/>
<path fill-rule="evenodd" clip-rule="evenodd" d="M28.5 21.1025C28.983 21.1025 29.375 21.4945 29.375 21.9775V27.8085C29.375 28.2915 28.983 28.6835 28.5 28.6835C28.017 28.6835 27.625 28.2915 27.625 27.8085V21.9775C27.625 21.4945 28.017 21.1025 28.5 21.1025Z" fill="white"/>
<path fill-rule="evenodd" clip-rule="evenodd" d="M19.4561 21.9775C19.4561 21.4945 19.8481 21.1025 20.3311 21.1025H33.7011C34.7511 21.1025 35.731 21.6135 36.333 22.4745L39.5879 27.1295L42.7659 28.7185C43.8579 29.2645 44.5439 30.3705 44.5439 31.5885V34.8155C44.5439 35.9425 43.627 36.8595 42.5 36.8595H42.178C42.234 36.5795 42.2689 36.2855 42.2689 35.9845C42.2689 33.5345 40.2811 31.5535 37.8311 31.5535C35.3811 31.5535 33.4 33.5415 33.4 35.9845C33.4 36.2855 33.4281 36.5795 33.4841 36.8595H30.5159C30.5719 36.5795 30.6 36.2855 30.6 35.9845C30.6 33.5345 28.6119 31.5535 26.1689 31.5535C23.7259 31.5535 21.7311 33.5415 21.7311 35.9845C21.7311 36.1595 21.7449 36.3415 21.7659 36.5095L20.5901 35.9215C19.8971 35.5785 19.4561 34.8715 19.4561 34.0945V27.2345C19.4561 27.1155 19.484 26.9895 19.533 26.8775L21.3182 22.8595H20.3311C19.8481 22.8595 19.4561 22.4675 19.4561 21.9845V21.9775ZM23.236 22.8525L21.4231 26.9335H27.625V22.8525H23.236ZM29.375 22.8525V26.9335H37.3201L34.8981 23.4755C34.6251 23.0835 34.1771 22.8525 33.7011 22.8525H29.375Z" fill="white"/>
</g>
<defs>
<filter id="filter0_d_805_7253" x="0" y="0" width="64" height="69" filterUnits="userSpaceOnUse" color-interpolation-filters="sRGB">
<feFlood flood-opacity="0" result="BackgroundImageFix"/>
<feColorMatrix in="SourceAlpha" type="matrix" values="0 0 0 0 0 0 0 0 0 0 0 0 0 0 0 0 0 0 127 0" result="hardAlpha"/>
<feOffset dy="2"/>
<feGaussianBlur stdDeviation="4"/>
<feColorMatrix type="matrix" values="0 0 0 0 0 0 0 0 0 0 0 0 0 0 0 0 0 0 0.16 0"/>
<feBlend mode="normal" in2="BackgroundImageFix" result="effect1_dropShadow_805_7253"/>
<feBlend mode="normal" in="SourceGraphic" in2="effect1_dropShadow_805_7253" result="shape"/>
</filter>
</defs>
</svg>
