<svg width="64" height="64" viewBox="0 0 64 64" fill="none" xmlns="http://www.w3.org/2000/svg">
<g filter="url(#filter0_d_10364_6327)">
<path d="M10 30C10 17.8497 19.8497 8 32 8C44.1503 8 54 17.8497 54 30C54 42.1503 44.1503 52 32 52C19.8497 52 10 42.1503 10 30Z" fill="#A9AEB1"/>
<path d="M32 7C44.7025 7 55 17.2975 55 30C55 42.7025 44.7025 53 32 53C19.2975 53 9 42.7025 9 30C9 17.2975 19.2975 7 32 7Z" stroke="black" stroke-width="2"/>
<path fill-rule="evenodd" clip-rule="evenodd" d="M31.9991 18.331C32.6431 18.331 33.1681 18.856 33.1681 19.5V23C33.1681 23.644 32.6431 24.169 31.9991 24.169C31.3551 24.169 30.8301 23.644 30.8301 23V19.5C30.8301 18.856 31.3551 18.331 31.9991 18.331Z" fill="black"/>
<path fill-rule="evenodd" clip-rule="evenodd" d="M31.9991 35.831C32.6431 35.831 33.1681 36.356 33.1681 37V40.5C33.1681 41.144 32.6431 41.669 31.9991 41.669C31.3551 41.669 30.8301 41.144 30.8301 40.5V37C30.8301 36.356 31.3551 35.831 31.9991 35.831Z" fill="black"/>
<path fill-rule="evenodd" clip-rule="evenodd" d="M37.8301 30C37.8301 29.356 38.3551 28.831 38.9991 28.831H42.4991C43.1431 28.831 43.6681 29.356 43.6681 30C43.6681 30.644 43.1431 31.169 42.4991 31.169H38.9991C38.3551 31.169 37.8301 30.644 37.8301 30Z" fill="black"/>
<path fill-rule="evenodd" clip-rule="evenodd" d="M20.3301 30C20.3301 29.356 20.8551 28.831 21.4991 28.831H24.9991C25.6431 28.831 26.1681 29.356 26.1681 30C26.1681 30.644 25.6431 31.169 24.9991 31.169H21.4991C20.8551 31.169 20.3301 30.644 20.3301 30Z" fill="black"/>
<path fill-rule="evenodd" clip-rule="evenodd" d="M40.2455 21.7539C40.7075 22.2089 40.7075 22.9509 40.2455 23.4059L37.7745 25.8839C37.3195 26.3389 36.5775 26.3389 36.1225 25.8839C35.6675 25.4289 35.6675 24.6869 36.1225 24.2319L38.6005 21.7539C39.0555 21.2989 39.7905 21.2989 40.2455 21.7539Z" fill="black"/>
<path fill-rule="evenodd" clip-rule="evenodd" d="M27.8764 34.1228C28.3314 34.5778 28.3314 35.3198 27.8764 35.7748L25.3983 38.2528C24.9433 38.7078 24.2084 38.7078 23.7534 38.2528C23.2984 37.7978 23.2984 37.0558 23.7534 36.6008L26.2244 34.1228C26.6794 33.6678 27.4214 33.6678 27.8764 34.1228Z" fill="black"/>
<path fill-rule="evenodd" clip-rule="evenodd" d="M36.1225 34.1228C36.5775 33.6678 37.3195 33.6678 37.7745 34.1228L40.2455 36.6008C40.7075 37.0558 40.7075 37.7978 40.2455 38.2528C39.7905 38.7078 39.0555 38.7078 38.6005 38.2528L36.1225 35.7748C35.6675 35.3198 35.6675 34.5778 36.1225 34.1228Z" fill="black"/>
<path fill-rule="evenodd" clip-rule="evenodd" d="M23.7534 21.7539C24.2084 21.2989 24.9433 21.2989 25.3983 21.7539L27.8764 24.2319C28.3314 24.6869 28.3314 25.4289 27.8764 25.8839C27.4214 26.3389 26.6794 26.3389 26.2244 25.8839L23.7534 23.4059C23.2984 22.9509 23.2984 22.2089 23.7534 21.7539Z" fill="black"/>
</g>
<defs>
<filter id="filter0_d_10364_6327" x="0" y="0" width="64" height="64" filterUnits="userSpaceOnUse" color-interpolation-filters="sRGB">
<feFlood flood-opacity="0" result="BackgroundImageFix"/>
<feColorMatrix in="SourceAlpha" type="matrix" values="0 0 0 0 0 0 0 0 0 0 0 0 0 0 0 0 0 0 127 0" result="hardAlpha"/>
<feOffset dy="2"/>
<feGaussianBlur stdDeviation="4"/>
<feColorMatrix type="matrix" values="0 0 0 0 0 0 0 0 0 0 0 0 0 0 0 0 0 0 0.16 0"/>
<feBlend mode="normal" in2="BackgroundImageFix" result="effect1_dropShadow_10364_6327"/>
<feBlend mode="normal" in="SourceGraphic" in2="effect1_dropShadow_10364_6327" result="shape"/>
</filter>
</defs>
</svg>
