<svg width="64" height="64" viewBox="0 0 64 64" fill="none" xmlns="http://www.w3.org/2000/svg">
<g filter="url(#filter0_d_10410_4803)">
<g clip-path="url(#clip0_10410_4803)">
<rect x="10" y="10" width="44" height="44" rx="22" fill="#54090A"/>
<path d="M26.1699 40.897C27.7799 40.897 29.082 39.588 29.082 37.978C29.082 36.368 27.7799 35.059 26.1699 35.059C24.5599 35.059 23.251 36.368 23.251 37.978C23.251 39.588 24.5599 40.897 26.1699 40.897Z" fill="#D44546"/>
<path d="M37.832 40.897C39.442 40.897 40.751 39.588 40.751 37.978C40.751 36.368 39.442 35.059 37.832 35.059C36.222 35.059 34.9199 36.368 34.9199 37.978C34.9199 39.588 36.222 40.897 37.832 40.897Z" fill="#D44546"/>
<path fill-rule="evenodd" clip-rule="evenodd" d="M19.457 29.809C19.457 29.326 19.849 28.934 20.332 28.934H39.001C39.484 28.934 39.876 29.326 39.876 29.809C39.876 30.292 39.484 30.684 39.001 30.684H20.332C19.849 30.684 19.457 30.292 19.457 29.809Z" fill="#D44546"/>
<path fill-rule="evenodd" clip-rule="evenodd" d="M28.501 23.103C28.984 23.103 29.376 23.495 29.376 23.978V29.809C29.376 30.292 28.984 30.684 28.501 30.684C28.018 30.684 27.626 30.292 27.626 29.809V23.978C27.626 23.495 28.018 23.103 28.501 23.103Z" fill="#D44546"/>
<path fill-rule="evenodd" clip-rule="evenodd" d="M19.457 23.978C19.457 23.495 19.849 23.103 20.332 23.103H33.7021C34.7521 23.103 35.7319 23.614 36.3339 24.475L39.5889 29.13L42.7669 30.719C43.8589 31.265 44.5449 32.371 44.5449 33.589V36.816C44.5449 37.943 43.628 38.86 42.501 38.86H42.179C42.235 38.58 42.2699 38.286 42.2699 37.985C42.2699 35.535 40.282 33.554 37.832 33.554C35.382 33.554 33.401 35.542 33.401 37.985C33.401 38.286 33.4291 38.58 33.4851 38.86H30.5169C30.5729 38.58 30.601 38.286 30.601 37.985C30.601 35.535 28.6129 33.554 26.1699 33.554C23.7269 33.554 21.732 35.542 21.732 37.985C21.732 38.16 21.7459 38.342 21.7669 38.51L20.5911 37.922C19.8981 37.579 19.457 36.872 19.457 36.095V29.235C19.457 29.116 19.4849 28.99 19.5339 28.878L21.3191 24.86H20.332C19.849 24.86 19.457 24.468 19.457 23.985V23.978ZM23.237 24.853L21.4241 28.934H27.626V24.853H23.237ZM29.376 24.853V28.934H37.321L34.8991 25.476C34.6261 25.084 34.1781 24.853 33.7021 24.853H29.376Z" fill="#D44546"/>
</g>
<rect x="9" y="9" width="46" height="46" rx="23" stroke="black" stroke-width="2"/>
</g>
<defs>
<filter id="filter0_d_10410_4803" x="0" y="0" width="64" height="64" filterUnits="userSpaceOnUse" color-interpolation-filters="sRGB">
<feFlood flood-opacity="0" result="BackgroundImageFix"/>
<feColorMatrix in="SourceAlpha" type="matrix" values="0 0 0 0 0 0 0 0 0 0 0 0 0 0 0 0 0 0 127 0" result="hardAlpha"/>
<feOffset/>
<feGaussianBlur stdDeviation="4"/>
<feColorMatrix type="matrix" values="0 0 0 0 0 0 0 0 0 0 0 0 0 0 0 0 0 0 0.23 0"/>
<feBlend mode="normal" in2="BackgroundImageFix" result="effect1_dropShadow_10410_4803"/>
<feBlend mode="normal" in="SourceGraphic" in2="effect1_dropShadow_10410_4803" result="shape"/>
</filter>
<clipPath id="clip0_10410_4803">
<rect x="10" y="10" width="44" height="44" rx="22" fill="white"/>
</clipPath>
</defs>
</svg>
