<svg width="56" height="56" viewBox="0 0 56 56" fill="none" xmlns="http://www.w3.org/2000/svg">
<g filter="url(#filter0_d_8318_9170)">
<g clip-path="url(#clip0_8318_9170)">
<rect x="10" y="8" width="36" height="36" rx="18" fill="#54090A"/>
<path d="M38.6934 36.4885C38.6934 36.4885 38.7567 36.4395 38.8127 36.3835C39.2537 35.9145 39.9956 35.8935 40.4646 36.3345C40.9336 36.7755 40.9545 37.5105 40.5135 37.9865C40.1145 38.4135 39.6246 38.7285 39.0366 38.8195C38.4556 38.9035 37.9445 38.7425 37.5525 38.5395C37.1675 38.3435 36.8316 38.0705 36.5586 37.8325C36.4186 37.7135 36.2364 37.5455 36.0684 37.3915C35.9494 37.2865 35.8447 37.1885 35.7677 37.1185C35.2217 36.6285 34.9626 36.5165 34.8366 36.5095C34.8366 36.5095 34.7668 36.5095 34.6408 36.5935C34.4868 36.6985 34.2556 36.9225 33.9616 37.3705H33.9544C33.6114 37.8885 33.1845 38.3225 32.6385 38.5465C32.0575 38.7915 31.4906 38.7425 31.0146 38.5815C30.5736 38.4345 30.1886 38.1755 29.8806 37.9515C29.6636 37.7905 29.4326 37.5945 29.2226 37.4265C29.1526 37.3635 29.0757 37.3075 29.0127 37.2515C28.4107 36.7615 28.0957 36.5935 27.8927 36.5795H27.8855C27.8855 36.5795 27.5424 36.5445 26.9544 37.4195C26.6394 37.9095 26.2195 38.3225 25.6525 38.5255C25.0785 38.7355 24.5325 38.6585 24.0915 38.5115C23.6715 38.3645 23.2935 38.1335 22.9855 37.9165C22.7755 37.7765 22.5517 37.6085 22.3487 37.4545C22.2577 37.3845 22.1665 37.3145 22.0825 37.2515C21.4595 36.7965 21.1025 36.6145 20.8575 36.6005C20.7875 36.6005 20.4794 36.5795 19.9684 37.3635H19.9616C19.4506 38.1335 18.6806 38.8125 17.6586 38.8125C16.6366 38.8125 15.8597 38.1335 15.3627 37.3635C15.0057 36.8245 15.1597 36.1035 15.6987 35.7465C16.2377 35.3965 16.9658 35.5435 17.3158 36.0895C17.4838 36.3485 17.6026 36.4395 17.6586 36.4675C17.7146 36.4395 17.8408 36.3485 18.0158 36.0825C18.8068 34.8785 19.8004 34.1995 21.0044 34.2695C22.0264 34.3325 22.9014 34.9485 23.4684 35.3685C23.5944 35.4595 23.7066 35.5435 23.8116 35.6205C23.9866 35.7535 24.1478 35.8725 24.3158 35.9845C24.5748 36.1595 24.7426 36.2575 24.8616 36.2925H24.8825C24.8825 36.2925 24.9526 36.2155 25.0086 36.1315C25.8276 34.8925 26.8287 34.1575 28.0537 34.2415C29.0967 34.3185 29.9575 35.0045 30.4825 35.4315C30.5875 35.5155 30.6787 35.5925 30.7627 35.6625C30.9517 35.8165 31.1126 35.9495 31.2806 36.0755C31.5186 36.2575 31.6725 36.3345 31.7635 36.3695C31.8055 36.3345 31.8896 36.2575 32.0086 36.0825C32.7856 34.8995 33.7375 34.1155 34.9415 34.1715C35.9915 34.2205 36.8175 34.9205 37.3215 35.3685C37.4825 35.5155 37.6017 35.6205 37.7067 35.7255C37.8257 35.8375 37.9375 35.9355 38.0915 36.0685C38.3225 36.2785 38.4977 36.3975 38.6237 36.4675C38.6587 36.4815 38.6794 36.4955 38.6934 36.5025V36.4885Z" fill="#D44546"/>
<path fill-rule="evenodd" clip-rule="evenodd" d="M19.8286 20.1645C19.8286 18.8765 20.8785 17.8335 22.1665 17.8335H28.1866C29.5096 17.8335 30.7695 18.3935 31.6585 19.3805L35.8657 24.0565C36.2927 24.5325 36.2575 25.2745 35.7745 25.7015C35.2985 26.1355 34.5634 26.0935 34.1294 25.6175L29.9226 20.9415C29.4816 20.4515 28.8516 20.1715 28.1866 20.1715H22.1665V24.8405C22.1665 25.4845 21.6416 26.0095 20.9976 26.0095C20.3536 26.0095 19.8286 25.4845 19.8286 24.8405V20.1645Z" fill="#D44546"/>
<path fill-rule="evenodd" clip-rule="evenodd" d="M20.9976 14.3267C20.9976 13.6827 21.5225 13.1577 22.1665 13.1577H24.4976C25.7856 13.1577 26.8286 14.2007 26.8286 15.4887V18.9887C26.8286 19.6327 26.3105 20.1577 25.6665 20.1577C25.0225 20.1577 24.4976 19.6327 24.4976 18.9887V15.4887H22.1665C21.5225 15.4887 20.9976 14.9637 20.9976 14.3197V14.3267Z" fill="#D44546"/>
<path d="M16.3288 23.9519C16.0628 23.9519 15.8108 24.0709 15.6428 24.2809C15.4818 24.4909 15.4188 24.7639 15.4818 25.0229L17.5606 33.8779C18.4776 33.0029 19.6536 32.4289 21.1026 32.5129C22.6776 32.6109 23.9656 33.5559 24.5186 33.9549C25.4356 33.0309 26.6466 32.3799 28.1796 32.4849C29.7126 32.5899 30.8957 33.4999 31.4557 33.9549C32.3307 33.0449 33.4996 32.3379 35.0186 32.4079C36.5516 32.4779 37.7067 33.3669 38.2807 33.8639C38.3297 33.8079 38.3716 33.7449 38.4136 33.6889C39.1626 32.6249 39.6316 31.2599 39.9326 29.9789C40.2406 28.6839 40.3878 27.3959 40.4648 26.4369C40.4998 25.9539 40.5206 25.5549 40.5276 25.2749C40.5346 25.1349 40.5347 24.9109 40.5417 24.8269C40.5417 24.3369 40.1497 23.9449 39.6667 23.9449H16.3288V23.9519Z" fill="#D44546"/>
</g>
<rect x="9" y="7" width="38" height="38" rx="19" stroke="#37424A" stroke-width="2"/>
</g>
<defs>
<filter id="filter0_d_8318_9170" x="0" y="0" width="56" height="56" filterUnits="userSpaceOnUse" color-interpolation-filters="sRGB">
<feFlood flood-opacity="0" result="BackgroundImageFix"/>
<feColorMatrix in="SourceAlpha" type="matrix" values="0 0 0 0 0 0 0 0 0 0 0 0 0 0 0 0 0 0 127 0" result="hardAlpha"/>
<feOffset dy="2"/>
<feGaussianBlur stdDeviation="4"/>
<feColorMatrix type="matrix" values="0 0 0 0 0 0 0 0 0 0 0 0 0 0 0 0 0 0 0.16 0"/>
<feBlend mode="normal" in2="BackgroundImageFix" result="effect1_dropShadow_8318_9170"/>
<feBlend mode="normal" in="SourceGraphic" in2="effect1_dropShadow_8318_9170" result="shape"/>
</filter>
<clipPath id="clip0_8318_9170">
<rect x="10" y="8" width="36" height="36" rx="18" fill="white"/>
</clipPath>
</defs>
</svg>
