<svg width="64" height="64" viewBox="0 0 64 64" fill="none" xmlns="http://www.w3.org/2000/svg">
<g filter="url(#filter0_d_10364_6323)">
<path d="M10 32C10 19.8497 19.8497 10 32 10C44.1503 10 54 19.8497 54 32C54 44.1503 44.1503 54 32 54C19.8497 54 10 44.1503 10 32Z" fill="#54090A"/>
<path d="M32 9C44.7025 9 55 19.2975 55 32C55 44.7025 44.7025 55 32 55C19.2975 55 9 44.7025 9 32C9 19.2975 19.2975 9 32 9Z" stroke="black" stroke-width="2"/>
<path fill-rule="evenodd" clip-rule="evenodd" d="M19.168 21.5C19.168 20.856 19.6861 20.331 20.3301 20.331H28.8911C31.1591 20.331 33.3711 21.066 35.1911 22.431L42.0301 27.562C43.7941 28.885 44.8301 30.957 44.8301 33.162C44.8301 35.094 43.2691 36.662 41.3301 36.662H20.3301C19.6861 36.662 19.168 36.137 19.168 35.493V32.868H27.3369C27.8199 32.868 28.2119 32.476 28.2119 31.993C28.2119 28.934 25.727 26.449 22.668 26.449H19.168V21.493V21.5ZM19.168 28.206V31.125H26.357C25.965 29.452 24.46 28.206 22.668 28.206H19.168ZM40.6301 29.431C40.8471 29.592 41.043 29.767 41.218 29.956H37.8301C35.0931 29.956 32.874 27.737 32.874 25V23.705C33.189 23.88 33.4971 24.083 33.7911 24.3L40.6301 29.431Z" fill="#D44546"/>
<path fill-rule="evenodd" clip-rule="evenodd" d="M19.168 40.169C19.168 39.525 19.6861 39 20.3301 39H43.668C44.312 39 44.8301 39.525 44.8301 40.169C44.8301 40.813 44.312 41.338 43.668 41.338H20.3301C19.6861 41.338 19.168 40.813 19.168 40.169Z" fill="#D44546"/>
<path fill-rule="evenodd" clip-rule="evenodd" d="M24.999 39C25.643 39 26.168 39.525 26.168 40.169V42.5C26.168 43.144 25.643 43.669 24.999 43.669C24.355 43.669 23.8301 43.144 23.8301 42.5V40.169C23.8301 39.525 24.355 39 24.999 39ZM31.999 39C32.643 39 33.168 39.525 33.168 40.169V42.5C33.168 43.144 32.643 43.669 31.999 43.669C31.355 43.669 30.8301 43.144 30.8301 42.5V40.169C30.8301 39.525 31.355 39 31.999 39ZM38.999 39C39.643 39 40.168 39.525 40.168 40.169V42.5C40.168 43.144 39.643 43.669 38.999 43.669C38.355 43.669 37.8301 43.144 37.8301 42.5V40.169C37.8301 39.525 38.355 39 38.999 39Z" fill="#D44546"/>
</g>
<defs>
<filter id="filter0_d_10364_6323" x="0" y="0" width="64" height="64" filterUnits="userSpaceOnUse" color-interpolation-filters="sRGB">
<feFlood flood-opacity="0" result="BackgroundImageFix"/>
<feColorMatrix in="SourceAlpha" type="matrix" values="0 0 0 0 0 0 0 0 0 0 0 0 0 0 0 0 0 0 127 0" result="hardAlpha"/>
<feOffset/>
<feGaussianBlur stdDeviation="4"/>
<feColorMatrix type="matrix" values="0 0 0 0 0 0 0 0 0 0 0 0 0 0 0 0 0 0 0.23 0"/>
<feBlend mode="normal" in2="BackgroundImageFix" result="effect1_dropShadow_10364_6323"/>
<feBlend mode="normal" in="SourceGraphic" in2="effect1_dropShadow_10364_6323" result="shape"/>
</filter>
</defs>
</svg>
