<svg width="64" height="64" viewBox="0 0 64 64" fill="none" xmlns="http://www.w3.org/2000/svg">
<g filter="url(#filter0_d_10364_6323)">
<path d="M10 30C10 17.8497 19.8497 8 32 8C44.1503 8 54 17.8497 54 30C54 42.1503 44.1503 52 32 52C19.8497 52 10 42.1503 10 30Z" fill="#54090A"/>
<path d="M32 7C44.7025 7 55 17.2975 55 30C55 42.7025 44.7025 53 32 53C19.2975 53 9 42.7025 9 30C9 17.2975 19.2975 7 32 7Z" stroke="black" stroke-width="2"/>
<path fill-rule="evenodd" clip-rule="evenodd" d="M19.168 19.5C19.168 18.856 19.6861 18.331 20.3301 18.331H28.8911C31.1591 18.331 33.3711 19.066 35.1911 20.431L42.0301 25.562C43.7941 26.885 44.8301 28.957 44.8301 31.162C44.8301 33.094 43.2691 34.662 41.3301 34.662H20.3301C19.6861 34.662 19.168 34.137 19.168 33.493V30.868H27.3369C27.8199 30.868 28.2119 30.476 28.2119 29.993C28.2119 26.934 25.727 24.449 22.668 24.449H19.168V19.493V19.5ZM19.168 26.206V29.125H26.357C25.965 27.452 24.46 26.206 22.668 26.206H19.168ZM40.6301 27.431C40.8471 27.592 41.043 27.767 41.218 27.956H37.8301C35.0931 27.956 32.874 25.737 32.874 23V21.705C33.189 21.88 33.4971 22.083 33.7911 22.3L40.6301 27.431Z" fill="#D44546"/>
<path fill-rule="evenodd" clip-rule="evenodd" d="M19.168 38.169C19.168 37.525 19.6861 37 20.3301 37H43.668C44.312 37 44.8301 37.525 44.8301 38.169C44.8301 38.813 44.312 39.338 43.668 39.338H20.3301C19.6861 39.338 19.168 38.813 19.168 38.169Z" fill="#D44546"/>
<path fill-rule="evenodd" clip-rule="evenodd" d="M24.999 37C25.643 37 26.168 37.525 26.168 38.169V40.5C26.168 41.144 25.643 41.669 24.999 41.669C24.355 41.669 23.8301 41.144 23.8301 40.5V38.169C23.8301 37.525 24.355 37 24.999 37ZM31.999 37C32.643 37 33.168 37.525 33.168 38.169V40.5C33.168 41.144 32.643 41.669 31.999 41.669C31.355 41.669 30.8301 41.144 30.8301 40.5V38.169C30.8301 37.525 31.355 37 31.999 37ZM38.999 37C39.643 37 40.168 37.525 40.168 38.169V40.5C40.168 41.144 39.643 41.669 38.999 41.669C38.355 41.669 37.8301 41.144 37.8301 40.5V38.169C37.8301 37.525 38.355 37 38.999 37Z" fill="#D44546"/>
</g>
<defs>
<filter id="filter0_d_10364_6323" x="0" y="0" width="64" height="64" filterUnits="userSpaceOnUse" color-interpolation-filters="sRGB">
<feFlood flood-opacity="0" result="BackgroundImageFix"/>
<feColorMatrix in="SourceAlpha" type="matrix" values="0 0 0 0 0 0 0 0 0 0 0 0 0 0 0 0 0 0 127 0" result="hardAlpha"/>
<feOffset dy="2"/>
<feGaussianBlur stdDeviation="4"/>
<feColorMatrix type="matrix" values="0 0 0 0 0 0 0 0 0 0 0 0 0 0 0 0 0 0 0.16 0"/>
<feBlend mode="normal" in2="BackgroundImageFix" result="effect1_dropShadow_10364_6323"/>
<feBlend mode="normal" in="SourceGraphic" in2="effect1_dropShadow_10364_6323" result="shape"/>
</filter>
</defs>
</svg>
