<svg width="64" height="64" viewBox="0 0 64 64" fill="none" xmlns="http://www.w3.org/2000/svg">
<g filter="url(#filter0_d_10646_46972)">
<g clip-path="url(#clip0_10646_46972)">
<path d="M10 32C10 19.8497 19.8497 10 32 10V10C44.1503 10 54 19.8497 54 32V32C54 44.1503 44.1503 54 32 54V54C19.8497 54 10 44.1503 10 32V32Z" fill="#8F1011"/>
<path fill-rule="evenodd" clip-rule="evenodd" d="M24.7061 33.1662C22.7741 33.1662 21.2061 34.7342 21.2061 36.6662C21.2061 38.5982 22.7741 40.1662 24.7061 40.1662C26.6381 40.1662 28.2061 38.5982 28.2061 36.6662C28.2061 34.7342 26.6381 33.1662 24.7061 33.1662ZM18.875 36.6662C18.875 33.4462 21.4861 30.8352 24.7061 30.8352C27.9261 30.8352 30.5371 33.4462 30.5371 36.6662C30.5371 39.8862 27.9261 42.4972 24.7061 42.4972C21.4861 42.4972 18.875 39.8862 18.875 36.6662Z" fill="white"/>
<path fill-rule="evenodd" clip-rule="evenodd" d="M39.2871 33.1662C37.3551 33.1662 35.7871 34.7342 35.7871 36.6662C35.7871 38.5982 37.3551 40.1662 39.2871 40.1662C41.2191 40.1662 42.7871 38.5982 42.7871 36.6662C42.7871 34.7342 41.2261 33.1662 39.2871 33.1662ZM33.4561 36.6662C33.4561 33.4462 36.0671 30.8352 39.2871 30.8352C42.5071 30.8352 45.125 33.4462 45.125 36.6662C45.125 39.8862 42.5071 42.4972 39.2871 42.4972C36.0671 42.4972 33.4561 39.8862 33.4561 36.6662Z" fill="white"/>
<path fill-rule="evenodd" clip-rule="evenodd" d="M36.9909 26.3481C37.5369 26.6911 37.7051 27.4121 37.3621 27.9581L31.5311 37.2891C31.3141 37.6321 30.9431 37.8351 30.5371 37.8351H24.7061C24.0621 37.8351 23.5371 37.3101 23.5371 36.6661C23.5371 36.0221 24.0621 35.4971 24.7061 35.4971H29.8932L35.3811 26.7191C35.7241 26.1731 36.4449 26.0051 36.9909 26.3481Z" fill="white"/>
<path fill-rule="evenodd" clip-rule="evenodd" d="M22.375 26.1663C22.375 25.5223 22.8931 24.9973 23.5371 24.9973H29.375C30.019 24.9973 30.5371 25.5223 30.5371 26.1663C30.5371 26.8103 30.019 27.3353 29.375 27.3353H28.3879L33.1833 32.9913C33.5963 33.4813 33.5332 34.2163 33.0432 34.6363C32.5532 35.0493 31.8178 34.9933 31.3978 34.4963L25.3288 27.3283H23.5371C22.8931 27.3283 22.375 26.8033 22.375 26.1593V26.1663Z" fill="white"/>
<path fill-rule="evenodd" clip-rule="evenodd" d="M36.7879 23.9054C37.3059 23.9334 37.8028 23.9894 38.2788 24.1154C39.1258 24.3394 39.6649 24.7384 39.9099 25.5784C40.0849 26.1944 40.7362 26.5584 41.3522 26.3764C41.9752 26.2014 42.332 25.5504 42.15 24.9344C41.618 23.0724 40.2461 22.2254 38.8811 21.8614C37.8661 21.5884 36.7178 21.5534 35.8568 21.5254C35.6468 21.5254 35.4581 21.5114 35.2901 21.5044C34.4431 21.4624 33.8762 22.2674 34.0932 23.0094L38.1674 36.9954C38.3494 37.6114 38.9999 37.9684 39.6159 37.7864C40.2319 37.6044 40.5888 36.9604 40.4068 36.3374L36.7879 23.8984V23.9054Z" fill="white"/>
</g>
<path d="M32 9C44.7025 9 55 19.2975 55 32C55 44.7025 44.7025 55 32 55C19.2975 55 9 44.7025 9 32C9 19.2975 19.2975 9 32 9Z" stroke="black" stroke-width="2"/>
</g>
<defs>
<filter id="filter0_d_10646_46972" x="0" y="0" width="64" height="64" filterUnits="userSpaceOnUse" color-interpolation-filters="sRGB">
<feFlood flood-opacity="0" result="BackgroundImageFix"/>
<feColorMatrix in="SourceAlpha" type="matrix" values="0 0 0 0 0 0 0 0 0 0 0 0 0 0 0 0 0 0 127 0" result="hardAlpha"/>
<feOffset/>
<feGaussianBlur stdDeviation="4"/>
<feColorMatrix type="matrix" values="0 0 0 0 0 0 0 0 0 0 0 0 0 0 0 0 0 0 0.23 0"/>
<feBlend mode="normal" in2="BackgroundImageFix" result="effect1_dropShadow_10646_46972"/>
<feBlend mode="normal" in="SourceGraphic" in2="effect1_dropShadow_10646_46972" result="shape"/>
</filter>
<clipPath id="clip0_10646_46972">
<path d="M10 32C10 19.8497 19.8497 10 32 10V10C44.1503 10 54 19.8497 54 32V32C54 44.1503 44.1503 54 32 54V54C19.8497 54 10 44.1503 10 32V32Z" fill="white"/>
</clipPath>
</defs>
</svg>
