<svg width="56" height="56" viewBox="0 0 56 56" fill="none" xmlns="http://www.w3.org/2000/svg">
<g filter="url(#filter0_d_8318_9131)">
<g clip-path="url(#clip0_8318_9131)">
<rect x="10" y="10" width="36" height="36" rx="18" fill="#54090A"/>
<path fill-rule="evenodd" clip-rule="evenodd" d="M18.668 33.831C18.024 33.831 17.499 34.356 17.499 35C17.499 35.644 18.024 36.169 18.668 36.169C19.312 36.169 19.8301 35.644 19.8301 35C19.8301 34.356 19.312 33.831 18.668 33.831ZM15.168 35C15.168 33.068 16.736 31.5 18.668 31.5C20.6 31.5 22.168 33.068 22.168 35C22.168 36.932 20.6 38.5 18.668 38.5C16.736 38.5 15.168 36.932 15.168 35Z" fill="#D44546"/>
<path fill-rule="evenodd" clip-rule="evenodd" d="M37.3301 33.831C36.6861 33.831 36.168 34.356 36.168 35C36.168 35.644 36.6861 36.169 37.3301 36.169C37.9741 36.169 38.499 35.644 38.499 35C38.499 34.356 37.9741 33.831 37.3301 33.831ZM33.8301 35C33.8301 33.068 35.3981 31.5 37.3301 31.5C39.2621 31.5 40.8301 33.068 40.8301 35C40.8301 36.932 39.2621 38.5 37.3301 38.5C35.3981 38.5 33.8301 36.932 33.8301 35Z" fill="#D44546"/>
<path fill-rule="evenodd" clip-rule="evenodd" d="M30.3299 18.669C30.3299 18.025 30.8548 17.5 31.4988 17.5H32.6397C34.2147 17.5 35.594 18.55 36.014 20.062L38.4571 28.854C38.5551 29.204 38.4849 29.582 38.2609 29.869C38.0439 30.156 37.6939 30.331 37.3299 30.331C35.8039 30.331 34.4528 31.059 33.5988 32.2C33.0108 32.977 32.6678 33.95 32.6678 35C32.6678 35.644 32.1428 36.169 31.4988 36.169H20.9988C20.6908 36.169 20.39 36.05 20.173 35.826C19.956 35.609 19.8301 35.308 19.8301 35C19.8301 34.356 19.312 33.831 18.668 33.831C18.024 33.831 17.5268 33.341 17.4988 32.711C17.4708 32.088 17.947 31.549 18.57 31.5L32.073 30.373C33.046 29.274 34.355 28.476 35.839 28.154L33.767 20.685C33.627 20.181 33.1647 19.831 32.6397 19.831H31.4988C30.8548 19.831 30.3299 19.306 30.3299 18.662V18.669Z" fill="#D44546"/>
</g>
<rect x="9" y="9" width="38" height="38" rx="19" stroke="black" stroke-width="2"/>
</g>
<defs>
<filter id="filter0_d_8318_9131" x="0" y="0" width="56" height="56" filterUnits="userSpaceOnUse" color-interpolation-filters="sRGB">
<feFlood flood-opacity="0" result="BackgroundImageFix"/>
<feColorMatrix in="SourceAlpha" type="matrix" values="0 0 0 0 0 0 0 0 0 0 0 0 0 0 0 0 0 0 127 0" result="hardAlpha"/>
<feOffset/>
<feGaussianBlur stdDeviation="4"/>
<feColorMatrix type="matrix" values="0 0 0 0 0 0 0 0 0 0 0 0 0 0 0 0 0 0 0.23 0"/>
<feBlend mode="normal" in2="BackgroundImageFix" result="effect1_dropShadow_8318_9131"/>
<feBlend mode="normal" in="SourceGraphic" in2="effect1_dropShadow_8318_9131" result="shape"/>
</filter>
<clipPath id="clip0_8318_9131">
<rect x="10" y="10" width="36" height="36" rx="18" fill="white"/>
</clipPath>
</defs>
</svg>
