<svg width="64" height="69" viewBox="0 0 64 69" fill="none" xmlns="http://www.w3.org/2000/svg">
<g filter="url(#filter0_d_805_7274)">
<path d="M28.9339 56.5875L28.934 56.5875C30.5073 58.4299 33.5121 58.4862 35.1319 56.6611L35.132 56.661C36.9983 54.5579 39.1407 52.5639 41.3403 50.5389C41.4722 50.4174 41.6043 50.2959 41.7367 50.1741C43.7972 48.2784 45.8947 46.3487 47.7818 44.3154C51.8041 39.9816 55 35.0433 55 28.5984C55 16.609 44.6395 7 32 7C19.3605 7 9 16.609 9 28.5984C9 35.1686 12.2558 40.0504 16.3178 44.3186C18.0651 46.1546 19.9891 47.9049 21.8856 49.63C22.1871 49.9043 22.4879 50.1779 22.7872 50.4512C24.9836 52.4565 27.1082 54.4492 28.9339 56.5875Z" fill="#8F1011" stroke="#37424A" stroke-width="2" stroke-linejoin="round"/>
<path fill-rule="evenodd" clip-rule="evenodd" d="M24.7061 31.1664C22.7741 31.1664 21.2061 32.7344 21.2061 34.6664C21.2061 36.5984 22.7741 38.1664 24.7061 38.1664C26.6381 38.1664 28.2061 36.5984 28.2061 34.6664C28.2061 32.7344 26.6381 31.1664 24.7061 31.1664ZM18.875 34.6664C18.875 31.4464 21.4861 28.8354 24.7061 28.8354C27.9261 28.8354 30.5371 31.4464 30.5371 34.6664C30.5371 37.8864 27.9261 40.4973 24.7061 40.4973C21.4861 40.4973 18.875 37.8864 18.875 34.6664Z" fill="white"/>
<path fill-rule="evenodd" clip-rule="evenodd" d="M39.2871 31.1664C37.3551 31.1664 35.7871 32.7344 35.7871 34.6664C35.7871 36.5984 37.3551 38.1664 39.2871 38.1664C41.2191 38.1664 42.7871 36.5984 42.7871 34.6664C42.7871 32.7344 41.2261 31.1664 39.2871 31.1664ZM33.4561 34.6664C33.4561 31.4464 36.0671 28.8354 39.2871 28.8354C42.5071 28.8354 45.125 31.4464 45.125 34.6664C45.125 37.8864 42.5071 40.4973 39.2871 40.4973C36.0671 40.4973 33.4561 37.8864 33.4561 34.6664Z" fill="white"/>
<path fill-rule="evenodd" clip-rule="evenodd" d="M36.9909 24.3482C37.5369 24.6912 37.7051 25.4122 37.3621 25.9582L31.5311 35.2892C31.3141 35.6322 30.9431 35.8352 30.5371 35.8352H24.7061C24.0621 35.8352 23.5371 35.3102 23.5371 34.6662C23.5371 34.0222 24.0621 33.4972 24.7061 33.4972H29.8932L35.3811 24.7192C35.7241 24.1732 36.4449 24.0052 36.9909 24.3482Z" fill="white"/>
<path fill-rule="evenodd" clip-rule="evenodd" d="M22.375 24.1665C22.375 23.5225 22.8931 22.9975 23.5371 22.9975H29.375C30.019 22.9975 30.5371 23.5225 30.5371 24.1665C30.5371 24.8105 30.019 25.3355 29.375 25.3355H28.3879L33.1833 30.9915C33.5963 31.4815 33.5332 32.2165 33.0432 32.6365C32.5532 33.0495 31.8178 32.9935 31.3978 32.4965L25.3288 25.3285H23.5371C22.8931 25.3285 22.375 24.8035 22.375 24.1595V24.1665Z" fill="white"/>
<path fill-rule="evenodd" clip-rule="evenodd" d="M36.7879 21.9055C37.3059 21.9335 37.8028 21.9895 38.2788 22.1155C39.1258 22.3395 39.6649 22.7385 39.9099 23.5785C40.0849 24.1945 40.7362 24.5585 41.3522 24.3765C41.9752 24.2015 42.332 23.5505 42.15 22.9345C41.618 21.0725 40.2461 20.2255 38.8811 19.8615C37.8661 19.5885 36.7178 19.5535 35.8568 19.5255C35.6468 19.5255 35.4581 19.5115 35.2901 19.5045C34.4431 19.4625 33.8762 20.2675 34.0932 21.0095L38.1674 34.9955C38.3494 35.6115 38.9999 35.9685 39.6159 35.7865C40.2319 35.6045 40.5888 34.9605 40.4068 34.3375L36.7879 21.8985V21.9055Z" fill="white"/>
</g>
<defs>
<filter id="filter0_d_805_7274" x="0" y="0" width="64" height="69" filterUnits="userSpaceOnUse" color-interpolation-filters="sRGB">
<feFlood flood-opacity="0" result="BackgroundImageFix"/>
<feColorMatrix in="SourceAlpha" type="matrix" values="0 0 0 0 0 0 0 0 0 0 0 0 0 0 0 0 0 0 127 0" result="hardAlpha"/>
<feOffset dy="2"/>
<feGaussianBlur stdDeviation="4"/>
<feColorMatrix type="matrix" values="0 0 0 0 0 0 0 0 0 0 0 0 0 0 0 0 0 0 0.16 0"/>
<feBlend mode="normal" in2="BackgroundImageFix" result="effect1_dropShadow_805_7274"/>
<feBlend mode="normal" in="SourceGraphic" in2="effect1_dropShadow_805_7274" result="shape"/>
</filter>
</defs>
</svg>
