<svg width="40" height="40" viewBox="0 0 40 40" fill="none" xmlns="http://www.w3.org/2000/svg">
<path fill-rule="evenodd" clip-rule="evenodd" d="M19.9948 2.08594C13.6248 2.08594 7.53479 5.85594 4.99479 11.8059C2.62479 17.3459 3.90475 22.0559 6.57475 26.0959C8.76475 29.4059 11.9548 32.3559 14.8448 35.0259C15.3948 35.5359 15.9247 36.0359 16.4447 36.5159C17.4047 37.4159 18.6848 37.9159 19.9948 37.9159C21.3048 37.9159 22.5848 37.4159 23.5448 36.5259C24.0348 36.0659 24.5449 35.5959 25.0549 35.1259C27.9749 32.4459 31.2148 29.4559 33.4248 26.1059C36.0948 22.0659 37.3748 17.3459 35.0048 11.8159C32.4548 5.86594 26.3748 2.09594 19.9948 2.09594V2.08594ZM19.9948 11.6759C16.3148 11.6759 13.3247 14.6559 13.3247 18.3459C13.3247 22.0359 16.3148 25.0159 19.9948 25.0159C23.6748 25.0159 26.6648 22.0359 26.6648 18.3459C26.6648 14.6559 23.6748 11.6759 19.9948 11.6759Z" fill="#006A80" stroke="white"/>
</svg>
