<svg width="76" height="48" viewBox="0 0 76 48" fill="none" xmlns="http://www.w3.org/2000/svg">
<g filter="url(#filter0_d_8318_6965)">
<path d="M8 12C8 9.79086 9.79086 8 12 8H64C66.2091 8 68 9.79086 68 12V36C68 38.2091 66.2091 40 64 40H12C9.79086 40 8 38.2091 8 36V12Z" fill="white"/>
<path d="M12 9H64C65.6569 9 67 10.3431 67 12V36C67 37.6569 65.6569 39 64 39H12C10.3431 39 9 37.6569 9 36V12C9 10.3431 10.3431 9 12 9Z" stroke="white" stroke-width="2"/>
<rect x="10" y="10" width="28" height="28" rx="2" fill="#4C1A4C"/>
<path d="M30.25 32.54H17.75C16.485 32.54 15.46 31.51 15.46 30.25V17.75C15.46 16.485 16.485 15.46 17.75 15.46H30.25C31.515 15.46 32.54 16.49 32.54 17.75V30.25C32.54 31.515 31.515 32.54 30.25 32.54ZM17.75 16.71C17.175 16.71 16.71 17.175 16.71 17.75V30.25C16.71 30.825 17.175 31.29 17.75 31.29H30.25C30.825 31.29 31.29 30.825 31.29 30.25V17.75C31.29 17.175 30.825 16.71 30.25 16.71H17.75Z" fill="white"/>
<path d="M21.085 29.21C20.74 29.21 20.46 28.93 20.46 28.585V19.42C20.46 19.075 20.74 18.795 21.085 18.795H24.415C26.14 18.795 27.54 20.195 27.54 21.92C27.54 23.645 26.14 25.045 24.415 25.045H21.71V28.585C21.71 28.93 21.43 29.21 21.085 29.21ZM21.71 23.79H24.415C25.45 23.79 26.29 22.95 26.29 21.915C26.29 20.88 25.45 20.04 24.415 20.04H21.71V23.79Z" fill="white"/>
</g>
<defs>
<filter id="filter0_d_8318_6965" x="0" y="0" width="76" height="48" filterUnits="userSpaceOnUse" color-interpolation-filters="sRGB">
<feFlood flood-opacity="0" result="BackgroundImageFix"/>
<feColorMatrix in="SourceAlpha" type="matrix" values="0 0 0 0 0 0 0 0 0 0 0 0 0 0 0 0 0 0 127 0" result="hardAlpha"/>
<feOffset/>
<feGaussianBlur stdDeviation="4"/>
<feColorMatrix type="matrix" values="0 0 0 0 0 0 0 0 0 0 0 0 0 0 0 0 0 0 0.23 0"/>
<feBlend mode="normal" in2="BackgroundImageFix" result="effect1_dropShadow_8318_6965"/>
<feBlend mode="normal" in="SourceGraphic" in2="effect1_dropShadow_8318_6965" result="shape"/>
</filter>
</defs>
</svg>
