<svg width="76" height="48" viewBox="0 0 76 48" fill="none" xmlns="http://www.w3.org/2000/svg">
<g filter="url(#filter0_d_8318_6962)">
<path d="M8 10C8 7.79086 9.79086 6 12 6H64C66.2091 6 68 7.79086 68 10V34C68 36.2091 66.2091 38 64 38H12C9.79086 38 8 36.2091 8 34V10Z" fill="white"/>
<path d="M12 7H64C65.6569 7 67 8.34315 67 10V34C67 35.6569 65.6569 37 64 37H12C10.3431 37 9 35.6569 9 34V10C9 8.34315 10.3431 7 12 7Z" stroke="white" stroke-width="2"/>
<rect x="10" y="8" width="28" height="28" rx="2" fill="#862D86"/>
<path d="M19.835 28.355C20.985 28.355 21.915 27.42 21.915 26.27C21.915 25.12 20.985 24.185 19.835 24.185C18.685 24.185 17.75 25.12 17.75 26.27C17.75 27.42 18.685 28.355 19.835 28.355Z" fill="white"/>
<path d="M28.165 28.355C29.315 28.355 30.25 27.42 30.25 26.27C30.25 25.12 29.315 24.185 28.165 24.185C27.015 24.185 26.085 25.12 26.085 26.27C26.085 27.42 27.015 28.355 28.165 28.355Z" fill="white"/>
<path fill-rule="evenodd" clip-rule="evenodd" d="M15.04 20.435C15.04 20.09 15.32 19.81 15.665 19.81H29C29.345 19.81 29.625 20.09 29.625 20.435C29.625 20.78 29.345 21.06 29 21.06H15.665C15.32 21.06 15.04 20.78 15.04 20.435Z" fill="white"/>
<path fill-rule="evenodd" clip-rule="evenodd" d="M21.5 15.645C21.845 15.645 22.125 15.925 22.125 16.27V20.435C22.125 20.78 21.845 21.06 21.5 21.06C21.155 21.06 20.875 20.78 20.875 20.435V16.27C20.875 15.925 21.155 15.645 21.5 15.645Z" fill="white"/>
<path fill-rule="evenodd" clip-rule="evenodd" d="M15.04 16.27C15.04 15.925 15.32 15.645 15.665 15.645H25.2151C25.9651 15.645 26.665 16.01 27.095 16.625L29.4199 19.95L31.6899 21.085C32.4699 21.475 32.96 22.265 32.96 23.135V25.44C32.96 26.245 32.305 26.9 31.5 26.9H31.27C31.31 26.7 31.335 26.49 31.335 26.275C31.335 24.525 29.915 23.11 28.165 23.11C26.415 23.11 25 24.53 25 26.275C25 26.49 25.0201 26.7 25.0601 26.9H22.9399C22.9799 26.7 23 26.49 23 26.275C23 24.525 21.58 23.11 19.835 23.11C18.09 23.11 16.665 24.53 16.665 26.275C16.665 26.4 16.6749 26.53 16.6899 26.65L15.8501 26.23C15.3551 25.985 15.04 25.48 15.04 24.925V20.025C15.04 19.94 15.06 19.85 15.095 19.77L16.3701 16.9H15.665C15.32 16.9 15.04 16.62 15.04 16.275V16.27ZM17.74 16.895L16.4451 19.81H20.875V16.895H17.74ZM22.125 16.895V19.81H27.8L26.0701 17.34C25.8751 17.06 25.5551 16.895 25.2151 16.895H22.125Z" fill="white"/>
</g>
<defs>
<filter id="filter0_d_8318_6962" x="0" y="0" width="76" height="48" filterUnits="userSpaceOnUse" color-interpolation-filters="sRGB">
<feFlood flood-opacity="0" result="BackgroundImageFix"/>
<feColorMatrix in="SourceAlpha" type="matrix" values="0 0 0 0 0 0 0 0 0 0 0 0 0 0 0 0 0 0 127 0" result="hardAlpha"/>
<feOffset dy="2"/>
<feGaussianBlur stdDeviation="4"/>
<feColorMatrix type="matrix" values="0 0 0 0 0 0 0 0 0 0 0 0 0 0 0 0 0 0 0.16 0"/>
<feBlend mode="normal" in2="BackgroundImageFix" result="effect1_dropShadow_8318_6962"/>
<feBlend mode="normal" in="SourceGraphic" in2="effect1_dropShadow_8318_6962" result="shape"/>
</filter>
</defs>
</svg>
