<svg width="102" height="65" viewBox="0 0 102 65" fill="none" xmlns="http://www.w3.org/2000/svg">
<g filter="url(#filter0_d_648_12469)">
<mask id="path-1-inside-1_648_12469" fill="white">
<path fill-rule="evenodd" clip-rule="evenodd" d="M16 6C11.5817 6 8 9.58172 8 14V42C8 46.4183 11.5817 50 16 50H40.0486C43.0393 50 45.9778 51.0638 48.0226 53.2462C48.2503 53.4893 48.4744 53.7343 48.6944 53.9815C49.879 55.312 52.1727 55.3473 53.384 54.0382C53.6458 53.7553 53.9126 53.4746 54.184 53.1957C56.2608 51.0621 59.1772 50 62.1547 50H86C90.4183 50 94 46.4183 94 42V14C94 9.58172 90.4183 6 86 6H16Z"/>
</mask>
<path fill-rule="evenodd" clip-rule="evenodd" d="M16 6C11.5817 6 8 9.58172 8 14V42C8 46.4183 11.5817 50 16 50H40.0486C43.0393 50 45.9778 51.0638 48.0226 53.2462C48.2503 53.4893 48.4744 53.7343 48.6944 53.9815C49.879 55.312 52.1727 55.3473 53.384 54.0382C53.6458 53.7553 53.9126 53.4746 54.184 53.1957C56.2608 51.0621 59.1772 50 62.1547 50H86C90.4183 50 94 46.4183 94 42V14C94 9.58172 90.4183 6 86 6H16Z" fill="white"/>
<path d="M48.6944 53.9815L47.2005 55.3112L47.2006 55.3114L48.6944 53.9815ZM53.384 54.0382L54.852 55.3965L54.8521 55.3964L53.384 54.0382ZM54.184 53.1957L52.7509 51.8008L54.184 53.1957ZM48.0226 53.2462L49.4821 51.8788L48.0226 53.2462ZM10 14C10 10.6863 12.6863 8 16 8V4C10.4772 4 6 8.47715 6 14H10ZM10 42V14H6V42H10ZM16 48C12.6863 48 10 45.3137 10 42H6C6 47.5228 10.4772 52 16 52V48ZM40.0486 48H16V52H40.0486V48ZM46.5631 54.6137C46.7799 54.8451 46.9925 55.0776 47.2005 55.3112L50.1883 52.6517C49.9563 52.3911 49.7207 52.1335 49.4821 51.8788L46.5631 54.6137ZM47.2006 55.3114C49.1611 57.5134 52.8291 57.5827 54.852 55.3965L51.916 52.6799C51.5164 53.1118 50.597 53.1107 50.1882 52.6515L47.2006 55.3114ZM54.8521 55.3964C55.1015 55.1269 55.3567 54.8584 55.6172 54.5907L52.7509 51.8008C52.4686 52.0907 52.19 52.3837 51.916 52.68L54.8521 55.3964ZM86 48H62.1547V52H86V48ZM92 42C92 45.3137 89.3137 48 86 48V52C91.5229 52 96 47.5228 96 42H92ZM92 14V42H96V14H92ZM86 8C89.3137 8 92 10.6863 92 14H96C96 8.47715 91.5229 4 86 4V8ZM16 8H86V4H16V8ZM55.6172 54.5907C57.2654 52.8974 59.6375 52 62.1547 52V48C58.717 48 55.2562 49.2268 52.7509 51.8008L55.6172 54.5907ZM40.0486 52C42.5852 52 44.9591 52.9017 46.5631 54.6137L49.4821 51.8788C46.9964 49.2258 43.4933 48 40.0486 48V52Z" fill="white" mask="url(#path-1-inside-1_648_12469)"/>
<rect x="10" y="8" width="40" height="40" rx="6" fill="#862D86"/>
<path d="M24.1689 36.8976C25.7789 36.8976 27.0811 35.5886 27.0811 33.9786C27.0811 32.3686 25.7789 31.0596 24.1689 31.0596C22.5589 31.0596 21.25 32.3686 21.25 33.9786C21.25 35.5886 22.5589 36.8976 24.1689 36.8976Z" fill="white"/>
<path d="M35.8311 36.8976C37.4411 36.8976 38.75 35.5886 38.75 33.9786C38.75 32.3686 37.4411 31.0596 35.8311 31.0596C34.2211 31.0596 32.9189 32.3686 32.9189 33.9786C32.9189 35.5886 34.2211 36.8976 35.8311 36.8976Z" fill="white"/>
<path fill-rule="evenodd" clip-rule="evenodd" d="M17.4561 25.8096C17.4561 25.3266 17.8481 24.9346 18.3311 24.9346H37C37.483 24.9346 37.875 25.3266 37.875 25.8096C37.875 26.2926 37.483 26.6846 37 26.6846H18.3311C17.8481 26.6846 17.4561 26.2926 17.4561 25.8096Z" fill="white"/>
<path fill-rule="evenodd" clip-rule="evenodd" d="M26.5 19.1035C26.983 19.1035 27.375 19.4955 27.375 19.9785V25.8095C27.375 26.2925 26.983 26.6845 26.5 26.6845C26.017 26.6845 25.625 26.2925 25.625 25.8095V19.9785C25.625 19.4955 26.017 19.1035 26.5 19.1035Z" fill="white"/>
<path fill-rule="evenodd" clip-rule="evenodd" d="M17.4561 19.9785C17.4561 19.4955 17.8481 19.1035 18.3311 19.1035H31.7011C32.7511 19.1035 33.731 19.6145 34.333 20.4755L37.5879 25.1305L40.7659 26.7195C41.8579 27.2655 42.5439 28.3715 42.5439 29.5895V32.8165C42.5439 33.9435 41.627 34.8605 40.5 34.8605H40.178C40.234 34.5805 40.2689 34.2865 40.2689 33.9855C40.2689 31.5355 38.2811 29.5545 35.8311 29.5545C33.3811 29.5545 31.4 31.5425 31.4 33.9855C31.4 34.2865 31.4281 34.5805 31.4841 34.8605H28.5159C28.5719 34.5805 28.6 34.2865 28.6 33.9855C28.6 31.5355 26.6119 29.5545 24.1689 29.5545C21.7259 29.5545 19.7311 31.5425 19.7311 33.9855C19.7311 34.1605 19.7449 34.3425 19.7659 34.5105L18.5901 33.9225C17.8971 33.5795 17.4561 32.8725 17.4561 32.0955V25.2355C17.4561 25.1165 17.484 24.9905 17.533 24.8785L19.3182 20.8605H18.3311C17.8481 20.8605 17.4561 20.4685 17.4561 19.9855V19.9785ZM21.236 20.8535L19.4231 24.9345H25.625V20.8535H21.236ZM27.375 20.8535V24.9345H35.3201L32.8981 21.4765C32.6251 21.0845 32.1771 20.8535 31.7011 20.8535H27.375Z" fill="white"/>
</g>
<defs>
<filter id="filter0_d_648_12469" x="0" y="0" width="102" height="65" filterUnits="userSpaceOnUse" color-interpolation-filters="sRGB">
<feFlood flood-opacity="0" result="BackgroundImageFix"/>
<feColorMatrix in="SourceAlpha" type="matrix" values="0 0 0 0 0 0 0 0 0 0 0 0 0 0 0 0 0 0 127 0" result="hardAlpha"/>
<feOffset dy="2"/>
<feGaussianBlur stdDeviation="4"/>
<feColorMatrix type="matrix" values="0 0 0 0 0 0 0 0 0 0 0 0 0 0 0 0 0 0 0.16 0"/>
<feBlend mode="normal" in2="BackgroundImageFix" result="effect1_dropShadow_648_12469"/>
<feBlend mode="normal" in="SourceGraphic" in2="effect1_dropShadow_648_12469" result="shape"/>
</filter>
</defs>
</svg>
