<svg width="60" height="65" viewBox="0 0 60 65" fill="none" xmlns="http://www.w3.org/2000/svg">
<g filter="url(#filter0_d_648_12066)">
<mask id="path-1-inside-1_648_12066" fill="white">
<path fill-rule="evenodd" clip-rule="evenodd" d="M16 6C11.5817 6 8 9.58172 8 14V27.7577V42C8 46.4183 11.5817 50 16 50H19.0486C22.0393 50 24.9778 51.0638 27.0226 53.2462C27.2503 53.4893 27.4744 53.7343 27.6944 53.9815C28.879 55.312 31.1727 55.3473 32.384 54.0382C32.6457 53.7553 32.9126 53.4746 33.184 53.1957C35.2608 51.0621 38.1772 50 41.1547 50H44C48.4183 50 52 46.4183 52 42V27.7577V14C52 9.58172 48.4183 6 44 6H16Z"/>
</mask>
<path fill-rule="evenodd" clip-rule="evenodd" d="M16 6C11.5817 6 8 9.58172 8 14V27.7577V42C8 46.4183 11.5817 50 16 50H19.0486C22.0393 50 24.9778 51.0638 27.0226 53.2462C27.2503 53.4893 27.4744 53.7343 27.6944 53.9815C28.879 55.312 31.1727 55.3473 32.384 54.0382C32.6457 53.7553 32.9126 53.4746 33.184 53.1957C35.2608 51.0621 38.1772 50 41.1547 50H44C48.4183 50 52 46.4183 52 42V27.7577V14C52 9.58172 48.4183 6 44 6H16Z" fill="#608000"/>
<path d="M27.6944 53.9815L26.2005 55.3112L26.2006 55.3114L27.6944 53.9815ZM32.384 54.0382L33.852 55.3965L33.8521 55.3964L32.384 54.0382ZM27.0226 53.2462L25.5631 54.6137L27.0226 53.2462ZM10 14C10 10.6863 12.6863 8 16 8V4C10.4772 4 6 8.47715 6 14H10ZM10 27.7577V14H6V27.7577H10ZM10 42V27.7577H6V42H10ZM16 48C12.6863 48 10 45.3137 10 42H6C6 47.5228 10.4772 52 16 52V48ZM19.0486 48H16V52H19.0486V48ZM25.5631 54.6137C25.7799 54.8451 25.9925 55.0776 26.2005 55.3112L29.1883 52.6517C28.9563 52.3911 28.7207 52.1335 28.4821 51.8788L25.5631 54.6137ZM26.2006 55.3114C28.1611 57.5134 31.8291 57.5827 33.852 55.3965L30.916 52.6799C30.5164 53.1118 29.597 53.1107 29.1882 52.6516L26.2006 55.3114ZM33.8521 55.3964C34.1015 55.1269 34.3567 54.8584 34.6172 54.5907L31.7509 51.8008C31.4686 52.0907 31.19 52.3837 30.9159 52.68L33.8521 55.3964ZM44 48H41.1547V52H44V48ZM50 42C50 45.3137 47.3137 48 44 48V52C49.5228 52 54 47.5228 54 42H50ZM50 27.7577V42H54V27.7577H50ZM50 14V27.7577H54V14H50ZM44 8C47.3137 8 50 10.6863 50 14H54C54 8.47715 49.5228 4 44 4V8ZM16 8H44V4H16V8ZM34.6172 54.5907C36.2654 52.8974 38.6375 52 41.1547 52V48C37.717 48 34.2562 49.2268 31.7509 51.8008L34.6172 54.5907ZM19.0486 52C21.5852 52 23.9591 52.9017 25.5631 54.6137L28.4821 51.8788C25.9964 49.2258 22.4933 48 19.0486 48V52Z" fill="white" mask="url(#path-1-inside-1_648_12066)"/>
<path fill-rule="evenodd" clip-rule="evenodd" d="M17.4004 22.7504C17.4004 21.5906 18.3406 20.6504 19.5004 20.6504H37.0004C40.4798 20.6504 43.3004 23.471 43.3004 26.9504V32.5504C43.3004 33.7102 42.3602 34.6504 41.2004 34.6504C41.2004 32.3308 39.32 30.4504 37.0004 30.4504C34.6808 30.4504 32.8004 32.3308 32.8004 34.6504H27.9004C27.9004 32.3308 26.02 30.4504 23.7004 30.4504C21.3808 30.4504 19.5004 32.3308 19.5004 34.6504C18.3406 34.6504 17.4004 33.7102 17.4004 32.5504V22.7504ZM19.5004 23.4504C19.5004 23.0638 19.8138 22.7504 20.2004 22.7504H22.2974C22.684 22.7504 22.9974 23.0638 22.9974 23.4504V26.9504C22.9974 27.337 22.684 27.6504 22.2974 27.6504H20.2004C19.8504 27.6504 19.5004 27.3004 19.5004 26.9504V23.4504ZM25.108 22.7504C24.7214 22.7504 24.408 23.0638 24.408 23.4504L24.4004 26.9504C24.4004 27.3004 24.7504 27.6504 25.1004 27.6504H27.908C28.2946 27.6504 28.608 27.337 28.608 26.9504V23.4504C28.608 23.0638 28.2946 22.7504 27.908 22.7504H25.108ZM30.0185 23.4504C30.0185 23.0638 30.3319 22.7504 30.7185 22.7504H33.5185C33.9051 22.7504 34.2185 23.0638 34.2185 23.4504V26.9504C34.2185 27.337 33.9051 27.6504 33.5185 27.6504H31.4185C30.6453 27.6504 30.0004 27.7236 30.0004 26.9504L30.0185 23.4504ZM36.329 22.7504C35.9424 22.7504 35.629 23.0638 35.629 23.4504V26.9504C35.629 27.337 35.9424 27.6504 36.329 27.6504H40.529C40.9156 27.6504 41.229 27.337 41.229 26.9504C41.229 24.6308 39.3486 22.7504 37.029 22.7504H36.329Z" fill="white"/>
<path d="M26.5004 34.6504C26.5004 36.1968 25.2468 37.4504 23.7004 37.4504C22.154 37.4504 20.9004 36.1968 20.9004 34.6504C20.9004 33.104 22.154 31.8504 23.7004 31.8504C25.2468 31.8504 26.5004 33.104 26.5004 34.6504Z" fill="white"/>
<path d="M39.8004 34.6504C39.8004 36.1968 38.5468 37.4504 37.0004 37.4504C35.454 37.4504 34.2004 36.1968 34.2004 34.6504C34.2004 33.104 35.454 31.8504 37.0004 31.8504C38.5468 31.8504 39.8004 33.104 39.8004 34.6504Z" fill="white"/>
</g>
<defs>
<filter id="filter0_d_648_12066" x="0" y="0" width="60" height="65" filterUnits="userSpaceOnUse" color-interpolation-filters="sRGB">
<feFlood flood-opacity="0" result="BackgroundImageFix"/>
<feColorMatrix in="SourceAlpha" type="matrix" values="0 0 0 0 0 0 0 0 0 0 0 0 0 0 0 0 0 0 127 0" result="hardAlpha"/>
<feOffset dy="2"/>
<feGaussianBlur stdDeviation="4"/>
<feColorMatrix type="matrix" values="0 0 0 0 0 0 0 0 0 0 0 0 0 0 0 0 0 0 0.16 0"/>
<feBlend mode="normal" in2="BackgroundImageFix" result="effect1_dropShadow_648_12066"/>
<feBlend mode="normal" in="SourceGraphic" in2="effect1_dropShadow_648_12066" result="shape"/>
</filter>
</defs>
</svg>
