<svg width="60" height="65" viewBox="0 0 60 65" fill="none" xmlns="http://www.w3.org/2000/svg">
<g filter="url(#filter0_d_8318_7049)">
<mask id="path-1-inside-1_8318_7049" fill="white">
<path fill-rule="evenodd" clip-rule="evenodd" d="M16 6C11.5817 6 8 9.58172 8 14V27.7577V42C8 46.4183 11.5817 50 16 50H19.0486C22.0393 50 24.9778 51.0638 27.0226 53.2462C27.2503 53.4893 27.4744 53.7343 27.6944 53.9815C28.879 55.312 31.1727 55.3473 32.384 54.0382C32.6457 53.7553 32.9126 53.4746 33.184 53.1957C35.2608 51.0621 38.1772 50 41.1547 50H44C48.4183 50 52 46.4183 52 42V27.7577V14C52 9.58172 48.4183 6 44 6H16Z"/>
</mask>
<path fill-rule="evenodd" clip-rule="evenodd" d="M16 6C11.5817 6 8 9.58172 8 14V27.7577V42C8 46.4183 11.5817 50 16 50H19.0486C22.0393 50 24.9778 51.0638 27.0226 53.2462C27.2503 53.4893 27.4744 53.7343 27.6944 53.9815C28.879 55.312 31.1727 55.3473 32.384 54.0382C32.6457 53.7553 32.9126 53.4746 33.184 53.1957C35.2608 51.0621 38.1772 50 41.1547 50H44C48.4183 50 52 46.4183 52 42V27.7577V14C52 9.58172 48.4183 6 44 6H16Z" fill="#608000"/>
<path d="M27.6944 53.9815L26.2005 55.3112L26.2006 55.3114L27.6944 53.9815ZM32.384 54.0382L33.852 55.3965L33.8521 55.3964L32.384 54.0382ZM27.0226 53.2462L25.5631 54.6137L27.0226 53.2462ZM8 14H10C10 10.6863 12.6863 8 16 8V6V4C10.4772 4 6 8.47715 6 14H8ZM8 27.7577H10V14H8H6V27.7577H8ZM8 42H10V27.7577H8H6V42H8ZM16 50V48C12.6863 48 10 45.3137 10 42H8H6C6 47.5228 10.4772 52 16 52V50ZM19.0486 50V48H16V50V52H19.0486V50ZM27.0226 53.2462L25.5631 54.6137C25.7799 54.8451 25.9925 55.0776 26.2005 55.3112L27.6944 53.9815L29.1883 52.6517C28.9563 52.3911 28.7207 52.1335 28.4821 51.8788L27.0226 53.2462ZM27.6944 53.9815L26.2006 55.3114C28.1611 57.5134 31.8291 57.5827 33.852 55.3965L32.384 54.0382L30.916 52.6799C30.5164 53.1118 29.597 53.1107 29.1882 52.6516L27.6944 53.9815ZM32.384 54.0382L33.8521 55.3964C34.1015 55.1269 34.3567 54.8584 34.6172 54.5907L33.184 53.1957L31.7509 51.8008C31.4686 52.0907 31.19 52.3837 30.9159 52.68L32.384 54.0382ZM44 50V48H41.1547V50V52H44V50ZM52 42H50C50 45.3137 47.3137 48 44 48V50V52C49.5228 52 54 47.5228 54 42H52ZM52 27.7577H50V42H52H54V27.7577H52ZM52 14H50V27.7577H52H54V14H52ZM44 6V8C47.3137 8 50 10.6863 50 14H52H54C54 8.47715 49.5228 4 44 4V6ZM16 6V8H44V6V4H16V6ZM33.184 53.1957L34.6172 54.5907C36.2654 52.8974 38.6375 52 41.1547 52V50V48C37.717 48 34.2562 49.2268 31.7509 51.8008L33.184 53.1957ZM19.0486 50V52C21.5852 52 23.9591 52.9017 25.5631 54.6137L27.0226 53.2462L28.4821 51.8788C25.9964 49.2258 22.4933 48 19.0486 48V50Z" fill="white" mask="url(#path-1-inside-1_8318_7049)"/>
<path fill-rule="evenodd" clip-rule="evenodd" d="M17.4004 22.75C17.4004 21.5902 18.3406 20.65 19.5004 20.65H37.0004C40.4798 20.65 43.3004 23.4706 43.3004 26.95V32.55C43.3004 33.7098 42.3602 34.65 41.2004 34.65C41.2004 32.3304 39.32 30.45 37.0004 30.45C34.6808 30.45 32.8004 32.3304 32.8004 34.65H27.9004C27.9004 32.3304 26.02 30.45 23.7004 30.45C21.3808 30.45 19.5004 32.3304 19.5004 34.65C18.3406 34.65 17.4004 33.7098 17.4004 32.55V22.75ZM19.5004 23.45C19.5004 23.0635 19.8138 22.75 20.2004 22.75H22.2974C22.684 22.75 22.9974 23.0635 22.9974 23.45V26.95C22.9974 27.3366 22.684 27.65 22.2974 27.65H20.2004C19.8504 27.65 19.5004 27.3 19.5004 26.95V23.45ZM25.108 22.75C24.7214 22.75 24.408 23.0635 24.408 23.45L24.4004 26.95C24.4004 27.3 24.7504 27.65 25.1004 27.65H27.908C28.2946 27.65 28.608 27.3366 28.608 26.95V23.45C28.608 23.0635 28.2946 22.75 27.908 22.75H25.108ZM30.0185 23.45C30.0185 23.0635 30.3319 22.75 30.7185 22.75H33.5185C33.9051 22.75 34.2185 23.0635 34.2185 23.45V26.95C34.2185 27.3366 33.9051 27.65 33.5185 27.65H31.4185C30.6453 27.65 30.0004 27.7233 30.0004 26.95L30.0185 23.45ZM36.329 22.75C35.9424 22.75 35.629 23.0635 35.629 23.45V26.95C35.629 27.3366 35.9424 27.65 36.329 27.65H40.529C40.9156 27.65 41.229 27.3366 41.229 26.95C41.229 24.6304 39.3486 22.75 37.029 22.75H36.329Z" fill="white"/>
<path d="M26.5004 34.65C26.5004 36.1964 25.2468 37.45 23.7004 37.45C22.154 37.45 20.9004 36.1964 20.9004 34.65C20.9004 33.1036 22.154 31.85 23.7004 31.85C25.2468 31.85 26.5004 33.1036 26.5004 34.65Z" fill="white"/>
<path d="M39.8004 34.65C39.8004 36.1964 38.5468 37.45 37.0004 37.45C35.454 37.45 34.2004 36.1964 34.2004 34.65C34.2004 33.1036 35.454 31.85 37.0004 31.85C38.5468 31.85 39.8004 33.1036 39.8004 34.65Z" fill="white"/>
</g>
<defs>
<filter id="filter0_d_8318_7049" x="0" y="0" width="60" height="65" filterUnits="userSpaceOnUse" color-interpolation-filters="sRGB">
<feFlood flood-opacity="0" result="BackgroundImageFix"/>
<feColorMatrix in="SourceAlpha" type="matrix" values="0 0 0 0 0 0 0 0 0 0 0 0 0 0 0 0 0 0 127 0" result="hardAlpha"/>
<feOffset dy="2"/>
<feGaussianBlur stdDeviation="4"/>
<feColorMatrix type="matrix" values="0 0 0 0 0 0 0 0 0 0 0 0 0 0 0 0 0 0 0.16 0"/>
<feBlend mode="normal" in2="BackgroundImageFix" result="effect1_dropShadow_8318_7049"/>
<feBlend mode="normal" in="SourceGraphic" in2="effect1_dropShadow_8318_7049" result="shape"/>
</filter>
</defs>
</svg>
