<svg width="60" height="65" viewBox="0 0 60 65" fill="none" xmlns="http://www.w3.org/2000/svg">
<g filter="url(#filter0_d_8318_7074)">
<mask id="path-1-inside-1_8318_7074" fill="white">
<path fill-rule="evenodd" clip-rule="evenodd" d="M16 6C11.5817 6 8 9.58172 8 14V27.7577V42C8 46.4183 11.5817 50 16 50H19.0486C22.0393 50 24.9778 51.0638 27.0226 53.2462C27.2503 53.4893 27.4744 53.7343 27.6944 53.9815C28.879 55.312 31.1727 55.3473 32.384 54.0382C32.6457 53.7553 32.9126 53.4746 33.184 53.1957C35.2608 51.0621 38.1772 50 41.1547 50H44C48.4183 50 52 46.4183 52 42V27.7577V14C52 9.58172 48.4183 6 44 6H16Z"/>
</mask>
<path fill-rule="evenodd" clip-rule="evenodd" d="M16 6C11.5817 6 8 9.58172 8 14V27.7577V42C8 46.4183 11.5817 50 16 50H19.0486C22.0393 50 24.9778 51.0638 27.0226 53.2462C27.2503 53.4893 27.4744 53.7343 27.6944 53.9815C28.879 55.312 31.1727 55.3473 32.384 54.0382C32.6457 53.7553 32.9126 53.4746 33.184 53.1957C35.2608 51.0621 38.1772 50 41.1547 50H44C48.4183 50 52 46.4183 52 42V27.7577V14C52 9.58172 48.4183 6 44 6H16Z" fill="#0959AA"/>
<path d="M27.6944 53.9815L26.2005 55.3112L26.2006 55.3114L27.6944 53.9815ZM32.384 54.0382L33.852 55.3965L33.8521 55.3964L32.384 54.0382ZM27.0226 53.2462L25.5631 54.6137L27.0226 53.2462ZM8 14H10C10 10.6863 12.6863 8 16 8V6V4C10.4772 4 6 8.47715 6 14H8ZM8 27.7577H10V14H8H6V27.7577H8ZM8 42H10V27.7577H8H6V42H8ZM16 50V48C12.6863 48 10 45.3137 10 42H8H6C6 47.5228 10.4772 52 16 52V50ZM19.0486 50V48H16V50V52H19.0486V50ZM27.0226 53.2462L25.5631 54.6137C25.7799 54.8451 25.9925 55.0776 26.2005 55.3112L27.6944 53.9815L29.1883 52.6517C28.9563 52.3911 28.7207 52.1335 28.4821 51.8788L27.0226 53.2462ZM27.6944 53.9815L26.2006 55.3114C28.1611 57.5134 31.8291 57.5827 33.852 55.3965L32.384 54.0382L30.916 52.6799C30.5164 53.1118 29.597 53.1107 29.1882 52.6516L27.6944 53.9815ZM32.384 54.0382L33.8521 55.3964C34.1015 55.1269 34.3567 54.8584 34.6172 54.5907L33.184 53.1957L31.7509 51.8008C31.4686 52.0907 31.19 52.3837 30.9159 52.68L32.384 54.0382ZM44 50V48H41.1547V50V52H44V50ZM52 42H50C50 45.3137 47.3137 48 44 48V50V52C49.5228 52 54 47.5228 54 42H52ZM52 27.7577H50V42H52H54V27.7577H52ZM52 14H50V27.7577H52H54V14H52ZM44 6V8C47.3137 8 50 10.6863 50 14H52H54C54 8.47715 49.5228 4 44 4V6ZM16 6V8H44V6V4H16V6ZM33.184 53.1957L34.6172 54.5907C36.2654 52.8974 38.6375 52 41.1547 52V50V48C37.717 48 34.2562 49.2268 31.7509 51.8008L33.184 53.1957ZM19.0486 50V52C21.5852 52 23.9591 52.9017 25.5631 54.6137L27.0226 53.2462L28.4821 51.8788C25.9964 49.2258 22.4933 48 19.0486 48V50Z" fill="white" mask="url(#path-1-inside-1_8318_7074)"/>
<path fill-rule="evenodd" clip-rule="evenodd" d="M29.1719 21.566C29.6969 21.335 30.2992 21.335 30.8242 21.566L38.2162 24.835C39.7982 25.535 40.54 27.348 39.903 28.951L39.4761 30.036C39.4761 30.036 39.4342 30.036 39.4132 30.036H36.6969C36.2139 30.036 35.8219 30.428 35.8219 30.911C35.8219 31.394 36.2139 31.786 36.6969 31.786H38.7829L37.7049 34.502C37.4879 34.453 37.2569 34.425 37.0189 34.418C35.4999 34.355 34.331 35.055 33.456 35.965C32.896 35.51 31.7129 34.607 30.1799 34.495C28.6539 34.39 27.4359 35.041 26.5189 35.965L26.47 35.93C25.924 35.524 24.678 34.614 23.103 34.516C22.83 34.502 22.5641 34.509 22.3121 34.537L21.22 31.786H23.292C23.775 31.786 24.167 31.394 24.167 30.911C24.167 30.428 23.775 30.036 23.292 30.036H20.5272L20.1 28.951C19.463 27.348 20.2051 25.528 21.7871 24.835L29.1719 21.566Z" fill="white"/>
<path fill-rule="evenodd" clip-rule="evenodd" d="M22.2279 20.6772C22.3889 18.8712 23.9009 17.4922 25.7139 17.4922H34.2821C36.0951 17.4922 37.6071 18.8712 37.7681 20.6772L38.1601 24.9752C38.2161 25.6192 37.7469 26.1862 37.1029 26.2422C36.4589 26.2982 35.8919 25.8292 35.8359 25.1852L35.4438 20.8872C35.3878 20.2852 34.8841 19.8232 34.2821 19.8232H25.7139C25.1119 19.8232 24.6081 20.2852 24.5521 20.8872L24.1601 25.1852C24.1041 25.8292 23.5371 26.2982 22.8931 26.2422C22.2491 26.1862 21.7799 25.6192 21.8359 24.9752L22.2279 20.6772Z" fill="white"/>
<path fill-rule="evenodd" clip-rule="evenodd" d="M29.9976 15.1611C30.6416 15.1611 31.1665 15.6861 31.1665 16.3301V18.6611C31.1665 19.3051 30.6416 19.8301 29.9976 19.8301C29.3536 19.8301 28.8286 19.3051 28.8286 18.6611V16.3301C28.8286 15.6861 29.3536 15.1611 29.9976 15.1611Z" fill="white"/>
<path fill-rule="evenodd" clip-rule="evenodd" d="M40.6934 38.4851C40.6934 38.4851 40.7567 38.436 40.8127 38.38C41.2537 37.911 41.9956 37.89 42.4646 38.331C42.9336 38.772 42.9545 39.507 42.5135 39.983C42.1145 40.41 41.6246 40.725 41.0366 40.8161C40.4556 40.9001 39.9445 40.739 39.5525 40.536C39.1675 40.34 38.8316 40.0671 38.5586 39.8291C38.4186 39.7101 38.2364 39.542 38.0684 39.3881C37.9494 39.2831 37.8447 39.1851 37.7677 39.1151C37.2217 38.625 36.9626 38.513 36.8366 38.506C36.8366 38.506 36.7668 38.5061 36.6408 38.59C36.4868 38.6951 36.2556 38.9191 35.9616 39.3671H35.9544C35.6114 39.885 35.1845 40.3191 34.6385 40.5431C34.0575 40.7881 33.4906 40.7391 33.0146 40.5781C32.5736 40.4311 32.1886 40.1721 31.8806 39.9481C31.6636 39.7871 31.4326 39.5911 31.2226 39.4231C31.1526 39.3601 31.0757 39.3041 31.0127 39.2481C30.4107 38.7581 30.0957 38.5901 29.8927 38.5761H29.8855C29.8855 38.5761 29.5424 38.541 28.9544 39.416C28.6394 39.906 28.2195 40.3191 27.6525 40.5221C27.0785 40.7321 26.5325 40.655 26.0915 40.508C25.6715 40.361 25.2935 40.1301 24.9855 39.913C24.7755 39.7731 24.5517 39.6051 24.3487 39.4511C24.2577 39.3811 24.1665 39.311 24.0825 39.255C23.4595 38.8 23.1025 38.6181 22.8575 38.6041C22.7875 38.6041 22.4794 38.5831 21.9684 39.3671H21.9616C21.4506 40.1371 20.6806 40.8161 19.6586 40.8161C18.6366 40.8161 17.8597 40.1371 17.3627 39.3671C17.0057 38.8281 17.1597 38.1071 17.6987 37.7501C18.2377 37.4001 18.9658 37.5471 19.3158 38.0931C19.4838 38.3521 19.6026 38.4431 19.6586 38.4711C19.7146 38.4431 19.8408 38.352 20.0158 38.0861C20.8068 36.882 21.8004 36.2031 23.0044 36.2731C24.0264 36.3361 24.9014 36.9521 25.4684 37.3721C25.5944 37.4631 25.7066 37.5471 25.8116 37.6241C25.9866 37.7571 26.1478 37.8761 26.3158 37.9881C26.5748 38.163 26.7426 38.2611 26.8616 38.2961C26.8686 38.2961 26.8755 38.2961 26.8825 38.2961C26.9105 38.2681 26.9526 38.2121 27.0086 38.1281C27.8276 36.8891 28.8287 36.1541 30.0537 36.2381C31.0967 36.3151 31.9575 37.0011 32.4825 37.4281C32.5875 37.5121 32.6787 37.589 32.7627 37.659C32.9517 37.813 33.1126 37.9461 33.2806 38.0721C33.5186 38.2541 33.6725 38.3311 33.7635 38.3661C33.8055 38.3311 33.8896 38.2541 34.0086 38.0791C34.7856 36.8961 35.7375 36.1121 36.9415 36.1681C37.9915 36.2171 38.8175 36.9171 39.3215 37.3651C39.4825 37.5121 39.6017 37.6171 39.7067 37.7221C39.8257 37.8341 39.9375 37.9321 40.0915 38.0651C40.3225 38.2751 40.4977 38.3941 40.6237 38.4641C40.6587 38.4781 40.6794 38.4921 40.6934 38.4991V38.4851Z" fill="white"/>
</g>
<defs>
<filter id="filter0_d_8318_7074" x="0" y="0" width="60" height="65" filterUnits="userSpaceOnUse" color-interpolation-filters="sRGB">
<feFlood flood-opacity="0" result="BackgroundImageFix"/>
<feColorMatrix in="SourceAlpha" type="matrix" values="0 0 0 0 0 0 0 0 0 0 0 0 0 0 0 0 0 0 127 0" result="hardAlpha"/>
<feOffset dy="2"/>
<feGaussianBlur stdDeviation="4"/>
<feColorMatrix type="matrix" values="0 0 0 0 0 0 0 0 0 0 0 0 0 0 0 0 0 0 0.16 0"/>
<feBlend mode="normal" in2="BackgroundImageFix" result="effect1_dropShadow_8318_7074"/>
<feBlend mode="normal" in="SourceGraphic" in2="effect1_dropShadow_8318_7074" result="shape"/>
</filter>
</defs>
</svg>
