<svg width="60" height="65" viewBox="0 0 60 65" fill="none" xmlns="http://www.w3.org/2000/svg">
<g filter="url(#filter0_d_648_12409)">
<mask id="path-1-inside-1_648_12409" fill="white">
<path fill-rule="evenodd" clip-rule="evenodd" d="M16 6C11.5817 6 8 9.58172 8 14V27.7577V42C8 46.4183 11.5817 50 16 50H19.0486C22.0393 50 24.9778 51.0638 27.0226 53.2462C27.2503 53.4893 27.4744 53.7343 27.6944 53.9815C28.879 55.312 31.1727 55.3473 32.384 54.0382C32.6457 53.7553 32.9126 53.4746 33.184 53.1957C35.2608 51.0621 38.1772 50 41.1547 50H44C48.4183 50 52 46.4183 52 42V27.7577V14C52 9.58172 48.4183 6 44 6H16Z"/>
</mask>
<path fill-rule="evenodd" clip-rule="evenodd" d="M16 6C11.5817 6 8 9.58172 8 14V27.7577V42C8 46.4183 11.5817 50 16 50H19.0486C22.0393 50 24.9778 51.0638 27.0226 53.2462C27.2503 53.4893 27.4744 53.7343 27.6944 53.9815C28.879 55.312 31.1727 55.3473 32.384 54.0382C32.6457 53.7553 32.9126 53.4746 33.184 53.1957C35.2608 51.0621 38.1772 50 41.1547 50H44C48.4183 50 52 46.4183 52 42V27.7577V14C52 9.58172 48.4183 6 44 6H16Z" fill="#576B75"/>
<path d="M27.6944 53.9815L26.2005 55.3112L26.2006 55.3114L27.6944 53.9815ZM32.384 54.0382L33.852 55.3965L33.8521 55.3964L32.384 54.0382ZM27.0226 53.2462L25.5631 54.6137L27.0226 53.2462ZM10 14C10 10.6863 12.6863 8 16 8V4C10.4772 4 6 8.47715 6 14H10ZM10 27.7577V14H6V27.7577H10ZM10 42V27.7577H6V42H10ZM16 48C12.6863 48 10 45.3137 10 42H6C6 47.5228 10.4772 52 16 52V48ZM19.0486 48H16V52H19.0486V48ZM25.5631 54.6137C25.7799 54.8451 25.9925 55.0776 26.2005 55.3112L29.1883 52.6517C28.9563 52.3911 28.7207 52.1335 28.4821 51.8788L25.5631 54.6137ZM26.2006 55.3114C28.1611 57.5134 31.8291 57.5827 33.852 55.3965L30.916 52.6799C30.5164 53.1118 29.597 53.1107 29.1882 52.6516L26.2006 55.3114ZM33.8521 55.3964C34.1015 55.1269 34.3567 54.8584 34.6172 54.5907L31.7509 51.8008C31.4686 52.0907 31.19 52.3837 30.9159 52.68L33.8521 55.3964ZM44 48H41.1547V52H44V48ZM50 42C50 45.3137 47.3137 48 44 48V52C49.5228 52 54 47.5228 54 42H50ZM50 27.7577V42H54V27.7577H50ZM50 14V27.7577H54V14H50ZM44 8C47.3137 8 50 10.6863 50 14H54C54 8.47715 49.5228 4 44 4V8ZM16 8H44V4H16V8ZM34.6172 54.5907C36.2654 52.8974 38.6375 52 41.1547 52V48C37.717 48 34.2562 49.2268 31.7509 51.8008L34.6172 54.5907ZM19.0486 52C21.5852 52 23.9591 52.9017 25.5631 54.6137L28.4821 51.8788C25.9964 49.2258 22.4933 48 19.0486 48V52Z" fill="white" mask="url(#path-1-inside-1_648_12409)"/>
<path fill-rule="evenodd" clip-rule="evenodd" d="M32.3305 18.9381C34.2023 16.318 38.0159 15.7868 40.4533 17.2489C40.5765 17.3228 40.6795 17.4259 40.7534 17.549C42.2335 20.0153 41.5819 23.2976 39.3819 25.1587L37.671 26.6062L39.2616 32.6496C39.5533 33.7577 39.2343 34.9373 38.4241 35.7474L36.888 37.2831C36.7011 37.4699 36.4399 37.5623 36.1772 37.5344C35.9145 37.5066 35.6783 37.3615 35.5348 37.1397L31.5593 30.997L29.3031 33.2527L29.6715 36.5677C29.7008 36.8318 29.6085 37.0951 29.4204 37.2831L27.761 38.9422C27.5621 39.141 27.2798 39.2321 27.0022 39.1871C26.7246 39.142 26.4856 38.9664 26.3598 38.7148L24.001 33.9983L19.2836 31.64C19.032 31.5143 18.8562 31.2752 18.8111 30.9976C18.7661 30.7199 18.8572 30.4374 19.0562 30.2386L20.7156 28.5795C20.9036 28.3916 21.1667 28.2993 21.4309 28.3287L24.7467 28.697L27.0027 26.4415L20.859 22.467C20.6371 22.3234 20.492 22.0873 20.4641 21.8245C20.4363 21.5617 20.5287 21.3003 20.7156 21.1135L22.2516 19.5778C23.0619 18.7677 24.2416 18.4488 25.3496 18.7404L31.3447 20.3177L32.3305 18.9381Z" fill="white"/>
</g>
<defs>
<filter id="filter0_d_648_12409" x="0" y="0" width="60" height="65" filterUnits="userSpaceOnUse" color-interpolation-filters="sRGB">
<feFlood flood-opacity="0" result="BackgroundImageFix"/>
<feColorMatrix in="SourceAlpha" type="matrix" values="0 0 0 0 0 0 0 0 0 0 0 0 0 0 0 0 0 0 127 0" result="hardAlpha"/>
<feOffset dy="2"/>
<feGaussianBlur stdDeviation="4"/>
<feColorMatrix type="matrix" values="0 0 0 0 0 0 0 0 0 0 0 0 0 0 0 0 0 0 0.16 0"/>
<feBlend mode="normal" in2="BackgroundImageFix" result="effect1_dropShadow_648_12409"/>
<feBlend mode="normal" in="SourceGraphic" in2="effect1_dropShadow_648_12409" result="shape"/>
</filter>
</defs>
</svg>
