<svg width="44" height="44" viewBox="0 0 44 44" fill="none" xmlns="http://www.w3.org/2000/svg">
<g filter="url(#filter0_d_8318_7041)">
<g clip-path="url(#clip0_8318_7041)">
<rect x="8" y="6" width="28" height="28" rx="4" fill="#00404D"/>
<g clip-path="url(#clip1_8318_7041)">
<path d="M29.6375 27.4917C29.6375 27.4917 29.6827 27.4567 29.7227 27.4167C30.0377 27.0817 30.5676 27.0667 30.9026 27.3817C31.2376 27.6967 31.2525 28.2217 30.9375 28.5617C30.6525 28.8667 30.3026 29.0917 29.8826 29.1567C29.4676 29.2167 29.1025 29.1017 28.8225 28.9567C28.5475 28.8167 28.3076 28.6217 28.1126 28.4517C28.0126 28.3667 27.8825 28.2467 27.7625 28.1367C27.6775 28.0617 27.6026 27.9917 27.5476 27.9417C27.1576 27.5917 26.9726 27.5117 26.8826 27.5067C26.8826 27.5067 26.8327 27.5067 26.7427 27.5667C26.6327 27.6417 26.4676 27.8017 26.2576 28.1217H26.2525C26.0075 28.4917 25.7025 28.8017 25.3125 28.9617C24.8975 29.1367 24.4926 29.1017 24.1526 28.9867C23.8376 28.8817 23.5626 28.6967 23.3426 28.5367C23.1876 28.4217 23.0226 28.2817 22.8726 28.1617C22.8226 28.1167 22.7677 28.0767 22.7227 28.0367C22.2927 27.6867 22.0676 27.5667 21.9226 27.5567H21.9175C21.9175 27.5567 21.6725 27.5317 21.2525 28.1567C21.0275 28.5067 20.7275 28.8017 20.3225 28.9467C19.9125 29.0967 19.5225 29.0417 19.2075 28.9367C18.9075 28.8317 18.6375 28.6667 18.4175 28.5117C18.2675 28.4117 18.1077 28.2917 17.9627 28.1817C17.8977 28.1317 17.8325 28.0817 17.7725 28.0367C17.3275 27.7117 17.0725 27.5817 16.8975 27.5717C16.8475 27.5717 16.6275 27.5567 16.2625 28.1167H16.2576C15.8926 28.6667 15.3426 29.1517 14.6126 29.1517C13.8826 29.1517 13.3277 28.6667 12.9727 28.1167C12.7177 27.7317 12.8277 27.2167 13.2127 26.9617C13.5977 26.7117 14.1177 26.8167 14.3677 27.2067C14.4877 27.3917 14.5726 27.4567 14.6126 27.4767C14.6526 27.4567 14.7427 27.3917 14.8677 27.2017C15.4327 26.3417 16.1425 25.8567 17.0025 25.9067C17.7325 25.9517 18.3575 26.3917 18.7625 26.6917C18.8525 26.7567 18.9326 26.8167 19.0076 26.8717C19.1326 26.9667 19.2477 27.0517 19.3677 27.1317C19.5527 27.2567 19.6726 27.3267 19.7576 27.3517H19.7725C19.7725 27.3517 19.8226 27.2967 19.8626 27.2367C20.4476 26.3517 21.1626 25.8267 22.0376 25.8867C22.7826 25.9417 23.3975 26.4317 23.7725 26.7367C23.8475 26.7967 23.9127 26.8517 23.9727 26.9017C24.1077 27.0117 24.2226 27.1067 24.3426 27.1967C24.5126 27.3267 24.6225 27.3817 24.6875 27.4067C24.7175 27.3817 24.7776 27.3267 24.8626 27.2017C25.4176 26.3567 26.0975 25.7967 26.9575 25.8367C27.7075 25.8717 28.2975 26.3717 28.6575 26.6917C28.7725 26.7967 28.8576 26.8717 28.9326 26.9467C29.0176 27.0267 29.0975 27.0967 29.2075 27.1917C29.3725 27.3417 29.4977 27.4267 29.5877 27.4767C29.6127 27.4867 29.6275 27.4967 29.6375 27.5017V27.4917Z" fill="white"/>
<path fill-rule="evenodd" clip-rule="evenodd" d="M16.1626 15.8317C16.1626 14.9117 16.9125 14.1667 17.8325 14.1667H22.1326C23.0776 14.1667 23.9775 14.5667 24.6125 15.2717L27.6177 18.6117C27.9227 18.9517 27.8975 19.4817 27.5525 19.7867C27.2125 20.0967 26.6874 20.0667 26.3774 19.7267L23.3726 16.3867C23.0576 16.0367 22.6076 15.8367 22.1326 15.8367H17.8325V19.1717C17.8325 19.6317 17.4576 20.0067 16.9976 20.0067C16.5376 20.0067 16.1626 19.6317 16.1626 19.1717V15.8317Z" fill="white"/>
<path fill-rule="evenodd" clip-rule="evenodd" d="M16.9976 11.6619C16.9976 11.2019 17.3725 10.8269 17.8325 10.8269H19.4976C20.4176 10.8269 21.1626 11.5719 21.1626 12.4919V14.9919C21.1626 15.4519 20.7925 15.8269 20.3325 15.8269C19.8725 15.8269 19.4976 15.4519 19.4976 14.9919V12.4919H17.8325C17.3725 12.4919 16.9976 12.1169 16.9976 11.6569V11.6619Z" fill="white"/>
<path d="M13.6627 18.537C13.4727 18.537 13.2927 18.622 13.1727 18.772C13.0577 18.922 13.0127 19.117 13.0577 19.302L14.5426 25.627C15.1976 25.002 16.0376 24.592 17.0726 24.652C18.1976 24.722 19.1176 25.397 19.5126 25.682C20.1676 25.022 21.0326 24.557 22.1276 24.632C23.2226 24.707 24.0676 25.357 24.4676 25.682C25.0926 25.032 25.9276 24.527 27.0126 24.577C28.1076 24.627 28.9326 25.262 29.3426 25.617C29.3776 25.577 29.4076 25.532 29.4376 25.492C29.9726 24.732 30.3076 23.757 30.5226 22.842C30.7426 21.917 30.8477 20.997 30.9027 20.312C30.9277 19.967 30.9426 19.682 30.9476 19.482C30.9526 19.382 30.9526 19.222 30.9576 19.162C30.9576 18.812 30.6776 18.532 30.3326 18.532H13.6627V18.537Z" fill="white"/>
</g>
</g>
<rect x="9" y="7" width="26" height="26" rx="3" stroke="white" stroke-width="2"/>
</g>
<defs>
<filter id="filter0_d_8318_7041" x="0" y="0" width="44" height="44" filterUnits="userSpaceOnUse" color-interpolation-filters="sRGB">
<feFlood flood-opacity="0" result="BackgroundImageFix"/>
<feColorMatrix in="SourceAlpha" type="matrix" values="0 0 0 0 0 0 0 0 0 0 0 0 0 0 0 0 0 0 127 0" result="hardAlpha"/>
<feOffset dy="2"/>
<feGaussianBlur stdDeviation="4"/>
<feColorMatrix type="matrix" values="0 0 0 0 0 0 0 0 0 0 0 0 0 0 0 0 0 0 0.16 0"/>
<feBlend mode="normal" in2="BackgroundImageFix" result="effect1_dropShadow_8318_7041"/>
<feBlend mode="normal" in="SourceGraphic" in2="effect1_dropShadow_8318_7041" result="shape"/>
</filter>
<clipPath id="clip0_8318_7041">
<rect x="8" y="6" width="28" height="28" rx="4" fill="white"/>
</clipPath>
<clipPath id="clip1_8318_7041">
<rect width="20" height="20" fill="white" transform="translate(12 10)"/>
</clipPath>
</defs>
</svg>
