<svg width="60" height="65" viewBox="0 0 60 65" fill="none" xmlns="http://www.w3.org/2000/svg">
<g filter="url(#filter0_d_8318_7059)">
<mask id="path-1-inside-1_8318_7059" fill="white">
<path fill-rule="evenodd" clip-rule="evenodd" d="M16 8C11.5817 8 8 11.5817 8 16V29.7577V44C8 48.4183 11.5817 52 16 52H19.0486C22.0393 52 24.9778 53.0638 27.0226 55.2462C27.2503 55.4893 27.4744 55.7343 27.6944 55.9815C28.879 57.312 31.1727 57.3473 32.384 56.0382C32.6457 55.7553 32.9126 55.4746 33.184 55.1957C35.2608 53.0621 38.1772 52 41.1547 52H44C48.4183 52 52 48.4183 52 44V29.7577V16C52 11.5817 48.4183 8 44 8H16Z"/>
</mask>
<path fill-rule="evenodd" clip-rule="evenodd" d="M16 8C11.5817 8 8 11.5817 8 16V29.7577V44C8 48.4183 11.5817 52 16 52H19.0486C22.0393 52 24.9778 53.0638 27.0226 55.2462C27.2503 55.4893 27.4744 55.7343 27.6944 55.9815C28.879 57.312 31.1727 57.3473 32.384 56.0382C32.6457 55.7553 32.9126 55.4746 33.184 55.1957C35.2608 53.0621 38.1772 52 41.1547 52H44C48.4183 52 52 48.4183 52 44V29.7577V16C52 11.5817 48.4183 8 44 8H16Z" fill="#943894"/>
<path d="M27.6944 55.9815L26.2005 57.3112L26.2006 57.3114L27.6944 55.9815ZM32.384 56.0382L33.852 57.3965L33.8521 57.3964L32.384 56.0382ZM27.0226 55.2462L25.5631 56.6137L27.0226 55.2462ZM8 16H10C10 12.6863 12.6863 10 16 10V8V6C10.4772 6 6 10.4772 6 16H8ZM8 29.7577H10V16H8H6V29.7577H8ZM8 44H10V29.7577H8H6V44H8ZM16 52V50C12.6863 50 10 47.3137 10 44H8H6C6 49.5228 10.4772 54 16 54V52ZM19.0486 52V50H16V52V54H19.0486V52ZM27.0226 55.2462L25.5631 56.6137C25.7799 56.8451 25.9925 57.0776 26.2005 57.3112L27.6944 55.9815L29.1883 54.6517C28.9563 54.3911 28.7207 54.1335 28.4821 53.8788L27.0226 55.2462ZM27.6944 55.9815L26.2006 57.3114C28.1611 59.5134 31.8291 59.5827 33.852 57.3965L32.384 56.0382L30.916 54.6799C30.5164 55.1118 29.597 55.1107 29.1882 54.6516L27.6944 55.9815ZM32.384 56.0382L33.8521 57.3964C34.1015 57.1269 34.3567 56.8584 34.6172 56.5907L33.184 55.1957L31.7509 53.8008C31.4686 54.0907 31.19 54.3837 30.9159 54.68L32.384 56.0382ZM44 52V50H41.1547V52V54H44V52ZM52 44H50C50 47.3137 47.3137 50 44 50V52V54C49.5228 54 54 49.5228 54 44H52ZM52 29.7577H50V44H52H54V29.7577H52ZM52 16H50V29.7577H52H54V16H52ZM44 8V10C47.3137 10 50 12.6863 50 16H52H54C54 10.4772 49.5228 6 44 6V8ZM16 8V10H44V8V6H16V8ZM33.184 55.1957L34.6172 56.5907C36.2654 54.8974 38.6375 54 41.1547 54V52V50C37.717 50 34.2562 51.2268 31.7509 53.8008L33.184 55.1957ZM19.0486 52V54C21.5852 54 23.9591 54.9017 25.5631 56.6137L27.0226 55.2462L28.4821 53.8788C25.9964 51.2258 22.4933 50 19.0486 50V52Z" fill="white" mask="url(#path-1-inside-1_8318_7059)"/>
<path fill-rule="evenodd" clip-rule="evenodd" d="M24.4049 36.5172C24.8599 36.9722 24.8599 37.7142 24.4049 38.1692L21.4928 41.0882C21.0308 41.5432 20.2962 41.5432 19.8412 41.0882C19.3863 40.6332 19.3863 39.8912 19.8412 39.4362L22.7534 36.5172C23.2154 36.0622 23.9499 36.0622 24.4049 36.5172ZM35.5912 36.5172C36.0462 36.0622 36.7808 36.0622 37.2428 36.5172L40.1549 39.4362C40.6099 39.8912 40.6099 40.6332 40.1549 41.0882C39.6999 41.5432 38.9654 41.5432 38.5034 41.0882L35.5912 38.1692C35.1362 37.7142 35.1362 36.9722 35.5912 36.5172Z" fill="white"/>
<path fill-rule="evenodd" clip-rule="evenodd" d="M21.1986 22.972C21.6676 20.158 24.1041 18.1 26.9531 18.1H33.0426C35.8986 18.1 38.3281 20.158 38.7971 22.972L40.3365 32.212C40.8475 35.25 38.881 38.246 35.71 38.673C33.995 38.904 31.9579 39.1 29.9979 39.1C28.0379 39.1 26.0077 38.904 24.2857 38.673C21.1217 38.246 19.1552 35.25 19.6592 32.212L21.1986 22.972ZM26.9531 20.431C25.2451 20.431 23.7817 21.67 23.5017 23.357L23.0751 25.919C24.0201 26.927 25.2587 27.585 26.5047 28.005C27.8977 28.467 29.2279 28.6 29.9979 28.6C30.7679 28.6 32.098 28.467 33.491 28.005C34.737 27.592 35.9761 26.927 36.9281 25.919L36.5009 23.357C36.2139 21.67 34.7576 20.431 33.0426 20.431H26.9531ZM26.4979 32.093C25.8539 32.093 25.3289 32.618 25.3289 33.262C25.3289 33.906 25.8539 34.431 26.4979 34.431C27.1489 34.431 27.6668 33.906 27.6668 33.262C27.6668 32.618 27.1489 32.093 26.4979 32.093ZM33.4842 32.093C32.8402 32.093 32.3221 32.618 32.3221 33.262C32.3221 33.906 32.8402 34.431 33.4842 34.431H33.4979C34.1419 34.431 34.6668 33.906 34.6668 33.262C34.6668 32.618 34.1419 32.093 33.4979 32.093H33.4842Z" fill="white"/>
</g>
<defs>
<filter id="filter0_d_8318_7059" x="0" y="0" width="60" height="65" filterUnits="userSpaceOnUse" color-interpolation-filters="sRGB">
<feFlood flood-opacity="0" result="BackgroundImageFix"/>
<feColorMatrix in="SourceAlpha" type="matrix" values="0 0 0 0 0 0 0 0 0 0 0 0 0 0 0 0 0 0 127 0" result="hardAlpha"/>
<feOffset/>
<feGaussianBlur stdDeviation="4"/>
<feColorMatrix type="matrix" values="0 0 0 0 0 0 0 0 0 0 0 0 0 0 0 0 0 0 0.23 0"/>
<feBlend mode="normal" in2="BackgroundImageFix" result="effect1_dropShadow_8318_7059"/>
<feBlend mode="normal" in="SourceGraphic" in2="effect1_dropShadow_8318_7059" result="shape"/>
</filter>
</defs>
</svg>
