<svg width="44" height="44" viewBox="0 0 44 44" fill="none" xmlns="http://www.w3.org/2000/svg">
<g filter="url(#filter0_d_8318_7041)">
<g clip-path="url(#clip0_8318_7041)">
<rect x="8" y="8" width="28" height="28" rx="4" fill="#00404D"/>
<g clip-path="url(#clip1_8318_7041)">
<path d="M29.6375 29.4917C29.6375 29.4917 29.6827 29.4567 29.7227 29.4167C30.0377 29.0817 30.5676 29.0667 30.9026 29.3817C31.2376 29.6967 31.2525 30.2217 30.9375 30.5617C30.6525 30.8667 30.3026 31.0917 29.8826 31.1567C29.4676 31.2167 29.1025 31.1017 28.8225 30.9567C28.5475 30.8167 28.3076 30.6217 28.1126 30.4517C28.0126 30.3667 27.8825 30.2467 27.7625 30.1367C27.6775 30.0617 27.6026 29.9917 27.5476 29.9417C27.1576 29.5917 26.9726 29.5117 26.8826 29.5067C26.8826 29.5067 26.8327 29.5067 26.7427 29.5667C26.6327 29.6417 26.4676 29.8017 26.2576 30.1217H26.2525C26.0075 30.4917 25.7025 30.8017 25.3125 30.9617C24.8975 31.1367 24.4926 31.1017 24.1526 30.9867C23.8376 30.8817 23.5626 30.6967 23.3426 30.5367C23.1876 30.4217 23.0226 30.2817 22.8726 30.1617C22.8226 30.1167 22.7677 30.0767 22.7227 30.0367C22.2927 29.6867 22.0676 29.5667 21.9226 29.5567H21.9175C21.9175 29.5567 21.6725 29.5317 21.2525 30.1567C21.0275 30.5067 20.7275 30.8017 20.3225 30.9467C19.9125 31.0967 19.5225 31.0417 19.2075 30.9367C18.9075 30.8317 18.6375 30.6667 18.4175 30.5117C18.2675 30.4117 18.1077 30.2917 17.9627 30.1817C17.8977 30.1317 17.8325 30.0817 17.7725 30.0367C17.3275 29.7117 17.0725 29.5817 16.8975 29.5717C16.8475 29.5717 16.6275 29.5567 16.2625 30.1167H16.2576C15.8926 30.6667 15.3426 31.1517 14.6126 31.1517C13.8826 31.1517 13.3277 30.6667 12.9727 30.1167C12.7177 29.7317 12.8277 29.2167 13.2127 28.9617C13.5977 28.7117 14.1177 28.8167 14.3677 29.2067C14.4877 29.3917 14.5726 29.4567 14.6126 29.4767C14.6526 29.4567 14.7427 29.3917 14.8677 29.2017C15.4327 28.3417 16.1425 27.8567 17.0025 27.9067C17.7325 27.9517 18.3575 28.3917 18.7625 28.6917C18.8525 28.7567 18.9326 28.8167 19.0076 28.8717C19.1326 28.9667 19.2477 29.0517 19.3677 29.1317C19.5527 29.2567 19.6726 29.3267 19.7576 29.3517H19.7725C19.7725 29.3517 19.8226 29.2967 19.8626 29.2367C20.4476 28.3517 21.1626 27.8267 22.0376 27.8867C22.7826 27.9417 23.3975 28.4317 23.7725 28.7367C23.8475 28.7967 23.9127 28.8517 23.9727 28.9017C24.1077 29.0117 24.2226 29.1067 24.3426 29.1967C24.5126 29.3267 24.6225 29.3817 24.6875 29.4067C24.7175 29.3817 24.7776 29.3267 24.8626 29.2017C25.4176 28.3567 26.0975 27.7967 26.9575 27.8367C27.7075 27.8717 28.2975 28.3717 28.6575 28.6917C28.7725 28.7967 28.8576 28.8717 28.9326 28.9467C29.0176 29.0267 29.0975 29.0967 29.2075 29.1917C29.3725 29.3417 29.4977 29.4267 29.5877 29.4767C29.6127 29.4867 29.6275 29.4967 29.6375 29.5017V29.4917Z" fill="white"/>
<path fill-rule="evenodd" clip-rule="evenodd" d="M16.1626 17.8317C16.1626 16.9117 16.9125 16.1667 17.8325 16.1667H22.1326C23.0776 16.1667 23.9775 16.5667 24.6125 17.2717L27.6177 20.6117C27.9227 20.9517 27.8975 21.4817 27.5525 21.7867C27.2125 22.0967 26.6874 22.0667 26.3774 21.7267L23.3726 18.3867C23.0576 18.0367 22.6076 17.8367 22.1326 17.8367H17.8325V21.1717C17.8325 21.6317 17.4576 22.0067 16.9976 22.0067C16.5376 22.0067 16.1626 21.6317 16.1626 21.1717V17.8317Z" fill="white"/>
<path fill-rule="evenodd" clip-rule="evenodd" d="M16.9976 13.6619C16.9976 13.2019 17.3725 12.8269 17.8325 12.8269H19.4976C20.4176 12.8269 21.1626 13.5719 21.1626 14.4919V16.9919C21.1626 17.4519 20.7925 17.8269 20.3325 17.8269C19.8725 17.8269 19.4976 17.4519 19.4976 16.9919V14.4919H17.8325C17.3725 14.4919 16.9976 14.1169 16.9976 13.6569V13.6619Z" fill="white"/>
<path d="M13.6627 20.537C13.4727 20.537 13.2927 20.622 13.1727 20.772C13.0577 20.922 13.0127 21.117 13.0577 21.302L14.5426 27.627C15.1976 27.002 16.0376 26.592 17.0726 26.652C18.1976 26.722 19.1176 27.397 19.5126 27.682C20.1676 27.022 21.0326 26.557 22.1276 26.632C23.2226 26.707 24.0676 27.357 24.4676 27.682C25.0926 27.032 25.9276 26.527 27.0126 26.577C28.1076 26.627 28.9326 27.262 29.3426 27.617C29.3776 27.577 29.4076 27.532 29.4376 27.492C29.9726 26.732 30.3076 25.757 30.5226 24.842C30.7426 23.917 30.8477 22.997 30.9027 22.312C30.9277 21.967 30.9426 21.682 30.9476 21.482C30.9526 21.382 30.9526 21.222 30.9576 21.162C30.9576 20.812 30.6776 20.532 30.3326 20.532H13.6627V20.537Z" fill="white"/>
</g>
</g>
<rect x="9" y="9" width="26" height="26" rx="3" stroke="white" stroke-width="2"/>
</g>
<defs>
<filter id="filter0_d_8318_7041" x="0" y="0" width="44" height="44" filterUnits="userSpaceOnUse" color-interpolation-filters="sRGB">
<feFlood flood-opacity="0" result="BackgroundImageFix"/>
<feColorMatrix in="SourceAlpha" type="matrix" values="0 0 0 0 0 0 0 0 0 0 0 0 0 0 0 0 0 0 127 0" result="hardAlpha"/>
<feOffset/>
<feGaussianBlur stdDeviation="4"/>
<feColorMatrix type="matrix" values="0 0 0 0 0 0 0 0 0 0 0 0 0 0 0 0 0 0 0.23 0"/>
<feBlend mode="normal" in2="BackgroundImageFix" result="effect1_dropShadow_8318_7041"/>
<feBlend mode="normal" in="SourceGraphic" in2="effect1_dropShadow_8318_7041" result="shape"/>
</filter>
<clipPath id="clip0_8318_7041">
<rect x="8" y="8" width="28" height="28" rx="4" fill="white"/>
</clipPath>
<clipPath id="clip1_8318_7041">
<rect width="20" height="20" fill="white" transform="translate(12 12)"/>
</clipPath>
</defs>
</svg>
