<svg width="44" height="44" viewBox="0 0 44 44" fill="none" xmlns="http://www.w3.org/2000/svg">
<g filter="url(#filter0_d_648_12329)">
<g clip-path="url(#clip0_648_12329)">
<rect x="8" y="6" width="28" height="28" rx="4" fill="#602060"/>
<path fill-rule="evenodd" clip-rule="evenodd" d="M18.0035 24.6551C18.3285 24.9801 18.3285 25.5101 18.0035 25.8351L15.9234 27.9201C15.5934 28.2451 15.0687 28.2451 14.7437 27.9201C14.4188 27.5951 14.4188 27.0651 14.7437 26.7401L16.8238 24.6551C17.1538 24.3301 17.6785 24.3301 18.0035 24.6551ZM25.9937 24.6551C26.3187 24.3301 26.8434 24.3301 27.1734 24.6551L29.2535 26.7401C29.5785 27.0651 29.5785 27.5951 29.2535 27.9201C28.9285 28.2451 28.4038 28.2451 28.0738 27.9201L25.9937 25.8351C25.6687 25.5101 25.6687 24.9801 25.9937 24.6551Z" fill="white"/>
<path fill-rule="evenodd" clip-rule="evenodd" d="M15.7133 14.98C16.0483 12.97 17.7887 11.5 19.8237 11.5H24.1733C26.2133 11.5 27.9486 12.97 28.2836 14.98L29.3832 21.58C29.7482 23.75 28.3435 25.89 26.0785 26.195C24.8535 26.36 23.3985 26.5 21.9985 26.5C20.5985 26.5 19.1484 26.36 17.9184 26.195C15.6584 25.89 14.2537 23.75 14.6137 21.58L15.7133 14.98ZM19.8237 13.165C18.6037 13.165 17.5583 14.05 17.3583 15.255L17.0536 17.085C17.7286 17.805 18.6134 18.275 19.5034 18.575C20.4984 18.905 21.4485 19 21.9985 19C22.5485 19 23.4986 18.905 24.4936 18.575C25.3836 18.28 26.2687 17.805 26.9487 17.085L26.6435 15.255C26.4385 14.05 25.3983 13.165 24.1733 13.165H19.8237ZM19.4985 21.495C19.0385 21.495 18.6635 21.87 18.6635 22.33C18.6635 22.79 19.0385 23.165 19.4985 23.165C19.9635 23.165 20.3334 22.79 20.3334 22.33C20.3334 21.87 19.9635 21.495 19.4985 21.495ZM24.4887 21.495C24.0287 21.495 23.6586 21.87 23.6586 22.33C23.6586 22.79 24.0287 23.165 24.4887 23.165H24.4985C24.9585 23.165 25.3334 22.79 25.3334 22.33C25.3334 21.87 24.9585 21.495 24.4985 21.495H24.4887Z" fill="white"/>
</g>
<rect x="9" y="7" width="26" height="26" rx="3" stroke="white" stroke-width="2"/>
</g>
<defs>
<filter id="filter0_d_648_12329" x="0" y="0" width="44" height="44" filterUnits="userSpaceOnUse" color-interpolation-filters="sRGB">
<feFlood flood-opacity="0" result="BackgroundImageFix"/>
<feColorMatrix in="SourceAlpha" type="matrix" values="0 0 0 0 0 0 0 0 0 0 0 0 0 0 0 0 0 0 127 0" result="hardAlpha"/>
<feOffset dy="2"/>
<feGaussianBlur stdDeviation="4"/>
<feColorMatrix type="matrix" values="0 0 0 0 0 0 0 0 0 0 0 0 0 0 0 0 0 0 0.16 0"/>
<feBlend mode="normal" in2="BackgroundImageFix" result="effect1_dropShadow_648_12329"/>
<feBlend mode="normal" in="SourceGraphic" in2="effect1_dropShadow_648_12329" result="shape"/>
</filter>
<clipPath id="clip0_648_12329">
<rect x="8" y="6" width="28" height="28" rx="4" fill="white"/>
</clipPath>
</defs>
</svg>
