<svg width="44" height="44" viewBox="0 0 44 44" fill="none" xmlns="http://www.w3.org/2000/svg">
<g filter="url(#filter0_d_648_12333)">
<g clip-path="url(#clip0_648_12333)">
<rect x="8" y="6" width="28" height="28" rx="4" fill="#602060"/>
<path fill-rule="evenodd" clip-rule="evenodd" d="M12.835 12.4991C12.835 12.0391 13.205 11.6641 13.665 11.6641H19.78C21.4 11.6641 22.98 12.1891 24.28 13.1641L29.165 16.8291C30.425 17.7741 31.165 19.2541 31.165 20.8291C31.165 22.2091 30.05 23.3291 28.665 23.3291H13.665C13.205 23.3291 12.835 22.9541 12.835 22.4941V20.6191H18.6699C19.0149 20.6191 19.2949 20.3391 19.2949 19.9941C19.2949 17.8091 17.52 16.0341 15.335 16.0341H12.835V12.4941V12.4991ZM12.835 17.2891V19.3741H17.97C17.69 18.1791 16.615 17.2891 15.335 17.2891H12.835ZM28.165 18.1641C28.32 18.2791 28.46 18.4041 28.585 18.5391H26.165C24.21 18.5391 22.625 16.9541 22.625 14.9991V14.0741C22.85 14.1991 23.07 14.3441 23.28 14.4991L28.165 18.1641Z" fill="white"/>
<path fill-rule="evenodd" clip-rule="evenodd" d="M12.835 25.834C12.835 25.374 13.205 24.999 13.665 24.999H30.335C30.795 24.999 31.165 25.374 31.165 25.834C31.165 26.294 30.795 26.669 30.335 26.669H13.665C13.205 26.669 12.835 26.294 12.835 25.834Z" fill="white"/>
<path fill-rule="evenodd" clip-rule="evenodd" d="M17 24.999C17.46 24.999 17.835 25.374 17.835 25.834V27.499C17.835 27.959 17.46 28.334 17 28.334C16.54 28.334 16.165 27.959 16.165 27.499V25.834C16.165 25.374 16.54 24.999 17 24.999ZM22 24.999C22.46 24.999 22.835 25.374 22.835 25.834V27.499C22.835 27.959 22.46 28.334 22 28.334C21.54 28.334 21.165 27.959 21.165 27.499V25.834C21.165 25.374 21.54 24.999 22 24.999ZM27 24.999C27.46 24.999 27.835 25.374 27.835 25.834V27.499C27.835 27.959 27.46 28.334 27 28.334C26.54 28.334 26.165 27.959 26.165 27.499V25.834C26.165 25.374 26.54 24.999 27 24.999Z" fill="white"/>
</g>
<rect x="9" y="7" width="26" height="26" rx="3" stroke="white" stroke-width="2"/>
</g>
<defs>
<filter id="filter0_d_648_12333" x="0" y="0" width="44" height="44" filterUnits="userSpaceOnUse" color-interpolation-filters="sRGB">
<feFlood flood-opacity="0" result="BackgroundImageFix"/>
<feColorMatrix in="SourceAlpha" type="matrix" values="0 0 0 0 0 0 0 0 0 0 0 0 0 0 0 0 0 0 127 0" result="hardAlpha"/>
<feOffset dy="2"/>
<feGaussianBlur stdDeviation="4"/>
<feColorMatrix type="matrix" values="0 0 0 0 0 0 0 0 0 0 0 0 0 0 0 0 0 0 0.16 0"/>
<feBlend mode="normal" in2="BackgroundImageFix" result="effect1_dropShadow_648_12333"/>
<feBlend mode="normal" in="SourceGraphic" in2="effect1_dropShadow_648_12333" result="shape"/>
</filter>
<clipPath id="clip0_648_12333">
<rect x="8" y="6" width="28" height="28" rx="4" fill="white"/>
</clipPath>
</defs>
</svg>
