<svg width="64" height="69" viewBox="0 0 64 69" fill="none" xmlns="http://www.w3.org/2000/svg">
<g filter="url(#filter0_d_652_10434)">
<path d="M28.9339 56.5875L28.934 56.5875C30.5073 58.4299 33.5121 58.4862 35.1319 56.6611L35.132 56.661C36.9983 54.5579 39.1407 52.5639 41.3403 50.5389C41.4722 50.4174 41.6043 50.2959 41.7367 50.1741C43.7972 48.2784 45.8947 46.3487 47.7818 44.3154C51.8041 39.9816 55 35.0433 55 28.5984C55 16.609 44.6395 7 32 7C19.3605 7 9 16.609 9 28.5984C9 35.1686 12.2558 40.0504 16.3178 44.3186C18.0651 46.1546 19.9891 47.9049 21.8856 49.63C22.1871 49.9043 22.4879 50.1779 22.7872 50.4512C24.9836 52.4565 27.1082 54.4492 28.9339 56.5875Z" fill="#862D86" stroke="white" stroke-width="2" stroke-linejoin="round"/>
<path d="M26.1689 38.8976C27.7789 38.8976 29.0811 37.5886 29.0811 35.9786C29.0811 34.3686 27.7789 33.0596 26.1689 33.0596C24.5589 33.0596 23.25 34.3686 23.25 35.9786C23.25 37.5886 24.5589 38.8976 26.1689 38.8976Z" fill="white"/>
<path d="M37.8311 38.8976C39.4411 38.8976 40.75 37.5886 40.75 35.9786C40.75 34.3686 39.4411 33.0596 37.8311 33.0596C36.2211 33.0596 34.9189 34.3686 34.9189 35.9786C34.9189 37.5886 36.2211 38.8976 37.8311 38.8976Z" fill="white"/>
<path fill-rule="evenodd" clip-rule="evenodd" d="M19.4561 27.8096C19.4561 27.3266 19.8481 26.9346 20.3311 26.9346H39C39.483 26.9346 39.875 27.3266 39.875 27.8096C39.875 28.2926 39.483 28.6846 39 28.6846H20.3311C19.8481 28.6846 19.4561 28.2926 19.4561 27.8096Z" fill="white"/>
<path fill-rule="evenodd" clip-rule="evenodd" d="M28.5 21.1035C28.983 21.1035 29.375 21.4955 29.375 21.9785V27.8095C29.375 28.2925 28.983 28.6845 28.5 28.6845C28.017 28.6845 27.625 28.2925 27.625 27.8095V21.9785C27.625 21.4955 28.017 21.1035 28.5 21.1035Z" fill="white"/>
<path fill-rule="evenodd" clip-rule="evenodd" d="M19.4561 21.9785C19.4561 21.4955 19.8481 21.1035 20.3311 21.1035H33.7011C34.7511 21.1035 35.731 21.6145 36.333 22.4755L39.5879 27.1305L42.7659 28.7195C43.8579 29.2655 44.5439 30.3715 44.5439 31.5895V34.8165C44.5439 35.9435 43.627 36.8605 42.5 36.8605H42.178C42.234 36.5805 42.2689 36.2865 42.2689 35.9855C42.2689 33.5355 40.2811 31.5545 37.8311 31.5545C35.3811 31.5545 33.4 33.5425 33.4 35.9855C33.4 36.2865 33.4281 36.5805 33.4841 36.8605H30.5159C30.5719 36.5805 30.6 36.2865 30.6 35.9855C30.6 33.5355 28.6119 31.5545 26.1689 31.5545C23.7259 31.5545 21.7311 33.5425 21.7311 35.9855C21.7311 36.1605 21.7449 36.3425 21.7659 36.5105L20.5901 35.9225C19.8971 35.5795 19.4561 34.8725 19.4561 34.0955V27.2355C19.4561 27.1165 19.484 26.9905 19.533 26.8785L21.3182 22.8605H20.3311C19.8481 22.8605 19.4561 22.4685 19.4561 21.9855V21.9785ZM23.236 22.8535L21.4231 26.9345H27.625V22.8535H23.236ZM29.375 22.8535V26.9345H37.3201L34.8981 23.4765C34.6251 23.0845 34.1771 22.8535 33.7011 22.8535H29.375Z" fill="white"/>
</g>
<defs>
<filter id="filter0_d_652_10434" x="0" y="0" width="64" height="69" filterUnits="userSpaceOnUse" color-interpolation-filters="sRGB">
<feFlood flood-opacity="0" result="BackgroundImageFix"/>
<feColorMatrix in="SourceAlpha" type="matrix" values="0 0 0 0 0 0 0 0 0 0 0 0 0 0 0 0 0 0 127 0" result="hardAlpha"/>
<feOffset dy="2"/>
<feGaussianBlur stdDeviation="4"/>
<feColorMatrix type="matrix" values="0 0 0 0 0 0 0 0 0 0 0 0 0 0 0 0 0 0 0.16 0"/>
<feBlend mode="normal" in2="BackgroundImageFix" result="effect1_dropShadow_652_10434"/>
<feBlend mode="normal" in="SourceGraphic" in2="effect1_dropShadow_652_10434" result="shape"/>
</filter>
</defs>
</svg>
