<svg width="56" height="56" viewBox="0 0 56 56" fill="none" xmlns="http://www.w3.org/2000/svg">
<g filter="url(#filter0_d_650_10340)">
<g clip-path="url(#clip0_650_10340)">
<rect x="10" y="8" width="36" height="36" rx="18" fill="#A7B6BE"/>
<path fill-rule="evenodd" clip-rule="evenodd" d="M22.4049 32.5168C22.8599 32.9718 22.8599 33.7138 22.4049 34.1688L19.4928 37.0878C19.0308 37.5428 18.2962 37.5428 17.8412 37.0878C17.3863 36.6328 17.3863 35.8908 17.8412 35.4358L20.7534 32.5168C21.2154 32.0618 21.9499 32.0618 22.4049 32.5168ZM33.5912 32.5168C34.0462 32.0618 34.7808 32.0618 35.2428 32.5168L38.1549 35.4358C38.6099 35.8908 38.6099 36.6328 38.1549 37.0878C37.6999 37.5428 36.9654 37.5428 36.5034 37.0878L33.5912 34.1688C33.1362 33.7138 33.1362 32.9718 33.5912 32.5168Z" fill="white"/>
<path fill-rule="evenodd" clip-rule="evenodd" d="M19.1986 18.9716C19.6676 16.1576 22.1041 14.0996 24.9531 14.0996H31.0426C33.8986 14.0996 36.3281 16.1576 36.7971 18.9716L38.3365 28.2116C38.8475 31.2496 36.881 34.2456 33.71 34.6726C31.995 34.9036 29.9579 35.0996 27.9979 35.0996C26.0379 35.0996 24.0077 34.9036 22.2857 34.6726C19.1217 34.2456 17.1552 31.2496 17.6592 28.2116L19.1986 18.9716ZM24.9531 16.4306C23.2451 16.4306 21.7817 17.6696 21.5017 19.3566L21.0751 21.9186C22.0201 22.9266 23.2587 23.5846 24.5047 24.0046C25.8977 24.4666 27.2279 24.5996 27.9979 24.5996C28.7679 24.5996 30.098 24.4666 31.491 24.0046C32.737 23.5916 33.9761 22.9266 34.9281 21.9186L34.5009 19.3566C34.2139 17.6696 32.7576 16.4306 31.0426 16.4306H24.9531ZM24.4979 28.0926C23.8539 28.0926 23.3289 28.6176 23.3289 29.2616C23.3289 29.9056 23.8539 30.4306 24.4979 30.4306C25.1489 30.4306 25.6668 29.9056 25.6668 29.2616C25.6668 28.6176 25.1489 28.0926 24.4979 28.0926ZM31.4842 28.0926C30.8402 28.0926 30.3221 28.6176 30.3221 29.2616C30.3221 29.9056 30.8402 30.4306 31.4842 30.4306H31.4979C32.1419 30.4306 32.6668 29.9056 32.6668 29.2616C32.6668 28.6176 32.1419 28.0926 31.4979 28.0926H31.4842Z" fill="white"/>
</g>
<rect x="9" y="7" width="38" height="38" rx="19" stroke="white" stroke-width="2"/>
</g>
<defs>
<filter id="filter0_d_650_10340" x="0" y="0" width="56" height="56" filterUnits="userSpaceOnUse" color-interpolation-filters="sRGB">
<feFlood flood-opacity="0" result="BackgroundImageFix"/>
<feColorMatrix in="SourceAlpha" type="matrix" values="0 0 0 0 0 0 0 0 0 0 0 0 0 0 0 0 0 0 127 0" result="hardAlpha"/>
<feOffset dy="2"/>
<feGaussianBlur stdDeviation="4"/>
<feColorMatrix type="matrix" values="0 0 0 0 0 0 0 0 0 0 0 0 0 0 0 0 0 0 0.16 0"/>
<feBlend mode="normal" in2="BackgroundImageFix" result="effect1_dropShadow_650_10340"/>
<feBlend mode="normal" in="SourceGraphic" in2="effect1_dropShadow_650_10340" result="shape"/>
</filter>
<clipPath id="clip0_650_10340">
<rect x="10" y="8" width="36" height="36" rx="18" fill="white"/>
</clipPath>
</defs>
</svg>
