<svg width="64" height="64" viewBox="0 0 64 64" fill="none" xmlns="http://www.w3.org/2000/svg">
<g filter="url(#filter0_d_10041_4665)">
<path d="M10 30C10 17.8497 19.8497 8 32 8C44.1503 8 54 17.8497 54 30C54 42.1503 44.1503 52 32 52C19.8497 52 10 42.1503 10 30Z" fill="#A7B6BE"/>
<path d="M32 7C44.7025 7 55 17.2975 55 30C55 42.7025 44.7025 53 32 53C19.2975 53 9 42.7025 9 30C9 17.2975 19.2975 7 32 7Z" stroke="white" stroke-width="2"/>
<path fill-rule="evenodd" clip-rule="evenodd" d="M32.0001 18.3311C32.6441 18.3311 33.1691 18.8561 33.1691 19.5001V23.0001C33.1691 23.6441 32.6441 24.1691 32.0001 24.1691C31.3561 24.1691 30.8311 23.6441 30.8311 23.0001V19.5001C30.8311 18.8561 31.3561 18.3311 32.0001 18.3311Z" fill="black"/>
<path fill-rule="evenodd" clip-rule="evenodd" d="M32.0001 35.8311C32.6441 35.8311 33.1691 36.3561 33.1691 37.0001V40.5001C33.1691 41.1441 32.6441 41.6691 32.0001 41.6691C31.3561 41.6691 30.8311 41.1441 30.8311 40.5001V37.0001C30.8311 36.3561 31.3561 35.8311 32.0001 35.8311Z" fill="black"/>
<path fill-rule="evenodd" clip-rule="evenodd" d="M37.8311 30.0001C37.8311 29.3561 38.3561 28.8311 39.0001 28.8311H42.5001C43.1441 28.8311 43.6691 29.3561 43.6691 30.0001C43.6691 30.6441 43.1441 31.1691 42.5001 31.1691H39.0001C38.3561 31.1691 37.8311 30.6441 37.8311 30.0001Z" fill="black"/>
<path fill-rule="evenodd" clip-rule="evenodd" d="M20.3311 30.0001C20.3311 29.3561 20.8561 28.8311 21.5001 28.8311H25.0001C25.6441 28.8311 26.1691 29.3561 26.1691 30.0001C26.1691 30.6441 25.6441 31.1691 25.0001 31.1691H21.5001C20.8561 31.1691 20.3311 30.6441 20.3311 30.0001Z" fill="black"/>
<path fill-rule="evenodd" clip-rule="evenodd" d="M40.2455 21.7538C40.7075 22.2088 40.7075 22.9508 40.2455 23.4058L37.7745 25.8838C37.3195 26.3388 36.5775 26.3388 36.1225 25.8838C35.6675 25.4288 35.6675 24.6868 36.1225 24.2318L38.6005 21.7538C39.0555 21.2988 39.7905 21.2988 40.2455 21.7538Z" fill="black"/>
<path fill-rule="evenodd" clip-rule="evenodd" d="M27.8773 34.1229C28.3323 34.5779 28.3323 35.3199 27.8773 35.7749L25.3993 38.2529C24.9443 38.7079 24.2093 38.7079 23.7543 38.2529C23.2993 37.7979 23.2993 37.0559 23.7543 36.6009L26.2254 34.1229C26.6804 33.6679 27.4223 33.6679 27.8773 34.1229Z" fill="black"/>
<path fill-rule="evenodd" clip-rule="evenodd" d="M36.1225 34.1229C36.5775 33.6679 37.3195 33.6679 37.7745 34.1229L40.2455 36.6009C40.7075 37.0559 40.7075 37.7979 40.2455 38.2529C39.7905 38.7079 39.0555 38.7079 38.6005 38.2529L36.1225 35.7749C35.6675 35.3199 35.6675 34.5779 36.1225 34.1229Z" fill="black"/>
<path fill-rule="evenodd" clip-rule="evenodd" d="M23.7543 21.7538C24.2093 21.2988 24.9443 21.2988 25.3993 21.7538L27.8773 24.2318C28.3323 24.6868 28.3323 25.4288 27.8773 25.8838C27.4223 26.3388 26.6804 26.3388 26.2254 25.8838L23.7543 23.4058C23.2993 22.9508 23.2993 22.2088 23.7543 21.7538Z" fill="black"/>
</g>
<defs>
<filter id="filter0_d_10041_4665" x="0" y="0" width="64" height="64" filterUnits="userSpaceOnUse" color-interpolation-filters="sRGB">
<feFlood flood-opacity="0" result="BackgroundImageFix"/>
<feColorMatrix in="SourceAlpha" type="matrix" values="0 0 0 0 0 0 0 0 0 0 0 0 0 0 0 0 0 0 127 0" result="hardAlpha"/>
<feOffset dy="2"/>
<feGaussianBlur stdDeviation="4"/>
<feColorMatrix type="matrix" values="0 0 0 0 0 0 0 0 0 0 0 0 0 0 0 0 0 0 0.16 0"/>
<feBlend mode="normal" in2="BackgroundImageFix" result="effect1_dropShadow_10041_4665"/>
<feBlend mode="normal" in="SourceGraphic" in2="effect1_dropShadow_10041_4665" result="shape"/>
</filter>
</defs>
</svg>
