<svg width="64" height="69" viewBox="0 0 64 69" fill="none" xmlns="http://www.w3.org/2000/svg">
<g filter="url(#filter0_d_8318_6808)">
<path d="M32 9C44.6395 9 55 18.6092 55 30.5986C54.9999 37.0433 51.8044 41.9817 47.7822 46.3154C45.7739 48.4793 43.5266 50.5259 41.3398 52.5391C39.1404 54.5639 36.9981 56.5581 35.1318 58.6611C33.512 60.4862 30.5069 60.4302 28.9336 58.5879C27.1079 56.4496 24.9835 54.4564 22.7871 52.4512C20.6053 50.4592 18.3424 48.4462 16.3174 46.3184C12.2556 42.0503 9.00008 37.1686 9 30.5986C9 18.6092 19.3605 9 32 9Z" fill="#4C1A4C" stroke="white" stroke-width="2" stroke-linejoin="round"/>
<path d="M26.1689 40.8971C27.7789 40.8971 29.0811 39.5881 29.0811 37.9781C29.0811 36.3681 27.7789 35.0591 26.1689 35.0591C24.5589 35.0591 23.25 36.3681 23.25 37.9781C23.25 39.5881 24.5589 40.8971 26.1689 40.8971Z" fill="white"/>
<path d="M37.8311 40.8971C39.4411 40.8971 40.75 39.5881 40.75 37.9781C40.75 36.3681 39.4411 35.0591 37.8311 35.0591C36.2211 35.0591 34.9189 36.3681 34.9189 37.9781C34.9189 39.5881 36.2211 40.8971 37.8311 40.8971Z" fill="white"/>
<path fill-rule="evenodd" clip-rule="evenodd" d="M19.4561 29.8091C19.4561 29.3261 19.8481 28.9341 20.3311 28.9341H39C39.483 28.9341 39.875 29.3261 39.875 29.8091C39.875 30.2921 39.483 30.6841 39 30.6841H20.3311C19.8481 30.6841 19.4561 30.2921 19.4561 29.8091Z" fill="white"/>
<path fill-rule="evenodd" clip-rule="evenodd" d="M28.5 23.103C28.983 23.103 29.375 23.495 29.375 23.978V29.809C29.375 30.292 28.983 30.684 28.5 30.684C28.017 30.684 27.625 30.292 27.625 29.809V23.978C27.625 23.495 28.017 23.103 28.5 23.103Z" fill="white"/>
<path fill-rule="evenodd" clip-rule="evenodd" d="M19.4561 23.978C19.4561 23.495 19.8481 23.103 20.3311 23.103H33.7011C34.7511 23.103 35.731 23.614 36.333 24.475L39.5879 29.13L42.7659 30.719C43.8579 31.265 44.5439 32.371 44.5439 33.589V36.816C44.5439 37.943 43.627 38.86 42.5 38.86H42.178C42.234 38.58 42.2689 38.286 42.2689 37.985C42.2689 35.535 40.2811 33.554 37.8311 33.554C35.3811 33.554 33.4 35.542 33.4 37.985C33.4 38.286 33.4281 38.58 33.4841 38.86H30.5159C30.5719 38.58 30.6 38.286 30.6 37.985C30.6 35.535 28.6119 33.554 26.1689 33.554C23.7259 33.554 21.7311 35.542 21.7311 37.985C21.7311 38.16 21.7449 38.342 21.7659 38.51L20.5901 37.922C19.8971 37.579 19.4561 36.872 19.4561 36.095V29.235C19.4561 29.116 19.484 28.99 19.533 28.878L21.3182 24.86H20.3311C19.8481 24.86 19.4561 24.468 19.4561 23.985V23.978ZM23.236 24.853L21.4231 28.934H27.625V24.853H23.236ZM29.375 24.853V28.934H37.3201L34.8981 25.476C34.6251 25.084 34.1771 24.853 33.7011 24.853H29.375Z" fill="white"/>
</g>
<defs>
<filter id="filter0_d_8318_6808" x="0" y="0" width="64" height="69" filterUnits="userSpaceOnUse" color-interpolation-filters="sRGB">
<feFlood flood-opacity="0" result="BackgroundImageFix"/>
<feColorMatrix in="SourceAlpha" type="matrix" values="0 0 0 0 0 0 0 0 0 0 0 0 0 0 0 0 0 0 127 0" result="hardAlpha"/>
<feOffset/>
<feGaussianBlur stdDeviation="4"/>
<feColorMatrix type="matrix" values="0 0 0 0 0 0 0 0 0 0 0 0 0 0 0 0 0 0 0.23 0"/>
<feBlend mode="normal" in2="BackgroundImageFix" result="effect1_dropShadow_8318_6808"/>
<feBlend mode="normal" in="SourceGraphic" in2="effect1_dropShadow_8318_6808" result="shape"/>
</filter>
</defs>
</svg>
