<svg width="56" height="56" viewBox="0 0 56 56" fill="none" xmlns="http://www.w3.org/2000/svg">
<g filter="url(#filter0_d_652_10445)">
<g clip-path="url(#clip0_652_10445)">
<rect x="10" y="8" width="36" height="36" rx="18" fill="#F2C0C8"/>
<path d="M22.1689 34.8976C23.7789 34.8976 25.0811 33.5886 25.0811 31.9786C25.0811 30.3686 23.7789 29.0596 22.1689 29.0596C20.5589 29.0596 19.25 30.3686 19.25 31.9786C19.25 33.5886 20.5589 34.8976 22.1689 34.8976Z" fill="#A1122A"/>
<path d="M33.8311 34.8976C35.4411 34.8976 36.75 33.5886 36.75 31.9786C36.75 30.3686 35.4411 29.0596 33.8311 29.0596C32.2211 29.0596 30.9189 30.3686 30.9189 31.9786C30.9189 33.5886 32.2211 34.8976 33.8311 34.8976Z" fill="#A1122A"/>
<path fill-rule="evenodd" clip-rule="evenodd" d="M15.4561 23.8096C15.4561 23.3266 15.8481 22.9346 16.3311 22.9346H35C35.483 22.9346 35.875 23.3266 35.875 23.8096C35.875 24.2926 35.483 24.6846 35 24.6846H16.3311C15.8481 24.6846 15.4561 24.2926 15.4561 23.8096Z" fill="#A1122A"/>
<path fill-rule="evenodd" clip-rule="evenodd" d="M24.5 17.1035C24.983 17.1035 25.375 17.4955 25.375 17.9785V23.8095C25.375 24.2925 24.983 24.6845 24.5 24.6845C24.017 24.6845 23.625 24.2925 23.625 23.8095V17.9785C23.625 17.4955 24.017 17.1035 24.5 17.1035Z" fill="#A1122A"/>
<path fill-rule="evenodd" clip-rule="evenodd" d="M15.4561 17.9785C15.4561 17.4955 15.8481 17.1035 16.3311 17.1035H29.7011C30.7511 17.1035 31.731 17.6145 32.333 18.4755L35.5879 23.1305L38.7659 24.7195C39.8579 25.2655 40.5439 26.3715 40.5439 27.5895V30.8165C40.5439 31.9435 39.627 32.8605 38.5 32.8605H38.178C38.234 32.5805 38.2689 32.2865 38.2689 31.9855C38.2689 29.5355 36.2811 27.5545 33.8311 27.5545C31.3811 27.5545 29.4 29.5425 29.4 31.9855C29.4 32.2865 29.4281 32.5805 29.4841 32.8605H26.5159C26.5719 32.5805 26.6 32.2865 26.6 31.9855C26.6 29.5355 24.6119 27.5545 22.1689 27.5545C19.7259 27.5545 17.7311 29.5425 17.7311 31.9855C17.7311 32.1605 17.7449 32.3425 17.7659 32.5105L16.5901 31.9225C15.8971 31.5795 15.4561 30.8725 15.4561 30.0955V23.2355C15.4561 23.1165 15.484 22.9905 15.533 22.8785L17.3182 18.8605H16.3311C15.8481 18.8605 15.4561 18.4685 15.4561 17.9855V17.9785ZM19.236 18.8535L17.4231 22.9345H23.625V18.8535H19.236ZM25.375 18.8535V22.9345H33.3201L30.8981 19.4765C30.6251 19.0845 30.1771 18.8535 29.7011 18.8535H25.375Z" fill="#A1122A"/>
</g>
<rect x="9" y="7" width="38" height="38" rx="19" stroke="#A1122A" stroke-width="2"/>
</g>
<defs>
<filter id="filter0_d_652_10445" x="0" y="0" width="56" height="56" filterUnits="userSpaceOnUse" color-interpolation-filters="sRGB">
<feFlood flood-opacity="0" result="BackgroundImageFix"/>
<feColorMatrix in="SourceAlpha" type="matrix" values="0 0 0 0 0 0 0 0 0 0 0 0 0 0 0 0 0 0 127 0" result="hardAlpha"/>
<feOffset dy="2"/>
<feGaussianBlur stdDeviation="4"/>
<feColorMatrix type="matrix" values="0 0 0 0 0 0 0 0 0 0 0 0 0 0 0 0 0 0 0.16 0"/>
<feBlend mode="normal" in2="BackgroundImageFix" result="effect1_dropShadow_652_10445"/>
<feBlend mode="normal" in="SourceGraphic" in2="effect1_dropShadow_652_10445" result="shape"/>
</filter>
<clipPath id="clip0_652_10445">
<rect x="10" y="8" width="36" height="36" rx="18" fill="white"/>
</clipPath>
</defs>
</svg>
