<svg width="64" height="64" viewBox="0 0 64 64" fill="none" xmlns="http://www.w3.org/2000/svg">
<g filter="url(#filter0_d_10041_4723)">
<path d="M10 30C10 17.8497 19.8497 8 32 8C44.1503 8 54 17.8497 54 30C54 42.1503 44.1503 52 32 52C19.8497 52 10 42.1503 10 30Z" fill="#F2C0C8"/>
<path d="M32 7C44.7025 7 55 17.2975 55 30C55 42.7025 44.7025 53 32 53C19.2975 53 9 42.7025 9 30C9 17.2975 19.2975 7 32 7Z" stroke="white" stroke-width="2"/>
<path fill-rule="evenodd" clip-rule="evenodd" d="M32 17.75C38.7655 17.75 44.25 23.2345 44.25 30C44.25 36.7655 38.7655 42.25 32 42.25C25.2345 42.25 19.75 36.7655 19.75 30C19.75 23.2345 25.2345 17.75 32 17.75ZM32 19.85C26.3943 19.85 21.85 24.3943 21.85 30C21.85 35.6057 26.3943 40.15 32 40.15C37.6057 40.15 42.15 35.6057 42.15 30C42.15 24.3943 37.6057 19.85 32 19.85Z" fill="#A1122A"/>
<path d="M27.7703 26.9655C27.2068 26.9655 26.75 26.5087 26.75 25.9453C26.75 25.3818 27.2068 24.925 27.7703 24.925H36.221C36.7845 24.925 37.2412 25.3818 37.2412 25.9453C37.2412 26.5087 36.7845 26.9655 36.221 26.9655H33.015V36.153C33.015 36.7174 32.5574 37.175 31.993 37.175C31.4286 37.175 30.971 36.7174 30.971 36.153V26.9655H27.7703Z" fill="#A1122A"/>
</g>
<defs>
<filter id="filter0_d_10041_4723" x="0" y="0" width="64" height="64" filterUnits="userSpaceOnUse" color-interpolation-filters="sRGB">
<feFlood flood-opacity="0" result="BackgroundImageFix"/>
<feColorMatrix in="SourceAlpha" type="matrix" values="0 0 0 0 0 0 0 0 0 0 0 0 0 0 0 0 0 0 127 0" result="hardAlpha"/>
<feOffset dy="2"/>
<feGaussianBlur stdDeviation="4"/>
<feColorMatrix type="matrix" values="0 0 0 0 0 0 0 0 0 0 0 0 0 0 0 0 0 0 0.16 0"/>
<feBlend mode="normal" in2="BackgroundImageFix" result="effect1_dropShadow_10041_4723"/>
<feBlend mode="normal" in="SourceGraphic" in2="effect1_dropShadow_10041_4723" result="shape"/>
</filter>
</defs>
</svg>
