<svg width="64" height="64" viewBox="0 0 64 64" fill="none" xmlns="http://www.w3.org/2000/svg">
<g filter="url(#filter0_d_10041_4703)">
<path d="M10 30C10 17.8497 19.8497 8 32 8C44.1503 8 54 17.8497 54 30C54 42.1503 44.1503 52 32 52C19.8497 52 10 42.1503 10 30Z" fill="#F2C0C8"/>
<path d="M32 7C44.7025 7 55 17.2975 55 30C55 42.7025 44.7025 53 32 53C19.2975 53 9 42.7025 9 30C9 17.2975 19.2975 7 32 7Z" stroke="white" stroke-width="2"/>
<path fill-rule="evenodd" clip-rule="evenodd" d="M19.4004 26.325C19.4004 25.1652 20.3406 24.225 21.5004 24.225H39.0004C42.4798 24.225 45.3004 27.0456 45.3004 30.525V34.725C45.3004 35.8848 44.3649 36.8251 43.2051 36.8251C36.3616 36.8251 23.3834 36.8251 21.5004 36.8251C20.3406 36.8251 19.4004 35.8849 19.4004 34.725V26.325ZM21.5004 27.025C21.5004 26.6385 21.8138 26.325 22.2004 26.325H24.2974C24.684 26.325 24.9974 26.6385 24.9974 27.025V30.525C24.9974 30.9116 24.684 31.225 24.2974 31.225H22.2004C21.8504 31.225 21.5004 30.875 21.5004 30.525V27.025ZM27.108 26.325C26.7214 26.325 26.408 26.6385 26.408 27.025L26.4004 30.525C26.4004 30.875 26.7504 31.225 27.1004 31.225H29.908C30.2946 31.225 30.608 30.9116 30.608 30.525V27.025C30.608 26.6385 30.2946 26.325 29.908 26.325H27.108ZM32.0185 27.025C32.0185 26.6385 32.3319 26.325 32.7185 26.325H35.5185C35.9051 26.325 36.2185 26.6385 36.2185 27.025V30.525C36.2185 30.9116 35.9051 31.225 35.5185 31.225H33.4185C32.6453 31.225 32.0004 31.2983 32.0004 30.525L32.0185 27.025ZM38.329 26.325C37.9424 26.325 37.629 26.6385 37.629 27.025V30.525C37.629 30.9116 37.9424 31.225 38.329 31.225H42.529C42.9156 31.225 43.229 30.9116 43.229 30.525C43.229 28.2054 41.3486 26.325 39.029 26.325H38.329Z" fill="#A1122A"/>
<path fill-rule="evenodd" clip-rule="evenodd" d="M19.9254 38.9251C19.9254 38.4418 20.3171 38.0501 20.8004 38.0501H43.9004C44.3836 38.0501 44.7754 38.4418 44.7754 38.9251C44.7754 39.4083 44.3836 39.8001 43.9004 39.8001H20.8004C20.3171 39.8001 19.9254 39.4083 19.9254 38.9251Z" fill="#A1122A"/>
<path fill-rule="evenodd" clip-rule="evenodd" d="M28.3254 21.425C28.3254 20.9418 28.7171 20.55 29.2004 20.55H34.8004C35.1459 20.55 35.4591 20.7534 35.5997 21.0691C35.7403 21.3847 35.6819 21.7536 35.4508 22.0104L32.3008 25.5104C31.9775 25.8696 31.4242 25.8987 31.065 25.5754C30.7058 25.2522 30.6767 24.6989 31 24.3397L32.8357 22.3H29.2004C28.7171 22.3 28.3254 21.9083 28.3254 21.425Z" fill="#A1122A"/>
</g>
<defs>
<filter id="filter0_d_10041_4703" x="0" y="0" width="64" height="64" filterUnits="userSpaceOnUse" color-interpolation-filters="sRGB">
<feFlood flood-opacity="0" result="BackgroundImageFix"/>
<feColorMatrix in="SourceAlpha" type="matrix" values="0 0 0 0 0 0 0 0 0 0 0 0 0 0 0 0 0 0 127 0" result="hardAlpha"/>
<feOffset dy="2"/>
<feGaussianBlur stdDeviation="4"/>
<feColorMatrix type="matrix" values="0 0 0 0 0 0 0 0 0 0 0 0 0 0 0 0 0 0 0.16 0"/>
<feBlend mode="normal" in2="BackgroundImageFix" result="effect1_dropShadow_10041_4703"/>
<feBlend mode="normal" in="SourceGraphic" in2="effect1_dropShadow_10041_4703" result="shape"/>
</filter>
</defs>
</svg>
