<svg width="56" height="56" viewBox="0 0 56 56" fill="none" xmlns="http://www.w3.org/2000/svg">
<g filter="url(#filter0_d_650_10360)">
<g clip-path="url(#clip0_650_10360)">
<rect x="10" y="8" width="36" height="36" rx="18" fill="#A7B6BE"/>
<path fill-rule="evenodd" clip-rule="evenodd" d="M27.1719 19.567C27.6969 19.336 28.2992 19.336 28.8242 19.567L36.2162 22.836C37.7982 23.536 38.54 25.349 37.903 26.952L37.4761 28.037C37.4761 28.037 37.4342 28.037 37.4132 28.037H34.6969C34.2139 28.037 33.8219 28.429 33.8219 28.912C33.8219 29.395 34.2139 29.787 34.6969 29.787H36.7829L35.7049 32.503C35.4879 32.454 35.2569 32.426 35.0189 32.419C33.4999 32.356 32.331 33.056 31.456 33.966C30.896 33.511 29.7129 32.608 28.1799 32.496C26.6539 32.391 25.4359 33.042 24.5189 33.966L24.47 33.931C23.924 33.525 22.678 32.615 21.103 32.517C20.83 32.503 20.5641 32.51 20.3121 32.538L19.22 29.787H21.292C21.775 29.787 22.167 29.395 22.167 28.912C22.167 28.429 21.775 28.037 21.292 28.037H18.5272L18.1 26.952C17.463 25.349 18.2051 23.529 19.7871 22.836L27.1719 19.567Z" fill="white"/>
<path fill-rule="evenodd" clip-rule="evenodd" d="M20.2279 18.6782C20.3889 16.8722 21.9009 15.4932 23.7139 15.4932H32.2821C34.0951 15.4932 35.6071 16.8722 35.7681 18.6782L36.1601 22.9762C36.2161 23.6202 35.7469 24.1872 35.1029 24.2432C34.4589 24.2992 33.8919 23.8302 33.8359 23.1862L33.4438 18.8882C33.3878 18.2862 32.8841 17.8242 32.2821 17.8242H23.7139C23.1119 17.8242 22.6081 18.2862 22.5521 18.8882L22.1601 23.1862C22.1041 23.8302 21.5371 24.2992 20.8931 24.2432C20.2491 24.1872 19.7799 23.6202 19.8359 22.9762L20.2279 18.6782Z" fill="white"/>
<path fill-rule="evenodd" clip-rule="evenodd" d="M27.9976 13.1621C28.6416 13.1621 29.1665 13.6871 29.1665 14.3311V16.6621C29.1665 17.3061 28.6416 17.8311 27.9976 17.8311C27.3536 17.8311 26.8286 17.3061 26.8286 16.6621V14.3311C26.8286 13.6871 27.3536 13.1621 27.9976 13.1621Z" fill="white"/>
<path fill-rule="evenodd" clip-rule="evenodd" d="M38.6934 36.486C38.6934 36.486 38.7567 36.437 38.8127 36.381C39.2537 35.912 39.9956 35.891 40.4646 36.332C40.9336 36.773 40.9545 37.508 40.5135 37.984C40.1145 38.411 39.6246 38.726 39.0366 38.817C38.4556 38.901 37.9445 38.74 37.5525 38.537C37.1675 38.341 36.8316 38.068 36.5586 37.83C36.4186 37.711 36.2364 37.543 36.0684 37.389C35.9494 37.284 35.8447 37.186 35.7677 37.116C35.2217 36.626 34.9626 36.514 34.8366 36.507C34.8366 36.507 34.7668 36.507 34.6408 36.591C34.4868 36.696 34.2556 36.92 33.9616 37.368H33.9544C33.6114 37.886 33.1845 38.32 32.6385 38.544C32.0575 38.789 31.4906 38.74 31.0146 38.579C30.5736 38.432 30.1886 38.173 29.8806 37.949C29.6636 37.788 29.4326 37.592 29.2226 37.424C29.1526 37.361 29.0757 37.305 29.0127 37.249C28.4107 36.759 28.0957 36.591 27.8927 36.577H27.8855C27.8855 36.577 27.5424 36.542 26.9544 37.417C26.6394 37.907 26.2195 38.32 25.6525 38.523C25.0785 38.733 24.5325 38.656 24.0915 38.509C23.6715 38.362 23.2935 38.131 22.9855 37.914C22.7755 37.774 22.5517 37.606 22.3487 37.452C22.2577 37.382 22.1665 37.312 22.0825 37.256C21.4595 36.801 21.1025 36.619 20.8575 36.605C20.7875 36.605 20.4794 36.584 19.9684 37.368H19.9616C19.4506 38.138 18.6806 38.817 17.6586 38.817C16.6366 38.817 15.8597 38.138 15.3627 37.368C15.0057 36.829 15.1597 36.108 15.6987 35.751C16.2377 35.401 16.9658 35.548 17.3158 36.094C17.4838 36.353 17.6026 36.444 17.6586 36.472C17.7146 36.444 17.8408 36.353 18.0158 36.087C18.8068 34.883 19.8004 34.204 21.0044 34.274C22.0264 34.337 22.9014 34.953 23.4684 35.373C23.5944 35.464 23.7066 35.548 23.8116 35.625C23.9866 35.758 24.1478 35.877 24.3158 35.989C24.5748 36.164 24.7426 36.262 24.8616 36.297C24.8686 36.297 24.8755 36.297 24.8825 36.297C24.9105 36.269 24.9526 36.213 25.0086 36.129C25.8276 34.89 26.8287 34.155 28.0537 34.239C29.0967 34.316 29.9575 35.002 30.4825 35.429C30.5875 35.513 30.6787 35.59 30.7627 35.66C30.9517 35.814 31.1126 35.947 31.2806 36.073C31.5186 36.255 31.6725 36.332 31.7635 36.367C31.8055 36.332 31.8896 36.255 32.0086 36.08C32.7856 34.897 33.7375 34.113 34.9415 34.169C35.9915 34.218 36.8175 34.918 37.3215 35.366C37.4825 35.513 37.6017 35.618 37.7067 35.723C37.8257 35.835 37.9375 35.933 38.0915 36.066C38.3225 36.276 38.4977 36.395 38.6237 36.465C38.6587 36.479 38.6794 36.493 38.6934 36.5V36.486Z" fill="white"/>
</g>
<rect x="9" y="7" width="38" height="38" rx="19" stroke="white" stroke-width="2"/>
</g>
<defs>
<filter id="filter0_d_650_10360" x="0" y="0" width="56" height="56" filterUnits="userSpaceOnUse" color-interpolation-filters="sRGB">
<feFlood flood-opacity="0" result="BackgroundImageFix"/>
<feColorMatrix in="SourceAlpha" type="matrix" values="0 0 0 0 0 0 0 0 0 0 0 0 0 0 0 0 0 0 127 0" result="hardAlpha"/>
<feOffset dy="2"/>
<feGaussianBlur stdDeviation="4"/>
<feColorMatrix type="matrix" values="0 0 0 0 0 0 0 0 0 0 0 0 0 0 0 0 0 0 0.16 0"/>
<feBlend mode="normal" in2="BackgroundImageFix" result="effect1_dropShadow_650_10360"/>
<feBlend mode="normal" in="SourceGraphic" in2="effect1_dropShadow_650_10360" result="shape"/>
</filter>
<clipPath id="clip0_650_10360">
<rect x="10" y="8" width="36" height="36" rx="18" fill="white"/>
</clipPath>
</defs>
</svg>
