<svg width="28" height="28" viewBox="0 0 28 28" fill="none" xmlns="http://www.w3.org/2000/svg">
<path d="M0 4C0 1.79086 1.79086 0 4 0H24C26.2091 0 28 1.79086 28 4V24C28 26.2091 26.2091 28 24 28H4C1.79086 28 0 26.2091 0 24V4Z" fill="#70A4B2"/>
<path d="M20.25 22.54H7.75C6.485 22.54 5.45996 21.51 5.45996 20.25V7.74996C5.45996 6.48496 6.485 5.45996 7.75 5.45996H20.25C21.515 5.45996 22.54 6.48996 22.54 7.74996V20.25C22.54 21.515 21.515 22.54 20.25 22.54ZM7.75 6.70996C7.175 6.70996 6.70996 7.17496 6.70996 7.74996V20.25C6.70996 20.825 7.175 21.29 7.75 21.29H20.25C20.825 21.29 21.29 20.825 21.29 20.25V7.74996C21.29 7.17496 20.825 6.70996 20.25 6.70996H7.75Z" fill="black"/>
<path d="M11.085 19.2099C10.74 19.2099 10.46 18.9299 10.46 18.5849V9.41992C10.46 9.07492 10.74 8.79492 11.085 8.79492H14.415C16.14 8.79492 17.54 10.1949 17.54 11.9199C17.54 13.6449 16.14 15.0449 14.415 15.0449H11.71V18.5849C11.71 18.9299 11.43 19.2099 11.085 19.2099ZM11.71 13.7899H14.415C15.45 13.7899 16.29 12.9499 16.29 11.9149C16.29 10.8799 15.45 10.0399 14.415 10.0399H11.71V13.7899Z" fill="black"/>
</svg>
