<svg width="28" height="28" viewBox="0 0 28 28" fill="none" xmlns="http://www.w3.org/2000/svg">
<path d="M0 4C0 1.79086 1.79086 0 4 0H24C26.2091 0 28 1.79086 28 4V24C28 26.2091 26.2091 28 24 28H4C1.79086 28 0 26.2091 0 24V4Z" fill="#F2726A"/>
<path d="M19.5999 20.1998C19.4449 20.1998 19.295 20.1398 19.175 20.0248L7.97496 8.82483C7.73996 8.58983 7.73996 8.20983 7.97496 7.97483C8.20996 7.73983 8.58995 7.73983 8.82495 7.97483L20.025 19.1748C20.26 19.4098 20.26 19.7898 20.025 20.0248C19.91 20.1398 19.7549 20.1998 19.5999 20.1998Z" fill="black"/>
<path d="M13.9999 22.5999C9.25991 22.5999 5.3999 18.7399 5.3999 13.9999C5.3999 9.2599 9.25991 5.3999 13.9999 5.3999C18.7399 5.3999 22.5999 9.2599 22.5999 13.9999C22.5999 18.7399 18.7399 22.5999 13.9999 22.5999ZM13.9999 6.5999C9.91991 6.5999 6.59991 9.9199 6.59991 13.9999C6.59991 18.0799 9.91991 21.3999 13.9999 21.3999C18.0799 21.3999 21.3999 18.0799 21.3999 13.9999C21.3999 9.9199 18.0799 6.5999 13.9999 6.5999Z" fill="black"/>
</svg>
