<svg width="28" height="28" viewBox="0 0 28 28" fill="none" xmlns="http://www.w3.org/2000/svg">
<path d="M0 4C0 1.79086 1.79086 0 4 0H24C26.2091 0 28 1.79086 28 4V24C28 26.2091 26.2091 28 24 28H4C1.79086 28 0 26.2091 0 24V4Z" fill="#30100E"/>
<path d="M19.8326 20.4593C19.6726 20.4593 19.5126 20.3993 19.3926 20.2743L7.72757 8.60928C7.48257 8.36428 7.48257 7.96928 7.72757 7.72428C7.97257 7.47928 8.36758 7.47928 8.61258 7.72428L20.2776 19.3893C20.5226 19.6343 20.5226 20.0293 20.2776 20.2743C20.1576 20.3943 19.9976 20.4593 19.8376 20.4593H19.8326Z" fill="white"/>
<path d="M8.16256 20.4593C8.00256 20.4593 7.84257 20.3993 7.72257 20.2743C7.47757 20.0293 7.47757 19.6343 7.72257 19.3893L19.3876 7.72428C19.6326 7.47928 20.0276 7.47928 20.2726 7.72428C20.5176 7.96928 20.5176 8.36428 20.2726 8.60928L8.60756 20.2743C8.48756 20.3943 8.32756 20.4593 8.16756 20.4593H8.16256Z" fill="white"/>
</svg>
