<svg width="28" height="28" viewBox="0 0 28 28" fill="none" xmlns="http://www.w3.org/2000/svg">
<path d="M0 4C0 1.79086 1.79086 0 4 0H24C26.2091 0 28 1.79086 28 4V24C28 26.2091 26.2091 28 24 28H4C1.79086 28 0 26.2091 0 24V4Z" fill="#70A4B2"/>
<path d="M20.251 22.54H7.75098C6.48598 22.54 5.46094 21.51 5.46094 20.25V7.74999C5.46094 6.48499 6.48598 5.45999 7.75098 5.45999H20.251C21.516 5.45999 22.541 6.48999 22.541 7.74999V20.25C22.541 21.515 21.516 22.54 20.251 22.54ZM7.75098 6.70999C7.17598 6.70999 6.71094 7.17499 6.71094 7.74999V20.25C6.71094 20.825 7.17598 21.29 7.75098 21.29H20.251C20.826 21.29 21.291 20.825 21.291 20.25V7.74999C21.291 7.17499 20.826 6.70999 20.251 6.70999H7.75098Z" fill="white"/>
<path d="M11.0859 19.21C10.7409 19.21 10.4609 18.93 10.4609 18.585V9.41995C10.4609 9.07495 10.7409 8.79495 11.0859 8.79495H14.416C16.141 8.79495 17.541 10.195 17.541 11.92C17.541 13.645 16.141 15.045 14.416 15.045H11.7109V18.585C11.7109 18.93 11.4309 19.21 11.0859 19.21ZM11.7109 13.79H14.416C15.451 13.79 16.291 12.95 16.291 11.915C16.291 10.88 15.451 10.04 14.416 10.04H11.7109V13.79Z" fill="white"/>
</svg>
