<svg width="28" height="28" viewBox="0 0 28 28" fill="none" xmlns="http://www.w3.org/2000/svg">
<path d="M0 4C0 1.79086 1.79086 0 4 0H24C26.2091 0 28 1.79086 28 4V24C28 26.2091 26.2091 28 24 28H4C1.79086 28 0 26.2091 0 24V4Z" fill="#F2726A"/>
<path d="M19.6004 20.1999C19.4454 20.1999 19.2954 20.1399 19.1754 20.0249L7.97544 8.82493C7.74044 8.58993 7.74044 8.20993 7.97544 7.97493C8.21044 7.73993 8.59044 7.73993 8.82544 7.97493L20.0254 19.1749C20.2604 19.4099 20.2604 19.7899 20.0254 20.0249C19.9104 20.1399 19.7554 20.1999 19.6004 20.1999Z" fill="white"/>
<path d="M14.0004 22.6C9.2604 22.6 5.40039 18.74 5.40039 14C5.40039 9.25999 9.2604 5.39999 14.0004 5.39999C18.7404 5.39999 22.6004 9.25999 22.6004 14C22.6004 18.74 18.7404 22.6 14.0004 22.6ZM14.0004 6.59999C9.9204 6.59999 6.6004 9.91999 6.6004 14C6.6004 18.08 9.9204 21.4 14.0004 21.4C18.0804 21.4 21.4004 18.08 21.4004 14C21.4004 9.91999 18.0804 6.59999 14.0004 6.59999Z" fill="white"/>
</svg>
