<svg width="28" height="28" viewBox="0 0 28 28" fill="none" xmlns="http://www.w3.org/2000/svg">
<path d="M0 4C0 1.79086 1.79086 0 4 0H24C26.2091 0 28 1.79086 28 4V24C28 26.2091 26.2091 28 24 28H4C1.79086 28 0 26.2091 0 24V4Z" fill="#30100E"/>
<path d="M19.8326 20.4598C19.6726 20.4598 19.5126 20.3998 19.3926 20.2748L7.72757 8.60977C7.48257 8.36477 7.48257 7.96977 7.72757 7.72477C7.97257 7.47977 8.36758 7.47977 8.61258 7.72477L20.2776 19.3898C20.5226 19.6348 20.5226 20.0298 20.2776 20.2748C20.1576 20.3948 19.9976 20.4598 19.8376 20.4598H19.8326Z" fill="white"/>
<path d="M8.16256 20.4598C8.00256 20.4598 7.84257 20.3998 7.72257 20.2748C7.47757 20.0298 7.47757 19.6348 7.72257 19.3898L19.3876 7.72477C19.6326 7.47977 20.0276 7.47977 20.2726 7.72477C20.5176 7.96977 20.5176 8.36477 20.2726 8.60977L8.60756 20.2748C8.48756 20.3948 8.32756 20.4598 8.16756 20.4598H8.16256Z" fill="white"/>
</svg>
