<svg width="40" height="40" viewBox="0 0 40 40" fill="none" xmlns="http://www.w3.org/2000/svg">
<path fill-rule="evenodd" clip-rule="evenodd" d="M19.995 2.08496C13.625 2.08496 7.53504 5.85496 4.99504 11.805C2.62504 17.345 3.90499 22.055 6.57499 26.095C8.76499 29.405 11.955 32.355 14.845 35.025C15.395 35.535 15.925 36.035 16.445 36.515C17.405 37.415 18.685 37.915 19.995 37.915C21.305 37.915 22.5851 37.415 23.5451 36.525C24.0351 36.065 24.5451 35.595 25.0551 35.125C27.9751 32.445 31.2151 29.455 33.4251 26.105C36.0951 22.065 37.375 17.345 35.005 11.815C32.455 5.86496 26.375 2.09496 19.995 2.09496V2.08496ZM19.995 11.675C16.315 11.675 13.325 14.655 13.325 18.345C13.325 22.035 16.315 25.015 19.995 25.015C23.675 25.015 26.6651 22.035 26.6651 18.345C26.6651 14.655 23.675 11.675 19.995 11.675Z" fill="#046078" stroke="white"/>
</svg>
