<svg width="40" height="40" viewBox="0 0 40 40" fill="none" xmlns="http://www.w3.org/2000/svg">
<path fill-rule="evenodd" clip-rule="evenodd" d="M19.995 2.08594C13.625 2.08594 7.53504 5.85594 4.99504 11.8059C2.62504 17.3459 3.90499 22.0559 6.57499 26.0959C8.76499 29.4059 11.955 32.3559 14.845 35.0259C15.395 35.5359 15.925 36.0359 16.445 36.5159C17.405 37.4159 18.685 37.9159 19.995 37.9159C21.305 37.9159 22.5851 37.4159 23.5451 36.5259C24.0351 36.0659 24.5451 35.5959 25.0551 35.1259C27.9751 32.4459 31.2151 29.4559 33.4251 26.1059C36.0951 22.0659 37.375 17.3459 35.005 11.8159C32.455 5.86594 26.375 2.09594 19.995 2.09594V2.08594ZM19.995 11.6759C16.315 11.6759 13.325 14.6559 13.325 18.3459C13.325 22.0359 16.315 25.0159 19.995 25.0159C23.675 25.0159 26.6651 22.0359 26.6651 18.3459C26.6651 14.6559 23.675 11.6759 19.995 11.6759Z" fill="#046078" stroke="white"/>
</svg>
