<svg width="102" height="65" viewBox="0 0 102 65" fill="none" xmlns="http://www.w3.org/2000/svg">
<g filter="url(#filter0_d_803_6676)">
<mask id="path-1-inside-1_803_6676" fill="white">
<path fill-rule="evenodd" clip-rule="evenodd" d="M16 6C11.5817 6 8 9.58172 8 14V42C8 46.4183 11.5817 50 16 50H40.0486C43.0393 50 45.9778 51.0638 48.0226 53.2462C48.2503 53.4893 48.4744 53.7343 48.6944 53.9815C49.879 55.312 52.1727 55.3473 53.384 54.0382C53.6458 53.7553 53.9126 53.4746 54.184 53.1957C56.2608 51.0621 59.1772 50 62.1547 50H86C90.4183 50 94 46.4183 94 42V14C94 9.58172 90.4183 6 86 6H16Z"/>
</mask>
<path fill-rule="evenodd" clip-rule="evenodd" d="M16 6C11.5817 6 8 9.58172 8 14V42C8 46.4183 11.5817 50 16 50H40.0486C43.0393 50 45.9778 51.0638 48.0226 53.2462C48.2503 53.4893 48.4744 53.7343 48.6944 53.9815C49.879 55.312 52.1727 55.3473 53.384 54.0382C53.6458 53.7553 53.9126 53.4746 54.184 53.1957C56.2608 51.0621 59.1772 50 62.1547 50H86C90.4183 50 94 46.4183 94 42V14C94 9.58172 90.4183 6 86 6H16Z" fill="white"/>
<path d="M48.6944 53.9815L47.2005 55.3112L47.2006 55.3114L48.6944 53.9815ZM53.384 54.0382L54.852 55.3965L54.8521 55.3964L53.384 54.0382ZM54.184 53.1957L52.7509 51.8008L54.184 53.1957ZM48.0226 53.2462L49.4821 51.8788L48.0226 53.2462ZM10 14C10 10.6863 12.6863 8 16 8V4C10.4772 4 6 8.47715 6 14H10ZM10 42V14H6V42H10ZM16 48C12.6863 48 10 45.3137 10 42H6C6 47.5228 10.4772 52 16 52V48ZM40.0486 48H16V52H40.0486V48ZM46.5631 54.6137C46.7799 54.8451 46.9925 55.0776 47.2005 55.3112L50.1883 52.6517C49.9563 52.3911 49.7207 52.1335 49.4821 51.8788L46.5631 54.6137ZM47.2006 55.3114C49.1611 57.5134 52.8291 57.5827 54.852 55.3965L51.916 52.6799C51.5164 53.1118 50.597 53.1107 50.1882 52.6515L47.2006 55.3114ZM54.8521 55.3964C55.1015 55.1269 55.3567 54.8584 55.6172 54.5907L52.7509 51.8008C52.4686 52.0907 52.19 52.3837 51.916 52.68L54.8521 55.3964ZM86 48H62.1547V52H86V48ZM92 42C92 45.3137 89.3137 48 86 48V52C91.5229 52 96 47.5228 96 42H92ZM92 14V42H96V14H92ZM86 8C89.3137 8 92 10.6863 92 14H96C96 8.47715 91.5229 4 86 4V8ZM16 8H86V4H16V8ZM55.6172 54.5907C57.2654 52.8974 59.6375 52 62.1547 52V48C58.717 48 55.2562 49.2268 52.7509 51.8008L55.6172 54.5907ZM40.0486 52C42.5852 52 44.9591 52.9017 46.5631 54.6137L49.4821 51.8788C46.9964 49.2258 43.4933 48 40.0486 48V52Z" fill="white" mask="url(#path-1-inside-1_803_6676)"/>
<rect x="10" y="8" width="40" height="40" rx="6" fill="#902F2A"/>
<path fill-rule="evenodd" clip-rule="evenodd" d="M22.7061 29.1664C20.7741 29.1664 19.2061 30.7344 19.2061 32.6664C19.2061 34.5984 20.7741 36.1664 22.7061 36.1664C24.6381 36.1664 26.2061 34.5984 26.2061 32.6664C26.2061 30.7344 24.6381 29.1664 22.7061 29.1664ZM16.875 32.6664C16.875 29.4464 19.4861 26.8354 22.7061 26.8354C25.9261 26.8354 28.5371 29.4464 28.5371 32.6664C28.5371 35.8864 25.9261 38.4973 22.7061 38.4973C19.4861 38.4973 16.875 35.8864 16.875 32.6664Z" fill="white"/>
<path fill-rule="evenodd" clip-rule="evenodd" d="M37.2871 29.1664C35.3551 29.1664 33.7871 30.7344 33.7871 32.6664C33.7871 34.5984 35.3551 36.1664 37.2871 36.1664C39.2191 36.1664 40.7871 34.5984 40.7871 32.6664C40.7871 30.7344 39.2261 29.1664 37.2871 29.1664ZM31.4561 32.6664C31.4561 29.4464 34.0671 26.8354 37.2871 26.8354C40.5071 26.8354 43.125 29.4464 43.125 32.6664C43.125 35.8864 40.5071 38.4973 37.2871 38.4973C34.0671 38.4973 31.4561 35.8864 31.4561 32.6664Z" fill="white"/>
<path fill-rule="evenodd" clip-rule="evenodd" d="M34.9909 22.3482C35.5369 22.6912 35.7051 23.4122 35.3621 23.9582L29.5311 33.2892C29.3141 33.6322 28.9431 33.8352 28.5371 33.8352H22.7061C22.0621 33.8352 21.5371 33.3102 21.5371 32.6662C21.5371 32.0222 22.0621 31.4972 22.7061 31.4972H27.8932L33.3811 22.7192C33.7241 22.1732 34.4449 22.0052 34.9909 22.3482Z" fill="white"/>
<path fill-rule="evenodd" clip-rule="evenodd" d="M20.375 22.1665C20.375 21.5225 20.8931 20.9975 21.5371 20.9975H27.375C28.019 20.9975 28.5371 21.5225 28.5371 22.1665C28.5371 22.8105 28.019 23.3355 27.375 23.3355H26.3879L31.1833 28.9915C31.5963 29.4815 31.5332 30.2165 31.0432 30.6365C30.5532 31.0495 29.8178 30.9935 29.3978 30.4965L23.3288 23.3285H21.5371C20.8931 23.3285 20.375 22.8035 20.375 22.1595V22.1665Z" fill="white"/>
<path fill-rule="evenodd" clip-rule="evenodd" d="M34.7879 19.9055C35.3059 19.9335 35.8028 19.9895 36.2788 20.1155C37.1258 20.3395 37.6649 20.7385 37.9099 21.5785C38.0849 22.1945 38.7362 22.5585 39.3522 22.3765C39.9752 22.2015 40.332 21.5505 40.15 20.9345C39.618 19.0725 38.2461 18.2255 36.8811 17.8615C35.8661 17.5885 34.7178 17.5535 33.8568 17.5255C33.6468 17.5255 33.4581 17.5115 33.2901 17.5045C32.4431 17.4625 31.8762 18.2675 32.0932 19.0095L36.1674 32.9955C36.3494 33.6115 36.9999 33.9685 37.6159 33.7865C38.2319 33.6045 38.5888 32.9605 38.4068 32.3375L34.7879 19.8985V19.9055Z" fill="white"/>
</g>
<defs>
<filter id="filter0_d_803_6676" x="0" y="0" width="102" height="65" filterUnits="userSpaceOnUse" color-interpolation-filters="sRGB">
<feFlood flood-opacity="0" result="BackgroundImageFix"/>
<feColorMatrix in="SourceAlpha" type="matrix" values="0 0 0 0 0 0 0 0 0 0 0 0 0 0 0 0 0 0 127 0" result="hardAlpha"/>
<feOffset dy="2"/>
<feGaussianBlur stdDeviation="4"/>
<feColorMatrix type="matrix" values="0 0 0 0 0 0 0 0 0 0 0 0 0 0 0 0 0 0 0.16 0"/>
<feBlend mode="normal" in2="BackgroundImageFix" result="effect1_dropShadow_803_6676"/>
<feBlend mode="normal" in="SourceGraphic" in2="effect1_dropShadow_803_6676" result="shape"/>
</filter>
</defs>
</svg>
