<svg width="102" height="65" viewBox="0 0 102 65" fill="none" xmlns="http://www.w3.org/2000/svg">
<g filter="url(#filter0_d_8318_7627)">
<mask id="path-1-inside-1_8318_7627" fill="white">
<path fill-rule="evenodd" clip-rule="evenodd" d="M16 8C11.5817 8 8 11.5817 8 16V44C8 48.4183 11.5817 52 16 52H40.0486C43.0393 52 45.9778 53.0638 48.0226 55.2462C48.2503 55.4893 48.4744 55.7343 48.6944 55.9815C49.879 57.312 52.1727 57.3473 53.384 56.0382C53.6458 55.7553 53.9126 55.4746 54.184 55.1957C56.2608 53.0621 59.1772 52 62.1547 52H86C90.4183 52 94 48.4183 94 44V16C94 11.5817 90.4183 8 86 8H16Z"/>
</mask>
<path fill-rule="evenodd" clip-rule="evenodd" d="M16 8C11.5817 8 8 11.5817 8 16V44C8 48.4183 11.5817 52 16 52H40.0486C43.0393 52 45.9778 53.0638 48.0226 55.2462C48.2503 55.4893 48.4744 55.7343 48.6944 55.9815C49.879 57.312 52.1727 57.3473 53.384 56.0382C53.6458 55.7553 53.9126 55.4746 54.184 55.1957C56.2608 53.0621 59.1772 52 62.1547 52H86C90.4183 52 94 48.4183 94 44V16C94 11.5817 90.4183 8 86 8H16Z" fill="white"/>
<path d="M48.6944 55.9815L47.2005 57.3112L47.2006 57.3114L48.6944 55.9815ZM53.384 56.0382L54.852 57.3965L54.8521 57.3964L53.384 56.0382ZM54.184 55.1957L52.7509 53.8008L54.184 55.1957ZM48.0226 55.2462L49.4821 53.8788L48.0226 55.2462ZM8 16H10C10 12.6863 12.6863 10 16 10V8V6C10.4772 6 6 10.4772 6 16H8ZM8 44H10V16H8H6V44H8ZM16 52V50C12.6863 50 10 47.3137 10 44H8H6C6 49.5228 10.4772 54 16 54V52ZM40.0486 52V50H16V52V54H40.0486V52ZM48.0226 55.2462L46.5631 56.6137C46.7799 56.8451 46.9925 57.0776 47.2005 57.3112L48.6944 55.9815L50.1883 54.6517C49.9563 54.3911 49.7207 54.1335 49.4821 53.8788L48.0226 55.2462ZM48.6944 55.9815L47.2006 57.3114C49.1611 59.5134 52.8291 59.5827 54.852 57.3965L53.384 56.0382L51.916 54.6799C51.5164 55.1118 50.597 55.1107 50.1882 54.6515L48.6944 55.9815ZM53.384 56.0382L54.8521 57.3964C55.1015 57.1269 55.3567 56.8584 55.6172 56.5907L54.184 55.1957L52.7509 53.8008C52.4686 54.0907 52.19 54.3837 51.916 54.68L53.384 56.0382ZM86 52V50H62.1547V52V54H86V52ZM94 44H92C92 47.3137 89.3137 50 86 50V52V54C91.5229 54 96 49.5228 96 44H94ZM94 16H92V44H94H96V16H94ZM86 8V10C89.3137 10 92 12.6863 92 16H94H96C96 10.4772 91.5229 6 86 6V8ZM16 8V10H86V8V6H16V8ZM54.184 55.1957L55.6172 56.5907C57.2654 54.8974 59.6375 54 62.1547 54V52V50C58.717 50 55.2562 51.2268 52.7509 53.8008L54.184 55.1957ZM40.0486 52V54C42.5852 54 44.9591 54.9017 46.5631 56.6137L48.0226 55.2462L49.4821 53.8788C46.9964 51.2258 43.4933 50 40.0486 50V52Z" fill="white" mask="url(#path-1-inside-1_8318_7627)"/>
<rect x="10" y="10" width="40" height="40" rx="6" fill="#533B75"/>
<path d="M24.1689 38.897C25.7789 38.897 27.0811 37.588 27.0811 35.978C27.0811 34.368 25.7789 33.059 24.1689 33.059C22.5589 33.059 21.25 34.368 21.25 35.978C21.25 37.588 22.5589 38.897 24.1689 38.897Z" fill="white"/>
<path d="M35.8311 38.897C37.4411 38.897 38.75 37.588 38.75 35.978C38.75 34.368 37.4411 33.059 35.8311 33.059C34.2211 33.059 32.9189 34.368 32.9189 35.978C32.9189 37.588 34.2211 38.897 35.8311 38.897Z" fill="white"/>
<path fill-rule="evenodd" clip-rule="evenodd" d="M17.4561 27.809C17.4561 27.326 17.8481 26.934 18.3311 26.934H37C37.483 26.934 37.875 27.326 37.875 27.809C37.875 28.292 37.483 28.684 37 28.684H18.3311C17.8481 28.684 17.4561 28.292 17.4561 27.809Z" fill="white"/>
<path fill-rule="evenodd" clip-rule="evenodd" d="M26.5 21.103C26.983 21.103 27.375 21.495 27.375 21.978V27.809C27.375 28.292 26.983 28.684 26.5 28.684C26.017 28.684 25.625 28.292 25.625 27.809V21.978C25.625 21.495 26.017 21.103 26.5 21.103Z" fill="white"/>
<path fill-rule="evenodd" clip-rule="evenodd" d="M17.4561 21.978C17.4561 21.495 17.8481 21.103 18.3311 21.103H31.7011C32.7511 21.103 33.731 21.614 34.333 22.475L37.5879 27.13L40.7659 28.719C41.8579 29.265 42.5439 30.371 42.5439 31.589V34.816C42.5439 35.943 41.627 36.86 40.5 36.86H40.178C40.234 36.58 40.2689 36.286 40.2689 35.985C40.2689 33.535 38.2811 31.554 35.8311 31.554C33.3811 31.554 31.4 33.542 31.4 35.985C31.4 36.286 31.4281 36.58 31.4841 36.86H28.5159C28.5719 36.58 28.6 36.286 28.6 35.985C28.6 33.535 26.6119 31.554 24.1689 31.554C21.7259 31.554 19.7311 33.542 19.7311 35.985C19.7311 36.16 19.7449 36.342 19.7659 36.51L18.5901 35.922C17.8971 35.579 17.4561 34.872 17.4561 34.095V27.235C17.4561 27.116 17.484 26.99 17.533 26.878L19.3182 22.86H18.3311C17.8481 22.86 17.4561 22.468 17.4561 21.985V21.978ZM21.236 22.853L19.4231 26.934H25.625V22.853H21.236ZM27.375 22.853V26.934H35.3201L32.8981 23.476C32.6251 23.084 32.1771 22.853 31.7011 22.853H27.375Z" fill="white"/>
</g>
<defs>
<filter id="filter0_d_8318_7627" x="0" y="0" width="102" height="65" filterUnits="userSpaceOnUse" color-interpolation-filters="sRGB">
<feFlood flood-opacity="0" result="BackgroundImageFix"/>
<feColorMatrix in="SourceAlpha" type="matrix" values="0 0 0 0 0 0 0 0 0 0 0 0 0 0 0 0 0 0 127 0" result="hardAlpha"/>
<feOffset/>
<feGaussianBlur stdDeviation="4"/>
<feColorMatrix type="matrix" values="0 0 0 0 0 0 0 0 0 0 0 0 0 0 0 0 0 0 0.23 0"/>
<feBlend mode="normal" in2="BackgroundImageFix" result="effect1_dropShadow_8318_7627"/>
<feBlend mode="normal" in="SourceGraphic" in2="effect1_dropShadow_8318_7627" result="shape"/>
</filter>
</defs>
</svg>
