<svg width="102" height="65" viewBox="0 0 102 65" fill="none" xmlns="http://www.w3.org/2000/svg">
<g filter="url(#filter0_d_8318_7613)">
<mask id="path-1-inside-1_8318_7613" fill="white">
<path fill-rule="evenodd" clip-rule="evenodd" d="M16 8C11.5817 8 8 11.5817 8 16V44C8 48.4183 11.5817 52 16 52H40.0486C43.0393 52 45.9778 53.0638 48.0226 55.2462C48.2503 55.4893 48.4744 55.7343 48.6944 55.9815C49.879 57.312 52.1727 57.3473 53.384 56.0382C53.6458 55.7553 53.9126 55.4746 54.184 55.1957C56.2608 53.0621 59.1772 52 62.1547 52H86C90.4183 52 94 48.4183 94 44V16C94 11.5817 90.4183 8 86 8H16Z"/>
</mask>
<path fill-rule="evenodd" clip-rule="evenodd" d="M16 8C11.5817 8 8 11.5817 8 16V44C8 48.4183 11.5817 52 16 52H40.0486C43.0393 52 45.9778 53.0638 48.0226 55.2462C48.2503 55.4893 48.4744 55.7343 48.6944 55.9815C49.879 57.312 52.1727 57.3473 53.384 56.0382C53.6458 55.7553 53.9126 55.4746 54.184 55.1957C56.2608 53.0621 59.1772 52 62.1547 52H86C90.4183 52 94 48.4183 94 44V16C94 11.5817 90.4183 8 86 8H16Z" fill="white"/>
<path d="M48.6944 55.9815L47.2005 57.3112L47.2006 57.3114L48.6944 55.9815ZM53.384 56.0382L54.852 57.3965L54.8521 57.3964L53.384 56.0382ZM54.184 55.1957L52.7509 53.8008L54.184 55.1957ZM48.0226 55.2462L49.4821 53.8788L48.0226 55.2462ZM8 16H10C10 12.6863 12.6863 10 16 10V8V6C10.4772 6 6 10.4772 6 16H8ZM8 44H10V16H8H6V44H8ZM16 52V50C12.6863 50 10 47.3137 10 44H8H6C6 49.5228 10.4772 54 16 54V52ZM40.0486 52V50H16V52V54H40.0486V52ZM48.0226 55.2462L46.5631 56.6137C46.7799 56.8451 46.9925 57.0776 47.2005 57.3112L48.6944 55.9815L50.1883 54.6517C49.9563 54.3911 49.7207 54.1335 49.4821 53.8788L48.0226 55.2462ZM48.6944 55.9815L47.2006 57.3114C49.1611 59.5134 52.8291 59.5827 54.852 57.3965L53.384 56.0382L51.916 54.6799C51.5164 55.1118 50.597 55.1107 50.1882 54.6515L48.6944 55.9815ZM53.384 56.0382L54.8521 57.3964C55.1015 57.1269 55.3567 56.8584 55.6172 56.5907L54.184 55.1957L52.7509 53.8008C52.4686 54.0907 52.19 54.3837 51.916 54.68L53.384 56.0382ZM86 52V50H62.1547V52V54H86V52ZM94 44H92C92 47.3137 89.3137 50 86 50V52V54C91.5229 54 96 49.5228 96 44H94ZM94 16H92V44H94H96V16H94ZM86 8V10C89.3137 10 92 12.6863 92 16H94H96C96 10.4772 91.5229 6 86 6V8ZM16 8V10H86V8V6H16V8ZM54.184 55.1957L55.6172 56.5907C57.2654 54.8974 59.6375 54 62.1547 54V52V50C58.717 50 55.2562 51.2268 52.7509 53.8008L54.184 55.1957ZM40.0486 52V54C42.5852 54 44.9591 54.9017 46.5631 56.6137L48.0226 55.2462L49.4821 53.8788C46.9964 51.2258 43.4933 50 40.0486 50V52Z" fill="white" mask="url(#path-1-inside-1_8318_7613)"/>
<rect x="10" y="10" width="40" height="40" rx="6" fill="#902F2A"/>
<path fill-rule="evenodd" clip-rule="evenodd" d="M22.7061 31.1662C20.7741 31.1662 19.2061 32.7342 19.2061 34.6662C19.2061 36.5982 20.7741 38.1662 22.7061 38.1662C24.6381 38.1662 26.2061 36.5982 26.2061 34.6662C26.2061 32.7342 24.6381 31.1662 22.7061 31.1662ZM16.875 34.6662C16.875 31.4462 19.4861 28.8352 22.7061 28.8352C25.9261 28.8352 28.5371 31.4462 28.5371 34.6662C28.5371 37.8862 25.9261 40.4972 22.7061 40.4972C19.4861 40.4972 16.875 37.8862 16.875 34.6662Z" fill="white"/>
<path fill-rule="evenodd" clip-rule="evenodd" d="M37.2871 31.1662C35.3551 31.1662 33.7871 32.7342 33.7871 34.6662C33.7871 36.5982 35.3551 38.1662 37.2871 38.1662C39.2191 38.1662 40.7871 36.5982 40.7871 34.6662C40.7871 32.7342 39.2261 31.1662 37.2871 31.1662ZM31.4561 34.6662C31.4561 31.4462 34.0671 28.8352 37.2871 28.8352C40.5071 28.8352 43.125 31.4462 43.125 34.6662C43.125 37.8862 40.5071 40.4972 37.2871 40.4972C34.0671 40.4972 31.4561 37.8862 31.4561 34.6662Z" fill="white"/>
<path fill-rule="evenodd" clip-rule="evenodd" d="M34.9909 24.3481C35.5369 24.6911 35.7051 25.4121 35.3621 25.9581L29.5311 35.2891C29.3141 35.6321 28.9431 35.8351 28.5371 35.8351H22.7061C22.0621 35.8351 21.5371 35.3101 21.5371 34.6661C21.5371 34.0221 22.0621 33.4971 22.7061 33.4971H27.8932L33.3811 24.7191C33.7241 24.1731 34.4449 24.0051 34.9909 24.3481Z" fill="white"/>
<path fill-rule="evenodd" clip-rule="evenodd" d="M20.375 24.1663C20.375 23.5223 20.8931 22.9973 21.5371 22.9973H27.375C28.019 22.9973 28.5371 23.5223 28.5371 24.1663C28.5371 24.8103 28.019 25.3353 27.375 25.3353H26.3879L31.1833 30.9913C31.5963 31.4813 31.5332 32.2163 31.0432 32.6363C30.5532 33.0493 29.8178 32.9933 29.3978 32.4963L23.3288 25.3283H21.5371C20.8931 25.3283 20.375 24.8033 20.375 24.1593V24.1663Z" fill="white"/>
<path fill-rule="evenodd" clip-rule="evenodd" d="M34.7879 21.9054C35.3059 21.9334 35.8028 21.9894 36.2788 22.1154C37.1258 22.3394 37.6649 22.7384 37.9099 23.5784C38.0849 24.1944 38.7362 24.5584 39.3522 24.3764C39.9752 24.2014 40.332 23.5504 40.15 22.9344C39.618 21.0724 38.2461 20.2254 36.8811 19.8614C35.8661 19.5884 34.7178 19.5534 33.8568 19.5254C33.6468 19.5254 33.4581 19.5114 33.2901 19.5044C32.4431 19.4624 31.8762 20.2674 32.0932 21.0094L36.1674 34.9954C36.3494 35.6114 36.9999 35.9684 37.6159 35.7864C38.2319 35.6044 38.5888 34.9604 38.4068 34.3374L34.7879 21.8984V21.9054Z" fill="white"/>
</g>
<defs>
<filter id="filter0_d_8318_7613" x="0" y="0" width="102" height="65" filterUnits="userSpaceOnUse" color-interpolation-filters="sRGB">
<feFlood flood-opacity="0" result="BackgroundImageFix"/>
<feColorMatrix in="SourceAlpha" type="matrix" values="0 0 0 0 0 0 0 0 0 0 0 0 0 0 0 0 0 0 127 0" result="hardAlpha"/>
<feOffset/>
<feGaussianBlur stdDeviation="4"/>
<feColorMatrix type="matrix" values="0 0 0 0 0 0 0 0 0 0 0 0 0 0 0 0 0 0 0.23 0"/>
<feBlend mode="normal" in2="BackgroundImageFix" result="effect1_dropShadow_8318_7613"/>
<feBlend mode="normal" in="SourceGraphic" in2="effect1_dropShadow_8318_7613" result="shape"/>
</filter>
</defs>
</svg>
