<svg width="102" height="65" viewBox="0 0 102 65" fill="none" xmlns="http://www.w3.org/2000/svg">
<g filter="url(#filter0_d_803_6697)">
<mask id="path-1-inside-1_803_6697" fill="white">
<path fill-rule="evenodd" clip-rule="evenodd" d="M16 6C11.5817 6 8 9.58172 8 14V42C8 46.4183 11.5817 50 16 50H40.0486C43.0393 50 45.9778 51.0638 48.0226 53.2462C48.2503 53.4893 48.4744 53.7343 48.6944 53.9815C49.879 55.312 52.1727 55.3473 53.384 54.0382C53.6458 53.7553 53.9126 53.4746 54.184 53.1957C56.2608 51.0621 59.1772 50 62.1547 50H86C90.4183 50 94 46.4183 94 42V14C94 9.58172 90.4183 6 86 6H16Z"/>
</mask>
<path fill-rule="evenodd" clip-rule="evenodd" d="M16 6C11.5817 6 8 9.58172 8 14V42C8 46.4183 11.5817 50 16 50H40.0486C43.0393 50 45.9778 51.0638 48.0226 53.2462C48.2503 53.4893 48.4744 53.7343 48.6944 53.9815C49.879 55.312 52.1727 55.3473 53.384 54.0382C53.6458 53.7553 53.9126 53.4746 54.184 53.1957C56.2608 51.0621 59.1772 50 62.1547 50H86C90.4183 50 94 46.4183 94 42V14C94 9.58172 90.4183 6 86 6H16Z" fill="white"/>
<path d="M48.6944 53.9815L47.2005 55.3112L47.2006 55.3114L48.6944 53.9815ZM53.384 54.0382L54.852 55.3965L54.8521 55.3964L53.384 54.0382ZM54.184 53.1957L52.7509 51.8008L54.184 53.1957ZM48.0226 53.2462L49.4821 51.8788L48.0226 53.2462ZM10 14C10 10.6863 12.6863 8 16 8V4C10.4772 4 6 8.47715 6 14H10ZM10 42V14H6V42H10ZM16 48C12.6863 48 10 45.3137 10 42H6C6 47.5228 10.4772 52 16 52V48ZM40.0486 48H16V52H40.0486V48ZM46.5631 54.6137C46.7799 54.8451 46.9925 55.0776 47.2005 55.3112L50.1883 52.6517C49.9563 52.3911 49.7207 52.1335 49.4821 51.8788L46.5631 54.6137ZM47.2006 55.3114C49.1611 57.5134 52.8291 57.5827 54.852 55.3965L51.916 52.6799C51.5164 53.1118 50.597 53.1107 50.1882 52.6515L47.2006 55.3114ZM54.8521 55.3964C55.1015 55.1269 55.3567 54.8584 55.6172 54.5907L52.7509 51.8008C52.4686 52.0907 52.19 52.3837 51.916 52.68L54.8521 55.3964ZM86 48H62.1547V52H86V48ZM92 42C92 45.3137 89.3137 48 86 48V52C91.5229 52 96 47.5228 96 42H92ZM92 14V42H96V14H92ZM86 8C89.3137 8 92 10.6863 92 14H96C96 8.47715 91.5229 4 86 4V8ZM16 8H86V4H16V8ZM55.6172 54.5907C57.2654 52.8974 59.6375 52 62.1547 52V48C58.717 48 55.2562 49.2268 52.7509 51.8008L55.6172 54.5907ZM40.0486 52C42.5852 52 44.9591 52.9017 46.5631 54.6137L49.4821 51.8788C46.9964 49.2258 43.4933 48 40.0486 48V52Z" fill="white" mask="url(#path-1-inside-1_803_6697)"/>
<rect x="10" y="8" width="40" height="40" rx="6" fill="#533B75"/>
<path d="M38.75 39.9559H21.25C19.479 39.9559 18.0439 38.5139 18.0439 36.7499V19.2499C18.0439 17.4789 19.479 16.0439 21.25 16.0439H38.75C40.521 16.0439 41.9561 17.4859 41.9561 19.2499V36.7499C41.9561 38.5209 40.521 39.9559 38.75 39.9559ZM21.25 17.7939C20.445 17.7939 19.7939 18.4449 19.7939 19.2499V36.7499C19.7939 37.5549 20.445 38.2059 21.25 38.2059H38.75C39.555 38.2059 40.2061 37.5549 40.2061 36.7499V19.2499C40.2061 18.4449 39.555 17.7939 38.75 17.7939H21.25Z" fill="white"/>
<path d="M25.9189 35.2939C25.4359 35.2939 25.0439 34.9019 25.0439 34.4189V21.5879C25.0439 21.1049 25.4359 20.7129 25.9189 20.7129H30.5811C32.9961 20.7129 34.9561 22.6729 34.9561 25.0879C34.9561 27.5029 32.9961 29.4629 30.5811 29.4629H26.7939V34.4189C26.7939 34.9019 26.4019 35.2939 25.9189 35.2939ZM26.7939 27.7059H30.5811C32.0301 27.7059 33.2061 26.5299 33.2061 25.0809C33.2061 23.6319 32.0301 22.4559 30.5811 22.4559H26.7939V27.7059Z" fill="white"/>
</g>
<defs>
<filter id="filter0_d_803_6697" x="0" y="0" width="102" height="65" filterUnits="userSpaceOnUse" color-interpolation-filters="sRGB">
<feFlood flood-opacity="0" result="BackgroundImageFix"/>
<feColorMatrix in="SourceAlpha" type="matrix" values="0 0 0 0 0 0 0 0 0 0 0 0 0 0 0 0 0 0 127 0" result="hardAlpha"/>
<feOffset dy="2"/>
<feGaussianBlur stdDeviation="4"/>
<feColorMatrix type="matrix" values="0 0 0 0 0 0 0 0 0 0 0 0 0 0 0 0 0 0 0.16 0"/>
<feBlend mode="normal" in2="BackgroundImageFix" result="effect1_dropShadow_803_6697"/>
<feBlend mode="normal" in="SourceGraphic" in2="effect1_dropShadow_803_6697" result="shape"/>
</filter>
</defs>
</svg>
