<svg width="60" height="65" viewBox="0 0 60 65" fill="none" xmlns="http://www.w3.org/2000/svg">
<g filter="url(#filter0_d_803_6610)">
<mask id="path-1-inside-1_803_6610" fill="white">
<path fill-rule="evenodd" clip-rule="evenodd" d="M16 6C11.5817 6 8 9.58172 8 14V27.7577V42C8 46.4183 11.5817 50 16 50H19.0486C22.0393 50 24.9778 51.0638 27.0226 53.2462C27.2503 53.4893 27.4744 53.7343 27.6944 53.9815C28.879 55.312 31.1727 55.3473 32.384 54.0382C32.6457 53.7553 32.9126 53.4746 33.184 53.1957C35.2608 51.0621 38.1772 50 41.1547 50H44C48.4183 50 52 46.4183 52 42V27.7577V14C52 9.58172 48.4183 6 44 6H16Z"/>
</mask>
<path fill-rule="evenodd" clip-rule="evenodd" d="M16 6C11.5817 6 8 9.58172 8 14V27.7577V42C8 46.4183 11.5817 50 16 50H19.0486C22.0393 50 24.9778 51.0638 27.0226 53.2462C27.2503 53.4893 27.4744 53.7343 27.6944 53.9815C28.879 55.312 31.1727 55.3473 32.384 54.0382C32.6457 53.7553 32.9126 53.4746 33.184 53.1957C35.2608 51.0621 38.1772 50 41.1547 50H44C48.4183 50 52 46.4183 52 42V27.7577V14C52 9.58172 48.4183 6 44 6H16Z" fill="#5CA1E3"/>
<path d="M27.6944 53.9815L26.2005 55.3112L26.2006 55.3114L27.6944 53.9815ZM32.384 54.0382L33.852 55.3965L33.8521 55.3964L32.384 54.0382ZM27.0226 53.2462L25.5631 54.6137L27.0226 53.2462ZM10 14C10 10.6863 12.6863 8 16 8V4C10.4772 4 6 8.47715 6 14H10ZM10 27.7577V14H6V27.7577H10ZM10 42V27.7577H6V42H10ZM16 48C12.6863 48 10 45.3137 10 42H6C6 47.5228 10.4772 52 16 52V48ZM19.0486 48H16V52H19.0486V48ZM25.5631 54.6137C25.7799 54.8451 25.9925 55.0776 26.2005 55.3112L29.1883 52.6517C28.9563 52.3911 28.7207 52.1335 28.4821 51.8788L25.5631 54.6137ZM26.2006 55.3114C28.1611 57.5134 31.8291 57.5827 33.852 55.3965L30.916 52.6799C30.5164 53.1118 29.597 53.1107 29.1882 52.6516L26.2006 55.3114ZM33.8521 55.3964C34.1015 55.1269 34.3567 54.8584 34.6172 54.5907L31.7509 51.8008C31.4686 52.0907 31.19 52.3837 30.9159 52.68L33.8521 55.3964ZM44 48H41.1547V52H44V48ZM50 42C50 45.3137 47.3137 48 44 48V52C49.5228 52 54 47.5228 54 42H50ZM50 27.7577V42H54V27.7577H50ZM50 14V27.7577H54V14H50ZM44 8C47.3137 8 50 10.6863 50 14H54C54 8.47715 49.5228 4 44 4V8ZM16 8H44V4H16V8ZM34.6172 54.5907C36.2654 52.8974 38.6375 52 41.1547 52V48C37.717 48 34.2562 49.2268 31.7509 51.8008L34.6172 54.5907ZM19.0486 52C21.5852 52 23.9591 52.9017 25.5631 54.6137L28.4821 51.8788C25.9964 49.2258 22.4933 48 19.0486 48V52Z" fill="white" mask="url(#path-1-inside-1_803_6610)"/>
<path d="M37.7437 33.4607C37.8078 33.4607 37.8719 33.5248 37.9361 33.5569L37.3268 34.3906H37.2627C36.7497 34.1341 36.3008 33.8775 35.3388 33.8775C34.3769 33.8775 33.9279 34.102 33.3828 34.3906C32.8377 34.6792 32.1964 34.9998 30.978 34.9998C29.7595 34.9998 29.1182 34.6792 28.5731 34.3906C28.0601 34.1341 27.6111 33.8775 26.6171 33.8775C25.6231 33.8775 25.2063 34.102 24.6932 34.3906C24.1161 34.6792 23.5068 34.9998 22.2884 34.9998C21.0699 34.9998 20.4607 34.6792 19.8835 34.3906C19.5949 34.2302 19.3063 34.102 18.9536 34.0058L19.2422 33.0118C19.6911 33.14 20.0438 33.3004 20.3645 33.4607C20.8775 33.7172 21.3264 33.9737 22.2884 33.9737C23.2503 33.9737 23.6992 33.7493 24.2443 33.4607C24.7894 33.1721 25.4307 32.8515 26.6492 32.8515C27.8677 32.8515 28.509 33.1721 29.0541 33.4607C29.5671 33.7172 30.016 33.9737 30.978 33.9737C31.9399 33.9737 32.3888 33.7493 32.9339 33.4607C33.479 33.1721 34.1203 32.8515 35.3388 32.8515C36.5573 32.8515 37.1986 33.1721 37.7437 33.4607Z" fill="black"/>
<path d="M40.8219 28.9716H37.5192C37.5192 28.9716 36.0763 22.7189 36.0122 22.3662C35.948 22.0135 35.6595 22.0776 35.6595 22.0776H33.9921C33.9921 22.0776 33.7676 21.1798 33.6714 20.6988C33.5432 20.1858 33.3187 20.3141 33.3187 20.3141C33.3187 20.3141 31.1383 21.1477 30.8497 21.276C30.5611 21.4043 30.6573 21.7249 30.6573 21.7249V23.6809H23.2503C22.7373 23.6809 22.7373 23.9695 22.7373 23.9695L21.5188 28.9716H20.7172C20.5248 28.9716 20.3965 29.0999 20.3645 29.2602L19.5308 32.146C20.108 32.3063 20.5248 32.5308 20.8775 32.6911C21.3585 32.9476 21.615 33.0759 22.3204 33.0759C23.0259 33.0759 23.2824 32.9476 23.7634 32.6911C24.3726 32.3705 25.2063 31.9536 26.6492 31.9536C28.0921 31.9536 28.9579 32.3705 29.5671 32.6911C30.0481 32.9476 30.3046 33.0759 31.01 33.0759C31.7155 33.0759 31.972 32.9476 32.453 32.6911C33.0622 32.3705 33.8959 31.9536 35.3709 31.9536C36.8459 31.9536 37.6795 32.3705 38.2888 32.6911C38.3529 32.6911 38.5132 32.7873 38.5132 32.7873L41.0464 29.2922C41.0464 29.2922 41.0464 29.2281 41.0464 29.164C41.0464 29.0357 40.9502 28.9395 40.8219 28.9395V28.9716ZM23.1541 26.5347L23.5068 25.0276H26.7775V26.5347H23.1541ZM30.8818 26.5347H27.2584V25.0276H30.8818V26.5347ZM31.4589 26.5347V25.0276H35.0823L35.4671 26.5347H31.4589Z" fill="black"/>
</g>
<defs>
<filter id="filter0_d_803_6610" x="0" y="0" width="60" height="65" filterUnits="userSpaceOnUse" color-interpolation-filters="sRGB">
<feFlood flood-opacity="0" result="BackgroundImageFix"/>
<feColorMatrix in="SourceAlpha" type="matrix" values="0 0 0 0 0 0 0 0 0 0 0 0 0 0 0 0 0 0 127 0" result="hardAlpha"/>
<feOffset dy="2"/>
<feGaussianBlur stdDeviation="4"/>
<feColorMatrix type="matrix" values="0 0 0 0 0 0 0 0 0 0 0 0 0 0 0 0 0 0 0.16 0"/>
<feBlend mode="normal" in2="BackgroundImageFix" result="effect1_dropShadow_803_6610"/>
<feBlend mode="normal" in="SourceGraphic" in2="effect1_dropShadow_803_6610" result="shape"/>
</filter>
</defs>
</svg>
