<svg width="60" height="65" viewBox="0 0 60 65" fill="none" xmlns="http://www.w3.org/2000/svg">
<g filter="url(#filter0_d_803_6585)">
<mask id="path-1-inside-1_803_6585" fill="white">
<path fill-rule="evenodd" clip-rule="evenodd" d="M16 6C11.5817 6 8 9.58172 8 14V27.7577V42C8 46.4183 11.5817 50 16 50H19.0486C22.0393 50 24.9778 51.0638 27.0226 53.2462C27.2503 53.4893 27.4744 53.7343 27.6944 53.9815C28.879 55.312 31.1727 55.3473 32.384 54.0382C32.6457 53.7553 32.9126 53.4746 33.184 53.1957C35.2608 51.0621 38.1772 50 41.1547 50H44C48.4183 50 52 46.4183 52 42V27.7577V14C52 9.58172 48.4183 6 44 6H16Z"/>
</mask>
<path fill-rule="evenodd" clip-rule="evenodd" d="M16 6C11.5817 6 8 9.58172 8 14V27.7577V42C8 46.4183 11.5817 50 16 50H19.0486C22.0393 50 24.9778 51.0638 27.0226 53.2462C27.2503 53.4893 27.4744 53.7343 27.6944 53.9815C28.879 55.312 31.1727 55.3473 32.384 54.0382C32.6457 53.7553 32.9126 53.4746 33.184 53.1957C35.2608 51.0621 38.1772 50 41.1547 50H44C48.4183 50 52 46.4183 52 42V27.7577V14C52 9.58172 48.4183 6 44 6H16Z" fill="#1A5843"/>
<path d="M27.6944 53.9815L26.2005 55.3112L26.2006 55.3114L27.6944 53.9815ZM32.384 54.0382L33.852 55.3965L33.8521 55.3964L32.384 54.0382ZM27.0226 53.2462L25.5631 54.6137L27.0226 53.2462ZM10 14C10 10.6863 12.6863 8 16 8V4C10.4772 4 6 8.47715 6 14H10ZM10 27.7577V14H6V27.7577H10ZM10 42V27.7577H6V42H10ZM16 48C12.6863 48 10 45.3137 10 42H6C6 47.5228 10.4772 52 16 52V48ZM19.0486 48H16V52H19.0486V48ZM25.5631 54.6137C25.7799 54.8451 25.9925 55.0776 26.2005 55.3112L29.1883 52.6517C28.9563 52.3911 28.7207 52.1335 28.4821 51.8788L25.5631 54.6137ZM26.2006 55.3114C28.1611 57.5134 31.8291 57.5827 33.852 55.3965L30.916 52.6799C30.5164 53.1118 29.597 53.1107 29.1882 52.6516L26.2006 55.3114ZM33.8521 55.3964C34.1015 55.1269 34.3567 54.8584 34.6172 54.5907L31.7509 51.8008C31.4686 52.0907 31.19 52.3837 30.9159 52.68L33.8521 55.3964ZM44 48H41.1547V52H44V48ZM50 42C50 45.3137 47.3137 48 44 48V52C49.5228 52 54 47.5228 54 42H50ZM50 27.7577V42H54V27.7577H50ZM50 14V27.7577H54V14H50ZM44 8C47.3137 8 50 10.6863 50 14H54C54 8.47715 49.5228 4 44 4V8ZM16 8H44V4H16V8ZM34.6172 54.5907C36.2654 52.8974 38.6375 52 41.1547 52V48C37.717 48 34.2562 49.2268 31.7509 51.8008L34.6172 54.5907ZM19.0486 52C21.5852 52 23.9591 52.9017 25.5631 54.6137L28.4821 51.8788C25.9964 49.2258 22.4933 48 19.0486 48V52Z" fill="white" mask="url(#path-1-inside-1_803_6585)"/>
<path d="M41.2001 31.5695C41.2001 31.8642 41.0375 32.028 40.7449 32.028H37.3638V31.7332C37.3638 31.0783 37.1362 30.4888 36.6485 30.0303C36.1934 29.5718 35.6082 29.3098 34.958 29.3098C34.3077 29.3098 33.69 29.5391 33.2349 30.0303C32.7797 30.4888 32.5196 31.0783 32.5196 31.7332C32.5196 32.3882 32.5196 31.8315 32.5196 31.8642V31.9952H27.4154V31.7005C27.4154 31.0455 27.1879 30.456 26.7327 29.9976C26.2776 29.5391 25.6924 29.2771 25.0096 29.2771C24.3269 29.2771 23.7417 29.5063 23.2866 29.9976C22.8314 30.456 22.6038 31.0455 22.6038 31.7005V31.9952H19.2552C19.1252 31.9952 19.0276 31.9952 18.9301 31.8642C18.8326 31.766 18.8 31.6677 18.8 31.5367V22.8584C18.8 22.7274 18.8326 22.6291 18.9301 22.5309C19.0276 22.4327 19.1252 22.3999 19.2552 22.3999H40.6799C40.8099 22.3999 40.9075 22.3999 41.005 22.5309C41.1025 22.6291 41.135 22.7274 41.135 22.8584H41.2001V31.5695ZM19.8729 28.0654H24.3269V24.3648H19.8729V28.0654ZM26.9278 31.7332C26.9278 32.2572 26.7327 32.6829 26.3751 33.0432C26.0175 33.4034 25.5623 33.5999 25.0747 33.5999C24.587 33.5999 24.1318 33.4034 23.7742 33.0432C23.4166 32.6829 23.2215 32.2245 23.2215 31.7332C23.2215 31.242 23.4166 30.7835 23.7742 30.4233C24.1318 30.0631 24.587 29.8993 25.0747 29.8993C25.5623 29.8993 26.0175 30.0631 26.3751 30.4233C26.7327 30.7835 26.9278 31.2093 26.9278 31.7332ZM25.1397 28.0654H29.5937V24.3648H25.1397V28.0654ZM30.4389 28.0654H34.9254V24.3648H30.4389V28.0654ZM36.8436 31.7332C36.8436 32.2572 36.6485 32.6829 36.2909 33.0432C35.9333 33.4034 35.4781 33.5999 34.9905 33.5999C34.5028 33.5999 34.0477 33.4034 33.69 33.0432C33.3324 32.6829 33.1374 32.2245 33.1374 31.7332C33.1374 31.242 33.3324 30.7835 33.69 30.4233C34.0477 30.0631 34.5028 29.8993 34.9905 29.8993C35.4781 29.8993 35.9333 30.0631 36.2909 30.4233C36.6485 30.7835 36.8436 31.2093 36.8436 31.7332ZM35.7382 28.0654H40.1922V24.3648H35.7382V28.0654Z" fill="white"/>
</g>
<defs>
<filter id="filter0_d_803_6585" x="0" y="0" width="60" height="65" filterUnits="userSpaceOnUse" color-interpolation-filters="sRGB">
<feFlood flood-opacity="0" result="BackgroundImageFix"/>
<feColorMatrix in="SourceAlpha" type="matrix" values="0 0 0 0 0 0 0 0 0 0 0 0 0 0 0 0 0 0 127 0" result="hardAlpha"/>
<feOffset dy="2"/>
<feGaussianBlur stdDeviation="4"/>
<feColorMatrix type="matrix" values="0 0 0 0 0 0 0 0 0 0 0 0 0 0 0 0 0 0 0.16 0"/>
<feBlend mode="normal" in2="BackgroundImageFix" result="effect1_dropShadow_803_6585"/>
<feBlend mode="normal" in="SourceGraphic" in2="effect1_dropShadow_803_6585" result="shape"/>
</filter>
</defs>
</svg>
