<svg width="60" height="65" viewBox="0 0 60 65" fill="none" xmlns="http://www.w3.org/2000/svg">
<g filter="url(#filter0_d_896_8367)">
<mask id="path-1-inside-1_896_8367" fill="white">
<path fill-rule="evenodd" clip-rule="evenodd" d="M16 6C11.5817 6 8 9.58172 8 14V27.7577V42C8 46.4183 11.5817 50 16 50H19.0486C22.0393 50 24.9778 51.0638 27.0226 53.2462C27.2503 53.4893 27.4744 53.7343 27.6944 53.9815C28.879 55.312 31.1727 55.3473 32.384 54.0382C32.6457 53.7553 32.9126 53.4746 33.184 53.1957C35.2608 51.0621 38.1772 50 41.1547 50H44C48.4183 50 52 46.4183 52 42V27.7577V14C52 9.58172 48.4183 6 44 6H16Z"/>
</mask>
<path fill-rule="evenodd" clip-rule="evenodd" d="M16 6C11.5817 6 8 9.58172 8 14V27.7577V42C8 46.4183 11.5817 50 16 50H19.0486C22.0393 50 24.9778 51.0638 27.0226 53.2462C27.2503 53.4893 27.4744 53.7343 27.6944 53.9815C28.879 55.312 31.1727 55.3473 32.384 54.0382C32.6457 53.7553 32.9126 53.4746 33.184 53.1957C35.2608 51.0621 38.1772 50 41.1547 50H44C48.4183 50 52 46.4183 52 42V27.7577V14C52 9.58172 48.4183 6 44 6H16Z" fill="#5CA1E3"/>
<path d="M27.6944 53.9815L26.2005 55.3112L26.2006 55.3114L27.6944 53.9815ZM32.384 54.0382L33.852 55.3965L33.8521 55.3964L32.384 54.0382ZM27.0226 53.2462L25.5631 54.6137L27.0226 53.2462ZM10 14C10 10.6863 12.6863 8 16 8V4C10.4772 4 6 8.47715 6 14H10ZM10 27.7577V14H6V27.7577H10ZM10 42V27.7577H6V42H10ZM16 48C12.6863 48 10 45.3137 10 42H6C6 47.5228 10.4772 52 16 52V48ZM19.0486 48H16V52H19.0486V48ZM25.5631 54.6137C25.7799 54.8451 25.9925 55.0776 26.2005 55.3112L29.1883 52.6517C28.9563 52.3911 28.7207 52.1335 28.4821 51.8788L25.5631 54.6137ZM26.2006 55.3114C28.1611 57.5134 31.8291 57.5827 33.852 55.3965L30.916 52.6799C30.5164 53.1118 29.597 53.1107 29.1882 52.6515L26.2006 55.3114ZM33.8521 55.3964C34.1015 55.1269 34.3567 54.8584 34.6172 54.5907L31.7509 51.8008C31.4686 52.0907 31.19 52.3837 30.9159 52.68L33.8521 55.3964ZM44 48H41.1547V52H44V48ZM50 42C50 45.3137 47.3137 48 44 48V52C49.5228 52 54 47.5228 54 42H50ZM50 27.7577V42H54V27.7577H50ZM50 14V27.7577H54V14H50ZM44 8C47.3137 8 50 10.6863 50 14H54C54 8.47715 49.5228 4 44 4V8ZM16 8H44V4H16V8ZM34.6172 54.5907C36.2654 52.8974 38.6375 52 41.1547 52V48C37.717 48 34.2562 49.2268 31.7509 51.8008L34.6172 54.5907ZM19.0486 52C21.5852 52 23.9591 52.9017 25.5631 54.6137L28.4821 51.8788C25.9964 49.2258 22.4933 48 19.0486 48V52Z" fill="white" mask="url(#path-1-inside-1_896_8367)"/>
<path fill-rule="evenodd" clip-rule="evenodd" d="M29.1716 21.567C29.6966 21.336 30.2988 21.336 30.8238 21.567L38.2159 24.836C39.7979 25.536 40.5396 27.349 39.9026 28.952L39.4757 30.037C39.4757 30.037 39.4338 30.037 39.4128 30.037H36.6966C36.2136 30.037 35.8216 30.429 35.8216 30.912C35.8216 31.395 36.2136 31.787 36.6966 31.787H38.7826L37.7045 34.503C37.4875 34.454 37.2566 34.426 37.0186 34.419C35.4996 34.356 34.3307 35.056 33.4557 35.966C32.8957 35.511 31.7125 34.608 30.1795 34.496C28.6535 34.391 27.4356 35.042 26.5186 35.966L26.4697 35.931C25.9237 35.525 24.6776 34.615 23.1026 34.517C22.8296 34.503 22.5637 34.51 22.3117 34.538L21.2197 31.787H23.2916C23.7746 31.787 24.1666 31.395 24.1666 30.912C24.1666 30.429 23.7746 30.037 23.2916 30.037H20.5269L20.0996 28.952C19.4626 27.349 20.2047 25.529 21.7867 24.836L29.1716 21.567Z" fill="white"/>
<path fill-rule="evenodd" clip-rule="evenodd" d="M22.2276 20.6782C22.3886 18.8722 23.9005 17.4932 25.7135 17.4932H34.2817C36.0947 17.4932 37.6067 18.8722 37.7677 20.6782L38.1597 24.9762C38.2157 25.6202 37.7466 26.1872 37.1026 26.2432C36.4586 26.2992 35.8915 25.8302 35.8355 25.1862L35.4435 20.8882C35.3875 20.2862 34.8837 19.8242 34.2817 19.8242H25.7135C25.1115 19.8242 24.6078 20.2862 24.5518 20.8882L24.1597 25.1862C24.1037 25.8302 23.5367 26.2992 22.8927 26.2432C22.2487 26.1872 21.7795 25.6202 21.8355 24.9762L22.2276 20.6782Z" fill="white"/>
<path fill-rule="evenodd" clip-rule="evenodd" d="M29.9972 15.1621C30.6412 15.1621 31.1661 15.6871 31.1661 16.3311V18.6621C31.1661 19.3061 30.6412 19.8311 29.9972 19.8311C29.3532 19.8311 28.8282 19.3061 28.8282 18.6621V16.3311C28.8282 15.6871 29.3532 15.1621 29.9972 15.1621Z" fill="white"/>
<path fill-rule="evenodd" clip-rule="evenodd" d="M40.6931 38.486C40.6931 38.486 40.7564 38.437 40.8124 38.381C41.2534 37.912 41.9953 37.891 42.4643 38.332C42.9333 38.773 42.9542 39.508 42.5131 39.984C42.1142 40.411 41.6242 40.726 41.0362 40.817C40.4552 40.901 39.9442 40.74 39.5522 40.537C39.1672 40.341 38.8312 40.068 38.5582 39.83C38.4182 39.711 38.2361 39.543 38.0681 39.389C37.9491 39.284 37.8443 39.186 37.7673 39.116C37.2213 38.626 36.9622 38.514 36.8362 38.507C36.8362 38.507 36.7664 38.507 36.6404 38.591C36.4864 38.696 36.2552 38.92 35.9612 39.368H35.9541C35.6111 39.886 35.1842 40.32 34.6382 40.544C34.0572 40.789 33.4903 40.74 33.0143 40.579C32.5733 40.432 32.1882 40.173 31.8802 39.949C31.6632 39.788 31.4322 39.592 31.2222 39.424C31.1522 39.361 31.0754 39.305 31.0124 39.249C30.4104 38.759 30.0953 38.591 29.8923 38.577H29.8851C29.8851 38.577 29.5421 38.542 28.9541 39.417C28.6391 39.907 28.2192 40.32 27.6522 40.523C27.0782 40.733 26.5322 40.656 26.0912 40.509C25.6712 40.362 25.2931 40.131 24.9851 39.914C24.7751 39.774 24.5514 39.606 24.3484 39.452C24.2574 39.382 24.1661 39.312 24.0821 39.256C23.4591 38.801 23.1021 38.619 22.8571 38.605C22.7871 38.605 22.4791 38.584 21.9681 39.368H21.9612C21.4502 40.138 20.6802 40.817 19.6582 40.817C18.6362 40.817 17.8594 40.138 17.3624 39.368C17.0054 38.829 17.1594 38.108 17.6984 37.751C18.2374 37.401 18.9654 37.548 19.3154 38.094C19.4834 38.353 19.6022 38.444 19.6582 38.472C19.7142 38.444 19.8404 38.353 20.0154 38.087C20.8064 36.883 21.8001 36.204 23.0041 36.274C24.0261 36.337 24.9011 36.953 25.4681 37.373C25.5941 37.464 25.7062 37.548 25.8112 37.625C25.9862 37.758 26.1474 37.877 26.3154 37.989C26.5744 38.164 26.7422 38.262 26.8612 38.297C26.8682 38.297 26.8751 38.297 26.8821 38.297C26.9101 38.269 26.9522 38.213 27.0082 38.129C27.8272 36.89 28.8283 36.155 30.0533 36.239C31.0963 36.316 31.9571 37.002 32.4821 37.429C32.5871 37.513 32.6784 37.59 32.7624 37.66C32.9514 37.814 33.1122 37.947 33.2802 38.073C33.5182 38.255 33.6722 38.332 33.7632 38.367C33.8051 38.332 33.8892 38.255 34.0082 38.08C34.7852 36.897 35.7372 36.113 36.9412 36.169C37.9912 36.218 38.8171 36.918 39.3211 37.366C39.4821 37.513 39.6013 37.618 39.7063 37.723C39.8253 37.835 39.9372 37.933 40.0912 38.066C40.3222 38.276 40.4974 38.395 40.6234 38.465C40.6584 38.479 40.6791 38.493 40.6931 38.5V38.486Z" fill="white"/>
</g>
<defs>
<filter id="filter0_d_896_8367" x="0" y="0" width="60" height="65" filterUnits="userSpaceOnUse" color-interpolation-filters="sRGB">
<feFlood flood-opacity="0" result="BackgroundImageFix"/>
<feColorMatrix in="SourceAlpha" type="matrix" values="0 0 0 0 0 0 0 0 0 0 0 0 0 0 0 0 0 0 127 0" result="hardAlpha"/>
<feOffset dy="2"/>
<feGaussianBlur stdDeviation="4"/>
<feColorMatrix type="matrix" values="0 0 0 0 0 0 0 0 0 0 0 0 0 0 0 0 0 0 0.16 0"/>
<feBlend mode="normal" in2="BackgroundImageFix" result="effect1_dropShadow_896_8367"/>
<feBlend mode="normal" in="SourceGraphic" in2="effect1_dropShadow_896_8367" result="shape"/>
</filter>
</defs>
</svg>
