<svg width="60" height="65" viewBox="0 0 60 65" fill="none" xmlns="http://www.w3.org/2000/svg">
<g filter="url(#filter0_d_8318_7699)">
<mask id="path-1-inside-1_8318_7699" fill="white">
<path fill-rule="evenodd" clip-rule="evenodd" d="M16 6C11.5817 6 8 9.58172 8 14V27.7577V42C8 46.4183 11.5817 50 16 50H19.0486C22.0393 50 24.9778 51.0638 27.0226 53.2462C27.2503 53.4893 27.4744 53.7343 27.6944 53.9815C28.879 55.312 31.1727 55.3473 32.384 54.0382C32.6457 53.7553 32.9126 53.4746 33.184 53.1957C35.2608 51.0621 38.1772 50 41.1547 50H44C48.4183 50 52 46.4183 52 42V27.7577V14C52 9.58172 48.4183 6 44 6H16Z"/>
</mask>
<path fill-rule="evenodd" clip-rule="evenodd" d="M16 6C11.5817 6 8 9.58172 8 14V27.7577V42C8 46.4183 11.5817 50 16 50H19.0486C22.0393 50 24.9778 51.0638 27.0226 53.2462C27.2503 53.4893 27.4744 53.7343 27.6944 53.9815C28.879 55.312 31.1727 55.3473 32.384 54.0382C32.6457 53.7553 32.9126 53.4746 33.184 53.1957C35.2608 51.0621 38.1772 50 41.1547 50H44C48.4183 50 52 46.4183 52 42V27.7577V14C52 9.58172 48.4183 6 44 6H16Z" fill="#1A5843"/>
<path d="M27.6944 53.9815L26.2005 55.3112L26.2006 55.3114L27.6944 53.9815ZM32.384 54.0382L33.852 55.3965L33.8521 55.3964L32.384 54.0382ZM27.0226 53.2462L25.5631 54.6137L27.0226 53.2462ZM8 14H10C10 10.6863 12.6863 8 16 8V6V4C10.4772 4 6 8.47715 6 14H8ZM8 27.7577H10V14H8H6V27.7577H8ZM8 42H10V27.7577H8H6V42H8ZM16 50V48C12.6863 48 10 45.3137 10 42H8H6C6 47.5228 10.4772 52 16 52V50ZM19.0486 50V48H16V50V52H19.0486V50ZM27.0226 53.2462L25.5631 54.6137C25.7799 54.8451 25.9925 55.0776 26.2005 55.3112L27.6944 53.9815L29.1883 52.6517C28.9563 52.3911 28.7207 52.1335 28.4821 51.8788L27.0226 53.2462ZM27.6944 53.9815L26.2006 55.3114C28.1611 57.5134 31.8291 57.5827 33.852 55.3965L32.384 54.0382L30.916 52.6799C30.5164 53.1118 29.597 53.1107 29.1882 52.6515L27.6944 53.9815ZM32.384 54.0382L33.8521 55.3964C34.1015 55.1269 34.3567 54.8584 34.6172 54.5907L33.184 53.1957L31.7509 51.8008C31.4686 52.0907 31.19 52.3837 30.9159 52.68L32.384 54.0382ZM44 50V48H41.1547V50V52H44V50ZM52 42H50C50 45.3137 47.3137 48 44 48V50V52C49.5228 52 54 47.5228 54 42H52ZM52 27.7577H50V42H52H54V27.7577H52ZM52 14H50V27.7577H52H54V14H52ZM44 6V8C47.3137 8 50 10.6863 50 14H52H54C54 8.47715 49.5228 4 44 4V6ZM16 6V8H44V6V4H16V6ZM33.184 53.1957L34.6172 54.5907C36.2654 52.8974 38.6375 52 41.1547 52V50V48C37.717 48 34.2562 49.2268 31.7509 51.8008L33.184 53.1957ZM19.0486 50V52C21.5852 52 23.9591 52.9017 25.5631 54.6137L27.0226 53.2462L28.4821 51.8788C25.9964 49.2258 22.4933 48 19.0486 48V50Z" fill="white" mask="url(#path-1-inside-1_8318_7699)"/>
<path fill-rule="evenodd" clip-rule="evenodd" d="M17.4004 24.325C17.4004 23.1652 18.3406 22.225 19.5004 22.225H37.0004C40.4798 22.225 43.3004 25.0456 43.3004 28.525V32.725C43.3004 33.8848 42.3649 34.825 41.2051 34.825C34.3616 34.825 21.3834 34.825 19.5004 34.825C18.3406 34.825 17.4004 33.8848 17.4004 32.725V24.325ZM19.5004 25.025C19.5004 24.6385 19.8138 24.325 20.2004 24.325H22.2974C22.684 24.325 22.9974 24.6385 22.9974 25.025V28.525C22.9974 28.9116 22.684 29.225 22.2974 29.225H20.2004C19.8504 29.225 19.5004 28.875 19.5004 28.525V25.025ZM25.108 24.325C24.7214 24.325 24.408 24.6385 24.408 25.025L24.4004 28.525C24.4004 28.875 24.7504 29.225 25.1004 29.225H27.908C28.2946 29.225 28.608 28.9116 28.608 28.525V25.025C28.608 24.6385 28.2946 24.325 27.908 24.325H25.108ZM30.0185 25.025C30.0185 24.6385 30.3319 24.325 30.7185 24.325H33.5185C33.9051 24.325 34.2185 24.6385 34.2185 25.025V28.525C34.2185 28.9116 33.9051 29.225 33.5185 29.225H31.4185C30.6453 29.225 30.0004 29.2983 30.0004 28.525L30.0185 25.025ZM36.329 24.325C35.9424 24.325 35.629 24.6385 35.629 25.025V28.525C35.629 28.9116 35.9424 29.225 36.329 29.225H40.529C40.9156 29.225 41.229 28.9116 41.229 28.525C41.229 26.2054 39.3486 24.325 37.029 24.325H36.329Z" fill="white"/>
<path fill-rule="evenodd" clip-rule="evenodd" d="M17.9254 36.925C17.9254 36.4418 18.3171 36.05 18.8004 36.05L41.9004 36.05C42.3836 36.05 42.7754 36.4418 42.7754 36.925C42.7754 37.4083 42.3836 37.8 41.9004 37.8L18.8004 37.8C18.3171 37.8 17.9254 37.4083 17.9254 36.925Z" fill="white"/>
<path fill-rule="evenodd" clip-rule="evenodd" d="M26.3254 19.425C26.3254 18.9418 26.7171 18.55 27.2004 18.55H32.8004C33.1459 18.55 33.4591 18.7534 33.5997 19.0691C33.7403 19.3847 33.6819 19.7535 33.4508 20.0104L30.3008 23.5104C29.9775 23.8696 29.4242 23.8987 29.065 23.5754C28.7058 23.2522 28.6767 22.6989 29 22.3397L30.8357 20.3H27.2004C26.7171 20.3 26.3254 19.9083 26.3254 19.425Z" fill="white"/>
</g>
<defs>
<filter id="filter0_d_8318_7699" x="0" y="0" width="60" height="65" filterUnits="userSpaceOnUse" color-interpolation-filters="sRGB">
<feFlood flood-opacity="0" result="BackgroundImageFix"/>
<feColorMatrix in="SourceAlpha" type="matrix" values="0 0 0 0 0 0 0 0 0 0 0 0 0 0 0 0 0 0 127 0" result="hardAlpha"/>
<feOffset dy="2"/>
<feGaussianBlur stdDeviation="4"/>
<feColorMatrix type="matrix" values="0 0 0 0 0 0 0 0 0 0 0 0 0 0 0 0 0 0 0.16 0"/>
<feBlend mode="normal" in2="BackgroundImageFix" result="effect1_dropShadow_8318_7699"/>
<feBlend mode="normal" in="SourceGraphic" in2="effect1_dropShadow_8318_7699" result="shape"/>
</filter>
</defs>
</svg>
