<svg width="44" height="44" viewBox="0 0 44 44" fill="none" xmlns="http://www.w3.org/2000/svg">
<g filter="url(#filter0_d_803_6579)">
<g clip-path="url(#clip0_803_6579)">
<rect x="8" y="6" width="28" height="28" rx="4" fill="#5CA1E3"/>
<path d="M27.5311 23.9006C27.5769 23.9006 27.6227 23.9464 27.6685 23.9693L27.2333 24.5648H27.1875C26.8211 24.3816 26.5004 24.1984 25.8133 24.1984C25.1262 24.1984 24.8056 24.3587 24.4162 24.5648C24.0269 24.771 23.5688 25 22.6984 25C21.8281 25 21.37 24.771 20.9807 24.5648C20.6142 24.3816 20.2936 24.1984 19.5836 24.1984C18.8736 24.1984 18.5758 24.3587 18.2094 24.5648C17.7971 24.771 17.3619 25 16.4916 25C15.6213 25 15.1861 24.771 14.7738 24.5648C14.5677 24.4503 14.3616 24.3587 14.1096 24.29L14.3158 23.58C14.6364 23.6716 14.8883 23.7861 15.1174 23.9006C15.4838 24.0839 15.8045 24.2671 16.4916 24.2671C17.1787 24.2671 17.4993 24.1068 17.8887 23.9006C18.2781 23.6945 18.7361 23.4655 19.6065 23.4655C20.4768 23.4655 20.9349 23.6945 21.3242 23.9006C21.6907 24.0839 22.0113 24.2671 22.6984 24.2671C23.3856 24.2671 23.7062 24.1068 24.0956 23.9006C24.4849 23.6945 24.943 23.4655 25.8133 23.4655C26.6837 23.4655 27.1417 23.6945 27.5311 23.9006Z" fill="black"/>
<path d="M29.7298 20.6941H27.3708C27.3708 20.6941 26.3401 16.2279 26.2943 15.976C26.2485 15.7241 26.0424 15.7699 26.0424 15.7699H24.8514C24.8514 15.7699 24.6911 15.1286 24.6223 14.785C24.5307 14.4186 24.3704 14.5102 24.3704 14.5102C24.3704 14.5102 22.813 15.1057 22.6068 15.1973C22.4007 15.2889 22.4694 15.5179 22.4694 15.5179V16.9151H17.1787C16.8122 16.9151 16.8122 17.1212 16.8122 17.1212L15.9419 20.6941H15.3693C15.2319 20.6941 15.1403 20.7857 15.1174 20.9003L14.5219 22.9616C14.9341 23.0761 15.2319 23.2364 15.4838 23.3509C15.8274 23.5342 16.0106 23.6258 16.5145 23.6258C17.0184 23.6258 17.2016 23.5342 17.5452 23.3509C17.9803 23.1219 18.5758 22.8242 19.6065 22.8242C20.6371 22.8242 21.2555 23.1219 21.6907 23.3509C22.0342 23.5342 22.2175 23.6258 22.7213 23.6258C23.2252 23.6258 23.4085 23.5342 23.752 23.3509C24.1872 23.1219 24.7827 22.8242 25.8362 22.8242C26.8898 22.8242 27.4853 23.1219 27.9205 23.3509C27.9663 23.3509 28.0808 23.4197 28.0808 23.4197L29.8902 20.9232C29.8902 20.9232 29.8902 20.8774 29.8902 20.8316C29.8902 20.7399 29.8214 20.6712 29.7298 20.6712V20.6941ZM17.11 18.9535L17.3619 17.877H19.6981V18.9535H17.11ZM22.6297 18.9535H20.0416V17.877H22.6297V18.9535ZM23.042 18.9535V17.877H25.6301L25.9049 18.9535H23.042Z" fill="black"/>
</g>
<rect x="9" y="7" width="26" height="26" rx="3" stroke="white" stroke-width="2"/>
</g>
<defs>
<filter id="filter0_d_803_6579" x="0" y="0" width="44" height="44" filterUnits="userSpaceOnUse" color-interpolation-filters="sRGB">
<feFlood flood-opacity="0" result="BackgroundImageFix"/>
<feColorMatrix in="SourceAlpha" type="matrix" values="0 0 0 0 0 0 0 0 0 0 0 0 0 0 0 0 0 0 127 0" result="hardAlpha"/>
<feOffset dy="2"/>
<feGaussianBlur stdDeviation="4"/>
<feColorMatrix type="matrix" values="0 0 0 0 0 0 0 0 0 0 0 0 0 0 0 0 0 0 0.16 0"/>
<feBlend mode="normal" in2="BackgroundImageFix" result="effect1_dropShadow_803_6579"/>
<feBlend mode="normal" in="SourceGraphic" in2="effect1_dropShadow_803_6579" result="shape"/>
</filter>
<clipPath id="clip0_803_6579">
<rect x="8" y="6" width="28" height="28" rx="4" fill="white"/>
</clipPath>
</defs>
</svg>
