<svg width="60" height="65" viewBox="0 0 60 65" fill="none" xmlns="http://www.w3.org/2000/svg">
<g filter="url(#filter0_d_803_6615)">
<mask id="path-1-inside-1_803_6615" fill="white">
<path fill-rule="evenodd" clip-rule="evenodd" d="M16 6C11.5817 6 8 9.58172 8 14V27.7577V42C8 46.4183 11.5817 50 16 50H19.0486C22.0393 50 24.9778 51.0638 27.0226 53.2462C27.2503 53.4893 27.4744 53.7343 27.6944 53.9815C28.879 55.312 31.1727 55.3473 32.384 54.0382C32.6457 53.7553 32.9126 53.4746 33.184 53.1957C35.2608 51.0621 38.1772 50 41.1547 50H44C48.4183 50 52 46.4183 52 42V27.7577V14C52 9.58172 48.4183 6 44 6H16Z"/>
</mask>
<path fill-rule="evenodd" clip-rule="evenodd" d="M16 6C11.5817 6 8 9.58172 8 14V27.7577V42C8 46.4183 11.5817 50 16 50H19.0486C22.0393 50 24.9778 51.0638 27.0226 53.2462C27.2503 53.4893 27.4744 53.7343 27.6944 53.9815C28.879 55.312 31.1727 55.3473 32.384 54.0382C32.6457 53.7553 32.9126 53.4746 33.184 53.1957C35.2608 51.0621 38.1772 50 41.1547 50H44C48.4183 50 52 46.4183 52 42V27.7577V14C52 9.58172 48.4183 6 44 6H16Z" fill="#707070"/>
<path d="M27.6944 53.9815L26.2005 55.3112L26.2006 55.3114L27.6944 53.9815ZM32.384 54.0382L33.852 55.3965L33.8521 55.3964L32.384 54.0382ZM27.0226 53.2462L25.5631 54.6137L27.0226 53.2462ZM10 14C10 10.6863 12.6863 8 16 8V4C10.4772 4 6 8.47715 6 14H10ZM10 27.7577V14H6V27.7577H10ZM10 42V27.7577H6V42H10ZM16 48C12.6863 48 10 45.3137 10 42H6C6 47.5228 10.4772 52 16 52V48ZM19.0486 48H16V52H19.0486V48ZM25.5631 54.6137C25.7799 54.8451 25.9925 55.0776 26.2005 55.3112L29.1883 52.6517C28.9563 52.3911 28.7207 52.1335 28.4821 51.8788L25.5631 54.6137ZM26.2006 55.3114C28.1611 57.5134 31.8291 57.5827 33.852 55.3965L30.916 52.6799C30.5164 53.1118 29.597 53.1107 29.1882 52.6516L26.2006 55.3114ZM33.8521 55.3964C34.1015 55.1269 34.3567 54.8584 34.6172 54.5907L31.7509 51.8008C31.4686 52.0907 31.19 52.3837 30.9159 52.68L33.8521 55.3964ZM44 48H41.1547V52H44V48ZM50 42C50 45.3137 47.3137 48 44 48V52C49.5228 52 54 47.5228 54 42H50ZM50 27.7577V42H54V27.7577H50ZM50 14V27.7577H54V14H50ZM44 8C47.3137 8 50 10.6863 50 14H54C54 8.47715 49.5228 4 44 4V8ZM16 8H44V4H16V8ZM34.6172 54.5907C36.2654 52.8974 38.6375 52 41.1547 52V48C37.717 48 34.2562 49.2268 31.7509 51.8008L34.6172 54.5907ZM19.0486 52C21.5852 52 23.9591 52.9017 25.5631 54.6137L28.4821 51.8788C25.9964 49.2258 22.4933 48 19.0486 48V52Z" fill="white" mask="url(#path-1-inside-1_803_6615)"/>
<path fill-rule="evenodd" clip-rule="evenodd" d="M32.3307 18.939C34.2025 16.319 38.0161 15.7878 40.4535 17.2499C40.5767 17.3238 40.6797 17.4269 40.7537 17.55C42.2337 20.0162 41.5821 23.2986 39.3822 25.1597L37.6712 26.6072L39.2619 32.6505C39.5535 33.7586 39.2346 34.9382 38.4243 35.7484L36.8883 37.2841C36.7014 37.4708 36.4402 37.5632 36.1774 37.5354C35.9147 37.5076 35.6786 37.3625 35.5351 37.1407L31.5595 30.9979L29.3033 33.2537L29.6718 36.5687C29.701 36.8328 29.6088 37.0961 29.4207 37.2841L27.7613 38.9432C27.5624 39.142 27.2801 39.2331 27.0024 39.1881C26.7248 39.143 26.4858 38.9673 26.36 38.7158L24.0013 33.9993L19.2838 31.641C19.0322 31.5152 18.8564 31.2762 18.8114 30.9985C18.7663 30.7209 18.8575 30.4384 19.0564 30.2396L20.7158 28.5805C20.9038 28.3925 21.167 28.3003 21.4311 28.3297L24.747 28.698L27.003 26.4425L20.8592 22.4679C20.6373 22.3244 20.4922 22.0882 20.4644 21.8254C20.4365 21.5626 20.529 21.3013 20.7158 21.1145L22.2519 19.5788C23.0622 18.7686 24.2418 18.4498 25.3499 18.7414L31.345 20.3187L32.3307 18.939Z" fill="white"/>
</g>
<defs>
<filter id="filter0_d_803_6615" x="0" y="0" width="60" height="65" filterUnits="userSpaceOnUse" color-interpolation-filters="sRGB">
<feFlood flood-opacity="0" result="BackgroundImageFix"/>
<feColorMatrix in="SourceAlpha" type="matrix" values="0 0 0 0 0 0 0 0 0 0 0 0 0 0 0 0 0 0 127 0" result="hardAlpha"/>
<feOffset dy="2"/>
<feGaussianBlur stdDeviation="4"/>
<feColorMatrix type="matrix" values="0 0 0 0 0 0 0 0 0 0 0 0 0 0 0 0 0 0 0.16 0"/>
<feBlend mode="normal" in2="BackgroundImageFix" result="effect1_dropShadow_803_6615"/>
<feBlend mode="normal" in="SourceGraphic" in2="effect1_dropShadow_803_6615" result="shape"/>
</filter>
</defs>
</svg>
