<svg width="60" height="65" viewBox="0 0 60 65" fill="none" xmlns="http://www.w3.org/2000/svg">
<g filter="url(#filter0_d_803_6605)">
<mask id="path-1-inside-1_803_6605" fill="white">
<path fill-rule="evenodd" clip-rule="evenodd" d="M16 6C11.5817 6 8 9.58172 8 14V27.7577V42C8 46.4183 11.5817 50 16 50H19.0486C22.0393 50 24.9778 51.0638 27.0226 53.2462C27.2503 53.4893 27.4744 53.7343 27.6944 53.9815C28.879 55.312 31.1727 55.3473 32.384 54.0382C32.6457 53.7553 32.9126 53.4746 33.184 53.1957C35.2608 51.0621 38.1772 50 41.1547 50H44C48.4183 50 52 46.4183 52 42V27.7577V14C52 9.58172 48.4183 6 44 6H16Z"/>
</mask>
<path fill-rule="evenodd" clip-rule="evenodd" d="M16 6C11.5817 6 8 9.58172 8 14V27.7577V42C8 46.4183 11.5817 50 16 50H19.0486C22.0393 50 24.9778 51.0638 27.0226 53.2462C27.2503 53.4893 27.4744 53.7343 27.6944 53.9815C28.879 55.312 31.1727 55.3473 32.384 54.0382C32.6457 53.7553 32.9126 53.4746 33.184 53.1957C35.2608 51.0621 38.1772 50 41.1547 50H44C48.4183 50 52 46.4183 52 42V27.7577V14C52 9.58172 48.4183 6 44 6H16Z" fill="#5CA1E3"/>
<path d="M27.6944 53.9815L26.2005 55.3112L26.2006 55.3114L27.6944 53.9815ZM32.384 54.0382L33.852 55.3965L33.8521 55.3964L32.384 54.0382ZM27.0226 53.2462L25.5631 54.6137L27.0226 53.2462ZM10 14C10 10.6863 12.6863 8 16 8V4C10.4772 4 6 8.47715 6 14H10ZM10 27.7577V14H6V27.7577H10ZM10 42V27.7577H6V42H10ZM16 48C12.6863 48 10 45.3137 10 42H6C6 47.5228 10.4772 52 16 52V48ZM19.0486 48H16V52H19.0486V48ZM25.5631 54.6137C25.7799 54.8451 25.9925 55.0776 26.2005 55.3112L29.1883 52.6517C28.9563 52.3911 28.7207 52.1335 28.4821 51.8788L25.5631 54.6137ZM26.2006 55.3114C28.1611 57.5134 31.8291 57.5827 33.852 55.3965L30.916 52.6799C30.5164 53.1118 29.597 53.1107 29.1882 52.6516L26.2006 55.3114ZM33.8521 55.3964C34.1015 55.1269 34.3567 54.8584 34.6172 54.5907L31.7509 51.8008C31.4686 52.0907 31.19 52.3837 30.9159 52.68L33.8521 55.3964ZM44 48H41.1547V52H44V48ZM50 42C50 45.3137 47.3137 48 44 48V52C49.5228 52 54 47.5228 54 42H50ZM50 27.7577V42H54V27.7577H50ZM50 14V27.7577H54V14H50ZM44 8C47.3137 8 50 10.6863 50 14H54C54 8.47715 49.5228 4 44 4V8ZM16 8H44V4H16V8ZM34.6172 54.5907C36.2654 52.8974 38.6375 52 41.1547 52V48C37.717 48 34.2562 49.2268 31.7509 51.8008L34.6172 54.5907ZM19.0486 52C21.5852 52 23.9591 52.9017 25.5631 54.6137L28.4821 51.8788C25.9964 49.2258 22.4933 48 19.0486 48V52Z" fill="white" mask="url(#path-1-inside-1_803_6605)"/>
<path d="M40.8315 31.23C40.4849 30.9149 40.1068 30.5683 39.382 30.5683C38.6572 30.5683 38.2791 30.9149 37.9325 31.23C37.6174 31.5136 37.3338 31.7657 36.7666 31.7657C36.1994 31.7657 35.9158 31.5136 35.6006 31.23C35.254 30.9149 34.8759 30.5683 34.1511 30.5683C33.4264 30.5683 33.0482 30.9149 32.7016 31.23C32.3865 31.5136 32.1029 31.7657 31.5357 31.7657C30.9685 31.7657 30.6849 31.5136 30.3698 31.23C30.2122 31.0724 30.0232 30.9149 29.8026 30.7888C29.8026 30.7888 29.7396 30.7888 29.708 30.7888C29.4875 30.6943 29.2669 30.6313 28.9518 30.6313C28.227 30.6313 27.8489 30.9779 27.5338 31.293C27.2186 31.5766 26.9666 31.8287 26.3994 31.8287C25.8322 31.8287 25.5486 31.5766 25.265 31.293C24.9183 30.9779 24.5717 30.6313 23.8469 30.6313C23.1222 30.6313 22.7441 30.9779 22.4289 31.293C22.1138 31.5766 21.8617 31.8287 21.263 31.8287C20.6643 31.8287 20.4122 31.5766 20.1286 31.293C19.9396 31.1355 19.7505 30.9464 19.4669 30.7888L19.3093 31.8287C19.5299 31.9232 19.6875 32.0808 19.845 32.2384C20.1916 32.5535 20.5698 32.9001 21.263 32.9001C21.9563 32.9001 22.3659 32.5535 22.681 32.2384C22.9961 31.9548 23.2482 31.7027 23.8154 31.7027C24.3826 31.7027 24.6662 31.9548 24.9814 32.2384C25.328 32.5535 25.6746 32.9001 26.3994 32.9001C27.1241 32.9001 27.5023 32.5535 27.8174 32.2384C28.1325 31.9548 28.3846 31.7027 28.9833 31.7027C29.582 31.7027 29.4559 31.7657 29.645 31.8602C29.8026 31.9548 29.9601 32.0808 30.0862 32.2069C30.4013 32.4905 30.7794 32.8371 31.5042 32.8371C32.2289 32.8371 32.6071 32.4905 32.9537 32.1753C33.2688 31.8917 33.5209 31.6396 34.1196 31.6396C34.7183 31.6396 34.9704 31.8917 35.2855 32.1753C35.6322 32.4905 36.0103 32.8371 36.735 32.8371C37.4598 32.8371 37.8379 32.4905 38.1846 32.1753C38.4997 31.8917 38.7833 31.6396 39.3505 31.6396C39.9177 31.6396 40.2013 31.8917 40.5164 32.1753L40.863 31.293C40.863 31.293 40.8 31.23 40.737 31.1985V31.2615L40.8315 31.23Z" fill="black"/>
<path d="M29.6765 30.7573C29.4875 30.6628 29.2984 30.5998 29.0148 30.5998C28.7312 30.5998 28.5106 30.6628 28.3215 30.7888L29.708 30.7888L29.6765 30.7888V30.7573Z" fill="black"/>
<path d="M23.0907 30.8204H24.5717C24.3826 30.6943 24.1621 30.5998 23.8469 30.5998C23.5318 30.5998 23.2797 30.6943 23.0907 30.8204Z" fill="black"/>
<path d="M42.5961 26.4403H39.6656L35.1595 23.1001H23.3428C23.1537 23.1001 22.9961 23.2577 22.9646 23.4467L22.2714 26.4403H21.1685C20.9794 26.4403 20.8219 26.5663 20.7904 26.7239L19.9396 29.7805L19.845 29.875C19.9711 29.9696 20.0656 30.0641 20.1916 30.1586C20.5068 30.4422 20.7588 30.6943 21.326 30.6943C21.8932 30.6943 22.1768 30.4422 22.492 30.1586C22.8386 29.8435 23.1852 29.4969 23.91 29.4969C24.6347 29.4969 25.0129 29.8435 25.328 30.1586C25.6431 30.4422 25.8952 30.6943 26.4624 30.6943C27.0296 30.6943 27.3132 30.4422 27.5968 30.1586C27.9434 29.8435 28.29 29.4969 29.0148 29.4969C29.7396 29.4969 29.582 29.5599 29.7711 29.6544C30.0547 29.7805 30.2437 29.9696 30.4643 30.1271C30.7794 30.4107 31.063 30.6628 31.6302 30.6628C32.1974 30.6628 32.481 30.4107 32.7961 30.1271C33.1428 29.812 33.5209 29.4654 34.2457 29.4654C34.9704 29.4654 35.3486 29.812 35.6952 30.1271C36.0103 30.4107 36.2939 30.6628 36.8611 30.6628C37.4283 30.6628 37.7119 30.4107 38.027 30.1271C38.3736 29.812 38.7518 29.4654 39.4765 29.4654C40.2013 29.4654 40.2643 29.5914 40.5164 29.7805L42.6907 26.7554C42.6907 26.7554 42.6907 26.6924 42.6907 26.6294C42.6907 26.5033 42.5961 26.4088 42.4701 26.4088H42.5646L42.5961 26.4403ZM27.1241 26.4403H23.1537L23.5318 24.8017H27.0611V24.8647H27.1241V26.4718V26.4403ZM31.063 26.4403H27.5653V24.8017H31.063V26.4403ZM31.6302 26.4403V24.8017H35.7267L37.964 26.4403H31.6302Z" fill="black"/>
<path d="M33.6154 30.7573H34.9074C34.7498 30.6628 34.5293 30.5998 34.2772 30.5998C34.0251 30.5998 33.8045 30.6628 33.6154 30.7573Z" fill="black"/>
<path d="M39.5396 30.5998C39.2875 30.5998 39.1299 30.5998 38.9408 30.7258H39.8232L39.8862 30.6628C39.7916 30.6628 39.6656 30.6628 39.5396 30.6628V30.5998Z" fill="black"/>
</g>
<defs>
<filter id="filter0_d_803_6605" x="0" y="0" width="60" height="65" filterUnits="userSpaceOnUse" color-interpolation-filters="sRGB">
<feFlood flood-opacity="0" result="BackgroundImageFix"/>
<feColorMatrix in="SourceAlpha" type="matrix" values="0 0 0 0 0 0 0 0 0 0 0 0 0 0 0 0 0 0 127 0" result="hardAlpha"/>
<feOffset dy="2"/>
<feGaussianBlur stdDeviation="4"/>
<feColorMatrix type="matrix" values="0 0 0 0 0 0 0 0 0 0 0 0 0 0 0 0 0 0 0.16 0"/>
<feBlend mode="normal" in2="BackgroundImageFix" result="effect1_dropShadow_803_6605"/>
<feBlend mode="normal" in="SourceGraphic" in2="effect1_dropShadow_803_6605" result="shape"/>
</filter>
</defs>
</svg>
