<svg width="44" height="44" viewBox="0 0 44 44" fill="none" xmlns="http://www.w3.org/2000/svg">
<g filter="url(#filter0_d_803_6583)">
<g clip-path="url(#clip0_803_6583)">
<rect x="8" y="6" width="28" height="28" rx="4" fill="#707070"/>
<path fill-rule="evenodd" clip-rule="evenodd" d="M21.6273 11.7545C21.8618 11.6372 22.138 11.6372 22.3726 11.7545L30.7059 15.9211C30.9883 16.0623 31.1666 16.3509 31.1666 16.6665V27.4998C31.1666 27.9601 30.7935 28.3332 30.3333 28.3332C29.873 28.3332 29.4999 27.9601 29.4999 27.4998V17.1815L21.9999 13.4315L14.4999 17.1815V27.4998C14.4999 27.9601 14.1268 28.3332 13.6666 28.3332C13.2064 28.3332 12.8333 27.9601 12.8333 27.4998V16.6665C12.8333 16.3509 13.0116 16.0623 13.2939 15.9211L21.6273 11.7545Z" fill="white"/>
<path fill-rule="evenodd" clip-rule="evenodd" d="M18.6666 24.9998C19.1268 24.9998 19.4999 25.3729 19.4999 25.8332V27.4998C19.4999 27.9601 19.1268 28.3332 18.6666 28.3332C18.2064 28.3332 17.8333 27.9601 17.8333 27.4998V25.8332C17.8333 25.3729 18.2064 24.9998 18.6666 24.9998ZM25.3333 24.9998C25.7935 24.9998 26.1666 25.3729 26.1666 25.8332V27.4998C26.1666 27.9601 25.7935 28.3332 25.3333 28.3332C24.873 28.3332 24.4999 27.9601 24.4999 27.4998V25.8332C24.4999 25.3729 24.873 24.9998 25.3333 24.9998Z" fill="white"/>
<path fill-rule="evenodd" clip-rule="evenodd" d="M20.3848 19.1665C20.0024 19.1665 19.669 19.4268 19.5763 19.7978L19.0586 21.8686C18.9469 22.3151 18.4945 22.5866 18.048 22.4749C17.6015 22.3633 17.33 21.9109 17.4417 21.4644L17.9594 19.3935C18.2376 18.2806 19.2376 17.4998 20.3848 17.4998H23.6155C24.7627 17.4998 25.7626 18.2806 26.0408 19.3935L26.5586 21.4644C26.6702 21.9109 26.3988 22.3633 25.9523 22.4749C25.5058 22.5866 25.0533 22.3151 24.9417 21.8686L24.4239 19.7978C24.3312 19.4268 23.9979 19.1665 23.6155 19.1665H20.3848Z" fill="white"/>
<path fill-rule="evenodd" clip-rule="evenodd" d="M18.6666 20.8332C17.2859 20.8332 16.1666 21.9524 16.1666 23.3332V24.1665C16.1666 25.5473 17.2859 26.6665 18.6666 26.6665H25.3333C26.714 26.6665 27.8333 25.5473 27.8333 24.1665V23.3332C27.8333 21.9524 26.714 20.8332 25.3333 20.8332H18.6666ZM20.3333 23.7498C20.3333 23.2896 19.9602 22.9165 19.4999 22.9165C19.0397 22.9165 18.6666 23.2896 18.6666 23.7498V23.7582C18.6666 24.2184 19.0397 24.5915 19.4999 24.5915C19.9602 24.5915 20.3333 24.2184 20.3333 23.7582V23.7498ZM25.3333 23.7498C25.3333 23.2896 24.9602 22.9165 24.4999 22.9165C24.0397 22.9165 23.6666 23.2896 23.6666 23.7498V23.7582C23.6666 24.2184 24.0397 24.5915 24.4999 24.5915C24.9602 24.5915 25.3333 24.2184 25.3333 23.7582V23.7498Z" fill="white"/>
</g>
<rect x="9" y="7" width="26" height="26" rx="3" stroke="white" stroke-width="2"/>
</g>
<defs>
<filter id="filter0_d_803_6583" x="0" y="0" width="44" height="44" filterUnits="userSpaceOnUse" color-interpolation-filters="sRGB">
<feFlood flood-opacity="0" result="BackgroundImageFix"/>
<feColorMatrix in="SourceAlpha" type="matrix" values="0 0 0 0 0 0 0 0 0 0 0 0 0 0 0 0 0 0 127 0" result="hardAlpha"/>
<feOffset dy="2"/>
<feGaussianBlur stdDeviation="4"/>
<feColorMatrix type="matrix" values="0 0 0 0 0 0 0 0 0 0 0 0 0 0 0 0 0 0 0.16 0"/>
<feBlend mode="normal" in2="BackgroundImageFix" result="effect1_dropShadow_803_6583"/>
<feBlend mode="normal" in="SourceGraphic" in2="effect1_dropShadow_803_6583" result="shape"/>
</filter>
<clipPath id="clip0_803_6583">
<rect x="8" y="6" width="28" height="28" rx="4" fill="white"/>
</clipPath>
</defs>
</svg>
