<svg width="60" height="65" viewBox="0 0 60 65" fill="none" xmlns="http://www.w3.org/2000/svg">
<g filter="url(#filter0_d_896_8362)">
<mask id="path-1-inside-1_896_8362" fill="white">
<path fill-rule="evenodd" clip-rule="evenodd" d="M16 6C11.5817 6 8 9.58172 8 14V27.7577V42C8 46.4183 11.5817 50 16 50H19.0486C22.0393 50 24.9778 51.0638 27.0226 53.2462C27.2503 53.4893 27.4744 53.7343 27.6944 53.9815C28.879 55.312 31.1727 55.3473 32.384 54.0382C32.6457 53.7553 32.9126 53.4746 33.184 53.1957C35.2608 51.0621 38.1772 50 41.1547 50H44C48.4183 50 52 46.4183 52 42V27.7577V14C52 9.58172 48.4183 6 44 6H16Z"/>
</mask>
<path fill-rule="evenodd" clip-rule="evenodd" d="M16 6C11.5817 6 8 9.58172 8 14V27.7577V42C8 46.4183 11.5817 50 16 50H19.0486C22.0393 50 24.9778 51.0638 27.0226 53.2462C27.2503 53.4893 27.4744 53.7343 27.6944 53.9815C28.879 55.312 31.1727 55.3473 32.384 54.0382C32.6457 53.7553 32.9126 53.4746 33.184 53.1957C35.2608 51.0621 38.1772 50 41.1547 50H44C48.4183 50 52 46.4183 52 42V27.7577V14C52 9.58172 48.4183 6 44 6H16Z" fill="#5CA1E3"/>
<path d="M27.6944 53.9815L26.2005 55.3112L26.2006 55.3114L27.6944 53.9815ZM32.384 54.0382L33.852 55.3965L33.8521 55.3964L32.384 54.0382ZM27.0226 53.2462L25.5631 54.6137L27.0226 53.2462ZM10 14C10 10.6863 12.6863 8 16 8V4C10.4772 4 6 8.47715 6 14H10ZM10 27.7577V14H6V27.7577H10ZM10 42V27.7577H6V42H10ZM16 48C12.6863 48 10 45.3137 10 42H6C6 47.5228 10.4772 52 16 52V48ZM19.0486 48H16V52H19.0486V48ZM25.5631 54.6137C25.7799 54.8451 25.9925 55.0776 26.2005 55.3112L29.1883 52.6517C28.9563 52.3911 28.7207 52.1335 28.4821 51.8788L25.5631 54.6137ZM26.2006 55.3114C28.1611 57.5134 31.8291 57.5827 33.852 55.3965L30.916 52.6799C30.5164 53.1118 29.597 53.1107 29.1882 52.6515L26.2006 55.3114ZM33.8521 55.3964C34.1015 55.1269 34.3567 54.8584 34.6172 54.5907L31.7509 51.8008C31.4686 52.0907 31.19 52.3837 30.9159 52.68L33.8521 55.3964ZM44 48H41.1547V52H44V48ZM50 42C50 45.3137 47.3137 48 44 48V52C49.5228 52 54 47.5228 54 42H50ZM50 27.7577V42H54V27.7577H50ZM50 14V27.7577H54V14H50ZM44 8C47.3137 8 50 10.6863 50 14H54C54 8.47715 49.5228 4 44 4V8ZM16 8H44V4H16V8ZM34.6172 54.5907C36.2654 52.8974 38.6375 52 41.1547 52V48C37.717 48 34.2562 49.2268 31.7509 51.8008L34.6172 54.5907ZM19.0486 52C21.5852 52 23.9591 52.9017 25.5631 54.6137L28.4821 51.8788C25.9964 49.2258 22.4933 48 19.0486 48V52Z" fill="white" mask="url(#path-1-inside-1_896_8362)"/>
<path d="M40.6931 38.489C40.6931 38.489 40.7564 38.44 40.8124 38.384C41.2534 37.915 41.9953 37.894 42.4643 38.335C42.9333 38.776 42.9542 39.511 42.5131 39.987C42.1142 40.414 41.6242 40.729 41.0362 40.82C40.4552 40.904 39.9442 40.743 39.5522 40.54C39.1672 40.344 38.8312 40.071 38.5582 39.833C38.4182 39.714 38.2361 39.546 38.0681 39.392C37.9491 39.287 37.8443 39.189 37.7673 39.119C37.2213 38.629 36.9622 38.517 36.8362 38.51C36.8362 38.51 36.7664 38.51 36.6404 38.594C36.4864 38.699 36.2552 38.923 35.9612 39.371H35.9541C35.6111 39.889 35.1842 40.323 34.6382 40.547C34.0572 40.792 33.4903 40.743 33.0143 40.582C32.5733 40.435 32.1882 40.176 31.8802 39.952C31.6632 39.791 31.4322 39.595 31.2222 39.427C31.1522 39.364 31.0754 39.308 31.0124 39.252C30.4104 38.762 30.0953 38.594 29.8923 38.58H29.8851C29.8851 38.58 29.5421 38.545 28.9541 39.42C28.6391 39.91 28.2192 40.323 27.6522 40.526C27.0782 40.736 26.5322 40.659 26.0912 40.512C25.6712 40.365 25.2931 40.134 24.9851 39.917C24.7751 39.777 24.5514 39.609 24.3484 39.455C24.2574 39.385 24.1661 39.315 24.0821 39.252C23.4591 38.797 23.1021 38.615 22.8571 38.601C22.7871 38.601 22.4791 38.58 21.9681 39.364H21.9612C21.4502 40.134 20.6802 40.813 19.6582 40.813C18.6362 40.813 17.8594 40.134 17.3624 39.364C17.0054 38.825 17.1594 38.104 17.6984 37.747C18.2374 37.397 18.9654 37.544 19.3154 38.09C19.4834 38.349 19.6022 38.44 19.6582 38.468C19.7142 38.44 19.8404 38.349 20.0154 38.083C20.8064 36.879 21.8001 36.2 23.0041 36.27C24.0261 36.333 24.9011 36.949 25.4681 37.369C25.5941 37.46 25.7062 37.544 25.8112 37.621C25.9862 37.754 26.1474 37.873 26.3154 37.985C26.5744 38.16 26.7422 38.258 26.8612 38.293H26.8821C26.8821 38.293 26.9522 38.216 27.0082 38.132C27.8272 36.893 28.8283 36.158 30.0533 36.242C31.0963 36.319 31.9571 37.005 32.4821 37.432C32.5871 37.516 32.6784 37.593 32.7624 37.663C32.9514 37.817 33.1122 37.95 33.2802 38.076C33.5182 38.258 33.6722 38.335 33.7632 38.37C33.8051 38.335 33.8892 38.258 34.0082 38.083C34.7852 36.9 35.7372 36.116 36.9412 36.172C37.9912 36.221 38.8171 36.921 39.3211 37.369C39.4821 37.516 39.6013 37.621 39.7063 37.726C39.8253 37.838 39.9372 37.936 40.0912 38.069C40.3222 38.279 40.4974 38.398 40.6234 38.468C40.6584 38.482 40.6791 38.496 40.6931 38.503V38.489Z" fill="white"/>
<path fill-rule="evenodd" clip-rule="evenodd" d="M21.8282 22.165C21.8282 20.877 22.8781 19.834 24.1661 19.834H30.1862C31.5092 19.834 32.7692 20.394 33.6582 21.381L37.8654 26.057C38.2924 26.533 38.2571 27.275 37.7741 27.702C37.2981 28.136 36.563 28.094 36.129 27.618L31.9222 22.942C31.4812 22.452 30.8512 22.172 30.1862 22.172H24.1661V26.841C24.1661 27.485 23.6412 28.01 22.9972 28.01C22.3532 28.01 21.8282 27.485 21.8282 26.841V22.165Z" fill="white"/>
<path fill-rule="evenodd" clip-rule="evenodd" d="M22.9972 16.3272C22.9972 15.6832 23.5221 15.1582 24.1661 15.1582H26.4972C27.7852 15.1582 28.8282 16.2012 28.8282 17.4892V20.9892C28.8282 21.6332 28.3101 22.1582 27.6661 22.1582C27.0221 22.1582 26.4972 21.6332 26.4972 20.9892V17.4892H24.1661C23.5221 17.4892 22.9972 16.9642 22.9972 16.3202V16.3272Z" fill="white"/>
<path d="M18.3284 25.9523C18.0624 25.9523 17.8104 26.0713 17.6424 26.2813C17.4814 26.4913 17.4184 26.7643 17.4814 27.0233L19.5602 35.8783C20.4772 35.0033 21.6533 34.4293 23.1023 34.5133C24.6773 34.6113 25.9652 35.5563 26.5182 35.9553C27.4352 35.0313 28.6462 34.3803 30.1792 34.4853C31.7122 34.5903 32.8953 35.5003 33.4553 35.9553C34.3303 35.0453 35.4992 34.3383 37.0182 34.4083C38.5512 34.4783 39.7063 35.3673 40.2803 35.8643C40.3293 35.8083 40.3713 35.7453 40.4133 35.6893C41.1623 34.6253 41.6312 33.2603 41.9322 31.9793C42.2402 30.6843 42.3874 29.3963 42.4644 28.4373C42.4994 27.9543 42.5203 27.5553 42.5273 27.2753C42.5343 27.1353 42.5343 26.9113 42.5413 26.8273C42.5413 26.3373 42.1493 25.9453 41.6663 25.9453H18.3284V25.9523Z" fill="white"/>
</g>
<defs>
<filter id="filter0_d_896_8362" x="0" y="0" width="60" height="65" filterUnits="userSpaceOnUse" color-interpolation-filters="sRGB">
<feFlood flood-opacity="0" result="BackgroundImageFix"/>
<feColorMatrix in="SourceAlpha" type="matrix" values="0 0 0 0 0 0 0 0 0 0 0 0 0 0 0 0 0 0 127 0" result="hardAlpha"/>
<feOffset dy="2"/>
<feGaussianBlur stdDeviation="4"/>
<feColorMatrix type="matrix" values="0 0 0 0 0 0 0 0 0 0 0 0 0 0 0 0 0 0 0.16 0"/>
<feBlend mode="normal" in2="BackgroundImageFix" result="effect1_dropShadow_896_8362"/>
<feBlend mode="normal" in="SourceGraphic" in2="effect1_dropShadow_896_8362" result="shape"/>
</filter>
</defs>
</svg>
