<svg width="102" height="65" viewBox="0 0 102 65" fill="none" xmlns="http://www.w3.org/2000/svg">
<g filter="url(#filter0_d_8318_7762)">
<mask id="path-1-inside-1_8318_7762" fill="white">
<path fill-rule="evenodd" clip-rule="evenodd" d="M16 6C11.5817 6 8 9.58172 8 14V42C8 46.4183 11.5817 50 16 50H40.0486C43.0393 50 45.9778 51.0638 48.0226 53.2462C48.2503 53.4893 48.4744 53.7343 48.6944 53.9815C49.879 55.312 52.1727 55.3473 53.384 54.0382C53.6458 53.7553 53.9126 53.4746 54.184 53.1957C56.2608 51.0621 59.1772 50 62.1547 50H86C90.4183 50 94 46.4183 94 42V14C94 9.58172 90.4183 6 86 6H16Z"/>
</mask>
<path fill-rule="evenodd" clip-rule="evenodd" d="M16 6C11.5817 6 8 9.58172 8 14V42C8 46.4183 11.5817 50 16 50H40.0486C43.0393 50 45.9778 51.0638 48.0226 53.2462C48.2503 53.4893 48.4744 53.7343 48.6944 53.9815C49.879 55.312 52.1727 55.3473 53.384 54.0382C53.6458 53.7553 53.9126 53.4746 54.184 53.1957C56.2608 51.0621 59.1772 50 62.1547 50H86C90.4183 50 94 46.4183 94 42V14C94 9.58172 90.4183 6 86 6H16Z" fill="white"/>
<path d="M48.6944 53.9815L47.2005 55.3112L47.2006 55.3114L48.6944 53.9815ZM53.384 54.0382L54.852 55.3965L54.8521 55.3964L53.384 54.0382ZM54.184 53.1957L52.7509 51.8008L54.184 53.1957ZM48.0226 53.2462L49.4821 51.8788L48.0226 53.2462ZM8 14H10C10 10.6863 12.6863 8 16 8V6V4C10.4772 4 6 8.47715 6 14H8ZM8 42H10V14H8H6V42H8ZM16 50V48C12.6863 48 10 45.3137 10 42H8H6C6 47.5228 10.4772 52 16 52V50ZM40.0486 50V48H16V50V52H40.0486V50ZM48.0226 53.2462L46.5631 54.6137C46.7799 54.8451 46.9925 55.0776 47.2005 55.3112L48.6944 53.9815L50.1883 52.6517C49.9563 52.3911 49.7207 52.1335 49.4821 51.8788L48.0226 53.2462ZM48.6944 53.9815L47.2006 55.3114C49.1611 57.5134 52.8291 57.5827 54.852 55.3965L53.384 54.0382L51.916 52.6799C51.5164 53.1118 50.597 53.1107 50.1882 52.6515L48.6944 53.9815ZM53.384 54.0382L54.8521 55.3964C55.1015 55.1269 55.3567 54.8584 55.6172 54.5907L54.184 53.1957L52.7509 51.8008C52.4686 52.0907 52.19 52.3837 51.916 52.68L53.384 54.0382ZM86 50V48H62.1547V50V52H86V50ZM94 42H92C92 45.3137 89.3137 48 86 48V50V52C91.5229 52 96 47.5228 96 42H94ZM94 14H92V42H94H96V14H94ZM86 6V8C89.3137 8 92 10.6863 92 14H94H96C96 8.47715 91.5229 4 86 4V6ZM16 6V8H86V6V4H16V6ZM54.184 53.1957L55.6172 54.5907C57.2654 52.8974 59.6375 52 62.1547 52V50V48C58.717 48 55.2562 49.2268 52.7509 51.8008L54.184 53.1957ZM40.0486 50V52C42.5852 52 44.9591 52.9017 46.5631 54.6137L48.0226 53.2462L49.4821 51.8788C46.9964 49.2258 43.4933 48 40.0486 48V50Z" fill="white" mask="url(#path-1-inside-1_8318_7762)"/>
<rect x="10" y="8" width="40" height="40" rx="6" fill="#A281CE"/>
<path fill-rule="evenodd" clip-rule="evenodd" d="M24.4049 34.5172C24.8599 34.9722 24.8599 35.7142 24.4049 36.1692L21.4928 39.0882C21.0308 39.5432 20.2962 39.5432 19.8412 39.0882C19.3863 38.6332 19.3863 37.8912 19.8412 37.4362L22.7534 34.5172C23.2154 34.0622 23.9499 34.0622 24.4049 34.5172ZM35.5912 34.5172C36.0462 34.0622 36.7808 34.0622 37.2428 34.5172L40.1549 37.4362C40.6099 37.8912 40.6099 38.6332 40.1549 39.0882C39.6999 39.5432 38.9654 39.5432 38.5034 39.0882L35.5912 36.1692C35.1362 35.7142 35.1362 34.9722 35.5912 34.5172Z" fill="black"/>
<path fill-rule="evenodd" clip-rule="evenodd" d="M21.1986 20.972C21.6676 18.158 24.1041 16.1 26.9531 16.1H33.0426C35.8986 16.1 38.3281 18.158 38.7971 20.972L40.3365 30.212C40.8475 33.25 38.881 36.246 35.71 36.673C33.995 36.904 31.9579 37.1 29.9979 37.1C28.0379 37.1 26.0077 36.904 24.2857 36.673C21.1217 36.246 19.1552 33.25 19.6592 30.212L21.1986 20.972ZM26.9531 18.431C25.2451 18.431 23.7817 19.67 23.5017 21.357L23.0751 23.919C24.0201 24.927 25.2587 25.585 26.5047 26.005C27.8977 26.467 29.2279 26.6 29.9979 26.6C30.7679 26.6 32.098 26.467 33.491 26.005C34.737 25.592 35.9761 24.927 36.9281 23.919L36.5009 21.357C36.2139 19.67 34.7576 18.431 33.0426 18.431H26.9531ZM26.4979 30.093C25.8539 30.093 25.3289 30.618 25.3289 31.262C25.3289 31.906 25.8539 32.431 26.4979 32.431C27.1489 32.431 27.6668 31.906 27.6668 31.262C27.6668 30.618 27.1489 30.093 26.4979 30.093ZM33.4842 30.093C32.8402 30.093 32.3221 30.618 32.3221 31.262C32.3221 31.906 32.8402 32.431 33.4842 32.431H33.4979C34.1419 32.431 34.6668 31.906 34.6668 31.262C34.6668 30.618 34.1419 30.093 33.4979 30.093H33.4842Z" fill="black"/>
<rect x="52" y="8" width="40" height="40" rx="6" fill="#004D61"/>
<path fill-rule="evenodd" clip-rule="evenodd" d="M59.4004 24.325C59.4004 23.1652 60.3406 22.225 61.5004 22.225H79.0004C82.4798 22.225 85.3004 25.0456 85.3004 28.525V32.725C85.3004 33.8848 84.3649 34.825 83.2051 34.825C76.3616 34.825 63.3834 34.825 61.5004 34.825C60.3406 34.825 59.4004 33.8848 59.4004 32.725V24.325ZM61.5004 25.025C61.5004 24.6385 61.8138 24.325 62.2004 24.325H64.2974C64.684 24.325 64.9974 24.6385 64.9974 25.025V28.525C64.9974 28.9116 64.684 29.225 64.2974 29.225H62.2004C61.8504 29.225 61.5004 28.875 61.5004 28.525V25.025ZM67.108 24.325C66.7214 24.325 66.408 24.6385 66.408 25.025L66.4004 28.525C66.4004 28.875 66.7504 29.225 67.1004 29.225H69.908C70.2946 29.225 70.608 28.9116 70.608 28.525V25.025C70.608 24.6385 70.2946 24.325 69.908 24.325H67.108ZM72.0185 25.025C72.0185 24.6385 72.3319 24.325 72.7185 24.325H75.5185C75.9051 24.325 76.2185 24.6385 76.2185 25.025V28.525C76.2185 28.9116 75.9051 29.225 75.5185 29.225H73.4185C72.6453 29.225 72.0004 29.2983 72.0004 28.525L72.0185 25.025ZM78.329 24.325C77.9424 24.325 77.629 24.6385 77.629 25.025V28.525C77.629 28.9116 77.9424 29.225 78.329 29.225H82.529C82.9156 29.225 83.229 28.9116 83.229 28.525C83.229 26.2054 81.3486 24.325 79.029 24.325H78.329Z" fill="white"/>
<path fill-rule="evenodd" clip-rule="evenodd" d="M59.9254 36.925C59.9254 36.4418 60.3171 36.05 60.8004 36.05L83.9004 36.05C84.3836 36.05 84.7754 36.4418 84.7754 36.925C84.7754 37.4083 84.3836 37.8 83.9004 37.8L60.8004 37.8C60.3171 37.8 59.9254 37.4083 59.9254 36.925Z" fill="white"/>
<path fill-rule="evenodd" clip-rule="evenodd" d="M68.3254 19.425C68.3254 18.9418 68.7171 18.55 69.2004 18.55H74.8004C75.1459 18.55 75.4591 18.7534 75.5997 19.0691C75.7403 19.3847 75.6819 19.7535 75.4508 20.0104L72.3008 23.5104C71.9775 23.8696 71.4242 23.8987 71.065 23.5754C70.7058 23.2522 70.6767 22.6989 71 22.3397L72.8357 20.3H69.2004C68.7171 20.3 68.3254 19.9083 68.3254 19.425Z" fill="white"/>
</g>
<defs>
<filter id="filter0_d_8318_7762" x="0" y="0" width="102" height="65" filterUnits="userSpaceOnUse" color-interpolation-filters="sRGB">
<feFlood flood-opacity="0" result="BackgroundImageFix"/>
<feColorMatrix in="SourceAlpha" type="matrix" values="0 0 0 0 0 0 0 0 0 0 0 0 0 0 0 0 0 0 127 0" result="hardAlpha"/>
<feOffset dy="2"/>
<feGaussianBlur stdDeviation="4"/>
<feColorMatrix type="matrix" values="0 0 0 0 0 0 0 0 0 0 0 0 0 0 0 0 0 0 0.16 0"/>
<feBlend mode="normal" in2="BackgroundImageFix" result="effect1_dropShadow_8318_7762"/>
<feBlend mode="normal" in="SourceGraphic" in2="effect1_dropShadow_8318_7762" result="shape"/>
</filter>
</defs>
</svg>
