<svg width="60" height="65" viewBox="0 0 60 65" fill="none" xmlns="http://www.w3.org/2000/svg">
<g filter="url(#filter0_d_8318_7694)">
<mask id="path-1-inside-1_8318_7694" fill="white">
<path fill-rule="evenodd" clip-rule="evenodd" d="M16 8C11.5817 8 8 11.5817 8 16V29.7577V44C8 48.4183 11.5817 52 16 52H19.0486C22.0393 52 24.9778 53.0638 27.0226 55.2462C27.2503 55.4893 27.4744 55.7343 27.6944 55.9815C28.879 57.312 31.1727 57.3473 32.384 56.0382C32.6457 55.7553 32.9126 55.4746 33.184 55.1957C35.2608 53.0621 38.1772 52 41.1547 52H44C48.4183 52 52 48.4183 52 44V29.7577V16C52 11.5817 48.4183 8 44 8H16Z"/>
</mask>
<path fill-rule="evenodd" clip-rule="evenodd" d="M16 8C11.5817 8 8 11.5817 8 16V29.7577V44C8 48.4183 11.5817 52 16 52H19.0486C22.0393 52 24.9778 53.0638 27.0226 55.2462C27.2503 55.4893 27.4744 55.7343 27.6944 55.9815C28.879 57.312 31.1727 57.3473 32.384 56.0382C32.6457 55.7553 32.9126 55.4746 33.184 55.1957C35.2608 53.0621 38.1772 52 41.1547 52H44C48.4183 52 52 48.4183 52 44V29.7577V16C52 11.5817 48.4183 8 44 8H16Z" fill="#1A5843"/>
<path d="M27.6944 55.9815L26.2005 57.3112L26.2006 57.3114L27.6944 55.9815ZM32.384 56.0382L33.852 57.3965L33.8521 57.3964L32.384 56.0382ZM27.0226 55.2462L25.5631 56.6137L27.0226 55.2462ZM8 16H10C10 12.6863 12.6863 10 16 10V8V6C10.4772 6 6 10.4772 6 16H8ZM8 29.7577H10V16H8H6V29.7577H8ZM8 44H10V29.7577H8H6V44H8ZM16 52V50C12.6863 50 10 47.3137 10 44H8H6C6 49.5228 10.4772 54 16 54V52ZM19.0486 52V50H16V52V54H19.0486V52ZM27.0226 55.2462L25.5631 56.6137C25.7799 56.8451 25.9925 57.0776 26.2005 57.3112L27.6944 55.9815L29.1883 54.6517C28.9563 54.3911 28.7207 54.1335 28.4821 53.8788L27.0226 55.2462ZM27.6944 55.9815L26.2006 57.3114C28.1611 59.5134 31.8291 59.5827 33.852 57.3965L32.384 56.0382L30.916 54.6799C30.5164 55.1118 29.597 55.1107 29.1882 54.6516L27.6944 55.9815ZM32.384 56.0382L33.8521 57.3964C34.1015 57.1269 34.3567 56.8584 34.6172 56.5907L33.184 55.1957L31.7509 53.8008C31.4686 54.0907 31.19 54.3837 30.9159 54.68L32.384 56.0382ZM44 52V50H41.1547V52V54H44V52ZM52 44H50C50 47.3137 47.3137 50 44 50V52V54C49.5228 54 54 49.5228 54 44H52ZM52 29.7577H50V44H52H54V29.7577H52ZM52 16H50V29.7577H52H54V16H52ZM44 8V10C47.3137 10 50 12.6863 50 16H52H54C54 10.4772 49.5228 6 44 6V8ZM16 8V10H44V8V6H16V8ZM33.184 55.1957L34.6172 56.5907C36.2654 54.8974 38.6375 54 41.1547 54V52V50C37.717 50 34.2562 51.2268 31.7509 53.8008L33.184 55.1957ZM19.0486 52V54C21.5852 54 23.9591 54.9017 25.5631 56.6137L27.0226 55.2462L28.4821 53.8788C25.9964 51.2258 22.4933 50 19.0486 50V52Z" fill="white" mask="url(#path-1-inside-1_8318_7694)"/>
<path fill-rule="evenodd" clip-rule="evenodd" d="M17.4004 24.75C17.4004 23.5902 18.3406 22.65 19.5004 22.65H37.0004C40.4798 22.65 43.3004 25.4706 43.3004 28.95V34.55C43.3004 35.7098 42.3602 36.65 41.2004 36.65C41.2004 34.3304 39.32 32.45 37.0004 32.45C34.6808 32.45 32.8004 34.3304 32.8004 36.65H27.9004C27.9004 34.3304 26.02 32.45 23.7004 32.45C21.3808 32.45 19.5004 34.3304 19.5004 36.65C18.3406 36.65 17.4004 35.7098 17.4004 34.55V24.75ZM19.5004 25.45C19.5004 25.0635 19.8138 24.75 20.2004 24.75H22.2974C22.684 24.75 22.9974 25.0635 22.9974 25.45V28.95C22.9974 29.3366 22.684 29.65 22.2974 29.65H20.2004C19.8504 29.65 19.5004 29.3 19.5004 28.95V25.45ZM25.108 24.75C24.7214 24.75 24.408 25.0635 24.408 25.45L24.4004 28.95C24.4004 29.3 24.7504 29.65 25.1004 29.65H27.908C28.2946 29.65 28.608 29.3366 28.608 28.95V25.45C28.608 25.0635 28.2946 24.75 27.908 24.75H25.108ZM30.0185 25.45C30.0185 25.0635 30.3319 24.75 30.7185 24.75H33.5185C33.9051 24.75 34.2185 25.0635 34.2185 25.45V28.95C34.2185 29.3366 33.9051 29.65 33.5185 29.65H31.4185C30.6453 29.65 30.0004 29.7233 30.0004 28.95L30.0185 25.45ZM36.329 24.75C35.9424 24.75 35.629 25.0635 35.629 25.45V28.95C35.629 29.3366 35.9424 29.65 36.329 29.65H40.529C40.9156 29.65 41.229 29.3366 41.229 28.95C41.229 26.6304 39.3486 24.75 37.029 24.75H36.329Z" fill="white"/>
<path d="M26.5004 36.65C26.5004 38.1964 25.2468 39.45 23.7004 39.45C22.154 39.45 20.9004 38.1964 20.9004 36.65C20.9004 35.1036 22.154 33.85 23.7004 33.85C25.2468 33.85 26.5004 35.1036 26.5004 36.65Z" fill="white"/>
<path d="M39.8004 36.65C39.8004 38.1964 38.5468 39.45 37.0004 39.45C35.454 39.45 34.2004 38.1964 34.2004 36.65C34.2004 35.1036 35.454 33.85 37.0004 33.85C38.5468 33.85 39.8004 35.1036 39.8004 36.65Z" fill="white"/>
</g>
<defs>
<filter id="filter0_d_8318_7694" x="0" y="0" width="60" height="65" filterUnits="userSpaceOnUse" color-interpolation-filters="sRGB">
<feFlood flood-opacity="0" result="BackgroundImageFix"/>
<feColorMatrix in="SourceAlpha" type="matrix" values="0 0 0 0 0 0 0 0 0 0 0 0 0 0 0 0 0 0 127 0" result="hardAlpha"/>
<feOffset/>
<feGaussianBlur stdDeviation="4"/>
<feColorMatrix type="matrix" values="0 0 0 0 0 0 0 0 0 0 0 0 0 0 0 0 0 0 0.23 0"/>
<feBlend mode="normal" in2="BackgroundImageFix" result="effect1_dropShadow_8318_7694"/>
<feBlend mode="normal" in="SourceGraphic" in2="effect1_dropShadow_8318_7694" result="shape"/>
</filter>
</defs>
</svg>
