<svg width="60" height="65" viewBox="0 0 60 65" fill="none" xmlns="http://www.w3.org/2000/svg">
<g filter="url(#filter0_d_803_6620)">
<mask id="path-1-inside-1_803_6620" fill="white">
<path fill-rule="evenodd" clip-rule="evenodd" d="M16 6C11.5817 6 8 9.58172 8 14V27.7577V42C8 46.4183 11.5817 50 16 50H19.0486C22.0393 50 24.9778 51.0638 27.0226 53.2462C27.2503 53.4893 27.4744 53.7343 27.6944 53.9815C28.879 55.312 31.1727 55.3473 32.384 54.0382C32.6457 53.7553 32.9126 53.4746 33.184 53.1957C35.2608 51.0621 38.1772 50 41.1547 50H44C48.4183 50 52 46.4183 52 42V27.7577V14C52 9.58172 48.4183 6 44 6H16Z"/>
</mask>
<path fill-rule="evenodd" clip-rule="evenodd" d="M16 6C11.5817 6 8 9.58172 8 14V27.7577V42C8 46.4183 11.5817 50 16 50H19.0486C22.0393 50 24.9778 51.0638 27.0226 53.2462C27.2503 53.4893 27.4744 53.7343 27.6944 53.9815C28.879 55.312 31.1727 55.3473 32.384 54.0382C32.6457 53.7553 32.9126 53.4746 33.184 53.1957C35.2608 51.0621 38.1772 50 41.1547 50H44C48.4183 50 52 46.4183 52 42V27.7577V14C52 9.58172 48.4183 6 44 6H16Z" fill="#707070"/>
<path d="M27.6944 53.9815L26.2005 55.3112L26.2006 55.3114L27.6944 53.9815ZM32.384 54.0382L33.852 55.3965L33.8521 55.3964L32.384 54.0382ZM27.0226 53.2462L25.5631 54.6137L27.0226 53.2462ZM10 14C10 10.6863 12.6863 8 16 8V4C10.4772 4 6 8.47715 6 14H10ZM10 27.7577V14H6V27.7577H10ZM10 42V27.7577H6V42H10ZM16 48C12.6863 48 10 45.3137 10 42H6C6 47.5228 10.4772 52 16 52V48ZM19.0486 48H16V52H19.0486V48ZM25.5631 54.6137C25.7799 54.8451 25.9925 55.0776 26.2005 55.3112L29.1883 52.6517C28.9563 52.3911 28.7207 52.1335 28.4821 51.8788L25.5631 54.6137ZM26.2006 55.3114C28.1611 57.5134 31.8291 57.5827 33.852 55.3965L30.916 52.6799C30.5164 53.1118 29.597 53.1107 29.1882 52.6516L26.2006 55.3114ZM33.8521 55.3964C34.1015 55.1269 34.3567 54.8584 34.6172 54.5907L31.7509 51.8008C31.4686 52.0907 31.19 52.3837 30.9159 52.68L33.8521 55.3964ZM44 48H41.1547V52H44V48ZM50 42C50 45.3137 47.3137 48 44 48V52C49.5228 52 54 47.5228 54 42H50ZM50 27.7577V42H54V27.7577H50ZM50 14V27.7577H54V14H50ZM44 8C47.3137 8 50 10.6863 50 14H54C54 8.47715 49.5228 4 44 4V8ZM16 8H44V4H16V8ZM34.6172 54.5907C36.2654 52.8974 38.6375 52 41.1547 52V48C37.717 48 34.2562 49.2268 31.7509 51.8008L34.6172 54.5907ZM19.0486 52C21.5852 52 23.9591 52.9017 25.5631 54.6137L28.4821 51.8788C25.9964 49.2258 22.4933 48 19.0486 48V52Z" fill="white" mask="url(#path-1-inside-1_803_6620)"/>
<path fill-rule="evenodd" clip-rule="evenodd" d="M29.4783 16.4567C29.8068 16.2924 30.1934 16.2924 30.5218 16.4567L42.1885 22.29C42.5837 22.4876 42.8334 22.8916 42.8334 23.3335V38.5002C42.8334 39.1445 42.3111 39.6668 41.6667 39.6668C41.0224 39.6668 40.5001 39.1445 40.5001 38.5002V24.0545L30.0001 18.8045L19.5001 24.0545V38.5002C19.5001 39.1445 18.9777 39.6668 18.3334 39.6668C17.6891 39.6668 17.1667 39.1445 17.1667 38.5002V23.3335C17.1667 22.8916 17.4164 22.4876 17.8117 22.29L29.4783 16.4567Z" fill="white"/>
<path fill-rule="evenodd" clip-rule="evenodd" d="M25.3334 35.0002C25.9777 35.0002 26.5001 35.5225 26.5001 36.1668V38.5002C26.5001 39.1445 25.9777 39.6668 25.3334 39.6668C24.6891 39.6668 24.1667 39.1445 24.1667 38.5002V36.1668C24.1667 35.5225 24.6891 35.0002 25.3334 35.0002ZM34.6667 35.0002C35.3111 35.0002 35.8334 35.5225 35.8334 36.1668V38.5002C35.8334 39.1445 35.3111 39.6668 34.6667 39.6668C34.0224 39.6668 33.5001 39.1445 33.5001 38.5002V36.1668C33.5001 35.5225 34.0224 35.0002 34.6667 35.0002Z" fill="white"/>
<path fill-rule="evenodd" clip-rule="evenodd" d="M27.7388 26.8335C27.2035 26.8335 26.7368 27.1978 26.607 27.7172L25.8822 30.6164C25.7259 31.2415 25.0925 31.6216 24.4674 31.4653C23.8423 31.3091 23.4623 30.6757 23.6185 30.0506L24.3433 27.1513C24.7329 25.5932 26.1328 24.5002 27.7388 24.5002H32.2619C33.8679 24.5002 35.2678 25.5932 35.6574 27.1513L36.3822 30.0506C36.5384 30.6757 36.1584 31.3091 35.5333 31.4653C34.9082 31.6216 34.2747 31.2415 34.1185 30.6164L33.3937 27.7172C33.2638 27.1978 32.7973 26.8335 32.2619 26.8335H27.7388Z" fill="white"/>
<path fill-rule="evenodd" clip-rule="evenodd" d="M25.3334 29.1668C23.4004 29.1668 21.8334 30.7338 21.8334 32.6668V33.8335C21.8334 35.7665 23.4004 37.3335 25.3334 37.3335H34.6667C36.5998 37.3335 38.1667 35.7665 38.1667 33.8335V32.6668C38.1667 30.7338 36.5998 29.1668 34.6667 29.1668H25.3334ZM27.6667 33.2502C27.6667 32.6058 27.1444 32.0835 26.5001 32.0835C25.8558 32.0835 25.3334 32.6058 25.3334 33.2502V33.2618C25.3334 33.9062 25.8558 34.4285 26.5001 34.4285C27.1444 34.4285 27.6667 33.9062 27.6667 33.2618V33.2502ZM34.6667 33.2502C34.6667 32.6058 34.1444 32.0835 33.5001 32.0835C32.8557 32.0835 32.3334 32.6058 32.3334 33.2502V33.2618C32.3334 33.9062 32.8557 34.4285 33.5001 34.4285C34.1444 34.4285 34.6667 33.9062 34.6667 33.2618V33.2502Z" fill="white"/>
</g>
<defs>
<filter id="filter0_d_803_6620" x="0" y="0" width="60" height="65" filterUnits="userSpaceOnUse" color-interpolation-filters="sRGB">
<feFlood flood-opacity="0" result="BackgroundImageFix"/>
<feColorMatrix in="SourceAlpha" type="matrix" values="0 0 0 0 0 0 0 0 0 0 0 0 0 0 0 0 0 0 127 0" result="hardAlpha"/>
<feOffset dy="2"/>
<feGaussianBlur stdDeviation="4"/>
<feColorMatrix type="matrix" values="0 0 0 0 0 0 0 0 0 0 0 0 0 0 0 0 0 0 0.16 0"/>
<feBlend mode="normal" in2="BackgroundImageFix" result="effect1_dropShadow_803_6620"/>
<feBlend mode="normal" in="SourceGraphic" in2="effect1_dropShadow_803_6620" result="shape"/>
</filter>
</defs>
</svg>
