<svg width="102" height="65" viewBox="0 0 102 65" fill="none" xmlns="http://www.w3.org/2000/svg">
<g filter="url(#filter0_d_803_6647)">
<mask id="path-1-inside-1_803_6647" fill="white">
<path fill-rule="evenodd" clip-rule="evenodd" d="M16 6C11.5817 6 8 9.58172 8 14V42C8 46.4183 11.5817 50 16 50H40.0486C43.0393 50 45.9778 51.0638 48.0226 53.2462C48.2503 53.4893 48.4744 53.7343 48.6944 53.9815C49.879 55.312 52.1727 55.3473 53.384 54.0382C53.6458 53.7553 53.9126 53.4746 54.184 53.1957C56.2608 51.0621 59.1772 50 62.1547 50H86C90.4183 50 94 46.4183 94 42V14C94 9.58172 90.4183 6 86 6H16Z"/>
</mask>
<path fill-rule="evenodd" clip-rule="evenodd" d="M16 6C11.5817 6 8 9.58172 8 14V42C8 46.4183 11.5817 50 16 50H40.0486C43.0393 50 45.9778 51.0638 48.0226 53.2462C48.2503 53.4893 48.4744 53.7343 48.6944 53.9815C49.879 55.312 52.1727 55.3473 53.384 54.0382C53.6458 53.7553 53.9126 53.4746 54.184 53.1957C56.2608 51.0621 59.1772 50 62.1547 50H86C90.4183 50 94 46.4183 94 42V14C94 9.58172 90.4183 6 86 6H16Z" fill="white"/>
<path d="M48.6944 53.9815L47.2005 55.3112L47.2006 55.3114L48.6944 53.9815ZM53.384 54.0382L54.852 55.3965L54.8521 55.3964L53.384 54.0382ZM54.184 53.1957L52.7509 51.8008L54.184 53.1957ZM48.0226 53.2462L49.4821 51.8788L48.0226 53.2462ZM10 14C10 10.6863 12.6863 8 16 8V4C10.4772 4 6 8.47715 6 14H10ZM10 42V14H6V42H10ZM16 48C12.6863 48 10 45.3137 10 42H6C6 47.5228 10.4772 52 16 52V48ZM40.0486 48H16V52H40.0486V48ZM46.5631 54.6137C46.7799 54.8451 46.9925 55.0776 47.2005 55.3112L50.1883 52.6517C49.9563 52.3911 49.7207 52.1335 49.4821 51.8788L46.5631 54.6137ZM47.2006 55.3114C49.1611 57.5134 52.8291 57.5827 54.852 55.3965L51.916 52.6799C51.5164 53.1118 50.597 53.1107 50.1882 52.6515L47.2006 55.3114ZM54.8521 55.3964C55.1015 55.1269 55.3567 54.8584 55.6172 54.5907L52.7509 51.8008C52.4686 52.0907 52.19 52.3837 51.916 52.68L54.8521 55.3964ZM86 48H62.1547V52H86V48ZM92 42C92 45.3137 89.3137 48 86 48V52C91.5229 52 96 47.5228 96 42H92ZM92 14V42H96V14H92ZM86 8C89.3137 8 92 10.6863 92 14H96C96 8.47715 91.5229 4 86 4V8ZM16 8H86V4H16V8ZM55.6172 54.5907C57.2654 52.8974 59.6375 52 62.1547 52V48C58.717 48 55.2562 49.2268 52.7509 51.8008L55.6172 54.5907ZM40.0486 52C42.5852 52 44.9591 52.9017 46.5631 54.6137L49.4821 51.8788C46.9964 49.2258 43.4933 48 40.0486 48V52Z" fill="white" mask="url(#path-1-inside-1_803_6647)"/>
<rect x="10" y="8" width="40" height="40" rx="6" fill="#004D61"/>
<path d="M41.2001 31.5695C41.2001 31.8642 41.0375 32.028 40.7449 32.028H37.3638V31.7332C37.3638 31.0783 37.1362 30.4888 36.6485 30.0303C36.1934 29.5718 35.6082 29.3098 34.958 29.3098C34.3077 29.3098 33.69 29.5391 33.2349 30.0303C32.7797 30.4888 32.5196 31.0783 32.5196 31.7332C32.5196 32.3882 32.5196 31.8315 32.5196 31.8642V31.9952H27.4154V31.7005C27.4154 31.0455 27.1879 30.456 26.7327 29.9976C26.2776 29.5391 25.6924 29.2771 25.0096 29.2771C24.3269 29.2771 23.7417 29.5063 23.2866 29.9976C22.8314 30.456 22.6038 31.0455 22.6038 31.7005V31.9952H19.2552C19.1252 31.9952 19.0276 31.9952 18.9301 31.8642C18.8326 31.766 18.8 31.6677 18.8 31.5367V22.8584C18.8 22.7274 18.8326 22.6291 18.9301 22.5309C19.0276 22.4327 19.1252 22.3999 19.2552 22.3999H40.6799C40.8099 22.3999 40.9075 22.3999 41.005 22.5309C41.1025 22.6291 41.135 22.7274 41.135 22.8584H41.2001V31.5695ZM19.8729 28.0654H24.3269V24.3648H19.8729V28.0654ZM26.9278 31.7332C26.9278 32.2572 26.7327 32.6829 26.3751 33.0432C26.0175 33.4034 25.5623 33.5999 25.0747 33.5999C24.587 33.5999 24.1318 33.4034 23.7742 33.0432C23.4166 32.6829 23.2215 32.2245 23.2215 31.7332C23.2215 31.242 23.4166 30.7835 23.7742 30.4233C24.1318 30.0631 24.587 29.8993 25.0747 29.8993C25.5623 29.8993 26.0175 30.0631 26.3751 30.4233C26.7327 30.7835 26.9278 31.2093 26.9278 31.7332ZM25.1397 28.0654H29.5937V24.3648H25.1397V28.0654ZM30.4389 28.0654H34.9254V24.3648H30.4389V28.0654ZM36.8436 31.7332C36.8436 32.2572 36.6485 32.6829 36.2909 33.0432C35.9333 33.4034 35.4781 33.5999 34.9905 33.5999C34.5028 33.5999 34.0477 33.4034 33.69 33.0432C33.3324 32.6829 33.1374 32.2245 33.1374 31.7332C33.1374 31.242 33.3324 30.7835 33.69 30.4233C34.0477 30.0631 34.5028 29.8993 34.9905 29.8993C35.4781 29.8993 35.9333 30.0631 36.2909 30.4233C36.6485 30.7835 36.8436 31.2093 36.8436 31.7332ZM35.7382 28.0654H40.1922V24.3648H35.7382V28.0654Z" fill="white"/>
<rect x="52" y="8" width="40" height="40" rx="6" fill="#004D61"/>
<path fill-rule="evenodd" clip-rule="evenodd" d="M59.3999 24.3248C59.3999 23.165 60.3401 22.2248 61.4999 22.2248H78.9999C82.4793 22.2248 85.2999 25.0454 85.2999 28.5248V32.7248C85.2999 33.8846 84.3644 34.8248 83.2046 34.8248C76.3612 34.8248 63.3829 34.8248 61.4999 34.8248C60.3401 34.8248 59.3999 33.8846 59.3999 32.7248V24.3248ZM61.4999 25.0248C61.4999 24.6382 61.8133 24.3248 62.1999 24.3248H64.297C64.6836 24.3248 64.997 24.6382 64.997 25.0248V28.5248C64.997 28.9114 64.6836 29.2248 64.297 29.2248H62.1999C61.8499 29.2248 61.4999 28.8748 61.4999 28.5248V25.0248ZM67.1075 24.3248C66.7209 24.3248 66.4075 24.6382 66.4075 25.0248L66.3999 28.5248C66.3999 28.8748 66.7499 29.2248 67.0999 29.2248H69.9075C70.2941 29.2248 70.6075 28.9114 70.6075 28.5248V25.0248C70.6075 24.6382 70.2941 24.3248 69.9075 24.3248H67.1075ZM72.018 25.0248C72.018 24.6382 72.3314 24.3248 72.718 24.3248H75.518C75.9046 24.3248 76.218 24.6382 76.218 25.0248V28.5248C76.218 28.9114 75.9046 29.2248 75.518 29.2248H73.418C72.6448 29.2248 71.9999 29.298 71.9999 28.5248L72.018 25.0248ZM78.3285 24.3248C77.9419 24.3248 77.6285 24.6382 77.6285 25.0248V28.5248C77.6285 28.9114 77.9419 29.2248 78.3285 29.2248H82.5285C82.9151 29.2248 83.2285 28.9114 83.2285 28.5248C83.2285 26.2052 81.3481 24.3248 79.0285 24.3248H78.3285Z" fill="white"/>
<path fill-rule="evenodd" clip-rule="evenodd" d="M59.9249 36.9248C59.9249 36.4416 60.3167 36.0498 60.7999 36.0498L83.8999 36.0498C84.3832 36.0498 84.7749 36.4416 84.7749 36.9248C84.7749 37.4081 84.3832 37.7998 83.8999 37.7998L60.7999 37.7998C60.3167 37.7998 59.9249 37.4081 59.9249 36.9248Z" fill="white"/>
<path fill-rule="evenodd" clip-rule="evenodd" d="M68.3249 19.4248C68.3249 18.9416 68.7167 18.5498 69.1999 18.5498H74.7999C75.1454 18.5498 75.4586 18.7532 75.5992 19.0688C75.7398 19.3845 75.6814 19.7533 75.4503 20.0101L72.3003 23.5101C71.977 23.8693 71.4238 23.8985 71.0646 23.5752C70.7054 23.2519 70.6762 22.6987 70.9995 22.3395L72.8352 20.2998H69.1999C68.7167 20.2998 68.3249 19.9081 68.3249 19.4248Z" fill="white"/>
</g>
<defs>
<filter id="filter0_d_803_6647" x="0" y="0" width="102" height="65" filterUnits="userSpaceOnUse" color-interpolation-filters="sRGB">
<feFlood flood-opacity="0" result="BackgroundImageFix"/>
<feColorMatrix in="SourceAlpha" type="matrix" values="0 0 0 0 0 0 0 0 0 0 0 0 0 0 0 0 0 0 127 0" result="hardAlpha"/>
<feOffset dy="2"/>
<feGaussianBlur stdDeviation="4"/>
<feColorMatrix type="matrix" values="0 0 0 0 0 0 0 0 0 0 0 0 0 0 0 0 0 0 0.16 0"/>
<feBlend mode="normal" in2="BackgroundImageFix" result="effect1_dropShadow_803_6647"/>
<feBlend mode="normal" in="SourceGraphic" in2="effect1_dropShadow_803_6647" result="shape"/>
</filter>
</defs>
</svg>
