<svg width="44" height="44" viewBox="0 0 44 44" fill="none" xmlns="http://www.w3.org/2000/svg">
<g filter="url(#filter0_d_803_6569)">
<g clip-path="url(#clip0_803_6569)">
<rect x="8" y="6" width="28" height="28" rx="4" fill="#1A5843"/>
<path d="M30 22.5497C30 22.7602 29.8839 22.8772 29.6749 22.8772H27.2598V22.6667C27.2598 22.1988 27.0972 21.7778 26.7489 21.4503C26.4238 21.1228 26.0058 20.9357 25.5414 20.9357C25.0769 20.9357 24.6357 21.0994 24.3106 21.4503C23.9855 21.7778 23.7997 22.1988 23.7997 22.6667C23.7997 23.1345 23.7997 22.7368 23.7997 22.7602V22.8538H20.1538V22.6433C20.1538 22.1754 19.9913 21.7544 19.6662 21.4269C19.3411 21.0994 18.9231 20.9123 18.4354 20.9123C17.9478 20.9123 17.5298 21.076 17.2046 21.4269C16.8795 21.7544 16.717 22.1754 16.717 22.6433V22.8538H14.3251C14.2322 22.8538 14.1626 22.8538 14.0929 22.7602C14.0232 22.6901 14 22.6199 14 22.5263V16.3275C14 16.2339 14.0232 16.1637 14.0929 16.0936C14.1626 16.0234 14.2322 16 14.3251 16H29.6284C29.7213 16 29.791 16 29.8607 16.0936C29.9303 16.1637 29.9536 16.2339 29.9536 16.3275H30V22.5497ZM14.7663 20.0468H17.9478V17.4035H14.7663V20.0468ZM19.8055 22.6667C19.8055 23.0409 19.6662 23.345 19.4107 23.6023C19.1553 23.8596 18.8302 24 18.4819 24C18.1335 24 17.8084 23.8596 17.553 23.6023C17.2975 23.345 17.1582 23.0175 17.1582 22.6667C17.1582 22.3158 17.2975 21.9883 17.553 21.731C17.8084 21.4737 18.1335 21.3567 18.4819 21.3567C18.8302 21.3567 19.1553 21.4737 19.4107 21.731C19.6662 21.9883 19.8055 22.2924 19.8055 22.6667ZM18.5283 20.0468H21.7097V17.4035H18.5283V20.0468ZM22.3135 20.0468H25.5181V17.4035H22.3135V20.0468ZM26.8882 22.6667C26.8882 23.0409 26.7489 23.345 26.4935 23.6023C26.238 23.8596 25.9129 24 25.5646 24C25.2163 24 24.8911 23.8596 24.6357 23.6023C24.3803 23.345 24.2409 23.0175 24.2409 22.6667C24.2409 22.3158 24.3803 21.9883 24.6357 21.731C24.8911 21.4737 25.2163 21.3567 25.5646 21.3567C25.9129 21.3567 26.238 21.4737 26.4935 21.731C26.7489 21.9883 26.8882 22.2924 26.8882 22.6667ZM26.0987 20.0468H29.2801V17.4035H26.0987V20.0468Z" fill="white"/>
</g>
<rect x="9" y="7" width="26" height="26" rx="3" stroke="white" stroke-width="2"/>
</g>
<defs>
<filter id="filter0_d_803_6569" x="0" y="0" width="44" height="44" filterUnits="userSpaceOnUse" color-interpolation-filters="sRGB">
<feFlood flood-opacity="0" result="BackgroundImageFix"/>
<feColorMatrix in="SourceAlpha" type="matrix" values="0 0 0 0 0 0 0 0 0 0 0 0 0 0 0 0 0 0 127 0" result="hardAlpha"/>
<feOffset dy="2"/>
<feGaussianBlur stdDeviation="4"/>
<feColorMatrix type="matrix" values="0 0 0 0 0 0 0 0 0 0 0 0 0 0 0 0 0 0 0.16 0"/>
<feBlend mode="normal" in2="BackgroundImageFix" result="effect1_dropShadow_803_6569"/>
<feBlend mode="normal" in="SourceGraphic" in2="effect1_dropShadow_803_6569" result="shape"/>
</filter>
<clipPath id="clip0_803_6569">
<rect x="8" y="6" width="28" height="28" rx="4" fill="white"/>
</clipPath>
</defs>
</svg>
