<svg width="44" height="44" viewBox="0 0 44 44" fill="none" xmlns="http://www.w3.org/2000/svg">
<g filter="url(#filter0_d_8318_7692)">
<g clip-path="url(#clip0_8318_7692)">
<rect x="8" y="6" width="28" height="28" rx="4" fill="#707070"/>
<path fill-rule="evenodd" clip-rule="evenodd" d="M21.627 11.7546C21.8616 11.6373 22.1378 11.6373 22.3723 11.7546L30.7057 15.9213C30.988 16.0624 31.1663 16.351 31.1663 16.6666V27.5C31.1663 27.9602 30.7933 28.3333 30.333 28.3333C29.8728 28.3333 29.4997 27.9602 29.4997 27.5V17.1817L21.9997 13.4317L14.4997 17.1817V27.5C14.4997 27.9602 14.1266 28.3333 13.6663 28.3333C13.2061 28.3333 12.833 27.9602 12.833 27.5V16.6666C12.833 16.351 13.0113 16.0624 13.2937 15.9213L21.627 11.7546Z" fill="white"/>
<path fill-rule="evenodd" clip-rule="evenodd" d="M18.6663 25C19.1266 25 19.4997 25.373 19.4997 25.8333V27.5C19.4997 27.9602 19.1266 28.3333 18.6663 28.3333C18.2061 28.3333 17.833 27.9602 17.833 27.5V25.8333C17.833 25.373 18.2061 25 18.6663 25ZM25.333 25C25.7933 25 26.1663 25.373 26.1663 25.8333V27.5C26.1663 27.9602 25.7933 28.3333 25.333 28.3333C24.8728 28.3333 24.4997 27.9602 24.4997 27.5V25.8333C24.4997 25.373 24.8728 25 25.333 25Z" fill="white"/>
<path fill-rule="evenodd" clip-rule="evenodd" d="M20.3845 19.1666C20.0021 19.1666 19.6688 19.4269 19.576 19.7979L19.0583 21.8687C18.9467 22.3152 18.4943 22.5867 18.0478 22.475C17.6013 22.3635 17.3298 21.911 17.4414 21.4645L17.9591 19.3936C18.2374 18.2807 19.2373 17.5 20.3845 17.5H23.6153C24.7624 17.5 25.7623 18.2807 26.0406 19.3936L26.5583 21.4645C26.6699 21.911 26.3985 22.3635 25.952 22.475C25.5055 22.5867 25.053 22.3152 24.9414 21.8687L24.4237 19.7979C24.3309 19.4269 23.9977 19.1666 23.6153 19.1666H20.3845Z" fill="white"/>
<path fill-rule="evenodd" clip-rule="evenodd" d="M18.6663 20.8333C17.2856 20.8333 16.1663 21.9525 16.1663 23.3333V24.1666C16.1663 25.5474 17.2856 26.6666 18.6663 26.6666H25.333C26.7138 26.6666 27.833 25.5474 27.833 24.1666V23.3333C27.833 21.9525 26.7138 20.8333 25.333 20.8333H18.6663ZM20.333 23.75C20.333 23.2897 19.9599 22.9166 19.4997 22.9166C19.0394 22.9166 18.6663 23.2897 18.6663 23.75V23.7583C18.6663 24.2185 19.0394 24.5916 19.4997 24.5916C19.9599 24.5916 20.333 24.2185 20.333 23.7583V23.75ZM25.333 23.75C25.333 23.2897 24.9599 22.9166 24.4997 22.9166C24.0394 22.9166 23.6663 23.2897 23.6663 23.75V23.7583C23.6663 24.2185 24.0394 24.5916 24.4997 24.5916C24.9599 24.5916 25.333 24.2185 25.333 23.7583V23.75Z" fill="white"/>
</g>
<rect x="9" y="7" width="26" height="26" rx="3" stroke="white" stroke-width="2"/>
</g>
<defs>
<filter id="filter0_d_8318_7692" x="0" y="0" width="44" height="44" filterUnits="userSpaceOnUse" color-interpolation-filters="sRGB">
<feFlood flood-opacity="0" result="BackgroundImageFix"/>
<feColorMatrix in="SourceAlpha" type="matrix" values="0 0 0 0 0 0 0 0 0 0 0 0 0 0 0 0 0 0 127 0" result="hardAlpha"/>
<feOffset dy="2"/>
<feGaussianBlur stdDeviation="4"/>
<feColorMatrix type="matrix" values="0 0 0 0 0 0 0 0 0 0 0 0 0 0 0 0 0 0 0.16 0"/>
<feBlend mode="normal" in2="BackgroundImageFix" result="effect1_dropShadow_8318_7692"/>
<feBlend mode="normal" in="SourceGraphic" in2="effect1_dropShadow_8318_7692" result="shape"/>
</filter>
<clipPath id="clip0_8318_7692">
<rect x="8" y="6" width="28" height="28" rx="4" fill="white"/>
</clipPath>
</defs>
</svg>
