<svg width="60" height="65" viewBox="0 0 60 65" fill="none" xmlns="http://www.w3.org/2000/svg">
<g filter="url(#filter0_d_803_6590)">
<mask id="path-1-inside-1_803_6590" fill="white">
<path fill-rule="evenodd" clip-rule="evenodd" d="M16 6C11.5817 6 8 9.58172 8 14V27.7577V42C8 46.4183 11.5817 50 16 50H19.0486C22.0393 50 24.9778 51.0638 27.0226 53.2462C27.2503 53.4893 27.4744 53.7343 27.6944 53.9815C28.879 55.312 31.1727 55.3473 32.384 54.0382C32.6457 53.7553 32.9126 53.4746 33.184 53.1957C35.2608 51.0621 38.1772 50 41.1547 50H44C48.4183 50 52 46.4183 52 42V27.7577V14C52 9.58172 48.4183 6 44 6H16Z"/>
</mask>
<path fill-rule="evenodd" clip-rule="evenodd" d="M16 6C11.5817 6 8 9.58172 8 14V27.7577V42C8 46.4183 11.5817 50 16 50H19.0486C22.0393 50 24.9778 51.0638 27.0226 53.2462C27.2503 53.4893 27.4744 53.7343 27.6944 53.9815C28.879 55.312 31.1727 55.3473 32.384 54.0382C32.6457 53.7553 32.9126 53.4746 33.184 53.1957C35.2608 51.0621 38.1772 50 41.1547 50H44C48.4183 50 52 46.4183 52 42V27.7577V14C52 9.58172 48.4183 6 44 6H16Z" fill="#1A5843"/>
<path d="M27.6944 53.9815L26.2005 55.3112L26.2006 55.3114L27.6944 53.9815ZM32.384 54.0382L33.852 55.3965L33.8521 55.3964L32.384 54.0382ZM27.0226 53.2462L25.5631 54.6137L27.0226 53.2462ZM10 14C10 10.6863 12.6863 8 16 8V4C10.4772 4 6 8.47715 6 14H10ZM10 27.7577V14H6V27.7577H10ZM10 42V27.7577H6V42H10ZM16 48C12.6863 48 10 45.3137 10 42H6C6 47.5228 10.4772 52 16 52V48ZM19.0486 48H16V52H19.0486V48ZM25.5631 54.6137C25.7799 54.8451 25.9925 55.0776 26.2005 55.3112L29.1883 52.6517C28.9563 52.3911 28.7207 52.1335 28.4821 51.8788L25.5631 54.6137ZM26.2006 55.3114C28.1611 57.5134 31.8291 57.5827 33.852 55.3965L30.916 52.6799C30.5164 53.1118 29.597 53.1107 29.1882 52.6516L26.2006 55.3114ZM33.8521 55.3964C34.1015 55.1269 34.3567 54.8584 34.6172 54.5907L31.7509 51.8008C31.4686 52.0907 31.19 52.3837 30.9159 52.68L33.8521 55.3964ZM44 48H41.1547V52H44V48ZM50 42C50 45.3137 47.3137 48 44 48V52C49.5228 52 54 47.5228 54 42H50ZM50 27.7577V42H54V27.7577H50ZM50 14V27.7577H54V14H50ZM44 8C47.3137 8 50 10.6863 50 14H54C54 8.47715 49.5228 4 44 4V8ZM16 8H44V4H16V8ZM34.6172 54.5907C36.2654 52.8974 38.6375 52 41.1547 52V48C37.717 48 34.2562 49.2268 31.7509 51.8008L34.6172 54.5907ZM19.0486 52C21.5852 52 23.9591 52.9017 25.5631 54.6137L28.4821 51.8788C25.9964 49.2258 22.4933 48 19.0486 48V52Z" fill="white" mask="url(#path-1-inside-1_803_6590)"/>
<path fill-rule="evenodd" clip-rule="evenodd" d="M17.4 24.3248C17.4 23.165 18.3402 22.2248 19.5 22.2248H37C40.4794 22.2248 43.3 25.0454 43.3 28.5248V32.7248C43.3 33.8846 42.3645 34.8248 41.2047 34.8248C34.3613 34.8248 21.383 34.8248 19.5 34.8248C18.3402 34.8248 17.4 33.8846 17.4 32.7248V24.3248ZM19.5 25.0248C19.5 24.6382 19.8134 24.3248 20.2 24.3248H22.2971C22.6837 24.3248 22.9971 24.6382 22.9971 25.0248V28.5248C22.9971 28.9114 22.6837 29.2248 22.2971 29.2248H20.2C19.85 29.2248 19.5 28.8748 19.5 28.5248V25.0248ZM25.1076 24.3248C24.721 24.3248 24.4076 24.6382 24.4076 25.0248L24.4 28.5248C24.4 28.8748 24.75 29.2248 25.1 29.2248H27.9076C28.2942 29.2248 28.6076 28.9114 28.6076 28.5248V25.0248C28.6076 24.6382 28.2942 24.3248 27.9076 24.3248H25.1076ZM30.0181 25.0248C30.0181 24.6382 30.3315 24.3248 30.7181 24.3248H33.5181C33.9047 24.3248 34.2181 24.6382 34.2181 25.0248V28.5248C34.2181 28.9114 33.9047 29.2248 33.5181 29.2248H31.4181C30.6449 29.2248 30 29.298 30 28.5248L30.0181 25.0248ZM36.3286 24.3248C35.9421 24.3248 35.6286 24.6382 35.6286 25.0248V28.5248C35.6286 28.9114 35.9421 29.2248 36.3286 29.2248H40.5287C40.9152 29.2248 41.2286 28.9114 41.2286 28.5248C41.2286 26.2052 39.3482 24.3248 37.0287 24.3248H36.3286Z" fill="white"/>
<path fill-rule="evenodd" clip-rule="evenodd" d="M17.925 36.9248C17.925 36.4416 18.3168 36.0498 18.8 36.0498L41.9 36.0498C42.3833 36.0498 42.775 36.4416 42.775 36.9248C42.775 37.4081 42.3833 37.7998 41.9 37.7998L18.8 37.7998C18.3168 37.7998 17.925 37.4081 17.925 36.9248Z" fill="white"/>
<path fill-rule="evenodd" clip-rule="evenodd" d="M26.325 19.4248C26.325 18.9416 26.7168 18.5498 27.2 18.5498H32.8C33.1456 18.5498 33.4588 18.7532 33.5993 19.0688C33.7399 19.3845 33.6816 19.7533 33.4504 20.0101L30.3004 23.5101C29.9771 23.8693 29.4239 23.8985 29.0647 23.5752C28.7055 23.2519 28.6764 22.6987 28.9996 22.3395L30.8353 20.2998H27.2C26.7168 20.2998 26.325 19.9081 26.325 19.4248Z" fill="white"/>
</g>
<defs>
<filter id="filter0_d_803_6590" x="0" y="0" width="60" height="65" filterUnits="userSpaceOnUse" color-interpolation-filters="sRGB">
<feFlood flood-opacity="0" result="BackgroundImageFix"/>
<feColorMatrix in="SourceAlpha" type="matrix" values="0 0 0 0 0 0 0 0 0 0 0 0 0 0 0 0 0 0 127 0" result="hardAlpha"/>
<feOffset dy="2"/>
<feGaussianBlur stdDeviation="4"/>
<feColorMatrix type="matrix" values="0 0 0 0 0 0 0 0 0 0 0 0 0 0 0 0 0 0 0.16 0"/>
<feBlend mode="normal" in2="BackgroundImageFix" result="effect1_dropShadow_803_6590"/>
<feBlend mode="normal" in="SourceGraphic" in2="effect1_dropShadow_803_6590" result="shape"/>
</filter>
</defs>
</svg>
