<svg width="48" height="48" viewBox="0 0 48 48" fill="none" xmlns="http://www.w3.org/2000/svg">
<g filter="url(#filter0_d_803_6429)">
<g clip-path="url(#clip0_803_6429)">
<path d="M8 22C8 13.1634 15.1634 6 24 6C32.8366 6 40 13.1634 40 22C40 30.8366 32.8366 38 24 38C15.1634 38 8 30.8366 8 22Z" fill="white"/>
<path d="M24 7C15.7157 7 9 13.7157 9 22C9 30.2843 15.7157 37 24 37C32.2843 37 39 30.2843 39 22C39 13.7157 32.2843 7 24 7Z" fill="#902F2A"/>
<path d="M24 7C15.7157 7 9 13.7157 9 22C9 30.2843 15.7157 37 24 37C32.2843 37 39 30.2843 39 22C39 13.7157 32.2843 7 24 7Z" stroke="white" stroke-width="2"/>
<path fill-rule="evenodd" clip-rule="evenodd" d="M18.79 22.833C17.41 22.833 16.29 23.953 16.29 25.333C16.29 26.713 17.41 27.833 18.79 27.833C20.17 27.833 21.29 26.713 21.29 25.333C21.29 23.953 20.17 22.833 18.79 22.833ZM14.625 25.333C14.625 23.033 16.49 21.168 18.79 21.168C21.09 21.168 22.9551 23.033 22.9551 25.333C22.9551 27.633 21.09 29.498 18.79 29.498C16.49 29.498 14.625 27.633 14.625 25.333Z" fill="white"/>
<path fill-rule="evenodd" clip-rule="evenodd" d="M29.2051 22.833C27.8251 22.833 26.7051 23.953 26.7051 25.333C26.7051 26.713 27.8251 27.833 29.2051 27.833C30.5851 27.833 31.7051 26.713 31.7051 25.333C31.7051 23.953 30.5901 22.833 29.2051 22.833ZM25.04 25.333C25.04 23.033 26.9051 21.168 29.2051 21.168C31.5051 21.168 33.375 23.033 33.375 25.333C33.375 27.633 31.5051 29.498 29.2051 29.498C26.9051 29.498 25.04 27.633 25.04 25.333Z" fill="white"/>
<path fill-rule="evenodd" clip-rule="evenodd" d="M27.5649 17.9629C27.9549 18.2079 28.0751 18.7229 27.8301 19.1129L23.665 25.7779C23.51 26.0229 23.2451 26.1679 22.9551 26.1679H18.79C18.33 26.1679 17.9551 25.7929 17.9551 25.3329C17.9551 24.8729 18.33 24.4979 18.79 24.4979H22.4951L26.415 18.2279C26.66 17.8379 27.1749 17.7179 27.5649 17.9629Z" fill="white"/>
<path fill-rule="evenodd" clip-rule="evenodd" d="M17.125 17.833C17.125 17.373 17.4951 16.998 17.9551 16.998H22.125C22.585 16.998 22.9551 17.373 22.9551 17.833C22.9551 18.293 22.585 18.668 22.125 18.668H21.4199L24.8452 22.708C25.1402 23.058 25.0951 23.583 24.7451 23.883C24.3951 24.178 23.8698 24.138 23.5698 23.783L19.2349 18.663H17.9551C17.4951 18.663 17.125 18.288 17.125 17.828V17.833Z" fill="white"/>
<path fill-rule="evenodd" clip-rule="evenodd" d="M27.4199 16.2181C27.7899 16.2381 28.1449 16.2781 28.4849 16.3681C29.0899 16.5281 29.4749 16.8131 29.6499 17.4131C29.7749 17.8531 30.2402 18.1131 30.6802 17.9831C31.1252 17.8581 31.38 17.3931 31.25 16.9531C30.87 15.6231 29.89 15.0181 28.915 14.7581C28.19 14.5631 27.3699 14.5381 26.7549 14.5181C26.6049 14.5181 26.4701 14.5081 26.3501 14.5031C25.7451 14.4731 25.3401 15.0481 25.4951 15.5781L28.4053 25.5681C28.5353 26.0081 28.9999 26.2631 29.4399 26.1331C29.8799 26.0031 30.1349 25.5431 30.0049 25.0981L27.4199 16.2131V16.2181Z" fill="white"/>
</g>
<path d="M9 22C9 13.7157 15.7157 7 24 7C32.2843 7 39 13.7157 39 22C39 30.2843 32.2843 37 24 37C15.7157 37 9 30.2843 9 22Z" stroke="white" stroke-width="2"/>
</g>
<defs>
<filter id="filter0_d_803_6429" x="0" y="0" width="48" height="48" filterUnits="userSpaceOnUse" color-interpolation-filters="sRGB">
<feFlood flood-opacity="0" result="BackgroundImageFix"/>
<feColorMatrix in="SourceAlpha" type="matrix" values="0 0 0 0 0 0 0 0 0 0 0 0 0 0 0 0 0 0 127 0" result="hardAlpha"/>
<feOffset dy="2"/>
<feGaussianBlur stdDeviation="4"/>
<feColorMatrix type="matrix" values="0 0 0 0 0 0 0 0 0 0 0 0 0 0 0 0 0 0 0.16 0"/>
<feBlend mode="normal" in2="BackgroundImageFix" result="effect1_dropShadow_803_6429"/>
<feBlend mode="normal" in="SourceGraphic" in2="effect1_dropShadow_803_6429" result="shape"/>
</filter>
<clipPath id="clip0_803_6429">
<path d="M8 22C8 13.1634 15.1634 6 24 6C32.8366 6 40 13.1634 40 22C40 30.8366 32.8366 38 24 38C15.1634 38 8 30.8366 8 22Z" fill="white"/>
</clipPath>
</defs>
</svg>
