<svg width="64" height="64" viewBox="0 0 64 64" fill="none" xmlns="http://www.w3.org/2000/svg">
<g filter="url(#filter0_d_10364_5146)">
<path d="M10 30C10 17.8497 19.8497 8 32 8C44.1503 8 54 17.8497 54 30C54 42.1503 44.1503 52 32 52C19.8497 52 10 42.1503 10 30Z" fill="#FCDCDA"/>
<path d="M32 7C44.7025 7 55 17.2975 55 30C55 42.7025 44.7025 53 32 53C19.2975 53 9 42.7025 9 30C9 17.2975 19.2975 7 32 7Z" stroke="white" stroke-width="2"/>
<path fill-rule="evenodd" clip-rule="evenodd" d="M31.1719 23.566C31.6969 23.335 32.2992 23.335 32.8242 23.566L40.2162 26.835C41.7982 27.535 42.54 29.348 41.903 30.951L41.4761 32.036C41.4761 32.036 41.4342 32.036 41.4132 32.036H38.6969C38.2139 32.036 37.8219 32.428 37.8219 32.911C37.8219 33.394 38.2139 33.786 38.6969 33.786H40.7829L39.7049 36.502C39.4879 36.453 39.2569 36.425 39.0189 36.418C37.4999 36.355 36.331 37.055 35.456 37.965C34.896 37.51 33.7129 36.607 32.1799 36.495C30.6539 36.39 29.4359 37.041 28.5189 37.965L28.47 37.93C27.924 37.524 26.678 36.614 25.103 36.516C24.83 36.502 24.5641 36.509 24.3121 36.537L23.22 33.786H25.292C25.775 33.786 26.167 33.394 26.167 32.911C26.167 32.428 25.775 32.036 25.292 32.036H22.5272L22.1 30.951C21.463 29.348 22.2051 27.528 23.7871 26.835L31.1719 23.566Z" fill="#EF4E45"/>
<path fill-rule="evenodd" clip-rule="evenodd" d="M24.2279 22.6772C24.3889 20.8712 25.9009 19.4922 27.7139 19.4922H36.2821C38.0951 19.4922 39.6071 20.8712 39.7681 22.6772L40.1601 26.9752C40.2161 27.6192 39.7469 28.1862 39.1029 28.2422C38.4589 28.2982 37.8919 27.8292 37.8359 27.1852L37.4438 22.8872C37.3878 22.2852 36.8841 21.8232 36.2821 21.8232H27.7139C27.1119 21.8232 26.6081 22.2852 26.5521 22.8872L26.1601 27.1852C26.1041 27.8292 25.5371 28.2982 24.8931 28.2422C24.2491 28.1862 23.7799 27.6192 23.8359 26.9752L24.2279 22.6772Z" fill="#EF4E45"/>
<path fill-rule="evenodd" clip-rule="evenodd" d="M31.9976 17.1611C32.6416 17.1611 33.1665 17.6861 33.1665 18.3301V20.6611C33.1665 21.3051 32.6416 21.8301 31.9976 21.8301C31.3536 21.8301 30.8286 21.3051 30.8286 20.6611V18.3301C30.8286 17.6861 31.3536 17.1611 31.9976 17.1611Z" fill="#EF4E45"/>
<path fill-rule="evenodd" clip-rule="evenodd" d="M42.6934 40.4851C42.6934 40.4851 42.7567 40.436 42.8127 40.38C43.2537 39.911 43.9956 39.89 44.4646 40.331C44.9336 40.772 44.9545 41.507 44.5135 41.983C44.1145 42.41 43.6246 42.725 43.0366 42.8161C42.4556 42.9001 41.9445 42.739 41.5525 42.536C41.1675 42.34 40.8316 42.0671 40.5586 41.8291C40.4186 41.7101 40.2364 41.542 40.0684 41.3881C39.9494 41.2831 39.8447 41.1851 39.7677 41.1151C39.2217 40.625 38.9626 40.513 38.8366 40.506C38.8366 40.506 38.7668 40.5061 38.6408 40.59C38.4868 40.6951 38.2556 40.9191 37.9616 41.3671H37.9544C37.6114 41.885 37.1845 42.3191 36.6385 42.5431C36.0575 42.7881 35.4906 42.7391 35.0146 42.5781C34.5736 42.4311 34.1886 42.1721 33.8806 41.9481C33.6636 41.7871 33.4326 41.5911 33.2226 41.4231C33.1526 41.3601 33.0757 41.3041 33.0127 41.2481C32.4107 40.7581 32.0957 40.5901 31.8927 40.5761H31.8855C31.8855 40.5761 31.5424 40.541 30.9544 41.416C30.6394 41.906 30.2195 42.3191 29.6525 42.5221C29.0785 42.7321 28.5325 42.655 28.0915 42.508C27.6715 42.361 27.2935 42.1301 26.9855 41.913C26.7755 41.7731 26.5517 41.6051 26.3487 41.4511C26.2577 41.3811 26.1665 41.311 26.0825 41.255C25.4595 40.8 25.1025 40.6181 24.8575 40.6041C24.7875 40.6041 24.4794 40.5831 23.9684 41.3671H23.9616C23.4506 42.1371 22.6806 42.8161 21.6586 42.8161C20.6366 42.8161 19.8597 42.1371 19.3627 41.3671C19.0057 40.8281 19.1597 40.1071 19.6987 39.7501C20.2377 39.4001 20.9658 39.5471 21.3158 40.0931C21.4838 40.3521 21.6026 40.4431 21.6586 40.4711C21.7146 40.4431 21.8408 40.352 22.0158 40.0861C22.8068 38.882 23.8004 38.2031 25.0044 38.2731C26.0264 38.3361 26.9014 38.9521 27.4684 39.3721C27.5944 39.4631 27.7066 39.5471 27.8116 39.6241C27.9866 39.7571 28.1478 39.8761 28.3158 39.9881C28.5748 40.163 28.7426 40.2611 28.8616 40.2961C28.8686 40.2961 28.8755 40.2961 28.8825 40.2961C28.9105 40.2681 28.9526 40.2121 29.0086 40.1281C29.8276 38.8891 30.8287 38.1541 32.0537 38.2381C33.0967 38.3151 33.9575 39.0011 34.4825 39.4281C34.5875 39.5121 34.6787 39.589 34.7627 39.659C34.9517 39.813 35.1126 39.9461 35.2806 40.0721C35.5186 40.2541 35.6725 40.3311 35.7635 40.3661C35.8055 40.3311 35.8896 40.2541 36.0086 40.0791C36.7856 38.8961 37.7375 38.1121 38.9415 38.1681C39.9915 38.2171 40.8175 38.9171 41.3215 39.3651C41.4825 39.5121 41.6017 39.6171 41.7067 39.7221C41.8257 39.8341 41.9375 39.9321 42.0915 40.0651C42.3225 40.2751 42.4977 40.3941 42.6237 40.4641C42.6587 40.4781 42.6794 40.4921 42.6934 40.4991V40.4851Z" fill="#EF4E45"/>
</g>
<defs>
<filter id="filter0_d_10364_5146" x="0" y="0" width="64" height="64" filterUnits="userSpaceOnUse" color-interpolation-filters="sRGB">
<feFlood flood-opacity="0" result="BackgroundImageFix"/>
<feColorMatrix in="SourceAlpha" type="matrix" values="0 0 0 0 0 0 0 0 0 0 0 0 0 0 0 0 0 0 127 0" result="hardAlpha"/>
<feOffset dy="2"/>
<feGaussianBlur stdDeviation="4"/>
<feColorMatrix type="matrix" values="0 0 0 0 0 0 0 0 0 0 0 0 0 0 0 0 0 0 0.16 0"/>
<feBlend mode="normal" in2="BackgroundImageFix" result="effect1_dropShadow_10364_5146"/>
<feBlend mode="normal" in="SourceGraphic" in2="effect1_dropShadow_10364_5146" result="shape"/>
</filter>
</defs>
</svg>
