<svg width="64" height="64" viewBox="0 0 64 64" fill="none" xmlns="http://www.w3.org/2000/svg">
<g filter="url(#filter0_d_10364_5120)">
<path d="M10 30C10 17.8497 19.8497 8 32 8C44.1503 8 54 17.8497 54 30C54 42.1503 44.1503 52 32 52C19.8497 52 10 42.1503 10 30Z" fill="#707070"/>
<path d="M32 7C44.7025 7 55 17.2975 55 30C55 42.7025 44.7025 53 32 53C19.2975 53 9 42.7025 9 30C9 17.2975 19.2975 7 32 7Z" stroke="white" stroke-width="2"/>
<path fill-rule="evenodd" clip-rule="evenodd" d="M19.4004 24.75C19.4004 23.5902 20.3406 22.65 21.5004 22.65H39.0004C42.4798 22.65 45.3004 25.4706 45.3004 28.95V34.55C45.3004 35.7098 44.3602 36.65 43.2004 36.65C43.2004 34.3304 41.32 32.45 39.0004 32.45C36.6808 32.45 34.8004 34.3304 34.8004 36.65H29.9004C29.9004 34.3304 28.02 32.45 25.7004 32.45C23.3808 32.45 21.5004 34.3304 21.5004 36.65C20.3406 36.65 19.4004 35.7098 19.4004 34.55V24.75ZM21.5004 25.45C21.5004 25.0635 21.8138 24.75 22.2004 24.75H24.2974C24.684 24.75 24.9974 25.0635 24.9974 25.45V28.95C24.9974 29.3366 24.684 29.65 24.2974 29.65H22.2004C21.8504 29.65 21.5004 29.3 21.5004 28.95V25.45ZM27.108 24.75C26.7214 24.75 26.408 25.0635 26.408 25.45L26.4004 28.95C26.4004 29.3 26.7504 29.65 27.1004 29.65H29.908C30.2946 29.65 30.608 29.3366 30.608 28.95V25.45C30.608 25.0635 30.2946 24.75 29.908 24.75H27.108ZM32.0185 25.45C32.0185 25.0635 32.3319 24.75 32.7185 24.75H35.5185C35.9051 24.75 36.2185 25.0635 36.2185 25.45V28.95C36.2185 29.3366 35.9051 29.65 35.5185 29.65H33.4185C32.6453 29.65 32.0004 29.7233 32.0004 28.95L32.0185 25.45ZM38.329 24.75C37.9424 24.75 37.629 25.0635 37.629 25.45V28.95C37.629 29.3366 37.9424 29.65 38.329 29.65H42.529C42.9156 29.65 43.229 29.3366 43.229 28.95C43.229 26.6304 41.3486 24.75 39.029 24.75H38.329Z" fill="white"/>
<path d="M28.5004 36.65C28.5004 38.1964 27.2468 39.45 25.7004 39.45C24.154 39.45 22.9004 38.1964 22.9004 36.65C22.9004 35.1036 24.154 33.85 25.7004 33.85C27.2468 33.85 28.5004 35.1036 28.5004 36.65Z" fill="white"/>
<path d="M41.8004 36.65C41.8004 38.1964 40.5468 39.45 39.0004 39.45C37.454 39.45 36.2004 38.1964 36.2004 36.65C36.2004 35.1036 37.454 33.85 39.0004 33.85C40.5468 33.85 41.8004 35.1036 41.8004 36.65Z" fill="white"/>
</g>
<defs>
<filter id="filter0_d_10364_5120" x="0" y="0" width="64" height="64" filterUnits="userSpaceOnUse" color-interpolation-filters="sRGB">
<feFlood flood-opacity="0" result="BackgroundImageFix"/>
<feColorMatrix in="SourceAlpha" type="matrix" values="0 0 0 0 0 0 0 0 0 0 0 0 0 0 0 0 0 0 127 0" result="hardAlpha"/>
<feOffset dy="2"/>
<feGaussianBlur stdDeviation="4"/>
<feColorMatrix type="matrix" values="0 0 0 0 0 0 0 0 0 0 0 0 0 0 0 0 0 0 0.16 0"/>
<feBlend mode="normal" in2="BackgroundImageFix" result="effect1_dropShadow_10364_5120"/>
<feBlend mode="normal" in="SourceGraphic" in2="effect1_dropShadow_10364_5120" result="shape"/>
</filter>
</defs>
</svg>
