<svg width="64" height="64" viewBox="0 0 64 64" fill="none" xmlns="http://www.w3.org/2000/svg">
<g filter="url(#filter0_d_10410_4955)">
<path d="M10 32C10 19.8497 19.8497 10 32 10C44.1503 10 54 19.8497 54 32C54 44.1503 44.1503 54 32 54C19.8497 54 10 44.1503 10 32Z" fill="#5CA1E3"/>
<path d="M32 9C44.7025 9 55 19.2975 55 32C55 44.7025 44.7025 55 32 55C19.2975 55 9 44.7025 9 32C9 19.2975 19.2975 9 32 9Z" stroke="white" stroke-width="2"/>
<path fill-rule="evenodd" clip-rule="evenodd" d="M31.1719 25.566C31.6969 25.335 32.2992 25.335 32.8242 25.566L40.2162 28.835C41.7982 29.535 42.54 31.348 41.903 32.951L41.4761 34.036C41.4761 34.036 41.4342 34.036 41.4132 34.036H38.6969C38.2139 34.036 37.8219 34.428 37.8219 34.911C37.8219 35.394 38.2139 35.786 38.6969 35.786H40.7829L39.7049 38.502C39.4879 38.453 39.2569 38.425 39.0189 38.418C37.4999 38.355 36.331 39.055 35.456 39.965C34.896 39.51 33.7129 38.607 32.1799 38.495C30.6539 38.39 29.4359 39.041 28.5189 39.965L28.47 39.93C27.924 39.524 26.678 38.614 25.103 38.516C24.83 38.502 24.5641 38.509 24.3121 38.537L23.22 35.786H25.292C25.775 35.786 26.167 35.394 26.167 34.911C26.167 34.428 25.775 34.036 25.292 34.036H22.5272L22.1 32.951C21.463 31.348 22.2051 29.528 23.7871 28.835L31.1719 25.566Z" fill="black"/>
<path fill-rule="evenodd" clip-rule="evenodd" d="M24.2279 24.6772C24.3889 22.8712 25.9009 21.4922 27.7139 21.4922H36.2821C38.0951 21.4922 39.6071 22.8712 39.7681 24.6772L40.1601 28.9752C40.2161 29.6192 39.7469 30.1862 39.1029 30.2422C38.4589 30.2982 37.8919 29.8292 37.8359 29.1852L37.4438 24.8872C37.3878 24.2852 36.8841 23.8232 36.2821 23.8232H27.7139C27.1119 23.8232 26.6081 24.2852 26.5521 24.8872L26.1601 29.1852C26.1041 29.8292 25.5371 30.2982 24.8931 30.2422C24.2491 30.1862 23.7799 29.6192 23.8359 28.9752L24.2279 24.6772Z" fill="black"/>
<path fill-rule="evenodd" clip-rule="evenodd" d="M31.9976 19.1611C32.6416 19.1611 33.1665 19.6861 33.1665 20.3301V22.6611C33.1665 23.3051 32.6416 23.8301 31.9976 23.8301C31.3536 23.8301 30.8286 23.3051 30.8286 22.6611V20.3301C30.8286 19.6861 31.3536 19.1611 31.9976 19.1611Z" fill="black"/>
<path fill-rule="evenodd" clip-rule="evenodd" d="M42.6934 42.4851C42.6934 42.4851 42.7567 42.436 42.8127 42.38C43.2537 41.911 43.9956 41.89 44.4646 42.331C44.9336 42.772 44.9545 43.507 44.5135 43.983C44.1145 44.41 43.6246 44.725 43.0366 44.8161C42.4556 44.9001 41.9445 44.739 41.5525 44.536C41.1675 44.34 40.8316 44.0671 40.5586 43.8291C40.4186 43.7101 40.2364 43.542 40.0684 43.3881C39.9494 43.2831 39.8447 43.1851 39.7677 43.1151C39.2217 42.625 38.9626 42.513 38.8366 42.506C38.8366 42.506 38.7668 42.5061 38.6408 42.59C38.4868 42.6951 38.2556 42.9191 37.9616 43.3671H37.9544C37.6114 43.885 37.1845 44.3191 36.6385 44.5431C36.0575 44.7881 35.4906 44.7391 35.0146 44.5781C34.5736 44.4311 34.1886 44.1721 33.8806 43.9481C33.6636 43.7871 33.4326 43.5911 33.2226 43.4231C33.1526 43.3601 33.0757 43.3041 33.0127 43.2481C32.4107 42.7581 32.0957 42.5901 31.8927 42.5761H31.8855C31.8855 42.5761 31.5424 42.541 30.9544 43.416C30.6394 43.906 30.2195 44.3191 29.6525 44.5221C29.0785 44.7321 28.5325 44.655 28.0915 44.508C27.6715 44.361 27.2935 44.1301 26.9855 43.913C26.7755 43.7731 26.5517 43.6051 26.3487 43.4511C26.2577 43.3811 26.1665 43.311 26.0825 43.255C25.4595 42.8 25.1025 42.6181 24.8575 42.6041C24.7875 42.6041 24.4794 42.5831 23.9684 43.3671H23.9616C23.4506 44.1371 22.6806 44.8161 21.6586 44.8161C20.6366 44.8161 19.8597 44.1371 19.3627 43.3671C19.0057 42.8281 19.1597 42.1071 19.6987 41.7501C20.2377 41.4001 20.9658 41.5471 21.3158 42.0931C21.4838 42.3521 21.6026 42.4431 21.6586 42.4711C21.7146 42.4431 21.8408 42.352 22.0158 42.0861C22.8068 40.882 23.8004 40.2031 25.0044 40.2731C26.0264 40.3361 26.9014 40.9521 27.4684 41.3721C27.5944 41.4631 27.7066 41.5471 27.8116 41.6241C27.9866 41.7571 28.1478 41.8761 28.3158 41.9881C28.5748 42.163 28.7426 42.2611 28.8616 42.2961C28.8686 42.2961 28.8755 42.2961 28.8825 42.2961C28.9105 42.2681 28.9526 42.2121 29.0086 42.1281C29.8276 40.8891 30.8287 40.1541 32.0537 40.2381C33.0967 40.3151 33.9575 41.0011 34.4825 41.4281C34.5875 41.5121 34.6787 41.589 34.7627 41.659C34.9517 41.813 35.1126 41.9461 35.2806 42.0721C35.5186 42.2541 35.6725 42.3311 35.7635 42.3661C35.8055 42.3311 35.8896 42.2541 36.0086 42.0791C36.7856 40.8961 37.7375 40.1121 38.9415 40.1681C39.9915 40.2171 40.8175 40.9171 41.3215 41.3651C41.4825 41.5121 41.6017 41.6171 41.7067 41.7221C41.8257 41.8341 41.9375 41.9321 42.0915 42.0651C42.3225 42.2751 42.4977 42.3941 42.6237 42.4641C42.6587 42.4781 42.6794 42.4921 42.6934 42.4991V42.4851Z" fill="black"/>
</g>
<defs>
<filter id="filter0_d_10410_4955" x="0" y="0" width="64" height="64" filterUnits="userSpaceOnUse" color-interpolation-filters="sRGB">
<feFlood flood-opacity="0" result="BackgroundImageFix"/>
<feColorMatrix in="SourceAlpha" type="matrix" values="0 0 0 0 0 0 0 0 0 0 0 0 0 0 0 0 0 0 127 0" result="hardAlpha"/>
<feOffset/>
<feGaussianBlur stdDeviation="4"/>
<feColorMatrix type="matrix" values="0 0 0 0 0 0 0 0 0 0 0 0 0 0 0 0 0 0 0.23 0"/>
<feBlend mode="normal" in2="BackgroundImageFix" result="effect1_dropShadow_10410_4955"/>
<feBlend mode="normal" in="SourceGraphic" in2="effect1_dropShadow_10410_4955" result="shape"/>
</filter>
</defs>
</svg>
