<svg width="56" height="56" viewBox="0 0 56 56" fill="none" xmlns="http://www.w3.org/2000/svg">
<g filter="url(#filter0_d_896_8278)">
<g clip-path="url(#clip0_896_8278)">
<rect x="10" y="8" width="36" height="36" rx="18" fill="#FCDCDA"/>
<path d="M38.6931 36.489C38.6931 36.489 38.7564 36.44 38.8124 36.384C39.2534 35.915 39.9953 35.894 40.4643 36.335C40.9333 36.776 40.9542 37.511 40.5131 37.987C40.1142 38.414 39.6242 38.729 39.0362 38.82C38.4552 38.904 37.9442 38.743 37.5522 38.54C37.1672 38.344 36.8312 38.071 36.5582 37.833C36.4182 37.714 36.2361 37.546 36.0681 37.392C35.9491 37.287 35.8443 37.189 35.7673 37.119C35.2213 36.629 34.9622 36.517 34.8362 36.51C34.8362 36.51 34.7664 36.51 34.6404 36.594C34.4864 36.699 34.2552 36.923 33.9612 37.371H33.9541C33.6111 37.889 33.1842 38.323 32.6382 38.547C32.0572 38.792 31.4903 38.743 31.0143 38.582C30.5733 38.435 30.1882 38.176 29.8802 37.952C29.6632 37.791 29.4322 37.595 29.2222 37.427C29.1522 37.364 29.0754 37.308 29.0124 37.252C28.4104 36.762 28.0953 36.594 27.8923 36.58H27.8851C27.8851 36.58 27.5421 36.545 26.9541 37.42C26.6391 37.91 26.2192 38.323 25.6522 38.526C25.0782 38.736 24.5322 38.659 24.0912 38.512C23.6712 38.365 23.2931 38.134 22.9851 37.917C22.7751 37.777 22.5514 37.609 22.3484 37.455C22.2574 37.385 22.1661 37.315 22.0821 37.252C21.4591 36.797 21.1021 36.615 20.8571 36.601C20.7871 36.601 20.4791 36.58 19.9681 37.364H19.9612C19.4502 38.134 18.6802 38.813 17.6582 38.813C16.6362 38.813 15.8594 38.134 15.3624 37.364C15.0054 36.825 15.1594 36.104 15.6984 35.747C16.2374 35.397 16.9654 35.544 17.3154 36.09C17.4834 36.349 17.6022 36.44 17.6582 36.468C17.7142 36.44 17.8404 36.349 18.0154 36.083C18.8064 34.879 19.8001 34.2 21.0041 34.27C22.0261 34.333 22.9011 34.949 23.4681 35.369C23.5941 35.46 23.7062 35.544 23.8112 35.621C23.9862 35.754 24.1474 35.873 24.3154 35.985C24.5744 36.16 24.7422 36.258 24.8612 36.293H24.8821C24.8821 36.293 24.9522 36.216 25.0082 36.132C25.8272 34.893 26.8283 34.158 28.0533 34.242C29.0963 34.319 29.9571 35.005 30.4821 35.432C30.5871 35.516 30.6784 35.593 30.7624 35.663C30.9514 35.817 31.1122 35.95 31.2802 36.076C31.5182 36.258 31.6722 36.335 31.7632 36.37C31.8051 36.335 31.8892 36.258 32.0082 36.083C32.7852 34.9 33.7372 34.116 34.9412 34.172C35.9912 34.221 36.8171 34.921 37.3211 35.369C37.4821 35.516 37.6013 35.621 37.7063 35.726C37.8253 35.838 37.9372 35.936 38.0912 36.069C38.3222 36.279 38.4974 36.398 38.6234 36.468C38.6584 36.482 38.6791 36.496 38.6931 36.503V36.489Z" fill="#EF4E45"/>
<path fill-rule="evenodd" clip-rule="evenodd" d="M19.8282 20.165C19.8282 18.877 20.8781 17.834 22.1661 17.834H28.1862C29.5092 17.834 30.7692 18.394 31.6582 19.381L35.8654 24.057C36.2924 24.533 36.2571 25.275 35.7741 25.702C35.2981 26.136 34.563 26.094 34.129 25.618L29.9222 20.942C29.4812 20.452 28.8512 20.172 28.1862 20.172H22.1661V24.841C22.1661 25.485 21.6412 26.01 20.9972 26.01C20.3532 26.01 19.8282 25.485 19.8282 24.841V20.165Z" fill="#EF4E45"/>
<path fill-rule="evenodd" clip-rule="evenodd" d="M20.9972 14.3272C20.9972 13.6832 21.5221 13.1582 22.1661 13.1582H24.4972C25.7852 13.1582 26.8282 14.2012 26.8282 15.4892V18.9892C26.8282 19.6332 26.3101 20.1582 25.6661 20.1582C25.0221 20.1582 24.4972 19.6332 24.4972 18.9892V15.4892H22.1661C21.5221 15.4892 20.9972 14.9642 20.9972 14.3202V14.3272Z" fill="#EF4E45"/>
<path d="M16.3284 23.9523C16.0624 23.9523 15.8104 24.0713 15.6424 24.2813C15.4814 24.4913 15.4184 24.7643 15.4814 25.0233L17.5602 33.8783C18.4772 33.0033 19.6533 32.4293 21.1023 32.5133C22.6773 32.6113 23.9652 33.5563 24.5182 33.9553C25.4352 33.0313 26.6462 32.3803 28.1792 32.4853C29.7122 32.5903 30.8953 33.5003 31.4553 33.9553C32.3303 33.0453 33.4992 32.3383 35.0182 32.4083C36.5512 32.4783 37.7063 33.3673 38.2803 33.8643C38.3293 33.8083 38.3713 33.7453 38.4133 33.6893C39.1623 32.6253 39.6312 31.2603 39.9322 29.9793C40.2402 28.6843 40.3874 27.3963 40.4644 26.4373C40.4994 25.9543 40.5203 25.5553 40.5273 25.2753C40.5343 25.1353 40.5343 24.9113 40.5413 24.8273C40.5413 24.3373 40.1493 23.9453 39.6663 23.9453H16.3284V23.9523Z" fill="#EF4E45"/>
</g>
<rect x="9" y="7" width="38" height="38" rx="19" stroke="white" stroke-width="2"/>
</g>
<defs>
<filter id="filter0_d_896_8278" x="0" y="0" width="56" height="56" filterUnits="userSpaceOnUse" color-interpolation-filters="sRGB">
<feFlood flood-opacity="0" result="BackgroundImageFix"/>
<feColorMatrix in="SourceAlpha" type="matrix" values="0 0 0 0 0 0 0 0 0 0 0 0 0 0 0 0 0 0 127 0" result="hardAlpha"/>
<feOffset dy="2"/>
<feGaussianBlur stdDeviation="4"/>
<feColorMatrix type="matrix" values="0 0 0 0 0 0 0 0 0 0 0 0 0 0 0 0 0 0 0.16 0"/>
<feBlend mode="normal" in2="BackgroundImageFix" result="effect1_dropShadow_896_8278"/>
<feBlend mode="normal" in="SourceGraphic" in2="effect1_dropShadow_896_8278" result="shape"/>
</filter>
<clipPath id="clip0_896_8278">
<rect x="10" y="8" width="36" height="36" rx="18" fill="white"/>
</clipPath>
</defs>
</svg>
