<svg width="64" height="64" viewBox="0 0 64 64" fill="none" xmlns="http://www.w3.org/2000/svg">
<g filter="url(#filter0_d_10364_5122)">
<path d="M10 32C10 19.8497 19.8497 10 32 10C44.1503 10 54 19.8497 54 32C54 44.1503 44.1503 54 32 54C19.8497 54 10 44.1503 10 32Z" fill="#004D61"/>
<path d="M32 9C44.7025 9 55 19.2975 55 32C55 44.7025 44.7025 55 32 55C19.2975 55 9 44.7025 9 32C9 19.2975 19.2975 9 32 9Z" stroke="white" stroke-width="2"/>
<path fill-rule="evenodd" clip-rule="evenodd" d="M19.4004 26.75C19.4004 25.5902 20.3406 24.65 21.5004 24.65H39.0004C42.4798 24.65 45.3004 27.4706 45.3004 30.95V36.55C45.3004 37.7098 44.3602 38.65 43.2004 38.65C43.2004 36.3304 41.32 34.45 39.0004 34.45C36.6808 34.45 34.8004 36.3304 34.8004 38.65H29.9004C29.9004 36.3304 28.02 34.45 25.7004 34.45C23.3808 34.45 21.5004 36.3304 21.5004 38.65C20.3406 38.65 19.4004 37.7098 19.4004 36.55V26.75ZM21.5004 27.45C21.5004 27.0635 21.8138 26.75 22.2004 26.75H24.2974C24.684 26.75 24.9974 27.0635 24.9974 27.45V30.95C24.9974 31.3366 24.684 31.65 24.2974 31.65H22.2004C21.8504 31.65 21.5004 31.3 21.5004 30.95V27.45ZM27.108 26.75C26.7214 26.75 26.408 27.0635 26.408 27.45L26.4004 30.95C26.4004 31.3 26.7504 31.65 27.1004 31.65H29.908C30.2946 31.65 30.608 31.3366 30.608 30.95V27.45C30.608 27.0635 30.2946 26.75 29.908 26.75H27.108ZM32.0185 27.45C32.0185 27.0635 32.3319 26.75 32.7185 26.75H35.5185C35.9051 26.75 36.2185 27.0635 36.2185 27.45V30.95C36.2185 31.3366 35.9051 31.65 35.5185 31.65H33.4185C32.6453 31.65 32.0004 31.7233 32.0004 30.95L32.0185 27.45ZM38.329 26.75C37.9424 26.75 37.629 27.0635 37.629 27.45V30.95C37.629 31.3366 37.9424 31.65 38.329 31.65H42.529C42.9156 31.65 43.229 31.3366 43.229 30.95C43.229 28.6304 41.3486 26.75 39.029 26.75H38.329Z" fill="white"/>
<path d="M28.5004 38.65C28.5004 40.1964 27.2468 41.45 25.7004 41.45C24.154 41.45 22.9004 40.1964 22.9004 38.65C22.9004 37.1036 24.154 35.85 25.7004 35.85C27.2468 35.85 28.5004 37.1036 28.5004 38.65Z" fill="white"/>
<path d="M41.8004 38.65C41.8004 40.1964 40.5468 41.45 39.0004 41.45C37.454 41.45 36.2004 40.1964 36.2004 38.65C36.2004 37.1036 37.454 35.85 39.0004 35.85C40.5468 35.85 41.8004 37.1036 41.8004 38.65Z" fill="white"/>
</g>
<defs>
<filter id="filter0_d_10364_5122" x="0" y="0" width="64" height="64" filterUnits="userSpaceOnUse" color-interpolation-filters="sRGB">
<feFlood flood-opacity="0" result="BackgroundImageFix"/>
<feColorMatrix in="SourceAlpha" type="matrix" values="0 0 0 0 0 0 0 0 0 0 0 0 0 0 0 0 0 0 127 0" result="hardAlpha"/>
<feOffset/>
<feGaussianBlur stdDeviation="4"/>
<feColorMatrix type="matrix" values="0 0 0 0 0 0 0 0 0 0 0 0 0 0 0 0 0 0 0.23 0"/>
<feBlend mode="normal" in2="BackgroundImageFix" result="effect1_dropShadow_10364_5122"/>
<feBlend mode="normal" in="SourceGraphic" in2="effect1_dropShadow_10364_5122" result="shape"/>
</filter>
</defs>
</svg>
