<svg width="56" height="56" viewBox="0 0 56 56" fill="none" xmlns="http://www.w3.org/2000/svg">
<g filter="url(#filter0_d_896_8285)">
<g clip-path="url(#clip0_896_8285)">
<rect x="10" y="8" width="36" height="36" rx="18" fill="#FCDCDA"/>
<path fill-rule="evenodd" clip-rule="evenodd" d="M27.1716 19.567C27.6966 19.336 28.2988 19.336 28.8238 19.567L36.2159 22.836C37.7979 23.536 38.5396 25.349 37.9026 26.952L37.4757 28.037C37.4757 28.037 37.4338 28.037 37.4128 28.037H34.6966C34.2136 28.037 33.8216 28.429 33.8216 28.912C33.8216 29.395 34.2136 29.787 34.6966 29.787H36.7826L35.7045 32.503C35.4875 32.454 35.2566 32.426 35.0186 32.419C33.4996 32.356 32.3307 33.056 31.4557 33.966C30.8957 33.511 29.7125 32.608 28.1795 32.496C26.6535 32.391 25.4356 33.042 24.5186 33.966L24.4697 33.931C23.9237 33.525 22.6776 32.615 21.1026 32.517C20.8296 32.503 20.5637 32.51 20.3117 32.538L19.2197 29.787H21.2916C21.7746 29.787 22.1666 29.395 22.1666 28.912C22.1666 28.429 21.7746 28.037 21.2916 28.037H18.5269L18.0996 26.952C17.4626 25.349 18.2047 23.529 19.7867 22.836L27.1716 19.567Z" fill="#EF4E45"/>
<path fill-rule="evenodd" clip-rule="evenodd" d="M20.2276 18.6782C20.3886 16.8722 21.9005 15.4932 23.7135 15.4932H32.2817C34.0947 15.4932 35.6067 16.8722 35.7677 18.6782L36.1597 22.9762C36.2157 23.6202 35.7466 24.1872 35.1026 24.2432C34.4586 24.2992 33.8915 23.8302 33.8355 23.1862L33.4435 18.8882C33.3875 18.2862 32.8837 17.8242 32.2817 17.8242H23.7135C23.1115 17.8242 22.6078 18.2862 22.5518 18.8882L22.1597 23.1862C22.1037 23.8302 21.5367 24.2992 20.8927 24.2432C20.2487 24.1872 19.7795 23.6202 19.8355 22.9762L20.2276 18.6782Z" fill="#EF4E45"/>
<path fill-rule="evenodd" clip-rule="evenodd" d="M27.9972 13.1621C28.6412 13.1621 29.1661 13.6871 29.1661 14.3311V16.6621C29.1661 17.3061 28.6412 17.8311 27.9972 17.8311C27.3532 17.8311 26.8282 17.3061 26.8282 16.6621V14.3311C26.8282 13.6871 27.3532 13.1621 27.9972 13.1621Z" fill="#EF4E45"/>
<path fill-rule="evenodd" clip-rule="evenodd" d="M38.6931 36.486C38.6931 36.486 38.7564 36.437 38.8124 36.381C39.2534 35.912 39.9953 35.891 40.4643 36.332C40.9333 36.773 40.9542 37.508 40.5131 37.984C40.1142 38.411 39.6242 38.726 39.0362 38.817C38.4552 38.901 37.9442 38.74 37.5522 38.537C37.1672 38.341 36.8312 38.068 36.5582 37.83C36.4182 37.711 36.2361 37.543 36.0681 37.389C35.9491 37.284 35.8443 37.186 35.7673 37.116C35.2213 36.626 34.9622 36.514 34.8362 36.507C34.8362 36.507 34.7664 36.507 34.6404 36.591C34.4864 36.696 34.2552 36.92 33.9612 37.368H33.9541C33.6111 37.886 33.1842 38.32 32.6382 38.544C32.0572 38.789 31.4903 38.74 31.0143 38.579C30.5733 38.432 30.1882 38.173 29.8802 37.949C29.6632 37.788 29.4322 37.592 29.2222 37.424C29.1522 37.361 29.0754 37.305 29.0124 37.249C28.4104 36.759 28.0953 36.591 27.8923 36.577H27.8851C27.8851 36.577 27.5421 36.542 26.9541 37.417C26.6391 37.907 26.2192 38.32 25.6522 38.523C25.0782 38.733 24.5322 38.656 24.0912 38.509C23.6712 38.362 23.2931 38.131 22.9851 37.914C22.7751 37.774 22.5514 37.606 22.3484 37.452C22.2574 37.382 22.1661 37.312 22.0821 37.256C21.4591 36.801 21.1021 36.619 20.8571 36.605C20.7871 36.605 20.4791 36.584 19.9681 37.368H19.9612C19.4502 38.138 18.6802 38.817 17.6582 38.817C16.6362 38.817 15.8594 38.138 15.3624 37.368C15.0054 36.829 15.1594 36.108 15.6984 35.751C16.2374 35.401 16.9654 35.548 17.3154 36.094C17.4834 36.353 17.6022 36.444 17.6582 36.472C17.7142 36.444 17.8404 36.353 18.0154 36.087C18.8064 34.883 19.8001 34.204 21.0041 34.274C22.0261 34.337 22.9011 34.953 23.4681 35.373C23.5941 35.464 23.7062 35.548 23.8112 35.625C23.9862 35.758 24.1474 35.877 24.3154 35.989C24.5744 36.164 24.7422 36.262 24.8612 36.297C24.8682 36.297 24.8751 36.297 24.8821 36.297C24.9101 36.269 24.9522 36.213 25.0082 36.129C25.8272 34.89 26.8283 34.155 28.0533 34.239C29.0963 34.316 29.9571 35.002 30.4821 35.429C30.5871 35.513 30.6784 35.59 30.7624 35.66C30.9514 35.814 31.1122 35.947 31.2802 36.073C31.5182 36.255 31.6722 36.332 31.7632 36.367C31.8051 36.332 31.8892 36.255 32.0082 36.08C32.7852 34.897 33.7372 34.113 34.9412 34.169C35.9912 34.218 36.8171 34.918 37.3211 35.366C37.4821 35.513 37.6013 35.618 37.7063 35.723C37.8253 35.835 37.9372 35.933 38.0912 36.066C38.3222 36.276 38.4974 36.395 38.6234 36.465C38.6584 36.479 38.6791 36.493 38.6931 36.5V36.486Z" fill="#EF4E45"/>
</g>
<rect x="9" y="7" width="38" height="38" rx="19" stroke="white" stroke-width="2"/>
</g>
<defs>
<filter id="filter0_d_896_8285" x="0" y="0" width="56" height="56" filterUnits="userSpaceOnUse" color-interpolation-filters="sRGB">
<feFlood flood-opacity="0" result="BackgroundImageFix"/>
<feColorMatrix in="SourceAlpha" type="matrix" values="0 0 0 0 0 0 0 0 0 0 0 0 0 0 0 0 0 0 127 0" result="hardAlpha"/>
<feOffset dy="2"/>
<feGaussianBlur stdDeviation="4"/>
<feColorMatrix type="matrix" values="0 0 0 0 0 0 0 0 0 0 0 0 0 0 0 0 0 0 0.16 0"/>
<feBlend mode="normal" in2="BackgroundImageFix" result="effect1_dropShadow_896_8285"/>
<feBlend mode="normal" in="SourceGraphic" in2="effect1_dropShadow_896_8285" result="shape"/>
</filter>
<clipPath id="clip0_896_8285">
<rect x="10" y="8" width="36" height="36" rx="18" fill="white"/>
</clipPath>
</defs>
</svg>
