<svg width="64" height="64" viewBox="0 0 64 64" fill="none" xmlns="http://www.w3.org/2000/svg">
<g filter="url(#filter0_d_10646_47206)">
<g clip-path="url(#clip0_10646_47206)">
<path d="M10 32C10 19.8497 19.8497 10 32 10C44.1503 10 54 19.8497 54 32C54 44.1503 44.1503 54 32 54C19.8497 54 10 44.1503 10 32Z" fill="#414C1C"/>
<path fill-rule="evenodd" clip-rule="evenodd" d="M22.6689 37.831C22.0249 37.831 21.5 38.356 21.5 39C21.5 39.644 22.0249 40.169 22.6689 40.169C23.3129 40.169 23.8311 39.644 23.8311 39C23.8311 38.356 23.3129 37.831 22.6689 37.831ZM19.1689 39C19.1689 37.068 20.7369 35.5 22.6689 35.5C24.6009 35.5 26.1689 37.068 26.1689 39C26.1689 40.932 24.6009 42.5 22.6689 42.5C20.7369 42.5 19.1689 40.932 19.1689 39Z" fill="white"/>
<path fill-rule="evenodd" clip-rule="evenodd" d="M41.3311 37.831C40.6871 37.831 40.1689 38.356 40.1689 39C40.1689 39.644 40.6871 40.169 41.3311 40.169C41.9751 40.169 42.5 39.644 42.5 39C42.5 38.356 41.9751 37.831 41.3311 37.831ZM37.8311 39C37.8311 37.068 39.3991 35.5 41.3311 35.5C43.2631 35.5 44.8311 37.068 44.8311 39C44.8311 40.932 43.2631 42.5 41.3311 42.5C39.3991 42.5 37.8311 40.932 37.8311 39Z" fill="white"/>
<path fill-rule="evenodd" clip-rule="evenodd" d="M34.3309 22.669C34.3309 22.025 34.8558 21.5 35.4998 21.5H36.6407C38.2157 21.5 39.5949 22.55 40.0149 24.062L42.4581 32.854C42.5561 33.204 42.4859 33.582 42.2619 33.869C42.0449 34.156 41.6949 34.331 41.3309 34.331C39.8049 34.331 38.4538 35.059 37.5998 36.2C37.0118 36.977 36.6688 37.95 36.6688 39C36.6688 39.644 36.1438 40.169 35.4998 40.169H24.9998C24.6918 40.169 24.391 40.05 24.174 39.826C23.957 39.609 23.8311 39.308 23.8311 39C23.8311 38.356 23.3129 37.831 22.6689 37.831C22.0249 37.831 21.5278 37.341 21.4998 36.711C21.4718 36.088 21.948 35.549 22.571 35.5L36.074 34.373C37.047 33.274 38.3559 32.476 39.8399 32.154L37.768 24.685C37.628 24.181 37.1657 23.831 36.6407 23.831H35.4998C34.8558 23.831 34.3309 23.306 34.3309 22.662V22.669Z" fill="white"/>
</g>
<path d="M32 9C44.7025 9 55 19.2975 55 32C55 44.7025 44.7025 55 32 55C19.2975 55 9 44.7025 9 32C9 19.2975 19.2975 9 32 9Z" stroke="white" stroke-width="2"/>
</g>
<defs>
<filter id="filter0_d_10646_47206" x="0" y="0" width="64" height="64" filterUnits="userSpaceOnUse" color-interpolation-filters="sRGB">
<feFlood flood-opacity="0" result="BackgroundImageFix"/>
<feColorMatrix in="SourceAlpha" type="matrix" values="0 0 0 0 0 0 0 0 0 0 0 0 0 0 0 0 0 0 127 0" result="hardAlpha"/>
<feOffset/>
<feGaussianBlur stdDeviation="4"/>
<feColorMatrix type="matrix" values="0 0 0 0 0 0 0 0 0 0 0 0 0 0 0 0 0 0 0.23 0"/>
<feBlend mode="normal" in2="BackgroundImageFix" result="effect1_dropShadow_10646_47206"/>
<feBlend mode="normal" in="SourceGraphic" in2="effect1_dropShadow_10646_47206" result="shape"/>
</filter>
<clipPath id="clip0_10646_47206">
<path d="M10 32C10 19.8497 19.8497 10 32 10C44.1503 10 54 19.8497 54 32C54 44.1503 44.1503 54 32 54C19.8497 54 10 44.1503 10 32Z" fill="white"/>
</clipPath>
</defs>
</svg>
