<svg width="48" height="48" viewBox="0 0 48 48" fill="none" xmlns="http://www.w3.org/2000/svg">
<g filter="url(#filter0_d_8318_7473)">
<g clip-path="url(#clip0_8318_7473)">
<path d="M8 24C8 15.1634 15.1634 8 24 8C32.8366 8 40 15.1634 40 24C40 32.8366 32.8366 40 24 40C15.1634 40 8 32.8366 8 24Z" fill="white"/>
<path d="M24 9C32.2843 9 39 15.7157 39 24C39 32.2843 32.2843 39 24 39C15.7157 39 9 32.2843 9 24C9 15.7157 15.7157 9 24 9Z" fill="#902F2A"/>
<path d="M24 9C32.2843 9 39 15.7157 39 24C39 32.2843 32.2843 39 24 39C15.7157 39 9 32.2843 9 24C9 15.7157 15.7157 9 24 9Z" stroke="white" stroke-width="2"/>
<path fill-rule="evenodd" clip-rule="evenodd" d="M18.79 24.833C17.41 24.833 16.29 25.953 16.29 27.333C16.29 28.713 17.41 29.833 18.79 29.833C20.17 29.833 21.29 28.713 21.29 27.333C21.29 25.953 20.17 24.833 18.79 24.833ZM14.625 27.333C14.625 25.033 16.49 23.168 18.79 23.168C21.09 23.168 22.9551 25.033 22.9551 27.333C22.9551 29.633 21.09 31.498 18.79 31.498C16.49 31.498 14.625 29.633 14.625 27.333Z" fill="white"/>
<path fill-rule="evenodd" clip-rule="evenodd" d="M29.2051 24.833C27.8251 24.833 26.7051 25.953 26.7051 27.333C26.7051 28.713 27.8251 29.833 29.2051 29.833C30.5851 29.833 31.7051 28.713 31.7051 27.333C31.7051 25.953 30.5901 24.833 29.2051 24.833ZM25.04 27.333C25.04 25.033 26.9051 23.168 29.2051 23.168C31.5051 23.168 33.375 25.033 33.375 27.333C33.375 29.633 31.5051 31.498 29.2051 31.498C26.9051 31.498 25.04 29.633 25.04 27.333Z" fill="white"/>
<path fill-rule="evenodd" clip-rule="evenodd" d="M27.5649 19.9629C27.9549 20.2079 28.0751 20.7229 27.8301 21.1129L23.665 27.7779C23.51 28.0229 23.2451 28.1679 22.9551 28.1679H18.79C18.33 28.1679 17.9551 27.7929 17.9551 27.3329C17.9551 26.8729 18.33 26.4979 18.79 26.4979H22.4951L26.415 20.2279C26.66 19.8379 27.1749 19.7179 27.5649 19.9629Z" fill="white"/>
<path fill-rule="evenodd" clip-rule="evenodd" d="M17.125 19.833C17.125 19.373 17.4951 18.998 17.9551 18.998H22.125C22.585 18.998 22.9551 19.373 22.9551 19.833C22.9551 20.293 22.585 20.668 22.125 20.668H21.4199L24.8452 24.708C25.1402 25.058 25.0951 25.583 24.7451 25.883C24.3951 26.178 23.8698 26.138 23.5698 25.783L19.2349 20.663H17.9551C17.4951 20.663 17.125 20.288 17.125 19.828V19.833Z" fill="white"/>
<path fill-rule="evenodd" clip-rule="evenodd" d="M27.4199 18.2181C27.7899 18.2381 28.1449 18.2781 28.4849 18.3681C29.0899 18.5281 29.4749 18.8131 29.6499 19.4131C29.7749 19.8531 30.2402 20.1131 30.6802 19.9831C31.1252 19.8581 31.38 19.3931 31.25 18.9531C30.87 17.6231 29.89 17.0181 28.915 16.7581C28.19 16.5631 27.3699 16.5381 26.7549 16.5181C26.6049 16.5181 26.4701 16.5081 26.3501 16.5031C25.7451 16.4731 25.3401 17.0481 25.4951 17.5781L28.4053 27.5681C28.5353 28.0081 28.9999 28.2631 29.4399 28.1331C29.8799 28.0031 30.1349 27.5431 30.0049 27.0981L27.4199 18.2131V18.2181Z" fill="white"/>
</g>
<path d="M24 9C32.2843 9 39 15.7157 39 24C39 32.2843 32.2843 39 24 39C15.7157 39 9 32.2843 9 24C9 15.7157 15.7157 9 24 9Z" stroke="white" stroke-width="2"/>
</g>
<defs>
<filter id="filter0_d_8318_7473" x="0" y="0" width="48" height="48" filterUnits="userSpaceOnUse" color-interpolation-filters="sRGB">
<feFlood flood-opacity="0" result="BackgroundImageFix"/>
<feColorMatrix in="SourceAlpha" type="matrix" values="0 0 0 0 0 0 0 0 0 0 0 0 0 0 0 0 0 0 127 0" result="hardAlpha"/>
<feOffset/>
<feGaussianBlur stdDeviation="4"/>
<feColorMatrix type="matrix" values="0 0 0 0 0 0 0 0 0 0 0 0 0 0 0 0 0 0 0.23 0"/>
<feBlend mode="normal" in2="BackgroundImageFix" result="effect1_dropShadow_8318_7473"/>
<feBlend mode="normal" in="SourceGraphic" in2="effect1_dropShadow_8318_7473" result="shape"/>
</filter>
<clipPath id="clip0_8318_7473">
<path d="M8 24C8 15.1634 15.1634 8 24 8C32.8366 8 40 15.1634 40 24C40 32.8366 32.8366 40 24 40C15.1634 40 8 32.8366 8 24Z" fill="white"/>
</clipPath>
</defs>
</svg>
