<svg width="56" height="56" viewBox="0 0 56 56" fill="none" xmlns="http://www.w3.org/2000/svg">
<g filter="url(#filter0_d_803_6507)">
<g clip-path="url(#clip0_803_6507)">
<rect x="10" y="8" width="36" height="36" rx="18" fill="#FCDCDA"/>
<path d="M39.2001 29.57C39.2001 29.8647 39.0375 30.0285 38.7449 30.0285H35.3638V29.7337C35.3638 29.0788 35.1362 28.4893 34.6485 28.0308C34.1934 27.5723 33.6082 27.3103 32.958 27.3103C32.3077 27.3103 31.69 27.5396 31.2349 28.0308C30.7797 28.4893 30.5196 29.0788 30.5196 29.7337C30.5196 30.3887 30.5196 29.832 30.5196 29.8647V29.9957H25.4154V29.701C25.4154 29.046 25.1879 28.4565 24.7327 27.9981C24.2776 27.5396 23.6924 27.2776 23.0096 27.2776C22.3269 27.2776 21.7417 27.5068 21.2866 27.9981C20.8314 28.4565 20.6038 29.046 20.6038 29.701V29.9957H17.2552C17.1252 29.9957 17.0276 29.9957 16.9301 29.8647C16.8326 29.7665 16.8 29.6682 16.8 29.5372V20.8589C16.8 20.7279 16.8326 20.6296 16.9301 20.5314C17.0276 20.4331 17.1252 20.4004 17.2552 20.4004H38.6799C38.8099 20.4004 38.9075 20.4004 39.005 20.5314C39.1025 20.6296 39.135 20.7279 39.135 20.8589H39.2001V29.57ZM17.8729 26.0659H22.3269V22.3653H17.8729V26.0659ZM24.9278 29.7337C24.9278 30.2577 24.7327 30.6834 24.3751 31.0437C24.0175 31.4039 23.5623 31.6004 23.0747 31.6004C22.587 31.6004 22.1318 31.4039 21.7742 31.0437C21.4166 30.6834 21.2215 30.225 21.2215 29.7337C21.2215 29.2425 21.4166 28.784 21.7742 28.4238C22.1318 28.0635 22.587 27.8998 23.0747 27.8998C23.5623 27.8998 24.0175 28.0635 24.3751 28.4238C24.7327 28.784 24.9278 29.2097 24.9278 29.7337ZM23.1397 26.0659H27.5937V22.3653H23.1397V26.0659ZM28.4389 26.0659H32.9254V22.3653H28.4389V26.0659ZM34.8436 29.7337C34.8436 30.2577 34.6485 30.6834 34.2909 31.0437C33.9333 31.4039 33.4781 31.6004 32.9905 31.6004C32.5028 31.6004 32.0477 31.4039 31.69 31.0437C31.3324 30.6834 31.1374 30.225 31.1374 29.7337C31.1374 29.2425 31.3324 28.784 31.69 28.4238C32.0477 28.0635 32.5028 27.8998 32.9905 27.8998C33.4781 27.8998 33.9333 28.0635 34.2909 28.4238C34.6485 28.784 34.8436 29.2097 34.8436 29.7337ZM33.7382 26.0659H38.1922V22.3653H33.7382V26.0659Z" fill="#EF4E45"/>
</g>
<rect x="9" y="7" width="38" height="38" rx="19" stroke="white" stroke-width="2"/>
</g>
<defs>
<filter id="filter0_d_803_6507" x="0" y="0" width="56" height="56" filterUnits="userSpaceOnUse" color-interpolation-filters="sRGB">
<feFlood flood-opacity="0" result="BackgroundImageFix"/>
<feColorMatrix in="SourceAlpha" type="matrix" values="0 0 0 0 0 0 0 0 0 0 0 0 0 0 0 0 0 0 127 0" result="hardAlpha"/>
<feOffset dy="2"/>
<feGaussianBlur stdDeviation="4"/>
<feColorMatrix type="matrix" values="0 0 0 0 0 0 0 0 0 0 0 0 0 0 0 0 0 0 0.16 0"/>
<feBlend mode="normal" in2="BackgroundImageFix" result="effect1_dropShadow_803_6507"/>
<feBlend mode="normal" in="SourceGraphic" in2="effect1_dropShadow_803_6507" result="shape"/>
</filter>
<clipPath id="clip0_803_6507">
<rect x="10" y="8" width="36" height="36" rx="18" fill="white"/>
</clipPath>
</defs>
</svg>
