<svg width="56" height="56" viewBox="0 0 56 56" fill="none" xmlns="http://www.w3.org/2000/svg">
<g filter="url(#filter0_d_8318_7593)">
<g clip-path="url(#clip0_8318_7593)">
<rect x="10" y="8" width="36" height="36" rx="18" fill="#FCDCDA"/>
<path fill-rule="evenodd" clip-rule="evenodd" d="M22.4049 32.5172C22.8599 32.9722 22.8599 33.7142 22.4049 34.1692L19.4928 37.0882C19.0308 37.5432 18.2962 37.5432 17.8412 37.0882C17.3863 36.6332 17.3863 35.8912 17.8412 35.4362L20.7534 32.5172C21.2154 32.0622 21.9499 32.0622 22.4049 32.5172ZM33.5912 32.5172C34.0462 32.0622 34.7808 32.0622 35.2428 32.5172L38.1549 35.4362C38.6099 35.8912 38.6099 36.6332 38.1549 37.0882C37.6999 37.5432 36.9654 37.5432 36.5034 37.0882L33.5912 34.1692C33.1362 33.7142 33.1362 32.9722 33.5912 32.5172Z" fill="#EF4E45"/>
<path fill-rule="evenodd" clip-rule="evenodd" d="M19.1986 18.972C19.6676 16.158 22.1041 14.1 24.9531 14.1H31.0426C33.8986 14.1 36.3281 16.158 36.7971 18.972L38.3365 28.212C38.8475 31.25 36.881 34.246 33.71 34.673C31.995 34.904 29.9579 35.1 27.9979 35.1C26.0379 35.1 24.0077 34.904 22.2857 34.673C19.1217 34.246 17.1552 31.25 17.6592 28.212L19.1986 18.972ZM24.9531 16.431C23.2451 16.431 21.7817 17.67 21.5017 19.357L21.0751 21.919C22.0201 22.927 23.2587 23.585 24.5047 24.005C25.8977 24.467 27.2279 24.6 27.9979 24.6C28.7679 24.6 30.098 24.467 31.491 24.005C32.737 23.592 33.9761 22.927 34.9281 21.919L34.5009 19.357C34.2139 17.67 32.7576 16.431 31.0426 16.431H24.9531ZM24.4979 28.093C23.8539 28.093 23.3289 28.618 23.3289 29.262C23.3289 29.906 23.8539 30.431 24.4979 30.431C25.1489 30.431 25.6668 29.906 25.6668 29.262C25.6668 28.618 25.1489 28.093 24.4979 28.093ZM31.4842 28.093C30.8402 28.093 30.3221 28.618 30.3221 29.262C30.3221 29.906 30.8402 30.431 31.4842 30.431H31.4979C32.1419 30.431 32.6668 29.906 32.6668 29.262C32.6668 28.618 32.1419 28.093 31.4979 28.093H31.4842Z" fill="#EF4E45"/>
</g>
<rect x="9" y="7" width="38" height="38" rx="19" stroke="white" stroke-width="2"/>
</g>
<defs>
<filter id="filter0_d_8318_7593" x="0" y="0" width="56" height="56" filterUnits="userSpaceOnUse" color-interpolation-filters="sRGB">
<feFlood flood-opacity="0" result="BackgroundImageFix"/>
<feColorMatrix in="SourceAlpha" type="matrix" values="0 0 0 0 0 0 0 0 0 0 0 0 0 0 0 0 0 0 127 0" result="hardAlpha"/>
<feOffset dy="2"/>
<feGaussianBlur stdDeviation="4"/>
<feColorMatrix type="matrix" values="0 0 0 0 0 0 0 0 0 0 0 0 0 0 0 0 0 0 0.16 0"/>
<feBlend mode="normal" in2="BackgroundImageFix" result="effect1_dropShadow_8318_7593"/>
<feBlend mode="normal" in="SourceGraphic" in2="effect1_dropShadow_8318_7593" result="shape"/>
</filter>
<clipPath id="clip0_8318_7593">
<rect x="10" y="8" width="36" height="36" rx="18" fill="white"/>
</clipPath>
</defs>
</svg>
