<svg width="56" height="56" viewBox="0 0 56 56" fill="none" xmlns="http://www.w3.org/2000/svg">
<g filter="url(#filter0_d_896_8264)">
<g clip-path="url(#clip0_896_8264)">
<rect x="10" y="8" width="36" height="36" rx="18" fill="#FCDCDA"/>
<path fill-rule="evenodd" clip-rule="evenodd" d="M15.4 20.7504C15.4 19.5906 16.3402 18.6504 17.5 18.6504H35C38.4794 18.6504 41.3 21.471 41.3 24.9504V30.5504C41.3 31.7102 40.3598 32.6504 39.2 32.6504C39.2 30.3308 37.3196 28.4504 35 28.4504C32.6804 28.4504 30.8 30.3308 30.8 32.6504H25.9C25.9 30.3308 24.0196 28.4504 21.7 28.4504C19.3804 28.4504 17.5 30.3308 17.5 32.6504C16.3402 32.6504 15.4 31.7102 15.4 30.5504V20.7504ZM17.5 21.4504C17.5 21.0638 17.8134 20.7504 18.2 20.7504H20.2971C20.6837 20.7504 20.9971 21.0638 20.9971 21.4504V24.9504C20.9971 25.337 20.6837 25.6504 20.2971 25.6504H18.2C17.85 25.6504 17.5 25.3004 17.5 24.9504V21.4504ZM23.1076 20.7504C22.721 20.7504 22.4076 21.0638 22.4076 21.4504L22.4 24.9504C22.4 25.3004 22.75 25.6504 23.1 25.6504H25.9076C26.2942 25.6504 26.6076 25.337 26.6076 24.9504V21.4504C26.6076 21.0638 26.2942 20.7504 25.9076 20.7504H23.1076ZM28.0181 21.4504C28.0181 21.0638 28.3315 20.7504 28.7181 20.7504H31.5181C31.9047 20.7504 32.2181 21.0638 32.2181 21.4504V24.9504C32.2181 25.337 31.9047 25.6504 31.5181 25.6504H29.4181C28.6449 25.6504 28 25.7236 28 24.9504L28.0181 21.4504ZM34.3286 20.7504C33.9421 20.7504 33.6286 21.0638 33.6286 21.4504V24.9504C33.6286 25.337 33.9421 25.6504 34.3286 25.6504H38.5286C38.9152 25.6504 39.2286 25.337 39.2286 24.9504C39.2286 22.6308 37.3482 20.7504 35.0286 20.7504H34.3286Z" fill="#EF4E45"/>
<path d="M24.5 32.6504C24.5 34.1968 23.2464 35.4504 21.7 35.4504C20.1536 35.4504 18.9 34.1968 18.9 32.6504C18.9 31.104 20.1536 29.8504 21.7 29.8504C23.2464 29.8504 24.5 31.104 24.5 32.6504Z" fill="#EF4E45"/>
<path d="M37.8 32.6504C37.8 34.1968 36.5464 35.4504 35 35.4504C33.4536 35.4504 32.2 34.1968 32.2 32.6504C32.2 31.104 33.4536 29.8504 35 29.8504C36.5464 29.8504 37.8 31.104 37.8 32.6504Z" fill="#EF4E45"/>
</g>
<rect x="9" y="7" width="38" height="38" rx="19" stroke="white" stroke-width="2"/>
</g>
<defs>
<filter id="filter0_d_896_8264" x="0" y="0" width="56" height="56" filterUnits="userSpaceOnUse" color-interpolation-filters="sRGB">
<feFlood flood-opacity="0" result="BackgroundImageFix"/>
<feColorMatrix in="SourceAlpha" type="matrix" values="0 0 0 0 0 0 0 0 0 0 0 0 0 0 0 0 0 0 127 0" result="hardAlpha"/>
<feOffset dy="2"/>
<feGaussianBlur stdDeviation="4"/>
<feColorMatrix type="matrix" values="0 0 0 0 0 0 0 0 0 0 0 0 0 0 0 0 0 0 0.16 0"/>
<feBlend mode="normal" in2="BackgroundImageFix" result="effect1_dropShadow_896_8264"/>
<feBlend mode="normal" in="SourceGraphic" in2="effect1_dropShadow_896_8264" result="shape"/>
</filter>
<clipPath id="clip0_896_8264">
<rect x="10" y="8" width="36" height="36" rx="18" fill="white"/>
</clipPath>
</defs>
</svg>
